<?xml version="1.0" encoding="utf-8"?>
<!-- Generator: Adobe Illustrator 22.0.1, SVG Export Plug-In . SVG Version: 6.00 Build 0)  -->
<svg version="1.1" id="Layer_1" xmlns="http://www.w3.org/2000/svg" xmlns:xlink="http://www.w3.org/1999/xlink" x="0px" y="0px"
	 viewBox="0 0 176.7 128.7" style="enable-background:new 0 0 176.7 128.7;" xml:space="preserve">
<style type="text/css">
	.st0{fill:#FBDEDE;stroke:#EB5858;stroke-miterlimit:10;}
	.st1{fill:#EB5858;stroke:#FFFFFF;stroke-miterlimit:10;}
</style>
<title>inferormedial_reach</title>
<path class="st0" d="M54.9,32.6l17.8,8.9L69.9,42v2.5l4.1,2.2l6.8-1.4l18.2,9l2.1,0.2l-0.3,0.7V58l2.8,0.1L93.8,81l-9.9-0.9
	l-2.6,5.1v3.4l8.9,0.8l-16.2,38c-0.5,1.1,2.8,2.2,3.8,0c0.2-0.5,8.1-19.6,15.6-37.7l10.5,0.9l1.9-5.2V82l-8.9-0.8l9.5-23l3.6,0.2
	l0.9-3l2.1,0.2l8.8-2.3l5.6,2.3l6.7-1.7v-2.8l-1.7-0.7c18-4.7,42-11,42.7-11.1c1.5-0.3,1.2-2.7,0-2.4l-46.4,12l-6.1-2.5l-6.5,1.6
	v2.9l1.9,0.8L113,53l-1.3-0.1l1.3-4.2v-2.5l-8.3-0.4l-2.8,6.5l-3-0.2l-15.1-7.3l4.1-0.8v-2.5l-4.4-2.1l-7.8,1.5
	c-10.3-5-20.3-9.9-20.7-10.2C54.1,30.3,53.5,31.9,54.9,32.6z"/>
<path class="st1" d="M88.1,9.3c5.4,0.2,9.3,3,10.4,4.4c1.8,2.8,2.8,9.2,2.8,9.2s7.8,1.3,7.6,7.8s-6.3,6.2-6.3,6.2s0.4,12.4,0.8,13
	c0.5,0.3,1,0.6,1.6,0.8c0.7,0.1,1.4,0.1,2.1,0.1c0.3,0,1,0.7,1.2,0.7s3.2,0.1,3.4,0.4s-0.4,0.5-0.4,0.5s1.6,0.4,1.6,0.7
	c0,0.2-0.1,0.3-0.2,0.4c0,0,0.7,0.2,0.5,0.4s-0.4,0.2-0.8,0.5s-1.2,0-1.2,0l-2.7-0.7c0,0-0.4,0.8-1,0.8s-2.3-0.6-2.8-0.6
	c-0.8,0.2-1.6,0.2-2.3,0.1c-0.9-0.2-1.5-1-2.2-3.6c-0.3-0.9-0.8-2.6-1.2-3.8s-1.8-5.1-1.8-5.1c-0.7-2.6-1.2-5.1-1.7-7.8
	c-2.4-0.7-3.2-4.5-3.2-4.5l-0.7-1.3c-0.5,1.2-1,2.3-1.8,3.4c-0.3,0.4-0.6,2.4-1,4s-4.5,2.2-4.5,2.2c-0.6,0.3-1.2,0.6-1.7,1.1
	c-0.4,0.4-0.8,0.7-1.2,1.1l-2.9,3.7c0.1,0.2,0.1,0.4,0.1,0.6c-0.4,0.4-0.8,0.7-1.2,1l-2.2,1.8c-0.2,0.1-0.5,0-0.7-0.2
	c-0.2-0.3,0-1.3,0-1.3l0.4-1.2l-0.2-0.8c0,0-0.8-1.3-0.6-1.8s1.2-1,1.2-1s0.3-3.5,1.3-4.9c0.9-1.1,2.1-2,3.5-2.5v-1.3
	c-3.5-0.4-6.5-2.7-7.8-5.9c-5.6-0.8-12.8-6.8-12.8-6.8c-1,1-2.2,2-3.4,2.8c-7.6,7.5-27,12.9-27,12.9c-3.6,2-7,4.4-10.1,7.1
	c-0.4,0.6-0.6,1.3-0.5,2.1c0.1,0.8,0.5,3.3,0.5,3.3c0.1,0.3,0.3,0.5,0.6,0.7c0.4,0.1,1.4,0.5,1.4,0.5l0.9,0.1
	c0.5,0.1,0.8,0.8,0.8,0.8s0.2,0.7-0.1,0.7c-0.4,0.5-3.2,0.6-3.2,0.6c-0.6,0.1-1.1,0.1-1.7,0c-1-0.9-1.7-2.1-2.1-3.5
	c-0.4-0.6-1.3-2-1.3-2c-1.3,1.1-2.5,2.3-3.6,3.7c-0.9,1.5-1.9,3.9-1.8,5.1s1.5,4.4,2,4.8s2.4,0.6,3.1,1.4s-1,1.1-1,1.1
	s-0.2,0.7-1.4,0.5c-0.5,0.7-1.8,0.3-1.8,0.3c-0.5,0.4-1.2,0.4-1.7,0c-0.6,0.6-1.5-0.5-2.2-1.1c-0.7-0.7-1.3-1.5-1.9-2.4
	c-1.3-1.8-2.5-3.6-3.5-5.5c-2.2-3.3,2.3-5.1,3.9-6.3c5.8-4.6,10.1-16.5,20.6-18.9c1.3-0.6,3.8-2.4,5.5-3.4c3.2-4.2,15.8-14,15.8-14
	s4.8-8.7,12.2-9.6s16.6,6.7,18.4,7.3C78.6,8.5,81.4,9.1,88.1,9.3z"/>
<path class="st0" d="M88.1,9.3c5.4,0.2,9.3,3,10.4,4.4c1.8,2.8,2.8,9.2,2.8,9.2s7.8,1.3,7.6,7.8s-6.3,6.2-6.3,6.2s0.4,12.4,0.8,13
	c0.5,0.3,1,0.6,1.6,0.8c0.7,0.1,1.4,0.1,2.1,0.1c0.3,0,1,0.7,1.2,0.7s3.2,0.1,3.4,0.4s-0.4,0.5-0.4,0.5s1.6,0.4,1.6,0.7
	c0,0.2-0.1,0.3-0.2,0.4c0,0,0.7,0.2,0.5,0.4s-0.4,0.2-0.8,0.5s-1.2,0-1.2,0l-2.7-0.7c0,0-0.4,0.8-1,0.8s-2.3-0.6-2.8-0.6
	c-0.8,0.2-1.6,0.2-2.3,0.1c-0.9-0.2-1.5-1-2.2-3.6c-0.3-0.9-0.8-2.6-1.2-3.8s-1.8-5.1-1.8-5.1c-0.7-2.6-1.2-5.1-1.7-7.8
	c-2.4-0.7-3.2-4.5-3.2-4.5l-0.7-1.3c-0.5,1.2-1,2.3-1.8,3.4c-0.3,0.4-0.6,2.4-1,4s-4.5,2.2-4.5,2.2c-0.6,0.3-1.2,0.6-1.7,1.1
	c-0.4,0.4-0.8,0.7-1.2,1.1l-2.9,3.7c0.1,0.2,0.1,0.4,0.1,0.6c-0.4,0.4-0.8,0.7-1.2,1l-2.2,1.8c-0.2,0.1-0.5,0-0.7-0.2
	c-0.2-0.3,0-1.3,0-1.3l0.4-1.2l-0.2-0.8c0,0-0.8-1.3-0.6-1.8s1.2-1,1.2-1s0.3-3.5,1.3-4.9c0.9-1.1,2.1-2,3.5-2.5v-1.3
	c-3.5-0.4-6.5-2.7-7.8-5.9c-5.6-0.8-12.8-6.8-12.8-6.8c-1,1-2.2,2-3.4,2.8c-7.6,7.5-27,12.9-27,12.9c-3.6,2-7,4.4-10.1,7.1
	c-0.4,0.6-0.6,1.3-0.5,2.1c0.1,0.8,0.5,3.3,0.5,3.3c0.1,0.3,0.3,0.5,0.6,0.7c0.4,0.1,1.4,0.5,1.4,0.5l0.9,0.1
	c0.5,0.1,0.8,0.8,0.8,0.8s0.2,0.7-0.1,0.7c-0.4,0.5-3.2,0.6-3.2,0.6c-0.6,0.1-1.1,0.1-1.7,0c-1-0.9-1.7-2.1-2.1-3.5
	c-0.4-0.6-1.3-2-1.3-2c-1.3,1.1-2.5,2.3-3.6,3.7c-0.9,1.5-1.9,3.9-1.8,5.1s1.5,4.4,2,4.8s2.4,0.6,3.1,1.4s-1,1.1-1,1.1
	s-0.2,0.7-1.4,0.5c-0.5,0.7-1.8,0.3-1.8,0.3c-0.5,0.4-1.2,0.4-1.7,0c-0.6,0.6-1.5-0.5-2.2-1.1c-0.7-0.7-1.3-1.5-1.9-2.4
	c-1.3-1.8-2.5-3.6-3.5-5.5c-2.2-3.3,2.3-5.1,3.9-6.3c5.8-4.6,10.1-16.5,20.6-18.9c1.3-0.6,3.8-2.4,5.5-3.4c3.2-4.2,15.8-14,15.8-14
	s4.8-8.7,12.2-9.6s16.6,6.7,18.4,7.3C78.6,8.5,81.4,9.1,88.1,9.3z"/>
<path class="st0" d="M101.4,22.9c0,0-4.8-2.2-4.8-4.5c0-1.2,0.4-4,0.4-4"/>
<line class="st0" x1="14.5" y1="44.9" x2="19.2" y2="41.6"/>
<path class="st0" d="M95.6,33.6c1.7,2.1,4.3,3.3,7.1,3.2"/>
</svg>
