<?xml version="1.0" encoding="utf-8"?>
<!-- Generator: Adobe Illustrator 22.0.1, SVG Export Plug-In . SVG Version: 6.00 Build 0)  -->
<svg version="1.1" id="Layer_1" xmlns="http://www.w3.org/2000/svg" xmlns:xlink="http://www.w3.org/1999/xlink" x="0px" y="0px"
	 viewBox="0 0 232.2 153.5" style="enable-background:new 0 0 232.2 153.5;" xml:space="preserve">
<style type="text/css">
	.st0{fill:#EB5858;}
	.st1{fill:none;stroke:#231F20;stroke-width:0.5;stroke-miterlimit:10;}
	.st2{fill:#EB5858;stroke:#FFFFFF;stroke-miterlimit:10;}
	.st3{fill:none;stroke:#FFFFFF;stroke-width:0.5;stroke-linecap:round;stroke-miterlimit:10;}
</style>
<title>medial_reach</title>
<path class="st0" d="M80.8,35.5l29.5,13.6l-2.4,0.5V53l6.7,3.5l7.6-1.9l11.2,5.2l4.4,0.3l-0.1,0.3v3.9l4.5,0.3
	c-1.3,6.4-4.1,19.4-7.1,33.5L119.9,97l-2.6,8.4v5.3l14.9,1c-4.2,20.2-8.1,38.9-8.1,39.7c0.6,2.1,3.2,3.6,5.2,0
	c0-0.7,3.4-19.2,7.2-39.4l16.2,1.1l0.7-13.8l-14.3-1c2.7-14.1,5.1-27.2,6.3-33.6l5.2,0.3l0.6-4.1l4,0.2l11.1-3l8,3l8.5-2.2v-3.8
	l-2.4-0.9c21.8-5.9,50-13.6,50.9-13.8c1.1-1,0-2.5,0-2.5l-58,13.8l-7.4-2.6l-8.4,1.9v3.6l1.3,0.5l-5.5,1.3l-1.5-0.1l1.1-7.8l-11-0.5
	l-2.7,7.9l-3.8-0.2l-6.7-2.8l4.7-1.2v-3.2l-6.8-2.8l-10.1,2.1l-35.7-15V35.5z"/>
<path class="st1" d="M97.9,30.1c0,0-9.8,1.1-13.9,0.3c-5.5,5-20.2,9-20.2,9"/>
<path class="st1" d="M38.8,31.6c4.7-0.3,9.3-1.7,13.4-4.1"/>
<path class="st2" d="M0,54.5c0.5,1.7,1.1,3.4,1.9,5C2.7,61,4,65.7,5.4,66.1c0.5,1.5,1.4,1.5,1.4,1.5s1.3,0.5,1.9,0
	c0.8,0.4,1.6,0.4,2.4,0.2c0,0,1.5,0.7,2,0c0.8,0.2,1.5,0,2.1-0.5c0,0,2.8,0.1,2.1-1.3s-3.1-2.4-3.6-2.8c-1-1.6-1.9-3.3-2.6-5.1
	c-0.2-0.7,0.6-2.2,0.9-3c0.5-1.2,1.4-2.3,2.5-3.1c1.7-1.5,10.3-4.3,10.3-4.3c0,0.7,0.1,1.4,0.4,2c0.8,0.7,1.6,1.3,2.6,1.7
	c0,0,2.2,1.4,2.8,1.3c0.4-0.1,0.8-0.4,1-0.8c0,0,0.6-0.6,0.2-1c0,0,0,0,0-0.1c0.1-0.3-0.1-0.6-0.4-0.8L30,49.2
	c-0.5-0.4-0.9-0.8-1.2-1.3c0-0.6,0.2-1.2,0.5-1.8c8.3-2.2,12.7-3.3,15.7-3.8c6.2-0.5,12.4-1.5,18.5-2.9c21.1-0.2,29.4-5.2,34.2-9.3
	c0.4-0.2,0.8-0.3,1.2-0.2c0,0,8.3,1.3,14.2,0c4.2,4,6.4,3.8,7.9,3.8c1.1,0,2.3-0.2,3.4-0.5c-0.3,3.5-0.5,7-0.4,10.6
	c0.3,3.9,0.9,7.7,1.6,11.6c0.1,1.7,0.1,3.4,0,5.1c-0.2,1.5-0.8,4.8-1.1,9.2s0.8,7.6,0.6,8.9l-0.7,5.2c-0.7,1.3-1.3,2.7-1.6,4.2
	c-0.1,0.9,0.1,1.7,0.4,2.5c0,0,0.5,4.5,0.7,5.4c0,0.2,0.1,0.3,0.2,0.5c0.3,0.3,0.8,0.3,1.1,0c0.3-0.3,0.2-1.7,0.2-1.7l-0.1-2.5
	l0.4,0.5c0,0,0.2,1.6,0.2,2.3c0.2,0.8,0.4,1.6,0.8,2.3l4.2,0.3c0.1-0.5,0.1-0.9,0-1.4c0.3,0,0.7,1.4,0.7,1.4l2.4,0.2
	c0,0-1.2-5.1-1.4-6c-0.2-0.9,0.7-2.4,0.7-4.2c-0.2-1.5-0.7-2.9-1.5-4.2c0,0,0.2-8.1,0.5-11c0.3-2.9,2.1-8.8,2.1-11.6
	c0-1.7-0.2-3.5-0.6-5.1c0.8-2.4,1.5-4.9,2-7.4c0.1-1.9,0.1-3.8,0-5.7c0,0,1.5,6.7,1.6,7.8c0.1,1.1,0.2,3,0.4,4.4
	c0.1,1.3,0.6,2.5,1.6,3.4c1,0.6,4,0.6,4,0.6l1.8,0.3c0,0,2.8,0.3,3.3,0.3s0.4-0.9,0.4-0.9l1.1,0.2l1.1,0.7V61c0,0,0.3,0.4,0.6,0.2
	c0.5-0.7,0.7-1.5,0.7-2.4l-0.2-1.4c0,0,1.2-0.4,1.1-0.9c-0.1-0.5-2.2-0.6-2.2-0.6l-3.2-1c-0.3-0.3-0.7-0.6-1.2-0.7l-3.1-0.1
	c-0.5,0-1-0.3-1.1-0.7c-0.3-1.3-0.5-2.6-0.6-3.9c0.1-0.9,1.2-11.3,1.2-13.7c-0.1-1.9-0.2-3.7-0.5-5.6c-0.3-1.4-0.5-2.9-0.5-4.3
	l0.2-4.9c0,0,1.9,1.7,2.5,2.3s1.6,3.2,2.3,4c1.4,1.7,3.9,0.3,3.9,0.3l3.6-1.1c0,0,0.9,1,1.6,0.8s2.6-4.9,2.6-4.9
	c0.6,0,1.3-0.3,1.8-0.7c2.5-2.1,3.8-3.2,4.2-7c0-0.6,0.2-12.2-8.9-13.9C146.8-0.9,143,4.3,143,4.3c-2.6-1.6-5.4-2.8-8.4-3.5
	c-3.7-0.7-7.5-0.3-11,1.1c-3.3,1.4-5.8,4.6-14.1,4S99.3,3.7,90.9,4.6c-8.4,0.9-14.6,7-15.6,7.8L52.2,27.5c0,0-7.5-0.2-13.4,4.1
	c-3.6,0.2-7.2,1-10.5,2.4c0,0-3.9,0.4-4.8,1.3C23,35.7,22.8,36.4,23,37c-2.2,1.5-11.9,8.7-14.4,9.9s-6.7,2.4-7.8,3.6
	C-0.2,51.7,0,54.5,0,54.5z"/>
<path class="st0" d="M0,54.5c0.5,1.7,1.1,3.4,1.9,5C2.7,61,4,65.7,5.4,66.1c0.5,1.5,1.4,1.5,1.4,1.5s1.3,0.5,1.9,0
	c0.8,0.4,1.6,0.4,2.4,0.2c0,0,1.5,0.7,2,0c0.8,0.2,1.5,0,2.1-0.5c0,0,2.8,0.1,2.1-1.3s-3.1-2.4-3.6-2.8c-1-1.6-1.9-3.3-2.6-5.1
	c-0.2-0.7,0.6-2.2,0.9-3c0.5-1.2,1.4-2.3,2.5-3.1c1.7-1.5,10.3-4.3,10.3-4.3c0,0.7,0.1,1.4,0.4,2c0.8,0.7,1.6,1.3,2.6,1.7
	c0,0,2.2,1.4,2.8,1.3c0.4-0.1,0.8-0.4,1-0.8c0,0,0.6-0.6,0.2-1c0,0,0,0,0-0.1c0.1-0.3-0.1-0.6-0.4-0.8L30,49.2
	c-0.5-0.4-0.9-0.8-1.2-1.3c0-0.6,0.2-1.2,0.5-1.8c8.3-2.2,12.7-3.3,15.7-3.8c6.2-0.5,12.4-1.5,18.5-2.9c21.1-0.2,29.4-5.2,34.2-9.3
	c0.4-0.2,0.8-0.3,1.2-0.2c0,0,8.3,1.3,14.2,0c4.2,4,6.4,3.8,7.9,3.8c1.1,0,2.3-0.2,3.4-0.5c-0.3,3.5-0.5,7-0.4,10.6
	c0.3,3.9,0.9,7.7,1.6,11.6c0.1,1.7,0.1,3.4,0,5.1c-0.2,1.5-0.8,4.8-1.1,9.2s0.8,7.6,0.6,8.9l-0.7,5.2c-0.7,1.3-1.3,2.7-1.6,4.2
	c-0.1,0.9,0.1,1.7,0.4,2.5c0,0,0.5,4.5,0.7,5.4c0,0.2,0.1,0.3,0.2,0.5c0.3,0.3,0.8,0.3,1.1,0c0.3-0.3,0.2-1.7,0.2-1.7l-0.1-2.5
	l0.4,0.5c0,0,0.2,1.6,0.2,2.3c0.2,0.8,0.4,1.6,0.8,2.3l4.2,0.3c0.1-0.5,0.1-0.9,0-1.4c0.3,0,0.7,1.4,0.7,1.4l2.4,0.2
	c0,0-1.2-5.1-1.4-6c-0.2-0.9,0.7-2.4,0.7-4.2c-0.2-1.5-0.7-2.9-1.5-4.2c0,0,0.2-8.1,0.5-11c0.3-2.9,2.1-8.8,2.1-11.6
	c0-1.7-0.2-3.5-0.6-5.1c0.8-2.4,1.5-4.9,2-7.4c0.1-1.9,0.1-3.8,0-5.7c0,0,1.5,6.7,1.6,7.8c0.1,1.1,0.2,3,0.4,4.4
	c0.1,1.3,0.6,2.5,1.6,3.4c1,0.6,4,0.6,4,0.6l1.8,0.3c0,0,2.8,0.3,3.3,0.3s0.4-0.9,0.4-0.9l1.1,0.2l1.1,0.7V61c0,0,0.3,0.4,0.6,0.2
	c0.5-0.7,0.7-1.5,0.7-2.4l-0.2-1.4c0,0,1.2-0.4,1.1-0.9c-0.1-0.5-2.2-0.6-2.2-0.6l-3.2-1c-0.3-0.3-0.7-0.6-1.2-0.7l-3.1-0.1
	c-0.5,0-1-0.3-1.1-0.7c-0.3-1.3-0.5-2.6-0.6-3.9c0.1-0.9,1.2-11.3,1.2-13.7c-0.1-1.9-0.2-3.7-0.5-5.6c-0.3-1.4-0.5-2.9-0.5-4.3
	l0.2-4.9c0,0,1.9,1.7,2.5,2.3s1.6,3.2,2.3,4c1.4,1.7,3.9,0.3,3.9,0.3l3.6-1.1c0,0,0.9,1,1.6,0.8s2.6-4.9,2.6-4.9
	c0.6,0,1.3-0.3,1.8-0.7c2.5-2.1,3.8-3.2,4.2-7c0-0.6,0.2-12.2-8.9-13.9C146.8-0.9,143,4.3,143,4.3c-2.6-1.6-5.4-2.8-8.4-3.5
	c-3.7-0.7-7.5-0.3-11,1.1c-3.3,1.4-5.8,4.6-14.1,4S99.3,3.7,90.9,4.6c-8.4,0.9-14.6,7-15.6,7.8L52.2,27.5c0,0-7.5-0.2-13.4,4.1
	c-3.6,0.2-7.2,1-10.5,2.4c0,0-3.9,0.4-4.8,1.3C23,35.7,22.8,36.4,23,37c-2.2,1.5-11.9,8.7-14.4,9.9s-6.7,2.4-7.8,3.6
	C-0.2,51.7,0,54.5,0,54.5z"/>
<path class="st3" d="M136,42.6c0,0,2.6-9.8,3-13.2s-1.9-5-1.8-5.8l0.5-2.2l4.9-0.3"/>
<path class="st3" d="M119.7,26.6c1.6,1.2,3.2,2.3,4.9,3.3c-0.3,0.6,0,3.4,0,3.4"/>
<line class="st3" x1="25.1" y1="47.6" x2="29.6" y2="46.1"/>
<line class="st3" x1="23" y1="37" x2="28.3" y2="34"/>
</svg>
