<?xml version="1.0" encoding="utf-8"?>
<!-- Generator: Adobe Illustrator 22.0.1, SVG Export Plug-In . SVG Version: 6.00 Build 0)  -->
<svg version="1.1" id="Layer_1" xmlns="http://www.w3.org/2000/svg" xmlns:xlink="http://www.w3.org/1999/xlink" x="0px" y="0px"
	 viewBox="0 0 169.4 106.5" style="enable-background:new 0 0 169.4 106.5;" xml:space="preserve">
<style type="text/css">
	.st0{fill:#FBDEDE;stroke:#EB5858;stroke-miterlimit:10;}
	.st1{fill:#EB5858;stroke:#FFFFFF;stroke-miterlimit:10;}
</style>
<title>superolateral_reach</title>
<path class="st0" d="M66.3,30.7l-2.9,0.6v2.8l3.6,2l7.4-1.5l18.8,9.1h2.5l-0.2,0.6V47h2.9l-7.7,22.3l-10.3-0.5l-2.1,5v3.5l9.5,0.5
	l-9.5,27.3c-0.4,1.3,2.2,2.1,2.9,0.5c0.3-0.8,4.7-13.9,9.3-27.6l10.4,0.5l1.1-4.8V70l-8.7-0.5l7.5-22.4h4l0.9-3.4h2l19.8-5.4
	l6.8,2.5l6.4-2v-2.7l-2.3-0.7c14.7-4,29.4-7.9,29.9-7.9c1.1,0,1.1-2.3,0-2l-33.7,8.7l-6-1.9l-5.2,1.2v3.2l0.4,0.1L107.5,41h-1.2
	l0.8-3v-2.8h-8l-2.2,5.6l-3.6-0.1L77.6,34l3.4-0.7v-2.8l-4.6-2l-7.5,1.6l-12-5.3l-1.5,0.6L66.3,30.7z"/>
<path class="st1" d="M104.3,5.7c0.6,0.3,1.3,0.3,2,0.2c1.3-0.2,2.3-2.2,4-2.4c1.1-0.2,7.5-0.6,9,5c2.3,8.8-7,10.2-7,10.2
	c0.3,0.5,0.5,1.2,0.5,1.8c0.1,0.4,3.9,4.4,3.9,4.4s3.6,2.8,4.8,3.9s3.7,3.9,4.2,4.4c0.7,0.6,1.5,1.3,2.3,1.8c0,0,4.3,3.2,4.5,3.2
	s1.3-0.1,1.4,0.1c0.1,0.2,0,0.5-0.2,0.7c-0.4,0.3-0.9,0.5-1.4,0.5c-0.7-0.1-3.5-1.3-4.2-1.3c-0.9,0-1.7-0.1-2.5-0.4
	c-0.4-0.5-0.6-1-0.8-1.6c0,0-6.8-2.9-8.4-3.9c-1.5-1.1-2.9-2.3-4.2-3.7c-0.9-0.6-1.8-1.2-2.7-1.9c-0.9-0.8-3.8-4.6-5.2-5.8
	c-1.1-0.7-2.4-1-3.6-0.7l-0.2,2c0,0.4,0.7,1.9,0.4,3s-2,4.9-2.4,6.8c-0.5,2.4-1,4.8-1.2,7.2c0.1,0.3,0.9,0.7,1.2,0.8
	s1.8-0.3,2.3-0.2s1.3,0.6,1.7,0.6s2.4-0.1,2.6,0.2s-0.3,0.4-0.3,0.4l0.7,0.4c0.5,0.3,0.8,0.8,0.9,1.4c0,0.2-0.2,0.4-0.4,0.4
	c0.1,0.2,0.1,0.4,0,0.6c-0.2,0.3-0.6,0.4-0.9,0.2s-0.3-0.9-0.3-0.9l-1-0.4c-0.7-0.1-1.4-0.2-2.1-0.2l1,0.4c0,0,0,0,0,0.1
	c0,0.4-0.3,0.7-0.7,0.7c-1.1-0.1-2.1-0.4-3.1-0.8C98.2,43,97.5,43,96.7,43c-0.8-0.3-1.5-0.9-1.9-1.6c-0.5-2.3-0.7-4.6-0.6-6.9
	c-0.1-3.2,0.1-6.3,0.4-9.4c-1.3,0.6-5.8-1.4-7.1-1.3c-3.7,0.6-14.3,1.3-20.8-2c-1.4,1.1-3.1,1.8-4.9,2.2c-9.7,6-23.3,7.4-25.1,7.8
	c-1.2,0.2-2.5,0.3-3.8,0.4c-1.6,0.2-14,4.3-18.4,6.3c0.4,0.3,1,0.6,1,0.6s0.8,0,1,0.3c0.1,0.1,0.2,0.3,0.2,0.5c0,0,0.6,0.6,0.5,1
	s-1.1,0.9-3.5-0.1c-0.4-0.3-2-1-2-1S8.6,42.1,8,43.7s-0.8,5.4-0.5,6s1.1,2.2,1.1,2.2s0.3,1-1.7,0.8c-0.4,0.5-1.1,0.7-1.8,0.6
	c-0.4,0.1-0.9,0.1-1.3,0c-0.5-0.2-0.9-1.1-0.9-1.1c-0.4-0.4-0.7-0.9-0.9-1.5C1.9,50,0.8,44.3,0.6,43s-0.9-2.8-0.5-4s2.3-1.4,4.7-2.3
	c2.3-1.1,4.5-2.4,6.7-3.8c0,0-1.3-3.8,0-4.8c0.8-0.6,3.6-0.2,6-1.2c5-1.6,9.2-5.7,13.6-7.1s5.8,0.1,11.4-1.4
	c2.2-1.4,8.2-4.3,8.2-4.3s7-7.4,13.7-8.7S76.7,8,81.7,7.7s10.8-7.5,16.7-7.2C102.8,0.9,104.3,5.7,104.3,5.7z"/>
<path class="st0" d="M104.3,5.7c0.6,0.3,1.3,0.3,2,0.2c1.3-0.2,2.3-2.2,4-2.4c1.1-0.2,7.5-0.6,9,5c2.3,8.8-7,10.2-7,10.2
	c0.3,0.5,0.5,1.2,0.5,1.8c0.1,0.4,3.9,4.4,3.9,4.4s3.6,2.8,4.8,3.9s3.7,3.9,4.2,4.4c0.7,0.6,1.5,1.3,2.3,1.8c0,0,4.3,3.2,4.5,3.2
	s1.3-0.1,1.4,0.1c0.1,0.2,0,0.5-0.2,0.7c-0.4,0.3-0.9,0.5-1.4,0.5c-0.7-0.1-3.5-1.3-4.2-1.3c-0.9,0-1.7-0.1-2.5-0.4
	c-0.4-0.5-0.6-1-0.8-1.6c0,0-6.8-2.9-8.4-3.9c-1.5-1.1-2.9-2.3-4.2-3.7c-0.9-0.6-1.8-1.2-2.7-1.9c-0.9-0.8-3.8-4.6-5.2-5.8
	c-1.1-0.7-2.4-1-3.6-0.7l-0.2,2c0,0.4,0.7,1.9,0.4,3s-2,4.9-2.4,6.8c-0.5,2.4-1,4.8-1.2,7.2c0.1,0.3,0.9,0.7,1.2,0.8
	s1.8-0.3,2.3-0.2s1.3,0.6,1.7,0.6s2.4-0.1,2.6,0.2s-0.3,0.4-0.3,0.4l0.7,0.4c0.5,0.3,0.8,0.8,0.9,1.4c0,0.2-0.2,0.4-0.4,0.4
	c0.1,0.2,0.1,0.4,0,0.6c-0.2,0.3-0.6,0.4-0.9,0.2s-0.3-0.9-0.3-0.9l-1-0.4c-0.7-0.1-1.4-0.2-2.1-0.2l1,0.4c0,0,0,0,0,0.1
	c0,0.4-0.3,0.7-0.7,0.7c-1.1-0.1-2.1-0.4-3.1-0.8C98.2,43,97.5,43,96.7,43c-0.8-0.3-1.5-0.9-1.9-1.6c-0.5-2.3-0.7-4.6-0.6-6.9
	c-0.1-3.2,0.1-6.3,0.4-9.4c-1.3,0.6-5.8-1.4-7.1-1.3c-3.7,0.6-14.3,1.3-20.8-2c-1.4,1.1-3.1,1.8-4.9,2.2c-9.7,6-23.3,7.4-25.1,7.8
	c-1.2,0.2-2.5,0.3-3.8,0.4c-1.6,0.2-14,4.3-18.4,6.3c0.4,0.3,1,0.6,1,0.6s0.8,0,1,0.3c0.1,0.1,0.2,0.3,0.2,0.5c0,0,0.6,0.6,0.5,1
	s-1.1,0.9-3.5-0.1c-0.4-0.3-2-1-2-1S8.6,42.1,8,43.7s-0.8,5.4-0.5,6s1.1,2.2,1.1,2.2s0.3,1-1.7,0.8c-0.4,0.5-1.1,0.7-1.8,0.6
	c-0.4,0.1-0.9,0.1-1.3,0c-0.5-0.2-0.9-1.1-0.9-1.1c-0.4-0.4-0.7-0.9-0.9-1.5C1.9,50,0.8,44.3,0.6,43s-0.9-2.8-0.5-4s2.3-1.4,4.7-2.3
	c2.3-1.1,4.5-2.4,6.7-3.8c0,0-1.3-3.8,0-4.8c0.8-0.6,3.6-0.2,6-1.2c5-1.6,9.2-5.7,13.6-7.1s5.8,0.1,11.4-1.4
	c2.2-1.4,8.2-4.3,8.2-4.3s7-7.4,13.7-8.7S76.7,8,81.7,7.7s10.8-7.5,16.7-7.2C102.8,0.9,104.3,5.7,104.3,5.7z"/>
<path class="st0" d="M112.4,18.5c0,0-1.3-2.8-3-3.7c-0.5-0.8-1-1.5-1.7-2.1c-0.1-0.9-0.4-1.7-0.8-2.5"/>
<path class="st0" d="M94.7,24.9c3.1-0.3,6.1-4.8,6.1-4.8"/>
<path class="st0" d="M11.5,32.8c3.6-2.1,10.1-8.8,20.4-8.8c5.1-1.5,10.6-5.8,10.6-5.8"/>
<line class="st0" x1="11.9" y1="39.4" x2="14.7" y2="38.2"/>
</svg>
