<?xml version="1.0" encoding="utf-8"?>
<!-- Generator: Adobe Illustrator 22.0.1, SVG Export Plug-In . SVG Version: 6.00 Build 0)  -->
<svg version="1.1" id="Layer_1" xmlns="http://www.w3.org/2000/svg" xmlns:xlink="http://www.w3.org/1999/xlink" x="0px" y="0px"
	 viewBox="0 0 661.5 514.8" style="enable-background:new 0 0 661.5 514.8;" xml:space="preserve">
<style type="text/css">
	.st0{fill:#FBDEDE;stroke:#EB5858;stroke-width:3;stroke-miterlimit:10;}
	.st1{fill:#FBDEDE;}
	.st2{fill:#EB5858;}
	.st3{fill:none;stroke:#EB5858;stroke-width:2;stroke-miterlimit:10;}
</style>
<title>closed_chain_dorsiflexion-right</title>
<path class="st0" d="M17.6,514.9l79.6-22l17.1,14.1h43.7v-16.8l-12.1-10.8l198.3-54.7h30.3l1.5-2.2h145.9v11.8H563l10.7-11.7h84.9
	c0,0,6.5-7.1,0-14.2h-71.9l0.6-0.6v-15.8h-39.4l-15.4,16.5H379.7v-7h-32.2l-93.7-31.8l6-1.7v-13.3l-28-13.9l-36.3,9.1l-103-35
	c0,0-8.4,3.6-2.8,10.8l86.7,29.8v17.6l30.6,10.1l27.5-7.9l76.4,26.3h-75l-7,8.9v14.6h73.1c-32.1,8.6-103.7,27.8-167.2,44.8
	l-16.3-14.5H70.6v15.8l14.5,12c-38.8,10.5-67.3,18.1-68.8,18.6C10.5,510.1,17.6,514.9,17.6,514.9z"/>
<path class="st1" d="M55.3,386.4c-1.5-4.4-9.7-5.5-13.3-3.8s-11.4,17.3-15.9,19.5s-15.7,3.3-15.7,3.3s-8.5,2.6-8.5,9
	c0,4.8,2.8,5,2.8,5l40.3,1.9c9.2-0.4,19.5-2.1,40.6-0.2s88.5,10.2,99.2,10.2c6.2,0.1,12.2-2.5,16.4-7.1c0,0,22.8-29.2,33.9-52.2
	s16.8-58.1,16.8-58.1l14.2-3.1c0,0-1.7,4.5-0.5,7.6s7.6,10,7.6,13.8s-1,20.9-1,20.9s0,5.9,1.4,6.4c1.1,0.2,2.2-0.1,3.1-0.7
	c0.6,0.8,1.5,1.3,2.5,1.5c1.2-0.1,2.3-0.3,3.5-0.6c0,0,1.8,2.1,3.5,1.9c1.6-0.4,3.1-1,4.4-1.9c0,0,1.6,1.7,2.8,0.6
	s1.3-17.4,1.3-17.4s0.5-10.9-1-16.1s-10.1-21-10.1-21l46-17.3l-12.6,22.8c-6.8,12.3-18.8,48.2-25.4,60.3s-10.2,17.3-9.7,21.8
	c0.2,6.6,4.5,11.2,8.5,11.9s20-2.8,24-2.1s9.2,3.4,13,5.2s33,2.4,33.7-2.6s-8.4-6.7-12.1-7.6s-22.1-7.5-25.6-13s-7.1-12.8-6.2-16.4
	c7.1-19.9,61.5-87.1,61.5-94.2c3.3-18.3-6.7-24.4-10.7-25.9c-10.4-5.2-92.6-4.7-92.6-4.7l5.5-66.5c0.3-3.7,3.8-15.5,1.7-26.8
	s-6.5-19.8-24.4-38.5c-0.9-1.4-6.6-7.2-5.9-14.2s5.7-12.3,5.7-12.3s13.1,1.9,15.2,0.5s1.8-4.4,3.1-5.2s4.1-0.4,4.5-1.7
	c0.2-0.8,0.1-1.6-0.2-2.4c0,0,1.7,0.5,2.4-0.7s4.3-6.6,4.3-6.6s4.8,1.7,5.7-0.9s-3.3-17.1-3.3-17.1s4.5-10.7,3.3-22.3
	c-0.7-4-7.4-30.4-40.8-26.6c-24,4.5-23.3,32.3-24.7,42.2s2.4,19.9,2.4,19.9s-5,19.2-7.1,21.8s-10,6.4-14.2,13.3S195.8,132,194.8,150
	s9.8,24,10,42.2s-7.5,35.7-10,48s-18.5,23.3-21.8,47s13.8,35.1,12.8,46.5c-0.2,4.5-5.5,50.7-15.7,61.7c-15.7-4.3-103,3.3-108.7,0
	C55.7,392.1,56.8,390.8,55.3,386.4z"/>
<path class="st2" d="M124.6,427c-15.9-1.8-31-3.5-39.1-4.2c-11.2-1.1-22.4-1.1-33.6-0.2c-2.4,0.2-4.6,0.3-6.7,0.4h-0.1l-40.5-1.9
	C3,421,0,419.4,0,414.3c0-7.7,9.5-10.7,9.9-10.8l0.3-0.1c3.1-0.3,11.6-1.5,15.1-3.2c1.9-0.9,5.5-6.2,8-10c3.5-5.3,5.8-8.5,7.9-9.5
	c2.8-1.3,7.6-1.2,11.1,0.3c2.2,0.8,3.9,2.5,4.8,4.6c0.4,1.1,0.6,1.9,0.8,2.7c0.6,2.3,0.8,3.1,4.5,5.3c2.7,1.2,24.5,0.4,43.7-0.4
	c26.3-1,53.4-2.1,63.3-0.1c8.8-11.3,14.1-52.9,14.5-59.8c0.3-4-2-8.3-4.8-13.3c-4.5-8.2-10.1-18.4-8-33.3c2-14.7,8.8-24.6,14.2-32.7
	c3.6-5.3,6.6-9.8,7.6-14.4c0.8-3.8,2.1-8.1,3.4-12.7c3.1-10.5,6.7-22.4,6.5-34.8c-0.1-8.5-2.5-14-5-19.9c-2.7-6.2-5.5-12.7-5-22.5
	c1-18.4,9.7-44.2,14-51.2c3-4.8,7.5-8.2,10.9-10.6c1.3-0.8,2.4-1.8,3.5-2.9c1.2-1.4,4.3-11.4,6.6-20.5c-0.8-2.4-3.6-11.2-2.3-20.3
	c0.2-1.2,0.3-2.7,0.5-4.4c1.2-12.3,3.3-35.2,25.7-39.5h0.1c36.8-4.1,42.7,26.8,42.9,28.1v0.1c1.1,10.5-2.2,20.1-3.2,22.6
	c1.4,4.8,4.1,14.9,3.1,17.6c-1,2.6-3.8,3.1-6.6,2.5c-1.1,1.6-3,4.6-3.5,5.4c-0.4,0.7-1,1.2-1.8,1.5c0,0.4-0.1,0.8-0.2,1.1
	c-0.5,2-2.6,2.3-3.9,2.5c-0.5,0-0.9,0.1-1.3,0.3c-0.2,0.3-0.3,0.7-0.4,1c-0.4,1.7-1.3,3.2-2.7,4.2c-2.2,1.5-10.2,0.7-15.5,0
	c-2.4,3-4,6.7-4.6,10.5c-0.6,5.1,3,9.7,4.8,11.9c0.3,0.4,0.6,0.7,0.7,1c18.4,19.2,22.7,27.9,24.8,39.3c1.7,9,0,18.2-1,23.7
	c-0.3,1.5-0.5,2.8-0.6,3.6l-5.3,64.4c14.6-0.1,80.9,0,91.2,4.9c2.8,1,15.6,6.9,11.8,27.8c-0.2,3.7-7.5,14.1-24.7,38.1
	c-15.5,21.5-33,45.9-36.8,56.5c-0.6,2.4,1.9,8.6,5.9,14.8c2.9,4.5,19.5,10.9,24.5,12.3l1.3,0.3c4.6,1.1,13,3.2,12.2,9.4
	c-0.3,1.3-1.2,2.5-2.4,3c-6.5,3.5-30.1,2.9-34,1.1l-1.6-0.8c-3.5-1.7-7.8-3.7-11-4.3c-1.7-0.3-6.9,0.4-11.4,1.1
	c-6.4,0.9-10.4,1.4-12.6,1.1c-4.7-0.8-9.8-5.9-10.1-13.6c-0.4-4.3,2-8.6,6.8-17.2c1-1.7,2-3.6,3.2-5.7s2.5-5,4-8.5
	c-1.1,0.5-2.5,0.4-3.5-0.3c-1.3,0.7-2.6,1.2-4,1.5c-1.6,0.1-3.1-0.5-4.3-1.6c-0.9,0.2-1.9,0.4-2.8,0.4c-1.1,0-2.1-0.4-2.9-1.1
	c-1.1,0.5-2.2,0.5-3.3,0.2c-0.7-0.2-2.7-0.9-2.7-8.2v-0.1c0-0.2,1-17.1,1-20.8c0-1.8-2.5-5.3-4.3-8c-1.2-1.6-2.3-3.3-3.2-5.1
	c-0.6-1.9-0.7-3.8-0.3-5.8l-10,2.2c-1.1,6.6-6.7,36.6-16.8,57.4c-11.2,22.9-33.9,52.3-34.2,52.6c-4.5,5.1-11.1,7.9-17.9,7.8
	C178.2,433.2,150.9,430.1,124.6,427z M268.2,311.2c-0.4,1.1-1.2,4.3-0.5,6.3c0.8,1.5,1.7,3,2.7,4.3c2.5,3.5,5,7.1,5,10.1
	c0,3.7-0.9,19.7-1,20.9c0,1.5,0.1,3.1,0.5,4.5c0.4-0.1,0.7-0.2,1-0.5l1.5-1l1.1,1.4c0.3,0.3,0.6,0.6,1,0.8c1-0.1,2-0.3,3-0.6
	l1.1-0.3l0.8,0.9c0.5,0.6,1.1,1,1.8,1.3c1.3-0.4,2.5-0.9,3.7-1.6l1.3-0.8l1,1.1l0.1,0.1c0.5-5.2,0.8-10.4,0.7-15.6v-0.1
	c0-0.1,0.6-10.5-0.9-15.5s-9.9-20.4-10-20.5l-1.1-1.9l52.8-19.9l-14.9,27.4c-3.3,6-8.1,18.3-12.7,30.2c-4.8,12.3-9.3,24-12.7,30.1
	c-1.2,2.1-2.2,4-3.2,5.8c-4.3,7.7-6.6,11.9-6.3,15v0.1c0.2,5.6,3.7,9.5,7,10.1c1.7,0.3,6.9-0.4,11.4-1.1c6.4-0.9,10.4-1.4,12.6-1.1
	c3.8,0.6,8.3,2.8,11.9,4.6l1.6,0.8c3.9,1.9,28.6,1.4,31-1.3c0.2-2.7-6.2-4.2-9.3-5l-1.4-0.3c-2.5-0.7-22.5-7.4-26.7-13.8
	c-1.9-2.9-7.8-12.6-6.4-17.9V368c4-11,21.7-35.7,37.4-57.5c11.1-15.5,23.8-33.1,24-36.1v-0.3c3.3-18.2-7.3-23-9.5-23.7l-0.2-0.1
	c-8.2-4.1-69-4.7-91.7-4.5h-2.1l5.6-68.5c0.1-1,0.3-2.3,0.6-4c0.9-5.2,2.6-14,1-22.3c-2.1-10.6-6.2-18.9-24-37.5l-0.2-0.3
	c-0.1-0.2-0.4-0.5-0.6-0.8c-1.9-2.4-6.3-8-5.6-14.6c0.8-7.5,6-13.2,6.2-13.4l0.7-0.7l1,0.1c5.7,0.8,12.6,1.3,13.9,0.8
	c0.6-0.6,1.1-1.3,1.2-2.2c0.3-1.2,0.9-2.3,1.9-3c0.9-0.5,1.9-0.8,2.8-0.9c0.3,0,0.6-0.1,0.9-0.1c0-0.2-0.1-0.3-0.1-0.5l0,0l-2.1-3.8
	l4.2,1c0.1,0,0.2,0,0.3,0c0.8-1.4,4.1-6.4,4.2-6.6l0.8-1.2l1.3,0.5c1.4,0.5,3.2,0.5,3.3,0.2c0.4-1.5-1.4-9.4-3.3-15.9l-0.2-0.7
	l0.3-0.6c0-0.1,4.3-10.3,3.2-21.3c-0.6-3.3-6.2-28.6-38.7-25c-19.5,3.7-21.4,24-22.6,36.1c-0.2,1.7-0.3,3.3-0.5,4.6
	c-1.3,9.4,2.3,18.9,2.3,19l0.2,0.6l-0.2,0.6c-1.2,4.6-5.3,19.8-7.5,22.6c-1.3,1.3-2.7,2.5-4.2,3.5c-3.2,2.4-7.3,5.4-9.9,9.6
	c-4.2,6.7-12.5,31.6-13.5,49.4c-0.5,8.9,2,14.7,4.7,20.8c2.6,6,5.2,12.1,5.3,21.3c0.2,13-3.4,25.2-6.6,36c-1.3,4.4-2.6,8.7-3.3,12.3
	c-1.1,5.3-4.4,10.1-8.2,15.8c-5.5,8.1-11.8,17.5-13.7,31.1s3.2,22.8,7.6,30.9c3.1,5.6,5.7,10.4,5.3,15.4
	c-0.2,4.9-5.5,51.4-16.1,62.9l-0.8,0.8l-1.1-0.3c-8.2-2.2-37.5-1.1-63.4-0.1c-30.3,1.2-42.9,1.5-45.8-0.1c-4.9-2.8-5.5-4.6-6.3-7.6
	c-0.2-0.7-0.4-1.4-0.7-2.4c-0.6-1.1-1.5-1.9-2.7-2.3c-2.7-1.2-6.3-1.1-8-0.3c-1.2,0.5-4.2,4.9-6.3,8.1c-4.1,6-6.9,10.1-9.6,11.3
	c-4.5,2.1-14.5,3.3-16.1,3.5c-1.1,0.4-7.1,2.6-7.1,7.2c0,2.1,0.7,3,1.2,3.1l40.1,1.9c2.1-0.1,4.2-0.2,6.5-0.4
	c11.4-1,22.9-0.9,34.2,0.2c8.2,0.7,23.2,2.4,39.2,4.2c25,2.8,53.4,6,59.9,6c5.6,0.1,11.1-2.2,14.9-6.4c0.2-0.3,22.8-29.4,33.7-51.9
	s16.6-57.3,16.7-57.6l0.2-1.3l18.9-4.1L268.2,311.2z M286.6,306.7c2.4,4.4,8,15,9.2,19.3c1.5,5.3,1,15.7,1,16.7
	c0.1,4.8-0.1,9.5-0.5,14.2c2-5,4.2-10.6,6.3-16.1c4.7-12,9.5-24.4,13-30.7l10.1-18.3L286.6,306.7z"/>
<path class="st3" d="M257.6,294.4c-8.9-17.1-22.2-42.9-26.7-57.5c-4.3-6.1-4.5-14.8-4.5-15.9c-0.8-2-15.4-35.7-21.5-67.7l1-0.2
	c6.2,32.8,21.3,67.3,21.5,67.6v0.2c0,0.1,0,9.4,4.3,15.5l0.1,0.1c4.4,14.5,17.7,40.3,26.6,57.4c4,7.6,7.1,13.6,8.3,16.5l-0.9,0.4
	C264.6,308.1,261.5,302.1,257.6,294.4z"/>
<path class="st3" d="M262.6,237.2c-3.8-12.1-6.7-17.3-8.9-21.1c-0.4-0.6-0.7-1.1-1-1.6l-0.1-0.1v-0.1c0.3-21.3-4.7-67.8-4.7-68.3
	l0.9-0.1c0,0.5,5,46.9,4.8,68.3l0.8,1.5c2.2,3.8,5.2,9,9,21.3c1.3,11.8,20.7,68,20.9,68.6l-0.9,0.3
	C282.6,303.5,263.8,249,262.6,237.2z"/>
<path class="st3" d="M257.6,123.9c-11.2-13.5-25.1-30.4-33.8-33.6c-3.5-1.2-4.6-0.7-4.7-0.6c-0.1,0-0.1,0.1-0.1,0.2h-0.5l0.5-0.1
	l-1,0.1c0-0.4,0.1-0.7,0.4-1c0.9-0.7,2.6-0.5,5.6,0.5c8.9,3.3,22.3,19.6,34.2,33.9c8.4,10.2,17.2,20.8,19.3,19.8h0.2
	c0.1,0,0.3-0.1,0.3-0.2c0.7-0.9-0.1-4.5-0.8-6.5l1-0.3c0.3,0.9,1.8,5.7,0.6,7.3c-0.2,0.3-0.6,0.5-1,0.5c-0.2,0.1-0.4,0.1-0.5,0.1
	C274.5,144.2,268.1,136.7,257.6,123.9z"/>
<path class="st3" d="M249.5,158.7c1.8-1.5,3.2-3.3,4.3-5.4c2.6-4.9,3.2-10.6,1.8-16c-8.7-25.5-31.5-36.2-39.2-36.2
	c-6.6,0-9.2,2.1-9.2,2.1l-0.6-0.7c0.1-0.1,2.8-2.4,9.8-2.4c7.8,0,31.3,10.9,40.1,36.9c3.3,14.6-6.4,22.3-6.5,22.4L249.5,158.7z"/>
<path class="st3" d="M198.1,169.4l0.9-0.4c1.1,2.7,8.5,3.9,11.3,4.1l-0.1,1C209.8,174.1,199.7,173.1,198.1,169.4z"/>
</svg>
