<svg id="Layer_1" data-name="Layer 1" xmlns="http://www.w3.org/2000/svg" viewBox="0 0 661.53 514.8"><defs><style>.cls-1{fill:#eb5858;}.cls-2{fill:#fff;}</style></defs><title>closed_chain_dorsiflexion-right</title><path class="cls-1" d="M917.23,679.5c-1.55-.52-30-8.19-68.85-18.64l14.48-12V633.07H815.08L798.8,647.58c-63.51-17.09-135.14-36.25-167.22-44.84h73.1v-14.6l-7-8.86h-75L699.11,553l27.47,7.88,30.59-10.13V533.11l86.71-29.78c5.53-7.12-2.85-10.75-2.85-10.75L738,527.62l-36.29-9.11-28,13.93v13.29l6,1.72L586,579.28H553.79v7H401l-15.36-16.45H346.23v15.82l.57.64H274.9c-6.54,7.12,0,14.24,0,14.24h84.89l10.68,11.71h41.14V600.48H557.54l1.53,2.21h30.3l198.3,54.72L775.52,668.2V685h43.67l17.09-14.13,79.57,22S923,688.13,917.23,679.5Z" transform="translate(-271.99 -178)"/><path class="cls-1" d="M872,573.42c-5.69,3.33-93-4.27-108.7,0-10.15-11-15.43-57.19-15.66-61.7-.95-11.4,16.14-22.79,12.81-46.52s-19.28-34.73-21.83-47-10.21-29.67-10-47.95,10.92-24.21,10-42.24-9.49-43.44-13.77-50.32-12.1-10.68-14.24-13.29-7.12-21.83-7.12-21.83,3.8-10,2.38-19.94-.72-37.74-24.69-42.25c-33.46-3.79-40.11,22.55-40.82,26.59-1.19,11.62,3.32,22.3,3.32,22.3s-4.27,14.48-3.32,17.09,5.7.95,5.7.95,3.56,5.46,4.27,6.65,2.37.71,2.37.71a3.41,3.41,0,0,0-.23,2.37c.36,1.31,3.2.84,4.5,1.66s1,3.8,3.09,5.23,15.19-.48,15.19-.48,5,5.35,5.7,12.34-5,12.81-5.94,14.24c-17.91,18.64-22.31,27.18-24.44,38.45s1.35,23.1,1.66,26.82l5.46,66.46s-82.12-.48-92.56,4.74c-4,1.43-14,7.6-10.69,25.87,0,7.12,54.36,74.29,61.48,94.23.94,3.56-2.62,10.91-6.18,16.37s-21.94,12.07-25.63,13-12.81,2.62-12.1,7.6,29.92,4.4,33.7,2.61,9-4.51,13-5.22,19.94,2.85,24,2.14,8.31-5.23,8.55-11.87c.47-4.51-3.09-9.73-9.73-21.84s-18.65-48-25.4-60.28l-12.58-22.78,46,17.32S641,499.37,639.45,504.6s-1,16.14-1,16.14,0,16.3,1.27,17.4,2.84-.64,2.84-.64a15.59,15.59,0,0,0,4.44,1.9c1.66.2,3.48-1.9,3.48-1.9a19.73,19.73,0,0,0,3.48.64,4,4,0,0,0,2.54-1.5,4.07,4.07,0,0,0,3.08.71c1.43-.48,1.43-6.41,1.43-6.41s-.95-17.09-.95-20.88,6.41-10.69,7.59-13.77-.47-7.6-.47-7.6l14.24,3.09s5.7,35.13,16.85,58.15,33.94,52.21,33.94,52.21a21.82,21.82,0,0,0,16.38,7.12c10.68,0,78.08-8.3,99.2-10.2s31.41-.13,40.59.23l40.35-1.89s2.84-.24,2.84-5c0-6.41-8.54-9-8.54-9s-11.16-1.18-15.66-3.32-12.35-17.8-15.91-19.46-11.74-.62-13.29,3.8S877.74,570.1,872,573.42Z" transform="translate(-271.99 -178)"/><path class="cls-2" d="M748.63,611.16a23.63,23.63,0,0,1-17.86-7.83c-.25-.31-23-29.64-34.18-52.58-10.08-20.8-15.65-50.77-16.8-57.38l-10-2.17a11.3,11.3,0,0,1-.34,5.77,28.79,28.79,0,0,1-3.15,5.14c-1.82,2.61-4.31,6.17-4.31,7.95,0,3.7,1,20.61,1,20.78v.1c0,7.3-2.05,8-2.73,8.21a4.9,4.9,0,0,1-3.33-.2,4.59,4.59,0,0,1-2.94,1.1,16.08,16.08,0,0,1-2.85-.43,5.83,5.83,0,0,1-4.27,1.63,12.88,12.88,0,0,1-4.05-1.51,3.69,3.69,0,0,1-3.51.3c1.46,3.41,2.85,6.34,4,8.45s2.22,4,3.19,5.7c4.75,8.54,7.19,12.85,6.77,17.15-.31,7.72-5.43,12.77-10.11,13.6-2.17.38-6.19-.14-12.59-1.06-4.53-.65-9.67-1.39-11.39-1.08-3.23.57-7.51,2.63-11,4.29l-1.61.78c-3.87,1.84-27.53,2.41-34-1.07a4.13,4.13,0,0,1-2.42-3c-.88-6.15,7.59-8.24,12.17-9.37l1.32-.33c5-1.33,21.62-7.8,24.53-12.26,4-6.18,6.51-12.34,5.94-14.78-3.79-10.61-21.35-35-36.81-56.5-17.23-24-24.45-34.35-24.69-38.06-3.75-20.89,9-26.8,11.83-27.84,10.31-4.92,76.62-5,91.25-4.9l-5.29-64.39c-.07-.77-.32-2.08-.59-3.61-1-5.51-2.74-14.71-1.05-23.73,2.15-11.4,6.42-20.14,24.83-39.3.18-.26.43-.57.74-.95,1.73-2.19,5.32-6.75,4.75-11.88a21.59,21.59,0,0,0-4.59-10.51c-5.23.72-13.23,1.51-15.46,0a7.21,7.21,0,0,1-2.73-4.19,6.18,6.18,0,0,0-.39-1,6.65,6.65,0,0,0-1.34-.28c-1.34-.2-3.38-.5-3.92-2.46a5.41,5.41,0,0,1-.17-1.14,3.33,3.33,0,0,1-1.75-1.47c-.49-.8-2.4-3.8-3.48-5.42-2.85.6-5.69.08-6.64-2.5-1-2.77,1.69-12.81,3.1-17.65-1-2.55-4.27-12.13-3.21-22.6v-.13c.24-1.32,6.13-32.28,42.91-28.14h.14c22.38,4.22,24.56,27.14,25.73,39.46.16,1.7.31,3.19.48,4.38,1.29,9.06-1.46,17.94-2.27,20.3,2.38,9.1,5.46,19.14,6.64,20.54a23.06,23.06,0,0,0,3.53,2.85c3.32,2.45,7.87,5.79,10.86,10.61,4.35,7,13.08,32.87,14.05,51.22.51,9.76-2.26,16.24-5,22.48-2.52,5.88-4.91,11.39-5,19.89-.16,12.41,3.38,24.32,6.5,34.84,1.36,4.57,2.64,8.88,3.43,12.7,1,4.56,4,9.12,7.59,14.4,5.44,8.06,12.22,18,14.24,32.71,2.09,14.89-3.5,25.08-8,33.28-2.75,5-5.14,9.37-4.8,13.34.36,6.82,5.69,48.42,14.46,59.76,9.92-2,37-.95,63.32.08,19.25.76,41.06,1.62,43.74.38,3.72-2.17,3.94-3,4.52-5.29.2-.77.43-1.64.8-2.7a8.08,8.08,0,0,1,4.81-4.63c3.49-1.48,8.24-1.59,11.07-.27,2.05.95,4.32,4.21,7.86,9.49,2.59,3.8,6.14,9.11,8.05,10,3.46,1.63,12,2.85,15.06,3.15l.35.08c.41.12,9.89,3.11,9.89,10.83,0,5.13-3,6.74-4.58,6.87l-40.5,1.9h-.09c-2.15-.08-4.36-.25-6.71-.42a186.09,186.09,0,0,0-33.63.17c-8.1.74-23.14,2.42-39.06,4.2C782.59,608.1,755.3,611.16,748.63,611.16Zm-84.37-125,18.87,4.08.21,1.29c.06.35,5.78,35.12,16.69,57.62s33.5,51.59,33.73,51.87a19.76,19.76,0,0,0,14.88,6.39c6.46,0,34.85-3.18,59.88-6,15.94-1.78,31-3.47,39.15-4.2a188.38,188.38,0,0,1,34.25-.18c2.28.16,4.44.32,6.5.41l40.14-1.9c.44-.14,1.16-1,1.16-3.1,0-4.51-6-6.8-7.06-7.16-1.61-.18-11.62-1.36-16.07-3.47-2.66-1.26-5.52-5.3-9.58-11.32-2.15-3.2-5.12-7.59-6.31-8.14-1.66-.77-5.26-.83-8,.32A4.66,4.66,0,0,0,880,565c-.32,1-.52,1.71-.7,2.4-.77,3-1.44,4.75-6.31,7.6-2.85,1.64-15.45,1.32-45.79.13-25.87-1-55.19-2.16-63.36.07l-1.12.3-.77-.84c-10.67-11.54-15.91-58-16.14-62.9-.43-5.06,2.21-9.86,5.27-15.42,4.44-8.1,9.49-17.28,7.59-30.92s-8.15-23-13.65-31.12c-3.8-5.61-7.06-10.45-8.17-15.75-.75-3.67-2-7.9-3.35-12.34-3.2-10.78-6.82-23-6.64-36,.12-9.2,2.76-15.37,5.32-21.33,2.63-6.12,5.12-11.91,4.65-20.79-1-17.78-9.31-42.72-13.48-49.41-2.61-4.2-6.65-7.17-9.89-9.56a24.49,24.49,0,0,1-4.2-3.53c-2.23-2.73-6.3-18-7.49-22.56l-.16-.59.22-.57c0-.09,3.6-9.65,2.27-19-.18-1.28-.33-2.84-.49-4.56-1.15-12.11-3.08-32.36-22.6-36.08-32.4-3.64-38.06,21.71-38.65,25-1.1,11,3.15,21.21,3.19,21.31l.26.63-.19.66c-1.9,6.5-3.72,14.45-3.35,15.93.11.31,1.9.26,3.28-.23l1.28-.49.81,1.25c.15.22,3.39,5.19,4.24,6.59a1.71,1.71,0,0,0,.32,0l4.23-1-2.07,3.8h0a1.52,1.52,0,0,0-.12.51,8.55,8.55,0,0,0,.86.14,7.32,7.32,0,0,1,2.85.86,5.11,5.11,0,0,1,1.89,3,3.83,3.83,0,0,0,1.23,2.2c1.22.55,8.17.06,13.86-.77l1-.14.67.73c.22.24,5.43,5.89,6.2,13.44.68,6.65-3.71,12.24-5.58,14.62-.29.36-.51.65-.64.84l-.23.29c-17.84,18.55-21.94,26.87-24,37.49-1.57,8.31.07,17.09,1,22.32.31,1.69.57,3,.64,4l5.63,68.52h-2.07c-22.7-.12-83.46.43-91.69,4.55l-.22.09c-2.16.76-12.76,5.49-9.45,23.74v.34c.25,3,12.88,20.56,24,36.07C595.91,510.29,613.64,535,617.6,546v.15c1.41,5.31-4.55,15-6.42,17.9-4.19,6.42-24.19,13.18-26.73,13.85l-1.39.35c-3.1.77-9.49,2.35-9.33,5,2.36,2.73,27.11,3.14,31,1.28l1.6-.77c3.64-1.76,8.19-4,11.94-4.61,2.17-.38,6.2.14,12.59,1.06,4.53.64,9.66,1.38,11.39,1.07,3.28-.58,6.78-4.5,7-10.06v-.13c.33-3.13-2-7.33-6.3-15-1-1.72-2.05-3.64-3.2-5.76-3.36-6.11-7.88-17.74-12.66-30.06-4.61-11.88-9.39-24.18-12.73-30.22l-14.9-27.36,52.83,19.93-1.06,1.9c-.08.15-8.54,15.54-10,20.52s-.89,15.39-.88,15.5v.1a134.85,134.85,0,0,0,.73,15.56l.1-.08,1-1.14,1.33.81a13.06,13.06,0,0,0,3.66,1.63,3.84,3.84,0,0,0,1.83-1.26l.79-.9,1.14.32a17.38,17.38,0,0,0,3,.56,2.55,2.55,0,0,0,1-.77l1.12-1.42,1.48,1a3.21,3.21,0,0,0,1,.45,19.4,19.4,0,0,0,.49-4.55c-.06-1.25-1-17.2-1-20.93,0-3,2.54-6.65,5-10.12a30,30,0,0,0,2.72-4.33c.76-2-.09-5.19-.48-6.26ZM607.76,470l10.09,18.28c3.47,6.27,8.29,18.68,12.95,30.68,2.14,5.5,4.31,11.08,6.34,16.06a140.88,140.88,0,0,1-.54-14.24c0-1-.55-11.39,1-16.72,1.27-4.29,6.88-14.95,9.24-19.34Z" transform="translate(-271.99 -178)"/><path class="cls-1" d="M872,573.42c-5.69,3.33-93-4.27-108.7,0-10.15-11-15.43-57.19-15.66-61.7-.95-11.4,16.14-22.79,12.81-46.52s-19.28-34.73-21.83-47-10.21-29.67-10-47.95,10.92-24.21,10-42.24-9.49-43.44-13.77-50.32-12.1-10.68-14.24-13.29-7.12-21.83-7.12-21.83,3.8-10,2.38-19.94-.72-37.74-24.69-42.25c-33.46-3.79-40.11,22.55-40.82,26.59-1.19,11.62,3.32,22.3,3.32,22.3s-4.27,14.48-3.32,17.09,5.7.95,5.7.95,3.56,5.46,4.27,6.65,2.37.71,2.37.71a3.41,3.41,0,0,0-.23,2.37c.36,1.31,3.2.84,4.5,1.66s1,3.8,3.09,5.23,15.19-.48,15.19-.48,5,5.35,5.7,12.34-5,12.81-5.94,14.24c-17.91,18.64-22.31,27.18-24.44,38.45s1.35,23.1,1.66,26.82l5.46,66.46s-82.12-.48-92.56,4.74c-4,1.43-14,7.6-10.69,25.87,0,7.12,54.36,74.29,61.48,94.23.94,3.56-2.62,10.91-6.18,16.37s-21.94,12.07-25.63,13-12.81,2.62-12.1,7.6,29.92,4.4,33.7,2.61,9-4.51,13-5.22,19.94,2.85,24,2.14,8.31-5.23,8.55-11.87c.47-4.51-3.09-9.73-9.73-21.84s-18.65-48-25.4-60.28l-12.58-22.78,46,17.32S641,499.37,639.45,504.6s-1,16.14-1,16.14,0,16.3,1.27,17.4,2.84-.64,2.84-.64a15.59,15.59,0,0,0,4.44,1.9c1.66.2,3.48-1.9,3.48-1.9a19.73,19.73,0,0,0,3.48.64,4,4,0,0,0,2.54-1.5,4.07,4.07,0,0,0,3.08.71c1.43-.48,1.43-6.41,1.43-6.41s-.95-17.09-.95-20.88,6.41-10.69,7.59-13.77-.47-7.6-.47-7.6l14.24,3.09s5.7,35.13,16.85,58.15,33.94,52.21,33.94,52.21a21.82,21.82,0,0,0,16.38,7.12c10.68,0,78.08-8.3,99.2-10.2s31.41-.13,40.59.23l40.35-1.89s2.84-.24,2.84-5c0-6.41-8.54-9-8.54-9s-11.16-1.18-15.66-3.32-12.35-17.8-15.91-19.46-11.74-.62-13.29,3.8S877.74,570.1,872,573.42Z" transform="translate(-271.99 -178)"/><path class="cls-2" d="M667.66,488.88l-.88-.38c1.2-2.84,4.32-8.85,8.27-16.49,8.85-17.09,22.22-42.95,26.58-57.43l.07-.13c4.33-6.14,4.35-15.46,4.35-15.55v-.19c.15-.35,15.24-34.83,21.48-67.63l1,.18C722.38,363.33,707.84,397,707,399c0,1.1-.21,9.84-4.47,15.93-4.44,14.57-17.8,40.41-26.65,57.51C672,480.07,668.84,486.08,667.66,488.88Z" transform="translate(-271.99 -178)"/><path class="cls-2" d="M650,483.86l-.9-.31c.19-.57,19.61-56.73,20.88-68.56,3.8-12.34,6.8-17.53,9-21.34l.85-1.51c-.3-21.36,4.75-67.83,4.75-68.29l.94.1c0,.47-5.06,47.05-4.74,68.3v.12l-.06.12c-.29.53-.6,1.06-1,1.63-2.13,3.8-5.07,8.94-8.86,21.07C669.68,427,650.82,481.55,650,483.86Z" transform="translate(-271.99 -178)"/><path class="cls-2" d="M656,322.18a1.4,1.4,0,0,1-.54-.1,1.29,1.29,0,0,1-1-.55c-1.15-1.57.31-6.37.62-7.31l.95.3c-.65,2-1.43,5.54-.75,6.46a.36.36,0,0,0,.33.16h.21c2.11,1,10.86-9.56,19.3-19.79,11.83-14.34,25.24-30.6,34.17-33.93,3-1,4.75-1.18,5.64-.48a1.13,1.13,0,0,1,.44.95l-.95-.13.47.06h-.47a.22.22,0,0,0-.11-.17c-.12-.08-1.19-.55-4.7.65-8.72,3.24-22.63,20.1-33.79,33.64C665.38,314.66,659,322.17,656,322.18Z" transform="translate(-271.99 -178)"/><path class="cls-2" d="M683.41,337.46c-.1-.07-9.8-7.76-6.45-22.36,8.82-26,32.28-36.92,40.1-36.92,7,0,9.72,2.27,9.83,2.37l-.62.72s-2.63-2.14-9.22-2.14c-7.65,0-30.53,10.77-39.19,36.22a22.43,22.43,0,0,0,1.83,16,18.55,18.55,0,0,0,4.28,5.4Z" transform="translate(-271.99 -178)"/><path class="cls-2" d="M723.24,352.15l-.08-.95c2.75-.25,10.15-1.48,11.28-4.14l.88.37C733.73,351.15,723.67,352.11,723.24,352.15Z" transform="translate(-271.99 -178)"/></svg>