<?xml version="1.0" encoding="utf-8"?>
<!-- Generator: Adobe Illustrator 22.0.1, SVG Export Plug-In . SVG Version: 6.00 Build 0)  -->
<svg version="1.1" id="Layer_1" xmlns="http://www.w3.org/2000/svg" xmlns:xlink="http://www.w3.org/1999/xlink" x="0px" y="0px"
	 viewBox="0 0 661.5 514.8" style="enable-background:new 0 0 661.5 514.8;" xml:space="preserve">
<style type="text/css">
	.st0{fill:#FBDEDE;stroke:#EB5858;stroke-width:3;stroke-miterlimit:10;}
	.st1{fill:#FBDEDE;}
	.st2{fill:#EB5858;}
	.st3{fill:none;stroke:#EB5858;stroke-width:2;stroke-miterlimit:10;}
</style>
<title>closed_chain_dorsiflexion-right</title>
<path class="st0" d="M645.2,501.5c-1.5-0.5-30-8.2-68.8-18.6l14.5-12v-15.8h-47.8l-16.3,14.5c-63.5-17.1-135.1-36.2-167.2-44.8h73.1
	v-14.6l-7-8.9h-75l76.4-26.3l27.5,7.9l30.6-10.1v-17.6l86.7-29.8c5.5-7.1-2.8-10.8-2.8-10.8l-103,35l-36.3-9.1l-28,13.9v13.3l6,1.7
	L314,401.3h-32.2v7H129l-15.4-16.5H74.2v15.8l0.6,0.6H2.9c-6.5,7.1,0,14.2,0,14.2h84.9l10.7,11.7h41.1v-11.8h145.9l1.5,2.2h30.3
	l198.3,54.7l-12.1,10.8V507h43.7l17.1-14.1l79.6,22C643.9,514.9,651,510.1,645.2,501.5z"/>
<path class="st1" d="M600,395.4c-5.7,3.3-93-4.3-108.7,0c-10.2-11-15.4-57.2-15.7-61.7c-1-11.4,16.1-22.8,12.8-46.5
	s-19.3-34.7-21.8-47s-10.2-29.7-10-48s10.9-24.2,10-42.2s-9.5-43.4-13.8-50.3S440.8,89,438.6,86.4s-7.1-21.8-7.1-21.8
	s3.8-10,2.4-19.9s-0.7-37.7-24.7-42.2c-33.5-3.8-40.1,22.6-40.8,26.6c-1.2,11.6,3.3,22.3,3.3,22.3s-4.3,14.5-3.3,17.1
	s5.7,0.9,5.7,0.9s3.6,5.5,4.3,6.6s2.4,0.7,2.4,0.7c-0.4,0.7-0.4,1.6-0.2,2.4c0.4,1.3,3.2,0.8,4.5,1.7s1,3.8,3.1,5.2
	s15.2-0.5,15.2-0.5s5,5.4,5.7,12.3s-5,12.8-5.9,14.2c-17.9,18.6-22.3,27.2-24.4,38.5s1.3,23.1,1.7,26.8l5.5,66.5
	c0,0-82.1-0.5-92.6,4.7c-4,1.4-14,7.6-10.7,25.9c0,7.1,54.4,74.3,61.5,94.2c0.9,3.6-2.6,10.9-6.2,16.4s-21.9,12.1-25.6,13
	s-12.8,2.6-12.1,7.6s29.9,4.4,33.7,2.6s9-4.5,13-5.2s19.9,2.8,24,2.1s8.3-5.2,8.5-11.9c0.5-4.5-3.1-9.7-9.7-21.8s-18.7-48-25.4-60.3
	l-12.6-22.8l46,17.3c0,0-8.6,15.7-10.1,21s-1,16.1-1,16.1s0,16.3,1.3,17.4s2.8-0.6,2.8-0.6c1.4,0.9,2.9,1.5,4.4,1.9
	c1.7,0.2,3.5-1.9,3.5-1.9c1.1,0.3,2.3,0.5,3.5,0.6c1-0.2,1.9-0.7,2.5-1.5c0.9,0.6,2,0.9,3.1,0.7c1.4-0.5,1.4-6.4,1.4-6.4
	s-1-17.1-1-20.9s6.4-10.7,7.6-13.8s-0.5-7.6-0.5-7.6l14.2,3.1c0,0,5.7,35.1,16.8,58.1s33.9,52.2,33.9,52.2
	c4.2,4.6,10.2,7.2,16.4,7.1c10.7,0,78.1-8.3,99.2-10.2s31.4-0.1,40.6,0.2l40.3-1.9c0,0,2.8-0.2,2.8-5c0-6.4-8.5-9-8.5-9
	s-11.2-1.2-15.7-3.3s-12.3-17.8-15.9-19.5s-11.7-0.6-13.3,3.8S605.8,392.1,600,395.4z"/>
<path class="st2" d="M476.6,433.2c-6.8,0.1-13.3-2.8-17.9-7.8c-0.2-0.3-23-29.6-34.2-52.6c-10.1-20.8-15.7-50.8-16.8-57.4l-10-2.2
	c0.4,1.9,0.3,3.9-0.3,5.8c-0.9,1.8-1.9,3.5-3.2,5.1c-1.8,2.6-4.3,6.2-4.3,8c0,3.7,1,20.6,1,20.8v0.1c0,7.3-2,8-2.7,8.2
	c-1.1,0.3-2.3,0.3-3.3-0.2c-0.8,0.7-1.9,1.1-2.9,1.1c-1-0.1-1.9-0.2-2.8-0.4c-1.1,1.1-2.7,1.7-4.3,1.6c-1.4-0.3-2.8-0.8-4-1.5
	c-1,0.7-2.4,0.8-3.5,0.3c1.5,3.4,2.8,6.3,4,8.5s2.2,4,3.2,5.7c4.8,8.5,7.2,12.8,6.8,17.2c-0.3,7.7-5.4,12.8-10.1,13.6
	c-2.2,0.4-6.2-0.1-12.6-1.1c-4.5-0.7-9.7-1.4-11.4-1.1c-3.2,0.6-7.5,2.6-11,4.3l-1.6,0.8c-3.9,1.8-27.5,2.4-34-1.1
	c-1.3-0.5-2.2-1.7-2.4-3c-0.9-6.2,7.6-8.2,12.2-9.4l1.3-0.3c5-1.3,21.6-7.8,24.5-12.3c4-6.2,6.5-12.3,5.9-14.8
	c-3.8-10.6-21.3-35-36.8-56.5c-17.2-24-24.5-34.4-24.7-38.1c-3.8-20.9,9-26.8,11.8-27.8c10.3-4.9,76.6-5,91.2-4.9l-5.3-64.4
	c-0.1-0.8-0.3-2.1-0.6-3.6c-1-5.5-2.7-14.7-1-23.7c2.2-11.4,6.4-20.1,24.8-39.3c0.2-0.3,0.4-0.6,0.7-1c1.7-2.2,5.3-6.8,4.8-11.9
	c-0.6-3.9-2.1-7.5-4.6-10.5c-5.2,0.7-13.2,1.5-15.5,0c-1.4-1-2.3-2.5-2.7-4.2c-0.1-0.3-0.2-0.7-0.4-1c-0.4-0.1-0.9-0.2-1.3-0.3
	c-1.3-0.2-3.4-0.5-3.9-2.5c-0.1-0.4-0.2-0.8-0.2-1.1c-0.7-0.3-1.4-0.8-1.8-1.5c-0.5-0.8-2.4-3.8-3.5-5.4c-2.8,0.6-5.7,0.1-6.6-2.5
	c-1-2.8,1.7-12.8,3.1-17.6c-1-2.6-4.3-12.1-3.2-22.6v-0.1c0.2-1.3,6.1-32.3,42.9-28.1h0.1c22.4,4.2,24.6,27.1,25.7,39.5
	c0.2,1.7,0.3,3.2,0.5,4.4c1.3,9.1-1.5,17.9-2.3,20.3c2.4,9.1,5.5,19.1,6.6,20.5c1.1,1.1,2.3,2,3.5,2.9c3.3,2.5,7.9,5.8,10.9,10.6
	c4.3,7,13.1,32.9,14,51.2c0.5,9.8-2.3,16.2-5,22.5c-2.5,5.9-4.9,11.4-5,19.9c-0.2,12.4,3.4,24.3,6.5,34.8c1.4,4.6,2.6,8.9,3.4,12.7
	c1,4.6,4,9.1,7.6,14.4c5.4,8.1,12.2,18,14.2,32.7c2.1,14.9-3.5,25.1-8,33.3c-2.8,5-5.1,9.4-4.8,13.3c0.4,6.8,5.7,48.4,14.5,59.8
	c9.9-2,37-1,63.3,0.1c19.2,0.8,41.1,1.6,43.7,0.4c3.7-2.2,3.9-3,4.5-5.3c0.2-0.8,0.4-1.6,0.8-2.7c0.9-2.2,2.6-3.9,4.8-4.6
	c3.5-1.5,8.2-1.6,11.1-0.3c2,1,4.3,4.2,7.9,9.5c2.6,3.8,6.1,9.1,8,10c3.5,1.6,12,2.8,15.1,3.2l0.3,0.1c0.4,0.1,9.9,3.1,9.9,10.8
	c0,5.1-3,6.7-4.6,6.9l-40.5,1.9h-0.1c-2.2-0.1-4.4-0.2-6.7-0.4c-11.2-1-22.4-0.9-33.6,0.2c-8.1,0.7-23.1,2.4-39.1,4.2
	C510.6,430.1,483.3,433.2,476.6,433.2z M392.3,308.2l18.9,4.1l0.2,1.3c0.1,0.4,5.8,35.1,16.7,57.6s33.5,51.6,33.7,51.9
	c3.8,4.2,9.2,6.5,14.9,6.4c6.5,0,34.8-3.2,59.9-6c15.9-1.8,31-3.5,39.2-4.2c11.4-1.1,22.9-1.2,34.2-0.2c2.3,0.2,4.4,0.3,6.5,0.4
	l40.1-1.9c0.4-0.1,1.2-1,1.2-3.1c0-4.5-6-6.8-7.1-7.2c-1.6-0.2-11.6-1.4-16.1-3.5c-2.7-1.3-5.5-5.3-9.6-11.3
	c-2.2-3.2-5.1-7.6-6.3-8.1c-1.7-0.8-5.3-0.8-8,0.3c-1.2,0.4-2.1,1.2-2.7,2.3c-0.3,1-0.5,1.7-0.7,2.4c-0.8,3-1.4,4.8-6.3,7.6
	c-2.8,1.6-15.5,1.3-45.8,0.1c-25.9-1-55.2-2.2-63.4,0.1l-1.1,0.3l-0.8-0.8c-10.7-11.5-15.9-58-16.1-62.9c-0.4-5.1,2.2-9.9,5.3-15.4
	c4.4-8.1,9.5-17.3,7.6-30.9s-8.2-23-13.7-31.1c-3.8-5.6-7.1-10.5-8.2-15.8c-0.8-3.7-2-7.9-3.3-12.3c-3.2-10.8-6.8-23-6.6-36
	c0.1-9.2,2.8-15.4,5.3-21.3c2.6-6.1,5.1-11.9,4.7-20.8c-1-17.8-9.3-42.7-13.5-49.4c-2.6-4.2-6.7-7.2-9.9-9.6c-1.5-1-2.9-2.2-4.2-3.5
	c-2.2-2.7-6.3-18-7.5-22.6l-0.2-0.6l0.2-0.6c0-0.1,3.6-9.6,2.3-19c-0.2-1.3-0.3-2.8-0.5-4.6c-1.2-12.1-3.1-32.4-22.6-36.1
	c-32.4-3.6-38.1,21.7-38.7,25c-1.1,11,3.2,21.2,3.2,21.3l0.3,0.6l-0.2,0.7c-1.9,6.5-3.7,14.4-3.3,15.9c0.1,0.3,1.9,0.3,3.3-0.2
	l1.3-0.5l0.8,1.2c0.2,0.2,3.4,5.2,4.2,6.6c0.1,0,0.2,0,0.3,0l4.2-1l-2.1,3.8l0,0c-0.1,0.2-0.1,0.3-0.1,0.5c0.3,0.1,0.6,0.1,0.9,0.1
	c1,0.1,2,0.4,2.8,0.9c1,0.7,1.6,1.8,1.9,3c0.2,0.9,0.6,1.6,1.2,2.2c1.2,0.5,8.2,0.1,13.9-0.8l1-0.1l0.7,0.7
	c0.2,0.2,5.4,5.9,6.2,13.4c0.7,6.6-3.7,12.2-5.6,14.6c-0.3,0.4-0.5,0.6-0.6,0.8l-0.2,0.3c-17.8,18.5-21.9,26.9-24,37.5
	c-1.6,8.3,0.1,17.1,1,22.3c0.3,1.7,0.6,3,0.6,4l5.6,68.5h-2.1c-22.7-0.1-83.5,0.4-91.7,4.5l-0.2,0.1c-2.2,0.8-12.8,5.5-9.5,23.7v0.3
	c0.2,3,12.9,20.6,24,36.1c15.7,21.8,33.4,46.5,37.4,57.5v0.2c1.4,5.3-4.5,15-6.4,17.9c-4.2,6.4-24.2,13.2-26.7,13.8l-1.4,0.3
	c-3.1,0.8-9.5,2.3-9.3,5c2.4,2.7,27.1,3.1,31,1.3l1.6-0.8c3.6-1.8,8.2-4,11.9-4.6c2.2-0.4,6.2,0.1,12.6,1.1
	c4.5,0.6,9.7,1.4,11.4,1.1c3.3-0.6,6.8-4.5,7-10.1v-0.1c0.3-3.1-2-7.3-6.3-15c-1-1.7-2-3.6-3.2-5.8c-3.4-6.1-7.9-17.7-12.7-30.1
	c-4.6-11.9-9.4-24.2-12.7-30.2l-14.9-27.4l52.8,19.9l-1.1,1.9c-0.1,0.1-8.5,15.5-10,20.5s-0.9,15.4-0.9,15.5v0.1
	c-0.1,5.2,0.2,10.4,0.7,15.6l0.1-0.1l1-1.1l1.3,0.8c1.1,0.7,2.4,1.3,3.7,1.6c0.7-0.2,1.4-0.7,1.8-1.3l0.8-0.9l1.1,0.3
	c1,0.3,2,0.5,3,0.6c0.4-0.2,0.7-0.4,1-0.8l1.1-1.4l1.5,1c0.3,0.2,0.6,0.4,1,0.5c0.3-1.5,0.5-3,0.5-4.5c-0.1-1.2-1-17.2-1-20.9
	c0-3,2.5-6.6,5-10.1c1-1.4,1.9-2.8,2.7-4.3c0.8-2-0.1-5.2-0.5-6.3L392.3,308.2z M335.8,292l10.1,18.3c3.5,6.3,8.3,18.7,13,30.7
	c2.1,5.5,4.3,11.1,6.3,16.1c-0.4-4.7-0.6-9.5-0.5-14.2c0-1-0.5-11.4,1-16.7c1.3-4.3,6.9-15,9.2-19.3L335.8,292z"/>
<path class="st3" d="M395.7,310.9l-0.9-0.4c1.2-2.8,4.3-8.9,8.3-16.5c8.8-17.1,22.2-43,26.6-57.4l0.1-0.1c4.3-6.1,4.3-15.5,4.3-15.5
	v-0.2c0.2-0.4,15.2-34.8,21.5-67.6l1,0.2c-6.1,32.1-20.7,65.7-21.5,67.7c0,1.1-0.2,9.8-4.5,15.9c-4.4,14.6-17.8,40.4-26.7,57.5
	C400,302.1,396.9,308.1,395.7,310.9z"/>
<path class="st3" d="M378,305.9l-0.9-0.3c0.2-0.6,19.6-56.7,20.9-68.6c3.8-12.3,6.8-17.5,9-21.3l0.8-1.5
	c-0.3-21.4,4.8-67.8,4.8-68.3l0.9,0.1c0,0.5-5.1,47-4.7,68.3v0.1l-0.1,0.1c-0.3,0.5-0.6,1.1-1,1.6c-2.1,3.8-5.1,8.9-8.9,21.1
	C397.7,249,378.8,303.5,378,305.9z"/>
<path class="st3" d="M384,144.2c-0.2,0-0.4,0-0.5-0.1c-0.4,0-0.8-0.2-1-0.5c-1.2-1.6,0.3-6.4,0.6-7.3l1,0.3c-0.7,2-1.4,5.5-0.8,6.5
	c0.1,0.1,0.2,0.2,0.3,0.2h0.2c2.1,1,10.9-9.6,19.3-19.8c11.8-14.3,25.2-30.6,34.2-33.9c3-1,4.8-1.2,5.6-0.5c0.3,0.2,0.5,0.6,0.4,1
	l-1-0.1l0.5,0.1h-0.5c0-0.1,0-0.1-0.1-0.2c-0.1-0.1-1.2-0.5-4.7,0.6c-8.7,3.2-22.6,20.1-33.8,33.6C393.4,136.7,387,144.2,384,144.2z
	"/>
<path class="st3" d="M411.4,159.5c-0.1-0.1-9.8-7.8-6.5-22.4c8.8-26,32.3-36.9,40.1-36.9c7,0,9.7,2.3,9.8,2.4l-0.6,0.7
	c0,0-2.6-2.1-9.2-2.1c-7.7,0-30.5,10.8-39.2,36.2c-1.4,5.4-0.7,11.1,1.8,16c1.1,2.1,2.5,3.9,4.3,5.4L411.4,159.5z"/>
<path class="st3" d="M451.2,174.1l-0.1-1c2.8-0.2,10.2-1.5,11.3-4.1l0.9,0.4C461.7,173.1,451.7,174.1,451.2,174.1z"/>
</svg>
