<?xml version="1.0" encoding="utf-8"?>
<!-- Generator: Adobe Illustrator 22.0.1, SVG Export Plug-In . SVG Version: 6.00 Build 0)  -->
<svg version="1.1" id="Layer_1" xmlns="http://www.w3.org/2000/svg" xmlns:xlink="http://www.w3.org/1999/xlink" x="0px" y="0px"
	 viewBox="0 0 57 95" style="enable-background:new 0 0 57 95;" xml:space="preserve">
<style type="text/css">
	.st0{fill:#EB5858;}
</style>
<title>broad_jump</title>
<path class="st0" d="M43.7,30.5c0,0,1.2,0.2,2-2.9c1.7-5.3,7.8-2.8,8.4-2.6c2.1,0.9,3.4,3.2,2.9,5.5c-0.1,1-1.5,3-1.6,3.5
	c-0.3,0.7,0.5,2.2,0.2,2.6s-1.8,0-1.8,0s-1.5,2.8-2.8,2.9s-2.4-1-3.2-1.1c-2.1,0.1-4.2,0.4-6.3,1.1c-0.5,0.4-3.2,4.7-7.1,5.8
	l-12,3.5l3.9,7.4c0,0,2.2,2.2,2.4,3.8s-1.2,3.6-1.5,4.6L24.3,75c-0.4,1.3-0.6,2.6-0.8,4c0.1,0.8,0.3,1.6,0.8,2.2
	c0.2,0.4,3,1.9,3,1.9s4.7,0.6,5.2,1.1c0.4,0.5,0.4,1.2,0,1.6c-1,1.2-2.5,2-4.1,2.1H24c0.9,0.6,1.8,1.1,2.7,1.6c0.7,0.3,4,1,4.2,1.6
	s-0.5,1.7-1,2.1c-1.6,1.1-3.5,1.7-5.4,1.7c-1.5,0-5.6-0.6-5.6-0.6s-4.1-0.1-4.5-0.6s0.3-5.5,0.5-5.9c0.1-0.3,0.4-0.4,0.7-0.5
	l-0.5-9.7c-0.5-1.6-0.7-3.2-0.8-4.8c0.2-3.1,2.9-7.7,2.8-8.2c-0.2-0.5-0.4-1-0.8-1.5c0,0-5.2-1-6.5-1.1S6,62.3,5.6,62
	S3,52.4,2.2,50.5c-2.3-3.3-2.9-7.6-1.4-11.4c0.6-1.2,1.6-2.3,2.8-3c2.6-1.6,23-6.4,23-6.4s-3.6-5-4.2-6s-9.7-12.6-9.7-12.6L9.3,8.9
	l-1.4-1c0,0-2.3-0.6-2.2-1.2s1.9-0.5,1.9-0.5s-2.3-3-1.8-3.6s3,2.4,3,2.4s-2.7-3.9-2-4.3S10,3.6,10,3.6S7.8,0.4,8.3,0.1
	S10,1.4,10,1.4c0.3-0.2,0.7-0.3,1-0.2c0.6,0.2,1.4,2.3,1.8,2.8l1.9,2.4l2,3.2c0,0,3.8,3.6,4.6,4.5l6,7.3l-4.6-9.7L20.1,11l-2-0.7
	c0,0-1-0.5-0.8-1s2,0,2.3-0.1s0.3-0.5,0-1.3S16.4,4.5,16.8,4s3.5,2.2,3.5,2.2s-2.1-4-1.5-4.2s2.5,3.7,2.5,3.7S20.4,2.1,20.9,2
	s2,3.5,2,3.5s0.2-2.8,0.7-2.8s1,3.7,1,3.7c0.6,1,0.9,2.1,1,3.2c1,1.2,1.8,2.4,2.6,3.8c1,1.8,3.3,6.3,3.7,6.7l4.5,4.5
	c0.3-0.1,0.7-0.1,1,0c0.9,0.9,1.8,1.8,2.5,2.8L43.7,30.5z"/>
<g>
	<g>
		<path class="st0" d="M49.2,57.4c0.8-0.8,0.6-2.5-0.9-2.5l-3.8,0c0.1-0.8,0.4-2.2,0.3-2.3c-0.1-1.2-0.9-2.7-0.9-2.7
			c-0.1-0.3-0.8-0.6-1.6-0.5c-0.9,0.2-1,0.8-1,0.9c0,0,0,1.6,0,2c-0.4,1-2,3.5-2.4,3.7C38.9,56,38.7,56,38.6,56h-4.9
			c-0.4,0-0.7,0.3-0.7,0.7l0,6.7c0,0.4,0.3,0.6,0.7,0.6h4.4c0.4,0,0.7-0.3,0.7-0.7v-0.2c0,0,0.2,0,0.2,0c0.3,0.2,0.6,0.4,1.1,0.4
			h6.5c2.4,0,2.2-2.2,2-2.5c0.4-0.4,0.7-1.2,0.3-1.9C49.1,59,49.6,58.2,49.2,57.4z M37.9,63.4h-4.2v-6.7h4.2V63.4z M48,57.3l0,0.2
			c1.1,0.3,0.5,1.6-0.3,1.7l0,0.2c1.1,0.3,0.6,1.6-0.3,1.7l0,0.2c0.9,0.1,0.7,1.6-0.7,1.6l-6.6,0c-0.5,0-0.9-0.5-1.2-0.5h-0.3v-5.2
			c0.4-0.2,0.8-0.5,1.1-0.8c0.5-0.4,2.5-3.6,2.5-4s0-2.1,0-2.1s0.4-0.5,1.3-0.1c0,0,0.7,1.4,0.8,2.5c0,0-0.3,2.2-0.5,2.9h4.6
			C49.3,55.6,49.1,57.2,48,57.3z"/>
	</g>
</g>
</svg>
