<svg id="Layer_2" data-name="Layer 2" xmlns="http://www.w3.org/2000/svg" viewBox="0 0 1454.54 1284.33"><defs><style>.cls-1{fill:#eb5858;stroke:#fff;stroke-miterlimit:10;stroke-width:4px;}</style></defs><title>ankle_clearing_within</title><path class="cls-1" d="M492-382H699L849-157s36,35,0,128S659,423,647,578c-2,23-2,26,6,36,76,96,285,116,298,121,34,29,9,48-10,57s-186-1.42-229,0-253,18-273,9c-27-15,13-122,13-122s10.95-47.62,24-55,9,6,9,6,8.68-18.74,10-33C546,372,533.51,151.69,622-8c15-16,5-40,5-40L431-238V-382Z" transform="translate(206.51 384)"/><path class="cls-1" d="M54-382H482S560-79,586,0s-66,166-66,166S344,370,260,452s-92,131-96,156c1,52,180,116,180,116s119,10,102,56c-33,46-214,34-280,36S-90,844-98,826c-20-56,50-194,60-198s12,9,12,9,54-35,140-241S304,113,330,82s8-52,8-52Z" transform="translate(206.51 384)"/><polygon class="cls-1" points="38.09 1129.21 1452.51 1128.08 1450.58 1281.65 2.02 1282.33 3.16 1185.64 38.09 1129.21"/></svg>