<?xml version="1.0" encoding="utf-8"?>
<!-- Generator: Adobe Illustrator 22.0.1, SVG Export Plug-In . SVG Version: 6.00 Build 0)  -->
<svg version="1.1" id="Layer_1" xmlns="http://www.w3.org/2000/svg" xmlns:xlink="http://www.w3.org/1999/xlink" x="0px" y="0px"
	 viewBox="0 0 142.6 117.7" style="enable-background:new 0 0 142.6 117.7;" xml:space="preserve">
<style type="text/css">
	.st0{fill:#FBDEDE;stroke:#EB5858;stroke-miterlimit:10;}
	.st1{fill:#FFFFFF;stroke:#EB5858;stroke-linecap:round;stroke-miterlimit:10;}
	.st2{fill:#FBDEDE;stroke:#EB5858;stroke-linecap:round;stroke-miterlimit:10;}
</style>
<title>ankle_clearing_right</title>
<path class="st0" d="M26.3,0l60.5,0.8c0,0,14.8,12.8,20.3,18.7s2.8,10.8,1.8,13s-8,18.9-9.5,22.9s-7.6,10.9-10.5,16.5
	s-6,16.5-6,16.5s4,0.2,2.9,5.5c5.4,5.8,14.9,7.9,17.4,8c2,0.2,4,0.8,5.9,1.7c0,0-46.1,0-47.5,0c1.4-2.6,3-13.4,4.5-9.4
	s8.3-19.3,9-22.5c0.4-9.5,3.4-15.1,3.4-15.1s-19.6,18-27.8,21.1c-4.9,3.7-9.3,8.1-12.9,13.1c0,0,1.8-0.2,2.5,3.8s18.6,9,18.6,9H14.8
	c0,0,2.5-15.1,5.3-10c6.7-8.3,15.2-16.3,17.3-20.8c10.1-19.4,22.8-25.2,22.8-25.2s5.3-2.3,3-6.7c-2.2-6-21.8-22.8-26.7-31.8
	C32.6,7,26.3,0,26.3,0z"/>
<path class="st1" d="M87,36.9l-3.9-9c0,0,4.2,2,5.4,4.6C89.1,34.1,87,36.9,87,36.9z"/>
<path class="st2" d="M70.3,0.5c0,0,14.5,28.3,17,38.2s-8.7,17.9-8.7,17.9"/>
<polygon class="st0" points="3.7,103.7 142.1,103.6 141.9,117.1 0.5,117.2 0.6,108.7 "/>
</svg>
