<svg id="Layer_1" data-name="Layer 1" xmlns="http://www.w3.org/2000/svg" viewBox="0 0 142.58 117.65"><defs><style>.cls-1,.cls-4{fill:#eb5858;}.cls-2{fill:#fff;}.cls-3{fill:none;stroke-linecap:round;}.cls-3,.cls-4{stroke:#fff;stroke-miterlimit:10;}</style></defs><title>ankle_clearing_right</title><path class="cls-1" d="M454.74,324.46l60.5.76S530.08,338,535.5,343.94s2.77,10.77,1.84,13-8,18.9-9.54,22.88-7.64,10.93-10.46,16.51-6,16.54-6,16.54,4,.18,2.93,5.54c5.43,5.82,14.9,7.94,17.4,8a17.61,17.61,0,0,1,5.89,1.68s-46.13,0-47.5,0c1.41-2.61,3-13.44,4.47-9.43s8.29-19.31,9-22.5c.37-9.51,3.44-15.1,3.44-15.1s-19.6,18-27.77,21.15a61.1,61.1,0,0,0-12.92,13.09s1.75-.23,2.45,3.78,18.64,9,18.64,9l-44.15,0s2.46-15.07,5.27-10c6.73-8.29,15.21-16.31,17.26-20.78,10.12-19.37,22.82-25.22,22.82-25.22s5.28-2.31,3-6.71c-2.17-6-21.84-22.78-26.73-31.84C461,331.5,454.74,324.46,454.74,324.46Z" transform="translate(-428.43 -324.46)"/><path class="cls-2" d="M515.41,361.31l-3.89-9s4.22,2.05,5.44,4.57C517.57,358.59,515.41,361.31,515.41,361.31Z" transform="translate(-428.43 -324.46)"/><path class="cls-3" d="M498.74,325s14.52,28.28,17,38.18S507,381.08,507,381.08" transform="translate(-428.43 -324.46)"/><polygon class="cls-4" points="3.68 103.69 142.08 103.59 141.91 117.09 0.51 117.15 0.61 108.65 3.68 103.69"/></svg>