<?xml version="1.0" encoding="utf-8"?>
<!-- Generator: Adobe Illustrator 22.0.1, SVG Export Plug-In . SVG Version: 6.00 Build 0)  -->
<svg version="1.1" id="Layer_2_1_" xmlns="http://www.w3.org/2000/svg" xmlns:xlink="http://www.w3.org/1999/xlink" x="0px" y="0px"
	 viewBox="0 0 1454.5 1284.3" style="enable-background:new 0 0 1454.5 1284.3;" xml:space="preserve">
<style type="text/css">
	.st0{fill:#EB5858;stroke:#FFFFFF;stroke-width:4;stroke-miterlimit:10;}
</style>
<title>ankle_clearing_within</title>
<path class="st0" d="M698.5,2h207l150,225c0,0,36,35,0,128s-190,452-202,607c-2,23-2,26,6,36c76,96,285,116,298,121
	c34,29,9,48-10,57s-186-1.4-229,0s-253,18-273,9c-27-15,13-122,13-122s11-47.6,24-55s9,6,9,6s8.7-18.7,10-33
	c51-225,38.5-445.3,127-605c15-16,5-40,5-40l-196-190V2H698.5z"/>
<path class="st0" d="M250.5,2h428c0,0,48,303,74,382s-36,166-36,166s-176,204-260,286s-92,131-96,156c1,52,180,116,180,116
	s119,10,102,56c-33,46-214,34-280,36s-256,28-264,10c-20-56,50-194,60-198s12,9,12,9s54-35,140-241s160-283,186-314s8-52,8-52
	L250.5,2z"/>
<polygon class="st0" points="38.1,1129.2 1452.5,1128.1 1450.6,1281.7 2,1282.3 3.2,1185.6 "/>
</svg>
