<svg id="Layer_1" data-name="Layer 1" xmlns="http://www.w3.org/2000/svg" viewBox="0 0 190.72 152.74"><defs><style>.cls-1{fill:#eb5858;}</style></defs><title>stretch_felt_right_back</title><path class="cls-1" d="M765.31,439.15a10.34,10.34,0,0,0-7-7l-2.4-.7c-14.28-2.62-52.82-6.63-83.58-43.22-5.61-6.67-11.59-10.39-12.25-31.72V313.15a6.15,6.15,0,0,0-6.15-6.15H614.74a6.16,6.16,0,0,0-6.16,6.14c0,.15,0,.3,0,.44l4.61,66.23a52.16,52.16,0,0,1-4.07,24.08l-1,2.33a36.61,36.61,0,0,0,38.08,53.09l7.46-1.16a123.6,123.6,0,0,1,24.08-1.37l60.93,2.45a31,31,0,0,0,24.42-10.34h0A10.37,10.37,0,0,0,765.31,439.15ZM623.4,393.35a4.44,4.44,0,1,1,2.85,5.6,4.44,4.44,0,0,1-2.85-5.6Zm21.4,38.43a4.44,4.44,0,0,1-5.81,2.35h0a26.9,26.9,0,0,1-16.38-25V406.8a4.45,4.45,0,0,1,4.45-4.41h0a4.45,4.45,0,0,1,4.41,4.48v2.31a18,18,0,0,0,11,16.76,4.46,4.46,0,0,1,2.35,5.84Z" transform="translate(-575 -307)"/><path class="cls-1" d="M575,387.2v1.25a1.53,1.53,0,0,0,1.5,1.51h18.11l-5.75,5.73a1.45,1.45,0,0,0,0,2.06l.89.89a1.47,1.47,0,0,0,2.08,0l9.74-9.74a1.48,1.48,0,0,0,0-2.09l-9.74-9.74a1.47,1.47,0,0,0-2.08,0l-.89.89a1.47,1.47,0,0,0-.43,1.05,1.48,1.48,0,0,0,.43,1.05l5.68,5.69h-18A1.5,1.5,0,0,0,575,387.2Z" transform="translate(-575 -307)"/></svg>