<?xml version="1.0" encoding="utf-8"?>
<!-- Generator: Adobe Illustrator 22.0.1, SVG Export Plug-In . SVG Version: 6.00 Build 0)  -->
<svg version="1.1" id="Layer_1" xmlns="http://www.w3.org/2000/svg" xmlns:xlink="http://www.w3.org/1999/xlink" x="0px" y="0px"
	 viewBox="0 0 161.7 152.7" style="enable-background:new 0 0 161.7 152.7;" xml:space="preserve">
<style type="text/css">
	.st0{fill:#FBDEDE;stroke:#EB5858;stroke-width:2;stroke-miterlimit:10;}
	.st1{fill:#EB5858;}
</style>
<title>stretch_felt_right_front</title>
<path class="st0" d="M161.3,132.1c-1-3.4-3.6-6-7-7l-2.4-0.7c-14.3-2.6-52.8-6.6-83.6-43.2c-5.6-6.7-11.6-10.4-12.2-31.7V6.1
	c0-3.4-2.8-6.1-6.2-6.1l0,0H10.8C7.4,0,4.6,2.7,4.6,6.1c0,0.1,0,0.3,0,0.4l4.6,66.2C9.8,81,8.4,89.3,5.1,96.9l-1,2.3
	c-9.3,17.9-2.4,40,15.6,49.4c6.9,3.6,14.8,4.9,22.5,3.7l7.5-1.2c8-1.2,16-1.7,24.1-1.4l60.9,2.5c9.3,0.4,18.2-3.4,24.4-10.3l0,0
	C161.5,139.2,162.3,135.6,161.3,132.1z M19.4,86.4c0.8-2.3,3.3-3.6,5.6-2.8s3.6,3.3,2.8,5.6c-0.8,2.3-3.3,3.6-5.6,2.8
	C19.9,91.2,18.7,88.7,19.4,86.4C19.4,86.4,19.4,86.4,19.4,86.4z M40.8,124.8c-1,2.2-3.6,3.3-5.8,2.4l0,0c-10-4.3-16.5-14.1-16.4-25
	v-2.3c0-2.4,2-4.4,4.5-4.4l0,0c2.5,0,4.4,2,4.4,4.5v2.3c-0.1,7.3,4.3,13.9,11,16.8C40.7,119.9,41.8,122.5,40.8,124.8L40.8,124.8z"/>
<path class="st1" d="M106.5,78.7h-18l5.7-5.7c0.3-0.3,0.4-0.7,0.4-1c0-0.4-0.2-0.8-0.4-1l-0.9-0.9c-0.3-0.3-0.6-0.4-1-0.4
	c-0.4,0-0.7,0.2-1,0.4l-9.7,9.7c-0.6,0.6-0.6,1.5,0,2.1l9.7,9.7c0.3,0.3,0.6,0.4,1,0.4c0.4,0,0.7-0.2,1-0.4l0.9-0.9
	c0.6-0.6,0.6-1.5,0-2.1c0,0,0,0,0,0L88.4,83h18.1c0.8,0,1.5-0.7,1.5-1.5v-1.3C108,79.4,107.3,78.7,106.5,78.7z"/>
</svg>
