<?xml version="1.0" encoding="utf-8"?>
<!-- Generator: Adobe Illustrator 22.0.1, SVG Export Plug-In . SVG Version: 6.00 Build 0)  -->
<svg version="1.1" id="Layer_1" xmlns="http://www.w3.org/2000/svg" xmlns:xlink="http://www.w3.org/1999/xlink" x="0px" y="0px"
	 viewBox="0 0 512 512" style="enable-background:new 0 0 512 512;" xml:space="preserve">
<style type="text/css">
	.st0{fill:#EB5858;}
</style>
<g>
	<g>
		<path class="st0" d="M371.5,220.6c-4.3,5.2-9.5,10.1-15.5,14.8c-5.7,4.5-12.1,8.7-19.3,12.6H356h15.6h15.7v-68
			C387.3,194.4,381.9,208.1,371.5,220.6z"/>
	</g>
</g>
<g>
	<g>
		<path class="st0" d="M193.7,172.3c-16.8,0-28.2,4.5-32.5,7.7c3.8,2.7,13.3,6.9,28.6,7.6c1.3,0.1,2.7,0.1,4,0.1
			c16.9,0,28.2-4.5,32.6-7.7C221.9,176.9,210.5,172.3,193.7,172.3z"/>
	</g>
</g>
<g>
	<g>
		<path class="st0" d="M193.7,112C101,112,35,145.8,31.5,177.3c-0.1,0.9-0.2,1.8-0.2,2.7c0,0.5,0,1,0.1,1.5c0,0.4,0.1,0.9,0.1,1.3
			c0,0.2,0.1,0.4,0.1,0.7c0,0.2,0.1,0.4,0.1,0.7c0,0,0,0,0,0c0.1,0.6,0.2,1.1,0.3,1.7c0.1,0.3,0.2,0.7,0.3,1
			c0.1,0.4,0.3,0.9,0.4,1.3c0.1,0.2,0.1,0.4,0.2,0.7c0.1,0.2,0.2,0.4,0.3,0.7c0.3,0.9,0.7,1.8,1.2,2.7c0,0,0,0,0,0
			c0.2,0.4,0.4,0.9,0.7,1.3c0.1,0.2,0.2,0.4,0.4,0.7c0.1,0.2,0.3,0.4,0.4,0.7c0.3,0.4,0.5,0.9,0.8,1.3c0.3,0.5,0.6,0.9,0.9,1.4
			c0.3,0.4,0.6,0.8,0.9,1.3c0.2,0.2,0.3,0.4,0.5,0.7c0.2,0.2,0.3,0.4,0.5,0.6c0.4,0.4,0.7,0.9,1.1,1.3c0.4,0.4,0.8,0.9,1.2,1.3
			c0,0,0,0,0,0.1c0.4,0.4,0.8,0.8,1.2,1.2c0.3,0.3,0.6,0.7,1,1c0.2,0.2,0.3,0.3,0.5,0.5c0.6,0.5,1.1,1.1,1.7,1.6
			c0.3,0.3,0.6,0.6,0.9,0.8c0.1,0.1,0.2,0.1,0.2,0.2c0.4,0.3,0.8,0.7,1.2,1c0.1,0.1,0.2,0.2,0.3,0.2c0.4,0.3,0.8,0.7,1.3,1
			c0.5,0.4,1.1,0.8,1.6,1.2c0.5,0.4,1.1,0.8,1.7,1.2c0.6,0.4,1.1,0.8,1.7,1.2s1.2,0.8,1.8,1.2c0.6,0.4,1.1,0.7,1.7,1.1
			c0.1,0,0.1,0.1,0.2,0.1c0.4,0.2,0.7,0.5,1.1,0.7c0.3,0.2,0.6,0.4,0.9,0.5c0.3,0.2,0.6,0.4,1,0.6c0.3,0.2,0.6,0.4,1,0.6v0
			c0,0,0,0,0,0c0.4,0.2,0.7,0.4,1.1,0.6c0.1,0,0.1,0.1,0.2,0.1c0.4,0.2,0.8,0.5,1.2,0.7c0.1,0.1,0.3,0.1,0.4,0.2
			c0.2,0.1,0.4,0.2,0.6,0.3l0,0c0.4,0.3,0.9,0.5,1.3,0.7c0.4,0.2,0.9,0.5,1.4,0.7c0.5,0.3,0.9,0.5,1.4,0.7c0.6,0.3,1.3,0.6,1.9,1
			c1.5,0.7,3.1,1.5,4.6,2.2c0.8,0.4,1.7,0.8,2.6,1.1s1.7,0.7,2.6,1.1s1.8,0.7,2.7,1.1c0.4,0.2,0.9,0.4,1.3,0.5
			c0.1,0,0.1,0.1,0.2,0.1c0.3,0.1,0.5,0.2,0.7,0.3c0.1,0.1,0.3,0.1,0.5,0.2c0.1,0,0.1,0.1,0.2,0.1c0.3,0.1,0.7,0.3,1,0.4
			c0.5,0.2,1,0.4,1.6,0.6c12.2,4.5,25.7,8.1,40,10.8c1.2,0.2,2.3,0.4,3.5,0.6c0.2,0,0.4,0.1,0.6,0.1c0.2,0,0.4,0.1,0.6,0.1
			c1.6,0.3,3.1,0.5,4.7,0.8c0.4,0.1,0.9,0.1,1.3,0.2c0.7,0.1,1.4,0.2,2,0.3c0.7,0.1,1.4,0.2,2.1,0.3c0.1,0,0.2,0,0.3,0.1
			c0.1,0,0.2,0,0.3,0c0.2,0,0.4,0.1,0.6,0.1c0.2,0,0.4,0.1,0.6,0.1c0.8,0.1,1.6,0.2,2.4,0.3c0.1,0,0.2,0,0.4,0.1
			c1.3,0.2,2.7,0.3,4,0.5c0.2,0,0.5,0.1,0.7,0.1c0.1,0,0.1,0,0.2,0c0.6,0.1,1.3,0.1,1.9,0.2c1.1,0.1,2.3,0.2,3.5,0.3
			c1.1,0.1,2.1,0.2,3.2,0.3c0.3,0,0.5,0,0.8,0.1c1,0.1,2,0.2,3,0.2c0.9,0.1,1.9,0.1,2.8,0.2c1,0.1,2,0.1,3.1,0.2
			c0.8,0.1,1.6,0.1,2.4,0.1c0.8,0,1.6,0.1,2.4,0.1l3.6,0.2l0.4,0.2h12c54.4,0,99.5-11.6,128.2-27.5c19.2-10.7,31.1-23.2,33.6-35.6
			h0.5V180C356,147.8,289.3,112,193.7,112z M193.7,219c-1.8,0-3.6,0-5.3-0.1c-35.3-1.5-60-17.5-60-38.9c0-1,0.1-2,0.2-3
			c2.4-21.2,29.2-36.1,65.2-36.1c37.9,0,65.4,16.4,65.4,39S231.5,219,193.7,219z"/>
	</g>
</g>
<g>
	<g>
		<path class="st0" d="M496.3,279.3L496.3,279.3h-15.7h-287c-5.7,0-11.5-0.1-17.4-0.4c-1.2-0.1-2.4-0.1-3.7-0.2
			c-4.6-0.2-9.1-0.6-13.6-1c-1.4-0.1-2.8-0.3-4.2-0.4c-0.8-0.1-1.6-0.2-2.4-0.2c-0.4,0-0.8-0.1-1.2-0.1c-0.4-0.1-0.8-0.1-1.1-0.1
			c-1.1-0.1-2.2-0.3-3.3-0.4c-0.8-0.1-1.5-0.2-2.3-0.3c-0.1,0-0.2,0-0.3,0c-1.3-0.2-2.6-0.3-3.9-0.5c-1.3-0.2-2.6-0.4-3.8-0.6
			c-1.1-0.2-2.3-0.4-3.4-0.5c-0.3,0-0.5-0.1-0.8-0.1c-0.7-0.1-1.4-0.2-2.1-0.4c-0.9-0.1-1.8-0.3-2.7-0.5c-0.4-0.1-0.8-0.1-1.1-0.2
			c-1.1-0.2-2.2-0.4-3.3-0.6c-0.4-0.1-0.7-0.1-1.1-0.2c-0.9-0.2-1.8-0.4-2.7-0.5c-0.7-0.1-1.4-0.3-2.2-0.4c-2.8-0.6-5.6-1.2-8.4-1.9
			c-1.3-0.3-2.6-0.6-3.8-0.9c-1.4-0.4-2.8-0.7-4.3-1.1c-1.1-0.3-2.1-0.6-3.2-0.9c-0.8-0.2-1.6-0.4-2.4-0.7c-0.3-0.1-0.6-0.2-1-0.3
			c-0.8-0.2-1.6-0.5-2.5-0.7c-2.5-0.8-5-1.6-7.4-2.4c-0.7-0.2-1.5-0.5-2.2-0.8c-1.3-0.5-2.7-0.9-4-1.4c-0.9-0.3-1.7-0.6-2.6-1
			c-4-1.5-7.9-3.2-11.7-4.9c-0.5-0.2-1-0.5-1.6-0.7c-0.5-0.2-1-0.5-1.5-0.7h0c-0.5-0.2-1-0.5-1.4-0.7c-0.4-0.2-0.7-0.4-1.1-0.5
			c-0.6-0.3-1.2-0.6-1.8-0.9c-2.8-1.4-5.5-2.8-8.1-4.3c-0.4-0.2-0.8-0.4-1.1-0.7c-0.8-0.5-1.7-1-2.5-1.5c-0.4-0.2-0.8-0.4-1.1-0.7
			c-0.1-0.1-0.2-0.1-0.3-0.2s-0.2-0.1-0.3-0.2c-0.4-0.2-0.7-0.4-1.1-0.7c-10.8-6.9-19.6-14.4-26.3-22.5
			c-7.4-8.9-12.2-18.5-14.4-28.4c-0.1-0.5-0.2-1.1-0.3-1.6c-0.1-0.5-0.2-1.1-0.3-1.6c-0.1-0.3-0.1-0.6-0.1-1
			c-0.1-0.6-0.2-1.2-0.2-1.8c0-0.3-0.1-0.6-0.1-0.8c0-0.4-0.1-0.8-0.1-1.2c0-0.4-0.1-0.9-0.1-1.3c0-0.8-0.1-1.7-0.1-2.5v120.7
			c0,27.1,19.6,52.2,55.2,70.4c3.7,1.9,7.6,3.7,11.6,5.5v-17.2v-17.6v-35h31.3v48.1v16.4v16.3c12.3,3.4,25.3,6.2,38.9,8.3V380v-15.9
			V352h31.3v15.7v15.7v15.7c2.6,0.2,5.2,0.3,7.9,0.4c5.8,0.3,11.7,0.4,17.4,0.4h12.9v-15.7v-15.7v-46.2h31.3v46.2v15.7V400h38.9
			v-15.7v-15.7V352h31.3v16.6v15.7V400h38.1v-15.7v-15.7v-46.2h31.3v46.2v15.7V400h38.9v-15.7v-15.7V352h31.3v16.6v15.7V400H512
			V279.3H496.3z"/>
	</g>
</g>
</svg>
