<svg id="Layer_1" data-name="Layer 1" xmlns="http://www.w3.org/2000/svg" viewBox="0 0 99.39 70.18"><defs><style>.cls-1,.cls-4{fill:none;}.cls-1{stroke:#eb5858;}.cls-1,.cls-2,.cls-4{stroke-miterlimit:10;}.cls-2,.cls-3{fill:#eb5858;}.cls-2,.cls-4{stroke:#fff;}.cls-4{stroke-width:0.25px;}</style></defs><title>single_leg_hop</title><path class="cls-1" d="M90.06,22.34a31.32,31.32,0,0,1,4-4.47" transform="translate(-0.1 -5.57)"/><path class="cls-2" d="M69.06,14.66a60.29,60.29,0,0,1,15,.75,2.05,2.05,0,0,0,1.5-.37c.63-.52-.1-4.52,2.67-7.21,3.9-3.81,9.46-.75,10.5,2.83a8.12,8.12,0,0,1-.33,5.08L97.32,17s.63,1.92.25,2.5-1.42.5-1.42.5a8,8,0,0,1-1.83,2.67c-1.09.89-3.46-.51-5.42,0a45.1,45.1,0,0,0-4.58,1.58s.18.8-.08,1.08-1.17,0-1.17,0a27.21,27.21,0,0,1-6.33,4.92C73.29,32,62,33.32,62,33.32l3,9.75s1.47,2.28,1.25,4.13-1.62,3-3,4.5A101.75,101.75,0,0,0,56,61.58a33.75,33.75,0,0,0-2,4,9.89,9.89,0,0,0,0,2.63s3.31,2.72,4,3.13,3.78.25,4.5.75.31,1.09-.5,1.75-6.56,1.25-8,1.25-5.59.38-6.87,0-2-.91-2-1.87.66-4.34,1.88-4.62c1.5-1.37,3.94-8.69,4.25-10.12s.81-5.16,2.38-7.25a32.47,32.47,0,0,1,3.25-3.75c.38-.37-2.37-3.75-2.37-3.75s-7.16.5-7.5.13A11.17,11.17,0,0,1,46.39,41l-4.5,4.38s-3.19,2.72-3.75,3.25c-.87,2.28-2.87,3.88-4.25,4S26,51.25,26,51.25s-8.09-2.37-10.37-2.62a13.35,13.35,0,0,0-4.25.25l-1.5.38s.72,1.22,0,1.63a9,9,0,0,1-2.37.63s-2.06,6.16-4,6.25S.31,55.27.66,52.65s2.19-5,2.38-5.75C4.63,41.53,6.23,41.18,6.79,41c1-.16,2.75,1.38,2.75,1.38l1.52,1.42a66.53,66.53,0,0,1,9.13-1,48.61,48.61,0,0,1,9.75,1s-1.62-1.41-1.75-2.37a2.28,2.28,0,0,1,.63-2.25,22.35,22.35,0,0,0,2.24-1.88c.63-.69,3.44-8.31,4.63-10.75s3.75-6.37,3.75-6.37-3.25-.5-3.87-1.75c-.69-2.37.66-4.84,2.75-4.87s5.28,1.69,6.25,1.88,2.64-.15,4.92,0,6.33.63,7.58.5a6.25,6.25,0,0,0,2-.5,16.24,16.24,0,0,0-3.87-1.75,7.22,7.22,0,0,0-3.37.5s-1,1.08-1.54,1,.71-1.67.71-1.67-3.65-1-3.62-1.55,3-.2,3-.2-2.93-1.42-2.79-2.21,3.29,1,3.29,1-2.16-2.06-1.75-2.5,3.25,1.63,3.25,1.63-1.81-1.94-1.31-2.37S53.7,9.48,53.7,9.48l3.75,1.38C58.49,11.24,67.5,14.75,69.06,14.66Z" transform="translate(-0.1 -5.57)"/><path class="cls-3" d="M69.06,14.66a60.29,60.29,0,0,1,15,.75,2.05,2.05,0,0,0,1.5-.37c.63-.52-.1-4.52,2.67-7.21,3.9-3.81,9.46-.75,10.5,2.83a8.12,8.12,0,0,1-.33,5.08L97.32,17s.63,1.92.25,2.5-1.42.5-1.42.5a8,8,0,0,1-1.83,2.67c-1.09.89-3.46-.51-5.42,0a45.1,45.1,0,0,0-4.58,1.58s.18.8-.08,1.08-1.17,0-1.17,0a27.21,27.21,0,0,1-6.33,4.92C73.29,32,62,33.32,62,33.32l3,9.75s1.47,2.28,1.25,4.13-1.62,3-3,4.5A101.75,101.75,0,0,0,56,61.58a33.75,33.75,0,0,0-2,4,9.89,9.89,0,0,0,0,2.63s3.31,2.72,4,3.13,3.78.25,4.5.75.31,1.09-.5,1.75-6.56,1.25-8,1.25-5.59.38-6.87,0-2-.91-2-1.87.66-4.34,1.88-4.62c1.5-1.37,3.94-8.69,4.25-10.12s.81-5.16,2.38-7.25a32.47,32.47,0,0,1,3.25-3.75c.38-.37-2.37-3.75-2.37-3.75s-7.16.5-7.5.13A11.17,11.17,0,0,1,46.39,41l-4.5,4.38s-3.19,2.72-3.75,3.25c-.87,2.28-2.87,3.88-4.25,4S26,51.25,26,51.25s-8.09-2.37-10.37-2.62a13.35,13.35,0,0,0-4.25.25l-1.5.38s.72,1.22,0,1.63a9,9,0,0,1-2.37.63s-2.06,6.16-4,6.25S.31,55.27.66,52.65s2.19-5,2.38-5.75C4.63,41.53,6.23,41.18,6.79,41c1-.16,2.75,1.38,2.75,1.38l1.52,1.42a66.53,66.53,0,0,1,9.13-1,48.61,48.61,0,0,1,9.75,1s-1.62-1.41-1.75-2.37a2.28,2.28,0,0,1,.63-2.25,22.35,22.35,0,0,0,2.24-1.88c.63-.69,3.44-8.31,4.63-10.75s3.75-6.37,3.75-6.37-3.25-.5-3.87-1.75c-.69-2.37.66-4.84,2.75-4.87s5.28,1.69,6.25,1.88,2.64-.15,4.92,0,6.33.63,7.58.5a6.25,6.25,0,0,0,2-.5,16.24,16.24,0,0,0-3.87-1.75,7.22,7.22,0,0,0-3.37.5s-1,1.08-1.54,1,.71-1.67.71-1.67-3.65-1-3.62-1.55,3-.2,3-.2-2.93-1.42-2.79-2.21,3.29,1,3.29,1-2.16-2.06-1.75-2.5,3.25,1.63,3.25,1.63-1.81-1.94-1.31-2.37S53.7,9.48,53.7,9.48l3.75,1.38C58.49,11.24,67.5,14.75,69.06,14.66Z" transform="translate(-0.1 -5.57)"/><path class="cls-4" d="M39.44,20.21s-.87,1.19-.12,1.25,2.88-1.81,2.88-1.81,3.75.19,6.44.59,7.06,2.41,12.56,2.47c2.81,1.44,7.56,1.75,7.56,1.75A13.7,13.7,0,0,0,70.45,16c-.5-.75-4.75.81-6.81,1S57.08,16,57.08,16" transform="translate(-0.1 -5.57)"/><path class="cls-4" d="M59.06,15.46s7,.17,10-.79" transform="translate(-0.1 -5.57)"/></svg>