<?xml version="1.0" encoding="utf-8"?>
<!-- Generator: Adobe Illustrator 22.0.1, SVG Export Plug-In . SVG Version: 6.00 Build 0)  -->
<svg version="1.1" id="Layer_1" xmlns="http://www.w3.org/2000/svg" xmlns:xlink="http://www.w3.org/1999/xlink" x="0px" y="0px"
	 viewBox="0 0 99.4 70.2" style="enable-background:new 0 0 99.4 70.2;" xml:space="preserve">
<style type="text/css">
	.st0{fill:none;stroke:#EB5858;stroke-miterlimit:10;}
	.st1{fill:#EB5858;stroke:#FFFFFF;stroke-miterlimit:10;}
	.st2{fill:#EB5858;}
	.st3{fill:none;stroke:#FFFFFF;stroke-width:0.25;stroke-miterlimit:10;}
</style>
<title>single_leg_hop</title>
<path class="st0" d="M90,16.8c1.2-1.6,2.5-3.1,4-4.5"/>
<path class="st1" d="M69,9.1C74,8.7,79,9,84,9.8c0.5,0.1,1.1-0.1,1.5-0.4C86.1,9,85.4,5,88.1,2.3c3.9-3.8,9.5-0.8,10.5,2.8
	c0.4,1.7,0.3,3.5-0.3,5.1l-1.1,1.3c0,0,0.6,1.9,0.2,2.5S96,14.5,96,14.5c-0.4,1-1,1.9-1.8,2.7c-1.1,0.9-3.5-0.5-5.4,0
	c-1.6,0.4-3.1,1-4.6,1.6c0,0,0.2,0.8-0.1,1.1s-1.2,0-1.2,0c-1.9,1.9-4,3.6-6.3,4.9c-3.4,1.8-14.7,3.1-14.7,3.1l3,9.8
	c0,0,1.5,2.3,1.2,4.1s-1.6,3-3,4.5c-2.6,3.1-5,6.4-7.2,9.9c-0.8,1.3-1.4,2.6-2,4c-0.1,0.9-0.1,1.8,0,2.6c0,0,3.3,2.7,4,3.1
	s3.8,0.2,4.5,0.8s0.3,1.1-0.5,1.8s-6.6,1.2-8,1.2s-5.6,0.4-6.9,0s-2-0.9-2-1.9s0.7-4.3,1.9-4.6c1.5-1.4,3.9-8.7,4.2-10.1
	s0.8-5.2,2.4-7.2c1-1.3,2.1-2.6,3.2-3.8c0.4-0.4-2.4-3.8-2.4-3.8s-7.2,0.5-7.5,0.1c-0.3-0.9-0.5-1.9-0.6-2.9l-4.5,4.4
	c0,0-3.2,2.7-3.8,3.2c-0.9,2.3-2.9,3.9-4.2,4s-7.9-1.4-7.9-1.4s-8.1-2.4-10.4-2.6C14,43,12.5,43,11.2,43.3l-1.5,0.4
	c0,0,0.7,1.2,0,1.6C9,45.6,8.2,45.8,7.4,46c0,0-2.1,6.2-4,6.2s-3.2-2.5-2.9-5.1s2.2-5,2.4-5.8c1.6-5.4,3.2-5.7,3.7-5.9
	c1-0.2,2.7,1.4,2.7,1.4l1.5,1.4c3-0.5,6.1-0.9,9.1-1c3.3,0,6.5,0.3,9.8,1c0,0-1.6-1.4-1.8-2.4c-0.2-0.8,0-1.7,0.6-2.2
	c0.8-0.6,1.5-1.2,2.2-1.9c0.6-0.7,3.4-8.3,4.6-10.8s3.8-6.4,3.8-6.4s-3.2-0.5-3.9-1.8c-0.4-2.2,0.9-4.7,3-4.7c2.1,0,5.3,1.7,6.2,1.9
	s2.6-0.1,4.9,0s6.3,0.6,7.6,0.5c0.7-0.1,1.4-0.2,2-0.5c-1.2-0.8-2.5-1.3-3.9-1.8c-1-0.1-2.2,0.1-3.3,0.5c0,0-1,1.1-1.5,1
	S50.9,8,50.9,8s-3.7-1-3.6-1.6s3-0.2,3-0.2S47.4,4.8,47.5,4s3.3,1,3.3,1S48.6,2.9,49,2.5s3.2,1.6,3.2,1.6S50.5,2.2,51,1.8
	S53.6,4,53.6,4l3.8,1.4C58.4,5.7,67.4,9.2,69,9.1z"/>
<path class="st2" d="M69,9.1C74,8.7,79,9,84,9.8c0.5,0.1,1.1-0.1,1.5-0.4C86.1,9,85.4,5,88.1,2.3c3.9-3.8,9.5-0.8,10.5,2.8
	c0.4,1.7,0.3,3.5-0.3,5.1l-1.1,1.3c0,0,0.6,1.9,0.2,2.5S96,14.5,96,14.5c-0.4,1-1,1.9-1.8,2.7c-1.1,0.9-3.5-0.5-5.4,0
	c-1.6,0.4-3.1,1-4.6,1.6c0,0,0.2,0.8-0.1,1.1s-1.2,0-1.2,0c-1.9,1.9-4,3.6-6.3,4.9c-3.4,1.8-14.7,3.1-14.7,3.1l3,9.8
	c0,0,1.5,2.3,1.2,4.1s-1.6,3-3,4.5c-2.6,3.1-5,6.4-7.2,9.9c-0.8,1.3-1.4,2.6-2,4c-0.1,0.9-0.1,1.8,0,2.6c0,0,3.3,2.7,4,3.1
	s3.8,0.2,4.5,0.8s0.3,1.1-0.5,1.8s-6.6,1.2-8,1.2s-5.6,0.4-6.9,0s-2-0.9-2-1.9s0.7-4.3,1.9-4.6c1.5-1.4,3.9-8.7,4.2-10.1
	s0.8-5.2,2.4-7.2c1-1.3,2.1-2.6,3.2-3.8c0.4-0.4-2.4-3.8-2.4-3.8s-7.2,0.5-7.5,0.1c-0.3-0.9-0.5-1.9-0.6-2.9l-4.5,4.4
	c0,0-3.2,2.7-3.8,3.2c-0.9,2.3-2.9,3.9-4.2,4s-7.9-1.4-7.9-1.4s-8.1-2.4-10.4-2.6C14,43,12.5,43,11.2,43.3l-1.5,0.4
	c0,0,0.7,1.2,0,1.6C9,45.6,8.2,45.8,7.4,46c0,0-2.1,6.2-4,6.2s-3.2-2.5-2.9-5.1s2.2-5,2.4-5.8c1.6-5.4,3.2-5.7,3.7-5.9
	c1-0.2,2.7,1.4,2.7,1.4l1.5,1.4c3-0.5,6.1-0.9,9.1-1c3.3,0,6.5,0.3,9.8,1c0,0-1.6-1.4-1.8-2.4c-0.2-0.8,0-1.7,0.6-2.2
	c0.8-0.6,1.5-1.2,2.2-1.9c0.6-0.7,3.4-8.3,4.6-10.8s3.8-6.4,3.8-6.4s-3.2-0.5-3.9-1.8c-0.4-2.2,0.9-4.7,3-4.7c2.1,0,5.3,1.7,6.2,1.9
	s2.6-0.1,4.9,0s6.3,0.6,7.6,0.5c0.7-0.1,1.4-0.2,2-0.5c-1.2-0.8-2.5-1.3-3.9-1.8c-1-0.1-2.2,0.1-3.3,0.5c0,0-1,1.1-1.5,1
	S50.9,8,50.9,8s-3.7-1-3.6-1.6s3-0.2,3-0.2S47.4,4.8,47.5,4s3.3,1,3.3,1S48.6,2.9,49,2.5s3.2,1.6,3.2,1.6S50.5,2.2,51,1.8
	S53.6,4,53.6,4l3.8,1.4C58.4,5.7,67.4,9.2,69,9.1z"/>
<path class="st3" d="M39.3,14.6c0,0-0.9,1.2-0.1,1.2s2.9-1.8,2.9-1.8s3.8,0.2,6.4,0.6s7.1,2.4,12.6,2.5c2.8,1.4,7.6,1.8,7.6,1.8
	c1.5-2.6,2.1-5.5,1.7-8.5c-0.5-0.8-4.8,0.8-6.8,1s-6.6-1-6.6-1"/>
<path class="st3" d="M59,9.9c0,0,7,0.2,10-0.8"/>
<g>
	<g>
		<path class="st2" d="M88.2,37.4c0.8-0.8,0.6-2.5-0.9-2.5l-3.8,0c0.1-0.8,0.4-2.2,0.3-2.3c-0.1-1.2-0.9-2.7-0.9-2.7
			c-0.1-0.3-0.8-0.6-1.6-0.5c-0.9,0.2-1,0.8-1,0.9c0,0,0,1.6,0,2c-0.4,1-2,3.5-2.4,3.7C77.9,36,77.7,36,77.6,36h-4.9
			c-0.4,0-0.7,0.3-0.7,0.7l0,6.7c0,0.4,0.3,0.6,0.7,0.6h4.4c0.4,0,0.7-0.3,0.7-0.7v-0.2c0,0,0.2,0,0.2,0c0.3,0.2,0.6,0.4,1.1,0.4
			h6.5c2.4,0,2.2-2.2,2-2.5c0.4-0.4,0.7-1.2,0.3-1.9C88.1,39,88.6,38.2,88.2,37.4z M76.9,43.4h-4.2v-6.7h4.2V43.4z M87,37.3l0,0.2
			c1.1,0.3,0.5,1.6-0.3,1.7l0,0.2c1.1,0.3,0.6,1.6-0.3,1.7l0,0.2c0.9,0.1,0.7,1.6-0.7,1.6l-6.6,0c-0.5,0-0.9-0.5-1.2-0.5h-0.3v-5.2
			c0.4-0.2,0.8-0.5,1.1-0.8c0.5-0.4,2.5-3.6,2.5-4s0-2.1,0-2.1s0.4-0.5,1.3-0.1c0,0,0.7,1.4,0.8,2.5c0,0-0.3,2.2-0.5,2.9h4.6
			C88.3,35.6,88.1,37.2,87,37.3z"/>
	</g>
</g>
</svg>
