<?xml version="1.0" encoding="utf-8"?>
<!-- Generator: Adobe Illustrator 22.0.1, SVG Export Plug-In . SVG Version: 6.00 Build 0)  -->
<svg version="1.1" id="Layer_1" xmlns="http://www.w3.org/2000/svg" xmlns:xlink="http://www.w3.org/1999/xlink" x="0px" y="0px"
	 viewBox="0 0 104.6 108" style="enable-background:new 0 0 104.6 108;" xml:space="preserve">
<style type="text/css">
	.st0{fill:#FBDEDE;stroke:#EB5858;stroke-miterlimit:10;}
	.st1{fill:none;stroke:#EB5858;stroke-linecap:round;stroke-miterlimit:10;}
</style>
<title>wrist_extension_clearing</title>
<path class="st0" d="M5.2,80.9c6.5,1,13,1.5,19.5,1.5c0,0,0.9,14.6,1.2,25.6h52.7c0.3-11,1.2-25.6,1.2-25.6c6.5,0,13-0.5,19.5-1.5
	c5.2,1,5.2-4,5.2-4s0.3-6.8-1.3-10.2c-1.7-3.3-7-6.2-8.5-8.5s-3.8-6-6-8c-1.7-1.5-3.5-2.5-10.5-2.2s-14.5-5.5-14.5-5.5L62,40.7
	l0.8-9.3c0.5-1.2,0.8-2.5,0.8-3.8c5.8-2.5,5.2-7.6,4-8.8c-1-1.1-2.2,0.6-2.2,0.6S68.8,1.8,54.3,0h-4C35.7,1.8,39.1,19.3,39.1,19.3
	s-1.2-1.7-2.2-0.6c-1.2,1.2-1.8,6.3,4,8.8c0.1,1.3,0.3,2.6,0.8,3.8l0.8,9.3l-1.7,1.8c0,0-7.5,5.8-14.5,5.5s-8.8,0.7-10.5,2.2
	c-2.2,2-4.5,5.7-6,8S3,63.4,1.4,66.8C-0.3,70.1,0,76.9,0,76.9S0,81.9,5.2,80.9z"/>
<path class="st1" d="M24.7,82.4c0,0,24.2-3.5,27.6-9.4c0.6-2.4,0-29.9,0-31s-2.2-1.4-2.3,0s-0.8,10.2-2.4,14.1
	c-1.4,3-2.6,10.4-2.6,10.4c-0.3,0.8-0.7,1.5-1.4,2c-1.6,0.6-19.2-0.6-21.2-1.1C17.4,64.2,8.5,64,8.5,64"/>
<path class="st1" d="M24.5,61.8c0.8,1.9,0.8,4.1,0,6"/>
<path class="st1" d="M80.1,82.4c0,0-24.2-3.5-27.6-9.4c-0.6-2.4,0-29.9,0-31s2.2-1.4,2.3,0s0.8,10.2,2.4,14.1
	c1.4,2.9,2.6,10.4,2.6,10.4c0.3,0.8,0.7,1.5,1.4,2c1.6,0.6,19.2-0.6,21.2-1.1c5-3.2,13.9-3.4,13.9-3.4"/>
<path class="st1" d="M80.3,61.8c-0.8,1.9-0.8,4.1,0,6"/>
</svg>
