<?xml version="1.0" encoding="utf-8"?>
<!-- Generator: Adobe Illustrator 22.0.1, SVG Export Plug-In . SVG Version: 6.00 Build 0)  -->
<svg version="1.1" id="Layer_1" xmlns="http://www.w3.org/2000/svg" xmlns:xlink="http://www.w3.org/1999/xlink" x="0px" y="0px"
	 viewBox="0 0 149.2 189.3" style="enable-background:new 0 0 149.2 189.3;" xml:space="preserve">
<style type="text/css">
	.st0{fill:#FBDEDE;stroke:#EB5858;stroke-miterlimit:10;}
	.st1{fill:#EB5858;stroke:#FFFFFF;stroke-width:2;stroke-miterlimit:10;}
	.st2{fill:none;stroke:#EB5858;stroke-miterlimit:10;}
</style>
<title>posterormedial_reach</title>
<path class="st0" d="M149.1,185.9l-37.8-43.6l9.8-1.5v-4.2l-5.8-6.1l-12.7,1.8L91.8,120l2.2-0.2v-4L121.6,93l7.9,1.2l3.3-2.5v-3.2
	l-4.9-0.8l5.8-4.8c0.7-2.2-1.8-2.2-1.8-2.2l-8.1,6.3l-8.4-1.3l-3.1,2.4v3.2l4.9,0.8l-24.1,18.8l-2.8,0.3l-7.2-8.3l-11.1,1.3v3
	l4.1,5.3l-2.3,0.2l-17.4-3.3l1.8-1.1l-0.3-3.5l-9.1-1.9l-6.8,3.8c-19.6-3.7-41-7.8-41.5-7.8c-0.7,0.8-0.7,1.9,0,2.7l36.8,7.7
	l-1.7,0.9v3.6l9.8,2.1l6.1-3.6l23,4.8l4.7-0.4l3.1,4l5.1-0.5L98.1,133l-8.6,1.2v4.4l4.5,6.2l12.5-1.9c17,20.1,38.5,45.6,39,46.1
	C146.2,189.9,150.2,187.9,149.1,185.9z"/>
<path class="st1" d="M42.4,48.6c0,0,13.8-23.5,17.8-26.5c3.2-2.2,6.6-4.1,10.2-5.5c0,0-3.1-12.9,7.2-15.5c10.9-1.6,12,14.6,12,15.5
	c12.9,5.1,13,12,13,12s0.7,3.1,3,10.5s2.4,17.1,2.4,17.1s0.6,3.4-2.6,4.2c4.8,5.1,6.8,17.3,7,17.6c0.8,0.5,1.3,1.3,1.5,2.2
	c1,2,3.2,3.9,3.4,4.2c0.5,1.1,0.1,1.7-0.2,1.8c0.1,0.4-0.1,0.8-0.5,1c0,0,1,1.5,0.2,1.8c0.4,0.2,0.6,0.6,0.5,1
	c0.1,0.5-0.9,0.9-1.1,0.7c-0.3,0.5-1.3,0.7-1.6,0.3c-0.6-0.6-1.1-1.2-1.5-1.9c-0.7-1-1.4-2.1-2-3.2c-1-1.9-2.7-5.7-2.8-6.2
	c-0.1-0.6-0.3-1.2-0.5-1.7c-1-1.2-2.2-2.3-3.4-3.4c-1.7-1.4-7-7.7-7-7.7c-0.8-0.3-1.6-0.7-2.3-1.1l-3.7,1.3c2.4,9.8-0.4,12.9-1,15.7
	c-0.3,3.1-0.9,6.2-1.9,9.1c-0.5,1.3-2,5.3-2.1,6.1c0.1,1.9,0.4,3.7,0.8,5.6c0.2,0.8,1.2,4.3,1.5,4.8s2.2,1.3,2.6,2s-0.4,1.2-0.3,1.7
	c0.9,3.2-1.8,2.3-1.8,2.3s-1.3,0.6-1.8,0c-0.6,0.1-1.2,0-1.8-0.2c0,0-1.2,0.2-1.6-0.5c-0.8,0.1-1.5-0.2-2.1-0.8
	c-0.7-0.8-1.2-1.8-1.3-2.9c0.1-0.6,0-1,0.2-1.8s0.7-2.5,0.5-3c-0.4-0.8-0.6-1.6-0.8-2.5c0-0.8,0.6-2.2,0.5-2.8
	c-0.1-2.8-3.3-12.7-2.8-15.8s2.5-6,2.6-6.4c0.2-2.3-2.2-6.8-2.2-6.8s-5,2.3-6.4,2.4c-2.5,2.2-3.2,0.3-3.2,0.3s-1.2,0-1.4-0.9
	c-0.4-0.1-0.8-0.4-0.9-0.8c0,0-0.6-0.7-0.4-1.2c-0.8-1.2-0.9-2.6-0.3-3.1l2.2-1.7c0,0-1.6-2-0.8-2.7s1.6,1.9,3,1.6s3.1-0.5,3.6-0.7
	C72.8,62,61.7,50.7,62.4,39c0.1-1.4,0.4-2.7,1-4c-0.5-0.1-0.9,0-1.3,0.2c-1.7,3.5-12,16-12,16.8c1,2.4,2,11,5.7,15.8
	c1.8,0,4.5-0.7,5.5-0.3s4.6,3.8,4.6,3.8s1,1.2,0.1,1.3S63,71.6,63,71.6s3.8,4.8,1.9,5.6c1.1,2.3-0.9,1.8-0.9,1.8s-0.2,1.5-1.9,0.2
	c-1.4,0.8-5.2-2-6.2-2.2c-1.8-0.7-3.4-1.9-4.4-3.6c0,0-2-3-2.5-4.2c-2.9-4.5-5.9-12.4-7-15C41.3,52.3,41.4,50.3,42.4,48.6z"/>
<path class="st0" d="M42.4,48.6c0,0,13.8-23.5,17.8-26.5c3.2-2.2,6.6-4.1,10.2-5.5c0,0-3.1-12.9,7.2-15.5c10.9-1.6,12,14.6,12,15.5
	c12.9,5.1,13,12,13,12s0.7,3.1,3,10.5s2.4,17.1,2.4,17.1s0.6,3.4-2.6,4.2c4.8,5.1,6.8,17.3,7,17.6c0.8,0.5,1.3,1.3,1.5,2.2
	c1,2,3.2,3.9,3.4,4.2c0.5,1.1,0.1,1.7-0.2,1.8c0.1,0.4-0.1,0.8-0.5,1c0,0,1,1.5,0.2,1.8c0.4,0.2,0.6,0.6,0.5,1
	c0.1,0.5-0.9,0.9-1.1,0.7c-0.3,0.5-1.3,0.7-1.6,0.3c-0.6-0.6-1.1-1.2-1.5-1.9c-0.7-1-1.4-2.1-2-3.2c-1-1.9-2.7-5.7-2.8-6.2
	c-0.1-0.6-0.3-1.2-0.5-1.7c-1-1.2-2.2-2.3-3.4-3.4c-1.7-1.4-7-7.7-7-7.7c-0.8-0.3-1.6-0.7-2.3-1.1l-3.7,1.3c2.4,9.8-0.4,12.9-1,15.7
	c-0.3,3.1-0.9,6.2-1.9,9.1c-0.5,1.3-2,5.3-2.1,6.1c0.1,1.9,0.4,3.7,0.8,5.6c0.2,0.8,1.2,4.3,1.5,4.8s2.2,1.3,2.6,2s-0.4,1.2-0.3,1.7
	c0.9,3.2-1.8,2.3-1.8,2.3s-1.3,0.6-1.8,0c-0.6,0.1-1.2,0-1.8-0.2c0,0-1.2,0.2-1.6-0.5c-0.8,0.1-1.5-0.2-2.1-0.8
	c-0.7-0.8-1.2-1.8-1.3-2.9c0.1-0.6,0-1,0.2-1.8s0.7-2.5,0.5-3c-0.4-0.8-0.6-1.6-0.8-2.5c0-0.8,0.6-2.2,0.5-2.8
	c-0.1-2.8-3.3-12.7-2.8-15.8s2.5-6,2.6-6.4c0.2-2.3-2.2-6.8-2.2-6.8s-5,2.3-6.4,2.4c-2.5,2.2-3.2,0.3-3.2,0.3s-1.2,0-1.4-0.9
	c-0.4-0.1-0.8-0.4-0.9-0.8c0,0-0.6-0.7-0.4-1.2c-0.8-1.2-0.9-2.6-0.3-3.1l2.2-1.7c0,0-1.6-2-0.8-2.7s1.6,1.9,3,1.6s3.1-0.5,3.6-0.7
	C72.8,62,61.7,50.7,62.4,39c0.1-1.4,0.4-2.7,1-4c-0.5-0.1-0.9,0-1.3,0.2c-1.7,3.5-12,16-12,16.8c1,2.4,2,11,5.7,15.8
	c1.8,0,4.5-0.7,5.5-0.3s4.6,3.8,4.6,3.8s1,1.2,0.1,1.3S63,71.6,63,71.6s3.8,4.8,1.9,5.6c1.1,2.3-0.9,1.8-0.9,1.8s-0.2,1.5-1.9,0.2
	c-1.4,0.8-5.2-2-6.2-2.2c-1.8-0.7-3.4-1.9-4.4-3.6c0,0-2-3-2.5-4.2c-2.9-4.5-5.9-12.4-7-15C41.3,52.3,41.4,50.3,42.4,48.6z"/>
<path class="st2" d="M85.6,55.2c-0.8-0.8,3.7,4.8,3.7,4.8L88,60.5C88,60.5,86.4,56,85.6,55.2z"/>
<path class="st2" d="M95.1,35.2c-0.1,9.2,3.8,16.4,3.7,17.8c-0.6,1-6.1,5-9.4,7.1c-0.4,0.2-0.9,0.4-1.3,0.6
	c-3.7,1.7-10.5,4.6-14.3,3.9"/>
<path class="st2" d="M78.4,71.2c3.3-1.9,13-3.9,13-3.9"/>
<path class="st2" d="M70.4,16.6c0,0,2.2,13.8,9.6,13.8c9.6,0,9.6-13.8,9.6-13.8"/>
<path class="st2" d="M95.1,66c0,0,8.6-3,10.3-5.5"/>
</svg>
