<?xml version="1.0" encoding="utf-8"?>
<!-- Generator: Adobe Illustrator 22.0.1, SVG Export Plug-In . SVG Version: 6.00 Build 0)  -->
<svg version="1.1" id="Layer_1" xmlns="http://www.w3.org/2000/svg" xmlns:xlink="http://www.w3.org/1999/xlink" x="0px" y="0px"
	 viewBox="0 0 149.2 189.3" style="enable-background:new 0 0 149.2 189.3;" xml:space="preserve">
<style type="text/css">
	.st0{fill:#EB5858;}
	.st1{fill:#EB5858;stroke:#FFFFFF;stroke-width:2;stroke-miterlimit:10;}
	.st2{fill:none;stroke:#FFFFFF;stroke-width:0.5;stroke-miterlimit:10;}
</style>
<title>posterormedial_reach</title>
<path class="st0" d="M3.7,189.1c0.5-0.5,22-25.9,39-46.1l12.5,1.9l4.5-6.2v-4.4l-8.6-1.2l10.6-12.6l5.1,0.5l3.1-4l4.7,0.4l23-4.8
	l6.1,3.6l9.8-2.1v-3.6l-1.7-0.9l36.8-7.7c0.7-0.8,0.7-1.9,0-2.7c-0.5,0-21.9,4.1-41.5,7.8l-6.8-3.8l-9.1,1.9l-0.3,3.5l1.8,1.1
	l-17.4,3.3l-2.3-0.2l4.1-5.3v-3l-11.1-1.3l-7.2,8.3l-2.8-0.3L32.1,92.3l4.9-0.8v-3.2l-3.1-2.4l-8.4,1.3l-8.1-6.3c0,0-2.5,0-1.8,2.2
	l5.8,4.8l-4.9,0.8v3.2l3.3,2.5l7.9-1.2l27.6,22.8v4l2.2,0.2l-10.8,12.4L34,130.5l-5.8,6.1v4.2l9.8,1.5L0.2,185.9
	C-0.9,187.9,3.1,189.9,3.7,189.1z"/>
<path class="st1" d="M107.3,54.1c-1.1,2.6-4.1,10.5-7,15c-0.5,1.2-2.5,4.2-2.5,4.2c-1,1.7-2.5,2.9-4.4,3.6c-1,0.2-4.9,3-6.2,2.2
	c-1.8,1.3-1.9-0.2-1.9-0.2s-2,0.5-0.9-1.8c-1.9-0.9,1.9-5.6,1.9-5.6s-1.9,1.2-2.8,1.1s0.1-1.3,0.1-1.3s3.7-3.4,4.6-3.8
	s3.6,0.3,5.5,0.3c3.7-4.8,4.7-13.4,5.7-15.8c0-0.8-10.3-13.3-12-16.8C86.9,35,86.4,34.9,86,35c0.6,1.3,0.9,2.6,1,4
	c0.6,11.8-10.5,23-11.5,25.5c0.5,0.2,2.2,0.4,3.6,0.7s2.2-2.3,3-1.6s-0.8,2.7-0.8,2.7l2.2,1.7c0.6,0.5,0.5,1.9-0.3,3.1
	c0.2,0.5-0.4,1.2-0.4,1.2c-0.1,0.4-0.5,0.7-0.9,0.8C81.7,74,80.5,74,80.5,74s-0.8,1.9-3.2-0.3c-1.4-0.1-6.4-2.4-6.4-2.4
	s-2.4,4.4-2.2,6.8c0.1,0.4,2.1,3.3,2.6,6.4s-2.7,13-2.8,15.8c-0.1,0.6,0.5,2,0.5,2.8c-0.2,0.8-0.4,1.7-0.8,2.5
	c-0.2,0.5,0.3,2.2,0.5,3s0.1,1.1,0.2,1.8c-0.1,1.1-0.6,2.1-1.3,2.9c-0.6,0.5-1.3,0.8-2.1,0.8c-0.3,0.7-1.6,0.5-1.6,0.5
	c-0.6,0.3-1.2,0.4-1.8,0.2c-0.5,0.6-1.8,0-1.8,0s-2.7,0.8-1.8-2.3c0-0.5-0.7-1-0.3-1.7s2.3-1.5,2.6-2s1.2-4.1,1.5-4.8
	c0.4-1.8,0.7-3.7,0.8-5.6c-0.1-0.8-1.6-4.8-2.1-6.1c-1-3-1.6-6-1.9-9.1c-0.6-2.8-3.4-5.9-1-15.7L54.2,66c-0.7,0.4-1.5,0.8-2.3,1.1
	c0,0-5.3,6.3-7,7.7c-1.2,1-2.3,2.2-3.4,3.4c-0.2,0.5-0.4,1.1-0.5,1.7c-0.1,0.5-1.8,4.3-2.8,6.2c-0.6,1.1-1.3,2.2-2,3.2
	c-0.5,0.7-1,1.3-1.5,1.9c-0.3,0.4-1.3,0.2-1.6-0.3c-0.2,0.2-1.2-0.2-1.1-0.7c0-0.4,0.2-0.8,0.5-1c-0.8-0.4,0.2-1.8,0.2-1.8
	c-0.4-0.2-0.6-0.6-0.5-1c-0.4-0.1-0.8-0.7-0.2-1.8c0.2-0.4,2.4-2.2,3.4-4.2c0.2-0.9,0.7-1.7,1.5-2.2c0.2-0.4,2.2-12.5,7-17.6
	c-3.2-0.9-2.6-4.2-2.6-4.2s0-9.7,2.4-17.1s3-10.5,3-10.5s0.1-6.9,13-12c0-0.9,1.1-17.1,12-15.5c10.3,2.6,7.2,15.5,7.2,15.5
	c3.6,1.4,7.1,3.3,10.2,5.5c3.9,3,17.8,26.5,17.8,26.5C107.9,50.3,108,52.3,107.3,54.1z"/>
<path class="st0" d="M107.3,54.1c-1.1,2.6-4.1,10.5-7,15c-0.5,1.2-2.5,4.2-2.5,4.2c-1,1.7-2.5,2.9-4.4,3.6c-1,0.2-4.9,3-6.2,2.2
	c-1.8,1.3-1.9-0.2-1.9-0.2s-2,0.5-0.9-1.8c-1.9-0.9,1.9-5.6,1.9-5.6s-1.9,1.2-2.8,1.1s0.1-1.3,0.1-1.3s3.7-3.4,4.6-3.8
	s3.6,0.3,5.5,0.3c3.7-4.8,4.7-13.4,5.7-15.8c0-0.8-10.3-13.3-12-16.8C86.9,35,86.4,34.9,86,35c0.6,1.3,0.9,2.6,1,4
	c0.6,11.8-10.5,23-11.5,25.5c0.5,0.2,2.2,0.4,3.6,0.7s2.2-2.3,3-1.6s-0.8,2.7-0.8,2.7l2.2,1.7c0.6,0.5,0.5,1.9-0.3,3.1
	c0.2,0.5-0.4,1.2-0.4,1.2c-0.1,0.4-0.5,0.7-0.9,0.8C81.7,74,80.5,74,80.5,74s-0.8,1.9-3.2-0.3c-1.4-0.1-6.4-2.4-6.4-2.4
	s-2.4,4.4-2.2,6.8c0.1,0.4,2.1,3.3,2.6,6.4s-2.7,13-2.8,15.8c-0.1,0.6,0.5,2,0.5,2.8c-0.2,0.8-0.4,1.7-0.8,2.5
	c-0.2,0.5,0.3,2.2,0.5,3s0.1,1.1,0.2,1.8c-0.1,1.1-0.6,2.1-1.3,2.9c-0.6,0.5-1.3,0.8-2.1,0.8c-0.3,0.7-1.6,0.5-1.6,0.5
	c-0.6,0.3-1.2,0.4-1.8,0.2c-0.5,0.6-1.8,0-1.8,0s-2.7,0.8-1.8-2.3c0-0.5-0.7-1-0.3-1.7s2.3-1.5,2.6-2s1.2-4.1,1.5-4.8
	c0.4-1.8,0.7-3.7,0.8-5.6c-0.1-0.8-1.6-4.8-2.1-6.1c-1-3-1.6-6-1.9-9.1c-0.6-2.8-3.4-5.9-1-15.7L54.2,66c-0.7,0.4-1.5,0.8-2.3,1.1
	c0,0-5.3,6.3-7,7.7c-1.2,1-2.3,2.2-3.4,3.4c-0.2,0.5-0.4,1.1-0.5,1.7c-0.1,0.5-1.8,4.3-2.8,6.2c-0.6,1.1-1.3,2.2-2,3.2
	c-0.5,0.7-1,1.3-1.5,1.9c-0.3,0.4-1.3,0.2-1.6-0.3c-0.2,0.2-1.2-0.2-1.1-0.7c0-0.4,0.2-0.8,0.5-1c-0.8-0.4,0.2-1.8,0.2-1.8
	c-0.4-0.2-0.6-0.6-0.5-1c-0.4-0.1-0.8-0.7-0.2-1.8c0.2-0.4,2.4-2.2,3.4-4.2c0.2-0.9,0.7-1.7,1.5-2.2c0.2-0.4,2.2-12.5,7-17.6
	c-3.2-0.9-2.6-4.2-2.6-4.2s0-9.7,2.4-17.1s3-10.5,3-10.5s0.1-6.9,13-12c0-0.9,1.1-17.1,12-15.5c10.3,2.6,7.2,15.5,7.2,15.5
	c3.6,1.4,7.1,3.3,10.2,5.5c3.9,3,17.8,26.5,17.8,26.5C107.9,50.3,108,52.3,107.3,54.1z"/>
<path class="st2" d="M61.3,60.5L60,60c0,0,4.4-5.6,3.7-4.8C62.9,56,61.3,60.5,61.3,60.5z"/>
<path class="st2" d="M75.6,64.4c-3.8,0.7-10.6-2.1-14.3-3.9c-0.5-0.1-0.9-0.3-1.3-0.6c-3.3-2.1-8.9-6.1-9.4-7.1
	c-0.1-1.4,3.8-8.6,3.7-17.8"/>
<path class="st2" d="M57.9,67.3c0,0,9.7,1.9,13,3.9"/>
<path class="st2" d="M59.7,16.6c0,0,0,13.8,9.6,13.8c7.4,0,9.6-13.8,9.6-13.8"/>
<path class="st2" d="M43.9,60.5C45.6,63,54.2,66,54.2,66"/>
</svg>
