<?xml version="1.0" encoding="utf-8"?>
<!-- Generator: Adobe Illustrator 22.0.1, SVG Export Plug-In . SVG Version: 6.00 Build 0)  -->
<svg version="1.1" id="Layer_1" xmlns="http://www.w3.org/2000/svg" xmlns:xlink="http://www.w3.org/1999/xlink" x="0px" y="0px"
	 viewBox="0 0 37 119.1" style="enable-background:new 0 0 37 119.1;" xml:space="preserve">
<style type="text/css">
	.st0{fill:#FBDEDE;stroke:#EB5858;stroke-width:0.5;stroke-miterlimit:10;}
	.st1{fill:#FFFFFF;stroke:#EB5858;stroke-miterlimit:10;}
	.st2{fill:#FBDEDE;}
</style>
<title>carry_screen</title>
<path class="st0" d="M3.8,69.5c4.2-2.4,8.8-3.8,13.6-4.1c4.5-0.2,9.1,0.4,13.3,2c1.3,0.9,2.3,2.2,2.9,3.7c0.7,2.2,0.7,6.1,0.7,8.4
	s-4.1,4.1-4.1,4.1S9.2,84.5,7,84.5c-1.4,0.1-2.8-0.4-3.9-1.4c-1.4-1.2-1.4-5.7-1.4-6.9C1.7,71,3.8,69.5,3.8,69.5z"/>
<path class="st1" d="M26.2,22.3c0,0,5.6,4.3,5.2,13.2c0,2.5-1.4,12.1-1.6,14l-1,10.2c0.2,0.6,0.3,1.2,0.3,1.8
	c-0.1,0.5-1.8,0.9-1.8,0.9s-3.1,19.5-3.4,20s-3.4,0.8-3.4,0.8s-1.3,8.9-1.3,10.2v7.6c0,0,1.6-0.5,2,0c0.2,0.4,0.2,0.9,0.1,1.3
	c0,0,2.6,2.2,3.7,2.4l3.8,0.8c0,0,1,0.3,0.8,1.2c-0.3,2.1-3.6,2.2-3.6,2.2h-6.2c0,0,1,1,1,1.9c0.5,0.9,4.1,2.2,4.1,2.2
	s3.7,0.9,4,1.3c0.3,0.7,0.1,1.4-0.4,1.9c-1,1.9-4,2.2-4.7,2.2c-2.3,0-5.6-1-7-1.2c-1.6-0.1-3.2-0.3-4.8-0.6
	c-0.9-0.2-1.5-0.9-1.7-1.8c0.3-1.3,0.7-2.5,1.2-3.7c-0.2-0.6-0.2-1.3-0.2-2c0.2-0.5,1-0.2,1-0.2s-1-7.8-1.2-9.2s-1.2-5.3-0.9-8.1
	l0.8-8.3c0,0-0.5,0-0.8-0.2s0-10.5,0-12.2S8,62.5,8,58.5c-0.1-2.5,0.4-5,1.4-7.2c0.5-1.1,1.2-2.2,2-3.1c0,0,0.7-2.7,0.9-3.8
	c0-2.3-0.2-4.6-0.5-6.9c-0.2-2.7-0.2-5.5,0.2-8.2c-0.3-1.3-0.3-2.6,0-3.9c0.5-1.4,1.4-2.8,2.5-3.8c0.6-1.2,1.3-2.3,2.1-3.3l0.8-0.5
	c0.1-1.7,0.1-3.4-0.2-5.1c-4-3.5-2.9-7.1-2.9-7.1s1.2-5.2,6.6-5.2s7.3,3.6,7.3,5.8c0,0.5-0.1,1-0.3,1.4c0,0,1.6,1.8,1.7,2.2
	s-0.8,0.9-0.8,0.9s-0.2,2-0.2,2.5s0.3,1.1,0.2,1.7c-0.4,1.3-3.2,1.6-3.2,1.6L25.3,20c0.3,0.2,0.6,0.6,0.8,0.9
	C26.2,21.4,26.3,21.9,26.2,22.3z"/>
<path class="st2" d="M26.2,22.3c0,0,5.6,4.3,5.2,13.2c0,2.5-1.4,12.1-1.6,14l-1,10.2c0.2,0.6,0.3,1.2,0.3,1.8
	c-0.1,0.5-1.8,0.9-1.8,0.9s-3.1,19.5-3.4,20s-3.4,0.8-3.4,0.8s-1.3,8.9-1.3,10.2v7.6c0,0,1.6-0.5,2,0c0.2,0.4,0.2,0.9,0.1,1.3
	c0,0,2.6,2.2,3.7,2.4l3.8,0.8c0,0,1,0.3,0.8,1.2c-0.3,2.1-3.6,2.2-3.6,2.2h-6.2c0,0,1,1,1,1.9c0.5,0.9,4.1,2.2,4.1,2.2
	s3.7,0.9,4,1.3c0.3,0.7,0.1,1.4-0.4,1.9c-1,1.9-4,2.2-4.7,2.2c-2.3,0-5.6-1-7-1.2c-1.6-0.1-3.2-0.3-4.8-0.6
	c-0.9-0.2-1.5-0.9-1.7-1.8c0.3-1.3,0.7-2.5,1.2-3.7c-0.2-0.6-0.2-1.3-0.2-2c0.2-0.5,1-0.2,1-0.2s-1-7.8-1.2-9.2s-1.2-5.3-0.9-8.1
	l0.8-8.3c0,0-0.5,0-0.8-0.2s0-10.5,0-12.2S8,62.5,8,58.5c-0.1-2.5,0.4-5,1.4-7.2c0.5-1.1,1.2-2.2,2-3.1c0,0,0.7-2.7,0.9-3.8
	c0-2.3-0.2-4.6-0.5-6.9c-0.2-2.7-0.2-5.5,0.2-8.2c-0.3-1.3-0.3-2.6,0-3.9c0.5-1.4,1.4-2.8,2.5-3.8c0.6-1.2,1.3-2.3,2.1-3.3l0.8-0.5
	c0.1-1.7,0.1-3.4-0.2-5.1c-4-3.5-2.9-7.1-2.9-7.1s1.2-5.2,6.6-5.2s7.3,3.6,7.3,5.8c0,0.5-0.1,1-0.3,1.4c0,0,1.6,1.8,1.7,2.2
	s-0.8,0.9-0.8,0.9s-0.2,2-0.2,2.5s0.3,1.1,0.2,1.7c-0.4,1.3-3.2,1.6-3.2,1.6L25.3,20c0.3,0.2,0.6,0.6,0.8,0.9
	C26.2,21.4,26.3,21.9,26.2,22.3z"/>
<path class="st0" d="M36.1,76.8c-0.6-1.7-1.8-3.1-3.2-4.1c-2.7-1-5.5-1.7-8.3-2l-1.2-5.4l-8.8,0.3l-1,5.4C9.7,71.7,6,73.1,2.5,75
	c0,0-2.3,1.8-2.3,7.6c0,1.4,0,6.4,1.6,7.8C3,91.5,4.6,92.1,6.2,92c2.5,0,26.1-1,26.1-1s4.7-2.1,4.7-4.7S36.9,79.3,36.1,76.8z
	 M17.8,70.4c-0.8,0-1.6,0.1-2.4,0.2l0.6-2.8l6.1-0.2l0.7,2.8C21.1,70.4,19.5,70.3,17.8,70.4z"/>
<path class="st0" d="M12.5,34.2l9.3,1.6c0,0-0.2,6-1.5,7.5c0.5,2.2,0.8,4.4,0.8,6.7c0.1,3.7-1.4,8.6-0.7,10.7c0.3,1,2.3,2.3,2.6,3
	c0.2,1,0.2,2,0,2.9c-0.1,0.6-1.1,1.6-1.5,2.1s-1.8,0-1.8,0c-0.5,0.1-0.9,0.1-1.4,0c-0.6,0.4-1.9,0-1.9,0S15,68.3,15,67.8
	s-0.3-4.1,0-4.8s0.8-1.2,0.8-1.6s-0.2-3.8-0.3-4.8s-1.2-4.1-1-6.3c0.1-1.9,0.3-5,0.2-6.1S14.4,40,14.4,39
	C13.5,37.6,12.8,35.9,12.5,34.2z"/>
</svg>
