<svg id="Layer_1" data-name="Layer 1" xmlns="http://www.w3.org/2000/svg" viewBox="0 0 37 119.08"><defs><style>.cls-1,.cls-2,.cls-3{fill:#eb5858;}.cls-1,.cls-2{stroke:#fff;stroke-miterlimit:10;}.cls-1{stroke-width:0.25px;}</style></defs><title>carry_screen</title><path class="cls-1" d="M633.47,671.53a31.38,31.38,0,0,1,13.59-4.06,33.4,33.4,0,0,1,13.32,2,7.67,7.67,0,0,1,2.88,3.65c.66,2.21.66,6.12.66,8.41s-4.13,4.13-4.13,4.13-20.87.88-23.08.88a5.6,5.6,0,0,1-3.91-1.4c-1.4-1.25-1.4-5.69-1.4-6.93C631.4,673.08,633.47,671.53,633.47,671.53Z" transform="translate(-629.71 -602.08)"/><path class="cls-2" d="M655.92,624.42s5.58,4.3,5.17,13.25c0,2.49-1.4,12.13-1.58,14l-1,10.25a5.39,5.39,0,0,1,.33,1.83c-.11.53-1.83.92-1.83.92s-3.11,19.45-3.42,20-3.42.75-3.42.75-1.33,8.91-1.33,10.17v7.58s1.61-.49,2,0a1.62,1.62,0,0,1,.08,1.33s2.57,2.2,3.67,2.42l3.83.75s1,.31.83,1.17c-.31,2.1-3.58,2.17-3.58,2.17h-6.25s1,1.05,1,1.92c.52.86,4.08,2.25,4.08,2.25s3.69.86,4,1.33a1.8,1.8,0,0,1-.42,1.92c-1.05,1.93-4,2.25-4.67,2.25-2.35,0-5.57-1-7-1.17a30.29,30.29,0,0,1-4.75-.58,2.31,2.31,0,0,1-1.67-1.83,17.81,17.81,0,0,1,1.25-3.67,5,5,0,0,1-.17-2c.23-.45,1-.17,1-.17s-1-7.78-1.17-9.17-1.16-5.34-.92-8.08l.75-8.33s-.53,0-.75-.25,0-10.55,0-12.25-2.17-8.39-2.17-12.42a16.45,16.45,0,0,1,1.42-7.25,13.35,13.35,0,0,1,2-3.08s.74-2.66.92-3.83a51.66,51.66,0,0,0-.5-6.92,42.22,42.22,0,0,1,.17-8.17,7.77,7.77,0,0,1,0-3.92,10.43,10.43,0,0,1,2.5-3.83,28.94,28.94,0,0,1,2.08-3.33l.75-.5a25.44,25.44,0,0,0-.17-5.08c-4-3.46-2.92-7.08-2.92-7.08s1.25-5.17,6.58-5.17,7.33,3.64,7.33,5.75a3.51,3.51,0,0,1-.33,1.42s1.63,1.75,1.67,2.25-.83.92-.83.92-.21,2-.17,2.5.35,1.09.17,1.67c-.37,1.29-3.17,1.58-3.17,1.58l-.33,3.42a2.81,2.81,0,0,1,.83.92A3.73,3.73,0,0,1,655.92,624.42Z" transform="translate(-629.71 -602.08)"/><path class="cls-3" d="M655.92,624.42s5.58,4.3,5.17,13.25c0,2.49-1.4,12.13-1.58,14l-1,10.25a5.39,5.39,0,0,1,.33,1.83c-.11.53-1.83.92-1.83.92s-3.11,19.45-3.42,20-3.42.75-3.42.75-1.33,8.91-1.33,10.17v7.58s1.61-.49,2,0a1.62,1.62,0,0,1,.08,1.33s2.57,2.2,3.67,2.42l3.83.75s1,.31.83,1.17c-.31,2.1-3.58,2.17-3.58,2.17h-6.25s1,1.05,1,1.92c.52.86,4.08,2.25,4.08,2.25s3.69.86,4,1.33a1.8,1.8,0,0,1-.42,1.92c-1.05,1.93-4,2.25-4.67,2.25-2.35,0-5.57-1-7-1.17a30.29,30.29,0,0,1-4.75-.58,2.31,2.31,0,0,1-1.67-1.83,17.81,17.81,0,0,1,1.25-3.67,5,5,0,0,1-.17-2c.23-.45,1-.17,1-.17s-1-7.78-1.17-9.17-1.16-5.34-.92-8.08l.75-8.33s-.53,0-.75-.25,0-10.55,0-12.25-2.17-8.39-2.17-12.42a16.45,16.45,0,0,1,1.42-7.25,13.35,13.35,0,0,1,2-3.08s.74-2.66.92-3.83a51.66,51.66,0,0,0-.5-6.92,42.22,42.22,0,0,1,.17-8.17,7.77,7.77,0,0,1,0-3.92,10.43,10.43,0,0,1,2.5-3.83,28.94,28.94,0,0,1,2.08-3.33l.75-.5a25.44,25.44,0,0,0-.17-5.08c-4-3.46-2.92-7.08-2.92-7.08s1.25-5.17,6.58-5.17,7.33,3.64,7.33,5.75a3.51,3.51,0,0,1-.33,1.42s1.63,1.75,1.67,2.25-.83.92-.83.92-.21,2-.17,2.5.35,1.09.17,1.67c-.37,1.29-3.17,1.58-3.17,1.58l-.33,3.42a2.81,2.81,0,0,1,.83.92A3.73,3.73,0,0,1,655.92,624.42Z" transform="translate(-629.71 -602.08)"/><path class="cls-1" d="M665.83,678.92a8.67,8.67,0,0,0-3.25-4.12,34.92,34.92,0,0,0-8.35-2l-1.15-5.44-8.83.33-1,5.36a35.72,35.72,0,0,0-11,4.06s-2.33,1.75-2.33,7.58c0,1.4,0,6.42,1.58,7.83a6.33,6.33,0,0,0,4.42,1.58c2.5,0,26.08-1,26.08-1s4.67-2.08,4.67-4.67S666.58,681.42,665.83,678.92Zm-18.31-6.42c-.82,0-1.62.12-2.41.22l.63-2.81,6.08-.17.68,2.84A38.36,38.36,0,0,0,647.52,672.5Z" transform="translate(-629.71 -602.08)"/><path class="cls-1" d="M642.17,636.25l9.33,1.58s-.25,6-1.5,7.5a37.5,37.5,0,0,1,.83,6.67c.13,3.67-1.36,8.63-.67,10.67.29,1,2.33,2.33,2.58,3a8.57,8.57,0,0,1,0,2.92c-.08.58-1.08,1.58-1.5,2.08s-1.78,0-1.78,0a2.38,2.38,0,0,1-1.39,0c-.56.42-1.92,0-1.92,0s-1.42-.29-1.42-.75-.3-4.11,0-4.75.78-1.17.75-1.58-.19-3.84-.33-4.75-1.17-4.08-1-6.33c.08-1.88.32-5,.25-6.08s-.29-4.21-.33-5.25A17.38,17.38,0,0,1,642.17,636.25Z" transform="translate(-629.71 -602.08)"/></svg>