<?xml version="1.0" encoding="utf-8"?>
<!-- Generator: Adobe Illustrator 22.0.1, SVG Export Plug-In . SVG Version: 6.00 Build 0)  -->
<svg version="1.1" id="Layer_2_1_" xmlns="http://www.w3.org/2000/svg" xmlns:xlink="http://www.w3.org/1999/xlink" x="0px" y="0px"
	 viewBox="0 0 489.5 489.5" style="enable-background:new 0 0 489.5 489.5;" xml:space="preserve">
<style type="text/css">
	.st0{fill:#EB5858;}
</style>
<path class="st0" d="M308.9,140.5c0-1.2-1-3.5-1-3.5l-5.7-23.5c0,0-1.4-5.2-5.2-14.5c-3.8-9.2-10-11.8-10-11.8l-29.3-11.6
	c0,0-6-3.9-6.8-6.2c-0.8-2.3-1-4.3-0.7-6.9s4.4-7.8,4.6-11.8c2.4-0.1,4.9-5.6,5.6-7.9s1.7-7.3,0.7-8.4c-1-1.1-2.5,0-2.5,0
	s1.6-12.9-2.8-22.4c-4-8.3-13.3-10.4-17-10.8c-3.8,0.5-13,2.5-17,10.8c-4.4,9.5-2.8,22.4-2.8,22.4s-1.5-1.1-2.5,0
	c-1,1.1,0,6.1,0.7,8.4s3.2,7.8,5.6,7.9c0.2,4,4.3,9.2,4.6,11.8s0.1,4.6-0.7,6.9c-0.8,2.3-6.8,6.2-6.8,6.2l-29.3,11.6
	c0,0-6.2,2.6-10,11.8c-3.8,9.3-5.2,14.5-5.2,14.5l-5.7,23.5c0,0-1,2.3-1,3.5s7.7,3,7.7,3l0.5,23.7l-1.1,20.3c0,0-1.5,9-1.3,15.7
	c0.2,6.6,1.1,25.1,1.3,28.8c0.1,3.7-0.1,15-0.1,15v5.1c0,0-3.1,10.1-3.1,15.5c0,5.5,2.4,14.7,2.4,14.7s2.7,3.8,4,4s2-0.8,2-0.8
	l3.2,2.3c0,0-1.7,5.6-0.8,7.3s13.7,6,13.7,6s2.8,12.8,3.8,17c0.9,4.2,2.3,20.8,2.3,20.8l-1,9c0,0-1.1,25.8,5.2,47.8
	c4,15.3,12,38,12,38l-0.5,7.3c0,0-1.8,1.5-2.2,3.8s-0.7,11.8-0.7,11.8s-4.5,13.3-5.3,18.7c-0.8,5.4,1,8,1,8s6.5,4.5,14.2,4.5
	c5.4,0,10.4-1.5,12.9-2.3c2.6,0.9,7.6,2.3,12.9,2.3c7.7,0,14.2-4.5,14.2-4.5s1.8-2.6,1-8c-0.8-5.4-5.3-18.7-5.3-18.7
	s-0.3-9.5-0.7-11.8s-2.2-3.8-2.2-3.8l-0.5-7.3c0,0,8-22.7,12-38c6.3-22,5.2-47.8,5.2-47.8l-1-9c0,0,1.4-16.6,2.3-20.8
	c1-4.2,3.8-17,3.8-17s12.8-4.3,13.7-6s-0.8-7.3-0.8-7.3l3.2-2.3c0,0,0.7,1,2,0.8s4-4,4-4s2.4-9.2,2.4-14.7c0-5.4-3.1-15.5-3.1-15.5
	V247c0,0-0.2-11.3-0.1-15c0.2-3.7,1.1-22.2,1.3-28.8c0.2-6.7-1.3-15.7-1.3-15.7l-1.1-20.3l0.5-23.7
	C301.2,143.5,308.9,141.7,308.9,140.5z M199,177.1c0.8,0.6,0,1.8,0,1.8s-1.7,2.9-1.4,5.6c-2,0.7-2.6,2.9-2.6,2.9s1-3.8,1.1-6.9
	c0.1-3.1,1.5-21.9,1.5-21.9s1.4,4.4,1.6,6.4c-0.4,1.3,0.4,5,0.4,5S197.3,175.5,199,177.1z M245.5,413.9c-0.4,7.3-0.9,12.1-1.3,16.4
	c-0.4,4.3-2.5,7.2-2.5,7.2l-2.9,4.7l-2.9-4.7c0,0-2.1-2.9-2.5-7.2c-0.4-4.3-0.9-9.1-1.3-16.4s0.9-25.3,0-34.9
	c-0.9-9.6-2.1-21.9-2.1-21.9s2.5-16.1,2.7-19c0.2-2.9,0.9-8.1,0.9-14.1s0-22,0-22s0.6-1.1,1.5-3.9c0.9-2.8,0.8-7.8,0.8-7.8l1.8-4
	c0,0,0.6,2.3,1.1,4.3c0.6-2,1.1-4.3,1.1-4.3l1.8,4c0,0-0.1,5,0.8,7.8c0.9,2.8,1.5,3.9,1.5,3.9s0,16,0,22s0.7,11.2,0.9,14.1
	c0.2,2.9,2.7,19,2.7,19s-1.2,12.3-2.1,21.9C244.6,388.6,245.9,406.6,245.5,413.9z M279.9,184.5c0.3-2.7-1.4-5.6-1.4-5.6
	s-0.8-1.2,0-1.8c1.7-1.6-0.6-7.1-0.6-7.1s0.8-3.7,0.4-5c0.2-2,1.6-6.4,1.6-6.4s1.4,18.8,1.5,21.9c0.1,3.1,1.1,6.9,1.1,6.9
	S281.9,185.2,279.9,184.5z"/>
<path class="st0" d="M137.7,28.2c7.5,0,13.5-6,13.5-13.5S145,1.2,137.7,1.2h-72c-7.5,0-13.5,6-13.5,13.5v459.6
	c0,7.5,6,13.5,13.5,13.5h72c7.5,0,13.5-6,13.5-13.5c0-7.5-6-13.5-13.5-13.5H79.2v-37.9h58.4c7.5,0,13.5-6,13.5-13.5
	c0-7.5-6-13.5-13.5-13.5H79.2V356h27.9c7.5,0,13.5-6,13.5-13.5c0-7.5-6-13.5-13.5-13.5H79.2v-37.7h58.4c7.5,0,13.5-6,13.5-13.5
	c0-7.5-6-13.5-13.5-13.5H79.2v-39.7h27.9c7.5,0,13.5-6,13.5-13.5c0-7.5-6-13.5-13.5-13.5H79.2v-37.6h58.4c7.5,0,13.5-6,13.5-13.5
	c0-7.5-6-13.5-13.5-13.5H79.2V92.8h27.9c7.5,0,13.5-6,13.5-13.5s-6-13.5-13.5-13.5H79.2V27.7h58.4V28.2z"/>
</svg>
