<?xml version="1.0" encoding="utf-8"?>
<!-- Generator: Adobe Illustrator 22.0.1, SVG Export Plug-In . SVG Version: 6.00 Build 0)  -->
<svg version="1.1" id="Capa_1" xmlns="http://www.w3.org/2000/svg" xmlns:xlink="http://www.w3.org/1999/xlink" x="0px" y="0px"
	 viewBox="0 0 512 512" style="enable-background:new 0 0 512 512;" xml:space="preserve">
<style type="text/css">
	.st0{fill:#EB5858;}
	.st1{fill:#FAFAFA;}
</style>
<path class="st0" d="M488.5,256l22.5-58.6c2.5-6.5,0.5-13.8-4.9-18.2l-48.7-39.5l-9.9-62c-1.1-6.8-6.5-12.2-13.3-13.3l-62-9.9
	L332.8,5.9c-4.4-5.4-11.8-7.3-18.1-4.9L256,23.6L197.4,1.1c-6.5-2.5-13.8-0.5-18.1,4.9l-39.5,48.7l-62,9.9
	C71,65.6,65.6,71,64.5,77.8l-9.9,62L5.9,179.3c-5.4,4.4-7.3,11.7-4.9,18.1L23.5,256L1.1,314.6c-2.5,6.5-0.5,13.8,4.9,18.1l48.7,39.5
	l9.9,62c1.1,6.8,6.4,12.2,13.3,13.3l62,9.9l39.5,48.7c4.4,5.4,11.7,7.4,18.2,4.9l58.6-22.4l58.6,22.5c1.9,0.7,3.8,1.1,5.7,1.1
	c4.7,0,9.3-2.1,12.4-6l39.5-48.7l62-9.9c6.8-1.1,12.2-6.5,13.3-13.3l9.9-62l48.7-39.5c5.4-4.4,7.3-11.7,4.9-18.1L488.5,256z"/>
<g>
	<path class="st1" d="M208,224c-26.5,0-48-21.5-48-48s21.5-48,48-48s48,21.5,48,48S234.5,224,208,224z M208,160c-8.8,0-16,7.2-16,16
		s7.2,16,16,16s16-7.2,16-16S216.9,160,208,160z"/>
	<path class="st1" d="M304,384c-26.5,0-48-21.5-48-48s21.5-48,48-48s48,21.5,48,48S330.5,384,304,384z M304,320c-8.8,0-16,7.2-16,16
		s7.2,16,16,16s16-7.2,16-16S312.8,320,304,320z"/>
	<path class="st1" d="M176,384c-3.2,0-6.5-1-9.3-3c-7.2-5.2-8.9-15.1-3.7-22.3l160-224c5.2-7.2,15.1-8.9,22.3-3.7
		c7.2,5.1,8.8,15.1,3.7,22.3l-160,224C185.9,381.7,181,384,176,384z"/>
</g>
</svg>
