<?xml version="1.0" encoding="utf-8"?>
<!-- Generator: Adobe Illustrator 22.0.1, SVG Export Plug-In . SVG Version: 6.00 Build 0)  -->
<svg version="1.1" id="Capa_1" xmlns="http://www.w3.org/2000/svg" xmlns:xlink="http://www.w3.org/1999/xlink" x="0px" y="0px"
	 viewBox="0 0 60 60" style="enable-background:new 0 0 60 60;" xml:space="preserve">
<style type="text/css">
	.st0{fill:#EB5858;}
	.st1{fill:#FBDEDE;}
</style>
<circle class="st0" cx="29.9" cy="32.7" r="25.5"/>
<g>
	<path class="st1" d="M32.5,30.6l-12.9-9.4c-0.4-0.3-0.9-0.2-1.3,0.1c-0.3,0.3-0.4,0.9-0.1,1.3l9.4,12.9c0.6,0.8,1.6,1.4,2.6,1.5
		c0.1,0,0.2,0,0.3,0c0.9,0,1.8-0.4,2.5-1c0.7-0.7,1.1-1.8,1-2.8S33.4,31.2,32.5,30.6z M31.5,34.5c-0.3,0.3-0.8,0.5-1.2,0.5
		c-0.5,0-0.9-0.3-1.1-0.6l-5.7-7.9l7.9,5.7c0.4,0.3,0.6,0.7,0.6,1.1C32,33.8,31.9,34.2,31.5,34.5z"/>
	<path class="st1" d="M56.1,26C56.1,26,56.1,26,56.1,26C56.1,26,56.1,26,56.1,26c-0.6-2.3-1.5-4.5-2.7-6.5c0,0,0,0,0-0.1
		c0,0,0,0,0,0c-1-1.7-2.2-3.3-3.6-4.8l2.1-2.1l1.4,1.4l4.2-4.2l-4.2-4.2l-4.2,4.2l1.4,1.4l-2.1,2.1c-1.5-1.4-3.1-2.6-4.8-3.6
		c0,0,0,0,0,0s0,0-0.1,0c-2-1.2-4.2-2.1-6.4-2.7c0,0,0,0,0,0s0,0,0,0c-1.3-0.3-2.6-0.6-4-0.7V5h1.5C35.9,5,37,3.9,37,2.5
		S35.9,0,34.5,0h-9C24.1,0,23,1.1,23,2.5S24.1,5,25.5,5H27v1.2c-1.4,0.2-2.7,0.4-4,0.7c0,0,0,0,0,0c0,0,0,0,0,0
		c-2.3,0.6-4.4,1.5-6.4,2.7c0,0,0,0-0.1,0c0,0,0,0,0,0c-1.7,1-3.3,2.2-4.8,3.6l-2.1-2.1l1.4-1.4L6.7,5.4L2.4,9.7l4.2,4.2l1.4-1.4
		l2.1,2.1c-1.4,1.5-2.6,3.1-3.6,4.8c0,0,0,0,0,0c0,0,0,0,0,0.1c-1.2,2-2.1,4.2-2.7,6.4c0,0,0,0,0,0c0,0,0,0,0,0
		C3.3,28.2,3,30.6,3,33s0.3,4.8,0.9,7c0,0,0,0,0,0c0,0,0,0,0,0c0.6,2.3,1.5,4.4,2.7,6.4c0,0,0,0,0,0.1c0,0,0,0.1,0.1,0.1
		c1.2,2,2.6,3.8,4.2,5.5c0,0,0,0,0,0.1s0,0,0.1,0c1.6,1.6,3.5,3,5.5,4.2c0,0,0,0,0,0c0,0,0.1,0,0.1,0c2,1.1,4.1,2,6.4,2.7
		c0,0,0,0,0,0c0,0,0,0,0,0c2.2,0.6,4.6,0.9,7,0.9s4.7-0.3,7-0.9c0,0,0,0,0,0c0,0,0,0,0,0c2.3-0.6,4.4-1.5,6.4-2.7c0,0,0.1,0,0.1,0
		c0,0,0,0,0,0c2-1.2,3.8-2.6,5.5-4.2c0,0,0,0,0.1,0s0,0,0-0.1c1.6-1.6,3-3.5,4.2-5.5c0,0,0,0,0.1-0.1c0,0,0,0,0-0.1
		c1.2-2,2.1-4.2,2.7-6.4c0,0,0,0,0,0c0,0,0,0,0,0c0.6-2.2,0.9-4.6,0.9-7S56.7,28.2,56.1,26z M53.3,8.3l1.4,1.4l-1.4,1.4l-1.4-1.4
		L53.3,8.3z M5.3,9.7l1.4-1.4l1.4,1.4l-1.4,1.4L5.3,9.7z M52,39.9l1.9,0.5c-0.5,1.5-1,2.9-1.7,4.2l-1.7-1c-0.5-0.3-1.1-0.1-1.4,0.4
		c-0.3,0.5-0.1,1.1,0.4,1.4l1.7,1c-0.8,1.3-1.7,2.5-2.8,3.6L47,48.6c-0.4-0.4-1-0.4-1.4,0s-0.4,1,0,1.4l1.4,1.4
		c-1.1,1-2.3,1.9-3.6,2.8l-1-1.7c-0.3-0.5-0.9-0.6-1.4-0.4c-0.5,0.3-0.6,0.9-0.4,1.4l1,1.7c-1.3,0.7-2.7,1.3-4.2,1.7L36.9,55
		c-0.1-0.5-0.7-0.9-1.2-0.7c-0.5,0.1-0.8,0.7-0.7,1.2l0.5,1.9c-1.5,0.3-3,0.5-4.5,0.6v-2c0-0.6-0.4-1-1-1s-1,0.4-1,1v2
		c-1.5-0.1-3-0.3-4.5-0.6l0.5-1.9c0.1-0.5-0.2-1.1-0.7-1.2c-0.5-0.1-1.1,0.2-1.2,0.7l-0.5,1.9c-1.5-0.5-2.9-1-4.2-1.7l1-1.7
		c0.3-0.5,0.1-1.1-0.4-1.4c-0.5-0.3-1.1-0.1-1.4,0.4l-1,1.7c-1.3-0.8-2.5-1.7-3.6-2.8l1.4-1.4c0.4-0.4,0.4-1,0-1.4s-1-0.4-1.4,0
		l-1.4,1.4c-1-1.1-1.9-2.3-2.8-3.6l1.7-1c0.5-0.3,0.6-0.9,0.4-1.4c-0.3-0.5-0.9-0.6-1.4-0.4l-1.7,1c-0.7-1.3-1.3-2.7-1.7-4.2L8,39.9
		c0.5-0.1,0.9-0.7,0.7-1.2c-0.1-0.5-0.7-0.9-1.2-0.7l-1.9,0.5C5.3,37,5.1,35.5,5,34h2c0.6,0,1-0.4,1-1s-0.4-1-1-1H5
		c0.1-1.5,0.3-3,0.6-4.5L7.5,28c0.1,0,0.2,0,0.3,0c0.4,0,0.8-0.3,1-0.7c0.1-0.5-0.2-1.1-0.7-1.2l-1.9-0.5c0.5-1.5,1-2.9,1.7-4.2
		l1.7,1c0.2,0.1,0.3,0.1,0.5,0.1c0.3,0,0.7-0.2,0.9-0.5c0.3-0.5,0.1-1.1-0.4-1.4l-1.7-1c0.8-1.3,1.7-2.5,2.8-3.6l1.4,1.4
		c0.2,0.2,0.5,0.3,0.7,0.3s0.5-0.1,0.7-0.3c0.4-0.4,0.4-1,0-1.4l-1.4-1.4c1.1-1,2.3-1.9,3.6-2.8l1,1.7c0.2,0.3,0.5,0.5,0.9,0.5
		c0.2,0,0.3,0,0.5-0.1c0.5-0.3,0.6-0.9,0.4-1.4l-1-1.7c1.3-0.7,2.7-1.3,4.2-1.7l0.5,1.9c0.1,0.4,0.5,0.7,1,0.7c0.1,0,0.2,0,0.3,0
		c0.5-0.1,0.9-0.7,0.7-1.2l-0.5-1.9c1.2-0.3,2.4-0.4,3.6-0.5c0.3,0,0.6,0,0.9-0.1c0,0,0,0,0,0v2c0,0.6,0.4,1,1,1s1-0.4,1-1V8
		c0,0,0,0,0,0c0.3,0,0.5,0,0.9,0.1c1.2,0.1,2.4,0.3,3.6,0.5L35,10.5c-0.1,0.5,0.2,1.1,0.7,1.2c0.1,0,0.2,0,0.3,0
		c0.4,0,0.8-0.3,1-0.7l0.5-1.9c1.5,0.5,2.9,1,4.2,1.7l-1,1.7c-0.3,0.5-0.1,1.1,0.4,1.4c0.2,0.1,0.3,0.1,0.5,0.1
		c0.3,0,0.7-0.2,0.9-0.5l1-1.7c1.3,0.8,2.5,1.7,3.6,2.8L45.6,16c-0.4,0.4-0.4,1,0,1.4c0.2,0.2,0.5,0.3,0.7,0.3s0.5-0.1,0.7-0.3
		l1.4-1.4c1,1.1,1.9,2.3,2.8,3.6l-1.7,1c-0.5,0.3-0.6,0.9-0.4,1.4c0.2,0.3,0.5,0.5,0.9,0.5c0.2,0,0.3,0,0.5-0.1l1.7-1
		c0.7,1.3,1.3,2.7,1.7,4.2L52,26.1c-0.5,0.1-0.9,0.7-0.7,1.2c0.1,0.4,0.5,0.7,1,0.7c0.1,0,0.2,0,0.3,0l1.9-0.5
		c0.3,1.5,0.5,3,0.6,4.5h-2c-0.6,0-1,0.4-1,1s0.4,1,1,1h2c-0.1,1.5-0.3,3-0.6,4.5L52.5,38c-0.5-0.1-1.1,0.2-1.2,0.7
		S51.4,39.8,52,39.9z M29,6V3h-3.5C25.2,3,25,2.8,25,2.5S25.2,2,25.5,2h9C34.8,2,35,2.2,35,2.5S34.8,3,34.5,3H31v3c-0.4,0-0.7,0-1,0
		S29.4,6,29,6z"/>
</g>
</svg>
