<?xml version="1.0" encoding="utf-8"?>
<!-- Generator: Adobe Illustrator 22.0.1, SVG Export Plug-In . SVG Version: 6.00 Build 0)  -->
<svg version="1.1" id="Capa_1" xmlns="http://www.w3.org/2000/svg" xmlns:xlink="http://www.w3.org/1999/xlink" x="0px" y="0px"
	 viewBox="0 0 60.1 60.1" style="enable-background:new 0 0 60.1 60.1;" xml:space="preserve">
<style type="text/css">
	.st0{fill:#EB5858;}
</style>
<g>
	<path class="st0" d="M32.6,30.7l-12.9-9.4c-0.4-0.3-0.9-0.2-1.3,0.1c-0.3,0.3-0.4,0.9-0.1,1.3l9.4,12.9c0.7,0.9,1.7,1.5,2.9,1.5
		c1,0,1.8-0.4,2.5-1c0.7-0.7,1.1-1.8,1-2.8S33.4,31.3,32.6,30.7z"/>
	<path class="st0" d="M56.1,26.1C56.1,26.1,56.1,26.1,56.1,26.1C56.1,26.1,56.1,26.1,56.1,26.1c-0.6-2.3-1.5-4.5-2.7-6.5
		c0,0,0,0,0-0.1c0,0,0,0,0,0c-1-1.7-2.2-3.3-3.6-4.8l2.1-2.1l1.4,1.4l4.2-4.2l-4.2-4.2l-4.2,4.2l1.4,1.4l-2.1,2.1
		c-1.5-1.4-3.1-2.6-4.8-3.6c0,0,0,0,0,0s0,0-0.1,0c-2-1.2-4.2-2.1-6.4-2.7c0,0,0,0,0,0s0,0,0,0c-1.3-0.3-2.6-0.6-4-0.7V5h1.5
		c1.4,0,2.5-1.1,2.5-2.5S35.9,0,34.6,0h-9c-1.4,0-2.5,1.1-2.5,2.5S24.2,5,25.6,5h1.5v1.3c-1.4,0.2-2.7,0.4-4,0.7c0,0,0,0,0,0
		c0,0,0,0,0,0c-2.3,0.6-4.4,1.5-6.4,2.7c0,0,0,0-0.1,0c0,0,0,0,0,0c-1.7,1-3.3,2.2-4.8,3.6l-2.1-2.1L11,9.8L6.7,5.5L2.5,9.8L6.7,14
		l1.4-1.4l2.1,2.1c-1.4,1.5-2.6,3.1-3.6,4.8c0,0,0,0,0,0c0,0,0,0,0,0.1c-1.2,2-2.1,4.2-2.7,6.4c0,0,0,0,0,0c0,0,0,0,0,0
		c-0.6,2.2-0.9,4.6-0.9,7s0.3,4.8,0.9,7c0,0,0,0,0,0c0,0,0,0,0,0c0.6,2.3,1.5,4.4,2.7,6.4c0,0,0,0,0,0.1c0,0,0,0.1,0.1,0.1
		c1.2,2,2.6,3.8,4.2,5.5c0,0,0,0,0,0.1s0,0,0.1,0c1.6,1.6,3.5,3,5.5,4.2c0,0,0,0,0,0c0,0,0.1,0,0.1,0c2,1.1,4.1,2,6.4,2.7
		c0,0,0,0,0,0c0,0,0,0,0,0c2.2,0.6,4.6,0.9,7,0.9s4.7-0.3,7-0.9c0,0,0,0,0,0c0,0,0,0,0,0c2.3-0.6,4.4-1.5,6.4-2.7c0,0,0.1,0,0.1,0
		c0,0,0,0,0,0c2-1.2,3.8-2.6,5.5-4.2c0,0,0,0,0.1,0s0,0,0-0.1c1.6-1.6,3-3.5,4.2-5.5c0,0,0,0,0.1-0.1c0,0,0,0,0-0.1
		c1.2-2,2.1-4.2,2.7-6.4c0,0,0,0,0,0c0,0,0,0,0,0c0.6-2.2,0.9-4.6,0.9-7S56.7,28.4,56.1,26.1z M52,40l1.9,0.5
		c-0.5,1.5-1,2.9-1.7,4.2l-1.7-1c-0.5-0.3-1.1-0.1-1.4,0.4c-0.3,0.5-0.1,1.1,0.4,1.4l1.7,1c-0.8,1.3-1.7,2.5-2.8,3.6L47,48.7
		c-0.4-0.4-1-0.4-1.4,0s-0.4,1,0,1.4l1.4,1.4c-1.1,1-2.3,1.9-3.6,2.8l-1-1.7c-0.3-0.5-0.9-0.6-1.4-0.4c-0.5,0.3-0.6,0.9-0.4,1.4
		l1,1.7c-1.3,0.7-2.7,1.3-4.2,1.7L37,55.1c-0.1-0.5-0.7-0.9-1.2-0.7c-0.5,0.1-0.8,0.7-0.7,1.2l0.5,1.9c-1.5,0.3-3,0.5-4.5,0.6v-2
		c0-0.6-0.4-1-1-1s-1,0.4-1,1v2c-1.5-0.1-3-0.3-4.5-0.6l0.5-1.9c0.1-0.5-0.2-1.1-0.7-1.2c-0.5-0.1-1.1,0.2-1.2,0.7L22.6,57
		c-1.5-0.5-2.9-1-4.2-1.7l1-1.7c0.3-0.5,0.1-1.1-0.4-1.4c-0.5-0.3-1.1-0.1-1.4,0.4l-1,1.7c-1.3-0.8-2.5-1.7-3.6-2.8l1.4-1.4
		c0.4-0.4,0.4-1,0-1.4s-1-0.4-1.4,0l-1.4,1.4c-1-1.1-1.9-2.3-2.8-3.6l1.7-1c0.5-0.3,0.6-0.9,0.4-1.4c-0.3-0.5-0.9-0.6-1.4-0.4
		l-1.7,1c-0.7-1.3-1.3-2.7-1.7-4.2L8.1,40c0.5-0.1,0.9-0.7,0.7-1.2c-0.1-0.5-0.7-0.9-1.2-0.7l-1.9,0.5c-0.3-1.5-0.5-3-0.6-4.5h2
		c0.6,0,1-0.4,1-1s-0.4-1-1-1h-2c0.1-1.5,0.3-3,0.6-4.5l1.9,0.5c0.1,0,0.2,0,0.3,0c0.4,0,0.8-0.3,1-0.7c0.1-0.5-0.2-1.1-0.7-1.2
		l-1.9-0.5c0.5-1.5,1-2.9,1.7-4.2l1.7,1c0.2,0.1,0.3,0.1,0.5,0.1c0.3,0,0.7-0.2,0.9-0.5c0.3-0.5,0.1-1.1-0.4-1.4l-1.7-1
		c0.8-1.3,1.7-2.5,2.8-3.6l1.4,1.4c0.2,0.2,0.5,0.3,0.7,0.3s0.5-0.1,0.7-0.3c0.4-0.4,0.4-1,0-1.4l-1.4-1.4c1.1-1,2.3-1.9,3.6-2.8
		l1,1.7c0.2,0.3,0.5,0.5,0.9,0.5c0.2,0,0.3,0,0.5-0.1c0.5-0.3,0.6-0.9,0.4-1.4l-1-1.7c1.3-0.7,2.7-1.3,4.2-1.7l0.5,1.9
		c0.1,0.4,0.5,0.7,1,0.7c0.1,0,0.2,0,0.3,0c0.5-0.1,0.9-0.7,0.7-1.2l-0.5-1.9c1.5-0.3,3-0.5,4.5-0.6v2c0,0.6,0.4,1,1,1s1-0.4,1-1v-2
		c1.5,0.1,3,0.3,4.5,0.6L35,10.6c-0.1,0.5,0.2,1.1,0.7,1.2c0.1,0,0.2,0,0.3,0c0.4,0,0.8-0.3,1-0.7l0.5-1.9c1.5,0.5,2.9,1,4.2,1.7
		l-1,1.7c-0.3,0.5-0.1,1.1,0.4,1.4c0.2,0.1,0.3,0.1,0.5,0.1c0.3,0,0.7-0.2,0.9-0.5l1-1.7c1.3,0.8,2.5,1.7,3.6,2.8l-1.4,1.4
		c-0.4,0.4-0.4,1,0,1.4c0.2,0.2,0.5,0.3,0.7,0.3s0.5-0.1,0.7-0.3l1.4-1.4c1,1.1,1.9,2.3,2.8,3.6l-1.7,1c-0.5,0.3-0.6,0.9-0.4,1.4
		c0.2,0.3,0.5,0.5,0.9,0.5c0.2,0,0.3,0,0.5-0.1l1.7-1c0.7,1.3,1.3,2.7,1.7,4.2L52,26.2c-0.5,0.1-0.9,0.7-0.7,1.2
		c0.1,0.4,0.5,0.7,1,0.7c0.1,0,0.2,0,0.3,0l1.9-0.5c0.3,1.5,0.5,3,0.6,4.5h-2c-0.6,0-1,0.4-1,1s0.4,1,1,1h2c-0.1,1.5-0.3,3-0.6,4.5
		l-1.9-0.5c-0.5-0.1-1.1,0.2-1.2,0.7S51.5,39.9,52,40z"/>
</g>
</svg>
