<?xml version="1.0" encoding="utf-8"?>
<!-- Generator: Adobe Illustrator 22.0.1, SVG Export Plug-In . SVG Version: 6.00 Build 0)  -->
<svg version="1.1" id="Layer_1" xmlns="http://www.w3.org/2000/svg" xmlns:xlink="http://www.w3.org/1999/xlink" x="0px" y="0px"
	 viewBox="0 0 512 512" style="enable-background:new 0 0 512 512;" xml:space="preserve">
<style type="text/css">
	.st0{fill:#FFFFFF;}
	.st1{fill:#FBDEDE;}
	.st2{opacity:0.43;fill:#FBDEDE;enable-background:new    ;}
	.st3{fill:#EB5858;}
</style>
<path class="st0" d="M154.8,371.3h-40.2c-7.2,0-13.1-5.9-13.1-13.1V153.8c0-7.2,5.9-13.1,13.1-13.1h40.2c7.2,0,13.1,5.9,13.1,13.1
	v204.3C167.9,365.4,162,371.3,154.8,371.3z"/>
<path class="st0" d="M88.4,343.8H64.1c-7.2,0-13.1-5.9-13.1-13.1V181.4c0-7.2,5.9-13.1,13.1-13.1h24.3c7.2,0,13.1,5.9,13.1,13.1
	v149.3C101.5,337.9,95.6,343.8,88.4,343.8z"/>
<rect x="7.6" y="226.7" class="st0" width="43.4" height="58.7"/>
<path class="st0" d="M357.2,140.7h40.2c7.2,0,13.1,5.9,13.1,13.1v204.3c0,7.2-5.9,13.1-13.1,13.1h-40.2c-7.2,0-13.1-5.9-13.1-13.1
	V153.8C344.1,146.6,350,140.7,357.2,140.7z"/>
<path class="st0" d="M423.6,168.2h24.3c7.2,0,13.1,5.9,13.1,13.1v149.3c0,7.2-5.9,13.1-13.1,13.1h-24.3c-7.2,0-13.1-5.9-13.1-13.1
	V181.4C410.5,174.1,416.4,168.2,423.6,168.2z"/>
<g>
	<rect x="461" y="226.7" class="st0" width="43.4" height="58.7"/>
	<rect x="167.9" y="226.7" class="st0" width="176.1" height="58.7"/>
</g>
<g>
	<rect x="7.6" y="263.2" class="st1" width="43.4" height="22.1"/>
	<rect x="461" y="263.2" class="st1" width="43.4" height="22.1"/>
	<rect x="167.9" y="263.2" class="st1" width="176.1" height="22.1"/>
</g>
<g>
	<path class="st1" d="M154.8,371.3h-40.2c-7.2,0-13.1-5.9-13.1-13.1v-47.8c0-7.2,5.9-13.1,13.1-13.1h40.2c7.2,0,13.1,5.9,13.1,13.1
		v47.8C167.9,365.4,162,371.3,154.8,371.3z"/>
	<path class="st1" d="M397.3,372h-40.2c-7.2,0-13.1-5.9-13.1-13.1v-47.8c0-7.2,5.9-13.1,13.1-13.1h40.2c7.2,0,13.1,5.9,13.1,13.1
		v47.8C410.5,366.1,404.6,372,397.3,372z"/>
</g>
<g>
	<path class="st2" d="M423.6,284.2h24.3c7.2,0,13.1,5.9,13.1,13.1v33.3c0,7.2-5.9,13.1-13.1,13.1h-24.3c-7.2,0-13.1-5.9-13.1-13.1
		v-33.3C410.5,290.1,416.4,284.2,423.6,284.2z"/>
	<path class="st2" d="M66,284.2h24.3c7.2,0,13.1,5.9,13.1,13.1v33.3c0,7.2-5.9,13.1-13.1,13.1H66c-7.2,0-13.1-5.9-13.1-13.1v-33.3
		C52.9,290.1,58.8,284.2,66,284.2z"/>
</g>
<path class="st3" d="M504.4,219.1h-35.9v-37.7c0-11.4-9.3-20.7-20.7-20.7h-24.3c-1.9,0-3.8,0.3-5.5,0.8v-7.6
	c0-11.4-9.3-20.7-20.7-20.7h-40.2c-11.4,0-20.7,9.3-20.7,20.7v65.3h-161v-65.3c0-11.4-9.3-20.7-20.7-20.7h-40.2
	c-11.4,0-20.7,9.3-20.7,20.7v7.6c-1.8-0.5-3.6-0.8-5.5-0.8H64.1c-11.4,0-20.7,9.3-20.7,20.7v37.7H7.6c-4.2,0-7.6,3.4-7.6,7.6v58.7
	c0,4.2,3.4,7.6,7.6,7.6h35.9v37.7c0,11.4,9.3,20.7,20.7,20.7h24.3c1.9,0,3.8-0.3,5.5-0.8v7.6c0,11.4,9.3,20.7,20.7,20.7h40.2
	c11.4,0,20.7-9.3,20.7-20.7v-65.3h161v65.3c0,11.4,9.3,20.7,20.7,20.7h40.2c11.4,0,20.7-9.3,20.7-20.7v-7.6c1.8,0.5,3.6,0.8,5.5,0.8
	h24.3c11.4,0,20.7-9.3,20.7-20.7v-37.7h35.9c4.2,0,7.6-3.4,7.6-7.6v-58.7C512,222.5,508.6,219.1,504.4,219.1z M15.1,277.8v-43.5
	h28.3v43.5H15.1z M88.4,336.2H64.1c-3.1,0-5.5-2.5-5.5-5.5v-45.3v-58.7v-45.3c0-3.1,2.5-5.5,5.5-5.5h24.3c3.1,0,5.5,2.5,5.5,5.5
	v149.3C94,333.7,91.5,336.2,88.4,336.2z M160.4,358.2c0,3.1-2.5,5.5-5.5,5.5h-40.2c-3.1,0-5.5-2.5-5.5-5.5v-27.5V181.4v-27.5
	c0-3.1,2.5-5.5,5.5-5.5h40.2c3.1,0,5.5,2.5,5.5,5.5v72.8v58.7V358.2z M175.5,277.8v-43.5h161v43.5H175.5z M402.9,358.2
	c0,3.1-2.5,5.5-5.5,5.5h-40.2c-3.1,0-5.5-2.5-5.5-5.5v-72.8v-58.7v-72.8c0-3.1,2.5-5.5,5.5-5.5h40.2c3.1,0,5.5,2.5,5.5,5.5v27.5
	v149.3V358.2z M453.4,330.6c0,3.1-2.5,5.5-5.5,5.5h-24.3c-3.1,0-5.5-2.5-5.5-5.5V181.4c0-3.1,2.5-5.5,5.5-5.5h24.3
	c3.1,0,5.5,2.5,5.5,5.5v45.3v58.7V330.6z M496.9,277.8h-28.3v-43.5h28.3V277.8z"/>
</svg>
