<svg id="Layer_1" data-name="Layer 1" xmlns="http://www.w3.org/2000/svg" viewBox="0 0 161.71 216.7"><defs><style>.cls-1{fill:#eb5858;}</style></defs><title>foot-length - deselect</title><path class="cls-1" d="M456.69,515.19V474.26a2.4,2.4,0,0,0-2.41-2.41H297.39a2.4,2.4,0,0,0-2.41,2.41v40.93a2.42,2.42,0,0,0,2.41,2.41H454.28a2.41,2.41,0,0,0,1.7-.71A2.37,2.37,0,0,0,456.69,515.19ZM299.8,512.78V476.67H451.87v36.11Z" transform="translate(-294.98 -300.89)"/><path class="cls-1" d="M442.35,489.61a7.23,7.23,0,1,0,0,10.23A7.24,7.24,0,0,0,442.35,489.61Zm-6.82,6.82a2.41,2.41,0,1,1,3.41,0A2.41,2.41,0,0,1,435.53,496.43Z" transform="translate(-294.98 -300.89)"/><rect class="cls-1" x="126.19" y="173.37" width="4.82" height="10.23"/><rect class="cls-1" x="115.96" y="173.37" width="4.82" height="13.64"/><rect class="cls-1" x="105.73" y="173.37" width="4.82" height="10.23"/><rect class="cls-1" x="95.5" y="173.36" width="4.82" height="13.64"/><rect class="cls-1" x="85.27" y="173.37" width="4.82" height="10.23"/><rect class="cls-1" x="75.04" y="173.36" width="4.82" height="13.64"/><rect class="cls-1" x="64.81" y="173.36" width="4.82" height="10.23"/><rect class="cls-1" x="54.57" y="173.37" width="4.82" height="13.64"/><rect class="cls-1" x="44.34" y="173.37" width="4.82" height="10.23"/><rect class="cls-1" x="34.11" y="173.37" width="4.82" height="13.64"/><rect class="cls-1" x="23.88" y="173.37" width="4.82" height="10.23"/><rect class="cls-1" x="13.64" y="173.37" width="4.82" height="13.64"/><path class="cls-1" d="M456.14,429.17a13.92,13.92,0,0,0-9.49-9.54l-2.3-.67a3.34,3.34,0,0,0-.43-.1c-1-.19-2.17-.39-3.43-.6-15.36-2.6-47.31-8-73.31-38.93-.71-.84-1.41-1.62-2.09-2.38-4.3-4.79-8-8.94-8.52-25v-41a10.06,10.06,0,0,0-10-10.05H309.4a10,10,0,0,0-10,10.74l4.37,62.77a45.46,45.46,0,0,1-3.53,20.89l-.88,2.07a38.86,38.86,0,0,0,40.54,56.26l7.06-1.09a114.07,114.07,0,0,1,22-1.26l57.75,2.33a33.45,33.45,0,0,0,26.44-11.26l0,0A13.89,13.89,0,0,0,456.14,429.17Zm-9.25,7.52,0,.05A25.05,25.05,0,0,1,427,445.18l-57.75-2.32a122.17,122.17,0,0,0-23.63,1.35l-7.06,1.09a30.48,30.48,0,0,1-31.71-44.2,2.59,2.59,0,0,0,.14-.29l.94-2.21a53.75,53.75,0,0,0,4.19-24.79l-4.37-62.76a1.65,1.65,0,0,1,.43-1.22,1.64,1.64,0,0,1,1.19-.52h37.13a1.63,1.63,0,0,1,1.62,1.62v41.18c.6,19.23,5.72,24.94,10.68,30.46.66.74,1.29,1.44,1.91,2.18,28,33.29,62,39.05,78.34,41.81l3.11.54,2.09.61a5.55,5.55,0,0,1,2.61,9Z" transform="translate(-294.98 -300.89)"/><path class="cls-1" d="M335.55,421.67a17.09,17.09,0,0,1-10.41-15.88l0-2.19a4.22,4.22,0,0,0-4.18-4.24h0a4.21,4.21,0,0,0-4.21,4.18v2.19a25.51,25.51,0,0,0,15.52,23.69,4.21,4.21,0,1,0,3.31-7.75Z" transform="translate(-294.98 -300.89)"/><circle class="cls-1" cx="26.51" cy="91.19" r="4.21"/></svg>