<svg id="Layer_1" data-name="Layer 1" xmlns="http://www.w3.org/2000/svg" viewBox="0 0 161.71 216.49"><defs><style>.cls-1{fill:#eb5858;}</style></defs><title>foot-length</title><path class="cls-1" d="M456.69,515.19V474.26a2.4,2.4,0,0,0-2.41-2.41H297.39a2.4,2.4,0,0,0-2.41,2.41v40.93a2.42,2.42,0,0,0,2.41,2.41H454.28a2.41,2.41,0,0,0,1.7-.71A2.37,2.37,0,0,0,456.69,515.19ZM299.8,512.78V476.67H451.87v36.11Z" transform="translate(-294.98 -301.11)"/><path class="cls-1" d="M442.35,489.61a7.23,7.23,0,1,0,0,10.23A7.24,7.24,0,0,0,442.35,489.61Zm-6.82,6.82a2.41,2.41,0,1,1,3.41,0A2.41,2.41,0,0,1,435.53,496.43Z" transform="translate(-294.98 -301.11)"/><rect class="cls-1" x="126.19" y="173.16" width="4.82" height="10.23"/><rect class="cls-1" x="115.96" y="173.16" width="4.82" height="13.64"/><rect class="cls-1" x="105.73" y="173.15" width="4.82" height="10.23"/><rect class="cls-1" x="95.5" y="173.15" width="4.82" height="13.64"/><rect class="cls-1" x="85.27" y="173.15" width="4.82" height="10.23"/><rect class="cls-1" x="75.04" y="173.15" width="4.82" height="13.64"/><rect class="cls-1" x="64.81" y="173.15" width="4.82" height="10.23"/><rect class="cls-1" x="54.57" y="173.15" width="4.82" height="13.64"/><rect class="cls-1" x="44.34" y="173.15" width="4.82" height="10.23"/><rect class="cls-1" x="34.11" y="173.15" width="4.82" height="13.64"/><rect class="cls-1" x="23.88" y="173.16" width="4.82" height="10.23"/><rect class="cls-1" x="13.64" y="173.15" width="4.82" height="13.64"/><path class="cls-1" d="M456.29,433.26a10.35,10.35,0,0,0-7-7l-2.4-.7c-14.28-2.62-52.82-6.63-83.58-43.22-5.61-6.67-11.59-10.39-12.25-31.72V307.26a6.15,6.15,0,0,0-6.15-6.15H305.72a6.15,6.15,0,0,0-6.14,6.58l4.61,66.23A52.16,52.16,0,0,1,300.12,398l-1,2.33a36.61,36.61,0,0,0,38.08,53.09l7.46-1.16a123.56,123.56,0,0,1,24.08-1.37l60.93,2.45A31,31,0,0,0,454.09,443h0A10.35,10.35,0,0,0,456.29,433.26Zm-141.91-45.8a4.44,4.44,0,1,1,2.85,5.6A4.44,4.44,0,0,1,314.38,387.46Zm21.4,38.43a4.43,4.43,0,0,1-5.83,2.34,26.89,26.89,0,0,1-16.38-25v-2.32a4.45,4.45,0,0,1,4.45-4.41h0a4.45,4.45,0,0,1,4.41,4.48l0,2.31a18,18,0,0,0,11,16.76A4.45,4.45,0,0,1,335.78,425.89Z" transform="translate(-294.98 -301.11)"/></svg>