<svg id="Layer_1" data-name="Layer 1" xmlns="http://www.w3.org/2000/svg" viewBox="0 0 176.67 128.7"><defs><style>.cls-1,.cls-2{fill:#eb5858;}.cls-2,.cls-3{stroke:#fff;stroke-miterlimit:10;}.cls-3{fill:none;stroke-linecap:round;stroke-width:0.5px;}</style></defs><title>inferormedial_reach</title><path class="cls-1" d="M715.6,349.62c-.45.3-10.42,5.16-20.75,10.18L687,358.28l-4.37,2.08v2.54l4.09.82-15.14,7.33-3,.2-2.78-6.51-8.29.42v2.54l1.3,4.18-1.27.08-5.08-1.31,1.88-.78V367l-6.46-1.62-6.06,2.48-46.44-12c-1.2-.31-1.5,2.13,0,2.42.66.14,24.7,6.44,42.67,11.15l-1.67.68v2.75l6.71,1.67,5.58-2.32,8.83,2.32,2.07-.17.93,3,3.62-.16,9.51,23-8.92.78v3.33l1.92,5.25,10.5-.91c7.51,18.15,15.4,37.21,15.63,37.7.94,2.25,4.22,1.13,3.75,0l-16.15-38,8.86-.77V404.2l-2.58-5.12-9.87.86L667,377.08l2.8-.13V374.2l-.28-.66,2.06-.17,18.17-9,6.8,1.36,4.08-2.25v-2.54l-2.87-.55,17.83-8.86C717,350.82,716.44,349.3,715.6,349.62Z" transform="translate(-594.33 -318.97)"/><path class="cls-2" d="M693.6,326.84c1.71-.59,11-8.2,18.36-7.29s12.2,9.58,12.2,9.58,12.6,9.79,15.75,14c1.69,1,4.21,2.76,5.51,3.41,10.47,2.42,14.8,14.3,20.6,18.9,1.53,1.19,6.12,3,3.87,6.32a54.61,54.61,0,0,1-3.54,5.5,22.14,22.14,0,0,1-1.92,2.38c-.71.67-1.67,1.71-2.25,1.13a1.48,1.48,0,0,1-1.71,0s-1.21.38-1.75-.33c-1.17.17-1.37-.54-1.37-.54s-1.67-.29-1-1.08,2.58-1,3.08-1.37,1.83-3.58,2-4.75-.83-3.58-1.75-5.08a21.78,21.78,0,0,0-3.58-3.71s-.93,1.44-1.29,2a6.87,6.87,0,0,1-2.08,3.46,4.35,4.35,0,0,1-1.71,0s-2.78-.06-3.17-.58c-.27,0-.08-.73-.08-.73s.22-.77.75-.84l.91-.12s1-.41,1.41-.53a1.13,1.13,0,0,0,.59-.66s.38-2.53.5-3.28a3,3,0,0,0-.53-2.06,54.66,54.66,0,0,0-10.12-7.12s-19.42-5.4-27-12.94a18.89,18.89,0,0,1-3.44-2.75s-7.19,6-12.81,6.81a9.71,9.71,0,0,1-7.81,5.94v1.31a9,9,0,0,1,3.5,2.5c1,1.48,1.28,4.94,1.28,4.94s1,.5,1.19,1-.56,1.81-.56,1.81l-.16.81.41,1.25s.25,1,0,1.31a.64.64,0,0,1-.66.19l-2.22-1.84a7.37,7.37,0,0,1-1.19-1,.55.55,0,0,1,.06-.56L689,358.49a13.68,13.68,0,0,1-1.16-1.06,6.75,6.75,0,0,0-1.72-1.06s-4.11-.58-4.5-2.19-.73-3.56-1-4a16.81,16.81,0,0,1-1.75-3.39l-.69,1.34s-.87,3.81-3.25,4.5a76.21,76.21,0,0,1-1.66,7.75s-1.5,4-1.84,5.13-.91,2.88-1.19,3.75c-.72,2.53-1.31,3.34-2.19,3.56a7,7,0,0,1-2.34-.06c-.5,0-2.25.59-2.81.63s-1-.75-1-.75l-2.72.66s-.83.27-1.19,0-.6-.27-.75-.5.5-.41.5-.41a.49.49,0,0,1-.22-.44c0-.28,1.59-.66,1.59-.66s-.65-.17-.41-.47,3.14-.43,3.41-.44.93-.67,1.25-.69a12.46,12.46,0,0,0,2.13-.09,5.42,5.42,0,0,0,1.56-.75c.44-.6.84-13,.84-13s-6.2.31-6.34-6.16,7.62-7.81,7.62-7.81,1-6.44,2.81-9.19c1.13-1.41,5-4.25,10.44-4.44C689.16,328.05,691.89,327.43,693.6,326.84Z" transform="translate(-594.33 -318.97)"/><path class="cls-1" d="M693.6,326.84c1.71-.59,11-8.2,18.36-7.29s12.2,9.58,12.2,9.58,12.6,9.79,15.75,14c1.69,1,4.21,2.76,5.51,3.41,10.47,2.42,14.8,14.3,20.6,18.9,1.53,1.19,6.12,3,3.87,6.32a54.61,54.61,0,0,1-3.54,5.5,22.14,22.14,0,0,1-1.92,2.38c-.71.67-1.67,1.71-2.25,1.13a1.48,1.48,0,0,1-1.71,0s-1.21.38-1.75-.33c-1.17.17-1.37-.54-1.37-.54s-1.67-.29-1-1.08,2.58-1,3.08-1.37,1.83-3.58,2-4.75-.83-3.58-1.75-5.08a21.78,21.78,0,0,0-3.58-3.71s-.93,1.44-1.29,2a6.87,6.87,0,0,1-2.08,3.46,4.35,4.35,0,0,1-1.71,0s-2.78-.06-3.17-.58c-.27,0-.08-.73-.08-.73s.22-.77.75-.84l.91-.12s1-.41,1.41-.53a1.13,1.13,0,0,0,.59-.66s.38-2.53.5-3.28a3,3,0,0,0-.53-2.06,54.66,54.66,0,0,0-10.12-7.12s-19.42-5.4-27-12.94a18.89,18.89,0,0,1-3.44-2.75s-7.19,6-12.81,6.81a9.71,9.71,0,0,1-7.81,5.94v1.31a9,9,0,0,1,3.5,2.5c1,1.48,1.28,4.94,1.28,4.94s1,.5,1.19,1-.56,1.81-.56,1.81l-.16.81.41,1.25s.25,1,0,1.31a.64.64,0,0,1-.66.19l-2.22-1.84a7.37,7.37,0,0,1-1.19-1,.55.55,0,0,1,.06-.56L689,358.49a13.68,13.68,0,0,1-1.16-1.06,6.75,6.75,0,0,0-1.72-1.06s-4.11-.58-4.5-2.19-.73-3.56-1-4a16.81,16.81,0,0,1-1.75-3.39l-.69,1.34s-.87,3.81-3.25,4.5a76.21,76.21,0,0,1-1.66,7.75s-1.5,4-1.84,5.13-.91,2.88-1.19,3.75c-.72,2.53-1.31,3.34-2.19,3.56a7,7,0,0,1-2.34-.06c-.5,0-2.25.59-2.81.63s-1-.75-1-.75l-2.72.66s-.83.27-1.19,0-.6-.27-.75-.5.5-.41.5-.41a.49.49,0,0,1-.22-.44c0-.28,1.59-.66,1.59-.66s-.65-.17-.41-.47,3.14-.43,3.41-.44.93-.67,1.25-.69a12.46,12.46,0,0,0,2.13-.09,5.42,5.42,0,0,0,1.56-.75c.44-.6.84-13,.84-13s-6.2.31-6.34-6.16,7.62-7.81,7.62-7.81,1-6.44,2.81-9.19c1.13-1.41,5-4.25,10.44-4.44C689.16,328.05,691.89,327.43,693.6,326.84Z" transform="translate(-594.33 -318.97)"/><path class="cls-3" d="M673.6,333.41s.42,2.83.42,4c0,2.21-4.85,4.45-4.85,4.45" transform="translate(-594.33 -318.97)"/><line class="cls-3" x1="157.02" y1="41.59" x2="161.73" y2="44.94"/><path class="cls-3" d="M667.88,355.87a8.69,8.69,0,0,0,7.06-3.25" transform="translate(-594.33 -318.97)"/></svg>