<?xml version="1.0" encoding="utf-8"?>
<!-- Generator: Adobe Illustrator 22.0.1, SVG Export Plug-In . SVG Version: 6.00 Build 0)  -->
<svg version="1.1" id="Layer_1" xmlns="http://www.w3.org/2000/svg" xmlns:xlink="http://www.w3.org/1999/xlink" x="0px" y="0px"
	 viewBox="0 0 176.7 128.7" style="enable-background:new 0 0 176.7 128.7;" xml:space="preserve">
<style type="text/css">
	.st0{fill:#FBDEDE;stroke:#EB5858;stroke-miterlimit:10;}
	.st1{fill:#EB5858;stroke:#FFFFFF;stroke-miterlimit:10;}
	.st2{fill:none;stroke:#EB5858;stroke-miterlimit:10;}
</style>
<title>inferormedial_reach</title>
<path class="st0" d="M121,30.7c-0.4,0.3-10.4,5.2-20.7,10.2l-7.8-1.5l-4.4,2.1V44l4.1,0.8l-15.1,7.3l-3,0.2l-2.8-6.5L63,46.2v2.5
	l1.3,4.2L63,53l-5-1.3l1.9-0.8V48l-6.5-1.6l-6.1,2.5l-46.4-12c-1.2-0.3-1.5,2.1,0,2.4c0.7,0.1,24.7,6.4,42.7,11.1l-1.7,0.7v2.8
	l6.7,1.7l5.6-2.3l8.8,2.3l2.1-0.2l0.9,3l3.6-0.2l9.5,23L70.2,82v3.4l1.9,5.2l10.5-0.9c7.5,18.1,15.4,37.2,15.6,37.7
	c1,2.2,4.3,1.1,3.8,0l-16.2-38l8.9-0.8v-3.4l-2.6-5.1L82.2,81l-9.8-22.9l2.8-0.1v-2.8l-0.3-0.7l2.1-0.2l18.2-9l6.8,1.4l4.1-2.2V42
	l-2.8-0.5l17.8-8.9C122.5,31.9,121.9,30.3,121,30.7z"/>
<path class="st1" d="M99.1,8.2c1.8-0.6,11-8.2,18.4-7.3s12.2,9.6,12.2,9.6s12.6,9.8,15.8,14c1.7,1,4.2,2.8,5.5,3.4
	c10.5,2.4,14.8,14.3,20.6,18.9c1.6,1.2,6.1,3,3.9,6.3c-1,1.9-2.2,3.7-3.5,5.5c-0.6,0.9-1.2,1.7-1.9,2.4c-0.7,0.6-1.6,1.7-2.2,1.1
	c-0.5,0.4-1.2,0.4-1.7,0c0,0-1.3,0.4-1.8-0.3c-1.2,0.2-1.4-0.5-1.4-0.5s-1.7-0.3-1-1.1s2.6-1,3.1-1.4s1.9-3.6,2-4.8
	c0.1-1.2-0.9-3.6-1.8-5.1c-1.1-1.4-2.3-2.6-3.6-3.7c0,0-0.9,1.4-1.3,2c-0.4,1.4-1.1,2.6-2.1,3.5c-0.6,0.1-1.1,0.1-1.7,0
	c0,0-2.8-0.1-3.2-0.6c-0.3,0-0.1-0.7-0.1-0.7s0.3-0.7,0.8-0.8l0.9-0.1c0,0,1-0.4,1.4-0.5c0.3-0.2,0.5-0.4,0.6-0.7
	c0,0,0.4-2.5,0.5-3.3c0.1-0.8-0.1-1.5-0.5-2.1c-3.1-2.7-6.5-5.1-10.1-7.1c0,0-19.4-5.4-27-12.9c-1.2-0.8-2.4-1.8-3.4-2.8
	c0,0-7.2,6-12.8,6.8c-1.3,3.2-4.3,5.5-7.8,5.9v1.3c1.4,0.5,2.6,1.4,3.5,2.5c1,1.4,1.3,4.9,1.3,4.9s1,0.5,1.2,1s-0.6,1.8-0.6,1.8
	l-0.2,0.8l0.4,1.2c0,0,0.2,1,0,1.3c-0.2,0.2-0.5,0.3-0.7,0.2L98.6,45c-0.4-0.3-0.8-0.6-1.2-1c0-0.2,0-0.4,0.1-0.6l-2.9-3.7
	c-0.4-0.4-0.8-0.7-1.2-1.1c-0.5-0.5-1.1-0.8-1.7-1.1c0,0-4.1-0.6-4.5-2.2s-0.7-3.6-1-4c-0.8-1.1-1.3-2.2-1.8-3.4l-0.7,1.3
	c0,0-0.8,3.8-3.2,4.5c-0.5,2.7-1,5.2-1.7,7.8c0,0-1.4,3.9-1.8,5.1s-0.9,2.9-1.2,3.8c-0.7,2.6-1.3,3.4-2.2,3.6
	c-0.7,0.1-1.5,0.1-2.3-0.1c-0.5,0-2.2,0.6-2.8,0.6s-1-0.8-1-0.8l-2.7,0.7c0,0-0.8,0.3-1.2,0c-0.4-0.3-0.6-0.3-0.8-0.5
	s0.5-0.4,0.5-0.4c-0.1-0.1-0.2-0.2-0.2-0.4c0-0.3,1.6-0.7,1.6-0.7s-0.6-0.2-0.4-0.5s3.2-0.4,3.4-0.4s0.9-0.7,1.2-0.7
	c0.7,0,1.4,0,2.1-0.1c0.6-0.2,1.1-0.5,1.6-0.8c0.4-0.6,0.8-13,0.8-13s-6.1,0.3-6.3-6.2s7.6-7.8,7.6-7.8s1-6.4,2.8-9.2
	c1.1-1.4,5-4.2,10.4-4.4C94.6,9.1,97.4,8.5,99.1,8.2z"/>
<path class="st0" d="M99.1,8.2c1.8-0.6,11-8.2,18.4-7.3s12.2,9.6,12.2,9.6s12.6,9.8,15.8,14c1.7,1,4.2,2.8,5.5,3.4
	c10.5,2.4,14.8,14.3,20.6,18.9c1.6,1.2,6.1,3,3.9,6.3c-1,1.9-2.2,3.7-3.5,5.5c-0.6,0.9-1.2,1.7-1.9,2.4c-0.7,0.6-1.6,1.7-2.2,1.1
	c-0.5,0.4-1.2,0.4-1.7,0c0,0-1.3,0.4-1.8-0.3c-1.2,0.2-1.4-0.5-1.4-0.5s-1.7-0.3-1-1.1s2.6-1,3.1-1.4s1.9-3.6,2-4.8
	c0.1-1.2-0.9-3.6-1.8-5.1c-1.1-1.4-2.3-2.6-3.6-3.7c0,0-0.9,1.4-1.3,2c-0.4,1.4-1.1,2.6-2.1,3.5c-0.6,0.1-1.1,0.1-1.7,0
	c0,0-2.8-0.1-3.2-0.6c-0.3,0-0.1-0.7-0.1-0.7s0.3-0.7,0.8-0.8l0.9-0.1c0,0,1-0.4,1.4-0.5c0.3-0.2,0.5-0.4,0.6-0.7
	c0,0,0.4-2.5,0.5-3.3c0.1-0.8-0.1-1.5-0.5-2.1c-3.1-2.7-6.5-5.1-10.1-7.1c0,0-19.4-5.4-27-12.9c-1.2-0.8-2.4-1.8-3.4-2.8
	c0,0-7.2,6-12.8,6.8c-1.3,3.2-4.3,5.5-7.8,5.9v1.3c1.4,0.5,2.6,1.4,3.5,2.5c1,1.4,1.3,4.9,1.3,4.9s1,0.5,1.2,1s-0.6,1.8-0.6,1.8
	l-0.2,0.8l0.4,1.2c0,0,0.2,1,0,1.3c-0.2,0.2-0.5,0.3-0.7,0.2L98.6,45c-0.4-0.3-0.8-0.6-1.2-1c0-0.2,0-0.4,0.1-0.6l-2.9-3.7
	c-0.4-0.4-0.8-0.7-1.2-1.1c-0.5-0.5-1.1-0.8-1.7-1.1c0,0-4.1-0.6-4.5-2.2s-0.7-3.6-1-4c-0.8-1.1-1.3-2.2-1.8-3.4l-0.7,1.3
	c0,0-0.8,3.8-3.2,4.5c-0.5,2.7-1,5.2-1.7,7.8c0,0-1.4,3.9-1.8,5.1s-0.9,2.9-1.2,3.8c-0.7,2.6-1.3,3.4-2.2,3.6
	c-0.7,0.1-1.5,0.1-2.3-0.1c-0.5,0-2.2,0.6-2.8,0.6s-1-0.8-1-0.8l-2.7,0.7c0,0-0.8,0.3-1.2,0c-0.4-0.3-0.6-0.3-0.8-0.5
	s0.5-0.4,0.5-0.4c-0.1-0.1-0.2-0.2-0.2-0.4c0-0.3,1.6-0.7,1.6-0.7s-0.6-0.2-0.4-0.5s3.2-0.4,3.4-0.4s0.9-0.7,1.2-0.7
	c0.7,0,1.4,0,2.1-0.1c0.6-0.2,1.1-0.5,1.6-0.8c0.4-0.6,0.8-13,0.8-13s-6.1,0.3-6.3-6.2s7.6-7.8,7.6-7.8s1-6.4,2.8-9.2
	c1.1-1.4,5-4.2,10.4-4.4C94.6,9.1,97.4,8.5,99.1,8.2z"/>
<path class="st0" d="M79,14.4c0,0,0.4,2.8,0.4,4c0,2.3-4.8,4.5-4.8,4.5"/>
<line class="st2" x1="156.8" y1="41.6" x2="161.5" y2="44.9"/>
<path class="st0" d="M73.3,36.8c2.8,0.1,5.4-1.1,7.1-3.2"/>
</svg>
