<?xml version="1.0" encoding="utf-8"?>
<!-- Generator: Adobe Illustrator 22.0.1, SVG Export Plug-In . SVG Version: 6.00 Build 0)  -->
<svg version="1.1" id="Layer_1" xmlns="http://www.w3.org/2000/svg" xmlns:xlink="http://www.w3.org/1999/xlink" x="0px" y="0px"
	 viewBox="0 0 232.2 153.5" style="enable-background:new 0 0 232.2 153.5;" xml:space="preserve">
<style type="text/css">
	.st0{fill:#FBDEDE;stroke:#EB5858;stroke-miterlimit:10;}
	.st1{fill:none;stroke:#231F20;stroke-width:0.5;stroke-miterlimit:10;}
	.st2{fill:#EB5858;stroke:#FFFFFF;stroke-miterlimit:10;}
	.st3{fill:none;stroke:#EB5858;stroke-miterlimit:10;}
</style>
<title>medial_reach</title>
<path class="st0" d="M151,35.5l0-2.7l-35.7,15l-10.1-2.1l-6.8,2.8v3.2l4.7,1.2l-6.7,2.8l-3.8,0.2L89.9,48l-11,0.5l1.1,7.8l-1.5,0.1
	L73,55.1l1.3-0.5V51l-8.4-1.9l-7.4,2.6l-58-13.8c0,0-1.1,1.5,0,2.5c0.9,0.2,29.1,7.9,50.9,13.8L49,55.1v3.8l8.5,2.2l8-3l11.1,3
	l4-0.2l0.6,4.1l5.2-0.3c1.2,6.4,3.6,19.5,6.3,33.6l-14.3,1l0.7,13.8l16.2-1.1c3.8,20.2,7.2,38.7,7.2,39.4c2,3.6,4.6,2.1,5.2,0
	c0-0.8-3.9-19.5-8.1-39.7l14.9-1v-5.3l-2.6-8.4l-15.2,1.1c-3-14.1-5.8-27.1-7.1-33.5l4.5-0.3v-3.9L94,60.1l4.4-0.3l11.2-5.2l7.6,1.9
	l6.7-3.5v-3.4l-2.4-0.5L151,35.5L151,35.5z"/>
<path class="st1" d="M168,39.4c0,0-14.7-4-20.2-9c-4.1,0.8-13.9-0.3-13.9-0.3"/>
<path class="st1" d="M179.6,27.5c4.1,2.4,8.7,3.8,13.4,4.1"/>
<path class="st2" d="M231,50.5c-1.1-1.2-5.3-2.4-7.8-3.6S211,38.5,208.8,37c0.2-0.6,0-1.3-0.5-1.7c-0.9-0.9-4.8-1.3-4.8-1.3
	c-3.3-1.4-6.9-2.2-10.5-2.4c-5.9-4.3-13.4-4.1-13.4-4.1l-23.1-15.1c-1-0.8-7.2-6.9-15.6-7.8c-8.4-0.9-10.3,0.7-18.6,1.3
	s-10.8-2.6-14.1-4c-3.5-1.4-7.3-1.8-11-1.1c-3,0.7-5.8,1.9-8.4,3.5c0,0-3.8-5.2-12.9-3.5C66.8,2.5,67,14.1,67,14.7
	c0.4,3.8,1.7,4.9,4.2,7c0.5,0.4,1.2,0.7,1.8,0.7c0,0,1.9,4.7,2.6,4.9s1.6-0.8,1.6-0.8l3.6,1.1c0,0,2.5,1.4,3.9-0.3
	c0.7-0.8,1.7-3.4,2.3-4s2.5-2.3,2.5-2.3l0.2,4.9c0,1.4-0.2,2.9-0.5,4.3c-0.3,1.9-0.4,3.7-0.5,5.6c0,2.4,1.1,12.8,1.2,13.7
	c-0.1,1.3-0.3,2.6-0.6,3.9c-0.1,0.4-0.6,0.7-1.1,0.7l-3.1,0.1c-0.5,0.1-0.9,0.4-1.2,0.7l-3.2,1c0,0-2.1,0.1-2.2,0.6
	c-0.1,0.5,1.1,0.9,1.1,0.9l-0.2,1.4c0,0.9,0.2,1.7,0.7,2.4c0.3,0.2,0.6-0.2,0.6-0.2v-1.6l1.1-0.7l1.1-0.2c0,0-0.1,0.9,0.4,0.9
	s3.3-0.3,3.3-0.3l1.8-0.3c0,0,3,0,4-0.6c1-0.9,1.5-2.1,1.6-3.4c0.2-1.4,0.3-3.3,0.4-4.4s1.6-7.8,1.6-7.8c-0.1,1.9-0.1,3.8,0,5.7
	c0.5,2.5,1.2,5,2,7.4c-0.4,1.6-0.6,3.4-0.6,5.1c0,2.8,1.8,8.7,2.1,11.6s0.5,11,0.5,11c-0.8,1.3-1.3,2.7-1.5,4.2
	c0,1.8,0.9,3.3,0.7,4.2s-1.4,6-1.4,6l2.4-0.2c0,0,0.4-1.4,0.7-1.4c-0.1,0.5-0.1,0.9,0,1.4l4.2-0.3c0.4-0.7,0.6-1.5,0.8-2.3
	c0-0.7,0.2-2.3,0.2-2.3l0.4-0.5l-0.1,2.5c0,0-0.1,1.4,0.2,1.7c0.3,0.3,0.8,0.3,1.1,0c0.1-0.2,0.2-0.3,0.2-0.5
	c0.2-0.9,0.7-5.4,0.7-5.4c0.3-0.8,0.5-1.6,0.4-2.5c-0.3-1.5-0.9-2.9-1.6-4.2l-0.7-5.2c-0.2-1.3,0.9-4.5,0.6-8.9s-0.9-7.7-1.1-9.2
	c-0.1-1.7-0.1-3.4,0-5.1c0.7-3.9,1.3-7.7,1.6-11.6c0.1-3.6-0.1-7.1-0.4-10.6c1.1,0.3,2.3,0.5,3.4,0.5c1.5,0,3.7,0.2,7.9-3.8
	c5.9,1.3,14.2,0,14.2,0c0.4-0.1,0.8,0,1.2,0.2c4.8,4.1,13.1,9.1,34.2,9.3c6.1,1.4,12.3,2.4,18.5,2.9c3,0.5,7.4,1.6,15.7,3.8
	c0.3,0.6,0.5,1.2,0.5,1.8c-0.3,0.5-0.7,0.9-1.2,1.3l-1.4,0.8c-0.3,0.2-0.5,0.5-0.4,0.8c0,0.1,0,0.1,0,0.1c-0.4,0.4,0.2,1,0.2,1
	c0.2,0.4,0.6,0.7,1,0.8c0.6,0.1,2.8-1.3,2.8-1.3c1-0.4,1.8-1,2.6-1.7c0.3-0.6,0.4-1.3,0.4-2c0,0,8.6,2.8,10.3,4.3
	c1.1,0.8,2,1.9,2.5,3.1c0.3,0.8,1.1,2.3,0.9,3c-0.7,1.8-1.6,3.5-2.6,5.1c-0.5,0.4-2.9,1.4-3.6,2.8s2.1,1.3,2.1,1.3
	c0.6,0.5,1.3,0.7,2.1,0.5c0.5,0.7,2,0,2,0c0.8,0.2,1.6,0.2,2.4-0.2c0.6,0.5,1.9,0,1.9,0s0.9,0,1.4-1.5c1.4-0.4,2.7-5.1,3.5-6.6
	c0.8-1.6,1.4-3.3,1.9-5C231.8,54.5,232,51.7,231,50.5z"/>
<path class="st0" d="M231,50.5c-1.1-1.2-5.3-2.4-7.8-3.6S211,38.5,208.8,37c0.2-0.6,0-1.3-0.5-1.7c-0.9-0.9-4.8-1.3-4.8-1.3
	c-3.3-1.4-6.9-2.2-10.5-2.4c-5.9-4.3-13.4-4.1-13.4-4.1l-23.1-15.1c-1-0.8-7.2-6.9-15.6-7.8c-8.4-0.9-10.3,0.7-18.6,1.3
	s-10.8-2.6-14.1-4c-3.5-1.4-7.3-1.8-11-1.1c-3,0.7-5.8,1.9-8.4,3.5c0,0-3.8-5.2-12.9-3.5C66.8,2.5,67,14.1,67,14.7
	c0.4,3.8,1.7,4.9,4.2,7c0.5,0.4,1.2,0.7,1.8,0.7c0,0,1.9,4.7,2.6,4.9s1.6-0.8,1.6-0.8l3.6,1.1c0,0,2.5,1.4,3.9-0.3
	c0.7-0.8,1.7-3.4,2.3-4s2.5-2.3,2.5-2.3l0.2,4.9c0,1.4-0.2,2.9-0.5,4.3c-0.3,1.9-0.4,3.7-0.5,5.6c0,2.4,1.1,12.8,1.2,13.7
	c-0.1,1.3-0.3,2.6-0.6,3.9c-0.1,0.4-0.6,0.7-1.1,0.7l-3.1,0.1c-0.5,0.1-0.9,0.4-1.2,0.7l-3.2,1c0,0-2.1,0.1-2.2,0.6
	c-0.1,0.5,1.1,0.9,1.1,0.9l-0.2,1.4c0,0.9,0.2,1.7,0.7,2.4c0.3,0.2,0.6-0.2,0.6-0.2v-1.6l1.1-0.7l1.1-0.2c0,0-0.1,0.9,0.4,0.9
	s3.3-0.3,3.3-0.3l1.8-0.3c0,0,3,0,4-0.6c1-0.9,1.5-2.1,1.6-3.4c0.2-1.4,0.3-3.3,0.4-4.4s1.6-7.8,1.6-7.8c-0.1,1.9-0.1,3.8,0,5.7
	c0.5,2.5,1.2,5,2,7.4c-0.4,1.6-0.6,3.4-0.6,5.1c0,2.8,1.8,8.7,2.1,11.6s0.5,11,0.5,11c-0.8,1.3-1.3,2.7-1.5,4.2
	c0,1.8,0.9,3.3,0.7,4.2s-1.4,6-1.4,6l2.4-0.2c0,0,0.4-1.4,0.7-1.4c-0.1,0.5-0.1,0.9,0,1.4l4.2-0.3c0.4-0.7,0.6-1.5,0.8-2.3
	c0-0.7,0.2-2.3,0.2-2.3l0.4-0.5l-0.1,2.5c0,0-0.1,1.4,0.2,1.7c0.3,0.3,0.8,0.3,1.1,0c0.1-0.2,0.2-0.3,0.2-0.5
	c0.2-0.9,0.7-5.4,0.7-5.4c0.3-0.8,0.5-1.6,0.4-2.5c-0.3-1.5-0.9-2.9-1.6-4.2l-0.7-5.2c-0.2-1.3,0.9-4.5,0.6-8.9s-0.9-7.7-1.1-9.2
	c-0.1-1.7-0.1-3.4,0-5.1c0.7-3.9,1.3-7.7,1.6-11.6c0.1-3.6-0.1-7.1-0.4-10.6c1.1,0.3,2.3,0.5,3.4,0.5c1.5,0,3.7,0.2,7.9-3.8
	c5.9,1.3,14.2,0,14.2,0c0.4-0.1,0.8,0,1.2,0.2c4.8,4.1,13.1,9.1,34.2,9.3c6.1,1.4,12.3,2.4,18.5,2.9c3,0.5,7.4,1.6,15.7,3.8
	c0.3,0.6,0.5,1.2,0.5,1.8c-0.3,0.5-0.7,0.9-1.2,1.3l-1.4,0.8c-0.3,0.2-0.5,0.5-0.4,0.8c0,0.1,0,0.1,0,0.1c-0.4,0.4,0.2,1,0.2,1
	c0.2,0.4,0.6,0.7,1,0.8c0.6,0.1,2.8-1.3,2.8-1.3c1-0.4,1.8-1,2.6-1.7c0.3-0.6,0.4-1.3,0.4-2c0,0,8.6,2.8,10.3,4.3
	c1.1,0.8,2,1.9,2.5,3.1c0.3,0.8,1.1,2.3,0.9,3c-0.7,1.8-1.6,3.5-2.6,5.1c-0.5,0.4-2.9,1.4-3.6,2.8s2.1,1.3,2.1,1.3
	c0.6,0.5,1.3,0.7,2.1,0.5c0.5,0.7,2,0,2,0c0.8,0.2,1.6,0.2,2.4-0.2c0.6,0.5,1.9,0,1.9,0s0.9,0,1.4-1.5c1.4-0.4,2.7-5.1,3.5-6.6
	c0.8-1.6,1.4-3.3,1.9-5C231.8,54.5,232,51.7,231,50.5z"/>
<path class="st0" d="M89.2,21.1l4.9,0.3l0.5,2.2c0.1,0.8-2.2,2.4-1.8,5.8s3,13.2,3,13.2"/>
<path class="st0" d="M107.2,33.3c0,0,0.3-2.8,0-3.4c1.7-1,3.3-2.1,4.9-3.3"/>
<line class="st3" x1="202.2" y1="46.1" x2="206.7" y2="47.6"/>
<line class="st3" x1="203.5" y1="34" x2="208.8" y2="37"/>
</svg>
