<?xml version="1.0" encoding="utf-8"?>
<!-- Generator: Adobe Illustrator 22.0.1, SVG Export Plug-In . SVG Version: 6.00 Build 0)  -->
<svg version="1.1" id="Layer_1" xmlns="http://www.w3.org/2000/svg" xmlns:xlink="http://www.w3.org/1999/xlink" x="0px" y="0px"
	 viewBox="0 0 169.4 106.5" style="enable-background:new 0 0 169.4 106.5;" xml:space="preserve">
<style type="text/css">
	.st0{fill:#FBDEDE;stroke:#EB5858;stroke-miterlimit:10;}
	.st1{fill:#EB5858;stroke:#FFFFFF;stroke-miterlimit:10;}
	.st2{fill:none;stroke:#EB5858;stroke-miterlimit:10;}
</style>
<title>superolateral_reach</title>
<path class="st0" d="M113.7,25.4l-1.5-0.6l-12,5.3l-7.5-1.6l-4.6,2v2.8l3.4,0.7l-15.7,6.7l-3.6,0.1L70,35.2h-8V38l0.8,3h-1.2
	l-16.3-4.2l0.4-0.1v-3.2l-5.2-1.2l-6,1.9L0.8,25.5c-1.1-0.3-1.1,2,0,2c0.5,0,15.2,3.9,29.9,7.9l-2.3,0.7v2.7l6.4,2l6.8-2.5l19.8,5.4
	h2l0.9,3.4h4l7.5,22.4L67.1,70v3.7l1.1,4.8L78.6,78c4.6,13.7,9,26.8,9.3,27.6c0.7,1.6,3.3,0.8,2.9-0.5l-9.5-27.3l9.5-0.5v-3.5
	l-2.1-5l-10.3,0.5L70.7,47h2.9v-2.7l-0.2-0.6h2.5l18.8-9.1l7.4,1.5l3.6-2v-2.8l-2.9-0.6L113.7,25.4z"/>
<path class="st1" d="M70.7,0.5c5.9-0.3,11.7,6.9,16.7,7.2S98,4.1,104.7,5.4s13.7,8.7,13.7,8.7s6,2.9,8.2,4.3c5.6,1.5,7,0,11.4,1.4
	s8.6,5.5,13.6,7.1c2.4,1,5.2,0.6,6,1.2c1.3,1,0,4.8,0,4.8c2.2,1.4,4.4,2.7,6.7,3.8c2.4,0.9,4.3,1.1,4.7,2.3s-0.3,2.7-0.5,4
	s-1.3,7-1.4,7.7c-0.2,0.6-0.5,1.1-0.9,1.5c0,0-0.4,0.9-0.9,1.1c-0.4,0.1-0.9,0.1-1.3,0c-0.7,0.1-1.4-0.1-1.8-0.6
	c-2,0.2-1.7-0.8-1.7-0.8s0.8-1.6,1.1-2.2c0.3-0.6,0.1-4.4-0.5-6c-0.6-1.6-3.7-3.9-3.7-3.9s-1.6,0.7-2,1c-2.4,1-3.4,0.5-3.5,0.1
	c-0.1-0.4,0.5-1,0.5-1c0-0.2,0.1-0.4,0.2-0.5c0.2-0.3,1-0.3,1-0.3s0.6-0.3,1-0.6c-4.4-2-16.8-6.1-18.4-6.3c-1.3-0.1-2.6-0.2-3.8-0.4
	c-1.8-0.4-15.4-1.8-25.1-7.8c-1.8-0.4-3.5-1.1-4.9-2.2c-6.5,3.3-17.1,2.6-20.8,2c-1.3-0.1-5.8,1.9-7.1,1.3c0.3,3.1,0.5,6.2,0.4,9.4
	c0.1,2.3-0.1,4.6-0.6,6.9c-0.4,0.7-1.1,1.3-1.9,1.6c-0.8,0-1.5,0-2.2-0.1c-1,0.4-2,0.7-3.1,0.8c-0.4,0-0.7-0.3-0.7-0.7
	c0-0.1,0-0.1,0-0.1l1-0.4c-0.7,0-1.4,0.1-2.1,0.2l-1,0.4c0,0,0,0.7-0.3,0.9c-0.3,0.2-0.7,0.1-0.9-0.2c-0.1-0.2-0.1-0.4,0-0.6
	c-0.2,0-0.4-0.2-0.4-0.4c0.1-0.6,0.4-1.1,0.9-1.4l0.7-0.4c0,0-0.5-0.1-0.3-0.4c0.2-0.3,2.2-0.2,2.6-0.2s1.2-0.5,1.7-0.6
	s2,0.3,2.3,0.2s1.1-0.5,1.2-0.8c-0.2-2.4-0.7-4.8-1.2-7.2c-0.4-1.9-2.1-5.7-2.4-6.8s0.4-2.6,0.4-3l-0.2-2c-1.2-0.3-2.5,0-3.6,0.7
	c-1.4,1.2-4.3,5-5.2,5.8c-0.9,0.7-1.8,1.3-2.7,1.9c-1.3,1.4-2.7,2.6-4.2,3.7c-1.6,1-8.4,3.9-8.4,3.9c-0.2,0.6-0.4,1.1-0.8,1.6
	c-0.8,0.3-1.6,0.4-2.5,0.4c-0.7,0-3.5,1.2-4.2,1.3c-0.5,0-1-0.2-1.4-0.5c-0.2-0.2-0.3-0.5-0.2-0.7c0.1-0.2,1.2-0.1,1.4-0.1
	s4.5-3.2,4.5-3.2c0.8-0.5,1.6-1.2,2.3-1.8c0.5-0.5,3-3.3,4.2-4.4s4.8-3.9,4.8-3.9s3.8-4,3.9-4.4c0-0.6,0.2-1.3,0.5-1.8
	c0,0-9.3-1.4-7-10.2c1.5-5.6,7.9-5.2,9-5c1.7,0.2,2.7,2.2,4,2.4c0.7,0.1,1.4,0.1,2-0.2C64.8,5.7,66.3,0.9,70.7,0.5z"/>
<path class="st0" d="M70.7,0.5c5.9-0.3,11.7,6.9,16.7,7.2S98,4.1,104.7,5.4s13.7,8.7,13.7,8.7s6,2.9,8.2,4.3c5.6,1.5,7,0,11.4,1.4
	s8.6,5.5,13.6,7.1c2.4,1,5.2,0.6,6,1.2c1.3,1,0,4.8,0,4.8c2.2,1.4,4.4,2.7,6.7,3.8c2.4,0.9,4.3,1.1,4.7,2.3s-0.3,2.7-0.5,4
	s-1.3,7-1.4,7.7c-0.2,0.6-0.5,1.1-0.9,1.5c0,0-0.4,0.9-0.9,1.1c-0.4,0.1-0.9,0.1-1.3,0c-0.7,0.1-1.4-0.1-1.8-0.6
	c-2,0.2-1.7-0.8-1.7-0.8s0.8-1.6,1.1-2.2c0.3-0.6,0.1-4.4-0.5-6c-0.6-1.6-3.7-3.9-3.7-3.9s-1.6,0.7-2,1c-2.4,1-3.4,0.5-3.5,0.1
	c-0.1-0.4,0.5-1,0.5-1c0-0.2,0.1-0.4,0.2-0.5c0.2-0.3,1-0.3,1-0.3s0.6-0.3,1-0.6c-4.4-2-16.8-6.1-18.4-6.3c-1.3-0.1-2.6-0.2-3.8-0.4
	c-1.8-0.4-15.4-1.8-25.1-7.8c-1.8-0.4-3.5-1.1-4.9-2.2c-6.5,3.3-17.1,2.6-20.8,2c-1.3-0.1-5.8,1.9-7.1,1.3c0.3,3.1,0.5,6.2,0.4,9.4
	c0.1,2.3-0.1,4.6-0.6,6.9c-0.4,0.7-1.1,1.3-1.9,1.6c-0.8,0-1.5,0-2.2-0.1c-1,0.4-2,0.7-3.1,0.8c-0.4,0-0.7-0.3-0.7-0.7
	c0-0.1,0-0.1,0-0.1l1-0.4c-0.7,0-1.4,0.1-2.1,0.2l-1,0.4c0,0,0,0.7-0.3,0.9c-0.3,0.2-0.7,0.1-0.9-0.2c-0.1-0.2-0.1-0.4,0-0.6
	c-0.2,0-0.4-0.2-0.4-0.4c0.1-0.6,0.4-1.1,0.9-1.4l0.7-0.4c0,0-0.5-0.1-0.3-0.4c0.2-0.3,2.2-0.2,2.6-0.2s1.2-0.5,1.7-0.6
	s2,0.3,2.3,0.2s1.1-0.5,1.2-0.8c-0.2-2.4-0.7-4.8-1.2-7.2c-0.4-1.9-2.1-5.7-2.4-6.8s0.4-2.6,0.4-3l-0.2-2c-1.2-0.3-2.5,0-3.6,0.7
	c-1.4,1.2-4.3,5-5.2,5.8c-0.9,0.7-1.8,1.3-2.7,1.9c-1.3,1.4-2.7,2.6-4.2,3.7c-1.6,1-8.4,3.9-8.4,3.9c-0.2,0.6-0.4,1.1-0.8,1.6
	c-0.8,0.3-1.6,0.4-2.5,0.4c-0.7,0-3.5,1.2-4.2,1.3c-0.5,0-1-0.2-1.4-0.5c-0.2-0.2-0.3-0.5-0.2-0.7c0.1-0.2,1.2-0.1,1.4-0.1
	s4.5-3.2,4.5-3.2c0.8-0.5,1.6-1.2,2.3-1.8c0.5-0.5,3-3.3,4.2-4.4s4.8-3.9,4.8-3.9s3.8-4,3.9-4.4c0-0.6,0.2-1.3,0.5-1.8
	c0,0-9.3-1.4-7-10.2c1.5-5.6,7.9-5.2,9-5c1.7,0.2,2.7,2.2,4,2.4c0.7,0.1,1.4,0.1,2-0.2C64.8,5.7,66.3,0.9,70.7,0.5z"/>
<path class="st0" d="M62.2,10.2c-0.4,0.8-0.7,1.6-0.8,2.5c-0.7,0.6-1.2,1.3-1.7,2.1c-1.7,0.9-3,3.7-3,3.7"/>
<path class="st0" d="M68.3,20.1c0,0,3,4.5,6.1,4.8"/>
<path class="st0" d="M126.6,18.2c0,0,5.5,4.3,10.6,5.8c10.3,0,16.8,6.7,20.4,8.8"/>
<line class="st2" x1="154.4" y1="38.2" x2="157.2" y2="39.4"/>
</svg>
