<?xml version="1.0" encoding="utf-8"?>
<!-- Generator: Adobe Illustrator 21.1.0, SVG Export Plug-In . SVG Version: 6.00 Build 0)  -->
<svg version="1.1" id="Layer_2" xmlns="http://www.w3.org/2000/svg" xmlns:xlink="http://www.w3.org/1999/xlink" x="0px" y="0px"
	 viewBox="0 0 489.5 489.5" style="enable-background:new 0 0 489.5 489.5;" xml:space="preserve">
<style type="text/css">
	.st0{fill:#EB5858;}
	.st1{fill:#FFFFFF;}
	.st2{fill:#EB5858;stroke:#FFFFFF;stroke-miterlimit:10;}
</style>
<path class="st0" d="M201.6,87.2c0,0-6.2,2.6-10,11.8c-3.8,9.3-5.2,14.5-5.2,14.5l-5.7,23.5c0,0-1,2.3-1,3.5s7.7,3,7.7,3l0.5,23.7
	l-1.1,20.3c0,0-1.5,9-1.3,15.7c0.2,6.6,1.1,25.1,1.3,28.8c0.1,3.7-0.1,15-0.1,15v5.1c0,0-3.1,10.1-3.1,15.5c0,5.5,2.4,14.7,2.4,14.7
	s2.7,3.8,4,4s2-0.8,2-0.8l3.2,2.3c0,0-1.7,5.6-0.8,7.3c0.9,1.7,13.7,6,13.7,6s2.8,12.8,3.8,17c0.9,4.2,2.3,20.8,2.3,20.8l-1,9
	c0,0-1.1,25.8,5.2,47.8c4,15.3,12,38,12,38l-0.5,7.3c0,0-1.8,1.5-2.2,3.8s-0.7,11.8-0.7,11.8s-4.5,13.3-5.3,18.7s1,8,1,8
	s6.5,4.5,14.2,4.5c7.7,0,14.7-3,14.7-3s6.3,3,14,3c4.3,0,13.9-1,15.3-5.5c0.4-1.3,0.1-2.8,0.3-5.3c0.2-2.5-0.3-5.5-0.3-5.5l-5.8-23
	c0,0-2.4-11.1-2.8-12.8c-0.4-1.8,0.5-4.7,0.5-4.7s12.5-49.4,14.2-59c0.4-2.3,1.5-7.4-0.5-21.2c-0.9-3-2-9.1-1.7-13.3
	c0.3-4.2,0.5-7.5,0.8-12.2c0.3-4.7,3.8-25,3.8-25s15-8.5,15.7-10.5c0.6-2-0.4-10.7-4.7-42.2c-0.5-3.9-6.9-28.5-10.2-42
	c-0.4-1.8-0.5-6-0.5-6s2-0.6,2.3-3.3c1.3-7-2.7-32.3-2.7-32.3s2.9-9,2.7-19.2c1.9-1.4,6.7-18.9,6.7-18.9s4.3-0.4,4.5-3.7
	c0.2-1.6,0.1-8.8,2.9-11.2c2.8-2.4,2.8-17.1,2.8-23c0-1.9-2.5-9.1-10-11c-4.3-1.3-13,1.1-13,1.1s-8.8,0-13.2-2.7
	c-4.4-2.6-5.9-3.9-6.7-6.1c-0.9-2.3-1-4.3-0.7-6.9c0.3-2.6,4.4-7.7,4.6-11.7c2.3-0.2,4.9-5.7,5.6-7.9c0.7-2.2,1.7-7.2,0.7-8.3
	s-2.5,0.1-2.5,0.1s1.6-13-2.8-22.5C265.7,1.4,252.1,1,252.1,1h-0.6c0,0-13.6,0.4-18.7,11c-4.4,9.5-2.8,22.4-2.8,22.4s-1.5-1.1-2.5,0
	s0,6.1,0.7,8.4s3.2,7.8,5.6,7.9c0.2,4,4.3,9.2,4.6,11.8s0.1,4.6-0.7,6.9s-6.8,6.2-6.8,6.2L201.6,87.2z"/>
<path class="st1" d="M210.3,165c-0.4,1.3,0.4,5,0.4,5s-2.3,5.5-0.6,7.1c0.8,0.6,0,1.8,0,1.8s-1.7,2.9-1.4,5.6
	c-2,0.7-2.6,2.9-2.6,2.9s1-3.8,1.1-6.9s1.5-21.9,1.5-21.9S210.1,163,210.3,165z"/>
<path class="st1" d="M246.9,290.3c0,0,0.1,5-0.8,7.8s-1.5,3.9-1.5,3.9s0,16,0,22s-0.7,11.2-0.9,14.1s-2.7,19-2.7,19
	s1.2,12.3,2.1,21.9s-0.4,27.6,0,34.9s0.9,12.1,1.3,16.4s2.5,7.2,2.5,7.2l4.6,7.3l5-10c0,0,2.9-7.8,2-15c0-4.1-1.8-35-1.3-45.8
	s1.3-16.3,1.3-16.3s-4-21.5-4.3-29.7s0-15,0-15l-2-17.9c0,0-1-0.5-1.5-1.7s-2-7.1-2-7.1L246.9,290.3z"/>
<path class="st2" d="M266.6,153.3c-3.8,1.1-6.1,1-6.1,1s-4.3,0.7-6,0c-1.7-0.7-3.9-4.6-3.9-4.6s-12.1-10.1-17.5-20.9
	c-0.9-2-15.2-27.3-16.1-29c-7.3-2-15.2-11.8-15.7-12.8s-1.3-1.2-0.7-2.8c0.5-0.9,0.6-1.5,1.4-1.8s3.4,0.9,3.4,0.9s1-2.7,2.1-3
	s3.1,0,3.1,0s0.8-0.8,1.9-1s2,0,2,0s0.2-2.4,3.1-3.1c1.9-0.5,4.9,1.4,4.9,1.4s2.5-3.3,4.8-2.2c4.2,4.9,3.3,17.5,3.3,17.5
	s4.8,7.9,12,15.8c9.6,11.4,19.3,15.8,19.3,15.8s5.9-14.5,9.6-15.7c9.6-6.7,29.4,11.1,29.4,11.1S287.2,144.2,266.6,153.3z"/>
</svg>
