<?xml version="1.0" encoding="utf-8"?>
<!-- Generator: Adobe Illustrator 21.1.0, SVG Export Plug-In . SVG Version: 6.00 Build 0)  -->
<svg version="1.1" id="Layer_1" xmlns="http://www.w3.org/2000/svg" xmlns:xlink="http://www.w3.org/1999/xlink" x="0px" y="0px"
	 viewBox="0 0 112.1 71.6" style="enable-background:new 0 0 112.1 71.6;" xml:space="preserve">
<style type="text/css">
	.st0{fill:#EB5858;stroke:#FFFFFF;stroke-miterlimit:10;}
	.st1{fill:#EB5858;}
	.st2{fill:none;stroke:#FFFFFF;stroke-width:0.5;stroke-miterlimit:10;}
</style>
<title>ankle_clearing_screen_left</title>
<path class="st0" d="M76.2,38.4c0,5.2-7.2,7.8-7.2,7.8l-11.6,9.6c0,0,1.7,0.6,1.9,1.2c0.1,1.1,0.2,2.1,0.2,3.1c0,0.5,1.1,1.4,1,2.1
	c-0.2,1.1-1.1,1.8-2.2,1.9c-1.3,0.1-4.9-0.3-6.1-0.3c-1.2,0-7.4,0.4-8.8,0.2s-2.6-0.5-2.2-2.9c0.8-1,3.7-1.2,4.8-1.6
	c1.2-0.6,2.3-1.4,3.4-2.2c-0.2-0.7-0.1-1.4,0.1-2c0.3-0.4,0.8-0.6,1.3-0.6l-3-4.6c0,0-3.2,0-4.4,0.8s-5.7,6.4-7.8,7.6
	c-1.4,0.8-3,1.2-4.7,1.3c0,0-8,3-9.1,3.7s-1.2,1.2-1.2,1.2l-0.7,2.5c0.2,1,0.2,2,0.1,3c-0.2,0.6-0.7,0.9-2.1,0.9s-2.4-0.9-4-1.4
	c-2.6-0.6-5.2-1-7.8-1.3c0,0-4.7-1-5.1-1.4s-0.7-1.4,0.1-1.8s4-1.2,5.2-1.6c1.5-0.6,3-1.3,4.4-2.1c0,0,1.8-2,2.6-1.9
	c0.5,0.1,0.9,0.4,1.1,0.8c0,0,6.6-2.9,8.9-4.2s8.6-6.4,11.8-8.6c1-1.6,5.4-5.1,5.4-5.1s-2.9-4.9-3-6.8c-0.2-1.4,0.3-2.8,1.2-3.9
	c1.1-1.3,5.2-2.3,5.2-2.3s-3.7-1.8-4.6-2.8c-0.7-0.7-1.2-1.5-1.6-2.3c0,0-10.9,6.9-11.8,7.6c-1.4,1.6-3.2,3-5.2,4
	c-2.6,1.3-10.4,3-10.4,3S7.5,40.4,7,41.6s0.1,0.6,0,1.4c-0.2,0.5-0.8,0.9-1.4,0.9c-0.8,0-2.8-1.8-3-2.4s-0.3-2.6,0.6-3.2
	s3.8-1.4,4.9-1.8c2-1,4-2.3,5.8-3.7c2.8-2.4,9.9-7,9.9-7l3.6-2.7c0,0-6.4,3.6-8.8,4.1s-7.9,0.9-8.8,1S7.9,29.8,7,29.8
	s-2.4-0.7-3.4-0.6s-1.1,2.4-1.5,2.5s-1.8-1-1.6-3.4c0-0.6,1.3-1.8,2.4-2c1.4-0.2,2.8-0.2,4.2-0.2c1-0.1,2-0.3,3-0.6
	c1.3-0.4,10.6-5.9,11.8-6.4c0.9-0.3,1.8-0.5,2.7-0.6c1.7-0.8,3.4-1.7,5-2.6c0,0-0.6,0.2-0.9-0.1s-0.4-2-0.8-2.1
	c-0.4-0.2-0.9-0.4-1.3-0.7c0,0-3-2.2-3.3-3.2s-0.7-7.5,4.6-9S35,3.6,35,3.6s3,3.6,4.8,3.8c1.3,0.1,2.7,0.1,4,0
	c1.3,0,5.4,2.6,11.2,3.5c4.1,0.9,15.7,7,19.9,21.3C74.9,33,76.2,33.2,76.2,38.4z"/>
<path class="st1" d="M76.2,38.4c0,5.2-7.2,7.8-7.2,7.8l-11.6,9.6c0,0,1.7,0.6,1.9,1.2c0.1,1.1,0.2,2.1,0.2,3.1c0,0.5,1.1,1.4,1,2.1
	c-0.2,1.1-1.1,1.8-2.2,1.9c-1.3,0.1-4.9-0.3-6.1-0.3c-1.2,0-7.4,0.4-8.8,0.2s-2.6-0.5-2.2-2.9c0.8-1,3.7-1.2,4.8-1.6
	c1.2-0.6,2.3-1.4,3.4-2.2c-0.2-0.7-0.1-1.4,0.1-2c0.3-0.4,0.8-0.6,1.3-0.6l-3-4.6c0,0-3.2,0-4.4,0.8s-5.7,6.4-7.8,7.6
	c-1.4,0.8-3,1.2-4.7,1.3c0,0-8,3-9.1,3.7s-1.2,1.2-1.2,1.2l-0.7,2.5c0.2,1,0.2,2,0.1,3c-0.2,0.6-0.7,0.9-2.1,0.9s-2.4-0.9-4-1.4
	c-2.6-0.6-5.2-1-7.8-1.3c0,0-4.7-1-5.1-1.4s-0.7-1.4,0.1-1.8s4-1.2,5.2-1.6c1.5-0.6,3-1.3,4.4-2.1c0,0,1.8-2,2.6-1.9
	c0.5,0.1,0.9,0.4,1.1,0.8c0,0,6.6-2.9,8.9-4.2s8.6-6.4,11.8-8.6c1-1.6,5.4-5.1,5.4-5.1s-2.9-4.9-3-6.8c-0.2-1.4,0.3-2.8,1.2-3.9
	c1.1-1.3,5.2-2.3,5.2-2.3s-3.7-1.8-4.6-2.8c-0.7-0.7-1.2-1.5-1.6-2.3c0,0-10.9,6.9-11.8,7.6c-1.4,1.6-3.2,3-5.2,4
	c-2.6,1.3-10.4,3-10.4,3S7.5,40.4,7,41.6s0.1,0.6,0,1.4c-0.2,0.5-0.8,0.9-1.4,0.9c-0.8,0-2.8-1.8-3-2.4s-0.3-2.6,0.6-3.2
	s3.8-1.4,4.9-1.8c2-1,4-2.3,5.8-3.7c2.8-2.4,9.9-7,9.9-7l3.6-2.7c0,0-6.4,3.6-8.8,4.1s-7.9,0.9-8.8,1S7.9,29.8,7,29.8
	s-2.4-0.7-3.4-0.6s-1.1,2.4-1.5,2.5s-1.8-1-1.6-3.4c0-0.6,1.3-1.8,2.4-2c1.4-0.2,2.8-0.2,4.2-0.2c1-0.1,2-0.3,3-0.6
	c1.3-0.4,10.6-5.9,11.8-6.4c0.9-0.3,1.8-0.5,2.7-0.6c1.7-0.8,3.4-1.7,5-2.6c0,0-0.6,0.2-0.9-0.1s-0.4-2-0.8-2.1
	c-0.4-0.2-0.9-0.4-1.3-0.7c0,0-3-2.2-3.3-3.2s-0.7-7.5,4.6-9S35,3.6,35,3.6s3,3.6,4.8,3.8c1.3,0.1,2.7,0.1,4,0
	c1.3,0,5.4,2.6,11.2,3.5c4.1,0.9,15.7,7,19.9,21.3C74.9,33,76.2,33.2,76.2,38.4z"/>
<path class="st2" d="M69,46.5c-3.7,0.9-21.4,4-21.4,4"/>
<path class="st2" d="M56.3,31.8C48.8,34.7,40,42.5,40,42.5"/>
</svg>
