<?xml version="1.0" encoding="utf-8"?>
<!-- Generator: Adobe Illustrator 22.0.1, SVG Export Plug-In . SVG Version: 6.00 Build 0)  -->
<svg version="1.1" id="Layer_1" xmlns="http://www.w3.org/2000/svg" xmlns:xlink="http://www.w3.org/1999/xlink" x="0px" y="0px"
	 viewBox="0 0 66.6 78.4" style="enable-background:new 0 0 66.6 78.4;" xml:space="preserve">
<style type="text/css">
	.st0{fill:#FBDEDE;stroke:#EB5858;stroke-width:0.5;stroke-miterlimit:10;}
	.st1{fill:none;stroke:#EB5858;stroke-width:0.5;stroke-miterlimit:10;}
</style>
<title>broad_jump_hands_on_hips</title>
<path class="st0" d="M3,10.1c5.3-4.8,18.2-3.8,18.2-3.8s21.4,1.5,24.5,1.9s3.8,0.4,4.9,0.7S52,7.3,52,7.3c-0.2-3.6,2.3-6.7,5.8-7.3
	c6.6,0,8.8,5.2,8.8,7.2c-0.1,1.4-0.4,2.8-1,4.1l-0.8,0.6c0,0,0.4,2.7-0.1,3.2c-0.5,0.3-1.1,0.5-1.7,0.6c0,0-1.5,3.4-2.2,3.5
	s-2.6-1-3.6-1.2c-1.5-0.4-7.9,1.2-7.9,1.2c0,0.6-0.1,1.1-0.3,1.7c-0.3,0.4-1.1,0-1.1,0s-3.8,3.8-6.1,4.7s-8.6,1.3-10,1.5
	c-1.4,0.1-2.8,0.1-4.2,0c0,0,2.6,7.3,2.9,7.9s1.5,2,1.8,3.2c0,1.4-0.4,2.7-1.2,3.8L22,55.3c-0.7,1.2-1.2,2.5-1.7,3.8
	c-0.1,0.6,0.1,1.2,0.6,1.6c0.8,0.9,1.7,1.6,2.7,2.2c0.6,0.2,6,1,6.3,1.6c0.5,0.9-0.2,1.7-0.4,2.1c-0.7,0.9-6.3,1.4-6.3,1.4h-5.9
	c0.1,0.7,0.3,1.4,0.6,2.1c0.5,1.1,4.3,3,4.3,3s3.2,0.5,3.6,1.3c0.2,0.7,0.1,1.4-0.4,1.9c-0.6,1-4.5,2.2-7,2.2
	c-2.3,0-4.5-0.3-6.8-0.7c-1.5-0.4-2.9-1.1-4.2-2.1C7.2,75.3,8,74,8,74s0-4.5,1.7-5.4c0.4-1.4,2.9-10.6,2.9-11.8c0-2.1,0.3-4.3,1-6.3
	c0.9-2.3,5.2-7.7,5.2-7.7l-1.5-2.2c0,0-7.4-1.9-8.4-2S6,39.4,5.5,39.2s-0.3-1.8-0.6-2.8l-3.8-13C1.1,23.4-2.3,14.9,3,10.1z"/>
<path class="st1" d="M37.3,10.3c1.5,0.7,2.8,7.8-4,9c-1.3-0.2-2.8-1.8-4.8-1.6s-4.6-1-6.2-1.2l-5.2-0.4l0.8,2.7
	c0.2,0.7-0.2,1.3-0.8,1.6c-2,0.8-4.3,0.4-5.8-1.1c-0.8-0.8-1.2-2.1-1.2-4s2.6-4,2.6-4s-0.6-2.2,0.5-2.2s1.8,1.7,1.8,1.7
	S20.1,9,23.4,9h3.4C30.3,8.5,33.3,9.2,37.3,10.3z"/>
</svg>
