<?xml version="1.0" encoding="utf-8"?>
<!-- Generator: Adobe Illustrator 22.0.1, SVG Export Plug-In . SVG Version: 6.00 Build 0)  -->
<svg version="1.1" id="Layer_1" xmlns="http://www.w3.org/2000/svg" xmlns:xlink="http://www.w3.org/1999/xlink" x="0px" y="0px"
	 viewBox="0 0 142.6 117.7" style="enable-background:new 0 0 142.6 117.7;" xml:space="preserve">
<style type="text/css">
	.st0{fill:#EB5858;}
	.st1{fill:#FFFFFF;}
	.st2{fill:none;stroke:#FFFFFF;stroke-linecap:round;stroke-miterlimit:10;}
	.st3{fill:#EB5858;stroke:#FFFFFF;stroke-miterlimit:10;}
</style>
<title>ankle_clearing_right</title>
<path class="st0" d="M26.3,0l60.5,0.8c0,0,15,12.8,20.4,18.7c5.4,5.9,2.7,10.7,1.8,13s-7.9,18.9-9.5,22.9s-7.7,11-10.5,16.5
	c-2.8,5.5-6,16.5-6,16.5s4,0.1,2.9,5.5c5.4,5.8,14.9,7.9,17.4,8c2.1,0.2,4,0.8,5.9,1.7c0,0-46.1,0-47.5,0c1.4-2.6,3-13.4,4.5-9.4
	s8.3-19.3,9-22.5c0.3-9.5,3.4-15.1,3.4-15.1S59,74.6,50.8,77.7c-4.9,3.7-9.3,8.1-12.9,13.1c0,0,1.8-0.2,2.5,3.8s18.6,9,18.6,9H14.7
	c0,0,2.5-15.1,5.3-10c6.8-8.3,15.2-16.3,17.3-20.8c10.1-19.3,22.8-25.2,22.8-25.2s5.3-2.3,3-6.7c-2.1-6-21.8-22.7-26.7-31.8
	C32.6,7,26.3,0,26.3,0z"/>
<path class="st1" d="M87,36.8l-3.9-9c0,0,4.2,2.1,5.4,4.6C89.2,34.1,87,36.9,87,36.8z"/>
<path class="st2" d="M70.3,0.5c0,0,14.5,28.3,17,38.2s-8.7,17.9-8.7,17.9"/>
<polygon class="st3" points="3.7,103.7 142.1,103.6 141.9,117.1 0.5,117.2 0.6,108.7 "/>
<g>
	<g>
		<path class="st0" d="M129.9,73.1c1.3-1.3,0.9-3.8-1.3-3.8l-5.8,0c0.2-1.2,0.5-3.2,0.5-3.4c-0.1-1.8-1.3-4-1.3-4.1
			c-0.2-0.4-1.3-0.9-2.3-0.7c-1.4,0.3-1.5,1.2-1.5,1.4c0,0,0.1,2.4,0.1,3.1c-0.7,1.5-2.9,5.3-3.6,5.6c-0.2-0.1-0.4-0.2-0.5-0.2h-7.3
			c-0.6,0-1.1,0.5-1.1,1.1l0,10.1c0,0.5,0.5,1,1.1,1h6.5c0.6,0,1.1-0.5,1.1-1.1v-0.3c0,0,0.2,0,0.4,0.1c0.4,0.3,0.9,0.6,1.6,0.6h9.8
			c3.7,0,3.3-3.2,2.9-3.7c0.6-0.7,1-1.9,0.5-2.8C129.8,75.4,130.5,74.3,129.9,73.1z M113,82h-6.3V72h6.3V82z M128.2,73l-0.1,0.2
			c1.7,0.5,0.8,2.4-0.4,2.5l-0.1,0.2c1.6,0.4,0.8,2.4-0.4,2.5l-0.1,0.2c1.3,0.2,1,2.5-1,2.5l-9.9,0c-0.7,0-1.3-0.8-1.9-0.8h-0.5
			v-7.7c0.6-0.3,1.3-0.8,1.6-1.1c0.7-0.6,3.7-5.4,3.7-6c0-0.6-0.1-3.2-0.1-3.2s0.6-0.8,1.9-0.2c0,0,1.1,2.1,1.2,3.7
			c0,0-0.5,3.4-0.8,4.4h6.9C130.1,70.3,129.8,72.7,128.2,73z"/>
	</g>
</g>
</svg>
