<?xml version="1.0" encoding="utf-8"?>
<!-- Generator: Adobe Illustrator 22.0.1, SVG Export Plug-In . SVG Version: 6.00 Build 0)  -->
<svg version="1.1" id="Layer_1" xmlns="http://www.w3.org/2000/svg" xmlns:xlink="http://www.w3.org/1999/xlink" x="0px" y="0px"
	 viewBox="0 0 142.6 117.7" style="enable-background:new 0 0 142.6 117.7;" xml:space="preserve">
<style type="text/css">
	.st0{fill:#EB5858;}
	.st1{fill:#FFFFFF;}
	.st2{fill:none;stroke:#FFFFFF;stroke-linecap:round;stroke-miterlimit:10;}
	.st3{fill:#EB5858;stroke:#FFFFFF;stroke-miterlimit:10;}
</style>
<title>ankle_clearing_right</title>
<path class="st0" d="M26.3,0l60.5,0.8c0,0,14.8,12.8,20.3,18.7s2.8,10.8,1.8,13s-8,18.9-9.5,22.9s-7.6,10.9-10.5,16.5
	s-6,16.5-6,16.5s4,0.2,2.9,5.5c5.4,5.8,14.9,7.9,17.4,8c2,0.2,4,0.8,5.9,1.7c0,0-46.1,0-47.5,0c1.4-2.6,3-13.4,4.5-9.4
	s8.3-19.3,9-22.5c0.4-9.5,3.4-15.1,3.4-15.1s-19.6,18-27.8,21.1c-4.9,3.7-9.3,8.1-12.9,13.1c0,0,1.8-0.2,2.5,3.8s18.6,9,18.6,9H14.8
	c0,0,2.5-15.1,5.3-10c6.7-8.3,15.2-16.3,17.3-20.8c10.1-19.4,22.8-25.2,22.8-25.2s5.3-2.3,3-6.7c-2.2-6-21.8-22.8-26.7-31.8
	C32.6,7,26.3,0,26.3,0z"/>
<path class="st1" d="M87,36.9l-3.9-9c0,0,4.2,2,5.4,4.6C89.1,34.1,87,36.9,87,36.9z"/>
<path class="st2" d="M70.3,0.5c0,0,14.5,28.3,17,38.2s-8.7,17.9-8.7,17.9"/>
<polygon class="st3" points="3.7,103.7 142.1,103.6 141.9,117.1 0.5,117.2 0.6,108.7 "/>
<g>
	<g>
		<path class="st0" d="M21.6,77.6c0-0.1-0.2-0.1-0.3-0.1h-3.6l3.6-5.6c0-0.2,0-0.2,0-0.3c-0.2-0.1-0.2-0.1-0.3-0.1h-4.8
			c-0.2,0-0.3,0-0.3,0.1l-4.6,9c0,0.2,0,0.2,0,0.3c0.2,0.1,0.2,0.1,0.3,0.1h3.2l-3.3,8c0,0.1,0,0.3,0.1,0.4h0.1
			c0.2,0,0.3-0.1,0.3-0.1l9.6-11.5C21.6,77.6,21.6,77.6,21.6,77.6z"/>
	</g>
</g>
<g>
	<g>
		<path class="st0" d="M16.8,69.4c0.1-0.2,0.1-0.2,0-0.3l-2.6-2.6l6.5-1.4c0.2,0,0.3,0,0.3-0.1c0-0.2,0-0.2-0.1-0.3l-3.4-3.4
			c0-0.1-0.2-0.1-0.3-0.1l-9.9,3.2c0,0.2-0.1,0.2-0.1,0.3c0,0.2,0,0.2,0.1,0.3l2.2,2.2l-8,3.3c-0.1,0-0.1,0.2-0.1,0.3
			c0.1,0,0.1,0.1,0.1,0.1C1.7,71,1.7,71,1.8,71l14.9-1.3C16.9,69.7,16.9,69.6,16.8,69.4z"/>
	</g>
</g>
</svg>
