<?xml version="1.0" encoding="utf-8"?>
<!-- Generator: Adobe Illustrator 22.0.1, SVG Export Plug-In . SVG Version: 6.00 Build 0)  -->
<svg version="1.1" id="Layer_1" xmlns="http://www.w3.org/2000/svg" xmlns:xlink="http://www.w3.org/1999/xlink" x="0px" y="0px"
	 viewBox="0 0 142.6 117.7" style="enable-background:new 0 0 142.6 117.7;" xml:space="preserve">
<style type="text/css">
	.st0{fill:#EB5858;}
	.st1{fill:#FFFFFF;}
	.st2{fill:none;stroke:#FFFFFF;stroke-linecap:round;stroke-miterlimit:10;}
	.st3{fill:#EB5858;stroke:#FFFFFF;stroke-miterlimit:10;}
</style>
<title>ankle_clearing_right</title>
<path class="st0" d="M106.2,9.1c-4.9,9.1-24.6,25.8-26.7,31.8c-2.3,4.4,3,6.7,3,6.7s12.7,5.9,22.8,25.2c2.1,4.5,10.5,12.5,17.3,20.8
	c2.8-5.1,5.3,10,5.3,10H83.6c0,0,17.9-5,18.6-9s2.5-3.8,2.5-3.8c-3.6-5-8-9.4-12.9-13.1C83.6,74.6,64,56.6,64,56.6s3.1,5.6,3.4,15.1
	c0.7,3.2,7.5,26.5,9,22.5s3.1,6.8,4.5,9.4c-1.4,0-47.5,0-47.5,0c1.9-0.9,3.8-1.5,5.9-1.7c2.5-0.1,12-2.2,17.4-8
	c-1.1-5.4,2.9-5.5,2.9-5.5s-3.2-11-6-16.5s-8.9-12.5-10.5-16.5s-8.6-20.6-9.5-22.9s-3.6-7.1,1.8-13S55.8,0.8,55.8,0.8L116.3,0
	C116.3,0,110,7,106.2,9.1z"/>
<path class="st1" d="M54.1,32.4c1.2-2.5,5.4-4.6,5.4-4.6l-3.9,9C55.6,36.9,53.4,34.1,54.1,32.4z"/>
<path class="st2" d="M64,56.6c0,0-11.2-8-8.7-17.9s17-38.2,17-38.2"/>
<polygon class="st3" points="142,108.7 142.1,117.2 0.7,117.1 0.5,103.6 138.9,103.7 "/>
<g>
	<g>
		<path class="st0" d="M13.2,75.9c-0.5,0.9-0.1,2.1,0.5,2.8c-0.3,0.4-0.7,3.7,2.9,3.7h9.8c0.7,0,1.2-0.3,1.6-0.6
			c0.1-0.1,0.4-0.1,0.4-0.1V82c0,0.6,0.5,1.1,1.1,1.1h6.5c0.5,0,1-0.4,1.1-1L37,72c0-0.6-0.5-1.1-1.1-1.1h-7.3
			c-0.2,0-0.4,0.1-0.5,0.2c-0.7-0.3-3-4.1-3.6-5.6c0-0.6,0.1-3.1,0.1-3.1c0-0.2-0.1-1.1-1.5-1.4c-1.1-0.2-2.1,0.3-2.3,0.7
			c0,0.1-1.2,2.3-1.3,4.1c0,0.2,0.3,2.2,0.5,3.4l-5.8,0c-2.2,0-2.6,2.6-1.3,3.8C12.1,74.3,12.8,75.4,13.2,75.9z M29.6,72H36V82h-6.3
			V72z M14.2,70.3h6.9c-0.3-1.1-0.8-4.4-0.8-4.4c0.1-1.6,1.2-3.7,1.2-3.7c1.3-0.5,1.9,0.2,1.9,0.2s-0.1,2.6-0.1,3.2
			c0,0.6,3,5.4,3.7,6c0.4,0.3,1.1,0.8,1.6,1.1v7.7h-0.5c-0.5,0-1.2,0.8-1.9,0.8l-9.9,0c-2,0-2.3-2.3-1-2.5l-0.1-0.2
			c-1.3-0.1-2-2.1-0.4-2.5l-0.1-0.2c-1.2-0.1-2.1-2.1-0.4-2.5L14.4,73C12.8,72.7,12.5,70.3,14.2,70.3z"/>
	</g>
</g>
</svg>
