<?xml version="1.0" encoding="utf-8"?>
<!-- Generator: Adobe Illustrator 22.0.1, SVG Export Plug-In . SVG Version: 6.00 Build 0)  -->
<svg version="1.1" id="Layer_1" xmlns="http://www.w3.org/2000/svg" xmlns:xlink="http://www.w3.org/1999/xlink" x="0px" y="0px"
	 viewBox="0 0 489.5 489.5" style="enable-background:new 0 0 489.5 489.5;" xml:space="preserve">
<style type="text/css">
	.st0{fill:#FBDEDE;}
	.st1{fill:#EB5858;}
</style>
<g id="Layer_2_1_">
</g>
<g id="Layer_3">
	<g>
		<path class="st0" d="M372.7,237.7c0,0,16.6,77.5,16.6,96.6s-1.2,46.4-12.7,71.1c-3.3,4.4-6.2,8.7-15.1,7.7s-34.1-21.3-34.1-21.3
			s9.5,24.7,8.3,33.5s-5.3,12.1-5.3,12.1l-2.7,4.4c0,0,1.3,1.7,1.2,3.9c2.7,1.5,2.1,5.6,2.1,5.6H150.3c0,0-1.5-2-0.6-4.1
			c0.9-2,3-4.1,3-4.1s-1.5-1.5-1.2-3.3s1.8-2.7,1.8-2.7s-5.9-8.7-6.8-13.3c-0.9-4.6-0.6-8.3-0.6-8.3l-0.6-97.8c0,0-1.4-9.3-2.4-26.1
			c-0.1-15.2,1.2-27.8,1.2-27.8s0.7-3.6-0.3-8.6s-4.9-12.8-6.5-16.3s-8.1-12-11.8-24.9s-10.6-48-13-59c-2.5-11-16.1-57.3-17.8-63.1
			c-1.7-5.7-6.2-24.6,1.5-36.7c2.4-3.3,11.3-8.3,11.3-8.3s15.8-8.7,32.9-5s33.2,19.3,33.2,19.3l19,18.7c0,0,0.3-3.1,2.4-6.8
			c12-24.3,44.7-22.8,44.7-22.8s36.1-1,44.1,34.7c1.9,15.3-1.2,27.6-1.2,27.6s3.4-4.2,5.6-2.7s2.4,4.4,1.5,8s-7.7,19-7.7,19
			s-2.9,10.6-6.2,11c-3.2,0.4-4.4-2.4-4.4-2.4s-2.6,9.5-2.7,16.6s0.8,11.3,3,15.4c2.2,4.1,8.9,6.8,8.9,6.8s0.8-1.5,3.6-1.5
			c2.8,0,69.3,28.5,77.3,35.3C369.5,224.9,372.7,237.7,372.7,237.7z"/>
		<path class="st1" d="M149.6,452.5c0-0.1-1.9-2.7-0.7-5.4c0.7-1.4,1.8-2.8,2.5-3.7c-0.5-0.8-1-2-0.8-3.4c0.2-1.2,0.8-2.1,1.3-2.7
			c-1.6-2.4-5.6-8.9-6.4-12.8c-0.8-4.5-0.6-8.1-0.6-8.6l-0.6-97.6c-0.2-1-1.5-10.3-2.4-26.1v-0.1c-0.1-15.2,1.2-27.9,1.2-28V264
			c0-0.1,0.7-3.4-0.3-8.1c-0.9-4.3-4.1-11.1-5.8-14.7c-0.2-0.5-0.4-0.9-0.6-1.3c-0.4-0.8-1.1-2-2-3.5c-2.6-4.4-7.1-11.8-9.9-21.6
			c-2.7-9.5-7-30.3-10.2-45.6c-1.1-5.6-2.1-10.5-2.8-13.5c-1.5-6.7-7.7-28.6-17.4-61.8l-0.4-1.2c-1.7-5.6-6.5-25.1,1.6-37.8v-0.1
			c2.5-3.5,11.3-8.5,11.7-8.7c0.7-0.4,16.4-9,33.8-5.2c17.2,3.7,33.1,18.9,33.8,19.6l17.2,17c0.4-1.3,1-3,2-4.8
			c5.1-10.3,14.7-17.6,27.7-21.2c9.5-2.6,17.4-2.3,18.2-2.3c0.8-0.1,9.7-0.1,19.6,4c9.5,4,21.6,12.7,25.9,31.7V85
			c1.4,10.4,0.4,19.3-0.4,24.2c1.3-0.7,2.9-1.1,4.3-0.2c2.5,1.6,3.1,4.8,2,9.4c-0.8,3.5-7.1,17.7-7.7,19.1
			c-0.8,2.7-3.5,11.3-7.3,11.8c-1.6,0.2-2.9-0.2-3.9-0.9c-0.7,3.2-1.9,9.1-2,13.8c-0.1,6.6,0.6,10.6,2.8,14.7c1.6,2.8,5.6,5,7.4,5.8
			c0.7-0.6,1.9-1.2,3.9-1.2c2.3,0,26.1,10.2,37.3,15.2c10.6,4.7,35.9,16.2,40.9,20.4c8.2,7,11.6,20,11.7,20.5l0,0
			c0.7,3.2,16.6,77.9,16.6,96.9c0,20.5-1.5,47.2-12.9,71.7l-0.1,0.1l-0.3,0.4c-3.3,4.5-6.7,9.1-16.2,8c-7.1-0.8-23.6-13-31-18.7
			c2.6,7.6,7.6,22.8,6.7,29.7c-1.1,8.2-4.7,12-5.6,12.8l-2.1,3.5c0.3,0.7,0.8,1.8,0.9,3.2c2.7,2.2,2.1,6.3,2.1,6.5l-0.2,1.1H149.9
			L149.6,452.5z M328.2,446.8l-0.7-0.4l0.1-0.8c0.1-1.6-0.9-2.9-0.9-2.9l-0.6-0.7l3.1-5.2l0.1-0.2l0.2-0.1c0,0,3.7-3.1,4.8-11.3
			c1.1-8.4-8.1-32.6-8.2-32.8l-1.8-4.6l3.9,3.1c6.9,5.5,26.4,20.2,33.4,21c8,0.9,10.6-2.7,13.7-6.9l0.1-0.1
			c11.2-24,12.6-50.2,12.6-70.4c0-18.7-16.2-94.5-16.6-96.3c-0.1-0.5-3.4-12.8-10.8-19.1c-3.2-2.7-18.1-10.1-39.7-19.7
			c-18.6-8.2-35-14.9-36.8-15.2c-1.6,0-2.2,0.7-2.3,0.8l-0.4,1.1l-1.3-0.5c-0.3-0.1-7.2-2.9-9.6-7.4s-3.2-9-3.1-16.1
			c0.1-7.2,2.6-16.5,2.7-16.9l1-3.8l1.5,3.6c0,0.2,0.9,1.9,3,1.6c1.3-0.2,3.6-4.8,5.1-10l0.1-0.2c0-0.1,6.7-15.3,7.6-18.7
			c0.3-1.3,1.3-5.1-0.9-6.6c-0.8-0.5-2.8,1.1-3.9,2.4l-3.8,4.6l1.5-5.8c0.1-0.1,3.1-12.2,1.2-27c-1.8-7.9-5.1-14.6-9.9-19.8
			c-3.9-4.2-8.7-7.5-14.3-9.9c-9.7-4.1-18.5-3.9-18.6-3.9l0,0l0,0c-0.1,0-8.1-0.3-17.5,2.3c-12.5,3.4-21.2,10.1-26,19.8v0.1
			c-1.9,3.4-2.2,6.3-2.2,6.3l-0.3,2.8l-20.9-20.7c-0.1-0.1-16-15.3-32.5-18.9c-16.3-3.5-31.8,4.8-31.9,4.9c-2.4,1.4-9,5.4-10.8,7.9
			c-7.4,11.8-2.9,30.2-1.3,35.6l0.4,1.2c9.9,33.7,15.9,55.2,17.4,62c0.6,3,1.6,7.9,2.8,13.5c3.2,15.3,7.5,36.1,10.2,45.4
			c2.8,9.5,7.1,16.7,9.7,21c0.9,1.5,1.7,2.8,2.1,3.7c0.2,0.3,0.4,0.7,0.6,1.2c1.9,4,5,10.6,6,15.3c1,4.9,0.4,8.5,0.3,9.1
			c-0.1,0.9-1.3,13.1-1.2,27.6c1,16.5,2.4,25.8,2.4,25.9v0.1l0.6,97.9v0.1v0.1c0,0-0.2,3.6,0.6,7.9c0.8,4.2,6.5,12.7,6.6,12.8
			l0.8,1.2l-1.2,0.7c0,0.1-1,0.7-1.2,1.8c-0.2,1,0.8,2.1,0.8,2.1l0.9,0.9l-0.9,0.9c-0.5,0.5-2.1,2.2-2.7,3.7
			c-0.4,0.8-0.1,1.7,0.1,2.2h178.3C329.6,449.1,329.3,447.7,328.2,446.8z"/>
	</g>
	<g>
		<path class="st1" d="M225.4,225c-1.6-1.6-4.1-7-4.6-9.3l-2.1-10.6c-0.8-0.4-2.9-1.6-4.3-2.8c-1.3-1.1-2.4-6.1-5.1-22.7
			c-0.5-3.2-1-6-1.2-7.1c-1.9-9.5-7.8-19.9-11.1-23.5c-0.7-0.8-2.4-2.7-4.7-5.3c-6.9-7.8-21.3-24.3-24.4-26l0,0
			c-10.2-6.6-28.8-27.1-33.4-33c-4.3-5.5-6.2-12.7-6.3-13l2-0.5c0,0.1,1.9,7.1,5.9,12.2c4.5,5.8,22.9,26,32.9,32.5
			c3.1,1.9,14.5,14.7,24.9,26.5c2.2,2.5,4,4.5,4.7,5.3c3.6,3.9,9.6,14.5,11.7,24.5c0.2,1.2,0.6,3.8,1.2,7.2
			c1.1,6.5,3.3,19.9,4.4,21.4c1.7,1.4,4.4,2.8,4.4,2.8l0.4,0.2l2.3,11.6c0.4,2,2.9,7.1,4,8.2c1.2,1.2,3.1,2.8,6.2,2.8
			c2.7,0,3.8-2.6,3.8-2.7l0.8-2.1l1.1,2c0.1,0.1,1.6,2.7,6.9,1.9c1.3-0.7,3.1-4.1,4-6.3l0.4-0.9l0.9,0.3c1.2,0.4,5,1.3,6.2-0.4
			c1.7-2.4,1.9-7.3,1.9-7.4v-1.2l1.2,0.3c0.1,0.1,3.2,0.7,4.3-1.5c0.9-1.9-0.1-9.1-1-13.1v-0.1c0-0.1-0.6-7.2-1.7-10.1
			c-1.1-2.8-4.8-6.1-4.8-6.1l-0.2-0.1l-0.1-0.2c0-0.1-5.7-12.8-12.3-16.7l0,0c-2.8-1.9-5.1-6.9-6.3-9.7c-0.2-0.3-0.3-0.6-0.4-0.9
			c-1.4-3.4-2.8-6.9-10.7-14.8v-0.1c-8.9-10.2-34.3-54.3-35.4-56.2l1.8-1c0.2,0.5,26.4,45.7,35.1,55.8c8.2,8.2,9.7,12.1,11.1,15.5
			c0.1,0.3,0.2,0.6,0.3,0.9c1.8,4.4,3.8,7.6,5.5,8.7c6.7,4,12.2,15.7,13,17.4c0.7,0.8,4,3.8,5.1,6.8c1.1,3.1,1.7,9.8,1.8,10.6
			c0.3,1.4,2.4,11.3,0.8,14.4c-1.2,2.6-3.9,2.9-5.4,2.8c-0.2,1.8-0.7,5.4-2.2,7.5c-1.9,2.6-5.8,1.9-7.7,1.4
			c-0.8,1.8-2.7,5.6-4.7,6.6l-0.1,0.1h-0.1c-4.4,0.7-6.8-0.5-8.1-1.6c-0.8,1.2-2.4,2.7-4.9,2.7C230.2,228.9,227.7,227.8,225.4,225z
			 M215.7,201.2L215.7,201.2L215.7,201.2z"/>
	</g>
	<g>
		<path class="st1" d="M282,355.5c-13.4-13.3-23.7-25.4-26.6-28.9c-3.3-4-7.2-7.2-11.4-10.5c-3.3-2.6-6.6-5.3-9.9-8.6
			c-7.4-7.4-12.8-15.3-13.9-20.1l-0.4-1.6c-1.1-4.9-2.9-13-3.8-18.4c-1-6.1,0-11.4,0-11.6l0.1-0.3l0.3-0.2c0.3-0.3,3-2.7,5-3.2
			c0.9-0.2,1.8-0.2,2.5-0.2c0-1.4,0.5-3.5,2.9-5.1c2.4-1.7,4.5-1.8,5.7-1.7c0.8-1.5,2.8-4.6,6.2-5c2.7-0.2,4.6,0.4,5.7,0.9
			c0.7-0.8,2.1-1.7,4.7-1.7c4.3,0,6.8,1.2,7.6,3.6c1.8,4.9,4,15.5,4.5,17.7c0.9,0.6,3,2.3,4,4.5c1.2,2.6,2,19.4,2.1,21.5
			c0.5,4,1.7,8.8,2.6,9.6c0.4,0.4,1.4,1.2,2.6,2.3c4.4,3.9,12.7,11.3,15,13.3c19.6,14.8,38.9,22.8,42.6,24.2h0.1l0.1,0.1
			c7.3,4.5,14.6,13.2,21.8,25.9c5.4,9.4,8.7,17.6,8.7,17.7l-1.9,0.8c-0.1-0.3-12.9-32.1-29.5-42.5c-5.3-2.1-23.8-10-43-24.5h-0.1
			c-2.3-2-10.6-9.3-15-13.3c-1.3-1.1-2.2-2-2.6-2.3c-2-1.7-3.1-9.4-3.3-10.9v-0.1c-0.4-7.2-1.2-19.1-1.9-20.8
			c-1-2.2-3.6-3.9-3.6-3.9l-0.4-0.2v-0.3c0-0.2-2.6-12.6-4.5-17.9c-0.2-0.6-0.8-2.3-5.7-2.3c-2.7,0-3.3,1.1-3.4,1.3l-0.4,1.3
			l-1.2-0.8c-0.1-0.1-1.9-1.3-5.2-1c-3.1,0.3-4.9,4.5-4.9,4.5l-0.4,0.9l-0.9-0.3c-0.1,0-2.1-0.6-4.8,1.3c-2.6,1.8-2,4.3-2,4.4
			l0.5,1.8l-1.8-0.5c0,0-1.4-0.4-2.8,0c-1.2,0.3-3,1.7-3.9,2.5c-0.2,1.3-0.7,5.7,0.1,10.6c0.9,5.3,2.7,13.4,3.8,18.2l0.4,1.6
			c0.9,4.4,6.2,11.9,13.3,19c3.2,3.2,6.5,5.8,9.7,8.4c4.3,3.4,8.3,6.6,11.7,10.8c2.8,3.5,13.1,15.5,26.4,28.7
			c16.6,16.4,31.9,28.9,44.4,36l-1,1.8C314.1,384.7,299,372.4,282,355.5z"/>
	</g>
</g>
</svg>
