<svg id="Layer_1" data-name="Layer 1" xmlns="http://www.w3.org/2000/svg" viewBox="0 0 417.69 421.5"><defs><style>.cls-1,.cls-3{fill:#414141;}.cls-2{fill:#eb5858;stroke:#fff;}.cls-2,.cls-3{stroke-miterlimit:10;}.cls-3{stroke:#fefefe;stroke-width:2px;}</style></defs><title>upper_mcs</title><polygon class="cls-1" points="67.62 158.34 67.62 421.5 144 421.5 144 407.01 114.1 158.34 67.62 158.34"/><path class="cls-2" d="M415.32,92s-33.89-9.11-46.69-8.29-33.27,12.18-33.27,12.18-31.84-4.15-48.63-12.13-41-29-72.28-23c-8.9,1.54-18.37-.82-26.2,0a14.84,14.84,0,0,0-9,5.12s-13.62-23.65-28.16-28.77S116,41.6,116,41.6L96.26,52.35s-23.5-32.3-53.08-12.13C26.69,53.47,32,73.34,32.94,76.71a71.73,71.73,0,0,0,17.91,23.71,35.88,35.88,0,0,0-8.29,12.79A18.24,18.24,0,0,0,42,123.45S28,144.23,29.15,161.23a63,63,0,0,0,10.9,30.1l18.23,28.46a71.61,71.61,0,0,0-2.56,22.42c0,16.33,4.66,33.27,4.5,38.08a91.88,91.88,0,0,1-5.42,17.92l-5.74,16.33s-.82,6.4,1.28,7.37S60,306.25,60,306.25s-1.9,17.3-.31,18.88,4.81,2.26,5.78,0a184.11,184.11,0,0,0,2-20.16,152.59,152.59,0,0,0,1,20.16c1,1.44,7.94,1.49,8,0l1.28-21.44s-1,19.65.66,20.47,5.74,1.33,6.25-.82L87.4,310.7a6.16,6.16,0,0,0,4-3.18,34.78,34.78,0,0,0,.3-16.63,141.54,141.54,0,0,1-6.09-20.17c-.61-5.73,2.87-44.48,3.23-53.29C88.22,198.24,85,193.12,85,193.12l-7.68-17a20.44,20.44,0,0,1-1-10.54c1.58-6.25,10.54-3.84,10.54-3.84s10.24,13.46,36.5,20.17a83.34,83.34,0,0,0,19.2.66l6.09,4.51-14.08,19.5a46,46,0,0,0-15.36-1.58A54,54,0,0,0,100.71,216c-5.42,4.5-12.95,20.93-10.54,22.42s16-2.56,16-2.56a6.29,6.29,0,0,0,5.78,2.87c4.51,0,11.83-5.43,15.36-6.71s12.8-1.13,17.61-2.87,14.38-13.41,14.38-13.41l23-26.56a30.91,30.91,0,0,0,12.49,1.94c21.45-2.56,36.8-29.43,36.8-29.43l40,2.25,9.27-.31a14.73,14.73,0,0,0,11.82,11.21,38.23,38.23,0,0,0,32-13.1l13.16-27.44s18.94-8.45,26.57-10.54,27.18-8.14,31.38-8.66a51.89,51.89,0,0,1,13.1,2l2.87,7.68s3.37,16,3.53,18.58-3,12.8-2.56,15.36,3.53,6.7,10.9,6.7a29.89,29.89,0,0,0,13.47-3.53s8.65-9.57,8.65-16.94-6.15-20-5.74-24a178.32,178.32,0,0,0,1.28-20.78,12.72,12.72,0,0,0-6.4-9,56.18,56.18,0,0,0-16-2.56C415.11,89.46,415.32,92,415.32,92Z" transform="translate(-28.59 -33.09)"/><path class="cls-1" d="M415.32,92s-33.89-9.11-46.69-8.29-33.27,12.18-33.27,12.18-31.84-4.15-48.63-12.13-41-29-72.28-23c-8.9,1.54-18.37-.82-26.2,0a14.84,14.84,0,0,0-9,5.12s-13.62-23.65-28.16-28.77S116,41.6,116,41.6L96.26,52.35s-23.5-32.3-53.08-12.13C26.69,53.47,32,73.34,32.94,76.71a71.73,71.73,0,0,0,17.91,23.71,35.88,35.88,0,0,0-8.29,12.79A18.24,18.24,0,0,0,42,123.45S28,144.23,29.15,161.23a63,63,0,0,0,10.9,30.1l18.23,28.46a71.61,71.61,0,0,0-2.56,22.42c0,16.33,4.66,33.27,4.5,38.08a91.88,91.88,0,0,1-5.42,17.92l-5.74,16.33s-.82,6.4,1.28,7.37S60,306.25,60,306.25s-1.9,17.3-.31,18.88,4.81,2.26,5.78,0a184.11,184.11,0,0,0,2-20.16,152.59,152.59,0,0,0,1,20.16c1,1.44,7.94,1.49,8,0l1.28-21.44s-1,19.65.66,20.47,5.74,1.33,6.25-.82L87.4,310.7a6.16,6.16,0,0,0,4-3.18,34.78,34.78,0,0,0,.3-16.63,141.54,141.54,0,0,1-6.09-20.17c-.61-5.73,2.87-44.48,3.23-53.29C88.22,198.24,85,193.12,85,193.12l-7.68-17a20.44,20.44,0,0,1-1-10.54c1.58-6.25,10.54-3.84,10.54-3.84s10.24,13.46,36.5,20.17a83.34,83.34,0,0,0,19.2.66l6.09,4.51-14.08,19.5a46,46,0,0,0-15.36-1.58A54,54,0,0,0,100.71,216c-5.42,4.5-12.95,20.93-10.54,22.42s16-2.56,16-2.56a6.29,6.29,0,0,0,5.78,2.87c4.51,0,11.83-5.43,15.36-6.71s12.8-1.13,17.61-2.87,14.38-13.41,14.38-13.41l23-26.56a30.91,30.91,0,0,0,12.49,1.94c21.45-2.56,36.8-29.43,36.8-29.43l40,2.25,9.27-.31a14.73,14.73,0,0,0,11.82,11.21,38.23,38.23,0,0,0,32-13.1l13.16-27.44s18.94-8.45,26.57-10.54,27.18-8.14,31.38-8.66a51.89,51.89,0,0,1,13.1,2l2.87,7.68s3.37,16,3.53,18.58-3,12.8-2.56,15.36,3.53,6.7,10.9,6.7a29.89,29.89,0,0,0,13.47-3.53s8.65-9.57,8.65-16.94-6.15-20-5.74-24a178.32,178.32,0,0,0,1.28-20.78,12.72,12.72,0,0,0-6.4-9,56.18,56.18,0,0,0-16-2.56C415.11,89.46,415.32,92,415.32,92Z" transform="translate(-28.59 -33.09)"/><polygon class="cls-3" points="177.68 288.41 21.35 288.41 21.35 336.63 181.93 336.63 181.93 315.74 177.68 288.41"/></svg>