<?xml version="1.0" encoding="utf-8"?>
<!-- Generator: Adobe Illustrator 21.1.0, SVG Export Plug-In . SVG Version: 6.00 Build 0)  -->
<svg version="1.1" id="Layer_1" xmlns="http://www.w3.org/2000/svg" xmlns:xlink="http://www.w3.org/1999/xlink" x="0px" y="0px"
	 viewBox="0 0 82.4 82.8" style="enable-background:new 0 0 82.4 82.8;" xml:space="preserve">
<style type="text/css">
	.st0{fill:#EB5858;stroke:#FFFFFF;stroke-miterlimit:10;}
	.st1{fill:#EB5858;}
</style>
<title>upper_body_clearing_screen_left</title>
<path class="st0" d="M6.4,11.9c0,0,6.6-1.8,9.1-1.6s6.5,2.4,6.5,2.4s6.2-0.8,9.5-2.4s8-5.7,14.1-4.5c1.7,0.3,3.6-0.2,5.1,0
	c0.7,0.1,1.3,0.5,1.8,1c0,0,2.7-4.6,5.5-5.6S65,2.1,65,2.1l3.9,2.1c0,0,4.6-6.3,10.4-2.4c3.2,2.6,2.2,6.5,2,7.1
	c-0.8,1.8-2,3.3-3.5,4.6c0.7,0.7,1.3,1.6,1.6,2.5c0.2,0.6,0.3,1.3,0.1,2c0,0,2.7,4.1,2.5,7.4c-0.2,2.1-0.9,4.1-2.1,5.9l-3.6,5.6
	c0.4,1.4,0.6,2.9,0.5,4.4c0,3.2-0.9,6.5-0.9,7.4c0.2,1.2,0.6,2.4,1.1,3.5l1.1,3.2c0,0,0.2,1.2-0.2,1.4S76,53.8,76,53.8
	s0.4,3.4,0.1,3.7s-0.9,0.4-1.1,0c-0.2-1.3-0.3-2.6-0.4-3.9c0,1.3,0,2.6-0.2,3.9c-0.2,0.3-1.5,0.3-1.6,0l-0.2-4.2c0,0,0.2,3.8-0.1,4
	s-1.1,0.3-1.2-0.2l-0.6-2.5c-0.3-0.1-0.6-0.3-0.8-0.6c-0.3-1.1-0.3-2.2-0.1-3.2c0.5-1.3,0.9-2.6,1.2-3.9c0.1-1.1-0.6-8.7-0.6-10.4
	c0.1-3.8,0.8-4.8,0.8-4.8l1.5-3.3c0.2-0.7,0.3-1.4,0.2-2.1c-0.3-1.2-2.1-0.8-2.1-0.8s-2,2.6-7.1,3.9c-1.2,0.2-2.5,0.2-3.8,0.1
	l-1.2,0.9l2.8,3.8c1-0.3,2-0.4,3-0.3c1.3,0.5,2.6,1.2,3.6,2.1c1.1,0.9,2.5,4.1,2.1,4.4S67,40,67,40c-0.2,0.4-0.7,0.6-1.1,0.6
	c-0.9,0-2.3-1.1-3-1.3s-2.5-0.2-3.4-0.6s-2.8-2.6-2.8-2.6l-4.5-5.2c-0.8,0.3-1.6,0.4-2.4,0.4c-4.2-0.5-7.2-5.8-7.2-5.8L34.7,26
	l-1.8-0.1c-0.3,1.1-1.2,2-2.3,2.2c-2.4,0.2-4.7-0.8-6.2-2.6l-2.8-5.4c0,0-3.7-1.6-5.2-2.1s-5.3-1.6-6.1-1.7c-0.9,0-1.7,0.1-2.6,0.4
	l-0.6,1.5c0,0-0.7,3.1-0.7,3.6s0.6,2.5,0.5,3s-0.7,1.3-2.1,1.3c-0.9,0-1.8-0.3-2.6-0.7c0,0-1.7-1.9-1.7-3.3s1.2-3.9,1.1-4.7
	c-0.2-1.3-0.2-2.7-0.2-4.1c0.1-0.7,0.6-1.4,1.2-1.8c1-0.3,2.1-0.5,3.1-0.5C6.5,11.4,6.4,11.9,6.4,11.9z"/>
<path class="st1" d="M6.4,11.9c0,0,6.6-1.8,9.1-1.6s6.5,2.4,6.5,2.4s6.2-0.8,9.5-2.4s8-5.7,14.1-4.5c1.7,0.3,3.6-0.2,5.1,0
	c0.7,0.1,1.3,0.5,1.8,1c0,0,2.7-4.6,5.5-5.6S65,2.1,65,2.1l3.9,2.1c0,0,4.6-6.3,10.4-2.4c3.2,2.6,2.2,6.5,2,7.1
	c-0.8,1.8-2,3.3-3.5,4.6c0.7,0.7,1.3,1.6,1.6,2.5c0.2,0.6,0.3,1.3,0.1,2c0,0,2.7,4.1,2.5,7.4c-0.2,2.1-0.9,4.1-2.1,5.9l-3.6,5.6
	c0.4,1.4,0.6,2.9,0.5,4.4c0,3.2-0.9,6.5-0.9,7.4c0.2,1.2,0.6,2.4,1.1,3.5l1.1,3.2c0,0,0.2,1.2-0.2,1.4S76,53.8,76,53.8
	s0.4,3.4,0.1,3.7s-0.9,0.4-1.1,0c-0.2-1.3-0.3-2.6-0.4-3.9c0,1.3,0,2.6-0.2,3.9c-0.2,0.3-1.5,0.3-1.6,0l-0.2-4.2c0,0,0.2,3.8-0.1,4
	s-1.1,0.3-1.2-0.2l-0.6-2.5c-0.3-0.1-0.6-0.3-0.8-0.6c-0.3-1.1-0.3-2.2-0.1-3.2c0.5-1.3,0.9-2.6,1.2-3.9c0.1-1.1-0.6-8.7-0.6-10.4
	c0.1-3.8,0.8-4.8,0.8-4.8l1.5-3.3c0.2-0.7,0.3-1.4,0.2-2.1c-0.3-1.2-2.1-0.8-2.1-0.8s-2,2.6-7.1,3.9c-1.2,0.2-2.5,0.2-3.8,0.1
	l-1.2,0.9l2.8,3.8c1-0.3,2-0.4,3-0.3c1.3,0.5,2.6,1.2,3.6,2.1c1.1,0.9,2.5,4.1,2.1,4.4S67,40,67,40c-0.2,0.4-0.7,0.6-1.1,0.6
	c-0.9,0-2.3-1.1-3-1.3s-2.5-0.2-3.4-0.6s-2.8-2.6-2.8-2.6l-4.5-5.2c-0.8,0.3-1.6,0.4-2.4,0.4c-4.2-0.5-7.2-5.8-7.2-5.8L34.7,26
	l-1.8-0.1c-0.3,1.1-1.2,2-2.3,2.2c-2.4,0.2-4.7-0.8-6.2-2.6l-2.8-5.4c0,0-3.7-1.6-5.2-2.1s-5.3-1.6-6.1-1.7c-0.9,0-1.7,0.1-2.6,0.4
	l-0.6,1.5c0,0-0.7,3.1-0.7,3.6s0.6,2.5,0.5,3s-0.7,1.3-2.1,1.3c-0.9,0-1.8-0.3-2.6-0.7c0,0-1.7-1.9-1.7-3.3s1.2-3.9,1.1-4.7
	c-0.2-1.3-0.2-2.7-0.2-4.1c0.1-0.7,0.6-1.4,1.2-1.8c1-0.3,2.1-0.5,3.1-0.5C6.5,11.4,6.4,11.9,6.4,11.9z"/>
</svg>
