<?xml version="1.0" encoding="utf-8"?>
<!-- Generator: Adobe Illustrator 22.0.1, SVG Export Plug-In . SVG Version: 6.00 Build 0)  -->
<svg version="1.1" id="Layer_1" xmlns="http://www.w3.org/2000/svg" xmlns:xlink="http://www.w3.org/1999/xlink" x="0px" y="0px"
	 viewBox="0 0 161.9 196.1" style="enable-background:new 0 0 161.9 196.1;" xml:space="preserve">
<style type="text/css">
	.st0{fill:#EB5858;}
	.st1{fill:#EB5858;stroke:#FFFFFF;stroke-width:2;stroke-miterlimit:10;}
	.st2{fill:none;stroke:#FFFFFF;stroke-width:0.5;stroke-miterlimit:10;}
</style>
<title>posterorlateral_reach</title>
<path class="st0" d="M2.8,195.8c1-1,18.7-17.9,35.1-33.6l13.1,2.6l6.5-7.2v-4.4l-8.4-1.6l15-14.3l5.8,1l4.9-5l4.6,0.6l61.9-11.9
	l6,3.7l10-1.8v-3.5l-2-1.1l6.6-1.3v-3.3l-11.1,2l-6.8-3.9l-9.5,1.9v3.1l2.3,1.4l-55.5,10l-2.4-0.2l5.6-5.7v-3.5l-11.6-1.8l-10.4,9.7
	h-0.1l-5.6-5.7l6.8-1.1v-3.4l-4-3.9l-9.6,1.5L28.6,93.6l-1.5,1.5l18.7,20.8l-7.2,1.1v3.5l3.1,4l10.3-1.7l7.2,8l-1.6,1.5v3.9l2.2,0.4
	l-15.2,14.2l-13.2-2.5l-7.7,6.3v4.8l9.6,1.9L0.8,191.8C-1.5,194,1.5,197,2.8,195.8z"/>
<path class="st1" d="M111,86.1c1.2,1.1,2.1,2.5,2.7,4c0,0,7.3,8.6,8,9c0.7,0.3,1.4,0.5,2.2,0.5c1.1-0.5,2.3-0.4,3.2,0.3
	c1.4,1.1,2,6.8,2.4,8.1s4.3,6,4.3,6s1.8,2,1.8,3.1c0,0.4-0.3,0.9-1.2,0.7s-3.3-2.3-3.3-2.3l-3.2-2.7l-7.7-6l-6.2-5.2l-15-9.8
	c-2.1-0.4-4.2-1.1-6.2-2c-2-1.1-13-9.6-13-9.6s-5.4,5.2-7.3,11.1c1.1,1.7,2,3.6,2.8,5.5c0.6,1.7,1.4,4-0.3,11.5
	c-0.5,2.7-1.2,7.9-1.2,7.9c0.4,0.8,0.7,1.6,0.8,2.4c0.1,0.6-0.1,1.3-0.6,1.7c0.3,0.8,0.6,1.6,0.7,2.5c0,0.9-0.6,1.1-0.7,1.6
	c0,0.8-0.1,1.6-0.2,2.4c-0.5,0.9-1,1.8-1.7,2.5c-0.7,0.7-1.6,0.9-2.5,0.8c-0.2,0.7-1.7,0.6-1.7,0.6c-0.7,0.4-1.5,0.5-2.2,0.3
	c-0.7,0.2-1.4,0.1-2-0.2c0,0-1.4,0-1.7-0.4s0.3-2.7,0.3-2.7c-0.1-0.5,0-1,0.1-1.5c0.8-0.7,1.7-1.4,2.7-2c0.9-1.4,1.7-3,2.3-4.5
	c0.3-1.3,0.5-3.8,0.5-3.8c0-1.5-0.2-3.1-0.6-4.6c-0.6-1.9-2-5.5-2.6-7s-1.6-5.1-1.9-6s-2.3-4.6-2.7-7.5c-0.1-0.9-0.1-1.9,0.1-2.8
	l-0.4,0.1c-0.7,0.9-1.5,1.8-2.4,2.6c-0.4,0.1-0.8,0.2-1-0.1c-0.2-0.2-0.3-0.4-0.3-0.6c0,0-0.3,0.6-0.7,0.4c-0.3-0.2-0.6-0.4-0.9-0.7
	c-0.5,0-0.9-0.2-1.3-0.4c-0.3-0.4-0.4-0.8-0.4-1.3c-0.4,0-0.7-0.1-1-0.3c-0.4-0.6-0.6-1.3-0.5-2c0.1-0.6,2.6-3.8,2.6-3.8
	c0.4-0.8,1-1.5,1.7-2.1c0.9-0.7,5.5-2.8,5.5-2.8c0.7-0.7,1.3-1.6,1.7-2.5c0.5-1.3,4.4-10.8,4.9-12.5c0.3-2.5-9.4-6.7-9.4-6.7
	s-5.2-1.6-6.2-3.4c-0.4,0.1-6.4,0.8-9.4-3.4c-0.4-0.8-3.1-7.2-4.4-8.4c-1.1-0.2-6-2.2-6-2.2l-2.3,2.8c-0.4,1.6-10.8,13.2-11.3,13.8
	c-0.4,0.6-0.7,1.3-0.6,2c-0.1,0.9-0.7,12.4-0.8,14.7s0.2,5.7,1.4,7.3c0.5,0.7,2.4,3.1,2.9,3.8c0.5,0.9,0.8,1.9,1,2.9
	c0.2,0.6,2,2.9,1.9,3.3s-0.3,0.5-0.8,0.4c-0.7-0.1-1.4-0.5-1.9-1.1c-0.4-0.7-0.8-1.3-1.2-2.1c0,0-0.3-0.9-0.8-0.9
	c-0.4,2.9,2.6,7,2.6,7s0.6,0.9,0.4,1.3s-0.2,0.4-0.8,0.2c-0.4,0.8-1.4-0.3-1.4-0.3c-0.2,0.1-0.5,0.1-0.8,0l-3.3-1.6
	c-0.9-0.2-1.7-0.6-2.4-1.2c-0.8-0.8-0.9-2.8-1.1-4.2s-0.3-6-0.3-6c-0.4-0.5-0.6-1.2-0.7-1.8c-0.1-1.1-0.2-3.6-0.2-3.6S10,61,10,57.5
	c0-2.1,0.6-4.3,1.6-6.1c1.8-3.5,3.7-6.8,5.9-10.1c2.5-3.3,3.8-4.1,5.3-6.6c3.4-6.4,10.4-9.9,10.4-9.9L33.1,24l-1.3-1.1
	c-1.4-1.6-2.4-3.5-3-5.5c-0.3-1.6-2.4-16.1,10-16.4c11.1,0,12.3,15.4,12.3,15.4h4.2c2.4,0,7.1,2,10.3,3.6c4.8,3.4,7.7,12.9,7.7,12.9
	s12.3,2.6,18.8,11.6s-0.6,19.9-0.6,19.9s7.2,14.4,10.4,17.1C105.2,82.5,108.2,84.1,111,86.1z"/>
<path class="st0" d="M111,86.1c1.2,1.1,2.1,2.5,2.7,4c0,0,7.3,8.6,8,9c0.7,0.3,1.4,0.5,2.2,0.5c1.1-0.5,2.3-0.4,3.2,0.3
	c1.4,1.1,2,6.8,2.4,8.1s4.3,6,4.3,6s1.8,2,1.8,3.1c0,0.4-0.3,0.9-1.2,0.7s-3.3-2.3-3.3-2.3l-3.2-2.7l-7.7-6l-6.2-5.2l-15-9.8
	c-2.1-0.4-4.2-1.1-6.2-2c-2-1.1-13-9.6-13-9.6s-5.4,5.2-7.3,11.1c1.1,1.7,2,3.6,2.8,5.5c0.6,1.7,1.4,4-0.3,11.5
	c-0.5,2.7-1.2,7.9-1.2,7.9c0.4,0.8,0.7,1.6,0.8,2.4c0.1,0.6-0.1,1.3-0.6,1.7c0.3,0.8,0.6,1.6,0.7,2.5c0,0.9-0.6,1.1-0.7,1.6
	c0,0.8-0.1,1.6-0.2,2.4c-0.5,0.9-1,1.8-1.7,2.5c-0.7,0.7-1.6,0.9-2.5,0.8c-0.2,0.7-1.7,0.6-1.7,0.6c-0.7,0.4-1.5,0.5-2.2,0.3
	c-0.7,0.2-1.4,0.1-2-0.2c0,0-1.4,0-1.7-0.4s0.3-2.7,0.3-2.7c-0.1-0.5,0-1,0.1-1.5c0.8-0.7,1.7-1.4,2.7-2c0.9-1.4,1.7-3,2.3-4.5
	c0.3-1.3,0.5-3.8,0.5-3.8c0-1.5-0.2-3.1-0.6-4.6c-0.6-1.9-2-5.5-2.6-7s-1.6-5.1-1.9-6s-2.3-4.6-2.7-7.5c-0.1-0.9-0.1-1.9,0.1-2.8
	l-0.4,0.1c-0.7,0.9-1.5,1.8-2.4,2.6c-0.4,0.1-0.8,0.2-1-0.1c-0.2-0.2-0.3-0.4-0.3-0.6c0,0-0.3,0.6-0.7,0.4c-0.3-0.2-0.6-0.4-0.9-0.7
	c-0.5,0-0.9-0.2-1.3-0.4c-0.3-0.4-0.4-0.8-0.4-1.3c-0.4,0-0.7-0.1-1-0.3c-0.4-0.6-0.6-1.3-0.5-2c0.1-0.6,2.6-3.8,2.6-3.8
	c0.4-0.8,1-1.5,1.7-2.1c0.9-0.7,5.5-2.8,5.5-2.8c0.7-0.7,1.3-1.6,1.7-2.5c0.5-1.3,4.4-10.8,4.9-12.5c0.3-2.5-9.4-6.7-9.4-6.7
	s-5.2-1.6-6.2-3.4c-0.4,0.1-6.4,0.8-9.4-3.4c-0.4-0.8-3.1-7.2-4.4-8.4c-1.1-0.2-6-2.2-6-2.2l-2.3,2.8c-0.4,1.6-10.8,13.2-11.3,13.8
	c-0.4,0.6-0.7,1.3-0.6,2c-0.1,0.9-0.7,12.4-0.8,14.7s0.2,5.7,1.4,7.3c0.5,0.7,2.4,3.1,2.9,3.8c0.5,0.9,0.8,1.9,1,2.9
	c0.2,0.6,2,2.9,1.9,3.3s-0.3,0.5-0.8,0.4c-0.7-0.1-1.4-0.5-1.9-1.1c-0.4-0.7-0.8-1.3-1.2-2.1c0,0-0.3-0.9-0.8-0.9
	c-0.4,2.9,2.6,7,2.6,7s0.6,0.9,0.4,1.3s-0.2,0.4-0.8,0.2c-0.4,0.8-1.4-0.3-1.4-0.3c-0.2,0.1-0.5,0.1-0.8,0l-3.3-1.6
	c-0.9-0.2-1.7-0.6-2.4-1.2c-0.8-0.8-0.9-2.8-1.1-4.2s-0.3-6-0.3-6c-0.4-0.5-0.6-1.2-0.7-1.8c-0.1-1.1-0.2-3.6-0.2-3.6S10,61,10,57.5
	c0-2.1,0.6-4.3,1.6-6.1c1.8-3.5,3.7-6.8,5.9-10.1c2.5-3.3,3.8-4.1,5.3-6.6c3.4-6.4,10.4-9.9,10.4-9.9L33.1,24l-1.3-1.1
	c-1.4-1.6-2.4-3.5-3-5.5c-0.3-1.6-2.4-16.1,10-16.4c11.1,0,12.3,15.4,12.3,15.4h4.2c2.4,0,7.1,2,10.3,3.6c4.8,3.4,7.7,12.9,7.7,12.9
	s12.3,2.6,18.8,11.6s-0.6,19.9-0.6,19.9s7.2,14.4,10.4,17.1C105.2,82.5,108.2,84.1,111,86.1z"/>
<path class="st2" d="M67.4,62.4l2.9-8.7c-3.4-5.5-6.2-11.5-8.3-17.7c-1.4-0.5-2.1-3.1-2.1-3.1"/>
<path class="st2" d="M60.2,88.1c1-0.6,1.9-1.3,2.6-2.2c0.6-1.1,1.2-2.2,1.6-3.4c0.4-0.8,7-9.8,8.4-11.9s5.3-13.1,5.3-13.1
	c1.1-1.1,1.4-2.8,0.9-4.2c-0.9-4.1-3.2-15.4-5.7-20.4"/>
<path class="st2" d="M33.3,24.8c1.2,1.9,8.9,7.4,11.7,5.9c6.2-3,6.2-14.2,6.2-14.2"/>
<path class="st2" d="M79.8,80.3c4-3.6,11.7-15.9,11.7-15.9"/>
</svg>
