<?xml version="1.0" encoding="utf-8"?>
<!-- Generator: Adobe Illustrator 22.0.1, SVG Export Plug-In . SVG Version: 6.00 Build 0)  -->
<svg version="1.1" id="Layer_1" xmlns="http://www.w3.org/2000/svg" xmlns:xlink="http://www.w3.org/1999/xlink" x="0px" y="0px"
	 viewBox="0 0 161.9 196.1" style="enable-background:new 0 0 161.9 196.1;" xml:space="preserve">
<style type="text/css">
	.st0{fill:#FBDEDE;stroke:#EB5858;stroke-miterlimit:10;}
	.st1{fill:#EB5858;stroke:#FFFFFF;stroke-width:2;stroke-miterlimit:10;}
	.st2{fill:none;stroke:#EB5858;stroke-miterlimit:10;}
</style>
<title>posterorlateral_reach</title>
<path class="st0" d="M161,191.8l-32.6-30.5l9.6-1.9v-4.8l-7.7-6.3l-13.2,2.5l-15.2-14.2l2.2-0.4v-3.9l-1.6-1.5l7.2-8l10.3,1.7l3.1-4
	V117l-7.2-1.1l18.7-20.8l-1.5-1.5l-21.3,21.7l-9.6-1.5l-4,3.9v3.4l6.8,1.1l-5.6,5.7h-0.1L89,118.2l-11.6,1.8v3.5l5.6,5.7l-2.4,0.2
	l-55.5-10l2.3-1.4v-3.1l-9.5-1.9l-6.8,3.9l-11.1-2v3.3l6.6,1.3l-2,1.1v3.5l10,1.8l6-3.7L82.5,134l4.6-0.6l4.9,5l5.8-1l15,14.3
	l-8.4,1.6v4.4l6.5,7.2l13.1-2.6c16.4,15.6,34.1,32.6,35.1,33.6C160.3,197,163.3,194,161,191.8z"/>
<path class="st1" d="M59.9,81.5c3.2-2.7,10.4-17.1,10.4-17.1s-7-10.9-0.6-19.9s18.8-11.6,18.8-11.6s2.9-9.4,7.7-12.9
	c3.1-1.6,7.9-3.6,10.2-3.6h4.2c0,0,1.2-15.4,12.3-15.4c12.4,0.3,10.3,14.8,10,16.4c-0.6,2-1.6,3.9-3,5.5l-1.3,1.1l-0.1,0.8
	c0,0,6.9,3.6,10.4,9.9c1.6,2.5,2.8,3.2,5.3,6.6c2.2,3.2,4.2,6.6,5.9,10.1c1.1,1.9,1.6,4,1.6,6.1c0,3.5-1.6,17.6-1.6,17.6
	s-0.2,2.5-0.2,3.6c-0.1,0.7-0.3,1.3-0.7,1.8c0,0-0.2,4.6-0.3,6s-0.3,3.5-1.1,4.2c-0.7,0.6-1.6,1-2.4,1.2l-3.3,1.6
	c-0.2,0.1-0.5,0.1-0.8,0c0,0-1,1.1-1.4,0.3c-0.6,0.3-0.6,0.2-0.8-0.2s0.4-1.3,0.4-1.3s3-4.1,2.6-7c-0.5,0-0.8,0.9-0.8,0.9
	c-0.3,0.7-0.7,1.4-1.2,2.1c-0.5,0.6-1.2,0.9-1.9,1.1c-0.5,0.1-0.8,0-0.8-0.4s1.7-2.8,1.9-3.3c0.2-1,0.5-2,1-2.9
	c0.5-0.7,2.4-3.1,2.9-3.8c1.2-1.6,1.5-5,1.4-7.3s-0.8-13.8-0.8-14.7c0-0.7-0.2-1.4-0.6-2c-0.5-0.6-10.9-12.2-11.3-13.8l-2.3-2.8
	c0,0-4.9,2-6,2.2c-1.3,1.3-4,7.7-4.4,8.4c-3,4.1-9,3.4-9.4,3.4c-0.9,1.8-6.2,3.4-6.2,3.4s-9.8,4.2-9.4,6.7
	c0.5,1.7,4.4,11.2,4.9,12.5c0.4,0.9,1,1.8,1.7,2.5c0,0,4.6,2.1,5.5,2.8c0.7,0.6,1.3,1.3,1.7,2.1c0,0,2.5,3.1,2.6,3.8
	c0.1,0.7-0.1,1.4-0.5,2c-0.3,0.2-0.6,0.3-1,0.3c0,0.5-0.1,0.9-0.4,1.3c-0.4,0.3-0.8,0.4-1.3,0.4c-0.3,0.3-0.6,0.5-0.9,0.7
	c-0.4,0.2-0.7-0.4-0.7-0.4c0,0.2-0.1,0.4-0.3,0.6c-0.2,0.3-0.6,0.2-1,0.1c-0.9-0.8-1.7-1.7-2.4-2.6l-0.4-0.1
	c0.2,0.9,0.2,1.9,0.1,2.8c-0.4,2.9-2.4,6.6-2.7,7.5s-1.4,4.5-1.9,6s-2,5.1-2.6,7c-0.4,1.5-0.6,3-0.6,4.6c0,0,0.2,2.5,0.5,3.8
	c0.6,1.6,1.4,3.1,2.3,4.5c0.9,0.6,1.8,1.3,2.7,2c0.2,0.5,0.2,1,0.1,1.5c0,0,0.6,2.2,0.3,2.7s-1.7,0.4-1.7,0.4
	c-0.6,0.3-1.3,0.4-2,0.2c-0.7,0.2-1.5,0.1-2.2-0.3c0,0-1.5,0.1-1.7-0.6c-0.9,0.2-1.8-0.1-2.5-0.8c-0.7-0.8-1.2-1.6-1.7-2.5
	c-0.1-0.8-0.2-1.6-0.2-2.4c-0.1-0.5-0.7-0.8-0.7-1.6c0.1-0.8,0.3-1.7,0.7-2.5c-0.4-0.5-0.6-1.1-0.6-1.7c0.1-0.8,0.4-1.7,0.8-2.4
	c0,0-0.7-5.3-1.2-7.9c-1.7-7.4-0.9-9.8-0.3-11.5c0.8-1.9,1.7-3.7,2.8-5.5c-1.9-6-7.3-11.1-7.3-11.1s-11,8.4-13,9.6
	c-2,0.9-4,1.6-6.2,2l-15,9.8l-6.2,5.2l-7.7,6l-3.2,2.7c0,0-2.4,2.1-3.3,2.3s-1.2-0.2-1.2-0.7c0-1.1,1.8-3.1,1.8-3.1s3.9-4.7,4.3-6
	s1-7,2.4-8.1c1-0.7,2.2-0.8,3.2-0.3c0.7-0.1,1.5-0.3,2.2-0.5c0.7-0.4,8-9,8-9c0.6-1.5,1.5-2.9,2.7-4C53.6,84.1,56.7,82.5,59.9,81.5z
	"/>
<path class="st0" d="M59.9,81.5c3.2-2.7,10.4-17.1,10.4-17.1s-7-10.9-0.6-19.9s18.8-11.6,18.8-11.6s2.9-9.4,7.7-12.9
	c3.1-1.6,7.9-3.6,10.2-3.6h4.2c0,0,1.2-15.4,12.3-15.4c12.4,0.3,10.3,14.8,10,16.4c-0.6,2-1.6,3.9-3,5.5l-1.3,1.1l-0.1,0.8
	c0,0,6.9,3.6,10.4,9.9c1.6,2.5,2.8,3.2,5.3,6.6c2.2,3.2,4.2,6.6,5.9,10.1c1.1,1.9,1.6,4,1.6,6.1c0,3.5-1.6,17.6-1.6,17.6
	s-0.2,2.5-0.2,3.6c-0.1,0.7-0.3,1.3-0.7,1.8c0,0-0.2,4.6-0.3,6s-0.3,3.5-1.1,4.2c-0.7,0.6-1.6,1-2.4,1.2l-3.3,1.6
	c-0.2,0.1-0.5,0.1-0.8,0c0,0-1,1.1-1.4,0.3c-0.6,0.3-0.6,0.2-0.8-0.2s0.4-1.3,0.4-1.3s3-4.1,2.6-7c-0.5,0-0.8,0.9-0.8,0.9
	c-0.3,0.7-0.7,1.4-1.2,2.1c-0.5,0.6-1.2,0.9-1.9,1.1c-0.5,0.1-0.8,0-0.8-0.4s1.7-2.8,1.9-3.3c0.2-1,0.5-2,1-2.9
	c0.5-0.7,2.4-3.1,2.9-3.8c1.2-1.6,1.5-5,1.4-7.3s-0.8-13.8-0.8-14.7c0-0.7-0.2-1.4-0.6-2c-0.5-0.6-10.9-12.2-11.3-13.8l-2.3-2.8
	c0,0-4.9,2-6,2.2c-1.3,1.3-4,7.7-4.4,8.4c-3,4.1-9,3.4-9.4,3.4c-0.9,1.8-6.2,3.4-6.2,3.4s-9.8,4.2-9.4,6.7
	c0.5,1.7,4.4,11.2,4.9,12.5c0.4,0.9,1,1.8,1.7,2.5c0,0,4.6,2.1,5.5,2.8c0.7,0.6,1.3,1.3,1.7,2.1c0,0,2.5,3.1,2.6,3.8
	c0.1,0.7-0.1,1.4-0.5,2c-0.3,0.2-0.6,0.3-1,0.3c0,0.5-0.1,0.9-0.4,1.3c-0.4,0.3-0.8,0.4-1.3,0.4c-0.3,0.3-0.6,0.5-0.9,0.7
	c-0.4,0.2-0.7-0.4-0.7-0.4c0,0.2-0.1,0.4-0.3,0.6c-0.2,0.3-0.6,0.2-1,0.1c-0.9-0.8-1.7-1.7-2.4-2.6l-0.4-0.1
	c0.2,0.9,0.2,1.9,0.1,2.8c-0.4,2.9-2.4,6.6-2.7,7.5s-1.4,4.5-1.9,6s-2,5.1-2.6,7c-0.4,1.5-0.6,3-0.6,4.6c0,0,0.2,2.5,0.5,3.8
	c0.6,1.6,1.4,3.1,2.3,4.5c0.9,0.6,1.8,1.3,2.7,2c0.2,0.5,0.2,1,0.1,1.5c0,0,0.6,2.2,0.3,2.7s-1.7,0.4-1.7,0.4
	c-0.6,0.3-1.3,0.4-2,0.2c-0.7,0.2-1.5,0.1-2.2-0.3c0,0-1.5,0.1-1.7-0.6c-0.9,0.2-1.8-0.1-2.5-0.8c-0.7-0.8-1.2-1.6-1.7-2.5
	c-0.1-0.8-0.2-1.6-0.2-2.4c-0.1-0.5-0.7-0.8-0.7-1.6c0.1-0.8,0.3-1.7,0.7-2.5c-0.4-0.5-0.6-1.1-0.6-1.7c0.1-0.8,0.4-1.7,0.8-2.4
	c0,0-0.7-5.3-1.2-7.9c-1.7-7.4-0.9-9.8-0.3-11.5c0.8-1.9,1.7-3.7,2.8-5.5c-1.9-6-7.3-11.1-7.3-11.1s-11,8.4-13,9.6
	c-2,0.9-4,1.6-6.2,2l-15,9.8l-6.2,5.2l-7.7,6l-3.2,2.7c0,0-2.4,2.1-3.3,2.3s-1.2-0.2-1.2-0.7c0-1.1,1.8-3.1,1.8-3.1s3.9-4.7,4.3-6
	s1-7,2.4-8.1c1-0.7,2.2-0.8,3.2-0.3c0.7-0.1,1.5-0.3,2.2-0.5c0.7-0.4,8-9,8-9c0.6-1.5,1.5-2.9,2.7-4C53.6,84.1,56.7,82.5,59.9,81.5z
	"/>
<path class="st2" d="M88.5,32.8c-2.4,5.1-4.8,16.3-5.7,20.4c-0.6,1.5-0.2,3.1,0.9,4.2c0,0,3.8,11,5.3,13.1s8.1,11.1,8.4,11.9
	c0.5,1.2,1,2.3,1.6,3.4c0.7,0.9,1.6,1.6,2.6,2.2"/>
<path class="st0" d="M101.8,32.9c0,0-0.8,2.6-2.1,3.1c-2,6.2-4.8,12.1-8.3,17.7l2.9,8.7"/>
<path class="st0" d="M110.7,16.4c0,0,0,11.2,6.2,14.2c2.8,1.5,10.5-4,11.7-5.9"/>
<path class="st0" d="M70.3,64.4c0,0,7.7,12.3,11.7,15.9"/>
</svg>
