<?xml version="1.0" encoding="utf-8"?>
<!-- Generator: Adobe Illustrator 22.0.1, SVG Export Plug-In . SVG Version: 6.00 Build 0)  -->
<svg version="1.1" id="Layer_2_1_" xmlns="http://www.w3.org/2000/svg" xmlns:xlink="http://www.w3.org/1999/xlink" x="0px" y="0px"
	 viewBox="0 0 1454.5 1284.3" style="enable-background:new 0 0 1454.5 1284.3;" xml:space="preserve">
<style type="text/css">
	.st0{fill:#EB5858;stroke:#FFFFFF;stroke-width:4;stroke-miterlimit:10;}
</style>
<title>ankle_clearing_within</title>
<path class="st0" d="M817,2v144L621,336c0,0-10,24,5,40c88.5,159.7,76,380,127,605c1.3,14.3,10,33,10,33s-4-13.4,9-6s24,55,24,55
	s40,107,13,122c-20,9-230-7.6-273-9c-43-1.4-210,9-229,0s-44-28-10-57c13-5,222-25,298-121c8-10,8-13,6-36c-12-155-166-514-202-607
	s0-128,0-128L549,2h207H817z"/>
<path class="st0" d="M910,414c0,0-18,21,8,52s130,108,216,314s140,241,140,241s2-13,12-9s80,142,60,198c-8,18-198-8-264-10
	s-247,10-280-36c-17-46,102-56,102-56s179-64,180-116c-4-25-12-74-96-156S728,550,728,550s-92-87-66-166S766,2,766,2h428L910,414z"
	/>
<polygon class="st0" points="1451.4,1185.6 1452.5,1282.3 4,1281.7 2,1128.1 1416.4,1129.2 "/>
</svg>
