<?xml version="1.0" encoding="utf-8"?>
<!-- Generator: Adobe Illustrator 22.0.1, SVG Export Plug-In . SVG Version: 6.00 Build 0)  -->
<svg version="1.1" id="Layer_1" xmlns="http://www.w3.org/2000/svg" xmlns:xlink="http://www.w3.org/1999/xlink" x="0px" y="0px"
	 viewBox="0 0 190.7 152.7" style="enable-background:new 0 0 190.7 152.7;" xml:space="preserve">
<style type="text/css">
	.st0{fill:#FBDEDE;stroke:#EB5858;stroke-width:2;stroke-miterlimit:10;}
	.st1{fill:#EB5858;}
</style>
<title>stretch_felt_right_back</title>
<path class="st0" d="M2.6,141.9L2.6,141.9c6.2,6.9,15.1,10.7,24.4,10.3l60.9-2.5c8.1-0.3,16.1,0.1,24.1,1.4l7.5,1.2
	c7.7,1.2,15.6-0.1,22.5-3.7c17.9-9.3,24.9-31.4,15.6-49.4l-1-2.3c-3.2-7.6-4.6-15.8-4.1-24.1l4.6-66.2c0-0.1,0-0.3,0-0.4
	c0-3.4-2.8-6.1-6.2-6.1h-39.2l0,0c-3.4,0-6.2,2.8-6.2,6.1v43.4c-0.7,21.3-6.6,25-12.2,31.7C62.5,117.9,24,121.9,9.7,124.5l-2.4,0.7
	c-3.4,1-6,3.6-7,7C-0.6,135.6,0.3,139.2,2.6,141.9z M142.3,86.4c0.8,2.3-0.5,4.8-2.9,5.6c-2.3,0.8-4.8-0.5-5.6-2.8s0.5-4.8,2.8-5.6
	S141.5,84,142.3,86.4L142.3,86.4z M120.9,124.8c-1-2.3,0.1-4.9,2.3-5.8c6.7-2.8,11.1-9.5,11-16.8v-2.3c0-2.5,2-4.5,4.4-4.5l0,0
	c2.4,0,4.4,2,4.5,4.4v2.3c0.1,10.9-6.4,20.7-16.4,25l0,0C124.5,128.1,121.9,127,120.9,124.8L120.9,124.8z"/>
<path class="st1" d="M189.2,78.8h-18l5.7-5.7c0.3-0.3,0.4-0.7,0.4-1c0-0.4-0.2-0.8-0.4-1l-0.9-0.9l0,0c-0.6-0.6-1.5-0.6-2.1,0
	l-9.7,9.7c-0.6,0.6-0.6,1.5,0,2.1l9.7,9.7l0,0c0.6,0.6,1.5,0.6,2.1,0l0.9-0.9l0,0c0.6-0.6,0.6-1.5,0-2.1l-5.8-5.7h18.1
	c0.8,0,1.5-0.7,1.5-1.5v-1.2C190.7,79.4,190,78.7,189.2,78.8z"/>
</svg>
