<?xml version="1.0" encoding="utf-8"?>
<!-- Generator: Adobe Illustrator 22.0.1, SVG Export Plug-In . SVG Version: 6.00 Build 0)  -->
<svg version="1.1" id="Layer_1" xmlns="http://www.w3.org/2000/svg" xmlns:xlink="http://www.w3.org/1999/xlink" x="0px" y="0px"
	 viewBox="0 0 146.7 215.2" style="enable-background:new 0 0 146.7 215.2;" xml:space="preserve">
<style type="text/css">
	.st0{fill:#FBDEDE;stroke:#EB5858;stroke-miterlimit:10;}
	.st1{fill:#EB5858;stroke:#FFFFFF;stroke-miterlimit:10;}
</style>
<title>anterior_reach</title>
<path class="st0" d="M146.5,212.5l-32.4-36.4l10.2-2.1v-4l-6.7-7l-13,2.5l-17.6-19.8l2.1-0.3v-3.5l-1.6-1.9l1.6-0.2l8.9-8.9l9.8,1.4
	l3.2-3.8V125l-6.2-1l19.6-19.7c1.1-1.1,0-2.8-1.3-1.7c-0.5,0.4-12.2,11.4-22,20.7l-9.7-1.6l-3.8,4v3.3l6.4,0.9l-6.4,6.1l-2.7,0.4
	l-7.3-8.9l-11.7,1.7v3.2l4.8,5.9l-1.9,0.3L50,135l1.9-1.3v-3.5l-9.5-1.8l-5.8,4l-35.7-7c-1.2-0.2-1.1,3,0,3c0.5,0,16,3.1,32.2,6.5
	l-2.5,1.7v3.5l9.9,1.7l5.8-4.1l24,5l3.2-0.5l4.2,5.1l5.4-0.9l17.3,20l-9,1.7v4.5l5.8,7l12.4-2.5c15.2,17.6,31.1,36,31.9,36.9
	C143.8,216.9,147.5,214.2,146.5,212.5z"/>
<path class="st1" d="M84.9,19.5c0,0,3.3,1.3,4.2,2.3c6.2,1.1,11.6,4.6,15.2,9.8c4.1,3.1,7.9,6.6,11.3,10.5
	C124,48.4,129,58.9,129,58.9c1.7,1.3,2.8,3.1,3.3,5.2c1.3,1.9,2.4,3.8,3.4,5.9c0.6,0.6,1,1.4,1.2,2.2c-0.1,1.2-0.4,2.5-0.7,3.7
	c-0.1,1.1-0.3,2.1-0.6,3.1c-0.3,0.4-1.1-0.3-1.1-0.3c0.1,0.4,0.1,0.8-0.1,1.2c-1,0.5-1.3-1.3-1.3-1.3s0.1,1.2-0.2,1.3
	c-0.7,0.2-0.8,0-1.1-0.3c-0.3-0.7-0.3-3.1-0.5-3.9c-0.1-0.9-0.3-1.7-0.6-2.5l-1-1.6l-0.2,0.8c0,0.9-0.1,1.8-0.3,2.7
	c-0.9,1.2-2.1,1-2.2,0.6s0.6-1.6,0.6-1.6s-0.1-2.2-0.2-2.8s-0.5-3.2-0.5-4.1l-0.1-2.5c-0.9-1.6-2-3-3.2-4.4
	c-1.8-2.1-9.4-7.6-10.6-10.2c-1.1-1-1.8-1.7-1.8-1.7s-10.9-8.8-12.5-10.8c-0.7-0.8-1.4-1.6-2.2-2.2c0,0-0.8-0.6-1.2-0.5
	c-0.2,0.6-0.6,1.2-1.1,1.7l-1.3,10c0,0-1.1,4.9-0.9,6.6s2.1,9.1,2.6,13.5c1.6,3.2,2.9,9.5,4.2,16.2c1.1,5.1,1.7,10.3,1.8,15.6
	c0.1,5.3,1.6,10.9,2.3,12c2.5,4.6,4,9.6,4.6,14.8l2.8,17c0,0,1.4,3.2,1.7,4.2c0.1,0.9,0,1.7-0.2,2.6l1.9,8.9
	c0.6,1.3,1.1,2.6,1.5,3.9c0,0.7-0.1,1.5-0.4,2.1l-6.8,1.3c-0.3-0.5-0.5-1.1-0.4-1.7c-1.2-1.7-1.8-3.7-1.8-5.8
	c0.2-1.1,0.2-2.2,0.1-3.2c-0.2-0.6-2.2-2.5-1.8-5.1c0.3-1.2,0.5-2.4,0.6-3.7c0-0.9-8.1-17.4-8.1-17.4c-1.4-1.8-2.4-3.8-3.2-5.9
	c-1.2-3.4-1.3-7.6-2-9.2c-1.8-2.6-4-9.5-4.6-11.2l-5.9-15.2c0,0,3.5,11.4,4,15.8s-1.6,10.2-1.6,10.2v2.2c-0.2,2.5-3.2,8.7-3.2,9.9
	s0.9,2.4,0.9,3.3l0.1,2.6c0,0,0.7,3.1,0.9,3.6s2.2,1.8,2.5,2.8c0.3,0.7,0.2,1.5-0.2,2.2c0,0,0.7,2.3-2.1,2c-0.7,0.3-1.4,0.2-2.1-0.1
	c0,0-1.2,0.3-1.7-0.4c-0.5,0-1.1-0.2-1.4-0.6c0,0-2.5-0.3-2.7-2.2s0.8-5.7,0.8-5.7c0.2-0.7,0.2-1.5,0.1-2.3
	c-0.4-0.8-0.7-1.7-0.8-2.6c0-0.6,0.2-1.2,0.4-1.8c0.2-1.2-3.8-8.4-3.8-11s1.8-6.1,1.8-6.1c-0.7-2.9-1.7-5.7-2.8-8.4
	C66.4,93.4,58.5,76.4,59,68.9c0.2-4.3,1.5-8.5,3.6-12.2c0,0,1.2-3.8,1-4.8L61,39.8c-0.4-0.6-0.9-1.2-1.4-1.7
	c-2.5,3.8-4.7,7.7-6.7,11.7c-1.3,2.3-2.8,4.5-4.5,6.6c0,0-2.1,4.5-2.8,5.4s-5.2,7.4-5.8,8.1c-0.5,0.9-0.8,1.9-1,2.9l-0.3,3.6
	c0,0,0.6,0.3,0.4,0.8c-0.2,0.8-2.1,1.2-2.1,1.2c0,0.7-0.2,1.4-0.5,2.1c-0.5,0.7,0.7,2,0.7,2.6s-1.2,1-1.2,1s-0.9,0.8-1.4,0.2
	c-0.6-1.2-1.1-2.4-1.5-3.7c0,0-0.1,3-0.2,3.6s-0.9,1.1-1.2,0.6c-0.3-1.5-0.4-3.1-0.4-4.7c-0.2-1.6-0.3-3.3-0.3-4.9
	c0.1-0.3,0.3-0.6,0.6-0.8c0.5-0.5,1-1.2,1.4-1.8l1.1-2.9c0.8-2.8,1.7-5.6,2.8-8.3c1.2-2.4,4-9.6,5.6-11.4c2.3-3.3,8.4-12.8,8.4-12.8
	s2.5-7.5,7-11.2c1.6-1.1,3.3-1.9,5.2-2.6c2.3-1.5,4.8-2.6,7.5-3.2c0,0-5-6.9-1.4-14.9c0.5-0.8,1.6-3.9,7.6-4.4
	c4.2-0.6,8.2,2.1,9.2,6.2C86.4,12.3,84.9,19.5,84.9,19.5z"/>
<path class="st0" d="M84.9,19.5c0,0,3.3,1.3,4.2,2.3c6.2,1.1,11.6,4.6,15.2,9.8c4.1,3.1,7.9,6.6,11.3,10.5
	C124,48.4,129,58.9,129,58.9c1.7,1.3,2.8,3.1,3.3,5.2c1.3,1.9,2.4,3.8,3.4,5.9c0.6,0.6,1,1.4,1.2,2.2c-0.1,1.2-0.4,2.5-0.7,3.7
	c-0.1,1.1-0.3,2.1-0.6,3.1c-0.3,0.4-1.1-0.3-1.1-0.3c0.1,0.4,0.1,0.8-0.1,1.2c-1,0.5-1.3-1.3-1.3-1.3s0.1,1.2-0.2,1.3
	c-0.7,0.2-0.8,0-1.1-0.3c-0.3-0.7-0.3-3.1-0.5-3.9c-0.1-0.9-0.3-1.7-0.6-2.5l-1-1.6l-0.2,0.8c0,0.9-0.1,1.8-0.3,2.7
	c-0.9,1.2-2.1,1-2.2,0.6s0.6-1.6,0.6-1.6s-0.1-2.2-0.2-2.8s-0.5-3.2-0.5-4.1l-0.1-2.5c-0.9-1.6-2-3-3.2-4.4
	c-1.8-2.1-9.4-7.6-10.6-10.2c-1.1-1-1.8-1.7-1.8-1.7s-10.9-8.8-12.5-10.8c-0.7-0.8-1.4-1.6-2.2-2.2c0,0-0.8-0.6-1.2-0.5
	c-0.2,0.6-0.6,1.2-1.1,1.7l-1.3,10c0,0-1.1,4.9-0.9,6.6s2.1,9.1,2.6,13.5c1.6,3.2,2.9,9.5,4.2,16.2c1.1,5.1,1.7,10.3,1.8,15.6
	c0.1,5.3,1.6,10.9,2.3,12c2.5,4.6,4,9.6,4.6,14.8l2.8,17c0,0,1.4,3.2,1.7,4.2c0.1,0.9,0,1.7-0.2,2.6l1.9,8.9
	c0.6,1.3,1.1,2.6,1.5,3.9c0,0.7-0.1,1.5-0.4,2.1l-6.8,1.3c-0.3-0.5-0.5-1.1-0.4-1.7c-1.2-1.7-1.8-3.7-1.8-5.8
	c0.2-1.1,0.2-2.2,0.1-3.2c-0.2-0.6-2.2-2.5-1.8-5.1c0.3-1.2,0.5-2.4,0.6-3.7c0-0.9-8.1-17.4-8.1-17.4c-1.4-1.8-2.4-3.8-3.2-5.9
	c-1.2-3.4-1.3-7.6-2-9.2c-1.8-2.6-4-9.5-4.6-11.2l-5.9-15.2c0,0,3.5,11.4,4,15.8s-1.6,10.2-1.6,10.2v2.2c-0.2,2.5-3.2,8.7-3.2,9.9
	s0.9,2.4,0.9,3.3l0.1,2.6c0,0,0.7,3.1,0.9,3.6s2.2,1.8,2.5,2.8c0.3,0.7,0.2,1.5-0.2,2.2c0,0,0.7,2.3-2.1,2c-0.7,0.3-1.4,0.2-2.1-0.1
	c0,0-1.2,0.3-1.7-0.4c-0.5,0-1.1-0.2-1.4-0.6c0,0-2.5-0.3-2.7-2.2s0.8-5.7,0.8-5.7c0.2-0.7,0.2-1.5,0.1-2.3
	c-0.4-0.8-0.7-1.7-0.8-2.6c0-0.6,0.2-1.2,0.4-1.8c0.2-1.2-3.8-8.4-3.8-11s1.8-6.1,1.8-6.1c-0.7-2.9-1.7-5.7-2.8-8.4
	C66.4,93.4,58.5,76.4,59,68.9c0.2-4.3,1.5-8.5,3.6-12.2c0,0,1.2-3.8,1-4.8L61,39.8c-0.4-0.6-0.9-1.2-1.4-1.7
	c-2.5,3.8-4.7,7.7-6.7,11.7c-1.3,2.3-2.8,4.5-4.5,6.6c0,0-2.1,4.5-2.8,5.4s-5.2,7.4-5.8,8.1c-0.5,0.9-0.8,1.9-1,2.9l-0.3,3.6
	c0,0,0.6,0.3,0.4,0.8c-0.2,0.8-2.1,1.2-2.1,1.2c0,0.7-0.2,1.4-0.5,2.1c-0.5,0.7,0.7,2,0.7,2.6s-1.2,1-1.2,1s-0.9,0.8-1.4,0.2
	c-0.6-1.2-1.1-2.4-1.5-3.7c0,0-0.1,3-0.2,3.6s-0.9,1.1-1.2,0.6c-0.3-1.5-0.4-3.1-0.4-4.7c-0.2-1.6-0.3-3.3-0.3-4.9
	c0.1-0.3,0.3-0.6,0.6-0.8c0.5-0.5,1-1.2,1.4-1.8l1.1-2.9c0.8-2.8,1.7-5.6,2.8-8.3c1.2-2.4,4-9.6,5.6-11.4c2.3-3.3,8.4-12.8,8.4-12.8
	s2.5-7.5,7-11.2c1.6-1.1,3.3-1.9,5.2-2.6c2.3-1.5,4.8-2.6,7.5-3.2c0,0-5-6.9-1.4-14.9c0.5-0.8,1.6-3.9,7.6-4.4
	c4.2-0.6,8.2,2.1,9.2,6.2C86.4,12.3,84.9,19.5,84.9,19.5z"/>
</svg>
