<?xml version="1.0" encoding="utf-8"?>
<!-- Generator: Adobe Illustrator 22.0.1, SVG Export Plug-In . SVG Version: 6.00 Build 0)  -->
<svg version="1.1" id="Layer_1" xmlns="http://www.w3.org/2000/svg" xmlns:xlink="http://www.w3.org/1999/xlink" x="0px" y="0px"
	 viewBox="0 0 146.7 215.2" style="enable-background:new 0 0 146.7 215.2;" xml:space="preserve">
<style type="text/css">
	.st0{fill:#EB5858;}
	.st1{fill:#EB5858;stroke:#FFFFFF;stroke-miterlimit:10;}
</style>
<title>anterior_reach</title>
<path class="st0" d="M5.1,214c0.8-0.9,16.7-19.3,31.9-36.9l12.4,2.5l5.8-7v-4.5l-9-1.7l17.3-20l5.4,0.9l4.2-5.1l3.2,0.5l24-5
	l5.8,4.1l9.9-1.7v-3.5l-2.5-1.7c16.2-3.3,31.6-6.5,32.2-6.5c1.1,0,1.2-3.2,0-3l-35.7,7l-5.8-4l-9.5,1.8v3.5l1.9,1.3L78,138.7
	l-1.9-0.3l4.8-5.9v-3.2l-11.7-1.7l-7.3,8.9l-2.7-0.4l-6.4-6.1l6.4-0.9v-3.3l-3.8-4l-9.7,1.6c-9.8-9.3-21.5-20.3-22-20.7
	c-1.3-1.1-2.5,0.5-1.3,1.7L41.9,124l-6.2,1v3.3l3.2,3.8l9.8-1.4l8.9,8.9l1.6,0.2l-1.6,1.9v3.5l2.1,0.3L42,165.5L29,163l-6.7,7v4
	l10.2,2.1L0.2,212.5C-0.8,214.2,2.9,216.9,5.1,214z"/>
<path class="st1" d="M61.1,6.9c1-4.1,5-6.8,9.2-6.2c5.9,0.5,7.1,3.6,7.6,4.4c3.6,8.1-1.4,14.9-1.4,14.9c2.7,0.6,5.2,1.7,7.5,3.2
	c1.8,0.7,3.5,1.6,5.2,2.6c4.5,3.8,7,11.2,7,11.2s6.2,9.5,8.4,12.8c1.5,1.8,4.4,9,5.6,11.4c1.1,2.7,2,5.5,2.8,8.3l1.1,2.9
	c0.4,0.7,0.9,1.3,1.4,1.8c0.3,0.2,0.5,0.4,0.6,0.8c0,1.6-0.1,3.3-0.3,4.9c0,1.6-0.2,3.1-0.4,4.7c-0.3,0.6-1.1,0-1.2-0.6
	s-0.2-3.6-0.2-3.6c-0.4,1.3-0.9,2.5-1.5,3.7c-0.5,0.6-1.4-0.2-1.4-0.2s-1.2-0.4-1.2-1s1.1-1.9,0.7-2.6c-0.3-0.6-0.5-1.3-0.5-2.1
	c0,0-1.9-0.4-2.1-1.2c-0.2-0.4,0.4-0.8,0.4-0.8l-0.3-3.6c-0.2-1-0.5-2-1-2.9c-0.6-0.7-5.1-7.1-5.8-8.1s-2.8-5.4-2.8-5.4
	c-1.7-2-3.2-4.2-4.5-6.6c-2-4-4.2-7.9-6.7-11.7c-0.5,0.5-1,1.1-1.4,1.7l-2.6,12.1c-0.2,1.1,1,4.8,1,4.8c2.1,3.8,3.3,7.9,3.6,12.2
	c0.5,7.4-7.3,24.5-10.8,30.8c-1.1,2.7-2.1,5.6-2.8,8.4c0,0,1.8,3.6,1.8,6.1s-4.1,9.8-3.8,11c0.3,0.5,0.4,1.1,0.4,1.8
	c-0.1,0.9-0.4,1.8-0.8,2.6c-0.1,0.8-0.1,1.5,0.1,2.3c0,0,1,3.8,0.8,5.7s-2.7,2.2-2.7,2.2c-0.4,0.4-0.9,0.6-1.4,0.6
	c-0.5,0.6-1.7,0.4-1.7,0.4c-0.6,0.4-1.4,0.4-2.1,0.1c-2.8,0.3-2.1-2-2.1-2c-0.4-0.6-0.5-1.4-0.2-2.2c0.2-1,2.3-2.2,2.5-2.8
	s0.9-3.6,0.9-3.6l0.1-2.6c0-0.9,0.9-2.1,0.9-3.3s-3-7.4-3.2-9.9v-2.2c0,0-2.1-5.8-1.6-10.2s4-15.8,4-15.8l-5.9,15.2
	c-0.7,1.8-2.9,8.7-4.6,11.2c-0.7,1.6-0.8,5.8-2,9.2c-0.8,2.1-1.8,4.1-3.2,5.9c0,0-8.1,16.4-8.1,17.4c0.1,1.2,0.3,2.5,0.6,3.7
	c0.5,2.6-1.5,4.5-1.8,5.1c-0.1,1.1,0,2.2,0.1,3.2c0,2.1-0.6,4.1-1.8,5.8c0,0.6-0.1,1.2-0.4,1.7l-6.8-1.3c-0.3-0.7-0.4-1.4-0.4-2.1
	c0.4-1.3,0.9-2.6,1.5-3.9l1.9-8.9c-0.3-0.8-0.3-1.7-0.2-2.6c0.2-0.9,1.7-4.2,1.7-4.2l2.8-17c0.6-5.2,2.1-10.2,4.6-14.8
	c0.8-1.1,2.2-6.7,2.3-12c0.1-5.2,0.7-10.4,1.8-15.6c1.4-6.7,2.6-12.9,4.2-16.2c0.4-4.4,2.4-11.8,2.6-13.5s-0.9-6.6-0.9-6.6l-1.3-10
	c-0.5-0.5-0.9-1-1.1-1.7c-0.4,0-1.2,0.5-1.2,0.5c-0.8,0.7-1.6,1.4-2.2,2.2c-1.6,2-12.5,10.8-12.5,10.8s-0.7,0.7-1.8,1.7
	c-1.2,2.6-8.8,8.1-10.6,10.2c-1.2,1.4-2.3,2.9-3.2,4.4l-0.1,2.5c0,0.9-0.4,3.5-0.5,4.1S19,74,19,74s0.7,1.2,0.6,1.6
	s-1.3,0.7-2.2-0.6c-0.2-0.9-0.4-1.8-0.3-2.7l-0.2-0.8l-1,1.6c-0.3,0.8-0.5,1.7-0.6,2.5c-0.2,0.8-0.1,3.2-0.5,3.9
	c-0.3,0.3-0.4,0.6-1.1,0.3c-0.4-0.1-0.2-1.3-0.2-1.3s-0.3,1.8-1.3,1.3c-0.2-0.4-0.2-0.8-0.1-1.2c0,0-0.8,0.7-1.1,0.3
	c-0.3-1-0.5-2.1-0.6-3.1c-0.3-1.2-0.5-2.4-0.7-3.7c0.2-0.8,0.6-1.6,1.2-2.2c0.9-2.1,2.1-4.1,3.4-5.9c0.5-2.1,1.7-3.9,3.3-5.2
	c0,0,5-10.5,13.5-16.7c3.4-3.9,7.2-7.4,11.3-10.5c3.5-5.2,9-8.7,15.2-9.8c0.8-1.1,4.2-2.3,4.2-2.3S60.2,12.3,61.1,6.9z"/>
<path class="st0" d="M61.1,6.9c1-4.1,5-6.8,9.2-6.2c5.9,0.5,7.1,3.6,7.6,4.4c3.6,8.1-1.4,14.9-1.4,14.9c2.7,0.6,5.2,1.7,7.5,3.2
	c1.8,0.7,3.5,1.6,5.2,2.6c4.5,3.8,7,11.2,7,11.2s6.2,9.5,8.4,12.8c1.5,1.8,4.4,9,5.6,11.4c1.1,2.7,2,5.5,2.8,8.3l1.1,2.9
	c0.4,0.7,0.9,1.3,1.4,1.8c0.3,0.2,0.5,0.4,0.6,0.8c0,1.6-0.1,3.3-0.3,4.9c0,1.6-0.2,3.1-0.4,4.7c-0.3,0.6-1.1,0-1.2-0.6
	s-0.2-3.6-0.2-3.6c-0.4,1.3-0.9,2.5-1.5,3.7c-0.5,0.6-1.4-0.2-1.4-0.2s-1.2-0.4-1.2-1s1.1-1.9,0.7-2.6c-0.3-0.6-0.5-1.3-0.5-2.1
	c0,0-1.9-0.4-2.1-1.2c-0.2-0.4,0.4-0.8,0.4-0.8l-0.3-3.6c-0.2-1-0.5-2-1-2.9c-0.6-0.7-5.1-7.1-5.8-8.1s-2.8-5.4-2.8-5.4
	c-1.7-2-3.2-4.2-4.5-6.6c-2-4-4.2-7.9-6.7-11.7c-0.5,0.5-1,1.1-1.4,1.7l-2.6,12.1c-0.2,1.1,1,4.8,1,4.8c2.1,3.8,3.3,7.9,3.6,12.2
	c0.5,7.4-7.3,24.5-10.8,30.8c-1.1,2.7-2.1,5.6-2.8,8.4c0,0,1.8,3.6,1.8,6.1s-4.1,9.8-3.8,11c0.3,0.5,0.4,1.1,0.4,1.8
	c-0.1,0.9-0.4,1.8-0.8,2.6c-0.1,0.8-0.1,1.5,0.1,2.3c0,0,1,3.8,0.8,5.7s-2.7,2.2-2.7,2.2c-0.4,0.4-0.9,0.6-1.4,0.6
	c-0.5,0.6-1.7,0.4-1.7,0.4c-0.6,0.4-1.4,0.4-2.1,0.1c-2.8,0.3-2.1-2-2.1-2c-0.4-0.6-0.5-1.4-0.2-2.2c0.2-1,2.3-2.2,2.5-2.8
	s0.9-3.6,0.9-3.6l0.1-2.6c0-0.9,0.9-2.1,0.9-3.3s-3-7.4-3.2-9.9v-2.2c0,0-2.1-5.8-1.6-10.2s4-15.8,4-15.8l-5.9,15.2
	c-0.7,1.8-2.9,8.7-4.6,11.2c-0.7,1.6-0.8,5.8-2,9.2c-0.8,2.1-1.8,4.1-3.2,5.9c0,0-8.1,16.4-8.1,17.4c0.1,1.2,0.3,2.5,0.6,3.7
	c0.5,2.6-1.5,4.5-1.8,5.1c-0.1,1.1,0,2.2,0.1,3.2c0,2.1-0.6,4.1-1.8,5.8c0,0.6-0.1,1.2-0.4,1.7l-6.8-1.3c-0.3-0.7-0.4-1.4-0.4-2.1
	c0.4-1.3,0.9-2.6,1.5-3.9l1.9-8.9c-0.3-0.8-0.3-1.7-0.2-2.6c0.2-0.9,1.7-4.2,1.7-4.2l2.8-17c0.6-5.2,2.1-10.2,4.6-14.8
	c0.8-1.1,2.2-6.7,2.3-12c0.1-5.2,0.7-10.4,1.8-15.6c1.4-6.7,2.6-12.9,4.2-16.2c0.4-4.4,2.4-11.8,2.6-13.5s-0.9-6.6-0.9-6.6l-1.3-10
	c-0.5-0.5-0.9-1-1.1-1.7c-0.4,0-1.2,0.5-1.2,0.5c-0.8,0.7-1.6,1.4-2.2,2.2c-1.6,2-12.5,10.8-12.5,10.8s-0.7,0.7-1.8,1.7
	c-1.2,2.6-8.8,8.1-10.6,10.2c-1.2,1.4-2.3,2.9-3.2,4.4l-0.1,2.5c0,0.9-0.4,3.5-0.5,4.1S19,74,19,74s0.7,1.2,0.6,1.6
	s-1.3,0.7-2.2-0.6c-0.2-0.9-0.4-1.8-0.3-2.7l-0.2-0.8l-1,1.6c-0.3,0.8-0.5,1.7-0.6,2.5c-0.2,0.8-0.1,3.2-0.5,3.9
	c-0.3,0.3-0.4,0.6-1.1,0.3c-0.4-0.1-0.2-1.3-0.2-1.3s-0.3,1.8-1.3,1.3c-0.2-0.4-0.2-0.8-0.1-1.2c0,0-0.8,0.7-1.1,0.3
	c-0.3-1-0.5-2.1-0.6-3.1c-0.3-1.2-0.5-2.4-0.7-3.7c0.2-0.8,0.6-1.6,1.2-2.2c0.9-2.1,2.1-4.1,3.4-5.9c0.5-2.1,1.7-3.9,3.3-5.2
	c0,0,5-10.5,13.5-16.7c3.4-3.9,7.2-7.4,11.3-10.5c3.5-5.2,9-8.7,15.2-9.8c0.8-1.1,4.2-2.3,4.2-2.3S60.2,12.3,61.1,6.9z"/>
</svg>
