<svg id="Layer_1" data-name="Layer 1" xmlns="http://www.w3.org/2000/svg" viewBox="0 0 146.66 215.22"><defs><style>.cls-1,.cls-2{fill:#eb5858;}.cls-2{stroke:#fff;stroke-miterlimit:10;}</style></defs><title>anterior_reach</title><path class="cls-1" d="M755.75,487.6l-32.37-36.44,10.23-2.07v-4l-6.67-7-13,2.47-17.59-19.8,2.08-.33v-3.5L696.86,415l1.59-.24,8.9-8.94,9.77,1.44,3.17-3.83v-3.33l-6.24-1,19.57-19.66c1.12-1.13,0-2.75-1.33-1.67-.53.43-12.18,11.44-22,20.72l-9.67-1.56-3.83,4v3.33l6.4.94-6.4,6.06-2.7.36-7.3-8.86-11.67,1.67v3.17l4.77,5.91-1.93.26-18.71-3.68,1.87-1.32v-3.5l-9.5-1.83-5.78,4-35.7-7c-1.21-.24-1.14,3,0,3,.54,0,16,3.14,32.17,6.47l-2.45,1.7v3.5l9.92,1.67,5.84-4.12,24,5,3.18-.48,4.15,5.15,5.41-.86,17.27,20-9,1.71v4.5l5.83,7,12.43-2.52c15.2,17.58,31.09,35.95,31.9,36.85C753,491.92,756.74,489.29,755.75,487.6Z" transform="translate(-609.25 -275.06)"/><path class="cls-2" d="M694.12,294.59s3.33,1.27,4.17,2.33a23.32,23.32,0,0,1,15.17,9.83,70.67,70.67,0,0,1,11.33,10.5c8.46,6.17,13.5,16.67,13.5,16.67a9.2,9.2,0,0,1,3.33,5.17A35.08,35.08,0,0,1,745,345a5.05,5.05,0,0,1,1.17,2.25,28.36,28.36,0,0,1-.67,3.67,15.82,15.82,0,0,1-.62,3.13c-.29.38-1.12-.33-1.12-.33a1.69,1.69,0,0,1-.12,1.21c-1,.5-1.29-1.33-1.29-1.33s.13,1.21-.25,1.33c-.69.25-.82,0-1.08-.33-.35-.7-.27-3.1-.46-3.92a12.21,12.21,0,0,0-.58-2.54l-1-1.58-.17.79a9.43,9.43,0,0,1-.33,2.71c-.87,1.25-2.1,1-2.21.58s.63-1.62.63-1.62-.09-2.24-.17-2.83-.47-3.2-.5-4.08l-.08-2.5a31.49,31.49,0,0,0-3.21-4.42c-1.83-2.06-9.39-7.6-10.62-10.21-1.12-1-1.83-1.71-1.83-1.71s-10.91-8.78-12.5-10.79a12.38,12.38,0,0,0-2.25-2.25s-.77-.57-1.17-.54a4.61,4.61,0,0,1-1.12,1.67l-1.27,10s-1.12,4.88-.94,6.63,2.13,9.06,2.56,13.5c1.62,3.25,2.87,9.5,4.25,16.19a82.62,82.62,0,0,1,1.75,15.56c.06,5.31,1.56,10.88,2.31,12A40.54,40.54,0,0,1,716.68,400L719.43,417s1.44,3.25,1.69,4.19a6.12,6.12,0,0,1-.25,2.56l1.94,8.88a35.33,35.33,0,0,1,1.53,3.91,4.69,4.69,0,0,1-.41,2.13l-6.78,1.28a3.14,3.14,0,0,1-.44-1.69,10,10,0,0,1-1.75-5.78,14.18,14.18,0,0,0,.13-3.25c-.22-.64-2.22-2.53-1.75-5.12a30.32,30.32,0,0,0,.59-3.66c0-.94-8.12-17.37-8.12-17.37a22.1,22.1,0,0,1-3.19-5.94c-1.19-3.44-1.35-7.61-2-9.19-1.75-2.56-3.95-9.49-4.62-11.25l-5.87-15.25s3.5,11.38,4,15.75-1.62,10.19-1.62,10.19v2.25c-.19,2.5-3.25,8.66-3.19,9.88s.89,2.4.94,3.31l.13,2.56s.69,3.06.88,3.56,2.25,1.78,2.5,2.75a2.45,2.45,0,0,1-.25,2.16s.72,2.31-2.12,2a2.34,2.34,0,0,1-2.06-.12s-1.19.28-1.69-.37a1.79,1.79,0,0,1-1.44-.56s-2.5-.31-2.72-2.16.78-5.69.78-5.69a6.12,6.12,0,0,0,.06-2.28,8.9,8.9,0,0,1-.84-2.59,4,4,0,0,1,.44-1.75c.25-1.16-3.75-8.44-3.84-11s1.75-6.12,1.75-6.12a67,67,0,0,0-2.81-8.44c-3.42-6.31-11.25-23.37-10.75-30.81a28.18,28.18,0,0,1,3.56-12.25s1.23-3.75,1-4.81l-2.56-12.06a14.77,14.77,0,0,0-1.44-1.69,106.78,106.78,0,0,0-6.69,11.69,44.78,44.78,0,0,1-4.5,6.56s-2.06,4.48-2.75,5.44-5.25,7.38-5.81,8.06a9.75,9.75,0,0,0-1,2.88l-.31,3.59s.56.32.41.75c-.16.84-2.09,1.22-2.09,1.22a4.8,4.8,0,0,1-.53,2.06c-.49.73.72,2,.66,2.59s-1.22,1-1.22,1-.91.76-1.37.16a26,26,0,0,1-1.53-3.72s-.08,3-.16,3.56-.91,1.14-1.22.59a27.81,27.81,0,0,1-.44-4.66,34.07,34.07,0,0,1-.34-4.91,1.61,1.61,0,0,1,.59-.75,10,10,0,0,0,1.41-1.81l1.13-2.87a72.53,72.53,0,0,1,2.81-8.28c1.17-2.4,4.05-9.61,5.56-11.44,2.29-3.26,8.44-12.78,8.44-12.78s2.45-7.5,7-11.25a26.34,26.34,0,0,1,5.16-2.62,22,22,0,0,1,7.47-3.25s-5-6.87-1.44-14.94c.46-.78,1.63-3.87,7.56-4.37a8.3,8.3,0,0,1,9.19,6.25C695.68,287.36,694.12,294.59,694.12,294.59Z" transform="translate(-609.25 -275.06)"/><path class="cls-1" d="M694.12,294.59s3.33,1.27,4.17,2.33a23.32,23.32,0,0,1,15.17,9.83,70.67,70.67,0,0,1,11.33,10.5c8.46,6.17,13.5,16.67,13.5,16.67a9.2,9.2,0,0,1,3.33,5.17A35.08,35.08,0,0,1,745,345a5.05,5.05,0,0,1,1.17,2.25,28.36,28.36,0,0,1-.67,3.67,15.82,15.82,0,0,1-.62,3.13c-.29.38-1.12-.33-1.12-.33a1.69,1.69,0,0,1-.12,1.21c-1,.5-1.29-1.33-1.29-1.33s.13,1.21-.25,1.33c-.69.25-.82,0-1.08-.33-.35-.7-.27-3.1-.46-3.92a12.21,12.21,0,0,0-.58-2.54l-1-1.58-.17.79a9.43,9.43,0,0,1-.33,2.71c-.87,1.25-2.1,1-2.21.58s.63-1.62.63-1.62-.09-2.24-.17-2.83-.47-3.2-.5-4.08l-.08-2.5a31.49,31.49,0,0,0-3.21-4.42c-1.83-2.06-9.39-7.6-10.62-10.21-1.12-1-1.83-1.71-1.83-1.71s-10.91-8.78-12.5-10.79a12.38,12.38,0,0,0-2.25-2.25s-.77-.57-1.17-.54a4.61,4.61,0,0,1-1.12,1.67l-1.27,10s-1.12,4.88-.94,6.63,2.13,9.06,2.56,13.5c1.62,3.25,2.87,9.5,4.25,16.19a82.62,82.62,0,0,1,1.75,15.56c.06,5.31,1.56,10.88,2.31,12A40.54,40.54,0,0,1,716.68,400L719.43,417s1.44,3.25,1.69,4.19a6.12,6.12,0,0,1-.25,2.56l1.94,8.88a35.33,35.33,0,0,1,1.53,3.91,4.69,4.69,0,0,1-.41,2.13l-6.78,1.28a3.14,3.14,0,0,1-.44-1.69,10,10,0,0,1-1.75-5.78,14.18,14.18,0,0,0,.13-3.25c-.22-.64-2.22-2.53-1.75-5.12a30.32,30.32,0,0,0,.59-3.66c0-.94-8.12-17.37-8.12-17.37a22.1,22.1,0,0,1-3.19-5.94c-1.19-3.44-1.35-7.61-2-9.19-1.75-2.56-3.95-9.49-4.62-11.25l-5.87-15.25s3.5,11.38,4,15.75-1.62,10.19-1.62,10.19v2.25c-.19,2.5-3.25,8.66-3.19,9.88s.89,2.4.94,3.31l.13,2.56s.69,3.06.88,3.56,2.25,1.78,2.5,2.75a2.45,2.45,0,0,1-.25,2.16s.72,2.31-2.12,2a2.34,2.34,0,0,1-2.06-.12s-1.19.28-1.69-.37a1.79,1.79,0,0,1-1.44-.56s-2.5-.31-2.72-2.16.78-5.69.78-5.69a6.12,6.12,0,0,0,.06-2.28,8.9,8.9,0,0,1-.84-2.59,4,4,0,0,1,.44-1.75c.25-1.16-3.75-8.44-3.84-11s1.75-6.12,1.75-6.12a67,67,0,0,0-2.81-8.44c-3.42-6.31-11.25-23.37-10.75-30.81a28.18,28.18,0,0,1,3.56-12.25s1.23-3.75,1-4.81l-2.56-12.06a14.77,14.77,0,0,0-1.44-1.69,106.78,106.78,0,0,0-6.69,11.69,44.78,44.78,0,0,1-4.5,6.56s-2.06,4.48-2.75,5.44-5.25,7.38-5.81,8.06a9.75,9.75,0,0,0-1,2.88l-.31,3.59s.56.32.41.75c-.16.84-2.09,1.22-2.09,1.22a4.8,4.8,0,0,1-.53,2.06c-.49.73.72,2,.66,2.59s-1.22,1-1.22,1-.91.76-1.37.16a26,26,0,0,1-1.53-3.72s-.08,3-.16,3.56-.91,1.14-1.22.59a27.81,27.81,0,0,1-.44-4.66,34.07,34.07,0,0,1-.34-4.91,1.61,1.61,0,0,1,.59-.75,10,10,0,0,0,1.41-1.81l1.13-2.87a72.53,72.53,0,0,1,2.81-8.28c1.17-2.4,4.05-9.61,5.56-11.44,2.29-3.26,8.44-12.78,8.44-12.78s2.45-7.5,7-11.25a26.34,26.34,0,0,1,5.16-2.62,22,22,0,0,1,7.47-3.25s-5-6.87-1.44-14.94c.46-.78,1.63-3.87,7.56-4.37a8.3,8.3,0,0,1,9.19,6.25C695.68,287.36,694.12,294.59,694.12,294.59Z" transform="translate(-609.25 -275.06)"/></svg>