<?xml version="1.0" encoding="utf-8"?>
<!-- Generator: Adobe Illustrator 22.0.1, SVG Export Plug-In . SVG Version: 6.00 Build 0)  -->
<svg version="1.1" id="Layer_1" xmlns="http://www.w3.org/2000/svg" xmlns:xlink="http://www.w3.org/1999/xlink" x="0px" y="0px"
	 viewBox="0 0 112.1 71.6" style="enable-background:new 0 0 112.1 71.6;" xml:space="preserve">
<style type="text/css">
	.st0{fill:#FFFFFF;stroke:#EB5858;stroke-miterlimit:10;}
	.st1{fill:#FBDEDE;}
	.st2{fill:none;stroke:#EB5858;stroke-width:0.5;stroke-miterlimit:10;}
</style>
<title>ankle_clearing_screen_left</title>
<path class="st0" d="M1.8,32.2C6,17.9,17.6,11.8,21.7,10.9c5.8-0.9,9.9-3.5,11.2-3.5c1.3,0.1,2.7,0.1,4,0c1.8-0.2,4.8-3.8,4.8-3.8
	s1.8-4.3,7.1-2.8s4.9,8,4.6,9S50.1,13,50.1,13c-0.4,0.3-0.9,0.5-1.3,0.7c-0.4,0.1-0.5,1.8-0.8,2.1s-0.9,0.1-0.9,0.1
	c1.6,0.9,3.3,1.8,5,2.6c0.9,0.1,1.8,0.3,2.7,0.6c1.2,0.5,10.5,6,11.8,6.4c1,0.3,2,0.5,3,0.6c1.4,0,2.8,0,4.2,0.2
	c1.1,0.2,2.4,1.4,2.4,2c0.2,2.4-1.2,3.5-1.6,3.4s-0.5-2.4-1.5-2.5s-2.5,0.6-3.4,0.6s-1.9-1.5-2.8-1.6s-6.4-0.5-8.8-1
	s-8.8-4.1-8.8-4.1l3.6,2.7c0,0,7.1,4.6,9.9,7c1.8,1.4,3.8,2.7,5.8,3.7c1.1,0.4,4,1.2,4.9,1.8s0.8,2.6,0.6,3.2s-2.2,2.4-3,2.4
	c-0.6,0-1.2-0.4-1.4-0.9c-0.1-0.8,0.5-0.2,0-1.4S66.4,39,66.4,39s-7.8-1.7-10.4-3c-2-1-3.8-2.4-5.2-4C49.9,31.3,39,24.4,39,24.4
	c-0.4,0.8-0.9,1.6-1.6,2.3c-0.9,1-4.6,2.8-4.6,2.8s4.1,1,5.2,2.3c0.9,1.1,1.4,2.5,1.2,3.9c-0.1,1.9-3,6.8-3,6.8s4.4,3.5,5.4,5.1
	c3.2,2.2,9.5,7.3,11.8,8.6s8.9,4.2,8.9,4.2c0.2-0.4,0.6-0.7,1.1-0.8c0.8-0.1,2.6,1.9,2.6,1.9c1.4,0.8,2.9,1.5,4.4,2.1
	c1.2,0.4,4.4,1.2,5.2,1.6s0.5,1.4,0.1,1.8s-5.1,1.4-5.1,1.4c-2.6,0.3-5.2,0.7-7.8,1.3c-1.6,0.5-2.6,1.4-4,1.4s-1.9-0.3-2.1-0.9
	c-0.1-1-0.1-2,0.1-3l-0.7-2.5c0,0-0.1-0.5-1.2-1.2s-9.1-3.7-9.1-3.7c-1.7-0.1-3.3-0.5-4.7-1.3c-2.1-1.2-6.6-6.8-7.8-7.6
	s-4.4-0.8-4.4-0.8l-3,4.6c0.5,0,1,0.2,1.3,0.6c0.2,0.6,0.3,1.3,0.1,2c1.1,0.8,2.2,1.6,3.4,2.2c1.1,0.4,4,0.6,4.8,1.6
	c0.4,2.4-0.8,2.7-2.2,2.9s-7.6-0.2-8.8-0.2s-4.8,0.4-6.1,0.3c-1.1-0.1-2-0.8-2.2-1.9c-0.1-0.7,1-1.6,1-2.1c0-1,0.1-2,0.2-3.1
	c0.2-0.6,1.9-1.2,1.9-1.2L7.7,46.2c0,0-7.2-2.6-7.2-7.8S1.8,33,1.8,32.2z"/>
<path class="st1" d="M1.8,32.2C6,17.9,17.6,11.8,21.7,10.9c5.8-0.9,9.9-3.5,11.2-3.5c1.3,0.1,2.7,0.1,4,0c1.8-0.2,4.8-3.8,4.8-3.8
	s1.8-4.3,7.1-2.8s4.9,8,4.6,9S50.1,13,50.1,13c-0.4,0.3-0.9,0.5-1.3,0.7c-0.4,0.1-0.5,1.8-0.8,2.1s-0.9,0.1-0.9,0.1
	c1.6,0.9,3.3,1.8,5,2.6c0.9,0.1,1.8,0.3,2.7,0.6c1.2,0.5,10.5,6,11.8,6.4c1,0.3,2,0.5,3,0.6c1.4,0,2.8,0,4.2,0.2
	c1.1,0.2,2.4,1.4,2.4,2c0.2,2.4-1.2,3.5-1.6,3.4s-0.5-2.4-1.5-2.5s-2.5,0.6-3.4,0.6s-1.9-1.5-2.8-1.6s-6.4-0.5-8.8-1
	s-8.8-4.1-8.8-4.1l3.6,2.7c0,0,7.1,4.6,9.9,7c1.8,1.4,3.8,2.7,5.8,3.7c1.1,0.4,4,1.2,4.9,1.8s0.8,2.6,0.6,3.2s-2.2,2.4-3,2.4
	c-0.6,0-1.2-0.4-1.4-0.9c-0.1-0.8,0.5-0.2,0-1.4S66.4,39,66.4,39s-7.8-1.7-10.4-3c-2-1-3.8-2.4-5.2-4C49.9,31.3,39,24.4,39,24.4
	c-0.4,0.8-0.9,1.6-1.6,2.3c-0.9,1-4.6,2.8-4.6,2.8s4.1,1,5.2,2.3c0.9,1.1,1.4,2.5,1.2,3.9c-0.1,1.9-3,6.8-3,6.8s4.4,3.5,5.4,5.1
	c3.2,2.2,9.5,7.3,11.8,8.6s8.9,4.2,8.9,4.2c0.2-0.4,0.6-0.7,1.1-0.8c0.8-0.1,2.6,1.9,2.6,1.9c1.4,0.8,2.9,1.5,4.4,2.1
	c1.2,0.4,4.4,1.2,5.2,1.6s0.5,1.4,0.1,1.8s-5.1,1.4-5.1,1.4c-2.6,0.3-5.2,0.7-7.8,1.3c-1.6,0.5-2.6,1.4-4,1.4s-1.9-0.3-2.1-0.9
	c-0.1-1-0.1-2,0.1-3l-0.7-2.5c0,0-0.1-0.5-1.2-1.2s-9.1-3.7-9.1-3.7c-1.7-0.1-3.3-0.5-4.7-1.3c-2.1-1.2-6.6-6.8-7.8-7.6
	s-4.4-0.8-4.4-0.8l-3,4.6c0.5,0,1,0.2,1.3,0.6c0.2,0.6,0.3,1.3,0.1,2c1.1,0.8,2.2,1.6,3.4,2.2c1.1,0.4,4,0.6,4.8,1.6
	c0.4,2.4-0.8,2.7-2.2,2.9s-7.6-0.2-8.8-0.2s-4.8,0.4-6.1,0.3c-1.1-0.1-2-0.8-2.2-1.9c-0.1-0.7,1-1.6,1-2.1c0-1,0.1-2,0.2-3.1
	c0.2-0.6,1.9-1.2,1.9-1.2L7.7,46.2c0,0-7.2-2.6-7.2-7.8S1.8,33,1.8,32.2z"/>
<path class="st2" d="M29.1,50.5c0,0-17.7-3.1-21.4-4"/>
<path class="st2" d="M36.7,42.5c0,0-8.8-7.8-16.3-10.7"/>
</svg>
