<svg id="Layer_1" data-name="Layer 1" xmlns="http://www.w3.org/2000/svg" viewBox="0 0 57.04 94.97"><defs><style>.cls-1{fill:#eb5858;}</style></defs><title>broad_jump</title><path class="cls-1" d="M43.72,30.52s1.25.16,2-2.87c1.72-5.28,7.84-2.84,8.38-2.62A4.93,4.93,0,0,1,57,30.53c-.12,1-1.5,3-1.62,3.5-.31.66.47,2.22.25,2.63s-1.75,0-1.75,0-1.5,2.75-2.75,2.88-2.41-1-3.25-1.12a22.83,22.83,0,0,0-6.27,1.1c-.52.42-3.16,4.72-7.12,5.75l-12,3.5,3.88,7.38s2.17,2.25,2.38,3.75-1.25,3.62-1.51,4.62L24.35,74.9a22.89,22.89,0,0,0-.75,4,5.44,5.44,0,0,0,.75,2.25c.16.41,3,1.88,3,1.88s4.66.56,5.25,1.13a1.18,1.18,0,0,1,0,1.63,6.07,6.07,0,0,1-4.12,2.13H24.11a24.75,24.75,0,0,0,2.73,1.6c.74.28,4,1,4.25,1.63s-.5,1.72-1,2.13A10,10,0,0,1,24.72,95c-1.53,0-5.62-.62-5.62-.62s-4.12-.12-4.5-.62.26-5.52.46-5.92a1.07,1.07,0,0,1,.67-.5l-.5-9.67a18.09,18.09,0,0,1-.79-4.79c.23-3.06,2.88-7.72,2.83-8.25a4.07,4.07,0,0,0-.79-1.46s-5.17-1-6.46-1.12-3.81.34-4.21,0S3.06,52.42,2.27,50.54A12.13,12.13,0,0,1,.84,39.19a7.47,7.47,0,0,1,2.83-3c2.58-1.6,23-6.42,23-6.42s-3.62-5-4.17-6-9.66-12.62-9.66-12.62L9.34,9,7.92,8S5.64,7.4,5.75,6.85s1.88-.5,1.88-.5-2.28-3-1.83-3.58,3,2.38,3,2.38S6.15,1.25,6.8.82,10.05,3.7,10.05,3.7,7.83.5,8.38.12s1.71,1.29,1.71,1.29a1.25,1.25,0,0,1,1-.17c.58.18,1.43,2.31,1.83,2.83l1.92,2.45,2,3.17s3.78,3.57,4.58,4.54l6,7.25-4.58-9.67-2.67-.75-2-.71s-1-.49-.79-1,2,0,2.33-.12.28-.52,0-1.29S16.47,4.53,16.88,4s3.46,2.25,3.46,2.25S18.25,2.27,18.8,2s2.54,3.67,2.54,3.67-.94-3.48-.42-3.63,2,3.54,2,3.54.18-2.78.67-2.75,1,3.67,1,3.67a6.89,6.89,0,0,1,1,3.25,23.63,23.63,0,0,1,2.58,3.75c1,1.8,3.31,6.26,3.71,6.67l4.46,4.54a1.76,1.76,0,0,1,1,0,20.1,20.1,0,0,1,2.5,2.79Z" transform="translate(-0.04 -0.06)"/></svg>