<svg id="Layer_1" data-name="Layer 1" xmlns="http://www.w3.org/2000/svg" xmlns:xlink="http://www.w3.org/1999/xlink" viewBox="0 0 58.24 88.56"><defs><style>.cls-1,.cls-4,.cls-6{fill:none;}.cls-2{clip-path:url(#clip-path);}.cls-3{fill:#eb5959;}.cls-4,.cls-6{stroke:#fff;stroke-miterlimit:10;}.cls-4{stroke-width:1.55px;}.cls-5{fill:#404040;}.cls-6{stroke-width:0.39px;}</style><clipPath id="clip-path" transform="translate(-654.68 -341.02)"><rect class="cls-1" x="641.46" y="341.79" width="84.69" height="87.01"/></clipPath></defs><title>2-1-2_bound</title><g class="cls-2"><path class="cls-3" d="M679.87,375.62a12.18,12.18,0,0,0,1.35-3.59,7.7,7.7,0,0,1,.66-2.53s.42-3.5,1-5.89,1.78-6.86,3.34-8.08a7.71,7.71,0,0,1,4.25-1.79c1.56-.45,3.58-1.56,4-1.64s.72.33.72.33a7.92,7.92,0,0,0,2.2-3.53c.35-8.27,7.38-7.3,8.39-6.77,5.54,2.55,1.85,8.82,1.85,8.82l-.65.87s.09,1.87-.19,2.18-1.4,0-1.4,0a5.86,5.86,0,0,1-.42,1.15c-.2.31-.84.42-.84.42a1.21,1.21,0,0,1-.28.95c-.84.51-2.65-1.17-2.94-.78l-1.09,1.56a7.81,7.81,0,0,1,2.07,3.11c.45,1.68-.45,4.39-.45,4.39l-2.33,7.61s1.71,3.89,2.27,5.34a33.21,33.21,0,0,0,2.94,4.66l2.16,1.33a8.42,8.42,0,0,1,2,2c.19.36.14.33-.17.47s-1-.19-1-.19a3.77,3.77,0,0,1,.78,1.15,2,2,0,0,1-.47,1.31c-.2.28-.84.37-.84.37a2.76,2.76,0,0,1-.37.31,1.14,1.14,0,0,1-.45,0h-.75s-.34.62-.64.61a.63.63,0,0,1-.61-.45,5.24,5.24,0,0,1,0-1.12,22.75,22.75,0,0,1-1.63-2.38,8.29,8.29,0,0,1-.39-1.4s-4.73-4.9-5-5.18l-.7-.92s-.88,2.52-1.23,3.16a5.18,5.18,0,0,1-1.56,1.35,14.92,14.92,0,0,0,.63,1.85c.19.31,1.76,1.06,2,1.4s-.09,1.09-.09,1.09a15.67,15.67,0,0,1,2.21,2.6l3.19,6.44,1.31,1.56a3.29,3.29,0,0,1,.59,1.22,11,11,0,0,1-.19,3.19l-.23,10s0,4.9.06,5.45a5.79,5.79,0,0,0,.42,1.4s1-.61,1.45-.2.31,1.65.31,1.65a25.83,25.83,0,0,0,3,1.73l3.8,1.68a.79.79,0,0,1,.34.9c-.22,1.16-1.93,1.48-3.22,1.48s-3.27-.52-4.45-.61a23.23,23.23,0,0,0-3.53.28,8.68,8.68,0,0,1-2.74-.05,1.32,1.32,0,0,1-1-1c0-.36.59-1.22.59-1.22a18.69,18.69,0,0,1,0-2.8.63.63,0,0,1,.59-.37s-.43-5-.66-6.63-1.67-3.22-2-5.06a29,29,0,0,1,.29-6,9.14,9.14,0,0,0,.16-1.17,7,7,0,0,0-1.38-1.23s-5.37,1.76-5.76,1.85-1,.78-1.37.73-1.4-3-1.4-3l-.33.25s-.69,4.26-.78,4.78c-.1.85-3,1.29-3.69,1.31a46.37,46.37,0,0,1-6.22-.78s-2.83,1.86-3.31,2.1-2.8,4-3.8,5a42.55,42.55,0,0,0-3.11,2.91,16,16,0,0,0-1.44,3.25s-.19.78,0,1,.84.84.93,1.2-.37,1-.37,1a31.73,31.73,0,0,0,2,2.86,14,14,0,0,0,2.52,1.37s.56.31.47.77c-.11,1.4-2.88,1.63-2.88,1.63s-3.61.45-4.79-.2-1.9-2.29-2.48-2.83-3.54-2.1-3.54-3.16a2.25,2.25,0,0,1,.28-1.07l1-1.34s.66-2,2.07-1.93l2.85-6.46s.39-3.64,2.07-5.44a40,40,0,0,1,5.33-4.31,1.65,1.65,0,0,1,.14-.59l4.09-9.71a3.62,3.62,0,0,1-.06-1.79l.5-.9a4.08,4.08,0,0,1-.37-1,28.1,28.1,0,0,1,.42-3.41s-.45-.23-.42-.59,2-4.48,2.58-4.78a16.4,16.4,0,0,0,3.9-3.51" transform="translate(-654.68 -341.02)"/><path class="cls-4" d="M679.87,375.62a12.18,12.18,0,0,0,1.35-3.59,7.7,7.7,0,0,1,.66-2.53s.42-3.5,1-5.89,1.78-6.86,3.34-8.08a7.71,7.71,0,0,1,4.25-1.79c1.56-.45,3.58-1.56,4-1.64s.72.33.72.33a7.92,7.92,0,0,0,2.2-3.53c.35-8.27,7.38-7.3,8.39-6.77,5.54,2.55,1.85,8.82,1.85,8.82l-.65.87s.09,1.87-.19,2.18-1.4,0-1.4,0a5.86,5.86,0,0,1-.42,1.15c-.2.31-.84.42-.84.42a1.21,1.21,0,0,1-.28.95c-.84.51-2.65-1.17-2.94-.78l-1.09,1.56a7.81,7.81,0,0,1,2.07,3.11c.45,1.68-.45,4.39-.45,4.39l-2.33,7.61s1.71,3.89,2.27,5.34a33.21,33.21,0,0,0,2.94,4.66l2.16,1.33a8.42,8.42,0,0,1,2,2c.19.36.14.33-.17.47s-1-.19-1-.19a3.77,3.77,0,0,1,.78,1.15,2,2,0,0,1-.47,1.31c-.2.28-.84.37-.84.37a2.76,2.76,0,0,1-.37.31,1.14,1.14,0,0,1-.45,0h-.75s-.34.62-.64.61a.63.63,0,0,1-.61-.45,5.24,5.24,0,0,1,0-1.12,22.75,22.75,0,0,1-1.63-2.38,8.29,8.29,0,0,1-.39-1.4s-4.73-4.9-5-5.18l-.7-.92s-.88,2.52-1.23,3.16a5.18,5.18,0,0,1-1.56,1.35,14.92,14.92,0,0,0,.63,1.85c.19.31,1.76,1.06,2,1.4s-.09,1.09-.09,1.09a15.67,15.67,0,0,1,2.21,2.6l3.19,6.44,1.31,1.56a3.29,3.29,0,0,1,.59,1.22,11,11,0,0,1-.19,3.19l-.23,10s0,4.9.06,5.45a5.79,5.79,0,0,0,.42,1.4s1-.61,1.45-.2.31,1.65.31,1.65a25.83,25.83,0,0,0,3,1.73l3.8,1.68a.79.79,0,0,1,.34.9c-.22,1.16-1.93,1.48-3.22,1.48s-3.27-.52-4.45-.61a23.23,23.23,0,0,0-3.53.28,8.68,8.68,0,0,1-2.74-.05,1.32,1.32,0,0,1-1-1c0-.36.59-1.22.59-1.22a18.69,18.69,0,0,1,0-2.8.63.63,0,0,1,.59-.37s-.43-5-.66-6.63-1.67-3.22-2-5.06a29,29,0,0,1,.29-6,9.14,9.14,0,0,0,.16-1.17,7,7,0,0,0-1.38-1.23s-5.37,1.76-5.76,1.85-1,.78-1.37.73-1.4-3-1.4-3l-.33.25s-.69,4.26-.78,4.78c-.1.85-3,1.29-3.69,1.31a46.37,46.37,0,0,1-6.22-.78s-2.83,1.86-3.31,2.1-2.8,4-3.8,5a42.55,42.55,0,0,0-3.11,2.91,16,16,0,0,0-1.44,3.25s-.19.78,0,1,.84.84.93,1.2-.37,1-.37,1a31.73,31.73,0,0,0,2,2.86,14,14,0,0,0,2.52,1.37s.56.31.47.77c-.11,1.4-2.88,1.63-2.88,1.63s-3.61.45-4.79-.2-1.9-2.29-2.48-2.83-3.54-2.1-3.54-3.16a2.25,2.25,0,0,1,.28-1.07l1-1.34s.66-2,2.07-1.93l2.85-6.46s.39-3.64,2.07-5.44a40,40,0,0,1,5.33-4.31,1.65,1.65,0,0,1,.14-.59l4.09-9.71a3.62,3.62,0,0,1-.06-1.79l.5-.9a4.08,4.08,0,0,1-.37-1,28.1,28.1,0,0,1,.42-3.41s-.45-.23-.42-.59,2-4.48,2.58-4.78A16.4,16.4,0,0,0,679.87,375.62Z" transform="translate(-654.68 -341.02)"/><path class="cls-5" d="M679.87,375.62a12.18,12.18,0,0,0,1.35-3.59,7.7,7.7,0,0,1,.66-2.53s.42-3.5,1-5.89,1.78-6.86,3.34-8.08a7.71,7.71,0,0,1,4.25-1.79c1.56-.45,3.58-1.56,4-1.64s.72.33.72.33a7.92,7.92,0,0,0,2.2-3.53c.35-8.27,7.38-7.3,8.39-6.77,5.54,2.55,1.85,8.82,1.85,8.82l-.65.87s.09,1.87-.19,2.18-1.4,0-1.4,0a5.86,5.86,0,0,1-.42,1.15c-.2.31-.84.42-.84.42a1.21,1.21,0,0,1-.28.95c-.84.51-2.65-1.17-2.94-.78l-1.09,1.56a7.81,7.81,0,0,1,2.07,3.11c.45,1.68-.45,4.39-.45,4.39l-2.33,7.61s1.71,3.89,2.27,5.34a33.21,33.21,0,0,0,2.94,4.66l2.16,1.33a8.42,8.42,0,0,1,2,2c.19.36.14.33-.17.47s-1-.19-1-.19a3.77,3.77,0,0,1,.78,1.15,2,2,0,0,1-.47,1.31c-.2.28-.84.37-.84.37a2.76,2.76,0,0,1-.37.31,1.14,1.14,0,0,1-.45,0h-.75s-.34.62-.64.61a.63.63,0,0,1-.61-.45,5.24,5.24,0,0,1,0-1.12,22.75,22.75,0,0,1-1.63-2.38,8.29,8.29,0,0,1-.39-1.4s-4.73-4.9-5-5.18l-.7-.92s-.88,2.52-1.23,3.16a5.18,5.18,0,0,1-1.56,1.35,14.92,14.92,0,0,0,.63,1.85c.19.31,1.76,1.06,2,1.4s-.09,1.09-.09,1.09a15.67,15.67,0,0,1,2.21,2.6l3.19,6.44,1.31,1.56a3.29,3.29,0,0,1,.59,1.22,11,11,0,0,1-.19,3.19l-.23,10s0,4.9.06,5.45a5.79,5.79,0,0,0,.42,1.4s1-.61,1.45-.2.31,1.65.31,1.65a25.83,25.83,0,0,0,3,1.73l3.8,1.68a.79.79,0,0,1,.34.9c-.22,1.16-1.93,1.48-3.22,1.48s-3.27-.52-4.45-.61a23.23,23.23,0,0,0-3.53.28,8.68,8.68,0,0,1-2.74-.05,1.32,1.32,0,0,1-1-1c0-.36.59-1.22.59-1.22a18.69,18.69,0,0,1,0-2.8.63.63,0,0,1,.59-.37s-.43-5-.66-6.63-1.67-3.22-2-5.06a29,29,0,0,1,.29-6,9.14,9.14,0,0,0,.16-1.17,7,7,0,0,0-1.38-1.23s-5.37,1.76-5.76,1.85-1,.78-1.37.73-1.4-3-1.4-3l-.33.25s-.69,4.26-.78,4.78c-.1.85-3,1.29-3.69,1.31a46.37,46.37,0,0,1-6.22-.78s-2.83,1.86-3.31,2.1-2.8,4-3.8,5a42.55,42.55,0,0,0-3.11,2.91,16,16,0,0,0-1.44,3.25s-.19.78,0,1,.84.84.93,1.2-.37,1-.37,1a31.73,31.73,0,0,0,2,2.86,14,14,0,0,0,2.52,1.37s.56.31.47.77c-.11,1.4-2.88,1.63-2.88,1.63s-3.61.45-4.79-.2-1.9-2.29-2.48-2.83-3.54-2.1-3.54-3.16a2.25,2.25,0,0,1,.28-1.07l1-1.34s.66-2,2.07-1.93l2.85-6.46s.39-3.64,2.07-5.44a40,40,0,0,1,5.33-4.31,1.65,1.65,0,0,1,.14-.59l4.09-9.71a3.62,3.62,0,0,1-.06-1.79l.5-.9a4.08,4.08,0,0,1-.37-1,28.1,28.1,0,0,1,.42-3.41s-.45-.23-.42-.59,2-4.48,2.58-4.78a16.4,16.4,0,0,0,3.9-3.51" transform="translate(-654.68 -341.02)"/><path class="cls-6" d="M699.12,372.45l-2.94,5.84m-15-6.26s.5,3.88.86,5.14,3.64,8.63,3.64,8.63a14.39,14.39,0,0,0-.45,1.55,16,16,0,0,0,0,3.25s-.25,1.07,0,1.29,1-.11,1-.11h1s.24.88.56.9a2.92,2.92,0,0,0,1.55-.9c.05.6-1.23,1.63-1.4,2s0,.51.39.51a2.61,2.61,0,0,0,1.62-.95,5.73,5.73,0,0,0,1-3.19,15,15,0,0,0-1.29-3.53,51.07,51.07,0,0,1-1.4-6.38,52.81,52.81,0,0,0-1.4-8.4,9.28,9.28,0,0,0,2.8-4.48,42.73,42.73,0,0,1-6.77-3.73" transform="translate(-654.68 -341.02)"/></g></svg>