<svg id="Layer_1" data-name="Layer 1" xmlns="http://www.w3.org/2000/svg" viewBox="0 0 252.16 217.02"><defs><style>.cls-1{fill:#404040;}</style></defs><title>active_straight_leg_raise</title><path class="cls-1" d="M556.84,473.72c0,5,3.88,9.22,8.43,9.22a9.06,9.06,0,0,0,1.85-.26,2.1,2.1,0,0,1,.74-.27,2.73,2.73,0,0,1,.79-.27l.74-.41a11.35,11.35,0,0,0,1.3-.74h.3c2.9,0,5.79,0,8.68-.07,2.22,0,4.43-.06,6.65-.13,1.41,0,2.89-.13,4.3-.07,2.65.2,5.24.47,7.82.74,1.91.21,3.82.27,5.72.61a56.86,56.86,0,0,1,8.93,1.75,1.74,1.74,0,0,1,1.23,1.48c.06.34.12.74.18,1.14a57.33,57.33,0,0,1,6.71,2.5c2.9.67,5.85,1.21,8.8,1.68,5.3.67,10.59,1.14,15.94,1.48,4.62.27,9.18.67,13.73.13,6-1,12.49-2.35,18.71-2,1.78-.28,3.63-.48,5.41-.74,3.88-.61,7.7-.88,11.57-1.29,2.09-.26,4.13-.47,6.22-.6a41.94,41.94,0,0,1,7.14-.74c3.57-.07,7.14-.41,10.71-.74s7.2-.41,10.83-.54c3.44-.14,7-.47,10.4-.88a97,97,0,0,1,10.77-.47,95.52,95.52,0,0,0,10.83-.27,101.77,101.77,0,0,0,10.09-1.88l.62-.47a19,19,0,0,1,6.89-3.37,1.28,1.28,0,0,0,.49-.13,2.5,2.5,0,0,1,.31-.07c.06,0,.19-.07.25-.07s.24-.06.37-.06.3-.07.43-.07a.32.32,0,0,1,.24-.07,1.25,1.25,0,0,1,.43-.06h.74c2.89-.28,5.85.47,8.68,1.14,3.39.74,6.89,1.21,10.28.27,3.63-1,6-4.18,6.64-8.15a33.9,33.9,0,0,0,.25-6.12,31.64,31.64,0,0,0-.8-7.27,2.11,2.11,0,0,1-.06-.61,16.56,16.56,0,0,0-4.62-6.26,7.16,7.16,0,0,1-1.29-1.75,9.91,9.91,0,0,0-.92-1.28,23.44,23.44,0,0,0-8.56-4.37,1.13,1.13,0,0,0-.92.2c-1,.74-1.66.27-2.46-.47a28.76,28.76,0,0,0-3.51-2.76c-1.17-.74-1.91-.54-2.46.87a2.21,2.21,0,0,1-2.22,1.69,5.66,5.66,0,0,0-3.63,1.34,2.89,2.89,0,0,1-1.41.4c-1.3.14-1.91.74-2.16,2.16-.18,1.08-.43,2.09-.55,3.16-.31,2.29-1.42,3-3.57,2.9a31.3,31.3,0,0,1-4.8-.94c-.92-.21-15.14-9.83-54.41-10.64-.3.07-3.07.2-4.18.27-.86.07-1.17-.27-1.35-1.28-.37-2.22-.8-4.44-1.3-6.6-1-4.64-2-9.22-2.95-13.86a3.78,3.78,0,0,1-.12-.81,265.12,265.12,0,0,0-7-29.55c-4.18-13.46-10.83-25.72-11.08-25.72-.49-1.27-1-2.62-1.53-4a63.31,63.31,0,0,1-3.7-15.95,9.38,9.38,0,0,1,.86-4.31c0-.07.13-.2.19-.27a13.52,13.52,0,0,1,5-5.38,2.93,2.93,0,0,1,.55-.47c1.11-.81,2.15-1.89,3.51-2.16.31-.06.55-.33.86-.47.12-.07.31-.34.43-.34,1.66.07,2.77-1.48,4.37-1.68,2.09-.27,4.12-.74,6.22-1.14.92-.2,1.47-.61,1.6-1.42.12-1,.3-2.08-.68-2.76a8.66,8.66,0,0,0-1.85-1,13.86,13.86,0,0,0-4.92-1,9.1,9.1,0,0,1-2.34-.4,9.12,9.12,0,0,0-3.57-.27c-1.6.13-3.14-.2-4.74-.2-1.78,0-3.63.13-5.41.2H676a3.1,3.1,0,0,0-.74.13c-.13,0-.19.07-.31.07a1.06,1.06,0,0,1-.49.07v.14c-2.52.13-5.11.2-7.63.33a23.17,23.17,0,0,0-3.76.54c-1.35.27-1.6.88-1.54,2.29.07.94-.06,1.88.07,2.76a26.25,26.25,0,0,0,.67,3.9c.31,1.15.74,2.29,1.11,3.44a6.85,6.85,0,0,0,1.35,2.76,2.81,2.81,0,0,1,.62,1.48c.43,2.55.8,5.11,1.17,7.67.68,4.51,1.29,8.95,2,13.46.25,1.42.37,2.83.55,4.24.37,2.83.62,5.73,1,8.62.12.94,5.17,15.95,5.41,15.95.74,1.55,1.6,3.1,2.4,4.71a3.38,3.38,0,0,1,.31,1.15c.18,1.21.37,2.42.49,3.64a29.47,29.47,0,0,1,.37,5.18q-.27,4.95-.92,9.89c-.68,5.19-2.77,25.31-3.45,28.95-.12.67-.43,1-1,.94a24.4,24.4,0,0,0-3.19-.2c-3.39.27-6.77.6-10.16.94-1.66.2-1.72.2-1.72-1.55v-.94c0-8.35,0-16.76-.06-25.11,0-6.12-.13-12.18-.19-18.24V372c0-7.95.06-16,0-23.9-.12-19.32-.18-38.71-.3-58-.07-4.24-.19-8.48-.25-12.72-.06-1.35-.19-1.48-1.48-1.61a14,14,0,0,0-1.78-.21c-1.05-.06-1.48.34-1.48,1.48v4.92c0,3.7-.12,7.34,0,11,.49,17.77-.06,35.47.31,53.18.24,11.91.06,23.89.24,35.81.07,1.07.25,42.14.31,52.43,0,3,.12,6,.19,9,0,.95-.19,1.22-.93,1.42-2,.47-4.06.87-6.09,1.34a7.24,7.24,0,0,1-2.34.81,3.92,3.92,0,0,1-.8.34,57.54,57.54,0,0,1-5.85,2c-1.66.47-3.26.87-4.86,1.34a9.64,9.64,0,0,1-1.29.48c-2.28.74-4.55,1.34-6.83,2.28l-2.71,1.22c-.92.53-1.91.94-2.89,1.48-1.29.67-2.53,1.21-3.82,1.81-.18.07-.37.27-.61.27-4.43.61-8.62,2.22-13,3-3.08.54-6.09,1.49-9.17,2.09a57.45,57.45,0,0,1-7,.74,21.22,21.22,0,0,1-4.62-.4,6,6,0,0,1-1.41-.47c-3.57-.81-5.79-5.59-6.59-9a59.18,59.18,0,0,1-1.17-7.27,20.2,20.2,0,0,1,0-3.3,13,13,0,0,1,.31-1.75c.06-.74.19-1.55.25-2.29.06-.94.24-1.82.3-2.76.13-1.28-.24-1.62-1.41-1.35a3.28,3.28,0,0,1-.8.14,3.72,3.72,0,0,0-3.2,1.81,28.82,28.82,0,0,0-3.63,6.54c-.37.94-.8,1.88-1.23,2.76-.25.8-.5,1.55-.8,2.35s-.44,1.28-.62,1.95a17,17,0,0,1-.37,2.43c-.25,1.28-.61,2.55-.86,3.83-.49,2.43-.92,4.92-1.36,7.34-.36,1.82-.79,3.64-1.1,5.45a10.81,10.81,0,0,0-.74,3.77" transform="translate(-556.84 -275.48)"/></svg>