<svg id="Layer_1" data-name="Layer 1" xmlns="http://www.w3.org/2000/svg" xmlns:xlink="http://www.w3.org/1999/xlink" viewBox="0 0 62.25 51.58"><defs><style>.cls-1,.cls-5{fill:none;}.cls-2{clip-path:url(#clip-path);}.cls-3{fill:#404040;}.cls-4{fill:#fff;}.cls-5{stroke:#fff;stroke-linecap:round;stroke-miterlimit:10;stroke-width:0.61px;}</style><clipPath id="clip-path" transform="translate(-652.26 -359.74)"><rect class="cls-1" x="652.26" y="353.59" width="62.25" height="63.96"/></clipPath></defs><title>ankle_clearing</title><g class="cls-2"><path class="cls-3" d="M663.6,359.81l26.61.34s6.52,5.62,8.9,8.23a4.6,4.6,0,0,1,.81,5.71c-.41,1-3.51,8.31-4.19,10.06s-3.36,4.81-4.6,7.26a56.9,56.9,0,0,0-2.64,7.28s1.76.08,1.29,2.43a13.26,13.26,0,0,0,7.65,3.52,7.55,7.55,0,0,1,2.59.74H679.13c.62-1.15,1.32-5.91,2-4.15s3.64-8.49,4-9.89a16.16,16.16,0,0,1,1.51-6.64s-8.62,7.91-12.21,9.3a26.52,26.52,0,0,0-5.68,5.76s.77-.11,1.07,1.66,8.2,3.95,8.2,3.95H658.54s1.08-6.62,2.31-4.39c3-3.65,6.69-7.17,7.59-9.14,4.45-8.52,10-11.09,10-11.09s2.32-1,1.32-2.95c-1-2.64-9.61-10-11.76-14-1.68-.89-4.44-4-4.44-4" transform="translate(-652.26 -359.74)"/><path class="cls-4" d="M690.28,376l-1.71-3.95a6.11,6.11,0,0,1,2.39,2c.27.75-.68,1.94-.68,1.94" transform="translate(-652.26 -359.74)"/><path class="cls-5" d="M683,360.05s6.38,12.43,7.47,16.79-3.84,7.87-3.84,7.87" transform="translate(-652.26 -359.74)"/></g><polygon class="cls-3" points="1.39 45.66 0.04 47.84 0 51.58 62.17 51.55 62.25 45.62 1.39 45.66"/></svg>