<svg id="Layer_1" data-name="Layer 1" xmlns="http://www.w3.org/2000/svg" xmlns:xlink="http://www.w3.org/1999/xlink" viewBox="0 0 77.16 112.97"><defs><style>.cls-1{fill:none;}.cls-2{clip-path:url(#clip-path);}.cls-3{fill:#404040;}</style><clipPath id="clip-path" transform="translate(-644.98 -328.87)"><rect class="cls-1" x="627.08" y="328.87" width="112.97" height="112.97"/></clipPath></defs><title>anterior_reach</title><g class="cls-2"><path class="cls-3" d="M722.05,440.41l-17-19.17,5.39-1.09v-2.1l-3.51-3.69-6.84,1.3-9.26-10.41,1.1-.18v-1.84l-.83-1,.84-.13,4.68-4.7,5.14.75,1.67-2v-1.75l-3.28-.53,10.29-10.34c.59-.6,0-1.45-.7-.88-.28.22-6.41,6-11.57,10.9l-5.09-.82-2,2.1v1.76l3.37.49L691,400.25l-1.42.19-3.84-4.66-6.14.87v1.67l2.51,3.11-1,.14-9.85-1.94,1-.69V397.1l-5-1-3,2.11-18.78-3.68c-.64-.13-.6,1.57,0,1.57.28,0,8.41,1.66,16.92,3.41l-1.29.89v1.84l5.22.88,3.07-2.17L682,403.61l1.67-.25,2.19,2.71,2.84-.45,9.09,10.52-4.73.9v2.37l3.06,3.68,6.54-1.32c8,9.25,16.36,18.91,16.79,19.38,1.16,1.53,3.13.15,2.6-.74" transform="translate(-644.98 -328.87)"/><path class="cls-3" d="M689.63,338.87a7.38,7.38,0,0,1,2.19,1.22,12.26,12.26,0,0,1,8,5.17,36.82,36.82,0,0,1,6,5.53,26.5,26.5,0,0,1,7.1,8.77,4.81,4.81,0,0,1,1.75,2.72,18.4,18.4,0,0,1,1.78,3.11,2.62,2.62,0,0,1,.61,1.18,13.94,13.94,0,0,1-.35,1.93,7.78,7.78,0,0,1-.33,1.65c-.15.2-.58-.18-.58-.18a.94.94,0,0,1-.07.64c-.52.26-.68-.7-.68-.7s.07.64-.13.7c-.36.13-.43,0-.57-.17a16.6,16.6,0,0,1-.24-2.06,6.05,6.05,0,0,0-.3-1.34l-.53-.83-.09.41a5.33,5.33,0,0,1-.17,1.43c-.46.66-1.11.53-1.16.3s.33-.85.33-.85,0-1.18-.09-1.49-.25-1.68-.27-2.14l0-1.32a16,16,0,0,0-1.69-2.32c-1-1.09-4.94-4-5.58-5.38-.59-.52-1-.9-1-.9s-5.74-4.61-6.57-5.67a6.7,6.7,0,0,0-1.19-1.19s-.4-.3-.61-.28a2.48,2.48,0,0,1-.59.88l-.67,5.26a17.62,17.62,0,0,0-.49,3.49c.09.92,1.12,4.76,1.34,7.1.85,1.71,1.51,5,2.24,8.52a44.08,44.08,0,0,1,.92,8.18,17,17,0,0,0,1.21,6.32,21.22,21.22,0,0,1,2.41,7.76l1.45,8.95s.75,1.71.88,2.2a3.1,3.1,0,0,1-.13,1.35l1,4.67a19.13,19.13,0,0,1,.81,2.06,2.41,2.41,0,0,1-.22,1.12l-3.56.67a1.75,1.75,0,0,1-.24-.89,5.28,5.28,0,0,1-.92-3,7.52,7.52,0,0,0,.07-1.71c-.11-.34-1.17-1.33-.92-2.69a15.82,15.82,0,0,0,.31-1.93c0-.49-4.27-9.14-4.27-9.14a11.62,11.62,0,0,1-1.68-3.12c-.62-1.81-.71-4-1.05-4.84a36.62,36.62,0,0,1-2.43-5.92l-3.09-8a74.86,74.86,0,0,1,2.1,8.29,14.32,14.32,0,0,1-.85,5.36v1.18c-.1,1.32-1.71,4.56-1.68,5.2s.47,1.26.5,1.74l.07,1.35s.36,1.61.46,1.87,1.18.94,1.32,1.45a1.31,1.31,0,0,1-.14,1.14s.38,1.21-1.11,1.05a1.23,1.23,0,0,1-1.09-.07s-.62.15-.88-.19a1,1,0,0,1-.76-.29S684.15,402,684,401a11.5,11.5,0,0,1,.41-3,3.46,3.46,0,0,0,0-1.2,4.39,4.39,0,0,1-.44-1.37,2,2,0,0,1,.23-.92c.13-.61-2-4.44-2-5.79a8.27,8.27,0,0,1,.92-3.21,36.26,36.26,0,0,0-1.48-4.45c-1.8-3.32-5.92-12.29-5.66-16.21a14.91,14.91,0,0,1,1.88-6.44,9.48,9.48,0,0,0,.52-2.53l-1.34-6.35a8,8,0,0,0-.76-.88,54.91,54.91,0,0,0-3.52,6.15,24.53,24.53,0,0,1-2.37,3.45s-1.08,2.35-1.44,2.86-2.77,3.88-3.06,4.24a5.13,5.13,0,0,0-.53,1.51l-.16,1.89s.29.17.22.4c-.09.44-1.1.64-1.1.64a2.66,2.66,0,0,1-.28,1.08c-.26.39.38,1.06.34,1.37s-.64.52-.64.52-.48.4-.72.09a12.79,12.79,0,0,1-.8-2s0,1.58-.09,1.87-.48.6-.64.31a14.41,14.41,0,0,1-.23-2.45,18.54,18.54,0,0,1-.18-2.58.87.87,0,0,1,.31-.4,4.94,4.94,0,0,0,.74-.95l.6-1.51a37.86,37.86,0,0,1,1.47-4.36c.62-1.26,2.14-5.05,2.93-6,1.2-1.72,4.44-6.73,4.44-6.73s1.29-3.94,3.68-5.92a13.87,13.87,0,0,1,2.72-1.37,11.5,11.5,0,0,1,3.93-1.71,8.37,8.37,0,0,1-.76-7.86c.24-.42.86-2,4-2.3a4.35,4.35,0,0,1,4.83,3.28,22.19,22.19,0,0,1-.37,6.68" transform="translate(-644.98 -328.87)"/><path class="cls-3" d="M689.63,338.87a7.38,7.38,0,0,1,2.19,1.22,12.26,12.26,0,0,1,8,5.17,36.82,36.82,0,0,1,6,5.53,26.5,26.5,0,0,1,7.1,8.77,4.81,4.81,0,0,1,1.75,2.72,18.4,18.4,0,0,1,1.78,3.11,2.62,2.62,0,0,1,.61,1.18,13.94,13.94,0,0,1-.35,1.93,7.78,7.78,0,0,1-.33,1.65c-.15.2-.58-.18-.58-.18a.94.94,0,0,1-.07.64c-.52.26-.68-.7-.68-.7s.07.64-.13.7c-.36.13-.43,0-.57-.17a16.6,16.6,0,0,1-.24-2.06,6.05,6.05,0,0,0-.3-1.34l-.53-.83-.09.41a5.33,5.33,0,0,1-.17,1.43c-.46.66-1.11.53-1.16.3s.33-.85.33-.85,0-1.18-.09-1.49-.25-1.68-.27-2.14l0-1.32a16,16,0,0,0-1.69-2.32c-1-1.09-4.94-4-5.58-5.38-.59-.52-1-.9-1-.9s-5.74-4.61-6.57-5.67a6.7,6.7,0,0,0-1.19-1.19s-.4-.3-.61-.28a2.48,2.48,0,0,1-.59.88l-.67,5.26a17.62,17.62,0,0,0-.49,3.49c.09.92,1.12,4.76,1.34,7.1.85,1.71,1.51,5,2.24,8.52a44.08,44.08,0,0,1,.92,8.18,17,17,0,0,0,1.21,6.32,21.22,21.22,0,0,1,2.41,7.76l1.45,8.95s.75,1.71.88,2.2a3.1,3.1,0,0,1-.13,1.35l1,4.67a19.13,19.13,0,0,1,.81,2.06,2.41,2.41,0,0,1-.22,1.12l-3.56.67a1.75,1.75,0,0,1-.24-.89,5.28,5.28,0,0,1-.92-3,7.52,7.52,0,0,0,.07-1.71c-.11-.34-1.17-1.33-.92-2.69a15.82,15.82,0,0,0,.31-1.93c0-.49-4.27-9.14-4.27-9.14a11.62,11.62,0,0,1-1.68-3.12c-.62-1.81-.71-4-1.05-4.84a36.62,36.62,0,0,1-2.43-5.92l-3.09-8a74.86,74.86,0,0,1,2.1,8.29,14.32,14.32,0,0,1-.85,5.36v1.18c-.1,1.32-1.71,4.56-1.68,5.2s.47,1.26.5,1.74l.07,1.35s.36,1.61.46,1.87,1.18.94,1.32,1.45a1.31,1.31,0,0,1-.14,1.14s.38,1.21-1.11,1.05a1.23,1.23,0,0,1-1.09-.07s-.62.15-.88-.19a1,1,0,0,1-.76-.29S684.15,402,684,401a11.5,11.5,0,0,1,.41-3,3.46,3.46,0,0,0,0-1.2,4.39,4.39,0,0,1-.44-1.37,2,2,0,0,1,.23-.92c.13-.61-2-4.44-2-5.79a8.27,8.27,0,0,1,.92-3.21,36.26,36.26,0,0,0-1.48-4.45c-1.8-3.32-5.92-12.29-5.66-16.21a14.91,14.91,0,0,1,1.88-6.44,9.48,9.48,0,0,0,.52-2.53l-1.34-6.35a8,8,0,0,0-.76-.88,54.91,54.91,0,0,0-3.52,6.15,24.53,24.53,0,0,1-2.37,3.45s-1.08,2.35-1.44,2.86-2.77,3.88-3.06,4.24a5.13,5.13,0,0,0-.53,1.51l-.16,1.89s.29.17.22.4c-.09.44-1.1.64-1.1.64a2.66,2.66,0,0,1-.28,1.08c-.26.39.38,1.06.34,1.37s-.64.52-.64.52-.48.4-.72.09a12.79,12.79,0,0,1-.8-2s0,1.58-.09,1.87-.48.6-.64.31a14.41,14.41,0,0,1-.23-2.45,18.54,18.54,0,0,1-.18-2.58.87.87,0,0,1,.31-.4,4.94,4.94,0,0,0,.74-.95l.6-1.51a37.86,37.86,0,0,1,1.47-4.36c.62-1.26,2.14-5.05,2.93-6,1.2-1.72,4.44-6.73,4.44-6.73s1.29-3.94,3.68-5.92a13.87,13.87,0,0,1,2.72-1.37,11.5,11.5,0,0,1,3.93-1.71,8.37,8.37,0,0,1-.76-7.86c.24-.42.86-2,4-2.3a4.35,4.35,0,0,1,4.83,3.28,22.19,22.19,0,0,1-.37,6.68" transform="translate(-644.98 -328.87)"/></g></svg>