<svg id="Layer_1" data-name="Layer 1" xmlns="http://www.w3.org/2000/svg" viewBox="0 0 56.46 41.9"><defs><style>.cls-1{fill:#414141;fill-rule:evenodd;}</style></defs><title>breathing_screen</title><path class="cls-1" d="M662.72,378.65c14.24-18.76,15.63-4.51,15.2,9.73,1.73-1.91,3.21-3.56,3-3.47l.26-10.69h3.47l-.17,10.69c.09.17,1.65,1.91,3.3,3.9-.44-14.41.87-29.09,15.28-10.16,6.43,8.43,7.74,22.67,8,28.14a4.72,4.72,0,0,1-1.66,3.74,4.11,4.11,0,0,1-3.56,1l-12.24-1.73a5,5,0,0,1-2.61-1.31l-1.21-1.21a4.21,4.21,0,0,1-1.39-3.22c0-3.21-.35-8.07-.52-13.2l-5.13-5.12c-2.08,2-3.65,3.47-4.86,4.69-.18,5.3-.61,10.42-.61,13.63a4.55,4.55,0,0,1-1.39,3.22l-1.22,1.21a4.66,4.66,0,0,1-2.6,1.31l-12.25,1.73a4.2,4.2,0,0,1-3.56-1,4.71,4.71,0,0,1-1.65-3.74c.26-5.47,1.65-19.71,8.08-28.14Z" transform="translate(-654.64 -369.66)"/></svg>