<svg id="Layer_2" data-name="Layer 2" xmlns="http://www.w3.org/2000/svg" viewBox="0 0 382.58 557.81"><defs><style>.cls-1{fill:#404041;}.cls-2{fill:none;stroke:#fff;stroke-miterlimit:10;stroke-width:3px;}.cls-3{fill:#fff;}</style></defs><title>breathing_frc_tlc</title><path class="cls-1" d="M469,512c7.5-36,47.88-39.13,56-38l21.5,3s31-45,37-58.5,4-20.5,4-20.5-.25-12.5-6-20.5c-23-9.25-21.25-32.5-19.5-37s8.5-2.5,8.5-2.5-9.25-74.75,51-80.5,68,69.5,68,69.5,3.5-4,7,0c11.75,25-12.5,42-12.5,42s.5,49.25,3,58.5,9.5,16,9.5,16,60.5,26,80.5,33c59.25,8.75,60.5,53.5,60.5,53.5s16.17,82.33,13,116.5.51,24.84,0,63c.67,41.17,0,105.5,0,105.5h-335s18.17-86.67,16-129.5-9-46.5-9-46.5-61.17-18.33-53.5-65.5c-.61-18.17,3.5-27,3.5-27S466.5,533.5,469,512Z" transform="translate(-468.34 -257.19)"/><path class="cls-2" d="M587.5,398s6.67-19.75,11.83-29,6.2-13.12,12-17.33S619,345,623.67,345s-4,11-4,11,16-11,25.66-7c4,3,.34,13,.34,13s8.66.33,10.33,4,0,9.67,0,9.67,6.91,22.66,3.62,32.33-36.29,38-36.29,38S587.67,591.67,546,613.33C535.67,637,522.5,639,522.5,639" transform="translate(-468.34 -257.19)"/><path class="cls-2" d="M546.5,477s-37,43-49.83,59.09c-10.67,0-24.17,10.41-24.17,10.41" transform="translate(-468.34 -257.19)"/><path class="cls-3" d="M777.33,657.33c8,0,9.34,55.34,13.34,78.67s0,60.67,0,60.67S780,756,772.67,751.33C776.67,708.67,769.33,657.33,777.33,657.33Z" transform="translate(-468.34 -257.19)"/><path class="cls-2" d="M792.44,571.33c0,23.34-15.11,86-15.11,86" transform="translate(-468.34 -257.19)"/></svg>