<svg id="Layer_1" data-name="Layer 1" xmlns="http://www.w3.org/2000/svg" viewBox="0 0 382.58 603.28"><defs><style>.cls-1{fill:#404041;}.cls-2{fill:none;stroke:#fff;stroke-miterlimit:10;stroke-width:3px;}.cls-3{fill:#fff;}</style></defs><title>breathing_frc_tlc_home</title><path class="cls-1" d="M494.66,339.81c7.5-36,47.88-39.13,56-38l21.5,3s31-45,37-58.5,4-20.5,4-20.5-.25-12.5-6-20.5c-23-9.25-21.25-32.5-19.5-37s8.5-2.5,8.5-2.5-9.25-74.75,51-80.5,68,69.5,68,69.5,3.5-4,7,0c11.75,25-12.5,42-12.5,42s.5,49.25,3,58.5,9.5,16,9.5,16,60.5,26,80.5,33c59.25,8.75,60.5,53.5,60.5,53.5s16.17,82.33,13,116.5.51,24.84,0,63c.67,41.17,0,105.5,0,105.5h-335s18.17-86.67,16-129.5-9-46.5-9-46.5-61.17-18.33-53.5-65.5c-.61-18.17,3.5-27,3.5-27S492.16,361.31,494.66,339.81Z" transform="translate(-493.99 -85)"/><path class="cls-2" d="M613.16,225.81s6.67-19.75,11.83-29,6.2-13.12,12-17.33,7.67-6.67,12.34-6.67-4,11-4,11,16-11,25.66-7c4,3,.34,13,.34,13s8.66.33,10.33,4,0,9.67,0,9.67,6.91,22.66,3.62,32.33-36.29,38-36.29,38-35.66,145.67-77.33,167.33c-10.33,23.67-23.5,25.67-23.5,25.67" transform="translate(-493.99 -85)"/><path class="cls-2" d="M572.16,304.81s-37,43-49.83,59.09c-10.67,0-24.17,10.41-24.17,10.41" transform="translate(-493.99 -85)"/><path class="cls-3" d="M803,485.14c8,0,9.34,55.34,13.34,78.67s0,60.67,0,60.67-10.67-40.67-18-45.34C802.33,536.48,795,485.14,803,485.14Z" transform="translate(-493.99 -85)"/><path class="cls-2" d="M818.1,399.14c0,23.34-15.11,86-15.11,86" transform="translate(-493.99 -85)"/><path class="cls-1" d="M515.27,688H504.56V663.54h9.52a13.62,13.62,0,0,1,4.28.59,5.88,5.88,0,0,1,2.68,1.61,6.25,6.25,0,0,1,1.68,4.27,5.06,5.06,0,0,1-1.82,4.27,7.24,7.24,0,0,1-.91.61c-.16.08-.45.22-.87.4a6.45,6.45,0,0,1,3.62,2.05,5.7,5.7,0,0,1,1.34,3.87,6.55,6.55,0,0,1-1.75,4.51C521,687.24,518.6,688,515.27,688Zm-6.58-14.32h5.25c3,0,4.48-1,4.48-3a2.88,2.88,0,0,0-1.09-2.52,5.87,5.87,0,0,0-3.36-.77h-5.28Zm0,10.5h6.47a6.85,6.85,0,0,0,3.48-.71,2.9,2.9,0,0,0,1.21-2.72q0-3.25-5.21-3.25h-5.95Z" transform="translate(-493.99 -85)"/><path class="cls-1" d="M548.79,671.48q0,6.06-5.28,7.63l6.41,8.89h-5.25l-5.85-8.22H533.4V688h-4.13V663.54h9.1q5.6,0,8,1.88T548.79,671.48ZM543.3,675a4.39,4.39,0,0,0,1.26-3.49,3.74,3.74,0,0,0-1.29-3.29c-.87-.59-2.41-.89-4.62-.89H533.4V676h5.14C540.87,676,542.46,675.67,543.3,675Z" transform="translate(-493.99 -85)"/><path class="cls-1" d="M571.93,663.54v3.88H558.87v6.47H570.6v3.68H558.87v6.55h13.48V688H554.74V663.54Z" transform="translate(-493.99 -85)"/><path class="cls-1" d="M581.1,682.43,578.65,688h-4.41L585,663.54h4.41L600.21,688H595.8l-2.45-5.57Zm10.57-3.81-4.45-10.08-4.44,10.08Z" transform="translate(-493.99 -85)"/><path class="cls-1" d="M610.92,667.32V688h-4.13V667.32h-7.42v-3.78h19v3.78Z" transform="translate(-493.99 -85)"/><path class="cls-1" d="M622.82,688V663.54H627v10.6h12.14v-10.6h4.13V688h-4.13V678H627v10Z" transform="translate(-493.99 -85)"/><path class="cls-1" d="M650,663.54h4.13V688H650Z" transform="translate(-493.99 -85)"/><path class="cls-1" d="M679.27,663.54h4.13V688h-4.48l-13.86-17.85V688h-4.13V663.54h4.13l14.21,18.26Z" transform="translate(-493.99 -85)"/><path class="cls-1" d="M707.13,676.1h4.13v8.36q-3.46,3.82-9.9,3.82a12.47,12.47,0,0,1-9.08-3.57,13,13,0,0,1,.07-18.13,12.39,12.39,0,0,1,9-3.64,12.82,12.82,0,0,1,8.78,3.08l-2.2,3.15a8.65,8.65,0,0,0-2.89-1.7,11.08,11.08,0,0,0-3.38-.47,8.69,8.69,0,0,0-6.23,2.4,8.62,8.62,0,0,0,5.87,14.93,10.58,10.58,0,0,0,5.82-1.51Z" transform="translate(-493.99 -85)"/><path class="cls-1" d="M733.68,666.75a5.43,5.43,0,0,0-3,.74,2.45,2.45,0,0,0-1.15,2.22,2.6,2.6,0,0,0,1.15,2.28,17.46,17.46,0,0,0,4.92,1.69,13.5,13.5,0,0,1,5.67,2.56,6.06,6.06,0,0,1,1.91,4.85,6.44,6.44,0,0,1-2.42,5.2,9.62,9.62,0,0,1-6.33,2,14.93,14.93,0,0,1-10.19-3.95l2.59-3.12a11.66,11.66,0,0,0,7.7,3.22,5.27,5.27,0,0,0,3.17-.86,2.68,2.68,0,0,0,1.17-2.27,2.57,2.57,0,0,0-1.1-2.21,11.63,11.63,0,0,0-3.8-1.43,34.21,34.21,0,0,1-4.09-1.19,9.33,9.33,0,0,1-2.49-1.42,6,6,0,0,1-2.17-5,6.12,6.12,0,0,1,2.47-5.23,9.92,9.92,0,0,1,6.11-1.84,14.72,14.72,0,0,1,4.65.77,12.17,12.17,0,0,1,4,2.17l-2.2,3.12a8.36,8.36,0,0,0-2.94-1.62A11.36,11.36,0,0,0,733.68,666.75Z" transform="translate(-493.99 -85)"/><path class="cls-1" d="M759.49,684.25a8.63,8.63,0,0,0,3.68-.71,13.06,13.06,0,0,0,3.22-2.29l2.66,2.72a12.25,12.25,0,0,1-9.43,4.31,12.66,12.66,0,0,1-9.21-3.57,12.08,12.08,0,0,1-3.66-9,12.22,12.22,0,0,1,3.73-9.1,12.9,12.9,0,0,1,9.42-3.64,12.32,12.32,0,0,1,9.5,4.2L766.77,670a11.27,11.27,0,0,0-3.31-2.34,9.08,9.08,0,0,0-3.65-.67,8.68,8.68,0,0,0-6.23,2.4,8.08,8.08,0,0,0-2.52,6.12,8.44,8.44,0,0,0,2.5,6.23A8.11,8.11,0,0,0,759.49,684.25Z" transform="translate(-493.99 -85)"/><path class="cls-1" d="M793.62,671.48q0,6.06-5.29,7.63l6.41,8.89h-5.25l-5.85-8.22h-5.42V688h-4.13V663.54h9.1q5.59,0,8,1.88T793.62,671.48Zm-5.5,3.47a4.39,4.39,0,0,0,1.26-3.49,3.74,3.74,0,0,0-1.29-3.29c-.87-.59-2.41-.89-4.62-.89h-5.25V676h5.14C785.7,676,787.28,675.67,788.12,675Z" transform="translate(-493.99 -85)"/><path class="cls-1" d="M816.75,663.54v3.88h-13v6.47h11.72v3.68H803.7v6.55h13.47V688h-17.6V663.54Z" transform="translate(-493.99 -85)"/><path class="cls-1" d="M839.64,663.54v3.88h-13v6.47h11.72v3.68H826.59v6.55h13.47V688h-17.6V663.54Z" transform="translate(-493.99 -85)"/><path class="cls-1" d="M863.69,663.54h4.13V688h-4.48l-13.86-17.85V688h-4.13V663.54h4.13l14.21,18.26Z" transform="translate(-493.99 -85)"/></svg>