<svg id="Layer_1" data-name="Layer 1" xmlns="http://www.w3.org/2000/svg" xmlns:xlink="http://www.w3.org/1999/xlink" viewBox="0 0 40.18 66.85"><defs><style>.cls-1{fill:none;}.cls-2{clip-path:url(#clip-path);}.cls-3{fill:#404040;}</style><clipPath id="clip-path" transform="translate(-663.23 -352.29)"><rect class="cls-1" x="650.11" y="352.29" width="66.41" height="66.85"/></clipPath></defs><title>broad_jump</title><g class="cls-2"><path class="cls-3" d="M694,373.74s.88.11,1.41-2c1.21-3.72,5.52-2,5.9-1.85a3.49,3.49,0,0,1,2,3.88,16.55,16.55,0,0,1-1.14,2.46c-.22.47.33,1.57.18,1.85s-1.24,0-1.24,0-1,1.94-1.93,2-1.7-.7-2.29-.79a15.85,15.85,0,0,0-4.42.78c-.36.29-2.22,3.32-5,4.05L679,386.59l2.73,5.2a7.07,7.07,0,0,1,1.68,2.64c.15,1.05-.88,2.55-1.06,3.25l-2,7.31a15.76,15.76,0,0,0-.53,2.82,3.85,3.85,0,0,0,.53,1.58,11.08,11.08,0,0,0,2.11,1.33s3.28.39,3.7.79a.83.83,0,0,1,0,1.15,4.3,4.3,0,0,1-2.9,1.5h-3.08a20.54,20.54,0,0,0,1.92,1.13c.52.19,2.82.7,3,1.14s-.36,1.21-.71,1.5a7,7,0,0,1-3.78,1.21c-1.08,0-4-.43-4-.43s-2.9-.09-3.17-.44.19-3.89.33-4.17a.76.76,0,0,1,.47-.35l-.35-6.81a12.85,12.85,0,0,1-.56-3.37c.16-2.16,2-5.44,2-5.81a2.85,2.85,0,0,0-.55-1s-3.64-.7-4.55-.79-2.68.24-3,0-1.94-6.78-2.5-8.1a8.54,8.54,0,0,1-1-8,5.27,5.27,0,0,1,2-2.12c1.81-1.12,16.19-4.52,16.19-4.52s-2.55-3.52-2.93-4.22-6.8-8.89-6.8-8.89l-2.47-1.51-1-.71s-1.6-.42-1.53-.81,1.33-.35,1.33-.35-1.61-2.11-1.29-2.52,2.11,1.68,2.11,1.68-1.87-2.75-1.41-3.05,2.29,2,2.29,2-1.56-2.26-1.18-2.53,1.21.91,1.21.91a.91.91,0,0,1,.7-.12c.41.13,1,1.63,1.29,2l1.35,1.72,1.41,2.23s2.66,2.52,3.23,3.2l4.22,5.1-3.22-6.8-1.88-.53-1.41-.5s-.71-.35-.56-.71,1.41,0,1.64-.08.2-.37,0-.91-2.28-2.4-2-2.77,2.44,1.58,2.44,1.58-1.48-2.8-1.09-3,1.79,2.58,1.79,2.58-.66-2.45-.3-2.55,1.41,2.49,1.41,2.49.13-2,.47-1.94.71,2.59.71,2.59a4.87,4.87,0,0,1,.7,2.29,16.07,16.07,0,0,1,1.82,2.64c.7,1.26,2.33,4.4,2.61,4.69l3.14,3.2a1.23,1.23,0,0,1,.71,0,15.59,15.59,0,0,1,1.76,2Z" transform="translate(-663.23 -352.29)"/></g></svg>