<svg id="Layer_1" data-name="Layer 1" xmlns="http://www.w3.org/2000/svg" xmlns:xlink="http://www.w3.org/1999/xlink" viewBox="0 0 56.74 41.79"><defs><style>.cls-1,.cls-4{fill:none;}.cls-2{clip-path:url(#clip-path);}.cls-3{fill:#404040;}.cls-4{stroke:#fefefe;stroke-miterlimit:10;stroke-width:1.74px;}</style><clipPath id="clip-path" transform="translate(-655.57 -363.92)"><rect class="cls-1" x="656.44" y="351.4" width="54.99" height="66.85"/></clipPath></defs><title>carry_load</title><g class="cls-2"><path class="cls-3" d="M710.18,382.11a13,13,0,0,0-4.87-6.16,52.07,52.07,0,0,0-12.49-3l-1.72-8.14-13.22.49-1.49,8a53.44,53.44,0,0,0-16.46,6.08s-3.49,2.61-3.49,11.34c0,2.09,0,9.61,2.36,11.72a9.5,9.5,0,0,0,6.62,2.36c3.74,0,39-1.5,39-1.5s7-3.11,7-7-.13-10.49-1.25-14.24" transform="translate(-655.57 -363.92)"/><path class="cls-4" d="M710.18,382.11a13,13,0,0,0-4.87-6.16,52.07,52.07,0,0,0-12.49-3l-1.72-8.14-13.22.49-1.49,8a53.44,53.44,0,0,0-16.46,6.08s-3.49,2.61-3.49,11.34c0,2.09,0,9.61,2.36,11.72a9.5,9.5,0,0,0,6.62,2.36c3.74,0,39-1.5,39-1.5s7-3.11,7-7S711.3,385.86,710.18,382.11Z" transform="translate(-655.57 -363.92)"/><path class="cls-3" d="M682.66,372a28.48,28.48,0,0,0-3.61.33l.94-4.2,9.1-.26,1,4.25a57.9,57.9,0,0,0-7.45-.12" transform="translate(-655.57 -363.92)"/><path class="cls-4" d="M682.66,372a28.48,28.48,0,0,0-3.61.33l.94-4.2,9.1-.26,1,4.25A57.9,57.9,0,0,0,682.66,372Z" transform="translate(-655.57 -363.92)"/></g></svg>