<svg id="Layer_1" data-name="Layer 1" xmlns="http://www.w3.org/2000/svg" xmlns:xlink="http://www.w3.org/1999/xlink" viewBox="0 0 51.11 41.71"><defs><style>.cls-1{fill:none;}.cls-2{clip-path:url(#clip-path);}.cls-3{fill:#404040;}</style><clipPath id="clip-path" transform="translate(-658.38 -364.34)"><rect class="cls-1" x="658.38" y="358.94" width="51.11" height="52.51"/></clipPath></defs><title>carry_efficiency</title><g class="cls-2"><path class="cls-3" d="M709.48,403c0-.14,0-.27,0-.41s0-.28,0-.42V402h0v-.12h0v-.2l0-.7,0-.18,0-.22c0-.16,0-.31,0-.46s0-.3,0-.46,0-.15,0-.22l0-.21c-.07-.55-.14-1.09-.24-1.61,0-.26-.09-.52-.13-.77s-.11-.49-.16-.72c-.09-.48-.21-.92-.31-1.33,0-.1-.05-.2-.07-.3s0-.19-.08-.28-.1-.36-.15-.53-.09-.32-.13-.46l-.13-.39c0-.17-.1-.31-.13-.43a.33.33,0,0,0-.41-.21l-10.72,3.05a.33.33,0,0,0-.23.38c0,.06,0,.13,0,.21s0,.17,0,.27,0,.2,0,.32l.06.36,0,.19c0,.07,0,.14,0,.21,0,.27.08.57.1.9,0,.16,0,.32,0,.49s0,.34,0,.51c0,.35,0,.71,0,1.08v1l0,.7v.2h0V402h0v.1l0,.27a2.45,2.45,0,0,1,0,.27l0,.27c0,.18,0,.35-.07.52s0,.34-.07.51-.06.32-.08.48l-.09.45c0,.14,0,.28-.08.42a3,3,0,0,0-.09.38,1.36,1.36,0,0,0,0,.17,1,1,0,0,0,0,.14l0,.09h13.11a.33.33,0,0,0,.33-.32h0l0-.75c0-.26,0-.52,0-.79s0-.53,0-.81c0-.13,0-.27,0-.41" transform="translate(-658.38 -364.34)"/><path class="cls-3" d="M706.07,389.21a.33.33,0,0,0,.18-.45l-.13-.27-.15-.31-.22-.46c-.09-.16-.17-.34-.26-.52s-.1-.18-.14-.27l-.15-.27-.31-.57c-.12-.19-.23-.39-.35-.6s-.12-.21-.19-.31l-.19-.32c-.14-.21-.27-.43-.41-.65-.29-.43-.58-.88-.91-1.32l-.24-.33-.12-.16-.13-.17c-.16-.22-.33-.43-.5-.65s-.35-.43-.53-.64a4,4,0,0,0-.26-.32l-.27-.31-.27-.3c-.09-.1-.17-.2-.27-.3l-.53-.57-.54-.54c-.17-.18-.35-.35-.52-.51l-.5-.47-.48-.43-.45-.38-.41-.34-.36-.3-.31-.24-.35-.27a.33.33,0,0,0-.45,0l-5.76,7a.32.32,0,0,0,0,.44l.17.17.2.2.23.24.26.27.27.31.3.34.31.37.32.4.33.42.32.45.16.23.16.23.16.24c.05.07.1.16.15.24s.21.32.31.48.2.33.29.5l.08.12.06.13.14.25c.19.32.34.66.51,1s.15.33.22.48.07.16.11.23a1.6,1.6,0,0,0,.1.23l.18.44.17.41c0,.07,0,.13.07.2l.07.18c0,.11.07.21.11.3s.06.19.09.27l.1.32c0,.1.07.2.1.28a.33.33,0,0,0,.43.2Z" transform="translate(-658.38 -364.34)"/><path class="cls-3" d="M676.76,376.76l.29,0,.34.06.38.07.37.07,3.63-7.43-.53-.08-.36-.06-.35,0-.66-.08-.63-.05c-.2,0-.39,0-.57,0l-.52,0-.46,0h-.8a.32.32,0,0,0-.33.31l-.33,6.92a.33.33,0,0,0,.28.34l.25,0" transform="translate(-658.38 -364.34)"/><path class="cls-3" d="M686.53,380.57l.27.2.25.18.13.09.13.1.23.18a.33.33,0,0,0,.47-.09l4.75-7.22a.34.34,0,0,0-.11-.47l-.26-.14-.14-.08-.17-.1-.43-.24-.5-.27-.53-.26-.57-.28-.62-.29c-.21-.1-.43-.19-.66-.28s-.45-.2-.69-.29l-.18-.07-2,8.88.33.22.35.23" transform="translate(-658.38 -364.34)"/><path class="cls-3" d="M670.39,376.73l.28,0,.26,0,.51-.05.48,0,.22,0h1.53a.32.32,0,0,0,.32-.35l-.43-6.52a.32.32,0,0,0-.36-.3l-.3,0-.34.05-.47.07-.54.08-.27.05-.29.05-.61.12-.64.15-.33.07-.35.09-.7.19-.72.22-.36.11-.37.12-.36.13-.37.13-.73.28-.72.3-.36.15-.35.17-.35.16-.34.16-.66.33-.63.34c-.21.12-.41.22-.6.34l-.56.33-.51.32-.47.3-.41.29-.36.24-.3.22-.32.24a.33.33,0,0,0-.07.45l2.7,4a.33.33,0,0,0,.44.1l.24-.13.27-.15.31-.17.37-.19.4-.19.45-.21.48-.21c.16-.08.33-.14.51-.21s.35-.15.53-.21l.56-.2.29-.1.29-.09.29-.1.3-.08.6-.17.6-.15.3-.07.3-.06L669,377l.3-.06.57-.1.56-.07" transform="translate(-658.38 -364.34)"/><path class="cls-3" d="M674.36,397.93a2.51,2.51,0,1,1-2.51,2.51,2.52,2.52,0,0,1,2.51-2.51m-2.44,7.24a5,5,0,0,0,2.25.52,5.11,5.11,0,0,0,4.6-2.87,5.55,5.55,0,0,0,.39-1.1l5.18-22.48,2-8.56,1.23-5.3a.84.84,0,0,0-.85-1,.81.81,0,0,0-.74.48l-2.48,5.08-3.67,7.51-10.23,20.91a5.12,5.12,0,0,0,2.35,6.85" transform="translate(-658.38 -364.34)"/></g></svg>