<svg id="Layer_1" data-name="Layer 1" xmlns="http://www.w3.org/2000/svg" xmlns:xlink="http://www.w3.org/1999/xlink" viewBox="0 0 99.23 77.22"><defs><style>.cls-1{fill:none;}.cls-2{clip-path:url(#clip-path);}.cls-3{fill:#414142;}</style><clipPath id="clip-path" transform="translate(-636.02 -346.88)"><rect class="cls-1" x="632.2" y="335.88" width="99.23" height="99.23"/></clipPath></defs><title>closed_chain_dorsiflexion</title><g class="cls-2"><path class="cls-3" d="M638.46,422.11c.23-.08,4.5-1.23,10.33-2.8l-2.17-1.79v-2.38h7.16l2.45,2.18,25.08-6.73h-11V408.4l1-1.32h11.25l-11.46-3.94-4.12,1.18-4.59-1.52v-2.65l-13-4.47a1,1,0,0,1,.42-1.61l15.46,5.26,5.44-1.37,4.21,2.09v2l-.9.26,14,4.78H693v1h22.93l2.3-2.47h5.9V408l-.08.09h10.78a1.57,1.57,0,0,1,0,2.14H722.08l-1.6,1.75h-6.17v-1.75H692.42l-.23.33h-4.55L657.9,418.8l1.82,1.61v2.52h-6.55l-2.57-2.12-11.93,3.29a1.34,1.34,0,0,1-.21-2" transform="translate(-636.02 -346.88)"/><path class="cls-3" d="M645.24,406.2c.85.49,14-.64,16.31,0,1.52-1.65,2.31-8.58,2.35-9.26.14-1.71-2.43-3.42-1.93-7s2.9-5.21,3.28-7,1.53-4.45,1.49-7.19-1.63-3.63-1.49-6.34a21.81,21.81,0,0,1,2.06-7.54c.64-1,1.82-1.6,2.14-2a21.39,21.39,0,0,0,1.07-3.27,6.89,6.89,0,0,1-.36-3c.22-1.5.11-5.66,3.7-6.34,5-.57,6,3.38,6.13,4a7.6,7.6,0,0,1-.5,3.34,10.71,10.71,0,0,1,.5,2.57c-.14.39-.86.14-.86.14l-.64,1c-.1.18-.35.1-.35.1a.56.56,0,0,1,0,.36c0,.2-.48.13-.67.25s-.15.57-.47.78a7.51,7.51,0,0,1-2.28-.07,3.61,3.61,0,0,0-.85,1.85,3.22,3.22,0,0,0,.89,2.14c2.69,2.79,3.35,4.08,3.67,5.77a12.15,12.15,0,0,1-.25,4l-.82,10s12.32-.07,13.88.71c.61.21,2.1,1.14,1.61,3.88,0,1.07-8.16,11.14-9.23,14.13a4.38,4.38,0,0,0,.93,2.46c.53.82,3.29,1.81,3.84,2s1.93.39,1.82,1.14-4.49.66-5,.39a8.81,8.81,0,0,0-2-.78c-.61-.11-3,.42-3.6.32a1.81,1.81,0,0,1-1.28-1.78c-.07-.68.46-1.46,1.46-3.28s2.8-7.21,3.81-9l1.89-3.42-6.9,2.6a31.37,31.37,0,0,1,1.52,3.13,9.52,9.52,0,0,1,.14,2.42,12.83,12.83,0,0,1-.19,2.61c-.19.17-.42-.09-.42-.09a2.32,2.32,0,0,1-.67.28c-.25,0-.52-.28-.52-.28a2.36,2.36,0,0,1-.52.09.58.58,0,0,1-.38-.22.62.62,0,0,1-.47.11c-.21-.08-.21-1-.21-1s.14-2.56.14-3.13-1-1.6-1.14-2.06a1.94,1.94,0,0,1,.07-1.14l-2.13.46a38.75,38.75,0,0,1-2.53,8.72,54.37,54.37,0,0,1-5.09,7.83,3.28,3.28,0,0,1-2.46,1.07c-1.6,0-11.71-1.24-14.88-1.53a33.52,33.52,0,0,0-6.09,0l-6-.29s-.43,0-.43-.75c0-1,1.28-1.35,1.28-1.35a10.56,10.56,0,0,0,2.35-.5c.68-.32,1.86-2.67,2.39-2.92s1.76-.09,2,.57.08.86.93,1.36" transform="translate(-636.02 -346.88)"/><path class="cls-3" d="M684.88,390.68l-1.51,2.74a48.56,48.56,0,0,0-1.94,4.6c-.32.83-.65,1.66-.95,2.41.06-.71.09-1.42.08-2.13a10.26,10.26,0,0,0-.16-2.51,24.54,24.54,0,0,0-1.38-2.9Zm-8.47,2.42-2.83.61,0,.19a38.5,38.5,0,0,1-2.51,8.65,54.39,54.39,0,0,1-5.06,7.78,3,3,0,0,1-2.23,1c-1,0-5.23-.48-9-.9-2.39-.27-4.65-.52-5.87-.63a27.58,27.58,0,0,0-5.14,0l-1,.06-6-.28c-.06,0-.17-.14-.17-.47,0-.67.9-1,1.06-1.07a10.87,10.87,0,0,0,2.41-.52,5.2,5.2,0,0,0,1.43-1.7,6,6,0,0,1,1-1.22,1.73,1.73,0,0,1,1.2.05.73.73,0,0,1,.41.36l.1.36c.12.44.22.71,1,1.13.42.25,2.32.2,6.87,0,3.88-.15,8.28-.32,9.5,0l.17.05.11-.13c1.6-1.73,2.39-8.69,2.43-9.43a4.39,4.39,0,0,0-.79-2.31,6.91,6.91,0,0,1-1.14-4.64,10.56,10.56,0,0,1,2-4.67,7.15,7.15,0,0,0,1.23-2.36c.11-.55.3-1.19.5-1.86a18.18,18.18,0,0,0,1-5.39,7.78,7.78,0,0,0-.8-3.2,6.29,6.29,0,0,1-.7-3.12,21.74,21.74,0,0,1,2-7.41,5.61,5.61,0,0,1,1.49-1.44,3.54,3.54,0,0,0,.63-.53,18.09,18.09,0,0,0,1.12-3.38l0-.09,0-.08a6.73,6.73,0,0,1-.34-2.85c0-.19.05-.43.08-.69.17-1.81.46-4.85,3.38-5.41,4.87-.54,5.72,3.26,5.8,3.75a7.58,7.58,0,0,1-.47,3.2l0,.09,0,.1a10.66,10.66,0,0,1,.51,2.39.73.73,0,0,1-.49,0l-.2-.07-.12.19s-.51.78-.63,1h0l-.64-.16.31.57a.19.19,0,0,1,0,.08l-.13,0a.9.9,0,0,0-.42.13.76.76,0,0,0-.29.45.57.57,0,0,1-.18.33,8.3,8.3,0,0,1-2.08-.11l-.14,0-.11.11a3.86,3.86,0,0,0-.93,2,3.17,3.17,0,0,0,.84,2.19l.1.13,0,0c2.68,2.79,3.29,4,3.6,5.63a9.34,9.34,0,0,1-.16,3.35,5.56,5.56,0,0,0-.1.59l-.84,10.28h.31c3.4,0,12.52.07,13.75.68l0,0c.32.11,1.91.82,1.41,3.56v.05c0,.45-1.93,3.08-3.6,5.41-2.35,3.27-5,7-5.6,8.63v0c-.21.8.68,2.26,1,2.69.63,1,3.63,2,4,2.07l.21.06c.46.11,1.42.35,1.4.75-.36.41-4.07.47-4.66.19l-.24-.11a7.27,7.27,0,0,0-1.79-.69,8,8,0,0,0-1.88.15,9.73,9.73,0,0,1-1.71.17,1.53,1.53,0,0,1-1.05-1.51v0c0-.47.3-1.1,1-2.25l.47-.86a44.27,44.27,0,0,0,1.9-4.51c.7-1.78,1.41-3.63,1.91-4.53l2.24-4.11-7.93,3,.16.29a29.77,29.77,0,0,1,1.5,3.07,10.17,10.17,0,0,1,.13,2.33h0a20.36,20.36,0,0,1-.11,2.34h0l-.15-.17-.2.12a1.92,1.92,0,0,1-.55.24.54.54,0,0,1-.28-.19l-.11-.13-.18,0a2.39,2.39,0,0,1-.45.09.33.33,0,0,1-.14-.12l-.17-.21-.22.16a.44.44,0,0,1-.16.06,3.08,3.08,0,0,1-.07-.68c0-.19.14-2.58.14-3.14a3.25,3.25,0,0,0-.75-1.52,4.77,4.77,0,0,1-.41-.65,1.63,1.63,0,0,1,.08-.93Zm-12.66,18.76a3.55,3.55,0,0,0,2.68-1.18,55,55,0,0,0,5.13-7.88,37.55,37.55,0,0,0,2.52-8.61l1.5-.33a1.71,1.71,0,0,0,0,.87,4.66,4.66,0,0,0,.47.77,3.39,3.39,0,0,1,.65,1.19c0,.56-.15,3.09-.15,3.12h0c0,1.1.31,1.2.41,1.24a.85.85,0,0,0,.5,0,.72.72,0,0,0,.44.16,3,3,0,0,0,.43-.06.88.88,0,0,0,.64.24,1.88,1.88,0,0,0,.61-.23.56.56,0,0,0,.53.05c-.22.51-.43.95-.6,1.27l-.48.85c-.71,1.28-1.08,1.93-1,2.57a2.08,2.08,0,0,0,1.52,2,7.7,7.7,0,0,0,1.89-.16,10.52,10.52,0,0,1,1.71-.16,7.75,7.75,0,0,1,1.64.65l.24.11a11.13,11.13,0,0,0,5.1-.16.61.61,0,0,0,.36-.45c.14-.92-1.14-1.23-1.82-1.4l-.2-.05c-.75-.2-3.24-1.17-3.68-1.84a4.24,4.24,0,0,1-.89-2.22c.57-1.59,3.2-5.24,5.52-8.47,2.59-3.6,3.67-5.15,3.7-5.71.57-3.13-1.34-4-1.77-4.18-1.55-.73-11.49-.74-13.69-.73l.8-9.66c0-.12,0-.31.08-.54a9.54,9.54,0,0,0,.16-3.56c-.32-1.71-1-3-3.72-5.9l-.11-.14a2.62,2.62,0,0,1-.72-1.78,3.31,3.31,0,0,1,.69-1.58,5.23,5.23,0,0,0,2.32,0,1,1,0,0,0,.41-.63l.06-.15a.65.65,0,0,1,.2,0c.2,0,.51-.08.59-.37a1.11,1.11,0,0,0,0-.17.53.53,0,0,0,.27-.22c.07-.13.36-.57.52-.82.42.09.85,0,1-.37a7.72,7.72,0,0,0-.46-2.65,8,8,0,0,0,.48-3.39v0c0-.2-.92-4.84-6.44-4.22h0c-3.35.63-3.68,4.07-3.86,5.92,0,.25,0,.48-.07.66a7.12,7.12,0,0,0,.34,3,18.62,18.62,0,0,1-1,3.08,4.33,4.33,0,0,1-.53.43,6.08,6.08,0,0,0-1.63,1.59,22.18,22.18,0,0,0-2.11,7.68,6.91,6.91,0,0,0,.74,3.38,7,7,0,0,1,.75,3,17.47,17.47,0,0,1-1,5.23c-.21.68-.4,1.33-.52,1.9a6.73,6.73,0,0,1-1.13,2.16,11,11,0,0,0-2.14,4.91,7.48,7.48,0,0,0,1.2,5,4,4,0,0,1,.72,2c-.06,1-.86,7.26-2.17,9-1.49-.3-5.56-.14-9.5,0a47,47,0,0,1-6.56.05c-.56-.32-.59-.45-.68-.79a3.44,3.44,0,0,0-.12-.41,1.23,1.23,0,0,0-.72-.69,2.27,2.27,0,0,0-1.66,0c-.31.14-.65.63-1.18,1.42a6.12,6.12,0,0,1-1.21,1.5,9.74,9.74,0,0,1-2.26.48h0c-.06,0-1.48.47-1.48,1.62,0,.77.45,1,.69,1l6.07.29h0l1-.06a27.37,27.37,0,0,1,5,0c1.22.11,3.48.36,5.86.63,4,.47,8,.93,9,.93" transform="translate(-636.02 -346.88)"/><path class="cls-3" d="M675.9,393.51l.13-.05c-.18-.43-.65-1.33-1.24-2.48a67.53,67.53,0,0,1-4-8.61v0a4.66,4.66,0,0,1-.65-2.33v0a54.8,54.8,0,0,1-3.22-10.15l-.15,0A55.6,55.6,0,0,0,670,380a4.67,4.67,0,0,0,.67,2.39,68.62,68.62,0,0,0,4,8.63c.58,1.14,1.05,2,1.23,2.46" transform="translate(-636.02 -346.88)"/><path class="cls-3" d="M678.54,392.76l.14-.05c0-.08-2.94-8.5-3.13-10.28a13.51,13.51,0,0,0-1.35-3.2l-.12-.23c0-3.2-.72-10.17-.72-10.24l-.14,0c0,.06.76,7.05.71,10.24v0l.14.24a13.36,13.36,0,0,1,1.33,3.16c.19,1.78,3,10,3.13,10.3" transform="translate(-636.02 -346.88)"/><path class="cls-3" d="M677.64,368.51l.08,0a.18.18,0,0,0,.15-.08c.18-.23,0-1-.09-1.09l-.14,0c.1.3.21.83.11,1s0,0,0,0h0c-.32.16-1.63-1.43-2.89-3-1.78-2.15-3.79-4.59-5.13-5.09-.44-.15-.71-.17-.85-.07a.16.16,0,0,0-.06.14h.14s0,0,0,0,.17-.08.7.1c1.31.48,3.4,3,5.07,5s2.52,3,3,3" transform="translate(-636.02 -346.88)"/><path class="cls-3" d="M673.54,370.8a3.32,3.32,0,0,0,1-3.35c-1.32-3.9-4.84-5.54-6-5.54a2.44,2.44,0,0,0-1.48.35l.1.11a2.28,2.28,0,0,1,1.38-.32c1.15,0,4.58,1.62,5.88,5.43a3.33,3.33,0,0,1-.28,2.4,2.64,2.64,0,0,1-.64.81Z" transform="translate(-636.02 -346.88)"/><path class="cls-3" d="M667.56,373v-.14c-.41,0-1.52-.22-1.69-.62l-.13.06c.24.55,1.75.7,1.81.7" transform="translate(-636.02 -346.88)"/></g></svg>