<svg id="Layer_1" data-name="Layer 1" xmlns="http://www.w3.org/2000/svg" xmlns:xlink="http://www.w3.org/1999/xlink" viewBox="0 0 16.6 60"><defs><style>.cls-1,.cls-2{fill:none;}.cls-2{stroke:#404040;stroke-miterlimit:10;stroke-width:0.81px;}.cls-3{clip-path:url(#clip-path);}.cls-4{fill:#404040;}.cls-5{fill:#fff;}.cls-6{fill:#ebeced;}</style><clipPath id="clip-path" transform="translate(-675.63 -355.11)"><rect class="cls-1" x="663.39" y="355.11" width="41.09" height="60"/></clipPath></defs><title>distance</title><line class="cls-2" x1="8.3" y1="14.29" x2="8.3" y2="51.7"/><g class="cls-3"><path class="cls-4" d="M690.46,367.89h-13v1.5c0,1.06,2.92,1.92,6.52,1.92s6.52-.86,6.52-1.92Z" transform="translate(-675.63 -355.11)"/><path class="cls-4" d="M683.94,366c3.59,0,6.52.85,6.52,1.9s-2.93,1.9-6.52,1.9-6.52-.85-6.52-1.9,2.92-1.9,6.52-1.9" transform="translate(-675.63 -355.11)"/><path class="cls-4" d="M688.09,367.13,685.15,356a1.24,1.24,0,0,0-1.2-.92h0a1.23,1.23,0,0,0-1.2.92l-2.94,11.1a.7.7,0,0,0,0,.18c0,.7,1.89,1.27,4.21,1.27s4.2-.57,4.2-1.27a.33.33,0,0,0,0-.18" transform="translate(-675.63 -355.11)"/><path class="cls-4" d="M680.49,367.31a.53.53,0,0,1,0-.18l2.94-11.1a1.22,1.22,0,0,1,.84-.86,1.15,1.15,0,0,0-.37-.06h0a1.23,1.23,0,0,0-1.2.92l-2.94,11.1a.7.7,0,0,0,0,.18c0,.7,1.89,1.27,4.21,1.27h.38c-2.14-.07-3.83-.61-3.83-1.27" transform="translate(-675.63 -355.11)"/><path class="cls-5" d="M686.28,360.3l-.69-2.58a10.6,10.6,0,0,1-3.31,0l-.69,2.58a9.35,9.35,0,0,0,2.35.28,9.21,9.21,0,0,0,2.34-.28m1.2,4.54-.76-2.87a12.28,12.28,0,0,1-5.57,0l-.76,2.87a9,9,0,0,0,3.55.58,9.32,9.32,0,0,0,3.54-.58" transform="translate(-675.63 -355.11)"/><path class="cls-6" d="M681.87,362.12c-.25,0-.49-.1-.72-.15l-.76,2.87a5,5,0,0,0,.7.26Zm-.28-1.82a7.22,7.22,0,0,0,.73.15l.69-2.63c-.25,0-.49-.05-.73-.09Z" transform="translate(-675.63 -355.11)"/><path class="cls-4" d="M692.24,410.76H675.63v1.9c0,1.35,3.73,2.45,8.31,2.45s8.3-1.1,8.3-2.45Z" transform="translate(-675.63 -355.11)"/><path class="cls-4" d="M683.94,408.34c4.57,0,8.3,1.08,8.3,2.42s-3.73,2.41-8.3,2.41-8.31-1.08-8.31-2.41,3.73-2.42,8.31-2.42" transform="translate(-675.63 -355.11)"/><path class="cls-4" d="M689.22,409.79l-3.74-14.14a1.58,1.58,0,0,0-1.53-1.18h0a1.58,1.58,0,0,0-1.53,1.18l-3.74,14.14a.63.63,0,0,0-.07.22c0,.89,2.41,1.62,5.36,1.62s5.35-.73,5.35-1.62a.38.38,0,0,0-.07-.22" transform="translate(-675.63 -355.11)"/><path class="cls-4" d="M679.55,410a.41.41,0,0,1,.07-.22l3.74-14.14a1.55,1.55,0,0,1,1.06-1.1,1.85,1.85,0,0,0-.47-.08h0a1.58,1.58,0,0,0-1.53,1.18l-3.74,14.14a.63.63,0,0,0-.07.22c0,.89,2.41,1.62,5.36,1.62h.48c-2.72-.08-4.87-.78-4.87-1.62" transform="translate(-675.63 -355.11)"/><path class="cls-5" d="M686.92,401.08l-.87-3.29a12.52,12.52,0,0,1-4.23,0l-.87,3.29a12.56,12.56,0,0,0,6,0m1.53,5.79-1-3.66a15.91,15.91,0,0,1-7.09,0l-1,3.66a11.55,11.55,0,0,0,4.52.74,11.72,11.72,0,0,0,4.51-.74" transform="translate(-675.63 -355.11)"/><path class="cls-6" d="M681.31,403.41c-.32-.05-.63-.13-.92-.2l-1,3.66a5.65,5.65,0,0,0,.89.32Zm-.36-2.33a8.28,8.28,0,0,0,.92.2l.89-3.36c-.32,0-.63-.06-.94-.11Z" transform="translate(-675.63 -355.11)"/></g></svg>