<svg id="Layer_1" data-name="Layer 1" xmlns="http://www.w3.org/2000/svg" xmlns:xlink="http://www.w3.org/1999/xlink" viewBox="0 0 52.41 87.01"><defs><style>.cls-1{fill:none;}.cls-2{clip-path:url(#clip-path);}.cls-3{fill:#404040;}.cls-4{font-size:11.01px;fill:#fff;font-family:MyriadPro-Regular, Myriad Pro;}</style><clipPath id="clip-path" transform="translate(-657.06 -341.56)"><rect class="cls-1" x="640.92" y="341.56" width="84.69" height="87.01"/></clipPath></defs><title>double_broad_jump</title><g class="cls-2"><path class="cls-3" d="M697.17,369.48s1.1.19,1.84-2.66c1.56-4.86,7.15-2.56,7.7-2.38a4.51,4.51,0,0,1,2.66,5c-.09.92-1.37,2.76-1.46,3.22-.28.64.45,2,.18,2.38s-1.65,0-1.65,0-1.38,2.57-2.57,2.66-2.2-.91-2.94-1a21.74,21.74,0,0,0-5.78,1c-.46.37-2.93,4.31-6.51,5.32l-11,3.21,3.58,6.79s2,2,2.2,3.49-1.1,3.3-1.38,4.22l-2.66,9.54a24.32,24.32,0,0,0-.73,3.67,3.8,3.8,0,0,0,.73,2,16.69,16.69,0,0,0,2.76,1.74s4.31.55,4.77,1a1.13,1.13,0,0,1,0,1.47,5.46,5.46,0,0,1-3.77,1.93h-4c.82.55,1.65,1,2.47,1.46.65.28,3.67.92,3.86,1.47s-.46,1.56-.92,1.93a8.79,8.79,0,0,1-5,1.56c-1.38,0-5.14-.55-5.14-.55s-3.76-.09-4.13-.55.28-5.05.46-5.42.37-.36.64-.45l-.46-8.9a18.31,18.31,0,0,1-.73-4.41c.18-2.84,2.66-7.06,2.57-7.52a5.17,5.17,0,0,0-.74-1.38s-4.77-.91-6-1-3.49.27-3.85,0-2.39-8.81-3.12-10.56a11.19,11.19,0,0,1-1.29-10.45,6.76,6.76,0,0,1,2.57-2.76c2.39-1.47,21.1-5.87,21.1-5.87s-3.3-4.59-3.85-5.5-8.9-11.56-8.9-11.56l-3.12-2-1.28-.92s-2.11-.55-2-1.1,1.74-.46,1.74-.46-2.11-2.75-1.65-3.3,2.75,2.2,2.75,2.2-2.47-3.58-1.83-3.95,2.93,2.66,2.93,2.66-2-2.93-1.56-3.21,1.56,1.2,1.56,1.2a1.13,1.13,0,0,1,.92-.19c.55.19,1.29,2.11,1.65,2.57l1.75,2.2,1.83,2.94s3.49,3.3,4.22,4.13l5.51,6.7-4.23-8.9-2.38-.64-1.84-.65s-.91-.46-.73-.91,1.84,0,2.11-.1.28-.46,0-1.19-2.94-3.12-2.57-3.58,3.21,2,3.21,2-1.92-3.67-1.37-3.85,2.29,3.39,2.29,3.39-.83-3.3-.37-3.39,1.84,3.21,1.84,3.21.18-2.57.64-2.57.92,3.39.92,3.39a7,7,0,0,1,.92,2.94A23.3,23.3,0,0,1,683,353.8c.92,1.65,3,5.78,3.4,6.14l4.12,4.13a1.6,1.6,0,0,1,.92,0,20.46,20.46,0,0,1,2.3,2.57Z" transform="translate(-657.06 -341.56)"/><path class="cls-3" d="M695.61,389.94a10.19,10.19,0,1,1-10.18,10.19,10.19,10.19,0,0,1,10.18-10.19" transform="translate(-657.06 -341.56)"/></g><text class="cls-4" transform="translate(32.21 61.87)">2x</text></svg>