<svg id="Layer_1" data-name="Layer 1" xmlns="http://www.w3.org/2000/svg" viewBox="0 0 127.87 212.75"><defs><style>.cls-1{fill:#414141;}</style></defs><title>explosive_control</title><path class="cls-1" d="M716.66,346.25s2.8.36,4.48-6.43C725,328,738.71,333.46,739.92,334a11.06,11.06,0,0,1,6.5,12.33c-.27,2.24-3.36,6.72-3.63,7.84-.7,1.48,1.05,5,.56,5.89s-3.92,0-3.92,0-3.36,6.17-6.17,6.46-5.4-2.24-7.28-2.51a51.17,51.17,0,0,0-14.05,2.46c-1.17.94-7.08,10.58-16,12.89l-26.89,7.84,8.7,16.54s4.86,5,5.33,8.4-2.8,8.12-3.38,10.36l-6.48,23.26a50.54,50.54,0,0,0-1.68,9,12.09,12.09,0,0,0,1.68,5.05c.36.92,6.72,4.21,6.72,4.21s10.45,1.25,11.77,2.53a2.65,2.65,0,0,1,0,3.65,13.61,13.61,0,0,1-9.24,4.78h-9.79a55.88,55.88,0,0,0,6.12,3.58c1.66.63,9,2.24,9.52,3.66s-1.12,3.85-2.24,4.77a22.38,22.38,0,0,1-12,3.85c-3.43,0-12.6-1.39-12.6-1.39s-9.23-.26-10.08-1.38.58-12.37,1-13.27a2.39,2.39,0,0,1,1.5-1.12l-1.12-21.67A40.76,40.76,0,0,1,651,441.18c.52-6.85,6.45-17.3,6.34-18.49a9.13,9.13,0,0,0-1.77-3.27s-11.58-2.24-14.47-2.51-8.54.76-9.44,0-6.16-21.58-7.93-25.79a27.19,27.19,0,0,1-3.21-25.44A16.74,16.74,0,0,1,626.9,359c5.79-3.59,51.55-14.39,51.55-14.39s-8.11-11.2-9.35-13.44-21.64-28.29-21.64-28.29L639.61,298l-3.18-2.24s-5.11-1.35-4.86-2.58,4.21-1.12,4.21-1.12-5.11-6.73-4.1-8,6.72,5.34,6.72,5.34-5.94-8.74-4.48-9.71,7.28,6.46,7.28,6.46-5-7.17-3.74-8,3.83,2.89,3.83,2.89a2.78,2.78,0,0,1,2.24-.38c1.3.4,3.21,5.17,4.1,6.34l4.31,5.49,4.48,7.1s8.47,8,10.26,10.18L680.13,326l-10.26-21.67-6-1.68-4.48-1.59s-2.24-1.1-1.77-2.24,4.48,0,5.22-.27.63-1.16,0-2.89-7.26-7.64-6.34-8.83,7.75,5,7.75,5-4.68-8.92-3.45-9.52,5.69,8.22,5.69,8.22-2.1-7.8-.94-8.13,4.48,7.93,4.48,7.93.41-6.23,1.51-6.16,2.24,8.22,2.24,8.22a15.56,15.56,0,0,1,2.24,7.29,53.07,53.07,0,0,1,5.78,8.4c2.24,4,7.42,14,8.31,14.95l10,10.17a4.06,4.06,0,0,1,2.24,0,45,45,0,0,1,5.6,6.26Z" transform="translate(-618.76 -278)"/></svg>