<svg id="Layer_1" data-name="Layer 1" xmlns="http://www.w3.org/2000/svg" viewBox="0 0 454.4 161.29"><defs><style>.cls-1{fill:#fff;}.cls-2{fill:#404040;}.cls-3{fill:none;stroke:#fff;stroke-linecap:round;stroke-miterlimit:10;}</style></defs><title>flexion_clearing</title><path class="cls-1" d="M1039,245.52c0,2.25,1.89,17,1.89,17s0-12-.5-15.74c0-1.13-1-2.35-1.39-1.23" transform="translate(-622.6 -245.08)"/><path class="cls-2" d="M674.69,335.89S656.6,307.2,695.9,274.56C722.37,255,756.32,255,756.32,255a324.59,324.59,0,0,1,51.73,0c46.68,6.24,66.28,31.29,69.91,34.51s17.08,15,17.68,15.8-.8,2-.8,2,20.41,5.19,27.07,10.18,12.94,13.72,12.94,13.72,22.83,11.44,34.95,16,23,10.71,33.75,12.47,18.39,3.33,24.25,4,18.59-1.56,19.8-1.15.6,1.77.6,1.77,4.45-.42,5.26,0,.91,1.46,0,2.18-6.47,2.19-6.47,2.19,5.76,1.24,6.47,1.35,0,.93,0,.93h16.47l7.07,10v13.41h-9.5l7.88,1.45s1.42.73,1.12,1.77-2.84,1.25-2.84,1.25a3.12,3.12,0,0,1-1.51,2.18c-1.41.93-12.73,1.15-12.73,1.15s2.93.83,3.54,1.45,0,1.87-3.24,2.29-11.92-.63-11.92-.63a22.56,22.56,0,0,1-6.66,1.15c-5,0-23-2.29-24.05-2.5a3.32,3.32,0,0,1-2.33-1.45c-21.41-.11-57.49-9.57-57.49-9.57H822.6s-5.36,9.77-17.18,9.57-22.33.2-37-.53-36.57-5.09-44-5.71-35.27,2.6-35.27,2.6-2.22,5.19-6,5.71-8.58-2.6-8.58-2.6a53.48,53.48,0,0,0-7.48-2c-5.05-1-17.78-1.66-22.33-1.87s-13.23,2.29-16.67,1.87-4.45-1.87-5.25-3.53c-2.93-8.84,20-23.7,20-23.7s-2.22,1.45-3.13-.21-.61-2.7.51-5.61c2.72-4.78,3.13-5.2,7.47-9.26s17-12.88,18.69-14,3.44,0,4.65-1,.5-2.49.81-4.16a9.61,9.61,0,0,1,2.83-2.49" transform="translate(-622.6 -245.08)"/><path class="cls-1" d="M887.88,372H825.76a9.82,9.82,0,0,0-.89-2.4c4.22-4,4.88-13.6,4.88-13.6a30.62,30.62,0,0,0,7.77,1.87c11.76.26,22.08-5.87,22.08-5.87a19.75,19.75,0,0,0,3.44-1.6c.88,0,1.21,3.2,1.33,4.4s2.44,1.46,2.44,1.46a4.45,4.45,0,0,0,.11,2.81c.55,1.6,4.88,2.93,4.88,2.93s-.45,6.4,1.33,7.34c.89.66,2.33-.67,4.11-1.2s6.09-1.61,8.31-1.07,2.33,4.93,2.33,4.93" transform="translate(-622.6 -245.08)"/><path class="cls-3" d="M887.88,372H825.76a9.82,9.82,0,0,0-.89-2.4c4.22-4,4.88-13.6,4.88-13.6a30.62,30.62,0,0,0,7.77,1.87c11.76.26,22.08-5.87,22.08-5.87a19.75,19.75,0,0,0,3.44-1.6c.88,0,1.21,3.2,1.33,4.4s2.44,1.46,2.44,1.46a4.45,4.45,0,0,0,.11,2.81c.55,1.6,4.88,2.93,4.88,2.93s-.45,6.4,1.33,7.34c.89.66,2.33-.67,4.11-1.2s6.09-1.61,8.31-1.07S887.88,372,887.88,372Z" transform="translate(-622.6 -245.08)"/><path class="cls-3" d="M708.6,370.4a66.08,66.08,0,0,0-8.17,2.65c-.72-4.2-3.37-7.84-5.32-8.94-1.22-5.52-7.46-13.25-7.46-13.25m-15.22-16.23,8.37,10.16s5.63-3,6.85,6.07c4.4,4.08,21,19.54,21,19.54s74.91-15.68,91.78,15.24M813,350.86l14.71,17.55s-.2-.77.82,2c3.68,14.36-6.34,24.85-6.34,24.85m10-38.1s-12.47-1.66-19.21-6.29c-20.14-22.2-51.41-35.23-51.41-35.23m173.94,14.14s6.75,15.9,0,20.87c9.1,3.31,10.12,3.75,13.49,5.52,24.22,5.3,32.7,15.68,32.7,15.68m-96-1.44c8.69,2.54,11.45,6.63,18.09,7.51s14.51-1.32,14.51-1.32l39.86,18.66m111.6,1.54-19.11-2.2-14.31-5.08h-10.22l-44.35-17.67h73.88" transform="translate(-622.6 -245.08)"/></svg>