<svg id="Layer_1" data-name="Layer 1" xmlns="http://www.w3.org/2000/svg" xmlns:xlink="http://www.w3.org/1999/xlink" viewBox="0 0 54.86 64.6"><defs><style>.cls-1,.cls-4{fill:none;}.cls-2{clip-path:url(#clip-path);}.cls-3{fill:#404040;}.cls-4{stroke:#fff;stroke-miterlimit:10;stroke-width:0.32px;}</style><clipPath id="clip-path" transform="translate(-656.36 -352.58)"><rect class="cls-1" x="652.35" y="352.58" width="62.88" height="64.6"/></clipPath></defs><title>hands_on_hips</title><g class="cls-2"><path class="cls-3" d="M658.84,360.94c4.39-3.91,15-3.15,15-3.15S691.46,359,694,359.37s3.16.35,4,.55,1.17-1.3,1.17-1.3a5.84,5.84,0,0,1,4.8-6c5.42,0,7.21,4.33,7.21,5.91a9.54,9.54,0,0,1-.83,3.36l-.68.48s.35,2.2-.06,2.61a2.67,2.67,0,0,1-1.38.48s-1.27,2.82-1.85,2.88-2.13-.82-2.95-1c-1.27-.35-6.53,1-6.53,1a3.1,3.1,0,0,1-.27,1.38c-.27.31-.89,0-.89,0s-3.16,3.15-5,3.85-7.07,1.09-8.24,1.23a29.19,29.19,0,0,1-3.5,0s2.11,6,2.4,6.53a9.47,9.47,0,0,1,1.45,2.61,5.14,5.14,0,0,1-1,3.15l-7.47,11a20.31,20.31,0,0,0-1.37,3.09,1.55,1.55,0,0,0,.47,1.3,12.55,12.55,0,0,0,2.2,1.85c.49.12,4.95.83,5.22,1.3.41.73-.21,1.41-.35,1.72-.55.75-5.21,1.17-5.21,1.17H670.5a7.25,7.25,0,0,0,.48,1.71c.38.89,3.57,2.47,3.57,2.47s2.64.41,3,1.1a1.56,1.56,0,0,1-.35,1.58c-.51.82-3.67,1.85-5.77,1.85a28.85,28.85,0,0,1-5.56-.6,9.66,9.66,0,0,1-3.43-1.73c-.18-.3.47-1.37.47-1.37s0-3.68,1.38-4.47c.29-1.14,2.36-8.72,2.41-9.68a16.56,16.56,0,0,1,.82-5.22c.76-1.92,4.33-6.31,4.33-6.31L670.56,386s-6.07-1.58-6.94-1.65-2.4.68-2.82.52-.24-1.48-.47-2.3l-3.09-10.71s-2.8-7,1.6-10.93" transform="translate(-656.36 -352.58)"/><path class="cls-4" d="M687.12,361.08c1.24.56,2.33,6.46-3.3,7.42-1.09-.14-2.29-1.44-3.94-1.35s-3.78-.83-5.09-1l-4.26-.34.66,2.24a1.09,1.09,0,0,1-.68,1.3,4.51,4.51,0,0,1-4.8-.89,4.37,4.37,0,0,1-1-3.29c0-1.59,2.13-3.3,2.13-3.3s-.48-1.79.41-1.79,1.44,1.44,1.44,1.44a27.66,27.66,0,0,1,6.94-1.44h2.82C681.35,359.58,683.79,360.19,687.12,361.08Z" transform="translate(-656.36 -352.58)"/></g></svg>