<svg id="Layer_1" data-name="Layer 1" xmlns="http://www.w3.org/2000/svg" viewBox="0 0 383.71 328.23"><defs><style>.cls-1{fill:#404041;}.cls-2{fill:#1a1719;}</style></defs><title>health_history2</title><path class="cls-1" d="M807.08,402.48H773.79a6.93,6.93,0,1,0,0,13.86h33.29a11.57,11.57,0,0,1,11.55,11.56V649.8a11.55,11.55,0,0,1-11.51,11.56h-.47a11.89,11.89,0,0,1-11.13-12V455.64a25.46,25.46,0,0,0-25.43-25.43H758.54V372.43A25.46,25.46,0,0,0,733.11,347H548.19a25.45,25.45,0,0,0-25.42,25.43v30.05H511.21a25.45,25.45,0,0,0-25.43,25.42v16.64a6.94,6.94,0,1,0,13.87,0V427.9a11.57,11.57,0,0,1,11.56-11.56h11.56V458H474.22a25.45,25.45,0,0,0-25.42,25.43V649.8a25.45,25.45,0,0,0,25.42,25.43H807.09A25.43,25.43,0,0,0,832.5,649.8V427.9A25.44,25.44,0,0,0,807.08,402.48ZM536.63,372.43a11.57,11.57,0,0,1,11.56-11.56H733.11a11.57,11.57,0,0,1,11.56,11.56v57.78H704a50.73,50.73,0,0,0-37,16.08A36.87,36.87,0,0,1,640.17,458H536.63ZM474.22,661.36a11.56,11.56,0,0,1-11.55-11.56V483.38a11.56,11.56,0,0,1,11.55-11.56H640.17a50.8,50.8,0,0,0,37-16.07A36.82,36.82,0,0,1,704,444.08h66.09a11.57,11.57,0,0,1,11.56,11.56V649.36a26.29,26.29,0,0,0,2.86,12Z" transform="translate(-448.8 -347)"/><path class="cls-2" d="M566.68,388.61H714.62a6.94,6.94,0,0,0,0-13.87H566.68a6.94,6.94,0,0,0,0,13.87Z" transform="translate(-448.8 -347)"/><path class="cls-2" d="M566.68,416.34H714.62a6.93,6.93,0,0,0,0-13.86H566.68a6.93,6.93,0,1,0,0,13.86Z" transform="translate(-448.8 -347)"/><path class="cls-2" d="M649.9,437.15a6.94,6.94,0,0,0-6.94-6.94H566.68a6.94,6.94,0,0,0-6.93,7.15,7.13,7.13,0,0,0,7.22,6.72h76A6.94,6.94,0,0,0,649.9,437.15Z" transform="translate(-448.8 -347)"/><path class="cls-1" d="M663.77,531.92h-6.94V525a20.82,20.82,0,0,0-20.8-20.8h-9.25A20.82,20.82,0,0,0,606,525v6.94H599a20.82,20.82,0,0,0-20.8,20.8V562a20.82,20.82,0,0,0,20.8,20.8H606v6.94a20.82,20.82,0,0,0,20.8,20.8H636a6.94,6.94,0,0,0,0-13.87h-9.25a6.94,6.94,0,0,1-6.93-6.93V575.84a6.94,6.94,0,0,0-6.94-6.94H599a6.94,6.94,0,0,1-6.93-6.93v-9.25a6.94,6.94,0,0,1,6.93-6.93h13.87a6.94,6.94,0,0,0,6.94-6.94V525a6.94,6.94,0,0,1,6.93-6.93H636A6.94,6.94,0,0,1,643,525v13.87a6.94,6.94,0,0,0,6.94,6.94h13.87a6.94,6.94,0,0,1,6.93,6.93V562a6.94,6.94,0,0,1-6.93,6.93H649.9a6.94,6.94,0,0,0-6.94,6.94v13.87a6.94,6.94,0,0,0,13.87,0v-6.94h6.94a20.82,20.82,0,0,0,20.8-20.8v-9.25A20.82,20.82,0,0,0,663.77,531.92Z" transform="translate(-448.8 -347)"/></svg>