<svg id="Layer_1" data-name="Layer 1" xmlns="http://www.w3.org/2000/svg" viewBox="0 0 383.7 369.28"><defs><style>.cls-1{fill:#404041;}.cls-2{fill:#1a1719;}</style></defs><title>health_history2-home</title><path class="cls-1" d="M849.28,254.48H816a6.93,6.93,0,0,0,0,13.86h33.31a11.57,11.57,0,0,1,11.55,11.56V501.8a11.54,11.54,0,0,1-11.51,11.56h-.47a11.89,11.89,0,0,1-11.13-12V307.64a25.46,25.46,0,0,0-25.43-25.43H800.74V224.43A25.46,25.46,0,0,0,775.31,199H590.39A25.45,25.45,0,0,0,565,224.43v30H553.41A25.45,25.45,0,0,0,528,279.9v16.64a6.94,6.94,0,0,0,13.87.53,4.69,4.69,0,0,0,0-.53V279.9a11.58,11.58,0,0,1,11.56-11.56H565V310H516.42A25.45,25.45,0,0,0,491,335.43V501.8a25.45,25.45,0,0,0,25.42,25.43H849.29A25.43,25.43,0,0,0,874.7,501.8V279.9A25.44,25.44,0,0,0,849.28,254.48Zm-270.45-30a11.58,11.58,0,0,1,11.56-11.56H775.31a11.58,11.58,0,0,1,11.56,11.56v57.78H746.2a50.72,50.72,0,0,0-37,16.08A36.84,36.84,0,0,1,682.37,310H578.83ZM516.42,513.36a11.56,11.56,0,0,1-11.55-11.56V335.38a11.56,11.56,0,0,1,11.55-11.56h166a50.82,50.82,0,0,0,37-16.07,36.83,36.83,0,0,1,26.83-11.67h66.09a11.58,11.58,0,0,1,11.56,11.56V501.36a26.35,26.35,0,0,0,2.86,12Z" transform="translate(-491 -199)"/><path class="cls-2" d="M608.88,240.61H756.82a6.94,6.94,0,0,0,0-13.87H608.88a6.94,6.94,0,0,0,0,13.87Z" transform="translate(-491 -199)"/><path class="cls-2" d="M608.88,268.34H756.82a6.93,6.93,0,0,0,0-13.86H608.88a6.93,6.93,0,0,0,0,13.86Z" transform="translate(-491 -199)"/><path class="cls-2" d="M692.1,289.15a6.94,6.94,0,0,0-6.94-6.94H608.88a6.93,6.93,0,0,0-6.93,7v.2a7.13,7.13,0,0,0,7.22,6.72h76A6.94,6.94,0,0,0,692.1,289.15Z" transform="translate(-491 -199)"/><path class="cls-1" d="M706,383.92H699V377a20.82,20.82,0,0,0-20.8-20.8H669A20.81,20.81,0,0,0,648.2,377v6.94h-7a20.82,20.82,0,0,0-20.8,20.8V414a20.82,20.82,0,0,0,20.8,20.8h7v6.94a20.82,20.82,0,0,0,20.8,20.8h9.2a6.94,6.94,0,0,0,0-13.87H669a6.94,6.94,0,0,1-6.93-6.93v-13.9a6.94,6.94,0,0,0-6.94-6.94H641.2a6.94,6.94,0,0,1-6.93-6.93v-9.25a6.94,6.94,0,0,1,6.93-6.93h13.87a6.94,6.94,0,0,0,6.94-6.94h0V377a6.94,6.94,0,0,1,6.93-6.93h9.26a6.94,6.94,0,0,1,7,6.88v13.92a6.94,6.94,0,0,0,6.94,6.94H706a6.94,6.94,0,0,1,6.93,6.93V414a6.94,6.94,0,0,1-6.93,6.93H692.1a6.94,6.94,0,0,0-6.94,6.94h0v13.87a6.94,6.94,0,0,0,13.87,0V434.8H706a20.82,20.82,0,0,0,20.8-20.8v-9.25A20.82,20.82,0,0,0,706,383.92Z" transform="translate(-491 -199)"/><path class="cls-1" d="M530.27,568V543.54h4.13v10.6h12.14v-10.6h4.13V568h-4.13V558H534.4v10Z" transform="translate(-491 -199)"/><path class="cls-1" d="M574.65,543.54v3.88H561.59v6.47h11.72v3.68H561.59v6.55h13.47V568h-17.6V543.54Z" transform="translate(-491 -199)"/><path class="cls-1" d="M583.81,562.43,581.36,568H577l10.78-24.46h4.41L602.92,568h-4.41l-2.45-5.57Zm10.57-3.81-4.44-10.08-4.45,10.08Z" transform="translate(-491 -199)"/><path class="cls-1" d="M606.32,568V543.54h4.13v20.54h11.16V568Z" transform="translate(-491 -199)"/><path class="cls-1" d="M632.85,547.32V568h-4.13V547.32H621.3v-3.78h19v3.78Z" transform="translate(-491 -199)"/><path class="cls-1" d="M644.75,568V543.54h4.13v10.6H661v-10.6h4.13V568H661V558H648.88v10Z" transform="translate(-491 -199)"/><path class="cls-1" d="M681.53,568V543.54h4.13v10.6h12.15v-10.6h4.13V568h-4.13V558H685.66v10Z" transform="translate(-491 -199)"/><path class="cls-1" d="M708.73,543.54h4.13V568h-4.13Z" transform="translate(-491 -199)"/><path class="cls-1" d="M727.05,546.75a5.43,5.43,0,0,0-3,.74,2.45,2.45,0,0,0-1.15,2.22,2.6,2.6,0,0,0,1.15,2.28,17.46,17.46,0,0,0,4.92,1.69,13.5,13.5,0,0,1,5.67,2.56,6.06,6.06,0,0,1,1.91,4.85,6.44,6.44,0,0,1-2.42,5.2,9.62,9.62,0,0,1-6.33,2,14.93,14.93,0,0,1-10.19-3.95l2.59-3.12a11.66,11.66,0,0,0,7.7,3.22,5.27,5.27,0,0,0,3.17-.86,2.68,2.68,0,0,0,1.17-2.27,2.55,2.55,0,0,0-1.1-2.21,11.63,11.63,0,0,0-3.8-1.43,34.21,34.21,0,0,1-4.09-1.19,9.33,9.33,0,0,1-2.49-1.42,6,6,0,0,1-2.17-5,6.14,6.14,0,0,1,2.47-5.23,9.92,9.92,0,0,1,6.11-1.84,14.72,14.72,0,0,1,4.65.77,12.17,12.17,0,0,1,4,2.17l-2.2,3.12a8.36,8.36,0,0,0-2.94-1.62A11.36,11.36,0,0,0,727.05,546.75Z" transform="translate(-491 -199)"/><path class="cls-1" d="M750.94,547.32V568h-4.13V547.32h-7.42v-3.78h19v3.78Z" transform="translate(-491 -199)"/><path class="cls-1" d="M782.65,564.62a13.4,13.4,0,0,1-18.34,0,12.84,12.84,0,0,1,0-18.06,13.42,13.42,0,0,1,18.34,0,12.84,12.84,0,0,1,0,18.06Zm-3-15.31a8.58,8.58,0,0,0-12.29,0,9.15,9.15,0,0,0,0,12.57,8.61,8.61,0,0,0,12.29,0,9.15,9.15,0,0,0,0-12.57Z" transform="translate(-491 -199)"/><path class="cls-1" d="M811.1,551.48q0,6.06-5.28,7.63l6.4,8.89H807l-5.84-8.22H795.7V568h-4.13V543.54h9.1c3.73,0,6.41.63,8,1.88S811.1,548.7,811.1,551.48ZM805.61,555a4.39,4.39,0,0,0,1.26-3.49,3.74,3.74,0,0,0-1.3-3.29c-.86-.59-2.4-.89-4.62-.89H795.7V556h5.15C803.18,556,804.77,555.67,805.61,555Z" transform="translate(-491 -199)"/><path class="cls-1" d="M826.22,568H822v-9.66l-9.1-14.8h4.52l6.68,11.13,6.69-11.13h4.51l-9.1,14.8Z" transform="translate(-491 -199)"/></svg>