<svg id="Layer_1" data-name="Layer 1" xmlns="http://www.w3.org/2000/svg" xmlns:xlink="http://www.w3.org/1999/xlink" viewBox="0 0 97.18 68.17"><defs><style>.cls-1{fill:none;}.cls-2{fill:#1a1719;}.cls-3{clip-path:url(#clip-path);}.cls-4{fill:#414141;}.cls-5{fill:#fff;}</style><clipPath id="clip-path" transform="translate(-634.43 -350.4)"><rect id="SVGID" class="cls-1" x="653.02" y="350.22" width="78.66" height="68.58"/></clipPath></defs><title>health_history</title><path class="cls-2" d="M634.76,360.62h.52a.32.32,0,0,0,.33-.32.33.33,0,0,0-.33-.33h-.52a.33.33,0,0,0-.33.33A.32.32,0,0,0,634.76,360.62Z" transform="translate(-634.43 -350.4)"/><path class="cls-2" d="M634.76,361.65h2.49a.33.33,0,0,0,0-.66h-2.49a.33.33,0,1,0,0,.66Z" transform="translate(-634.43 -350.4)"/><g class="cls-3"><path class="cls-4" d="M682.24,365.28a1.51,1.51,0,0,1,1.6-1,1.49,1.49,0,0,1,1.3,1.35l2.39,27.9L692,377.43a1.49,1.49,0,0,1,2.89.07l2.49,10.8,4.25-17.86a1.5,1.5,0,0,1,2.94.14l3.17,22.61,1.42-4.59a1.49,1.49,0,0,1,1.43-1.05h16a27.46,27.46,0,0,0,4.57-10.44c1.22-7.48,0-13.66-3.54-18.35s-9.09-7.43-16.77-8.25a18.85,18.85,0,0,0-2.08-.11,24.43,24.43,0,0,0-15.13,5.44,24.36,24.36,0,0,0-15.12-5.44,19,19,0,0,0-2.08.11c-7.68.82-13.17,3.52-16.77,8.25s-4.76,10.87-3.54,18.35a27.64,27.64,0,0,0,4.68,10.6H674.2Zm0,0" transform="translate(-634.43 -350.4)"/></g><path class="cls-4" d="M708.62,400.47a1.49,1.49,0,0,1-2.91-.24l-3-21.4-3.9,16.37a1.49,1.49,0,0,1-1.45,1.14h0a1.5,1.5,0,0,1-1.46-1.15l-2.6-11.29-5.11,18.45a1.51,1.51,0,0,1-1.44,1.1h-.14a1.5,1.5,0,0,1-1.35-1.36l-2.51-29.35-6.1,17a1.49,1.49,0,0,1-1.4,1H662.94c5,6.47,11.77,12.88,17.74,18.49,0,0,5.08,5.1,6.61,6.41,1.15,1,3.64,3,6.34,3s5.19-2,6.33-3c1.53-1.31,6.61-6.41,6.61-6.41,6-5.66,12.89-12.13,17.87-18.66H711.69Zm0,0" transform="translate(-634.43 -350.4)"/><path class="cls-5" d="M729.82,387.55H710.59a1.49,1.49,0,0,0-1.43,1.05l-1.42,4.59-3.17-22.61a1.5,1.5,0,0,0-2.94-.14l-4.25,17.86-2.49-10.8a1.49,1.49,0,0,0-2.89-.07l-4.47,16.12-2.39-27.9a1.49,1.49,0,0,0-2.89-.37l-8,22.43H654.52a1.5,1.5,0,1,0,0,3h20.73a1.49,1.49,0,0,0,1.4-1l6.1-17,2.51,29.35a1.5,1.5,0,0,0,1.35,1.36h.14a1.51,1.51,0,0,0,1.44-1.1l5.11-18.45,2.6,11.29a1.5,1.5,0,0,0,1.46,1.15h0a1.49,1.49,0,0,0,1.45-1.14l3.9-16.37,3,21.4a1.49,1.49,0,0,0,2.91.24l3.07-9.94h18.13a1.49,1.49,0,1,0,0-3Zm0,0" transform="translate(-634.43 -350.4)"/></svg>