<svg id="Layer_1" data-name="Layer 1" xmlns="http://www.w3.org/2000/svg" viewBox="0 0 192.8 320.06"><defs><style>.cls-1{fill:#414141;}.cls-2{isolation:isolate;font-size:40.5px;fill:#fff;font-family:Montserrat-Regular, Montserrat;}</style></defs><title>impact_control</title><path class="cls-1" d="M734.06,327.72s4.05.68,6.75-9.79c5.74-17.88,26.32-9.45,28.35-8.77a16.6,16.6,0,0,1,9.78,18.56c-.33,3.38-5.06,10.12-5.4,11.81-1,2.36,1.69,7.43.68,8.78s-6.08,0-6.08,0-5.06,9.45-9.44,9.78-8.1-3.37-10.8-3.71a78.45,78.45,0,0,0-21.27,3.71c-1.68,1.35-10.79,15.87-24,19.58l-40.49,11.81,13.16,25s7.42,7.43,8.1,12.83-4.05,12.15-5.06,15.52l-9.79,35.1a86.27,86.27,0,0,0-2.7,13.5,14.12,14.12,0,0,0,2.7,7.42c.67,1.35,10.12,6.41,10.12,6.41s15.86,2,17.55,3.72a4.1,4.1,0,0,1,0,5.4,19.81,19.81,0,0,1-13.84,7.08H667.58c3,2,6.07,3.72,9.11,5.4,2.36,1,13.5,3.38,14.17,5.4s-1.69,5.74-3.37,7.09a32.39,32.39,0,0,1-18.23,5.74c-5.06,0-18.9-2-18.9-2s-13.83-.33-15.18-2,1-18.56,1.69-19.91c.33-1,1.35-1.35,2.36-1.69l-1.69-32.74a67.76,67.76,0,0,1-2.7-16.2c.68-10.46,9.79-26,9.45-27.67a18.63,18.63,0,0,0-2.7-5.06S624,434.36,619.65,434s-12.82,1-14.17,0-8.77-32.4-11.47-38.81a41.14,41.14,0,0,1-4.73-38.48,24.79,24.79,0,0,1,9.45-10.12c8.77-5.4,77.62-21.6,77.62-21.6s-12.15-16.87-14.17-20.25-32.74-42.52-32.74-42.52L618,254.82l-4.73-3.37s-7.76-2-7.42-4,6.41-1.69,6.41-1.69-7.76-10.12-6.08-12.15,10.13,8.1,10.13,8.1-9.11-13.16-6.75-14.51,10.8,9.79,10.8,9.79-7.43-10.8-5.74-11.81,5.74,4.38,5.74,4.38a4.15,4.15,0,0,1,3.37-.67c2,.67,4.73,7.76,6.08,9.45l6.41,8.1,6.75,10.8s12.82,12.15,15.52,15.18L678.71,297l-15.52-32.74-8.78-2.36-6.75-2.36s-3.37-1.69-2.7-3.38,6.75,0,7.77-.33,1-1.69,0-4.39-10.8-11.47-9.45-13.16,11.81,7.42,11.81,7.42S648,232.21,650,231.54,658.46,244,658.46,244s-3-12.15-1.35-12.49,6.75,11.81,6.75,11.81.68-9.45,2.37-9.45,3.37,12.49,3.37,12.49a25.18,25.18,0,0,1,3.38,10.8A86.52,86.52,0,0,1,681.75,270c3.37,6.08,11.14,21.26,12.49,22.61l15.18,15.19a5.73,5.73,0,0,1,3.38,0,73.81,73.81,0,0,1,8.44,9.45Z" transform="translate(-586.5 -225)"/><circle class="cls-1" cx="141.82" cy="215.44" r="37.46"/><text class="cls-2" transform="translate(118.48 227.57)">2x</text></svg>