<svg id="Layer_1" data-name="Layer 1" xmlns="http://www.w3.org/2000/svg" viewBox="0 0 244.99 396"><defs><style>.cls-1,.cls-3{fill:#414141;}.cls-2{fill:#fff;}.cls-3{stroke:#fff;stroke-miterlimit:10;}</style></defs><title>impingment_clearing</title><path class="cls-1" d="M717.09,364.21l.95,44.94L716,447.64s-2.84,17.06-2.46,29.77c.09,3.08.27,7.53.48,12.59H914c-.7-2.84-1.37-5.54-2-8-.76-3.41-.95-11.38-.95-11.38s3.79-1.14,4.36-6.26c2.47-13.27-5.12-61.24-5.12-61.24a125.31,125.31,0,0,0,5.12-36.41c3.6-2.65,12.71-35.84,12.71-35.84s8.15-.76,8.53-7c.38-3,.19-16.69,5.5-21.24s5.31-32.42,5.31-43.61c0-3.61-4.74-17.26-19-20.86-8.16-2.47-24.66,2.09-24.66,2.09s-16.68,0-25-5.12c-8.35-4.93-11.19-7.4-12.71-11.57-1.71-4.36-1.9-8.15-1.33-13.08s8.35-14.61,8.73-22.19c4.36-.38,9.29-10.81,10.61-15s3.23-13.65,1.33-15.74-4.74.19-4.74.19,3-24.65-5.31-42.66c-9.86-20.29-35.65-21-35.65-21h-1.13s-25.79.76-35.46,20.86c-8.35,18-5.31,42.47-5.31,42.47s-2.85-2.08-4.74,0,0,11.57,1.33,15.93,6.06,14.79,10.61,15c.38,7.58,8.16,17.44,8.73,22.38a27.35,27.35,0,0,1-1.33,13.08c-1.52,4.36-12.9,11.75-12.9,11.75l-55.55,22s-11.76,4.93-19,22.38c-7.21,17.63-9.87,27.49-9.87,27.49l-10.8,44.56s-1.9,4.36-1.9,6.64S717.09,364.21,717.09,364.21Z" transform="translate(-702.49 -94)"/><path class="cls-2" d="M760.51,405c-.75,2.47.76,9.48.76,9.48s-4.36,10.43-1.14,13.47c1.52,1.14,0,3.41,0,3.41s-3.22,5.5-2.65,10.62c-3.79,1.33-4.93,5.5-4.93,5.5a70.74,70.74,0,0,0,2.09-13.09c.19-5.87,2.84-41.52,2.84-41.52S760.13,401.18,760.51,405Z" transform="translate(-702.49 -94)"/><path class="cls-3" d="M867.27,382.79a40,40,0,0,1-11.57,1.89s-8.15,1.33-11.38,0-7.39-8.72-7.39-8.72S814,356.81,803.75,336.33c-1.71-3.79-28.83-51.76-30.53-55-13.84-3.79-28.82-22.37-29.77-24.27s-2.47-2.27-1.33-5.31c1-1.7,1.14-2.84,2.66-3.41s6.44,1.71,6.44,1.71,1.9-5.12,4-5.69,5.88,0,5.88,0a7.66,7.66,0,0,1,3.61-1.9,10.57,10.57,0,0,1,3.79,0s.38-4.55,5.88-5.88c3.6-1,9.29,2.66,9.29,2.66s4.74-6.26,9.1-4.17c8,9.29,6.26,33.18,6.26,33.18a218.66,218.66,0,0,0,22.75,30c18.2,21.62,36.6,30,36.6,30s11.18-27.5,18.2-29.77c18.2-12.71,55.75,21,55.75,21S906.33,365.53,867.27,382.79Z" transform="translate(-702.49 -94)"/></svg>