<svg id="Layer_1" data-name="Layer 1" xmlns="http://www.w3.org/2000/svg" xmlns:xlink="http://www.w3.org/1999/xlink" viewBox="0 0 112.97 82.21"><defs><style>.cls-1{fill:none;}.cls-2{clip-path:url(#clip-path);}.cls-3{fill:#404040;}</style><clipPath id="clip-path" transform="translate(-627 -344.06)"><rect class="cls-1" x="627" y="328.67" width="112.97" height="112.97"/></clipPath></defs><title>inferolateral_reach</title><g class="cls-2"><path class="cls-3" d="M704.76,363.39c-.29.19-6.68,3.31-13.31,6.53l-5-1-2.81,1.33v1.63l2.63.53-9.71,4.7-1.93.13-1.78-4.18-5.32.27V375l.84,2.68-.82.05-3.26-.84,1.21-.5v-1.84l-4.15-1-3.88,1.59-29.79-7.7c-.77-.19-1,1.37,0,1.56.42.09,15.84,4.13,27.37,7.15l-1.07.43v1.77l4.3,1.07,3.58-1.49,5.66,1.49,1.33-.11.6,1.92,2.32-.1,6.1,14.75-5.72.5v2.14l1.23,3.37,6.74-.59c4.81,11.64,9.87,23.87,10,24.18.6,1.45,2.71.73,2.41,0l-10.36-24.37,5.68-.49V398.4l-1.65-3.28-6.34.55L673.59,381l1.79-.08v-1.76l-.18-.43,1.33-.11,11.65-5.77,4.36.87,2.62-1.44v-1.63l-1.84-.35,11.43-5.68c.91-.46.55-1.43,0-1.23" transform="translate(-627 -344.06)"/><path class="cls-3" d="M690.65,348.78c1.1-.38,7.06-5.26,11.78-4.68s7.82,6.15,7.82,6.15,8.08,6.28,10.1,9c1.09.64,2.7,1.77,3.54,2.19,6.71,1.55,9.49,9.17,13.21,12.12,1,.76,3.93,1.92,2.48,4a33.61,33.61,0,0,1-2.27,3.53,12.87,12.87,0,0,1-1.23,1.53c-.46.43-1.07,1.09-1.44.72a1,1,0,0,1-1.1,0s-.78.24-1.12-.21c-.75.11-.88-.35-.88-.35s-1.07-.18-.64-.69,1.65-.64,2-.88a9.33,9.33,0,0,0,1.29-3.05,6.83,6.83,0,0,0-1.13-3.25,14,14,0,0,0-2.29-2.38l-.83,1.28a4.42,4.42,0,0,1-1.33,2.22,2.91,2.91,0,0,1-1.1,0s-1.78,0-2-.37c-.18,0-.06-.47-.06-.47s.15-.5.49-.54l.58-.08s.64-.26.9-.34a.69.69,0,0,0,.38-.42s.25-1.62.32-2.1a2,2,0,0,0-.34-1.33,34.94,34.94,0,0,0-6.49-4.56s-12.45-3.47-17.32-8.3a11.7,11.7,0,0,1-2.2-1.77s-4.61,3.85-8.22,4.37a6.23,6.23,0,0,1-5,3.81v.84a5.83,5.83,0,0,1,2.25,1.61,8.79,8.79,0,0,1,.82,3.16s.64.32.76.65-.36,1.16-.36,1.16l-.1.52.26.8s.16.64,0,.84a.41.41,0,0,1-.42.12l-1.43-1.18a5.15,5.15,0,0,1-.76-.64.36.36,0,0,1,0-.36l-1.84-2.4a8,8,0,0,1-.74-.68,4.54,4.54,0,0,0-1.11-.68s-2.63-.37-2.88-1.4a18.89,18.89,0,0,0-.65-2.57,11.15,11.15,0,0,1-1.12-2.17l-.44.85s-.56,2.45-2.09,2.89a46.72,46.72,0,0,1-1.06,5s-1,2.57-1.18,3.29-.58,1.85-.76,2.41c-.47,1.62-.84,2.14-1.41,2.28a4.45,4.45,0,0,1-1.5,0c-.32,0-1.44.38-1.8.41s-.64-.48-.64-.48l-1.75.42s-.53.17-.76,0-.39-.17-.48-.32.32-.26.32-.26a.31.31,0,0,1-.14-.29c0-.18,1-.42,1-.42s-.42-.11-.27-.3a8.6,8.6,0,0,1,2.19-.28c.18,0,.6-.43.8-.45a8.92,8.92,0,0,0,1.37-.05,3.45,3.45,0,0,0,1-.49c.28-.38.54-8.33.54-8.33a3.83,3.83,0,0,1-4.07-3.95c-.09-4.15,4.89-5,4.89-5s.64-4.13,1.8-5.9a9.72,9.72,0,0,1,6.7-2.85c4.32-.12,6.07-.52,7.17-.9" transform="translate(-627 -344.06)"/><path class="cls-3" d="M690.65,348.78c1.1-.38,7.06-5.26,11.78-4.68s7.82,6.15,7.82,6.15,8.08,6.28,10.1,9c1.09.64,2.7,1.77,3.54,2.19,6.71,1.55,9.49,9.17,13.21,12.12,1,.76,3.93,1.92,2.48,4a33.61,33.61,0,0,1-2.27,3.53,12.87,12.87,0,0,1-1.23,1.53c-.46.43-1.07,1.09-1.44.72a1,1,0,0,1-1.1,0s-.78.24-1.12-.21c-.75.11-.88-.35-.88-.35s-1.07-.18-.64-.69,1.65-.64,2-.88a9.33,9.33,0,0,0,1.29-3.05,6.83,6.83,0,0,0-1.13-3.25,14,14,0,0,0-2.29-2.38l-.83,1.28a4.42,4.42,0,0,1-1.33,2.22,2.91,2.91,0,0,1-1.1,0s-1.78,0-2-.37c-.18,0-.06-.47-.06-.47s.15-.5.49-.54l.58-.08s.64-.26.9-.34a.69.69,0,0,0,.38-.42s.25-1.62.32-2.1a2,2,0,0,0-.34-1.33,34.94,34.94,0,0,0-6.49-4.56s-12.45-3.47-17.32-8.3a11.7,11.7,0,0,1-2.2-1.77s-4.61,3.85-8.22,4.37a6.23,6.23,0,0,1-5,3.81v.84a5.83,5.83,0,0,1,2.25,1.61,8.79,8.79,0,0,1,.82,3.16s.64.32.76.65-.36,1.16-.36,1.16l-.1.52.26.8s.16.64,0,.84a.41.41,0,0,1-.42.12l-1.43-1.18a5.15,5.15,0,0,1-.76-.64.36.36,0,0,1,0-.36l-1.84-2.4a8,8,0,0,1-.74-.68,4.54,4.54,0,0,0-1.11-.68s-2.63-.37-2.88-1.4a18.89,18.89,0,0,0-.65-2.57,11.15,11.15,0,0,1-1.12-2.17l-.44.85s-.56,2.45-2.09,2.89a46.72,46.72,0,0,1-1.06,5s-1,2.57-1.18,3.29-.58,1.85-.76,2.41c-.47,1.62-.84,2.14-1.41,2.28a4.45,4.45,0,0,1-1.5,0c-.32,0-1.44.38-1.8.41s-.64-.48-.64-.48l-1.75.42s-.53.17-.76,0-.39-.17-.48-.32.32-.26.32-.26a.31.31,0,0,1-.14-.29c0-.18,1-.42,1-.42s-.42-.11-.27-.3a8.6,8.6,0,0,1,2.19-.28c.18,0,.6-.43.8-.45a8.92,8.92,0,0,0,1.37-.05,3.45,3.45,0,0,0,1-.49c.28-.38.54-8.33.54-8.33a3.83,3.83,0,0,1-4.07-3.95c-.09-4.15,4.89-5,4.89-5s.64-4.13,1.8-5.9a9.72,9.72,0,0,1,6.7-2.85c4.32-.12,6.07-.52,7.17-.9" transform="translate(-627 -344.06)"/><path class="cls-3" d="M677.82,353s.27,1.82.27,2.57c0,1.42-3.11,2.85-3.11,2.85" transform="translate(-627 -344.06)"/><path class="cls-3" d="M674.15,367.4a5.56,5.56,0,0,0,4.53-2.09" transform="translate(-627 -344.06)"/></g></svg>