<svg id="Layer_1" data-name="Layer 1" xmlns="http://www.w3.org/2000/svg" viewBox="0 0 255.67 262.92"><defs><style>.cls-1{fill:#404040;}</style></defs><title>inline_lunge</title><path class="cls-1" d="M813.39,367.39V345.2c5.92.9,9-1.15,11.91-2.63-5.67,7.89-6,19-11.91,24.82m-60.45,34.5a1.29,1.29,0,0,1-1.14.9,15.35,15.35,0,0,1-1.66.06H719.19a3,3,0,0,1-.77-.13c-.7-.77-1.46-1.73-1.33-2.69a6.77,6.77,0,0,1,2.54-3.72c3.06-2.89,7.07-4.3,9.94-7.5a26.35,26.35,0,0,1,3.06.77,76.82,76.82,0,0,1,15.47,6.86c.58.32,1.09.64,1.66.89s1.4.65,2,1a2.79,2.79,0,0,1,1.14,3.53m153.32,1.28h-3.57c-.64.06-1.27.13-1.91.13H873.71A93.72,93.72,0,0,1,852,397.85c-4.33-1.73-8.73-3.59-12.93-5.77a23,23,0,0,1-4.71-3.08,15.09,15.09,0,0,0-2.74-4.1,3.5,3.5,0,0,1-1-3,16,16,0,0,0,.07-1.86,3.83,3.83,0,0,1,.63-2.18,62.53,62.53,0,0,1,5.74-7.31q2.76-2.79,5.73-5.39a63,63,0,0,1,10.7-10c2.23-1.73,4.71-3.27,6.56-5.45a39.73,39.73,0,0,1,3.12-3.59l.51-.45c.25-.51.51-1,.76-1.48l.26-.25a12.32,12.32,0,0,0,1.78-2.25,39.8,39.8,0,0,0,2.23-4.36,13.32,13.32,0,0,0,.38-11c-.38-.83-.76-1.6-1.15-2.44a7.35,7.35,0,0,0-2.54-2.88,29.69,29.69,0,0,0-10.13-4.36,13.59,13.59,0,0,1-3.12-1,31.22,31.22,0,0,0-4.08-1.41l-.51-.13a61.44,61.44,0,0,0-25.47-5.57,20.07,20.07,0,0,0-4-.52,2.67,2.67,0,0,1-2.81-2.88c0-.9-.12-1.73-.19-2.63a11.7,11.7,0,0,1,0-2.05,44,44,0,0,0,.57-4.94c0-3.91.33-7.83-.31-11.74-.51-3.08-.83-6.09-1.34-9.17-.64-4-1.4-7.89-2.1-11.8-.76-4.23-1.59-8.53-3.5-12.44a5.7,5.7,0,0,1-.26-1c.64-.9,1.66-.77,2.36-1.28s1.46-1.28,2.23-1.8c.63-.32,1.21-.64,1.84-.9,3-1.6,5.93-3.4,8.8-5.32a37.85,37.85,0,0,1,5-2.88,3.2,3.2,0,0,0,1.78-1.86,8.78,8.78,0,0,1,1-1.61,15.59,15.59,0,0,0,3.06-7.76c.44-2.43-.7-4.1-2.68-5.32-1.78-1.09-3.63-2.12-5.48-3.14a3.33,3.33,0,0,0-.76-.32l-4.52-1.29c-2.17-.64-4.33-1.21-6.43-2a25.38,25.38,0,0,0-6.76-1.73,35.48,35.48,0,0,0-5.28-.38,3.06,3.06,0,0,1-.83-.07,1.19,1.19,0,0,1-1.08-1.28.25.25,0,0,0,.06-.19c.26-.71.57-1.35.89-2.06a3.67,3.67,0,0,0,.45-1.34,3.17,3.17,0,0,1,1.91-3.46,1.86,1.86,0,0,0,.83-2.5,1.47,1.47,0,0,0-.26-.39c-.38-.58-.95-1-1.34-1.54a22.36,22.36,0,0,1-1.71-2.56,2.49,2.49,0,0,1-.07-2.57,3.72,3.72,0,0,0,.19-2.63c-.25-1.86-.44-3.65-.76-5.51a1.87,1.87,0,0,1,.25-1.54V183a12.88,12.88,0,0,0-1-3.78,1.2,1.2,0,0,1-.32-.45c-.19-.46-.45-.9-.64-1.35-.13-.26-.32-.52-.44-.77l-.07-.13c-.25-.32-.51-.58-.76-.9l-.58-.38c-1-.71-2-1.41-3.05-2.06a26.29,26.29,0,0,0-8.22-2.37c-2.23-.38-4.46-.7-6.69-.89-2.93-1-6.56-.13-9.23,1.08a8,8,0,0,0-3.83,3.6l-.06.12c-.06-.7-.13-1.34-.13-2.05V155h-6v53.67a3.15,3.15,0,0,1-.19,1.09,3.59,3.59,0,0,1-1.09,2.31,2.65,2.65,0,0,0-.82,2.44,1.94,1.94,0,0,1-.32,1.54c-.19.32-.45.64-.45.89.06,2-.19,3.92.06,5.9a.24.24,0,0,0,.07.2,2.19,2.19,0,0,1,.06,1.79,2.42,2.42,0,0,0,1.15,3c.13.06.19.19.32.25,0,.45-.07.9-.07,1.29a2.79,2.79,0,0,1,.58,1.66v19.37c.06,27.38.32,54.7.38,82.08A2.26,2.26,0,0,1,760,334c-.19,1.35-.31,2.63-.44,4v.25a2.35,2.35,0,0,1-.06.65,93.12,93.12,0,0,0,0,14.75c.44,5.25,2.74,10.13,4,15.26a12.9,12.9,0,0,0,.63,1.22,4.2,4.2,0,0,1,.26.83,27.09,27.09,0,0,0,6.75,8.66v.25a1.1,1.1,0,0,1-1.21,1,6.16,6.16,0,0,1-1.21-.25c-1.21-.45-2.36-.9-3.44-1.41a29.11,29.11,0,0,0-5.16-2c-1.4-.38-2.74-.9-4.14-1.22a11.8,11.8,0,0,0-2.61-.32c-1.53-.06-3,0-4.52,0-.77,0-1.6-.26-2.43-.19-3,.19-5.92-.64-8.91-1a.21.21,0,0,1-.19-.07l-2-.38c-1.27-.19-2.61-.32-3.82-.58-3.12-.64-6.18-1.28-9.24-2.05a9.07,9.07,0,0,0-2.35-.32,13.74,13.74,0,0,0-2.17-1.67l-.12-.19a.88.88,0,0,0-.64-.32,26.71,26.71,0,0,0-6.5-2.38,37.92,37.92,0,0,0-7.13-1.47,6.09,6.09,0,0,0-1.53.13,2.76,2.76,0,0,0-3.25,1.28A7.08,7.08,0,0,0,697.4,370v.13c-.06.32-.06.64-.12,1v1c0,2.62-.13,5.25-.13,7.88l-.64,9.11a19.53,19.53,0,0,0,.13,3.33,5.16,5.16,0,0,0-.06,1,10.07,10.07,0,0,0,.5,3.66c.26.83.71,1.6,1,2.43a2.43,2.43,0,0,1,.12,1.16c-.32,1.6-1.53,1.86-3.18,1.86s-43,.26-44.33.13l-.13,15.26H906.26V403.17Z" transform="translate(-650.59 -155)"/></svg>