<svg id="Layer_1" data-name="Layer 1" xmlns="http://www.w3.org/2000/svg" xmlns:xlink="http://www.w3.org/1999/xlink" viewBox="0 0 62.53 39.96"><defs><style>.cls-1,.cls-5,.cls-6{fill:none;}.cls-2{fill:#404040;}.cls-3{clip-path:url(#clip-path);}.cls-4{fill:#eb5959;}.cls-5{stroke:#fff;}.cls-5,.cls-6{stroke-miterlimit:10;stroke-width:0.56px;}.cls-6{stroke:#fefefe;}</style><clipPath id="clip-path" transform="translate(-652.22 -365.2)"><rect class="cls-1" x="652.5" y="353.2" width="62.25" height="63.96"/></clipPath></defs><title>lower_mcs</title><polygon class="cls-2" points="6.17 34.23 4.98 36.04 4.98 37.51 62.53 37.51 62.53 35.2 61.63 34.23 6.17 34.23"/><g class="cls-3"><path class="cls-4" d="M653.23,383.17c2.33-8,8.78-11.4,11.09-11.92,3.21-.53,5.51-1.95,6.28-1.95a11.87,11.87,0,0,0,2.23,0c1-.14,2.65-2.1,2.65-2.1a3.09,3.09,0,0,1,4-1.53c3,.87,2.76,4.46,2.58,5s-1.88,1.75-1.88,1.75a3.89,3.89,0,0,1-.73.38c-.2.05-.26,1-.42,1.19s-.48,0-.48,0a28.18,28.18,0,0,0,2.79,1.43,6.47,6.47,0,0,1,1.5.32c.68.26,5.84,3.34,6.59,3.59a8,8,0,0,0,1.67.31,15.22,15.22,0,0,1,2.34.11c.61.14,1.33.79,1.33,1.11.14,1.33-.65,2-.87,1.92s-.26-1.34-.84-1.39-1.41.35-1.92.35-1.06-.81-1.57-.87-3.55-.26-4.91-.56a31.05,31.05,0,0,1-4.92-2.26l2,1.5s3.94,2.58,5.51,3.9a18.06,18.06,0,0,0,3.26,2.05,16,16,0,0,1,2.72,1c.49.36.42,1.46.31,1.81a3.13,3.13,0,0,1-1.67,1.33.77.77,0,0,1-.77-.53c0-.43.3-.12,0-.8s-1.84-1.46-1.84-1.46a43.07,43.07,0,0,1-5.79-1.6,10.34,10.34,0,0,1-2.93-2.24c-.44-.41-6.52-4.25-6.52-4.25a6,6,0,0,1-.88,1.29,13,13,0,0,1-2.54,1.54,8.06,8.06,0,0,1,2.93,1.28,2.85,2.85,0,0,1,.66,2.2c-.06,1.07-1.67,3.8-1.67,3.8a20.25,20.25,0,0,1,3,2.87c1.76,1.25,5.29,4.05,6.55,4.81s5,2.34,5,2.34a.85.85,0,0,1,.63-.45c.43,0,1.47,1.08,1.47,1.08a21.72,21.72,0,0,0,2.44,1.15c.65.2,2.48.66,2.9.87s.25.79,0,1a18.78,18.78,0,0,1-2.86.77,43.1,43.1,0,0,0-4.36.73,7.23,7.23,0,0,1-2.23.77c-.79,0-1-.16-1.18-.48a6.75,6.75,0,0,1,0-1.68l-.38-1.39s0-.3-.67-.7-5.09-2.06-5.09-2.06a6,6,0,0,1-2.64-.75c-1.16-.69-3.7-3.81-4.36-4.22a6.88,6.88,0,0,0-2.44-.41l-1.67,2.54a1,1,0,0,1,.73.31,2.13,2.13,0,0,1,.07,1.12,11.33,11.33,0,0,0,1.92,1.22c.59.2,2.23.35,2.65.87.23,1.34-.45,1.53-1.22,1.64s-4.24-.14-4.88-.1-2.68.22-3.39.17a1.39,1.39,0,0,1-1.25-1c0-.4.56-.91.56-1.19A12.06,12.06,0,0,1,662,397c.1-.34,1.08-.7,1.08-.7L656.51,391s-4-1.46-4-4.33a5.89,5.89,0,0,1,.73-3.46" transform="translate(-652.22 -365.2)"/><path class="cls-5" d="M653.23,383.17c2.33-8,8.78-11.4,11.09-11.92,3.21-.53,5.51-1.95,6.28-1.95a11.87,11.87,0,0,0,2.23,0c1-.14,2.65-2.1,2.65-2.1a3.09,3.09,0,0,1,4-1.53c3,.87,2.76,4.46,2.58,5s-1.88,1.75-1.88,1.75a3.89,3.89,0,0,1-.73.38c-.2.05-.26,1-.42,1.19s-.48,0-.48,0a28.18,28.18,0,0,0,2.79,1.43,6.47,6.47,0,0,1,1.5.32c.68.26,5.84,3.34,6.59,3.59a8,8,0,0,0,1.67.31,15.22,15.22,0,0,1,2.34.11c.61.14,1.33.79,1.33,1.11.14,1.33-.65,2-.87,1.92s-.26-1.34-.84-1.39-1.41.35-1.92.35-1.06-.81-1.57-.87-3.55-.26-4.91-.56a31.05,31.05,0,0,1-4.92-2.26l2,1.5s3.94,2.58,5.51,3.9a18.06,18.06,0,0,0,3.26,2.05,16,16,0,0,1,2.72,1c.49.36.42,1.46.31,1.81a3.13,3.13,0,0,1-1.67,1.33.77.77,0,0,1-.77-.53c0-.43.3-.12,0-.8s-1.84-1.46-1.84-1.46a43.07,43.07,0,0,1-5.79-1.6,10.34,10.34,0,0,1-2.93-2.24c-.44-.41-6.52-4.25-6.52-4.25a6,6,0,0,1-.88,1.29,13,13,0,0,1-2.54,1.54,8.06,8.06,0,0,1,2.93,1.28,2.85,2.85,0,0,1,.66,2.2c-.06,1.07-1.67,3.8-1.67,3.8a20.25,20.25,0,0,1,3,2.87c1.76,1.25,5.29,4.05,6.55,4.81s5,2.34,5,2.34a.85.85,0,0,1,.63-.45c.43,0,1.47,1.08,1.47,1.08a21.72,21.72,0,0,0,2.44,1.15c.65.2,2.48.66,2.9.87s.25.79,0,1a18.78,18.78,0,0,1-2.86.77,43.1,43.1,0,0,0-4.36.73,7.23,7.23,0,0,1-2.23.77c-.79,0-1-.16-1.18-.48a6.75,6.75,0,0,1,0-1.68l-.38-1.39s0-.3-.67-.7-5.09-2.06-5.09-2.06a6,6,0,0,1-2.64-.75c-1.16-.69-3.7-3.81-4.36-4.22a6.88,6.88,0,0,0-2.44-.41l-1.67,2.54a1,1,0,0,1,.73.31,2.13,2.13,0,0,1,.07,1.12,11.33,11.33,0,0,0,1.92,1.22c.59.2,2.23.35,2.65.87.23,1.34-.45,1.53-1.22,1.64s-4.24-.14-4.88-.1-2.68.22-3.39.17a1.39,1.39,0,0,1-1.25-1c0-.4.56-.91.56-1.19A12.06,12.06,0,0,1,662,397c.1-.34,1.08-.7,1.08-.7L656.51,391s-4-1.46-4-4.33A5.89,5.89,0,0,1,653.23,383.17Z" transform="translate(-652.22 -365.2)"/><path class="cls-2" d="M653.23,383.17c2.33-8,8.78-11.4,11.09-11.92,3.21-.53,5.51-1.95,6.28-1.95a11.87,11.87,0,0,0,2.23,0c1-.14,2.65-2.1,2.65-2.1a3.09,3.09,0,0,1,4-1.53c3,.87,2.76,4.46,2.58,5s-1.88,1.75-1.88,1.75a3.89,3.89,0,0,1-.73.38c-.2.05-.26,1-.42,1.19s-.48,0-.48,0a28.18,28.18,0,0,0,2.79,1.43,6.47,6.47,0,0,1,1.5.32c.68.26,5.84,3.34,6.59,3.59a8,8,0,0,0,1.67.31,15.22,15.22,0,0,1,2.34.11c.61.14,1.33.79,1.33,1.11.14,1.33-.65,2-.87,1.92s-.26-1.34-.84-1.39-1.41.35-1.92.35-1.06-.81-1.57-.87-3.55-.26-4.91-.56a31.05,31.05,0,0,1-4.92-2.26l2,1.5s3.94,2.58,5.51,3.9a18.06,18.06,0,0,0,3.26,2.05,16,16,0,0,1,2.72,1c.49.36.42,1.46.31,1.81a3.13,3.13,0,0,1-1.67,1.33.77.77,0,0,1-.77-.53c0-.43.3-.12,0-.8s-1.84-1.46-1.84-1.46a43.07,43.07,0,0,1-5.79-1.6,10.34,10.34,0,0,1-2.93-2.24c-.44-.41-6.52-4.25-6.52-4.25a6,6,0,0,1-.88,1.29,13,13,0,0,1-2.54,1.54,8.06,8.06,0,0,1,2.93,1.28,2.85,2.85,0,0,1,.66,2.2c-.06,1.07-1.67,3.8-1.67,3.8a20.25,20.25,0,0,1,3,2.87c1.76,1.25,5.29,4.05,6.55,4.81s5,2.34,5,2.34a.85.85,0,0,1,.63-.45c.43,0,1.47,1.08,1.47,1.08a21.72,21.72,0,0,0,2.44,1.15c.65.2,2.48.66,2.9.87s.25.79,0,1a18.78,18.78,0,0,1-2.86.77,43.1,43.1,0,0,0-4.36.73,7.23,7.23,0,0,1-2.23.77c-.79,0-1-.16-1.18-.48a6.75,6.75,0,0,1,0-1.68l-.38-1.39s0-.3-.67-.7-5.09-2.06-5.09-2.06a6,6,0,0,1-2.64-.75c-1.16-.69-3.7-3.81-4.36-4.22a6.88,6.88,0,0,0-2.44-.41l-1.67,2.54a1,1,0,0,1,.73.31,2.13,2.13,0,0,1,.07,1.12,11.33,11.33,0,0,0,1.92,1.22c.59.2,2.23.35,2.65.87.23,1.34-.45,1.53-1.22,1.64s-4.24-.14-4.88-.1-2.68.22-3.39.17a1.39,1.39,0,0,1-1.25-1c0-.4.56-.91.56-1.19A12.06,12.06,0,0,1,662,397c.1-.34,1.08-.7,1.08-.7L656.51,391s-4-1.46-4-4.33a5.89,5.89,0,0,1,.73-3.46" transform="translate(-652.22 -365.2)"/></g><polygon class="cls-2" points="42.53 31.85 47.32 31.85 48.65 39.68 42.27 39.68 42.53 31.85"/><polygon class="cls-6" points="42.53 31.85 47.32 31.85 48.65 39.68 42.27 39.68 42.53 31.85"/></svg>