<svg id="Layer_1" data-name="Layer 1" xmlns="http://www.w3.org/2000/svg" viewBox="0 0 1000.79 419.07"><defs><style>.cls-1{fill:#e92331;}.cls-2{fill:#404243;}</style></defs><title>m2p_logo</title><path class="cls-1" d="M592.15,421.28,493.76,592.54H445.17L348,421.28V697H267.21V286.45h96.58L470.66,481.39,578.79,286.45h94.14V697H592.15Z" transform="translate(-267.21 -277.94)"/><path class="cls-2" d="M954.71,390.89q0,39.51-14.29,69.26t-41,57.69c-22,22.95-91.71,85.71-114.81,102.64H968.07V697H673.49V627.16c51.73-43.3,110-94.78,149.11-139.39q21.58-24.58,33.72-46.75a96.63,96.63,0,0,0,12.15-47.08c0-28.64-24.31-41.92-54.68-41.92-37.23,0-59.22,20.43-74.08,43.13L672.28,347.8c31.8-46.94,71-69.86,145.77-69.86C896.48,277.94,954.71,315.21,954.71,390.89Z" transform="translate(-267.21 -277.94)"/><path class="cls-1" d="M1268,424.3c0,101-45.67,145.77-148.19,145.77h-68V697H968V286.45h154.27C1216.82,286.45,1268,328.41,1268,424.3Zm-86.25.62c0-52.87-29.79-65.6-88.07-65.6h-41.89V497.2h34C1155.44,497.2,1181.75,490,1181.75,424.92Z" transform="translate(-267.21 -277.94)"/></svg>