<svg id="Layer_1" data-name="Layer 1" xmlns="http://www.w3.org/2000/svg" viewBox="0 0 206.48 169.69"><defs><style>.cls-1{fill:#404040;}</style></defs><title>medical_history</title><path class="cls-1" d="M592.64,461.52a6.11,6.11,0,0,1-6.22-6V369.5a6.11,6.11,0,0,1,6.22-6h89.3a27.88,27.88,0,0,0,19.91-8.31,20.22,20.22,0,0,1,14.44-6h35.57a6.11,6.11,0,0,1,6.22,6V455.32a13.09,13.09,0,0,0,1.54,6.2Zm33.59-149.38a6.1,6.1,0,0,1,6.21-6H732a6.1,6.1,0,0,1,6.21,6V342H716.29a27.84,27.84,0,0,0-19.9,8.31,20.22,20.22,0,0,1-14.45,6H626.23Zm145.53,15.54H753.85a3.59,3.59,0,1,0,0,7.17h17.91a6.11,6.11,0,0,1,6.22,6V455.55a5.85,5.85,0,0,1-1.9,4.3,6.28,6.28,0,0,1-4.3,1.67h-.25a6.26,6.26,0,0,1-6-6.2V355.17A13.44,13.44,0,0,0,751.86,342h-6.22V312.14c0-7.24-6.14-13.14-13.68-13.14H632.44c-7.54,0-13.68,5.9-13.68,13.14v15.54h-6.22c-7.54,0-13.68,5.9-13.68,13.14v8.61a3.73,3.73,0,0,0,7.46,0v-8.61a6.11,6.11,0,0,1,6.22-6h6.22v21.51H592.64c-7.54,0-13.68,5.9-13.68,13.14v86.05c0,7.24,6.14,13.14,13.68,13.14H771.77a13.9,13.9,0,0,0,9.49-3.68,12.78,12.78,0,0,0,4.18-9.46V340.82c0-7.24-6.14-13.14-13.68-13.14" transform="translate(-578.96 -299)"/><path class="cls-1" d="M642.4,320.51H722a3.59,3.59,0,1,0,0-7.17H642.4a3.59,3.59,0,1,0,0,7.17" transform="translate(-578.96 -299)"/><path class="cls-1" d="M642.4,334.85H722a3.59,3.59,0,1,0,0-7.17H642.4a3.59,3.59,0,1,0,0,7.17" transform="translate(-578.96 -299)"/><path class="cls-1" d="M687.18,345.6a3.67,3.67,0,0,0-3.74-3.58h-41a3.67,3.67,0,0,0-3.74,3.7,3.78,3.78,0,0,0,3.89,3.47h40.89a3.67,3.67,0,0,0,3.74-3.59" transform="translate(-578.96 -299)"/><path class="cls-1" d="M694.64,394.6h-3.73V391a11,11,0,0,0-11.2-10.76h-5A11,11,0,0,0,663.54,391v3.58h-3.73a11,11,0,0,0-11.2,10.75v4.79a11,11,0,0,0,11.2,10.75h3.73v3.59a11,11,0,0,0,11.2,10.75h5a3.59,3.59,0,1,0,0-7.17h-5a3.67,3.67,0,0,1-3.74-3.58v-7.17a3.66,3.66,0,0,0-3.73-3.59h-7.46a3.66,3.66,0,0,1-3.73-3.58v-4.79a3.66,3.66,0,0,1,3.73-3.58h7.46a3.66,3.66,0,0,0,3.73-3.58V391a3.67,3.67,0,0,1,3.74-3.59h5a3.66,3.66,0,0,1,3.73,3.59v7.17a3.66,3.66,0,0,0,3.74,3.58h7.46a3.66,3.66,0,0,1,3.73,3.58v4.79a3.66,3.66,0,0,1-3.73,3.58h-7.46a3.67,3.67,0,0,0-3.74,3.59v7.17a3.74,3.74,0,0,0,7.47,0v-3.59h3.73a11,11,0,0,0,11.19-10.75v-4.79a11,11,0,0,0-11.19-10.75" transform="translate(-578.96 -299)"/></svg>