<svg id="Layer_1" data-name="Layer 1" xmlns="http://www.w3.org/2000/svg" xmlns:xlink="http://www.w3.org/1999/xlink" viewBox="0 0 112.97 74.53"><defs><style>.cls-1{fill:none;}.cls-2{clip-path:url(#clip-path);}.cls-3{fill:#404040;}</style><clipPath id="clip-path" transform="translate(-627.04 -348.13)"><rect class="cls-1" x="627.04" y="328.87" width="112.97" height="112.97"/></clipPath></defs><title>medial_reach</title><g class="cls-2"><path class="cls-3" d="M700.62,363.81l-17.39,7.31-4.91-1L675,371.47v1.58l2.31.59L674,375l-1.86.08-1.31-3.84-5.4.28.53,3.82-.71,0-2.66-.63.65-.25v-1.78l-4.1-.93-3.62,1.28-28.26-6.72s-.55.72,0,1.22c.45.08,14.19,3.82,24.81,6.71l-1.18.42v1.82l4.12,1.1,3.9-1.46,5.4,1.46,1.95-.12.27,2,2.53-.14c.59,3.11,1.8,9.49,3.09,16.37l-7,.49.33,6.74,7.89-.56c1.84,9.83,3.52,18.87,3.52,19.2,1,1.77,2.23,1,2.54,0,0-.42-1.88-9.5-3.93-19.35l7.27-.49v-2.6l-1.26-4.1-7.43.54c-1.46-6.87-2.78-13.22-3.43-16.33l2.17-.13v-1.91l0-.13L675,377l5.48-2.53,3.7.94,3.25-1.68V372l-1.18-.26,14.38-6.63Z" transform="translate(-627.04 -348.13)"/><path class="cls-3" d="M739.6,372.47c-.53-.59-2.57-1.2-3.78-1.77s-5.91-4.06-7-4.81a.82.82,0,0,0-.27-.82c-.43-.46-2.35-.64-2.35-.64a15,15,0,0,0-5.12-1.15,11.72,11.72,0,0,0-6.51-2L703.3,353.9c-.51-.34-3.53-3.33-7.61-3.78s-5.13.38-9.13.68-5.22-1.28-6.86-1.95a9.62,9.62,0,0,0-5.36-.55,12.91,12.91,0,0,0-4.07,1.71s-1.9-2.56-6.31-1.71-4.33,6.48-4.32,6.79c.2,1.86.81,2.37,2,3.41a1.24,1.24,0,0,0,.85.34s.89,2.3,1.25,2.38.79-.4.79-.4l1.74.56s1.19.68,1.89-.14c.33-.37.84-1.66,1.12-1.95s1.22-1.13,1.22-1.13l.08,2.4a11.45,11.45,0,0,1-.23,2.11c-.12.9-.2,1.8-.23,2.71,0,1.18.55,6.22.59,6.68a10.9,10.9,0,0,1-.27,1.89c0,.2-.28.33-.53.34l-1.51.07a1.32,1.32,0,0,0-.57.33l-1.54.48s-1,.08-1.05.29.54.41.54.41l-.11.67a1.76,1.76,0,0,0,.31,1.16c.17.11.31-.11.31-.11v-.74l.55-.34.52-.11s-.06.39.19.42,1.59-.13,1.59-.13l.9-.14a5.48,5.48,0,0,0,1.95-.31,2.32,2.32,0,0,0,.79-1.65c.08-.66.14-1.63.18-2.12s.8-3.78.8-3.78a18.43,18.43,0,0,0,0,2.78,28.42,28.42,0,0,0,1,3.62,11,11,0,0,0-.3,2.5c0,1.36.88,4.22,1,5.64s.23,5.36.23,5.36a5.4,5.4,0,0,0-.75,2.05c0,.88.38,1.59.33,2s-.67,2.93-.67,2.93l1.17-.1s.17-.68.32-.68a1.94,1.94,0,0,0,0,.68l2-.16a3.69,3.69,0,0,0,.4-1.11c0-.35.11-1.11.11-1.11l.2-.23,0,1.23s-.06.69.09.84a.4.4,0,0,0,.56,0,.35.35,0,0,0,.12-.23c.12-.44.35-2.64.35-2.64a2.86,2.86,0,0,0,.18-1.23,8.3,8.3,0,0,0-.79-2l-.33-2.53c-.09-.65.46-2.19.3-4.36s-.45-3.74-.54-4.47a20.85,20.85,0,0,1,0-2.5,50.83,50.83,0,0,0,.79-5.63,46.59,46.59,0,0,0-.22-5.15,6.59,6.59,0,0,0,1.65.25c.76,0,1.84.1,3.87-1.86a22.58,22.58,0,0,0,6.91,0,1,1,0,0,1,.58.09c2.32,2,6.37,4.42,16.64,4.52a59.56,59.56,0,0,0,9,1.42c1.46.23,3.6.78,7.66,1.83a2.09,2.09,0,0,1,.25.85,3.9,3.9,0,0,1-.59.63l-.7.38a.28.28,0,0,0-.18.36v0c-.21.19.09.49.09.49a.78.78,0,0,0,.49.38,4.69,4.69,0,0,0,1.36-.63,4.12,4.12,0,0,0,1.26-.81,1.91,1.91,0,0,0,.21-1s4.21,1.37,5,2.09a3.59,3.59,0,0,1,1.21,1.49c.16.39.52,1.1.43,1.46a12.94,12.94,0,0,1-1.24,2.5c-.25.19-1.47.66-1.77,1.34s1,.65,1,.65a1.22,1.22,0,0,0,1,.26c.26.34,1,0,1,0a1.56,1.56,0,0,0,1.18-.08c.29.24.94,0,.94,0s.45,0,.69-.74c.66-.23,1.3-2.48,1.69-3.23a21.07,21.07,0,0,0,.92-2.44,3.26,3.26,0,0,0-.4-2" transform="translate(-627.04 -348.13)"/><path class="cls-3" d="M670.52,358.12l2.38.15.25,1.07c.09.39-1.07,1.16-.86,2.83s1.47,6.46,1.47,6.46" transform="translate(-627.04 -348.13)"/><path class="cls-3" d="M679.3,364.09a5.89,5.89,0,0,0,0-1.64,24,24,0,0,0,2.4-1.62" transform="translate(-627.04 -348.13)"/></g></svg>