<svg id="Layer_1" data-name="Layer 1" xmlns="http://www.w3.org/2000/svg" viewBox="0 0 328.19 208.42"><defs><style>.cls-1,.cls-3{fill:#414141;}.cls-2{fill:#eb5858;stroke:#fff;}.cls-2,.cls-3{stroke-miterlimit:10;}.cls-3{stroke:#fefefe;}</style></defs><title>movement_control</title><polygon class="cls-1" points="31.49 179.19 25.26 188.74 25.26 196.47 328.19 196.47 328.19 184.33 323.43 179.19 31.49 179.19"/><path class="cls-2" d="M523.13,375.7c12.31-42.22,46.27-60.05,58.4-62.78,16.89-2.76,29-10.28,33.05-10.28a62.33,62.33,0,0,0,11.75,0c5.32-.73,13.95-11,13.95-11s5.14-12.66,21-8.07,14.51,23.5,13.6,26.43-9.9,9.2-9.9,9.2a23.19,23.19,0,0,1-3.85,2c-1.09.26-1.38,5.17-2.2,6.25s-2.56.18-2.56.18q7.15,4.13,14.69,7.52a34.91,34.91,0,0,1,7.9,1.64c3.59,1.38,30.76,17.63,34.69,18.92a44.11,44.11,0,0,0,8.82,1.65,81.72,81.72,0,0,1,12.31.56c3.2.73,7,4.14,7,5.87.73,7-3.41,10.37-4.59,10.11s-1.38-7.08-4.4-7.35-7.43,1.85-10.11,1.85-5.61-4.29-8.25-4.58-18.71-1.38-25.88-2.94S662.61,349,662.61,349l10.46,7.9s20.74,13.6,29,20.56a94.77,94.77,0,0,0,17.13,10.75c3.14,1.18,11.75,3.41,14.33,5.32s2.2,7.73,1.65,9.55-6.44,7.08-8.82,7a4,4,0,0,1-4-2.76c-.18-2.29,1.56-.65,0-4.23s-9.72-7.7-9.72-7.7-22.59-4.76-30.47-8.43a54.43,54.43,0,0,1-15.42-11.75c-2.29-2.2-34.34-22.39-34.34-22.39a32.12,32.12,0,0,1-4.58,6.79c-2.68,2.94-13.4,8.08-13.4,8.08s12,2.94,15.42,6.78a15,15,0,0,1,3.5,11.58c-.35,5.61-8.81,20-8.81,20s13,10.2,16,15.07c9.28,6.61,27.85,21.36,34.51,25.35s26.09,12.31,26.09,12.31a4.4,4.4,0,0,1,3.32-2.38c2.26-.17,7.73,5.7,7.73,5.7A119.55,119.55,0,0,0,725,468.11c3.44,1,13,3.5,15.25,4.59s1.35,4.17.17,5.31-15,4.06-15,4.06a220,220,0,0,0-22.94,3.85c-4.61,1.58-7.58,4.05-11.75,4.05s-5.49-.85-6.23-2.56a33.33,33.33,0,0,1,.18-8.81l-2-7.34s-.23-1.59-3.49-3.67-26.79-10.84-26.79-10.84a31.94,31.94,0,0,1-13.93-3.94c-6.11-3.67-19.44-20.06-22.94-22.21s-12.84-2.2-12.84-2.2l-8.81,13.39a5.17,5.17,0,0,1,3.85,1.65,11.27,11.27,0,0,1,.38,5.87,56.77,56.77,0,0,0,10.11,6.44c3.11,1,11.75,1.85,14,4.58,1.17,7.05-2.38,8-6.43,8.64s-22.3-.74-25.71-.56-14.07,1.17-17.8.91a7.29,7.29,0,0,1-6.61-5.5c-.18-2.08,2.94-4.75,2.94-6.22a67.54,67.54,0,0,1,.73-9c.56-1.76,5.7-3.67,5.7-3.67l-34.52-28.26s-21.12-7.7-21.12-22.77S523,377.9,523.13,375.7Z" transform="translate(-518.81 -282.05)"/><path class="cls-1" d="M523.13,375.7c12.31-42.22,46.27-60.05,58.4-62.78,16.89-2.76,29-10.28,33.05-10.28a62.33,62.33,0,0,0,11.75,0c5.32-.73,13.95-11,13.95-11s5.14-12.66,21-8.07,14.51,23.5,13.6,26.43-9.9,9.2-9.9,9.2a23.19,23.19,0,0,1-3.85,2c-1.09.26-1.38,5.17-2.2,6.25s-2.56.18-2.56.18q7.15,4.13,14.69,7.52a34.91,34.91,0,0,1,7.9,1.64c3.59,1.38,30.76,17.63,34.69,18.92a44.11,44.11,0,0,0,8.82,1.65,81.72,81.72,0,0,1,12.31.56c3.2.73,7,4.14,7,5.87.73,7-3.41,10.37-4.59,10.11s-1.38-7.08-4.4-7.35-7.43,1.85-10.11,1.85-5.61-4.29-8.25-4.58-18.71-1.38-25.88-2.94S662.61,349,662.61,349l10.46,7.9s20.74,13.6,29,20.56a94.77,94.77,0,0,0,17.13,10.75c3.14,1.18,11.75,3.41,14.33,5.32s2.2,7.73,1.65,9.55-6.44,7.08-8.82,7a4,4,0,0,1-4-2.76c-.18-2.29,1.56-.65,0-4.23s-9.72-7.7-9.72-7.7-22.59-4.76-30.47-8.43a54.43,54.43,0,0,1-15.42-11.75c-2.29-2.2-34.34-22.39-34.34-22.39a32.12,32.12,0,0,1-4.58,6.79c-2.68,2.94-13.4,8.08-13.4,8.08s12,2.94,15.42,6.78a15,15,0,0,1,3.5,11.58c-.35,5.61-8.81,20-8.81,20s13,10.2,16,15.07c9.28,6.61,27.85,21.36,34.51,25.35s26.09,12.31,26.09,12.31a4.4,4.4,0,0,1,3.32-2.38c2.26-.17,7.73,5.7,7.73,5.7A119.55,119.55,0,0,0,725,468.11c3.44,1,13,3.5,15.25,4.59s1.35,4.17.17,5.31-15,4.06-15,4.06a220,220,0,0,0-22.94,3.85c-4.61,1.58-7.58,4.05-11.75,4.05s-5.49-.85-6.23-2.56a33.33,33.33,0,0,1,.18-8.81l-2-7.34s-.23-1.59-3.49-3.67-26.79-10.84-26.79-10.84a31.94,31.94,0,0,1-13.93-3.94c-6.11-3.67-19.44-20.06-22.94-22.21s-12.84-2.2-12.84-2.2l-8.81,13.39a5.17,5.17,0,0,1,3.85,1.65,11.27,11.27,0,0,1,.38,5.87,56.77,56.77,0,0,0,10.11,6.44c3.11,1,11.75,1.85,14,4.58,1.17,7.05-2.38,8-6.43,8.64s-22.3-.74-25.71-.56-14.07,1.17-17.8.91a7.29,7.29,0,0,1-6.61-5.5c-.18-2.08,2.94-4.75,2.94-6.22a67.54,67.54,0,0,1,.73-9c.56-1.76,5.7-3.67,5.7-3.67l-34.52-28.26s-21.12-7.7-21.12-22.77S523,377.9,523.13,375.7Z" transform="translate(-518.81 -282.05)"/><polygon class="cls-3" points="222.9 166.71 248.14 166.71 255.13 207.92 221.52 207.92 222.9 166.71"/></svg>