<svg id="Layer_1" data-name="Layer 1" xmlns="http://www.w3.org/2000/svg" xmlns:xlink="http://www.w3.org/1999/xlink" viewBox="0 0 86.97 86.7"><defs><style>.cls-1{fill:none;}.cls-2{clip-path:url(#clip-path);}.cls-3{fill:#404041;}</style><clipPath id="clip-path" transform="translate(-637.03 -338.75)"><rect id="SVGID" class="cls-1" x="637.14" y="338.75" width="93.04" height="93.04"/></clipPath></defs><title>movement_screen</title><g class="cls-2"><path class="cls-3" d="M714.13,343.64c.08.52-.06.9.07,1.5.27,1.27-1,2.42-1.67,3.3a17.89,17.89,0,0,1-2.38,2.95c-.58.48-1.28.87-1.9,1.38s-1.27.88-1.91,1.32a15,15,0,0,0-3.41,3.11,20.75,20.75,0,0,1-3.59,2.93c-.63.49-1.14,1-1.74,1.56a8.44,8.44,0,0,1-1.73,1.5,11.81,11.81,0,0,1-1.44.28,12.2,12.2,0,0,0-5.13,2.41c-.68.66-1.49,1.86-2.89,1.73a2.76,2.76,0,0,1-1.26-.65c0-.5-.14-.8,0-1.21s1-.69,1.27-1.33a4.8,4.8,0,0,0,.42-2.43c0-.44-.28-.83-.34-1.34-.17-1.47.26-3.2-.1-4.51-.61-2.2-3.06-3.52-5.5-3.72v0h-.76v0c-2.44.2-4.89,1.52-5.5,3.72-.37,1.31.06,3-.1,4.51-.06.51-.31.9-.34,1.34a4.79,4.79,0,0,0,.41,2.43c.3.64,1.11.85,1.28,1.33s0,.71,0,1.21a2.76,2.76,0,0,1-1.26.65c-1.4.13-2.21-1.07-2.9-1.73a12.15,12.15,0,0,0-5.13-2.41,11.65,11.65,0,0,1-1.43-.28,8.74,8.74,0,0,1-1.74-1.5c-.6-.55-1.1-1.07-1.74-1.56a21,21,0,0,1-3.58-2.93,15,15,0,0,0-3.42-3.11c-.64-.44-1.29-.83-1.9-1.32s-1.32-.9-1.91-1.38a18.39,18.39,0,0,1-2.37-2.95c-.67-.88-1.94-2-1.68-3.3a13.36,13.36,0,0,0,.07-1.5,2.76,2.76,0,0,1,.47-1h66.3a2.73,2.73,0,0,1,.46,1m8.5-3.72H720a2.84,2.84,0,0,0-1.77-1.15c-.88-.11-2.1.37-2.48.1s-.86,0-1.18,0c-.56,0-.65.62-.88,1H647.35c-.22-.39-.31-1-.87-1-.33,0-.83-.28-1.18,0s-1.6-.21-2.48-.1a2.84,2.84,0,0,0-1.77,1.15H638.4a1.38,1.38,0,0,0,0,2.76h2.26c.05.18.12.43.25.81.27.79,1.22,2.5,1.55,3.24.21.49.36,1,.58,1.45.44.93,1,1.8,1.44,2.65a36.84,36.84,0,0,0,4.88,7.39c.65.7,1.41,1.32,2,2.08a25,25,0,0,0,2,2.13,20.18,20.18,0,0,1,2,2c.39.5.64,1,1,1.51a22.27,22.27,0,0,0,3.7,3.69,13.35,13.35,0,0,0,6.63,3.15,29.48,29.48,0,0,0,2.11,6.42,12.57,12.57,0,0,1,.82,2c.09.39,0,.82.12,1.22a24.53,24.53,0,0,0,.65,3.36c.27.78.74,1.46,1,2.24l0,.09c.19.68,1,1.81.9,2.6-.38-.06-1.63-.81-2.12-1s-1.12-.47-1.8-.69c-.5-.14-1.8-.48-2.56-.6-2-.31-2.68.27-4.06,1.19s-1.88,2.49-1.74,4.85a45.93,45.93,0,0,0,.65,6.2,18.66,18.66,0,0,0,1.49,4.11c1.19,2.54,2.51,5,3.83,7.26a13.81,13.81,0,0,1,.76,2.56c0,.23.13.73.15,1a2.91,2.91,0,0,1,0,.78,4.4,4.4,0,0,1-.18,1.76c-.62,1.2-1.06,1.84-1.57,2.95-.27.57-.63,1.05-.79,1.5a4.09,4.09,0,0,0-.27,1.73c.15.59,1.08.81,1.77.94,2,.38,4.41.46,4.45-2,.41-1.67,1.6-1.1,1.65-2.51a9.89,9.89,0,0,0-.26-1.63c-.13-.72-.18-1.28-.28-2s-.65-1.12-.73-1.75c-.2-1.56-.77-3.62-.38-5.32,2.32-5.09-1.56-9.4-1.05-9.14s2.39,4,6,4.67a35.49,35.49,0,0,0,3.74.28c.63,0,1,0,1.49,0s.86,0,1.49,0a35.69,35.69,0,0,0,3.74-.28c3.62-.7,5.55-4.45,6-4.67s-3.37,4.05-1,9.14c.38,1.7-.18,3.76-.38,5.32-.09.63-.66,1.12-.74,1.75s-.15,1.28-.28,2a11.06,11.06,0,0,0-.25,1.63c.05,1.41,1.23.84,1.65,2.51,0,2.48,2.46,2.4,4.45,2,.68-.13,1.62-.35,1.76-.94a3.93,3.93,0,0,0-.26-1.73c-.16-.45-.53-.93-.79-1.5-.52-1.11-1-1.75-1.58-2.95a4.79,4.79,0,0,1-.18-1.76,3.39,3.39,0,0,1,0-.78c0-.28.13-.78.15-1A13.85,13.85,0,0,1,695,412c1.31-2.25,2.63-4.72,3.82-7.26a17.7,17.7,0,0,0,1.49-4.11,42.91,42.91,0,0,0,.65-6.2c.15-2.36-.42-4-1.73-4.85s-2-1.5-4.06-1.19c-.76.12-2.06.46-2.56.6-.68.22-1.3.5-1.81.69s-1.73.92-2.11,1c-.15-.79.71-1.92.9-2.6l0-.09c.24-.78.72-1.46,1-2.24a24.53,24.53,0,0,0,.65-3.36c.07-.4,0-.83.12-1.22a13.54,13.54,0,0,1,.81-2,28.45,28.45,0,0,0,2.11-6.42,13.34,13.34,0,0,0,6.64-3.15,22.59,22.59,0,0,0,3.69-3.69c.36-.47.6-1,1-1.51a20.28,20.28,0,0,1,2-2,23.33,23.33,0,0,0,2-2.13c.61-.76,1.38-1.38,2-2.08a36.81,36.81,0,0,0,4.87-7.39c.46-.85,1-1.72,1.45-2.65.21-.45.36-1,.58-1.45.33-.74,1.27-2.45,1.54-3.24.13-.38.21-.63.25-.81h2.26a1.38,1.38,0,0,0,0-2.76" transform="translate(-637.03 -338.75)"/></g></svg>