<svg id="Layer_1" data-name="Layer 1" xmlns="http://www.w3.org/2000/svg" xmlns:xlink="http://www.w3.org/1999/xlink" viewBox="0 0 89.55 112.97"><defs><style>.cls-1{fill:none;}.cls-2{clip-path:url(#clip-path);}.cls-3{fill:#404040;}</style><clipPath id="clip-path" transform="translate(-638.75 -328.98)"><rect class="cls-1" x="627.04" y="328.98" width="112.97" height="112.97"/></clipPath></defs><title>posteromedial_reach</title><g class="cls-2"><path class="cls-3" d="M728.18,439.94,705.5,413.8l5.89-.89V410.4l-3.45-3.68-7.63,1.1-6.47-7.42,1.31-.13v-2.4l16.56-13.67,4.75.73,2-1.5v-1.9l-3-.45,3.45-2.85c.41-1.3-1.09-1.3-1.09-1.3L713,380.7l-5-.77-1.85,1.45v1.95l2.93.46-14.45,11.27-1.71.16-4.35-5-6.65.8v1.8l2.47,3.16-1.37.14-10.41-2,1.1-.65-.19-2.1L668,390.26l-4.1,2.27c-11.75-2.23-24.61-4.67-24.88-4.67a1.19,1.19,0,0,0,0,1.6l22.08,4.63-1,.56v2.15L666,398l3.66-2.15,13.8,2.89,2.83-.22,1.87,2.4,3.07-.3,6.35,7.55-5.16.73v2.67l2.72,3.75,7.53-1.15c10.21,12.08,23.13,27.37,23.41,27.64.4.46,2.76-.69,2.1-1.91" transform="translate(-638.75 -328.98)"/><path class="cls-3" d="M664.15,357.55s8.3-14.1,10.65-15.9a30.6,30.6,0,0,1,6.15-3.3s-1.85-7.75,4.35-9.3c6.55-.95,7.2,8.75,7.2,9.3,7.76,3,7.8,7.2,7.8,7.2s.41,1.85,1.8,6.3a41.47,41.47,0,0,1,1.43,10.28,2.19,2.19,0,0,1-1.57,2.55c2.85,3.08,4.06,10.36,4.2,10.58a2.11,2.11,0,0,1,.9,1.35,14.78,14.78,0,0,0,2,2.55c.31.66.08,1-.15,1.1a.61.61,0,0,1-.3.6s.6.88.12,1.1a.58.58,0,0,1,.33.6c0,.3-.55.54-.65.4-.16.28-.77.42-1,.17a8.38,8.38,0,0,1-.93-1.12,17.57,17.57,0,0,1-1.2-1.95c-.6-1.14-1.59-3.4-1.67-3.7a4.67,4.67,0,0,0-.3-1,21.4,21.4,0,0,0-2-2c-1-.85-4.2-4.63-4.2-4.63a8.73,8.73,0,0,1-1.37-.68l-2.23.77c1.45,5.9-.26,7.75-.6,9.43a24.41,24.41,0,0,1-1.15,5.48c-.27.79-1.2,3.17-1.25,3.65a18,18,0,0,0,.48,3.35c.13.45.7,2.57.87,2.9s1.33.79,1.55,1.2-.22.72-.2,1c.53,1.9-1.1,1.4-1.1,1.4s-.77.34-1.09,0A1.67,1.67,0,0,1,690,397s-.75.12-1-.3a1.62,1.62,0,0,1-1.24-.45,3.14,3.14,0,0,1-.8-1.76,6,6,0,0,1,.1-1,6.43,6.43,0,0,0,.3-1.8,6.3,6.3,0,0,1-.47-1.47c0-.48.36-1.3.3-1.65-.05-1.7-2-7.61-1.68-9.5a13.13,13.13,0,0,1,1.55-3.85c.15-1.4-1.3-4.06-1.3-4.06A26.18,26.18,0,0,1,682,372.6c-1.48,1.35-2,.19-2,.19s-.72,0-.82-.52a.79.79,0,0,1-.55-.5s-.37-.4-.22-.72c-.45-.7-.53-1.57-.18-1.85l1.31-1s-1-1.2-.48-1.62,1,1.11,1.8.95,1.85-.33,2.15-.43c-.6-1.5-7.25-8.25-6.88-15.3a7.63,7.63,0,0,1,.6-2.4,1.22,1.22,0,0,0-.79.15c-1,2.07-7.2,9.6-7.2,10.07.6,1.43,1.2,6.6,3.4,9.5,1.1,0,2.72-.42,3.27-.2a23.27,23.27,0,0,1,2.75,2.28s.6.72.05.8a3.93,3.93,0,0,1-1.67-.65s2.29,2.85,1.15,3.38c.68,1.38-.52,1.1-.52,1.1s-.11.88-1.16.1c-.82.48-3.15-1.2-3.75-1.35a5.13,5.13,0,0,1-2.62-2.17,27.44,27.44,0,0,1-1.52-2.53,61.49,61.49,0,0,1-4.2-9,3.79,3.79,0,0,1,.22-3.3" transform="translate(-638.75 -328.98)"/><path class="cls-3" d="M664.15,357.55s8.3-14.1,10.65-15.9a30.6,30.6,0,0,1,6.15-3.3s-1.85-7.75,4.35-9.3c6.55-.95,7.2,8.75,7.2,9.3,7.76,3,7.8,7.2,7.8,7.2s.41,1.85,1.8,6.3a41.47,41.47,0,0,1,1.43,10.28,2.19,2.19,0,0,1-1.57,2.55c2.85,3.08,4.06,10.36,4.2,10.58a2.11,2.11,0,0,1,.9,1.35,14.78,14.78,0,0,0,2,2.55c.31.66.08,1-.15,1.1a.61.61,0,0,1-.3.6s.6.88.12,1.1a.58.58,0,0,1,.33.6c0,.3-.55.54-.65.4-.16.28-.77.42-1,.17a8.38,8.38,0,0,1-.93-1.12,17.57,17.57,0,0,1-1.2-1.95c-.6-1.14-1.59-3.4-1.67-3.7a4.67,4.67,0,0,0-.3-1,21.4,21.4,0,0,0-2-2c-1-.85-4.2-4.63-4.2-4.63a8.73,8.73,0,0,1-1.37-.68l-2.23.77c1.45,5.9-.26,7.75-.6,9.43a24.41,24.41,0,0,1-1.15,5.48c-.27.79-1.2,3.17-1.25,3.65a18,18,0,0,0,.48,3.35c.13.45.7,2.57.87,2.9s1.33.79,1.55,1.2-.22.72-.2,1c.53,1.9-1.1,1.4-1.1,1.4s-.77.34-1.09,0A1.67,1.67,0,0,1,690,397s-.75.12-1-.3a1.62,1.62,0,0,1-1.24-.45,3.14,3.14,0,0,1-.8-1.76,6,6,0,0,1,.1-1,6.43,6.43,0,0,0,.3-1.8,6.3,6.3,0,0,1-.47-1.47c0-.48.36-1.3.3-1.65-.05-1.7-2-7.61-1.68-9.5a13.13,13.13,0,0,1,1.55-3.85c.15-1.4-1.3-4.06-1.3-4.06A26.18,26.18,0,0,1,682,372.6c-1.48,1.35-2,.19-2,.19s-.72,0-.82-.52a.79.79,0,0,1-.55-.5s-.37-.4-.22-.72c-.45-.7-.53-1.57-.18-1.85l1.31-1s-1-1.2-.48-1.62,1,1.11,1.8.95,1.85-.33,2.15-.43c-.6-1.5-7.25-8.25-6.88-15.3a7.63,7.63,0,0,1,.6-2.4,1.22,1.22,0,0,0-.79.15c-1,2.07-7.2,9.6-7.2,10.07.6,1.43,1.2,6.6,3.4,9.5,1.1,0,2.72-.42,3.27-.2a23.27,23.27,0,0,1,2.75,2.28s.6.72.05.8a3.93,3.93,0,0,1-1.67-.65s2.29,2.85,1.15,3.38c.68,1.38-.52,1.1-.52,1.1s-.11.88-1.16.1c-.82.48-3.15-1.2-3.75-1.35a5.13,5.13,0,0,1-2.62-2.17,27.44,27.44,0,0,1-1.52-2.53,61.49,61.49,0,0,1-4.2-9,3.79,3.79,0,0,1,.22-3.3" transform="translate(-638.75 -328.98)"/><path class="cls-3" d="M690.1,361.5c-.45-.49,2.22,2.88,2.22,2.88l-.79.34a19.53,19.53,0,0,0-1.43-3.22" transform="translate(-638.75 -328.98)"/><path class="cls-3" d="M695.78,349.49c0,5.52,2.26,9.83,2.21,10.66-.33.6-3.66,3-5.66,4.23a4.28,4.28,0,0,1-.79.34c-2.22,1-6.31,2.75-8.57,2.31" transform="translate(-638.75 -328.98)"/><path class="cls-3" d="M685.75,371.11c2-1.17,7.8-2.32,7.8-2.32" transform="translate(-638.75 -328.98)"/><path class="cls-3" d="M695.78,368s5.18-1.8,6.17-3.32" transform="translate(-638.75 -328.98)"/></g></svg>