<svg id="Layer_1" data-name="Layer 1" xmlns="http://www.w3.org/2000/svg" xmlns:xlink="http://www.w3.org/1999/xlink" viewBox="0 0 93.75 112.97"><defs><style>.cls-1{fill:none;}.cls-2{clip-path:url(#clip-path);}.cls-3{fill:#404040;}</style><clipPath id="clip-path" transform="translate(-636.68 -328.36)"><rect class="cls-1" x="627.07" y="328.36" width="112.97" height="112.97"/></clipPath></defs><title>posterolateral_reach</title><g class="cls-2"><path class="cls-3" d="M730,438.83l-18.86-17.64,5.59-1.08v-2.78l-4.44-3.66-7.66,1.46-8.77-8.22,1.27-.21v-2.27l-.94-.87,4.14-4.64,6,1,1.78-2.31v-2l-4.14-.64,10.8-12-.87-.86-12.34,12.54-5.56-.86-2.29,2.24v2l3.93.63-3.25,3.3h-.07l-6-5.63-6.7,1v2l3.25,3.32-1.37.1-32.16-5.79,1.35-.83v-1.8l-5.52-1.1-4,2.27-6.44-1.16v1.93l3.83.74-1.16.66v2l5.79,1,3.47-2.14,35.86,6.88,2.66-.38,2.82,2.9,3.35-.55,8.69,8.29-4.89.92v2.54l3.77,4.15,7.59-1.48c9.48,9.05,19.75,18.87,20.33,19.43.74.7,2.48-1,1.16-2.34" transform="translate(-636.68 -328.36)"/><path class="cls-3" d="M671.41,375c1.84-1.54,6-9.91,6-9.91s-4-6.34-.32-11.55S688,346.77,688,346.77s1.66-5.46,4.45-7.45c1.81-.9,4.56-2.06,5.93-2.06h2.47s.72-8.9,7.12-8.9c7.21.18,6,8.54,5.79,9.48A9.26,9.26,0,0,1,712,341l-.76.61-.07.47a15.85,15.85,0,0,1,6,5.76c.9,1.44,1.63,1.88,3.07,3.8a50.82,50.82,0,0,1,3.44,5.82,7.4,7.4,0,0,1,1,3.55c0,2-.91,10.17-.91,10.17s-.09,1.45-.14,2.06a2.22,2.22,0,0,1-.4,1.05s-.09,2.66-.18,3.47-.16,2-.61,2.46a3.76,3.76,0,0,1-1.42.69l-1.91.91a.56.56,0,0,1-.44,0s-.58.63-.83.18c-.36.16-.34.12-.45-.1s.22-.75.22-.75,1.73-2.36,1.52-4.06c-.27,0-.43.51-.43.51a7.33,7.33,0,0,1-.68,1.19,2,2,0,0,1-1.1.64c-.29.07-.44,0-.45-.22s1-1.59,1.12-1.92a6.83,6.83,0,0,1,.58-1.7c.29-.39,1.41-1.8,1.7-2.2a7.65,7.65,0,0,0,.8-4.22c-.07-1.32-.43-8-.47-8.52a1.68,1.68,0,0,0-.36-1.16c-.28-.35-6.29-7.08-6.53-8l-1.32-1.63s-2.86,1.16-3.47,1.29c-.78.74-2.32,4.45-2.57,4.88-1.74,2.4-5.22,2-5.47,2-.55,1-3.59,2-3.59,2s-5.66,2.41-5.46,3.87c.29,1,2.53,6.5,2.82,7.24a5.22,5.22,0,0,0,1,1.45,35.55,35.55,0,0,1,3.18,1.59,4.3,4.3,0,0,1,1,1.19,14.3,14.3,0,0,1,1.48,2.18,1.68,1.68,0,0,1-.31,1.15.81.81,0,0,1-.58.16,1,1,0,0,1-.23.74,1.3,1.3,0,0,1-.76.25,2.5,2.5,0,0,1-.53.39c-.25.1-.42-.23-.42-.23a.92.92,0,0,1-.17.36c-.14.15-.36.11-.58.05a10.39,10.39,0,0,1-1.38-1.51l-.24-.08a4.41,4.41,0,0,1,0,1.62,21.23,21.23,0,0,1-1.57,4.37c-.17.54-.79,2.58-1.11,3.47s-1.16,2.95-1.5,4.06a11.75,11.75,0,0,0-.36,2.65s.13,1.42.29,2.17a15.18,15.18,0,0,0,1.35,2.63,12.51,12.51,0,0,1,1.55,1.16,1.51,1.51,0,0,1,.07.84s.35,1.29.2,1.55-1,.24-1,.24a1.56,1.56,0,0,1-1.16.1,1.84,1.84,0,0,1-1.28-.17s-.89.05-1-.33a1.66,1.66,0,0,1-1.45-.46,8.23,8.23,0,0,1-1-1.47,12.72,12.72,0,0,1-.14-1.37c-.07-.29-.43-.44-.41-.94a5.5,5.5,0,0,1,.38-1.43,1.4,1.4,0,0,1-.32-1,4.35,4.35,0,0,1,.43-1.41s-.42-3.05-.72-4.58c-1-4.3-.52-5.66-.19-6.64a23.66,23.66,0,0,1,1.64-3.16,18.53,18.53,0,0,0-4.22-6.44s-6.37,4.88-7.53,5.55A16.56,16.56,0,0,1,673.1,381l-8.69,5.64-3.62,3-4.44,3.47-1.88,1.57a8.67,8.67,0,0,1-1.91,1.35c-.54.13-.7-.14-.7-.39,0-.64,1.06-1.78,1.06-1.78a23.42,23.42,0,0,0,2.48-3.48c.22-.74.61-4.05,1.41-4.7a1.92,1.92,0,0,1,1.88-.17,4.17,4.17,0,0,0,1.25-.31c.39-.23,4.64-5.21,4.64-5.21a6.32,6.32,0,0,1,1.57-2.32,17,17,0,0,1,5.26-2.68" transform="translate(-636.68 -328.36)"/><path class="cls-3" d="M671.41,375c1.84-1.54,6-9.91,6-9.91s-4-6.34-.32-11.55S688,346.77,688,346.77s1.66-5.46,4.45-7.45c1.81-.9,4.56-2.06,5.93-2.06h2.47s.72-8.9,7.12-8.9c7.21.18,6,8.54,5.79,9.48A9.26,9.26,0,0,1,712,341l-.76.61-.07.47a15.85,15.85,0,0,1,6,5.76c.9,1.44,1.63,1.88,3.07,3.8a50.82,50.82,0,0,1,3.44,5.82,7.4,7.4,0,0,1,1,3.55c0,2-.91,10.17-.91,10.17s-.09,1.45-.14,2.06a2.22,2.22,0,0,1-.4,1.05s-.09,2.66-.18,3.47-.16,2-.61,2.46a3.76,3.76,0,0,1-1.42.69l-1.91.91a.56.56,0,0,1-.44,0s-.58.63-.83.18c-.36.16-.34.12-.45-.1s.22-.75.22-.75,1.73-2.36,1.52-4.06c-.27,0-.43.51-.43.51a7.33,7.33,0,0,1-.68,1.19,2,2,0,0,1-1.1.64c-.29.07-.44,0-.45-.22s1-1.59,1.12-1.92a6.83,6.83,0,0,1,.58-1.7c.29-.39,1.41-1.8,1.7-2.2a7.65,7.65,0,0,0,.8-4.22c-.07-1.32-.43-8-.47-8.52a1.68,1.68,0,0,0-.36-1.16c-.28-.35-6.29-7.08-6.53-8l-1.32-1.63s-2.86,1.16-3.47,1.29c-.78.74-2.32,4.45-2.57,4.88-1.74,2.4-5.22,2-5.47,2-.55,1-3.59,2-3.59,2s-5.66,2.41-5.46,3.87c.29,1,2.53,6.5,2.82,7.24a5.22,5.22,0,0,0,1,1.45,35.55,35.55,0,0,1,3.18,1.59,4.3,4.3,0,0,1,1,1.19,14.3,14.3,0,0,1,1.48,2.18,1.68,1.68,0,0,1-.31,1.15.81.81,0,0,1-.58.16,1,1,0,0,1-.23.74,1.3,1.3,0,0,1-.76.25,2.5,2.5,0,0,1-.53.39c-.25.1-.42-.23-.42-.23a.92.92,0,0,1-.17.36c-.14.15-.36.11-.58.05a10.39,10.39,0,0,1-1.38-1.51l-.24-.08a4.41,4.41,0,0,1,0,1.62,21.23,21.23,0,0,1-1.57,4.37c-.17.54-.79,2.58-1.11,3.47s-1.16,2.95-1.5,4.06a11.75,11.75,0,0,0-.36,2.65s.13,1.42.29,2.17a15.18,15.18,0,0,0,1.35,2.63,12.51,12.51,0,0,1,1.55,1.16,1.51,1.51,0,0,1,.07.84s.35,1.29.2,1.55-1,.24-1,.24a1.56,1.56,0,0,1-1.16.1,1.84,1.84,0,0,1-1.28-.17s-.89.05-1-.33a1.66,1.66,0,0,1-1.45-.46,8.23,8.23,0,0,1-1-1.47,12.72,12.72,0,0,1-.14-1.37c-.07-.29-.43-.44-.41-.94a5.5,5.5,0,0,1,.38-1.43,1.4,1.4,0,0,1-.32-1,4.35,4.35,0,0,1,.43-1.41s-.42-3.05-.72-4.58c-1-4.3-.52-5.66-.19-6.64a23.66,23.66,0,0,1,1.64-3.16,18.53,18.53,0,0,0-4.22-6.44s-6.37,4.88-7.53,5.55A16.56,16.56,0,0,1,673.1,381l-8.69,5.64-3.62,3-4.44,3.47-1.88,1.57a8.67,8.67,0,0,1-1.91,1.35c-.54.13-.7-.14-.7-.39,0-.64,1.06-1.78,1.06-1.78a23.42,23.42,0,0,0,2.48-3.48c.22-.74.61-4.05,1.41-4.7a1.92,1.92,0,0,1,1.88-.17,4.17,4.17,0,0,0,1.25-.31c.39-.23,4.64-5.21,4.64-5.21a6.32,6.32,0,0,1,1.57-2.32,17,17,0,0,1,5.26-2.68" transform="translate(-636.68 -328.36)"/><path class="cls-3" d="M695.66,346.81s-.43,1.52-1.23,1.81a47.67,47.67,0,0,1-4.78,10.23l1.7,5" transform="translate(-636.68 -328.36)"/><path class="cls-3" d="M688,346.77c-1.42,2.93-2.79,9.44-3.3,11.83a2.31,2.31,0,0,0,.51,2.46s2.22,6.37,3.07,7.61,4.68,6.44,4.89,6.88a16,16,0,0,0,1,1.95,6,6,0,0,0,1.49,1.3" transform="translate(-636.68 -328.36)"/><path class="cls-3" d="M700.8,337.25s0,6.52,3.57,8.25c1.61.87,6.06-2.31,6.78-3.39" transform="translate(-636.68 -328.36)"/><path class="cls-3" d="M677.42,365.05s4.46,7.14,6.75,9.22" transform="translate(-636.68 -328.36)"/></g></svg>