<svg id="Layer_1" data-name="Layer 1" xmlns="http://www.w3.org/2000/svg" viewBox="0 0 90.77 290.25"><defs><style>.cls-1,.cls-3,.cls-4{fill:#414141;}.cls-2{fill:#eb5858;stroke:#fff;}.cls-2,.cls-3,.cls-4{stroke-miterlimit:10;}.cls-3,.cls-4{stroke:#fefefe;}.cls-3{stroke-width:0.75px;}.cls-4{stroke-width:0.5px;}</style></defs><title>postural_control</title><path class="cls-1" d="M646.59,408.85a76.91,76.91,0,0,1,33.29-9.94,81.83,81.83,0,0,1,32.63,4.89,18.82,18.82,0,0,1,7.06,8.95c1.61,5.41,1.61,15,1.61,20.6s-10.11,10.11-10.11,10.11-51.13,2.16-56.54,2.16a13.72,13.72,0,0,1-9.58-3.43c-3.43-3.06-3.43-13.94-3.43-17C641.52,412.65,646.59,408.85,646.59,408.85Z" transform="translate(-637.52 -239.5)"/><path class="cls-2" d="M701.59,293.45s13.67,10.53,12.66,32.46c0,6.1-3.43,29.71-3.87,34.29l-2.45,25.11a13.19,13.19,0,0,1,.81,4.48c-.27,1.3-4.48,2.26-4.48,2.26s-7.62,47.64-8.38,49-8.38,1.84-8.38,1.84-3.26,21.82-3.26,24.91v18.57s4-1.2,4.9,0a4,4,0,0,1,.2,3.25s6.29,5.39,9,5.93l9.38,1.84s2.45.76,2,2.86c-.76,5.15-8.77,5.32-8.77,5.32H685.66s2.45,2.57,2.45,4.7c1.28,2.11,10,5.51,10,5.51s9,2.11,9.8,3.26a4.43,4.43,0,0,1-1,4.71c-2.57,4.72-9.8,5.51-11.44,5.51-5.76,0-13.65-2.45-17.15-2.87A73.31,73.31,0,0,1,666.66,525a5.66,5.66,0,0,1-4.1-4.48,43.76,43.76,0,0,1,3.07-9,12.31,12.31,0,0,1-.42-4.9c.56-1.1,2.45-.42,2.45-.42s-2.45-19.06-2.87-22.46-2.84-13.08-2.25-19.79l1.84-20.41a2.92,2.92,0,0,1-1.84-.61c-.54-.61,0-25.84,0-30s-5.32-20.55-5.32-30.42a40.33,40.33,0,0,1,3.48-17.76,32.94,32.94,0,0,1,4.9-7.55s1.82-6.51,2.26-9.38a126.55,126.55,0,0,0-1.23-16.95,102.93,102.93,0,0,1,.42-20,19,19,0,0,1,0-9.6,25.52,25.52,0,0,1,6.12-9.39,70.8,70.8,0,0,1,5.1-8.15l1.83-1.23a62.33,62.33,0,0,0-.41-12.44c-9.8-8.48-7.16-17.35-7.16-17.35S675.6,240,688.65,240s18,8.92,18,14.09a8.52,8.52,0,0,1-.81,3.47s4,4.29,4.09,5.52-2,2.25-2,2.25-.52,4.9-.42,6.12.86,2.67.42,4.09c-.91,3.16-7.77,3.87-7.77,3.87l-.81,8.38a6.87,6.87,0,0,1,2,2.25A9.34,9.34,0,0,1,701.59,293.45Z" transform="translate(-637.52 -239.5)"/><path class="cls-1" d="M701.59,293.45s13.67,10.53,12.66,32.46c0,6.1-3.43,29.71-3.87,34.29l-2.45,25.11a13.19,13.19,0,0,1,.81,4.48c-.27,1.3-4.48,2.26-4.48,2.26s-7.62,47.64-8.38,49-8.38,1.84-8.38,1.84-3.26,21.82-3.26,24.91v18.57s4-1.2,4.9,0a4,4,0,0,1,.2,3.25s6.29,5.39,9,5.93l9.38,1.84s2.45.76,2,2.86c-.76,5.15-8.77,5.32-8.77,5.32H685.66s2.45,2.57,2.45,4.7c1.28,2.11,10,5.51,10,5.51s9,2.11,9.8,3.26a4.43,4.43,0,0,1-1,4.71c-2.57,4.72-9.8,5.51-11.44,5.51-5.76,0-13.65-2.45-17.15-2.87A73.31,73.31,0,0,1,666.66,525a5.66,5.66,0,0,1-4.1-4.48,43.76,43.76,0,0,1,3.07-9,12.31,12.31,0,0,1-.42-4.9c.56-1.1,2.45-.42,2.45-.42s-2.45-19.06-2.87-22.46-2.84-13.08-2.25-19.79l1.84-20.41a2.92,2.92,0,0,1-1.84-.61c-.54-.61,0-25.84,0-30s-5.32-20.55-5.32-30.42a40.33,40.33,0,0,1,3.48-17.76,32.94,32.94,0,0,1,4.9-7.55s1.82-6.51,2.26-9.38a126.55,126.55,0,0,0-1.23-16.95,102.93,102.93,0,0,1,.42-20,19,19,0,0,1,0-9.6,25.52,25.52,0,0,1,6.12-9.39,70.8,70.8,0,0,1,5.1-8.15l1.83-1.23a62.33,62.33,0,0,0-.41-12.44c-9.8-8.48-7.16-17.35-7.16-17.35S675.6,240,688.65,240s18,8.92,18,14.09a8.52,8.52,0,0,1-.81,3.47s4,4.29,4.09,5.52-2,2.25-2,2.25-.52,4.9-.42,6.12.86,2.67.42,4.09c-.91,3.16-7.77,3.87-7.77,3.87l-.81,8.38a6.87,6.87,0,0,1,2,2.25A9.34,9.34,0,0,1,701.59,293.45Z" transform="translate(-637.52 -239.5)"/><path class="cls-3" d="M725.86,427a21.28,21.28,0,0,0-8-10.09,85.68,85.68,0,0,0-20.45-4.9l-2.82-13.32-21.63.8-2.45,13.13a87.55,87.55,0,0,0-26.95,9.95s-5.7,4.29-5.7,18.57c0,3.43,0,15.72,3.87,19.18a15.51,15.51,0,0,0,10.82,3.87c6.13,0,63.89-2.45,63.89-2.45s11.44-5.1,11.44-11.44S727.7,433.08,725.86,427ZM681,411.23a45.71,45.71,0,0,0-5.9.54l1.54-6.89,14.89-.41,1.67,6.95A93.72,93.72,0,0,0,681,411.23Z" transform="translate(-637.52 -239.5)"/><path class="cls-4" d="M667.9,322.43l22.86,3.87s-.61,14.7-3.67,18.37a92.65,92.65,0,0,1,2,16.34c.32,9-3.33,21.14-1.64,26.14.71,2.45,5.7,5.7,6.32,7.35a20.94,20.94,0,0,1,0,7.15c-.2,1.42-2.65,3.87-3.68,5.09s-4.36,0-4.36,0a5.79,5.79,0,0,1-3.4,0c-1.37,1-4.71,0-4.71,0s-3.47-.71-3.47-1.83-.74-10.07,0-11.64,1.91-2.87,1.83-3.87-.46-9.41-.81-11.63-2.86-10-2.45-15.51c.2-4.61.79-12.25.62-14.89s-.71-10.32-.81-12.86A42.69,42.69,0,0,1,667.9,322.43Z" transform="translate(-637.52 -239.5)"/></svg>