<svg id="Layer_1" data-name="Layer 1" xmlns="http://www.w3.org/2000/svg" viewBox="0 0 205.81 201.24"><defs><style>.cls-1{fill:#404040;}</style></defs><title>previous_injuries</title><path class="cls-1" d="M777.44,328.1l-5.14,5.28a4.54,4.54,0,0,1-6.56,0l-28-28.78a4.89,4.89,0,0,1,0-6.76l5.14-5.28a4.55,4.55,0,0,1,6.57,0l28,28.78a4.87,4.87,0,0,1,0,6.76m-40.67,31.1-23.64-24.33,22.06-22.68,23.64,24.33ZM752.5,465.6l-52.22-53.69,4.59-4.72,52.23,53.69Zm16.14,4.62a5.38,5.38,0,0,1-1.41,4.75l-1,1a5,5,0,0,1-4.61,1.45,5.09,5.09,0,0,1-3.76-3.11l-1.19-2.85,6.18-6.37,2.79,1.22a5.26,5.26,0,0,1,3,3.87m-87.43-73,9.36-9.62,11.75,12.06L693,409.29Zm-2.79,7.27-5.14,5.3-5.41-5.54.3,0c.12,0,.24,0,.38,0a12,12,0,0,0,2.21-.21,11.38,11.38,0,0,0,2.45-.77c.27-.11.53-.26.8-.38a17.55,17.55,0,0,0,1.65-.88l.24-.14.75.77Zm-64.7,61.62-4.6-4.72,52.25-53.7,4.59,4.73Zm-5.31,8.75a5.15,5.15,0,0,1-3.76,3.11,5,5,0,0,1-4.62-1.45l-1-1a5.35,5.35,0,0,1-1.41-4.74,5.19,5.19,0,0,1,3-3.87l2.8-1.22L609.6,472ZM631,311.68l22.06,22.68-23.64,24.33L607.39,336Zm-37.6,21.7-5.14-5.28a4.86,4.86,0,0,1,0-6.74l28-28.8a4.62,4.62,0,0,1,3.29-1.39,4.54,4.54,0,0,1,3.28,1.39l5.14,5.28a4.89,4.89,0,0,1,0,6.76l-28,28.78a4.57,4.57,0,0,1-6.57,0m67,10.59L638.3,366.69l-3.39-3.48L657,340.49Zm28.47,27.18a5.88,5.88,0,0,1,.87,1.12,5.23,5.23,0,0,1,.45,1s0,0,0,.07a4.72,4.72,0,0,1,.11,2.31A12.1,12.1,0,0,1,687,381.2l-12,12.28h0a11.55,11.55,0,0,1-5.42,3.5,4.42,4.42,0,0,1-2.26-.14l-.08,0a4.78,4.78,0,0,1-.9-.46,6.45,6.45,0,0,1-1.11-.89l-22.52-23.15L666.33,348l12.09,12.41Zm11-22.67,23.64,24.33-18.74,19.25-9.67-9.94a1.78,1.78,0,0,0,.12-.24,16.56,16.56,0,0,0,.85-1.68,7.89,7.89,0,0,0,.39-.84,14.17,14.17,0,0,0,.75-2.52,11.86,11.86,0,0,0-3.44-10.76l-5.5-5.67Zm27.55,18.21L705.33,344l3.41-3.48,22.09,22.72Zm54.93-50.4-28-28.79a11.39,11.39,0,0,0-16.42,0l-5.14,5.28a12.14,12.14,0,0,0-2.08,13.87l-47.37,48.7-48-49.37a12.22,12.22,0,0,0-2.4-13.21l-5.14-5.27a11.39,11.39,0,0,0-16.43,0l-28,28.79a12.14,12.14,0,0,0,0,16.88l5.12,5.29a11.44,11.44,0,0,0,8.23,3.48A11.61,11.61,0,0,0,602,340.6l55,56.54-2.94,3,2.38,2.44-54.22,55.75-4.34,1.92a12.41,12.41,0,0,0-7.13,9.08,12.71,12.71,0,0,0,3.33,11.17l1,1.05a11.94,11.94,0,0,0,8.56,3.66A11.22,11.22,0,0,0,606,485a12.2,12.2,0,0,0,8.85-7.32l1.85-4.46,54.53-56.07a5.36,5.36,0,0,0,2.07.42,5.52,5.52,0,0,0,3.92-1.66l6.18-6.36,6,6.13a5.12,5.12,0,0,0,3.64,1.54,4.93,4.93,0,0,0,2.12-.51l54.48,56,1.87,4.46a12.14,12.14,0,0,0,8.83,7.32,11.29,11.29,0,0,0,2.3.23,11.92,11.92,0,0,0,8.56-3.64l1-1a12.69,12.69,0,0,0,3.33-11.17,12.38,12.38,0,0,0-7.13-9.1L764,457.86l-54.47-56a5.44,5.44,0,0,0,0-4.45l54.91-56.47a11.26,11.26,0,0,0,4.63,1,11.39,11.39,0,0,0,8.21-3.48l5.13-5.29a12.18,12.18,0,0,0,0-16.88" transform="translate(-579.96 -284)"/></svg>