<svg id="Layer_1" data-name="Layer 1" xmlns="http://www.w3.org/2000/svg" viewBox="0 0 186.12 229.73"><defs><style>.cls-1{fill:#404040;}</style></defs><title>questionnaire</title><path class="cls-1" d="M642.29,427.44l-12,13.6a3,3,0,0,1-4.12.35l-7.52-6.05a3,3,0,0,1,3.76-4.72l5.29,4.26,10.12-11.46a3,3,0,0,1,4.25-.25,3,3,0,0,1,.25,4.27m0-28.12-12,13.6a3,3,0,0,1-2.25,1,3,3,0,0,1-1.87-.66l-7.52-6a3,3,0,0,1,3.76-4.72l5.29,4.26,10.12-11.46a3,3,0,0,1,4.25-.25,3,3,0,0,1,.25,4.27m0-27.93-12,13.6a3,3,0,0,1-2.25,1,2.93,2.93,0,0,1-1.87-.66l-7.52-6a3,3,0,0,1,3.76-4.72l5.29,4.25,10.12-11.45a3,3,0,1,1,4.5,4m0-29.2-12,13.6a3,3,0,0,1-2.25,1,2.93,2.93,0,0,1-1.87-.66l-7.52-6a3,3,0,0,1,3.76-4.72l5.29,4.25,10.12-11.45a3,3,0,0,1,4.25-.25,3,3,0,0,1,.25,4.26m38.9,97.47H651.8a3.27,3.27,0,0,1-3.26-3.28V433.1a3.27,3.27,0,0,1,3.26-3.29h29.39a3.28,3.28,0,0,1,3.27,3.29v3.28a3.27,3.27,0,0,1-3.27,3.28m6.53-29.54H651.8a3.27,3.27,0,0,1-3.26-3.28v-3.28a3.27,3.27,0,0,1,3.26-3.28h35.92a3.28,3.28,0,0,1,3.27,3.28v3.28a3.28,3.28,0,0,1-3.27,3.28m16.33-55.79H651.8a3.27,3.27,0,0,1-3.26-3.28v-3.28a3.27,3.27,0,0,1,3.26-3.28h52.25a3.27,3.27,0,0,1,3.26,3.28v3.28a3.27,3.27,0,0,1-3.26,3.28m0,29.54H651.8a3.27,3.27,0,0,1-3.26-3.28V377.3A3.27,3.27,0,0,1,651.8,374h52.25a3.27,3.27,0,0,1,3.26,3.28v3.29a3.27,3.27,0,0,1-3.26,3.28m57.12,63.43-26.12,29.54a6.51,6.51,0,0,1-9,.76l-16.33-13.12a6.6,6.6,0,0,1-1-9.23,6.5,6.5,0,0,1,9.18-1l11.49,9.23,22-24.88a6.5,6.5,0,0,1,9.22-.54,6.58,6.58,0,0,1,.54,9.26m-27.74-33.9a42.67,42.67,0,1,0,42.45,42.67,42.56,42.56,0,0,0-42.45-42.67M685,475.76H602.82a13.1,13.1,0,0,1-13.06-13.13V305.1c0-7.25,5.85-13.13,9.8-13.13H626a17.09,17.09,0,0,0-.34,3.39,16.29,16.29,0,0,0,16.23,16.31h42.64a16.33,16.33,0,0,0,16.23-16.51,16.75,16.75,0,0,0-.32-3.19h19.91c10.48,0,16.33,5.88,16.33,13.13v98.62c-1.08-.06-2.16-.16-3.27-.16a51.74,51.74,0,0,0-13.06,1.73V328.07H606.09V459.35h75.27A52.12,52.12,0,0,0,685,475.76M663.23,285.41a4.93,4.93,0,1,1,4.9-4.92,4.91,4.91,0,0,1-4.9,4.92m21.32,0h-5a4.88,4.88,0,0,1-4.86-4.89v-.16A11.33,11.33,0,0,0,663.36,269h-.26a11.33,11.33,0,0,0-11.3,11.36v.16a4.88,4.88,0,0,1-4.86,4.89h-5a9.72,9.72,0,0,0-9.7,9.75v.19a9.72,9.72,0,0,0,9.7,9.75h42.64a9.72,9.72,0,0,0,9.7-9.75v-.19a9.72,9.72,0,0,0-9.7-9.75" transform="translate(-589.76 -269)"/></svg>