<svg id="Layer_1" data-name="Layer 1" xmlns="http://www.w3.org/2000/svg" viewBox="0 0 267.31 309.25"><defs><style>.cls-1{fill:#e5e5e4;}.cls-2,.cls-4,.cls-6,.cls-7{fill:#414242;}.cls-3{fill:#ea5859;stroke:#fff;}.cls-3,.cls-4,.cls-6,.cls-7,.cls-8,.cls-9{stroke-miterlimit:10;}.cls-4,.cls-6,.cls-7{stroke:#fefefe;}.cls-10,.cls-5{isolation:isolate;}.cls-5{font-size:4.75px;fill:#fff;font-family:Montserrat-Regular, Montserrat;}.cls-6{stroke-width:0.75px;}.cls-7{stroke-width:0.5px;}.cls-8,.cls-9{fill:none;stroke:#979797;}.cls-9{stroke-linecap:round;}.cls-10{fill:#ed2b2f;opacity:0.66;}</style></defs><title>radar-chart</title><circle class="cls-1" cx="132.37" cy="145.05" r="106.4"/><path class="cls-2" d="M810.9,372.2s.5.1.8-1.2c.7-2.2,3.3-1.2,3.5-1.1a2.09,2.09,0,0,1,1.2,2.3,10.74,10.74,0,0,1-.7,1.5c-.1.3.2.9.1,1.1s-.7,0-.7,0-.6,1.2-1.2,1.2-1-.4-1.4-.5a7.51,7.51,0,0,0-2.6.5c-.2.2-1.3,2-3,2.4l-5.1,1.5,1.6,3.1a3.93,3.93,0,0,1,1,1.6c.1.6-.5,1.5-.6,2l-1.2,4.4a5.08,5.08,0,0,0-.3,1.7,1.4,1.4,0,0,0,.3.9,6.55,6.55,0,0,0,1.3.8s2,.2,2.2.5a.48.48,0,0,1,0,.7,2.84,2.84,0,0,1-1.7.9h-1.8c.4.2.8.5,1.2.7s1.7.4,1.8.7-.2.7-.4.9a3.89,3.89,0,0,1-2.3.7c-.6,0-2.4-.3-2.4-.3a7.39,7.39,0,0,1-1.9-.3,7.07,7.07,0,0,1,.2-2.5c.1-.1.2-.2.3-.2l-.2-4.1a6.93,6.93,0,0,1-.3-2,16.64,16.64,0,0,1,1.2-3.5l-.3-.6-2.7-.5c-.5-.1-1.6.1-1.8,0s-1.2-4.1-1.5-4.9a5.14,5.14,0,0,1-.6-4.8,3.74,3.74,0,0,1,1.2-1.3c1.1-.7,9.7-2.7,9.7-2.7s-1.5-2.1-1.8-2.5-4.1-5.3-4.1-5.3l-1.5-.9-.6-.4s-1-.3-.9-.5.8-.2.8-.2-1-1.3-.8-1.5,1.3,1,1.3,1-1.1-1.6-.8-1.8,1.4,1.2,1.4,1.2-.9-1.4-.7-1.5.7.5.7.5a.6.6,0,0,1,.4-.1c.2.1.6,1,.8,1.2l.8,1,.8,1.3s1.6,1.5,1.9,1.9l2.5,3.1-1.9-4.1-1.1-.3-.8-.3s-.4-.2-.3-.4.8,0,1-.1.1-.2,0-.5-1.4-1.4-1.2-1.7,1.5.9,1.5.9-.9-1.7-.7-1.8,1.1,1.5,1.1,1.5-.4-1.5-.2-1.5.8,1.5.8,1.5.1-1.2.3-1.2.4,1.5.4,1.5a2.3,2.3,0,0,1,.4,1.4,9.06,9.06,0,0,1,1.1,1.6,27.39,27.39,0,0,0,1.6,2.8l1.9,1.9h.4c.4.4.7.8,1.1,1.2Z" transform="translate(-549.13 -230.05)"/><polygon class="cls-2" points="115.87 26.75 114.97 28.16 114.97 29.25 159.57 29.25 159.57 27.55 158.87 26.75 115.87 26.75"/><path class="cls-3" d="M661,244.2c1.8-6.2,6.8-8.8,8.6-9.2,2.5-.4,4.3-1.5,4.9-1.5a4.84,4.84,0,0,0,1.7,0c.8-.1,2.1-1.6,2.1-1.6a2.42,2.42,0,0,1,3.1-1.2c2.3.7,2.1,3.5,2,3.9s-1.5,1.4-1.5,1.4l-.6.3c-.2,0-.2.8-.3.9s-.4,0-.4,0a15.05,15.05,0,0,0,2.2,1.1,5,5,0,0,1,1.2.2c.5.2,4.5,2.6,5.1,2.8a5.85,5.85,0,0,0,1.3.2,10.87,10.87,0,0,1,1.8.1c.5.1,1,.6,1,.9.1,1-.5,1.5-.7,1.5s-.2-1-.6-1.1-1.1.3-1.5.3-.8-.6-1.2-.7-2.8-.2-3.8-.4a19.62,19.62,0,0,1-3.8-1.8l1.5,1.2s3.1,2,4.3,3a21.28,21.28,0,0,0,2.5,1.6,13.06,13.06,0,0,1,2.1.8c.4.3.3,1.1.2,1.4a2.21,2.21,0,0,1-1.3,1,.68.68,0,0,1-.6-.4c0-.3.2-.1,0-.6s-1.4-1.1-1.4-1.1a39.82,39.82,0,0,1-4.5-1.2,7.64,7.64,0,0,1-2.3-1.7c-.3-.3-5.1-3.3-5.1-3.3a3.59,3.59,0,0,1-.7,1,12.83,12.83,0,0,1-2,1.2,5.79,5.79,0,0,1,2.3,1,2.16,2.16,0,0,1,.5,1.7,13.84,13.84,0,0,1-1.3,2.9,19.12,19.12,0,0,1,2.4,2.2c1.4,1,4.1,3.1,5.1,3.7s3.8,1.8,3.8,1.8a1,1,0,0,1,.5-.4c.3,0,1.1.8,1.1.8.6.3,1.2.6,1.9.9.5.2,1.9.5,2.2.7a.52.52,0,0,1,0,.8,12.3,12.3,0,0,1-2.2.6,20.21,20.21,0,0,0-3.4.6c-.7.2-1.1.6-1.7.6s-.8-.1-.9-.4v-1.3l-.3-1.1s0-.2-.5-.5-3.9-1.6-3.9-1.6a3.61,3.61,0,0,1-2-.6c-.9-.5-2.9-3-3.4-3.3a5.44,5.44,0,0,0-1.9-.3l-1.3,2a1.42,1.42,0,0,1,.6.2,2.77,2.77,0,0,1,.1.9,6,6,0,0,0,1.5.9c.5.2,1.7.3,2.1.7.2,1-.4,1.2-.9,1.3s-3.3-.1-3.8-.1a22.6,22.6,0,0,1-2.6.1,1.08,1.08,0,0,1-1-.8c0-.3.4-.7.4-.9a5.7,5.7,0,0,1,.1-1.3c.1-.3.8-.5.8-.5l-5.1-4.2s-3.1-1.1-3.1-3.4A6.11,6.11,0,0,1,661,244.2Z" transform="translate(-549.13 -230.05)"/><path class="cls-2" d="M661,244.2c1.8-6.2,6.8-8.8,8.6-9.2,2.5-.4,4.3-1.5,4.9-1.5a4.84,4.84,0,0,0,1.7,0c.8-.1,2.1-1.6,2.1-1.6a2.42,2.42,0,0,1,3.1-1.2c2.3.7,2.1,3.5,2,3.9s-1.5,1.4-1.5,1.4l-.6.3c-.2,0-.2.8-.3.9s-.4,0-.4,0a15.05,15.05,0,0,0,2.2,1.1,5,5,0,0,1,1.2.2c.5.2,4.5,2.6,5.1,2.8a5.85,5.85,0,0,0,1.3.2,10.87,10.87,0,0,1,1.8.1c.5.1,1,.6,1,.9.1,1-.5,1.5-.7,1.5s-.2-1-.6-1.1-1.1.3-1.5.3-.8-.6-1.2-.7-2.8-.2-3.8-.4a19.62,19.62,0,0,1-3.8-1.8l1.5,1.2s3.1,2,4.3,3a21.28,21.28,0,0,0,2.5,1.6,13.06,13.06,0,0,1,2.1.8c.4.3.3,1.1.2,1.4a2.21,2.21,0,0,1-1.3,1,.68.68,0,0,1-.6-.4c0-.3.2-.1,0-.6s-1.4-1.1-1.4-1.1a39.82,39.82,0,0,1-4.5-1.2,7.64,7.64,0,0,1-2.3-1.7c-.3-.3-5.1-3.3-5.1-3.3a3.59,3.59,0,0,1-.7,1,12.83,12.83,0,0,1-2,1.2,5.79,5.79,0,0,1,2.3,1,2.16,2.16,0,0,1,.5,1.7,13.84,13.84,0,0,1-1.3,2.9,19.12,19.12,0,0,1,2.4,2.2c1.4,1,4.1,3.1,5.1,3.7s3.8,1.8,3.8,1.8a1,1,0,0,1,.5-.4c.3,0,1.1.8,1.1.8.6.3,1.2.6,1.9.9.5.2,1.9.5,2.2.7a.52.52,0,0,1,0,.8,12.3,12.3,0,0,1-2.2.6,20.21,20.21,0,0,0-3.4.6c-.7.2-1.1.6-1.7.6s-.8-.1-.9-.4v-1.3l-.3-1.1s0-.2-.5-.5-3.9-1.6-3.9-1.6a3.61,3.61,0,0,1-2-.6c-.9-.5-2.9-3-3.4-3.3a5.44,5.44,0,0,0-1.9-.3l-1.3,2a1.42,1.42,0,0,1,.6.2,2.77,2.77,0,0,1,.1.9,6,6,0,0,0,1.5.9c.5.2,1.7.3,2.1.7.2,1-.4,1.2-.9,1.3s-3.3-.1-3.8-.1a22.6,22.6,0,0,1-2.6.1,1.08,1.08,0,0,1-1-.8c0-.3.4-.7.4-.9a5.7,5.7,0,0,1,.1-1.3c.1-.3.8-.5.8-.5l-5.1-4.2s-3.1-1.1-3.1-3.4A6.11,6.11,0,0,1,661,244.2Z" transform="translate(-549.13 -230.05)"/><polygon class="cls-4" points="144.07 24.95 147.77 24.95 148.87 30.95 143.87 30.95 144.07 24.95"/><path class="cls-2" d="M566.2,371.4s.5.1.8-1.1c.7-2.1,3.1-1.1,3.3-1a2,2,0,0,1,1.1,2.2c0,.4-.6,1.2-.6,1.4s.2.9.1,1-.7,0-.7,0-.6,1.1-1.1,1.1-.9-.4-1.3-.4a10.86,10.86,0,0,0-2.5.4c-.2.2-1.3,1.9-2.8,2.3l-4.7,1.4,1.5,2.9s.9.9.9,1.5-.5,1.4-.6,1.8l-1.1,4.1a7.58,7.58,0,0,0-.3,1.6,1.61,1.61,0,0,0,.3.9,6.21,6.21,0,0,0,1.2.8,9.54,9.54,0,0,1,2.1.4c.2.2.2.5,0,.6a2.09,2.09,0,0,1-1.6.8h-1.7c.4.2.7.4,1.1.6s1.6.4,1.7.6-.2.7-.4.8a4,4,0,0,1-2.1.7c-.6,0-2.2-.2-2.2-.2a6.17,6.17,0,0,1-1.8-.2,5.83,5.83,0,0,1,.2-2.3c0-.1.2-.2.3-.2l-.2-3.8a6.28,6.28,0,0,1-.3-1.9,15.83,15.83,0,0,1,1.1-3.2l-.3-.6s-2.1-.4-2.6-.4a9.48,9.48,0,0,1-1.7,0c-.2-.1-1-3.8-1.3-4.5a5.12,5.12,0,0,1-.6-4.5,2.54,2.54,0,0,1,1.1-1.2c1-.6,9.1-2.5,9.1-2.5s-1.4-2-1.7-2.4-3.8-5-3.8-5l-1.3-.9-.6-.4s-.9-.2-.9-.5.8-.2.8-.2-.9-1.2-.7-1.4,1.2.9,1.2.9-1.1-1.5-.8-1.7,1.3,1.1,1.3,1.1-.9-1.3-.7-1.4.7.5.7.5a.6.6,0,0,1,.4-.1,4.13,4.13,0,0,1,.7,1.1l.8.9.8,1.3s1.5,1.4,1.8,1.8l2.4,2.9-1.8-3.8-1-.3-.8-.3s-.4-.2-.3-.4.8,0,.9,0,.1-.2,0-.5-1.3-1.3-1.1-1.5,1.4.9,1.4.9-.8-1.6-.6-1.7,1,1.5,1,1.5-.4-1.4-.2-1.5.8,1.4.8,1.4.1-1.1.3-1.1.4,1.5.4,1.5a2.84,2.84,0,0,1,.4,1.3,7.84,7.84,0,0,1,1,1.5c.4.7,1.3,2.5,1.5,2.7l1.8,1.8h.4a10,10,0,0,1,1,1.1Z" transform="translate(-549.13 -230.05)"/><circle class="cls-2" cx="16.37" cy="154.55" r="4.4"/><text class="cls-5" transform="translate(13.62 155.99)">3x</text><path class="cls-2" d="M675.5,517.7a13.41,13.41,0,0,1,5.8-1.7,13.93,13.93,0,0,1,5.7.9,2.76,2.76,0,0,1,1.2,1.6,14.21,14.21,0,0,1,.3,3.6c0,1-1.8,1.8-1.8,1.8s-8.9.4-9.9.4a2.72,2.72,0,0,1-1.7-.6c-.6-.5-.6-2.4-.6-3C674.6,518.4,675.5,517.7,675.5,517.7Z" transform="translate(-549.13 -230.05)"/><path class="cls-3" d="M685.1,497.5a6.75,6.75,0,0,1,2.2,5.7c0,1.1-.6,5.2-.7,6l-.4,4.4a2.2,2.2,0,0,1,.1.8c0,.2-.8.4-.8.4s-1.3,8.3-1.5,8.6-1.5.3-1.5.3-.6,3.8-.6,4.4v3.2s.7-.2.9,0a.64.64,0,0,1,0,.6,6.38,6.38,0,0,0,1.6,1l1.6.3a.53.53,0,0,1,.4.5c-.1.9-1.5.9-1.5.9h-2.7a1.4,1.4,0,0,1,.4.8c.2.4,1.7,1,1.7,1a7,7,0,0,1,1.7.6.78.78,0,0,1-.2.8c-.4.8-1.7,1-2,1a18.62,18.62,0,0,1-3-.5,12.31,12.31,0,0,1-2-.2,1,1,0,0,1-.7-.8,9.83,9.83,0,0,1,.5-1.6,2.77,2.77,0,0,1-.1-.9c.1-.2.4-.1.4-.1s-.4-3.3-.5-3.9a15.32,15.32,0,0,1-.4-3.5l.3-3.6a.49.49,0,0,1-.3-.1c-.1-.1,0-4.5,0-5.2s-.9-3.6-.9-5.3a8.15,8.15,0,0,1,.6-3.1,3.81,3.81,0,0,1,.9-1.3s.3-1.1.4-1.6c0-1-.1-2-.2-3a13.68,13.68,0,0,1,.1-3.5,4.84,4.84,0,0,1,0-1.7,3.55,3.55,0,0,1,1.1-1.6c.3-.5.6-1,.9-1.4l.3-.2a16.2,16.2,0,0,0-.1-2.2,3,3,0,0,1-1.2-3,2.89,2.89,0,0,1,2.8-2.2c2.3,0,3.1,1.6,3.1,2.5,0,.2-.1.4-.1.6,0,0,.7.7.7,1s-.4.4-.4.4-.1.9-.1,1.1.1.5.1.7c-.2.6-1.4.7-1.4.7l-.1,1.5c.1.1.3.2.4.4C685.1,497.1,685.1,497.3,685.1,497.5Z" transform="translate(-549.13 -230.05)"/><path class="cls-2" d="M685.1,497.5a6.75,6.75,0,0,1,2.2,5.7c0,1.1-.6,5.2-.7,6l-.4,4.4a2.2,2.2,0,0,1,.1.8c0,.2-.8.4-.8.4s-1.3,8.3-1.5,8.6-1.5.3-1.5.3-.6,3.8-.6,4.4v3.2s.7-.2.9,0a.64.64,0,0,1,0,.6,6.38,6.38,0,0,0,1.6,1l1.6.3a.53.53,0,0,1,.4.5c-.1.9-1.5.9-1.5.9h-2.7a1.4,1.4,0,0,1,.4.8c.2.4,1.7,1,1.7,1a7,7,0,0,1,1.7.6.78.78,0,0,1-.2.8c-.4.8-1.7,1-2,1a18.62,18.62,0,0,1-3-.5,12.31,12.31,0,0,1-2-.2,1,1,0,0,1-.7-.8,9.83,9.83,0,0,1,.5-1.6,2.77,2.77,0,0,1-.1-.9c.1-.2.4-.1.4-.1s-.4-3.3-.5-3.9a15.32,15.32,0,0,1-.4-3.5l.3-3.6a.49.49,0,0,1-.3-.1c-.1-.1,0-4.5,0-5.2s-.9-3.6-.9-5.3a8.15,8.15,0,0,1,.6-3.1,3.81,3.81,0,0,1,.9-1.3s.3-1.1.4-1.6c0-1-.1-2-.2-3a13.68,13.68,0,0,1,.1-3.5,4.84,4.84,0,0,1,0-1.7,3.55,3.55,0,0,1,1.1-1.6c.3-.5.6-1,.9-1.4l.3-.2a16.2,16.2,0,0,0-.1-2.2,3,3,0,0,1-1.2-3,2.89,2.89,0,0,1,2.8-2.2c2.3,0,3.1,1.6,3.1,2.5,0,.2-.1.4-.1.6,0,0,.7.7.7,1s-.4.4-.4.4-.1.9-.1,1.1.1.5.1.7c-.2.6-1.4.7-1.4.7l-.1,1.5c.1.1.3.2.4.4C685.1,497.1,685.1,497.3,685.1,497.5Z" transform="translate(-549.13 -230.05)"/><path class="cls-6" d="M689.3,520.9a4.89,4.89,0,0,0-1.4-1.8,23.69,23.69,0,0,0-3.6-.9l-.5-2.3-3.8.1-.4,2.3a15.57,15.57,0,0,0-4.7,1.7s-1,.7-1,3.2c0,.6,0,2.7.7,3.3a2.64,2.64,0,0,0,1.9.7c1.1,0,11.2-.4,11.2-.4s2-.9,2-2A16.65,16.65,0,0,0,689.3,520.9Zm-7.8-2.8c-.4,0-.7.1-1,.1l.3-1.2,2.6-.1.3,1.2Z" transform="translate(-549.13 -230.05)"/><path class="cls-7" d="M679.2,502.6l4,.7s-.1,2.6-.6,3.2a25.35,25.35,0,0,1,.4,2.9c.1,1.6-.6,3.7-.3,4.6.1.4,1,1,1.1,1.3a2.44,2.44,0,0,1,0,1.2c0,.2-.5.7-.6.9s-.8,0-.8,0a.64.64,0,0,1-.6,0c-.2.2-.8,0-.8,0s-.6-.1-.6-.3a13.35,13.35,0,0,1,0-2,2.12,2.12,0,0,0,.3-.7c0-.2-.1-1.6-.1-2a8.54,8.54,0,0,1-.4-2.7c0-.8.1-2.1.1-2.6s-.1-1.8-.1-2.2A6.44,6.44,0,0,1,679.2,502.6Z" transform="translate(-549.13 -230.05)"/><circle class="cls-8" cx="132.87" cy="144.55" r="106.6"/><line class="cls-8" x1="208.17" y1="69.15" x2="204.47" y2="72.95"/><line class="cls-8" x1="208.17" y1="219.95" x2="204.47" y2="216.15"/><line class="cls-8" x1="57.47" y1="219.95" x2="61.17" y2="216.15"/><line class="cls-8" x1="57.47" y1="69.15" x2="61.17" y2="72.95"/><line class="cls-8" x1="132.87" y1="144.55" x2="208.17" y2="69.15"/><line class="cls-8" x1="149.77" y1="123.85" x2="153.57" y2="127.65"/><line class="cls-8" x1="168.67" y1="104.95" x2="172.37" y2="108.75"/><line class="cls-8" x1="187.47" y1="86.15" x2="191.27" y2="89.95"/><line class="cls-8" x1="132.87" y1="144.55" x2="208.17" y2="219.95"/><line class="cls-8" x1="153.57" y1="161.55" x2="149.77" y2="165.35"/><line class="cls-8" x1="172.37" y1="180.35" x2="168.67" y2="184.15"/><line class="cls-8" x1="191.27" y1="199.25" x2="187.47" y2="202.95"/><line class="cls-8" x1="132.87" y1="144.55" x2="57.47" y2="219.95"/><line class="cls-8" x1="115.87" y1="165.35" x2="112.07" y2="161.55"/><line class="cls-8" x1="96.97" y1="184.15" x2="93.27" y2="180.35"/><line class="cls-8" x1="78.17" y1="202.95" x2="74.37" y2="199.25"/><line class="cls-8" x1="132.87" y1="144.55" x2="57.47" y2="69.15"/><line class="cls-8" x1="112.07" y1="127.65" x2="115.87" y2="123.85"/><line class="cls-8" x1="93.27" y1="108.75" x2="96.97" y2="104.95"/><line class="cls-8" x1="74.37" y1="89.95" x2="78.17" y2="86.15"/><path class="cls-9" d="M728.3,328.3" transform="translate(-549.13 -230.05)"/><path class="cls-9" d="M719.6,412.3" transform="translate(-549.13 -230.05)"/><path class="cls-9" d="M719.6,412.3" transform="translate(-549.13 -230.05)"/><path class="cls-9" d="M606.6,450" transform="translate(-549.13 -230.05)"/><path class="cls-9" d="M606.6,450" transform="translate(-549.13 -230.05)"/><path class="cls-9" d="M619,311.7" transform="translate(-549.13 -230.05)"/><path class="cls-9" d="M619,311.7" transform="translate(-549.13 -230.05)"/><path class="cls-9" d="M728.3,328.3" transform="translate(-549.13 -230.05)"/><polyline class="cls-10" points="47.37 144.56 135.67 79.56 188.47 144.56 135.67 250.25 48.57 146.06"/></svg>