<svg id="Layer_1" data-name="Layer 1" xmlns="http://www.w3.org/2000/svg" viewBox="0 0 313.91 185.91"><defs><style>.cls-1{fill:#404040;}</style></defs><title>rotary_stability</title><path class="cls-1" d="M859.3,397.78A12.22,12.22,0,0,1,858,398H825a23.32,23.32,0,0,1-3.48-.17c-5.6-.09-11.11-.09-16.7-.34-3.09-.17-6.09-.25-9.09-.34a61,61,0,0,1-7.86-.42c-1.3,0-2.68,0-4-.09-1.79-.16-3.49-.59-5.27-.59a2.75,2.75,0,0,1-2.68-2.78,3.32,3.32,0,0,1,.81-2.45c.41-1.77.81-3.46,1.22-5.24.49-2.53.89-5.06,1.38-7.59a3,3,0,0,1,.4-1.44c1.62-2.45,2-5.32,3-7.93.73-1.78,1-2,2.68-2.12a10.77,10.77,0,0,1,1.7.09,10.6,10.6,0,0,0,4,0,1,1,0,0,1,.73,0c3.33.42,6.65.84,10,1.18,3.65.34,7.38.67,11-.59a17.53,17.53,0,0,0,11.35-11.4,58.16,58.16,0,0,0,1.54-5.82,8,8,0,0,1,1.38.08c3.24,1,6.49,2,9.73,3,1.54.42,3.08.67,4.62,1l8,1.52c1.86.34,2,.67,2.18,2.53.65,5.74,1.14,11.48,2.35,17.14.49,2.36.74,4.73,1.22,7.09s1.22,4.48,1.87,6.67,1.62,4.31,2.35,6.5a7.62,7.62,0,0,1,.32,1.27.92.92,0,0,1-.57,1m-124.52-.25c-7.14-.08-14.19-.08-21.57,0-1.62,0-3.32.25-5,.34a37,37,0,0,1-4.21,0,9.05,9.05,0,0,0-3.4-.09c-1.3.26-2-.42-2.28-1.69a6.36,6.36,0,0,1,.41-3c.32-1.35.81-2.62,1.14-4a6.8,6.8,0,0,1,2.51-4,3.86,3.86,0,0,0,1.54-2.2,3.74,3.74,0,0,1,4.78-2.45,3,3,0,0,1,.73.34c3.65,2.28,7.3,4.73,10.95,7.09,1.21.76,2.43,1.44,3.65,2.19s2.83,1.61,4.13,2.45a33.87,33.87,0,0,0,6.73,3.3,4.18,4.18,0,0,1,2.35,1.35,3.66,3.66,0,0,1-2.51.42m80.5-74.8c1.54.25,3.17.59,4.79,1,.32.08.56.59.81.84a.34.34,0,0,1,.08.26c.16,3.2.32,6.5.48,9.7,0,.09-.24.26-.4.51a7.16,7.16,0,0,1-.65-1c-1.78-3.55-3.57-7.18-5.27-10.72-.08-.09.08-.26.16-.59m32.11,5.06c.65-2.19,1.38-4.39,2.19-6.58h.56a10.4,10.4,0,0,1,.57,2.19c.08,2,.08,4.14.08,6.17a1.49,1.49,0,0,1-1,1.6,2.19,2.19,0,0,1-2.35-.42,2.1,2.1,0,0,1-.41-1.18,7.06,7.06,0,0,1,.41-1.78M686.78,398a29.13,29.13,0,0,1-3.89-.08,18.41,18.41,0,0,0-6.41-.09c-1.62.34-3.24-.25-4.86-.42a40.67,40.67,0,0,0,1-6.25,39.06,39.06,0,0,1,1.7-7.59c.24-.85.65-2.2,1.05-3.22a6.63,6.63,0,0,0,.65-1l.08-.08a21.68,21.68,0,0,0,2.11-1.69h.08a17.48,17.48,0,0,0,1.87-.67,6.62,6.62,0,0,1,3.64-.26c2,.42,2.44.84,2.44,3.13a15.17,15.17,0,0,1-.09,2,21.59,21.59,0,0,0,0,6.42,55.08,55.08,0,0,0,1.3,7.09c.16.76.32,1.52.49,2.36a4.34,4.34,0,0,1-1.14.34m228.06.85c-1.78-.09-3.65-.34-5.43-.34-3.41-.08-6.81,0-10.22,0a25.79,25.79,0,0,1-7.62-.85,8.42,8.42,0,0,1-4.05-2.28,4.42,4.42,0,0,0-3.57-1.52c-1.05,0-2.19-.08-3.24,0A11,11,0,0,1,873.9,392a3.58,3.58,0,0,1-1.95-3.3v-3.12c-.08-4.3.33-8.61-.4-12.92a9.62,9.62,0,0,1-.08-1.52,31.27,31.27,0,0,1,.48-6.67c.33-2.36.73-4.64,1.06-6.92a1.7,1.7,0,0,1,1.21-1.44,14.86,14.86,0,0,1,2.68-.5l7.62-.76c1.86-.26,3.65-.68,5.43-.76a25.69,25.69,0,0,1,5.68.08,10.47,10.47,0,0,0,5.35-.42c12.16-2.45,12.64-17.47,9-25.58-2.11-4.9-10.87-1.1-16.06.51-3.65,1.09-3.65,8.69-8.83,9.12-1-.17-2-.26-2.92-.34-2.19-.26-4.46-.34-6.65-.68-2.6-.42-3.16-1.18-3.16-4v-4.56c-.73-8.69.89-16.8,2.92-25.41,1.54-7.6,3.08-14.61,5.18-22.12,3.65,5.32,9.9,11.82,15.57,4.56a2.33,2.33,0,0,1,2.43-.93c1.63.34,3.25.34,4.71,1.35,1.7,1.1,3.32.51,4.29-1.43,1.46-.85.41-4.14,2.43-4.14,18.08-2.7,28-18.32,22.78-36.14a33.56,33.56,0,0,0-1.29-4.13,34.22,34.22,0,0,0-1.79-3.89c-5.67-10.3-18.08-8.61-27.88-5.74a15.24,15.24,0,0,0-3.17,1.86,22.32,22.32,0,0,1-6.08,3.55,25.18,25.18,0,0,0-5.43,2.87c-3.49,4.47-8.19,6.07-13.86,6.07-2-.5-4.13-1.6-5.68-1.6-8.83,0-17.59-.51-26.26-3.21q-2.68-1-5.35-1.77c-16.22-4.31-33.33-.59-49.54,1.77-1.54.25-3.16.42-4.7.68-17.19,1.43-32.19,9.54-45.32,21.53a18,18,0,0,0-2,2.36c-1.86,2.62-3.73,5.23-5.51,7.94a41.12,41.12,0,0,0-3.41,5.74c-3.4,8.27-4.05,16.63-.73,25.16a21.31,21.31,0,0,1,1.06,4,22.17,22.17,0,0,0,1.13,4,49.65,49.65,0,0,1,2.84,8.28c.16.67.49,1.26.65,1.94.24.93.57,1.94.81,3,.49,2.78.89,5.57,1.14,8.44.24,2.53.16,5.07.24,7.51a2.61,2.61,0,0,1-.73,2.11,21.16,21.16,0,0,1-9.49.59c-1.62-.33-3.32-.76-4.94-1.18a31.85,31.85,0,0,0-2.43-3.21,7,7,0,0,0-4.79-2.27,4.85,4.85,0,0,1-1.62-1c-.16-.17-.57-.17-.89-.34-.65-.34-1.3-.76-2-1.09-1.21-.68-2.43-1.44-3.73-2-1-.51-1.46-.34-2.1.59a19.65,19.65,0,0,0-2.92,5.91c-.33.93-.65,1.94-1,2.87-.81,2.28-1.86,4.47-2,6.92a11,11,0,0,1-1.62,4.56,1.35,1.35,0,0,1-1.46.76,9.1,9.1,0,0,1-1.46-.25c-3.16-.76-6.33-1.52-9.49-2.2a3.66,3.66,0,0,1-1.05-.42,13.06,13.06,0,0,1-3.89-1.69,6.44,6.44,0,0,1-1.79-.76l-.32-.08a3.43,3.43,0,0,0-2.19-.51c-2.35.26-4.38-1.09-6.49-2.19a10.53,10.53,0,0,0-7.21-1.86,11.64,11.64,0,0,0-3.33.84,3.41,3.41,0,0,0-2.11,1c-.15.17-.32.33-.48.51-2.6,2.19-3.81,5.65-3.08,9.87.32,1.69.57,3.38.81,5.07.16,1.18.24,1.35.08.42l.24,3a47.64,47.64,0,0,1,0,5.07c-.16,1.18-.16,1.35-.08.42a29,29,0,0,1-.65,2.95,23.87,23.87,0,0,0-.48,12.84,43.41,43.41,0,0,0,2,5.48,22.86,22.86,0,0,0,1.71,4.65c.16.42.32.84.48,1.35a3,3,0,0,1-2.43.59H635.06a8.88,8.88,0,0,1-1.46-.08v16.46H947.51V399.05h-30a13.21,13.21,0,0,1-2.68-.25" transform="translate(-633.6 -228)"/></svg>