<svg id="Layer_1" data-name="Layer 1" xmlns="http://www.w3.org/2000/svg" viewBox="0 0 186.81 247.89"><defs><style>.cls-1{fill:#404040;}.cls-2{fill:#fff;}</style></defs><title>shoulder_mobility</title><path class="cls-1" d="M606.18,368c5-4.08,46.38-21.19,48.12-21.19s2.25.9,2.25.9,4.17-1.62,5.54-4.08,1.93-5,1.87-9.25a48,48,0,0,0-1.69-10,2.62,2.62,0,0,1-2.73,1.44c-2.06-.24-3.86-6.6-3.86-6.6s-4.24-9.25-4.8-11.41-.43-3.9.94-4.8,3.48,1.62,3.48,1.62a48,48,0,0,1-.74-16.57c5-21.44,27.45-20.84,27.45-20.84s20.36-.9,27.83,13.69a11,11,0,0,1,1.49,4.09l11.83-11.23s10-9.37,20.67-11.59,20.49,3,20.49,3,5.54,3,7,5c4.79,7.27,2,18.62.93,22s-9.52,31.28-11.08,37.89-5.79,27.68-8.09,35.42-6.35,12.85-7.35,14.95-3.42,6.79-4,9.79a14.08,14.08,0,0,0-.18,5.16,165.21,165.21,0,0,1,.75,16.69c-.63,10.09-1.5,15.67-1.5,15.67l-.37,58.73a19.22,19.22,0,0,1-.38,5c-.56,2.76-4.23,8-4.23,8a2.57,2.57,0,0,1,1.12,1.62,2.53,2.53,0,0,1-.75,2,10.3,10.3,0,0,1,1.87,2.46,2.62,2.62,0,0,1-.37,2.46H625.17s-.37-2.46,1.31-3.36a3.9,3.9,0,0,1,.74-2.35l-1.67-2.64s-2.56-2-3.3-7.26,5.16-20.12,5.16-20.12-15.69,12.19-21.23,12.79-7.34-2-9.4-4.62c-7.16-14.83-7.9-31.22-7.9-42.69s10.33-58,10.33-58,2-7.68,7-11.77" transform="translate(-587.94 -261)"/><path class="cls-1" d="M626,507.27H737A1.53,1.53,0,0,0,737,506a7.93,7.93,0,0,0-1.68-2.22l-.56-.55.56-.53s.63-.66.5-1.27a2.19,2.19,0,0,0-.74-1.08l-.75-.42.5-.72c.06-.06,3.61-5.16,4.11-7.68a21.93,21.93,0,0,0,.37-4.75v-.11l.37-58.79v-.06c0-.06.88-5.64,1.5-15.55a162.27,162.27,0,0,0-.75-16.57,14.61,14.61,0,0,1,.19-5.46,48.56,48.56,0,0,1,3.73-9.19,4.71,4.71,0,0,1,.37-.72c.25-.54.75-1.32,1.31-2.22a51.39,51.39,0,0,0,6-12.61c1.68-5.58,4.36-18.07,6.35-27.26.75-3.36,1.37-6.3,1.75-8.1.93-4.09,4.66-17,10.83-37.23l.25-.72c1-3.24,3.79-14.29-.81-21.37-1.12-1.51-5.23-3.9-6.73-4.75-.06-.06-9.71-5-19.86-2.94s-20.17,11.29-20.23,11.35l-13,12.43-.19-1.68a10.45,10.45,0,0,0-1.37-3.78v-.06c-3-5.83-8.4-9.85-16.18-11.89a41.23,41.23,0,0,0-10.9-1.38,32.08,32.08,0,0,0-11.58,2.34,25.94,25.94,0,0,0-8.9,5.94,25.38,25.38,0,0,0-6.17,11.89,45,45,0,0,0,.75,16.21l.94,3.48-2.37-2.76c-.68-.78-1.93-1.74-2.43-1.44-1.37.9-.74,3.18-.56,4,.56,2,4.73,11.17,4.73,11.23l.07.12c.93,3.12,2.36,5.88,3.17,6a1.68,1.68,0,0,0,1.87-1l.93-2.16.62,2.28a47.84,47.84,0,0,1,1.68,10.15c.07,4.26-.43,7-1.92,9.66s-5.79,4.39-6,4.45l-.81.3-.25-.66a1.85,1.85,0,0,0-1.43-.48c-1.12.18-11.33,4.2-22.91,9.12C618,362.51,608.74,367,606.74,368.58c-4.6,3.78-6.66,11.16-6.72,11.46-.25,1.08-10.33,46.59-10.33,57.82,0,12.13.87,27.86,7.84,42.27l.06.06c1.93,2.52,3.55,4.68,8.53,4.14,4.36-.48,16.5-9.3,20.79-12.61l2.43-1.86-1.12,2.76c-.06.12-5.79,14.66-5.1,19.7s3,6.78,3,6.78l.12.06.06.12,1.93,3.12-.37.43a2.76,2.76,0,0,0-.56,1.74l.06.48-.44.24a2.82,2.82,0,0,0-.93,2m111.94,1.62H624.49l-.13-.66c0-.12-.37-2.58,1.31-3.9a5.58,5.58,0,0,1,.56-1.93l-1.31-2.1c-.56-.48-2.8-2.76-3.48-7.68-.57-4.14,2.55-13.27,4.17-17.83-4.61,3.42-14.88,10.74-19.3,11.22-5.92.67-8-2.1-10.09-4.8L596,481l-.07-.06c-7.09-14.71-8-30.74-8-43.05,0-11.41,9.9-56.26,10.34-58.18.06-.3,2.17-8.1,7.28-12.31,3.11-2.52,18.86-9.42,25.46-12.24,7-3,21.79-9.13,23.22-9.13a3.67,3.67,0,0,1,2.43.72c1.12-.48,3.61-1.8,4.61-3.48,1.37-2.46,1.8-4.87,1.74-8.83a46.91,46.91,0,0,0-1.24-8.29,3.48,3.48,0,0,1-2.43.54c-2.37-.29-4.05-5.46-4.54-7.08-.38-.84-4.3-9.37-4.8-11.47-.68-2.76-.31-4.68,1.25-5.64a2.66,2.66,0,0,1,2.67.12,48.22,48.22,0,0,1-.25-14.53V288a26.1,26.1,0,0,1,16.13-19,32.61,32.61,0,0,1,12.2-2.41A42.06,42.06,0,0,1,693.34,268c8.09,2.16,14.07,6.54,17.25,12.72a14.71,14.71,0,0,1,1.24,2.88l10.71-10.2c.44-.42,10.33-9.55,21-11.77s20.61,2.88,21,3.12c.25.12,5.73,3.13,7.29,5.23V270c5,7.62,2.06,19.33,1,22.69l-.25.72c-6,19.93-9.9,33.09-10.84,37.11-.43,1.8-1.06,4.74-1.74,8.1-2,9.19-4.67,21.68-6.35,27.38a52.58,52.58,0,0,1-6.16,13c-.56.9-1,1.62-1.25,2.1-.12.24-.25.48-.37.78-1.06,2.16-3.05,6.25-3.61,8.83a12.47,12.47,0,0,0-.19,4.86v.06c0,.06.81,7.69.75,16.81v.06c-.56,9.49-1.37,15.07-1.49,15.68L741,486.73a24.05,24.05,0,0,1-.37,5.17c-.5,2.34-3,6.24-4,7.68a3.34,3.34,0,0,1,.81,1.62,2.93,2.93,0,0,1-.5,2,14.13,14.13,0,0,1,1.56,2.23,3.56,3.56,0,0,1-.43,3.24Z" transform="translate(-587.94 -261)"/><path class="cls-2" d="M697,357.83m-10.83,16.63a3.67,3.67,0,0,1-3-1.62c-.81.66-2.31,1.38-5,1H678l-.07-.06c-1.24-.6-2.43-2.88-2.93-4-1.18.29-3.61.72-4.79-.84a10.52,10.52,0,0,1-1.37-4.51,3.33,3.33,0,0,1-3.36-1.68c-1-1.86.31-7.81.5-8.65a35.49,35.49,0,0,1,1.12-6.36c.68-1.8,2.74-3.6,3.17-4.08.5-1,3.93-8.05,8.1-10.45,1.06-.66,2.3-2.58,3.42-5.23.07-.17.13-.35.19-.53.87-2.05,1.8-4.39,6.91-9.31,5.41-6.06,21.73-33.2,21.85-33.5l1.12.6c-.68,1.14-16.5,27.61-22,33.74V319c-4.92,4.74-5.79,6.84-6.66,8.89a2,2,0,0,1-.25.54c-.75,1.68-2.18,4.68-3.92,5.82-4.11,2.34-7.66,10-7.66,10l-.06.12-.13.06a13,13,0,0,0-3,3.66,30.9,30.9,0,0,0-1.06,6.06v.06c-.56,2.4-1.18,6.73-.62,7.87.68,1.32,2.61,1,2.67.9l.75-.18v.72c0,.06.13,3,1.18,4.44.75,1,3.12.48,3.86.24l.56-.18.25.54c.56,1.33,1.68,3.36,2.49,3.79,3.3.48,4.24-1.09,4.3-1.15l.68-1.2.5,1.26a2.63,2.63,0,0,0,2.37,1.62,5.34,5.34,0,0,0,3.86-1.68,16.13,16.13,0,0,0,2.49-4.92l1.43-7,.25-.12a19.2,19.2,0,0,0,2.74-1.68c.68-.91,2-8.95,2.74-12.85.37-2,.62-3.6.74-4.33,1.31-6,5.05-12.37,7.29-14.7.43-.49,1.55-1.69,2.93-3.19,6.47-7.08,13.57-14.77,15.5-15.91,6.22-3.9,17.68-16,20.48-19.51a22.6,22.6,0,0,0,3.67-7.33l1.25.3a24.48,24.48,0,0,1-3.93,7.81c-2.86,3.54-14.44,15.85-20.79,19.81-1.93,1-10.89,10.93-15.19,15.61-1.43,1.56-2.49,2.7-2.93,3.19-2.05,2.16-5.72,8.4-6.9,14.1-.13.67-.44,2.35-.75,4.27-1.68,10-2.37,13-3.18,13.63a15.62,15.62,0,0,1-2.68,1.68l-1.3,6.36a16.44,16.44,0,0,1-2.87,5.58,6,6,0,0,1-4.79,2.35" transform="translate(-587.94 -261)"/><path class="cls-2" d="M627.72,472.38l-.62-1.08c7.78-4.26,17.31-11.77,27.64-21.61,8.28-7.93,14.7-15.13,16.44-17.23a43.46,43.46,0,0,1,7.28-6.49,73,73,0,0,0,6-5c4.42-4.26,7.72-8.77,8.28-11.41l.25-1c.69-2.88,1.81-7.74,2.37-10.93a21.5,21.5,0,0,0,.06-6.36,7.72,7.72,0,0,0-2.43-1.5,3.67,3.67,0,0,0-1.74,0l-1.12.3.31-1.08a2.56,2.56,0,0,0-1.25-2.64,3.85,3.85,0,0,0-3-.78l-.56.17-.24-.53s-1.13-2.53-3.06-2.71a5,5,0,0,0-3.23.6l-.75.48-.25-.78c-.06-.12-.44-.78-2.12-.78-3,0-3.42,1-3.54,1.38a104.49,104.49,0,0,0-2.81,10.75v.18l-.24.12a7,7,0,0,0-2.25,2.34c-.43,1-.93,8.17-1.18,12.49v.06c-.12.9-.81,5.53-2,6.55-.25.18-.81.72-1.62,1.38-2.74,2.4-7.91,6.78-9.34,8h-.06A122.44,122.44,0,0,1,626.17,440c-10.34,6.24-18.31,25.34-18.37,25.52l-1.18-.48A86.14,86.14,0,0,1,612,454.37c4.49-7.62,9-12.85,13.58-15.55l.06-.06h.06a119.83,119.83,0,0,0,26.52-14.53c1.43-1.2,6.6-5.64,9.34-8,.75-.67,1.37-1.14,1.62-1.38.56-.49,1.31-3.37,1.62-5.77.06-1.26.56-11.35,1.31-12.91a7.28,7.28,0,0,1,2.49-2.7,107.16,107.16,0,0,1,2.8-10.63c.5-1.44,2.05-2.16,4.73-2.16a3.78,3.78,0,0,1,2.93,1,7.38,7.38,0,0,1,3.54-.54,5.44,5.44,0,0,1,3.86,3,5.36,5.36,0,0,1,3.55,1,3.56,3.56,0,0,1,1.81,3.06,7.34,7.34,0,0,1,1.55.12,9.57,9.57,0,0,1,3.12,1.92l.18.12.06.18a22.06,22.06,0,0,1,0,7c-.55,3.25-1.68,8.11-2.36,11.05l-.25,1c-.69,2.88-4,7.63-8.65,12.07a67,67,0,0,1-6.17,5.16,43.89,43.89,0,0,0-7.09,6.31c-1.81,2.1-8.22,9.36-16.56,17.35-10.59,10.14-20,17.53-28,21.91" transform="translate(-587.94 -261)"/></svg>