<svg id="Layer_1" data-name="Layer 1" xmlns="http://www.w3.org/2000/svg" xmlns:xlink="http://www.w3.org/1999/xlink" viewBox="0 0 63.87 45.21"><defs><style>.cls-1,.cls-4,.cls-6{fill:none;}.cls-2{clip-path:url(#clip-path);}.cls-3{fill:#eb5959;}.cls-4,.cls-6{stroke:#fff;stroke-miterlimit:10;}.cls-4{stroke-width:0.99px;}.cls-5{fill:#404040;}.cls-6{stroke-width:0.25px;}</style><clipPath id="clip-path" transform="translate(-651.85 -362.61)"><rect class="cls-1" x="652.35" y="352.91" width="62.88" height="64.6"/></clipPath></defs><title>single_leg_jump</title><g class="cls-2"><path class="cls-3" d="M696.1,368.59a38.54,38.54,0,0,1,9.59.48,1.29,1.29,0,0,0,.95-.24c.41-.33-.06-2.89,1.71-4.61,2.49-2.43,6-.48,6.71,1.81a5.17,5.17,0,0,1-.21,3.25l-.69.8s.4,1.23.16,1.6-.91.32-.91.32a5.26,5.26,0,0,1-1.17,1.71c-.69.57-2.21-.33-3.46,0a28.16,28.16,0,0,0-2.93,1s.12.51-.05.69-.75,0-.75,0a17.34,17.34,0,0,1-4,3.14c-2.21,1.12-9.42,2-9.42,2l1.91,6.23a5,5,0,0,1,.8,2.64c-.14,1.19-1,1.92-1.91,2.88a66.44,66.44,0,0,0-4.64,6.31,22.64,22.64,0,0,0-1.28,2.56,6.75,6.75,0,0,0,0,1.68s2.12,1.74,2.56,2,2.42.16,2.88.48.2.7-.32,1.12-4.19.8-5.12.8a26.8,26.8,0,0,1-4.39,0c-.81-.24-1.27-.58-1.27-1.2s.42-2.77,1.2-2.95c1-.87,2.52-5.55,2.71-6.47s.52-3.29,1.52-4.63a22.65,22.65,0,0,1,2.08-2.4c.24-.23-1.51-2.39-1.51-2.39s-4.58.32-4.8.08a7.13,7.13,0,0,1-.4-1.83l-2.87,2.8s-2,1.74-2.4,2.08a3.92,3.92,0,0,1-2.72,2.55,37.36,37.36,0,0,1-5-.88s-5.17-1.51-6.63-1.67a8.52,8.52,0,0,0-2.71.16l-1,.24s.46.78,0,1a5.8,5.8,0,0,1-1.52.41s-1.31,3.93-2.55,4-2.05-1.6-1.82-3.27,1.4-3.2,1.52-3.68c1-3.43,2-3.65,2.39-3.77.64-.1,1.76.88,1.76.88l1,.91a42.4,42.4,0,0,1,5.84-.64,31.07,31.07,0,0,1,6.23.64s-1-.9-1.12-1.51a1.45,1.45,0,0,1,.4-1.44,13.76,13.76,0,0,0,1.43-1.2c.41-.44,2.2-5.31,3-6.87s2.4-4.07,2.4-4.07-2.08-.32-2.47-1.12c-.44-1.52.42-3.1,1.75-3.11s3.38,1.08,4,1.2,1.69-.1,3.14,0,4,.4,4.85.32a4.38,4.38,0,0,0,1.28-.32,10.44,10.44,0,0,0-2.48-1.12,4.52,4.52,0,0,0-2.15.32s-.64.69-1,.64.46-1.07.46-1.07-2.34-.64-2.32-1,1.92-.13,1.92-.13-1.87-.91-1.78-1.41,2.1.64,2.1.64-1.38-1.32-1.12-1.6,2.08,1,2.08,1-1.16-1.24-.84-1.51,1.68,1.38,1.68,1.38l2.4.88c.66.24,6.42,2.49,7.42,2.43" transform="translate(-651.85 -362.61)"/><path class="cls-4" d="M696.1,368.59a38.54,38.54,0,0,1,9.59.48,1.29,1.29,0,0,0,.95-.24c.41-.33-.06-2.89,1.71-4.61,2.49-2.43,6-.48,6.71,1.81a5.17,5.17,0,0,1-.21,3.25l-.69.8s.4,1.23.16,1.6-.91.32-.91.32a5.26,5.26,0,0,1-1.17,1.71c-.69.57-2.21-.33-3.46,0a28.16,28.16,0,0,0-2.93,1s.12.51-.05.69-.75,0-.75,0a17.34,17.34,0,0,1-4,3.14c-2.21,1.12-9.42,2-9.42,2l1.91,6.23a5,5,0,0,1,.8,2.64c-.14,1.19-1,1.92-1.91,2.88a66.44,66.44,0,0,0-4.64,6.31,22.64,22.64,0,0,0-1.28,2.56,6.75,6.75,0,0,0,0,1.68s2.12,1.74,2.56,2,2.42.16,2.88.48.2.7-.32,1.12-4.19.8-5.12.8a26.8,26.8,0,0,1-4.39,0c-.81-.24-1.27-.58-1.27-1.2s.42-2.77,1.2-2.95c1-.87,2.52-5.55,2.71-6.47s.52-3.29,1.52-4.63a22.65,22.65,0,0,1,2.08-2.4c.24-.23-1.51-2.39-1.51-2.39s-4.58.32-4.8.08a7.13,7.13,0,0,1-.4-1.83l-2.87,2.8s-2,1.74-2.4,2.08a3.92,3.92,0,0,1-2.72,2.55,37.36,37.36,0,0,1-5-.88s-5.17-1.51-6.63-1.67a8.52,8.52,0,0,0-2.71.16l-1,.24s.46.78,0,1a5.8,5.8,0,0,1-1.52.41s-1.31,3.93-2.55,4-2.05-1.6-1.82-3.27,1.4-3.2,1.52-3.68c1-3.43,2-3.65,2.39-3.77.64-.1,1.76.88,1.76.88l1,.91a42.4,42.4,0,0,1,5.84-.64,31.07,31.07,0,0,1,6.23.64s-1-.9-1.12-1.51a1.45,1.45,0,0,1,.4-1.44,13.76,13.76,0,0,0,1.43-1.2c.41-.44,2.2-5.31,3-6.87s2.4-4.07,2.4-4.07-2.08-.32-2.47-1.12c-.44-1.52.42-3.1,1.75-3.11s3.38,1.08,4,1.2,1.69-.1,3.14,0,4,.4,4.85.32a4.38,4.38,0,0,0,1.28-.32,10.44,10.44,0,0,0-2.48-1.12,4.52,4.52,0,0,0-2.15.32s-.64.69-1,.64.46-1.07.46-1.07-2.34-.64-2.32-1,1.92-.13,1.92-.13-1.87-.91-1.78-1.41,2.1.64,2.1.64-1.38-1.32-1.12-1.6,2.08,1,2.08,1-1.16-1.24-.84-1.51,1.68,1.38,1.68,1.38l2.4.88C689.34,366.4,695.1,368.65,696.1,368.59Z" transform="translate(-651.85 -362.61)"/><path class="cls-5" d="M696.1,368.59a38.54,38.54,0,0,1,9.59.48,1.29,1.29,0,0,0,.95-.24c.41-.33-.06-2.89,1.71-4.61,2.49-2.43,6-.48,6.71,1.81a5.17,5.17,0,0,1-.21,3.25l-.69.8s.4,1.23.16,1.6-.91.32-.91.32a5.26,5.26,0,0,1-1.17,1.71c-.69.57-2.21-.33-3.46,0a28.16,28.16,0,0,0-2.93,1s.12.51-.05.69-.75,0-.75,0a17.34,17.34,0,0,1-4,3.14c-2.21,1.12-9.42,2-9.42,2l1.91,6.23a5,5,0,0,1,.8,2.64c-.14,1.19-1,1.92-1.91,2.88a66.44,66.44,0,0,0-4.64,6.31,22.64,22.64,0,0,0-1.28,2.56,6.75,6.75,0,0,0,0,1.68s2.12,1.74,2.56,2,2.42.16,2.88.48.2.7-.32,1.12-4.19.8-5.12.8a26.8,26.8,0,0,1-4.39,0c-.81-.24-1.27-.58-1.27-1.2s.42-2.77,1.2-2.95c1-.87,2.52-5.55,2.71-6.47s.52-3.29,1.52-4.63a22.65,22.65,0,0,1,2.08-2.4c.24-.23-1.51-2.39-1.51-2.39s-4.58.32-4.8.08a7.13,7.13,0,0,1-.4-1.83l-2.87,2.8s-2,1.74-2.4,2.08a3.92,3.92,0,0,1-2.72,2.55,37.36,37.36,0,0,1-5-.88s-5.17-1.51-6.63-1.67a8.52,8.52,0,0,0-2.71.16l-1,.24s.46.78,0,1a5.8,5.8,0,0,1-1.52.41s-1.31,3.93-2.55,4-2.05-1.6-1.82-3.27,1.4-3.2,1.52-3.68c1-3.43,2-3.65,2.39-3.77.64-.1,1.76.88,1.76.88l1,.91a42.4,42.4,0,0,1,5.84-.64,31.07,31.07,0,0,1,6.23.64s-1-.9-1.12-1.51a1.45,1.45,0,0,1,.4-1.44,13.76,13.76,0,0,0,1.43-1.2c.41-.44,2.2-5.31,3-6.87s2.4-4.07,2.4-4.07-2.08-.32-2.47-1.12c-.44-1.52.42-3.1,1.75-3.11s3.38,1.08,4,1.2,1.69-.1,3.14,0,4,.4,4.85.32a4.38,4.38,0,0,0,1.28-.32,10.44,10.44,0,0,0-2.48-1.12,4.52,4.52,0,0,0-2.15.32s-.64.69-1,.64.46-1.07.46-1.07-2.34-.64-2.32-1,1.92-.13,1.92-.13-1.87-.91-1.78-1.41,2.1.64,2.1.64-1.38-1.32-1.12-1.6,2.08,1,2.08,1-1.16-1.24-.84-1.51,1.68,1.38,1.68,1.38l2.4.88c.66.24,6.42,2.49,7.42,2.43" transform="translate(-651.85 -362.61)"/><path class="cls-6" d="M689.71,369.1s4.47.11,6.39-.51m-18.93,3.55s-.56.76-.08.79,1.84-1.15,1.84-1.15,2.4.12,4.12.37,4.51,1.54,8,1.58a15.32,15.32,0,0,0,4.83,1.12,8.79,8.79,0,0,0,1.08-5.41c-.32-.47-3,.52-4.35.64a17.5,17.5,0,0,1-4.2-.64" transform="translate(-651.85 -362.61)"/></g></svg>