<svg id="Layer_1" data-name="Layer 1" xmlns="http://www.w3.org/2000/svg" xmlns:xlink="http://www.w3.org/1999/xlink" viewBox="0 0 112.97 70.86"><defs><style>.cls-1{fill:none;}.cls-2{clip-path:url(#clip-path);}.cls-3{fill:#404040;}</style><clipPath id="clip-path" transform="translate(-627.03 -350.11)"><rect class="cls-1" x="627.03" y="329.05" width="112.97" height="112.97"/></clipPath></defs><title>superolateral_reach</title><g class="cls-2"><path class="cls-3" d="M702.93,366.81l-1-.38-8,3.53-5-1.06-3.09,1.33v1.84l2.28.45-10.39,4.57-2.39.06-1.45-3.74h-5.36v1.89l.52,2h-.82l-10.88-2.83.26-.1v-2.17l-3.45-.81-4,1.26-22.5-5.85c-.73-.19-.75,1.34,0,1.34.36,0,10.14,2.62,20,5.29l-1.51.47v1.81l4.25,1.34,4.53-1.68L668.06,379h1.33l.59,2.26h2.67l5,15-5.85.31V399l.76,3.22,7-.35c3.09,9.21,6,18,6.23,18.49.42,1.09,2.22.51,1.92-.34l-6.32-18.24,6.32-.32v-2.34l-1.41-3.34-6.87.36-5.16-14.9h1.91v-1.82L676,379h1.67L690.24,373l4.93,1,2.42-1.34v-1.84l-1.94-.41Z" transform="translate(-627.03 -350.11)"/><path class="cls-3" d="M674.2,350.12c3.93-.25,7.83,4.56,11.15,4.79s7.16-2.53,11.59-1.67,9.14,5.8,9.14,5.8,4,1.95,5.52,2.89c3.76,1,4.68,0,7.64.95s5.77,3.66,9.08,4.74c1.62.67,3.51.45,4,.83.86.67,0,3.24,0,3.24a34.55,34.55,0,0,0,4.46,2.56c1.56.61,2.84.78,3.13,1.56s-.18,1.81-.34,2.67-.88,4.68-1,5.13a2.4,2.4,0,0,1-.58,1,2.11,2.11,0,0,1-.62.76,1.68,1.68,0,0,1-.89,0,1.23,1.23,0,0,1-1.19-.42c-1.34.17-1.12-.5-1.12-.5s.55-1.07.76-1.45a10.18,10.18,0,0,0-.36-4c-.4-1.06-2.57-2.82-2.57-2.82a13.68,13.68,0,0,0-1.33.67c-1.56.67-2.2.36-2.32.09s.31-.67.31-.67a.51.51,0,0,1,.11-.31c.14-.18.67-.19.67-.19s.38-.21.67-.39a106,106,0,0,0-12.31-4.19,23.26,23.26,0,0,1-2.5-.25c-1.21-.21-10.33-1.18-16.8-5.18a7.72,7.72,0,0,1-3.26-1.47c-4.36,2.23-11.47,1.73-13.92,1.34-.81-.05-3.82,1.26-4.72.88a42.88,42.88,0,0,1,.29,6.31,21.89,21.89,0,0,1-.41,4.64,2.38,2.38,0,0,1-1.25,1.09,4.53,4.53,0,0,1-1.42-.17,9.88,9.88,0,0,1-2.06.52.46.46,0,0,1-.45-.46v0l.67-.28a9.64,9.64,0,0,0-1.42.16l-.67.26s0,.5-.22.61a.51.51,0,0,1-.61-.14.53.53,0,0,1,0-.39.26.26,0,0,1-.28-.24,1.4,1.4,0,0,1,.61-.92l.48-.25s-.32-.06-.22-.28,1.47-.16,1.72-.16.78-.39,1.14-.42,1.34.18,1.56.17.8-.31.84-.5a45.43,45.43,0,0,0-.84-4.8c-.3-1.22-1.43-3.81-1.62-4.51s.31-1.76.29-2l-.15-1.34a3.05,3.05,0,0,0-2.42.45c-1,.81-2.87,3.34-3.48,3.87A16.25,16.25,0,0,1,665,369a20.69,20.69,0,0,1-2.81,2.48c-1.09.67-5.63,2.59-5.63,2.59a2.91,2.91,0,0,1-.53,1.09,4.69,4.69,0,0,1-1.7.26c-.5,0-2.38.82-2.82.86a1.52,1.52,0,0,1-.91-.36.4.4,0,0,1-.12-.48c.1-.14.79,0,1,0s3-2.17,3-2.17A18.31,18.31,0,0,0,656,372c.32-.33,2-2.17,2.79-2.92s3.17-2.62,3.17-2.62,2.56-2.68,2.63-2.92a2.66,2.66,0,0,1,.33-1.2s-6.24-1-4.68-6.86c1-3.73,5.27-3.51,6-3.34,1.14.11,1.81,1.42,2.67,1.59a2.12,2.12,0,0,0,1.34-.11s1-3.2,4-3.45" transform="translate(-627.03 -350.11)"/><path class="cls-3" d="M674.2,350.12c3.93-.25,7.83,4.56,11.15,4.79s7.16-2.53,11.59-1.67,9.14,5.8,9.14,5.8,4,1.95,5.52,2.89c3.76,1,4.68,0,7.64.95s5.77,3.66,9.08,4.74c1.62.67,3.51.45,4,.83.86.67,0,3.24,0,3.24a34.55,34.55,0,0,0,4.46,2.56c1.56.61,2.84.78,3.13,1.56s-.18,1.81-.34,2.67-.88,4.68-1,5.13a2.4,2.4,0,0,1-.58,1,2.11,2.11,0,0,1-.62.76,1.68,1.68,0,0,1-.89,0,1.23,1.23,0,0,1-1.19-.42c-1.34.17-1.12-.5-1.12-.5s.55-1.07.76-1.45a10.18,10.18,0,0,0-.36-4c-.4-1.06-2.57-2.82-2.57-2.82a13.68,13.68,0,0,0-1.33.67c-1.56.67-2.2.36-2.32.09s.31-.67.31-.67a.51.51,0,0,1,.11-.31c.14-.18.67-.19.67-.19s.38-.21.67-.39a106,106,0,0,0-12.31-4.19,23.26,23.26,0,0,1-2.5-.25c-1.21-.21-10.33-1.18-16.8-5.18a7.72,7.72,0,0,1-3.26-1.47c-4.36,2.23-11.47,1.73-13.92,1.34-.81-.05-3.82,1.26-4.72.88a42.88,42.88,0,0,1,.29,6.31,21.89,21.89,0,0,1-.41,4.64,2.38,2.38,0,0,1-1.25,1.09,4.53,4.53,0,0,1-1.42-.17,9.88,9.88,0,0,1-2.06.52.46.46,0,0,1-.45-.46v0l.67-.28a9.64,9.64,0,0,0-1.42.16l-.67.26s0,.5-.22.61a.51.51,0,0,1-.61-.14.53.53,0,0,1,0-.39.26.26,0,0,1-.28-.24,1.4,1.4,0,0,1,.61-.92l.48-.25s-.32-.06-.22-.28,1.47-.16,1.72-.16.78-.39,1.14-.42,1.34.18,1.56.17.8-.31.84-.5a45.43,45.43,0,0,0-.84-4.8c-.3-1.22-1.43-3.81-1.62-4.51s.31-1.76.29-2l-.15-1.34a3.05,3.05,0,0,0-2.42.45c-1,.81-2.87,3.34-3.48,3.87A16.25,16.25,0,0,1,665,369a20.69,20.69,0,0,1-2.81,2.48c-1.09.67-5.63,2.59-5.63,2.59a2.91,2.91,0,0,1-.53,1.09,4.69,4.69,0,0,1-1.7.26c-.5,0-2.38.82-2.82.86a1.52,1.52,0,0,1-.91-.36.4.4,0,0,1-.12-.48c.1-.14.79,0,1,0s3-2.17,3-2.17A18.31,18.31,0,0,0,656,372c.32-.33,2-2.17,2.79-2.92s3.17-2.62,3.17-2.62,2.56-2.68,2.63-2.92a2.66,2.66,0,0,1,.33-1.2s-6.24-1-4.68-6.86c1-3.73,5.27-3.51,6-3.34,1.14.11,1.81,1.42,2.67,1.59a2.12,2.12,0,0,0,1.34-.11s1-3.2,4-3.45" transform="translate(-627.03 -350.11)"/><path class="cls-3" d="M668.45,356.58a6.34,6.34,0,0,0-.53,1.7,7.79,7.79,0,0,0-1.11,1.39,6.31,6.31,0,0,0-2,2.46" transform="translate(-627.03 -350.11)"/><path class="cls-3" d="M672.58,363.22s2,3,4,3.21" transform="translate(-627.03 -350.11)"/></g></svg>