<svg id="Layer_1" data-name="Layer 1" xmlns="http://www.w3.org/2000/svg" xmlns:xlink="http://www.w3.org/1999/xlink" viewBox="0 0 174.7 179.48"><defs><style>.cls-1{fill:none;}.cls-2{clip-path:url(#clip-path);}.cls-3{fill:#414142;}</style><clipPath id="clip-path" transform="translate(-601.98 -287.12)"><rect id="SVGID" class="cls-1" x="577.99" y="286" width="209.32" height="197.66"/></clipPath></defs><title>surgeries</title><g class="cls-2"><path class="cls-3" d="M751.11,335.05,733.56,317.5l2.12-2.12,17.55,17.55Zm-55.84,41.07,45.23-45.23,7.39,7.38-45,45Zm71.93,76.29a7.78,7.78,0,0,1-2.3,5.69,7.85,7.85,0,0,1-11.29-.21L663.06,360.4l4.13-4.13,97.51,90.54a7.78,7.78,0,0,1,2.5,5.6m-80.52-52.94-7.38-7.39,3.61-3.61,7.11,7.66Zm-9.91,9.91-17.55-17.55,2.41-2.41L679.18,407Zm-19.88,4.82-2.49-2.5,9.12-9.12,2.5,2.5Zm26.57-11.51-1.05,1.05-17.56-17.55,1-1.05Zm-3.66-17.56-3.73,3.73-6.94-6.94,4-4Zm-73.12-90.55c22.62,14.62,51.91,52.51,56.8,58.95l-3.12,3.12-41.88-35.18a32.94,32.94,0,0,1-11.8-26.89m123.65,26.14,6.95,6.94L691.92,373l-7.2-6.69ZM776,313.38,755.23,292.6a2.28,2.28,0,0,0-3.23,3.23l8.56,8.55L745.85,319.1l-8.56-8.56a2.28,2.28,0,0,0-3.22,0l-5.35,5.34-47.34,47.34-12.7-11.79a2.26,2.26,0,0,0-1.52-.6c-2.33-3.07-10.32-13.45-20.45-25-16.24-18.48-30-31-40.82-37.08L603,287.12l-.53,3.78A37.45,37.45,0,0,0,615.55,325l42.06,35.33a2.26,2.26,0,0,0,.61,1.6L670,374.59l-15.63,15.62a2.28,2.28,0,0,0,0,3.23l5.92,5.92L649,410.64a2.29,2.29,0,0,0,0,3.23l1.24,1.24L602,463.38l3.23,3.22,48.27-48.26,1.25,1.25a2.29,2.29,0,0,0,3.22,0l11.29-11.29,5.92,5.92a2.29,2.29,0,0,0,3.22,0l14.75-14.75L750.27,461a12.3,12.3,0,0,0,8.86,4h.24a12.4,12.4,0,0,0,8.43-21.49l-61.53-57.14,51.8-51.79a2.27,2.27,0,0,0,0-3.22l-9-9,14.71-14.71,9,9a2.28,2.28,0,0,0,3.23-3.23" transform="translate(-601.98 -287.12)"/></g></svg>