<svg id="Layer_1" data-name="Layer 1" xmlns="http://www.w3.org/2000/svg" xmlns:xlink="http://www.w3.org/1999/xlink" viewBox="0 0 47.58 60"><defs><style>.cls-1{fill:none;}.cls-2{clip-path:url(#clip-path);}.cls-3{fill:#404040;}</style><clipPath id="clip-path" transform="translate(-660.12 -354.86)"><rect class="cls-1" x="659.39" y="354.86" width="49.04" height="60"/></clipPath></defs><title>time</title><g class="cls-2"><path class="cls-3" d="M683.91,412.79a21.72,21.72,0,1,1,21.73-21.72,21.71,21.71,0,0,1-21.73,21.72m-5.17-50.68a5.17,5.17,0,0,1,10.34,0,5.53,5.53,0,0,1-4.13,5.17v-4.14H687v-2.07h-6.2v2.07h2.07v4.14a5.54,5.54,0,0,1-4.14-5.17m22.76,12.83,2.49-2.49,1.44,1.45,1.44-1.45-4.34-4.34-1.44,1.44,1.44,1.45-2.48,2.48a22.89,22.89,0,0,0-11.58-5.79,6.94,6.94,0,0,0,2.69-5.58,7.25,7.25,0,1,0-14.49,0,7,7,0,0,0,2.69,5.58,24.55,24.55,0,0,0-11.58,5.79L665.29,371l1.45-1.45-1.45-1.44L661,372.45l1.44,1.45,1.46-1.45,2.47,2.49a23.38,23.38,0,0,0-6.2,16.13,23.79,23.79,0,1,0,41.38-16.13" transform="translate(-660.12 -354.86)"/><path class="cls-3" d="M685,406.59v-5.17a1,1,0,0,0-2.07,0v5.17a15.58,15.58,0,0,1-14.49-14.49h5.18a1,1,0,1,0,0-2.06h-5.18a15.59,15.59,0,0,1,14.49-14.49v5.18a1,1,0,0,0,2.07,0v-5.18A15.58,15.58,0,0,1,699.43,390h-5.17a1,1,0,1,0,0,2.06h5.17A15.92,15.92,0,0,1,685,406.59m-1-33.11a17.59,17.59,0,1,0,17.59,17.59,17.58,17.58,0,0,0-17.59-17.59" transform="translate(-660.12 -354.86)"/><path class="cls-3" d="M683.91,392.1a1,1,0,1,1,1-1,1,1,0,0,1-1,1m9.32-10.34a1,1,0,0,0-1.46,0l-6.4,6.41c-.42,0-1-.2-1.46-.2a3.18,3.18,0,0,0-3.1,3.1c0,.42.2,1,.2,1.24l-2.27,2.49a1,1,0,0,0,0,1.45,1,1,0,0,0,1.45,0l2.28-2.28a2.7,2.7,0,0,0,1.24.2,3.17,3.17,0,0,0,3.1-3.1c0-.41-.21-1-.21-1.24l6.41-6.42c.63-.61.63-1.24.22-1.65" transform="translate(-660.12 -354.86)"/></g></svg>