<svg id="Layer_1" data-name="Layer 1" xmlns="http://www.w3.org/2000/svg" xmlns:xlink="http://www.w3.org/1999/xlink" viewBox="0 0 52.87 87.76"><defs><style>.cls-1{fill:none;}.cls-2{clip-path:url(#clip-path);}.cls-3{fill:#414042;}.cls-4{font-size:11.1px;fill:#fff;font-family:MyriadPro-Regular, Myriad Pro;}</style><clipPath id="clip-path" transform="translate(-657.37 -341)"><rect class="cls-1" x="639.92" y="342" width="87.76" height="87.76"/></clipPath></defs><title>triple_broad_jump</title><g class="cls-2"><path class="cls-3" d="M697.83,369.17s1.11.18,1.85-2.68c1.57-4.91,7.22-2.6,7.77-2.41a4.54,4.54,0,0,1,2.68,5.09c-.09.92-1.38,2.78-1.48,3.24-.27.65.47,2,.19,2.4s-1.67,0-1.67,0-1.39,2.6-2.59,2.69-2.22-.93-3-1a21.27,21.27,0,0,0-5.83,1c-.46.37-3,4.35-6.57,5.37l-11.1,3.23,3.6,6.85s2,2,2.23,3.52-1.11,3.33-1.39,4.25l-2.69,9.63a24.23,24.23,0,0,0-.74,3.7,4,4,0,0,0,.74,2,16.9,16.9,0,0,0,2.78,1.75s4.35.56,4.81,1a1.12,1.12,0,0,1,0,1.48,5.46,5.46,0,0,1-3.79,2H679.6c.83.55,1.66,1,2.5,1.48.64.27,3.7.92,3.88,1.48s-.46,1.57-.92,1.94a8.86,8.86,0,0,1-5,1.57c-1.39,0-5.18-.55-5.18-.55s-3.8-.09-4.17-.56.28-5.09.47-5.46.37-.37.64-.46l-.46-9a18.57,18.57,0,0,1-.74-4.44c.19-2.87,2.68-7.12,2.59-7.59a4.9,4.9,0,0,0-.74-1.38s-4.81-.93-6-1-3.52.28-3.89,0-2.41-8.88-3.15-10.64a11.3,11.3,0,0,1-1.29-10.55,6.79,6.79,0,0,1,2.59-2.78c2.4-1.48,21.28-5.92,21.28-5.92s-3.33-4.63-3.88-5.55-9-11.66-9-11.66l-3.15-2-1.29-.92s-2.13-.56-2-1.11,1.76-.47,1.76-.47-2.13-2.77-1.67-3.33,2.78,2.22,2.78,2.22-2.5-3.61-1.85-4,3,2.69,3,2.69-2-3-1.57-3.24,1.57,1.2,1.57,1.2a1.14,1.14,0,0,1,.93-.18c.55.18,1.29,2.12,1.66,2.59l1.76,2.22,1.85,3s3.52,3.33,4.26,4.16l5.55,6.76-4.26-9-2.4-.65-1.85-.64s-.93-.47-.74-.93,1.85,0,2.12-.09.28-.46,0-1.2-3-3.15-2.59-3.61,3.24,2,3.24,2-1.94-3.7-1.39-3.88,2.32,3.42,2.32,3.42-.83-3.33-.37-3.42,1.85,3.24,1.85,3.24.18-2.6.65-2.6.92,3.43.92,3.43a6.93,6.93,0,0,1,.93,3,23.7,23.7,0,0,1,2.4,3.52c.93,1.66,3.06,5.83,3.43,6.2l4.16,4.16a1.64,1.64,0,0,1,.93,0,20.7,20.7,0,0,1,2.31,2.59Z" transform="translate(-657.37 -341)"/><path class="cls-3" d="M696.25,389.8A10.28,10.28,0,1,1,686,400.08a10.28,10.28,0,0,1,10.27-10.28" transform="translate(-657.37 -341)"/></g><text class="cls-4" transform="translate(32.49 62.4)">3x</text></svg>