<svg id="Layer_1" data-name="Layer 1" xmlns="http://www.w3.org/2000/svg" viewBox="0 0 285.4 114.36"><defs><style>.cls-1{fill:#404040;}</style></defs><title>trunk_stability_pushup</title><path class="cls-1" d="M918.31,400.8a.34.34,0,0,0,0-.14,1,1,0,0,1,.25,0,.34.34,0,0,0,0,.14,1.15,1.15,0,0,1-.26,0Zm1.24-.69q-1.86-1.16-3.75-2.28c-2.15-.43-4.3-.94-6.43-1.46a48.14,48.14,0,0,1-6.09-1.88,24,24,0,0,0-2.95-1c-.22-.06-.75-.1-.93-.13h-.23a5.66,5.66,0,0,1-2.26-.41,4,4,0,0,1-3.1-1.65c-.26-.34-.55-.65-.82-1a2.53,2.53,0,0,1-.54-.78,11.4,11.4,0,0,0-1.6-3.31,2.51,2.51,0,0,1-.16-.46c-.6-1.55-1.2-3.1-1.82-4.64a6.12,6.12,0,0,0-.43-.69,6.18,6.18,0,0,1-.48-.83c-.32-.85-.62-1.72-.9-2.59-.57-1.68-.28-2,1.46-1.79l.47.08a42.53,42.53,0,0,0,6.07.44c1.1,0,2.11-.12,2.55-1.38,0-.1.15-.15.21-.24.46-.69.3-1.26-.43-1.51a14.71,14.71,0,0,0-1.78-.57,5.54,5.54,0,0,0-1.85-.24,2.84,2.84,0,0,1-1.65-.25,3.24,3.24,0,0,0-1-.33,21.41,21.41,0,0,1-4.36-1.22,3.78,3.78,0,0,1-2.54-2.63c-.52-1.81-1.18-3.58-1.72-5.38a22.5,22.5,0,0,0-3.67-6.93,72.77,72.77,0,0,1-4.65-6.75,8.36,8.36,0,0,1-1.51-4,3.29,3.29,0,0,0-.24-.77,30.77,30.77,0,0,1-1.29-7,9.54,9.54,0,0,0-1.26-5.18,5.22,5.22,0,0,0,.34-1.23c-.06-.63-.09-1.27-.1-1.92a3.86,3.86,0,0,0-.17-.58,1.52,1.52,0,0,1,.11-.94c.31-.78.66-1.55,1-2.37,1.53-.52,1.53-.52,3,.11a2.35,2.35,0,0,0,.44.17,4,4,0,0,1,2.94,1.53c.63.76,1.33.69,2.07,0,.5-.46.92-1,1.43-1.5.69-.64,1.41-1.26,2.16-1.84a.91.91,0,0,1,1.29.1c.11.11.21.23.34.34a.94.94,0,0,0,1.27.13,19.41,19.41,0,0,1,3.82-1.69,8.49,8.49,0,0,1,1.1-.4l.13-.06a2.63,2.63,0,0,1,.82-.18,10.91,10.91,0,0,1,1.61-.21l.66,0a21,21,0,0,0,2.2-.6,11,11,0,0,1,1.79-1.81,13.36,13.36,0,0,0,.62-1.33c.34-.85.56-1.76,1-2.57,1.45-3,1.71-6.21,1.78-9.47,0-1.38-.13-2.81-.21-4.21,0-.44-.09-.87-.13-1.29a7.46,7.46,0,0,0-1.14-3c-.31-.57-.09-1.33-.63-1.79l-1.55-1.3-.12-.11a5.58,5.58,0,0,0-1.91-1.05,1.54,1.54,0,0,1-.82-.44,4.33,4.33,0,0,0-2.66-1.18c-1.7-.24-3.41-.4-5.11-.69a9.22,9.22,0,0,0-5,.75c-.87.35-1.74.69-2.65,1-1.94.62-3.91,1.15-5.84,1.8a15.73,15.73,0,0,0-2.15.94,18,18,0,0,0-2.65,0,12.29,12.29,0,0,0-1.33.22l-.83-.07a1.21,1.21,0,0,0-.53-.09,9.81,9.81,0,0,0-3.1.23,2.14,2.14,0,0,1-1.37,0c-1.26-.35-2.53-.65-3.79-1a9.62,9.62,0,0,1-1.49-.49q-2.72-1.23-5.42-2.51a12.84,12.84,0,0,0-4-1.22c-2.42-.29-4.86-.6-7.3-.84a18,18,0,0,0-4.21.13,32.65,32.65,0,0,0-5.13,1.38,38.06,38.06,0,0,1-3.93,1.08,90.89,90.89,0,0,0-13.12,3.66c-.66.23-1.32.39-2,.58-1.15.34-2.31.69-3.44,1.05-2.33.8-4.65,1.66-6.95,2.46a3.59,3.59,0,0,1-.47.12A34.8,34.8,0,0,1,796,300.7a44.19,44.19,0,0,1-7.3,1.24,11.42,11.42,0,0,1-3.69-.06,13.7,13.7,0,0,1-3.38-1.42,18.41,18.41,0,0,0-3.24-1.6,14.75,14.75,0,0,0-3.42-.64,19.16,19.16,0,0,0-7,1.06,56.64,56.64,0,0,0-6.8,2.82,23.21,23.21,0,0,0-5.52,3.5c-1.83,1.65-3.51,3.49-5.41,5.08a5.36,5.36,0,0,1-2.07,1.56,20.38,20.38,0,0,1-3.39,1.87l-.67.47a16.15,16.15,0,0,1-2.05,1.2c-1.55.75-3.08,1.6-4.64,2.32-2.54,1.17-5,2.43-7.58,3.57l-.59.33c-1.41.8-2.8,1.66-4.21,2.48-.88.52-1.13.69-1.36,1.23a51.91,51.91,0,0,1-10.48,4.23c-1.86.53-3.76,1-5.67,1.38a11.48,11.48,0,0,1-3.48.65l-.66.09-.67.07-1.32.14c-.91.11-1.79.33-2.66.52-3.32.69-6.69.84-10,1.41l-.21.07-.88.38c-.28.15-.57.28-.86.4a19.54,19.54,0,0,0-4.68,2.18c-2,1.21-4.06,2.44-6.15,3.55-1,.51-1.93,1-2.91,1.49-2.1,1.29-4.33,2.37-6.46,3.62a23.06,23.06,0,0,1-4.36,2.11,16.5,16.5,0,0,1-3.67,1.45,18.77,18.77,0,0,1-4.8,1.1c-1.36,0-2.65-.61-4-.75a2.11,2.11,0,0,0-.61.06c-1.13.23-2.25.51-3.36.85a39.22,39.22,0,0,1-4.31.75,1.55,1.55,0,0,0-.59.21,1.7,1.7,0,0,0-.45-.15,16.68,16.68,0,0,0-4.35.19,1.21,1.21,0,0,0-1.1,1,9.84,9.84,0,0,0-.3,4.18c0,.21.07.42.1.63.44,1.43.81,2.9,1.29,4.32l.33.79a26.59,26.59,0,0,1,1.17,2.82,16.3,16.3,0,0,1,.84,2.76c.73,3.59,1.09,7.1,2.29,10.55.22.5.63,1.5.78,1.81.42.89.84,1.77,1.33,2.63.85,1.64,1.66,3.35,2.65,4.91.12.13.24.26.37.38a1.45,1.45,0,0,0,.4.26h0l.24.08,1.14.27c.66.07,1.37.12,2.06.16a46.71,46.71,0,0,1,6.34-1.11c.21,0,.43,0,.66-.09l1.75-.32.12-.11a6.73,6.73,0,0,0,.58-1.25,7.11,7.11,0,0,1-.74-.81c-1.7-2.22-3.19-4.67-3-7.67.26-3.37,1.75-7.35,5-8.84a14.79,14.79,0,0,1,4.85-1.5l1.77-.63a33.28,33.28,0,0,1,4.36-1.24c3.54-.63,7.12-1,10.69-1.43s7.3-1.07,11-1.58a53.05,53.05,0,0,0,8.54-1.94c1.5-.47,3-1,4.49-1.38a17.57,17.57,0,0,1,6-.75,19.09,19.09,0,0,0,5.43-.39,16.46,16.46,0,0,1,1.84-.32,16.41,16.41,0,0,0,4-.84c.44-.15.88-.29,1.33-.4l4.76-.93c2-.37,2-.37,3.11,1.26.28.4.56.78.8,1.2l.07.13c2.77,1.14,5.87,1.3,8.82,1.73a99,99,0,0,0,12.3.63h.16a36,36,0,0,0,16.12-4.38c2.35-1.19,4.8-2.34,7-3.75,3.06-1.91,5.4-4.7,8-7.23.46-.75.88-1.54,1.33-2.31l0-.08c.05-.61.09-1.21.15-1.81,0-.31.06-.62.08-.93,1.18,0,1.66.11,2,1a2.31,2.31,0,0,0,1.74,1.45c.66.19,1.32.37,1.94.61a32.52,32.52,0,0,0,11.49,2.07,14.05,14.05,0,0,1,1.72.08,39.43,39.43,0,0,0,6.24.24,16.78,16.78,0,0,1,2.65.18,45,45,0,0,0,5.31.52,105.53,105.53,0,0,0,13.41-.83,28.56,28.56,0,0,0,3.69-.69A33.13,33.13,0,0,0,847,341a8,8,0,0,1,1-.43c0,.16.07.28.1.39a2.92,2.92,0,0,1,2.15.92,5.1,5.1,0,0,1,1.42,3.09l.16.35c.67,1.41,1.23,2.87,2,4.23a72,72,0,0,0,6.45,10.35c.75,1,1.46,2,2.14,3a29,29,0,0,0,2.81,3.69,6.32,6.32,0,0,1,1,1.44c.88,1.78,1.69,3.6,2.57,5.37a33.73,33.73,0,0,0,2.6,5c1,1.43,1.93,2.95,2.89,4.43a20,20,0,0,0,1.09,1.77c.94,1.3,1.92,2.56,2.89,3.84a63.76,63.76,0,0,0,4.82,6.16,2.3,2.3,0,0,1,.47.64,1.62,1.62,0,0,1,0,.62,2.34,2.34,0,0,1,.09.38,3.59,3.59,0,0,0,.74,1.72c.54.36,1.08.69,1.65,1,1,.58,2,1.15,3,1.66l.39.19.15.06c.33.12.66.25,1,.35a35,35,0,0,0,5.87,1.38H897c.55.07,1.09.12,1.64.16.91.07,1.8.13,2.7.15,2.19.07,4.39.05,6.58,0,2.66,0,5.31-.13,8-.31l.38,0h.35l2.45-.2a1.57,1.57,0,0,0,.31-.18c.16-.35.36-.69.52-1.12s.08-.68-.38-1" transform="translate(-634.6 -288.62)"/></svg>