<svg id="Layer_1" data-name="Layer 1" xmlns="http://www.w3.org/2000/svg" xmlns:xlink="http://www.w3.org/1999/xlink" viewBox="0 0 63.02 63.28"><defs><style>.cls-1,.cls-5,.cls-6{fill:none;}.cls-2{fill:#404040;}.cls-3{clip-path:url(#clip-path);}.cls-4{fill:#eb5959;}.cls-5{stroke:#fff;}.cls-5,.cls-6{stroke-miterlimit:10;stroke-width:0.76px;}.cls-6{stroke:#fefefe;}</style><clipPath id="clip-path" transform="translate(-652.39 -354.31)"><rect class="cls-1" x="652.77" y="354.16" width="62.25" height="63.96"/></clipPath></defs><title>upper_mcs</title><polygon class="cls-2" points="10.41 23.96 10.41 63.28 21.82 63.28 21.82 61.11 17.35 23.96 10.41 23.96"/><g class="cls-3"><path class="cls-4" d="M710.47,363.42s-5.06-1.36-7-1.24-5,1.82-5,1.82a31.7,31.7,0,0,1-7.27-1.81c-2.51-1.19-6.11-4.33-10.79-3.44-1.34.23-2.75-.13-3.92,0a2.22,2.22,0,0,0-1.34.76s-2-3.53-4.2-4.3-5.26.68-5.26.68l-2.94,1.6s-3.51-4.82-7.93-1.81a5.11,5.11,0,0,0-1.53,5.45,10.69,10.69,0,0,0,2.67,3.54,5.4,5.4,0,0,0-1.23,1.92,2.72,2.72,0,0,0-.1,1.52s-2.08,3.11-1.91,5.65a9.51,9.51,0,0,0,1.63,4.5l2.72,4.25a10.82,10.82,0,0,0-.38,3.35c0,2.44.7,5,.67,5.69a13.25,13.25,0,0,1-.81,2.67l-.85,2.44s-.13,1,.19,1.1,1.44-2.34,1.44-2.34-.29,2.59,0,2.83.72.33.86,0a25.5,25.5,0,0,0,.29-3,23.41,23.41,0,0,0,.15,3c.14.21,1.19.22,1.19,0L660,395s-.14,2.94.1,3.06.86.2.94-.12l.43-1.89a.94.94,0,0,0,.59-.48,5.2,5.2,0,0,0,0-2.48,20,20,0,0,1-.91-3c-.1-.86.43-6.65.48-8-.09-2.87-.58-3.64-.58-3.64L660,376a3,3,0,0,1-.15-1.57c.24-.94,1.58-.58,1.58-.58s1.53,2,5.45,3a13.12,13.12,0,0,0,2.87.1l.91.67-2.11,2.91a6.8,6.8,0,0,0-2.29-.24,8.34,8.34,0,0,0-2.77,1.63c-.81.68-1.93,3.13-1.57,3.35s2.39-.38,2.39-.38a.94.94,0,0,0,.86.43c.68,0,1.77-.81,2.3-1s1.91-.17,2.63-.43a9.33,9.33,0,0,0,2.15-2l3.44-4a4.76,4.76,0,0,0,1.87.29c3.2-.39,5.49-4.4,5.49-4.4l6,.34,1.38-.05a2.23,2.23,0,0,0,1.77,1.68,5.76,5.76,0,0,0,4.78-2l2-4.1s2.83-1.26,4-1.58,4.06-1.21,4.69-1.29a7.68,7.68,0,0,1,2,.29l.42,1.15s.51,2.39.53,2.77-.45,1.92-.38,2.3.53,1,1.63,1a4.43,4.43,0,0,0,2-.53,5.13,5.13,0,0,0,1.29-2.53c0-1.1-.92-3-.85-3.59a29.14,29.14,0,0,0,.19-3.1,1.9,1.9,0,0,0-1-1.34,8.39,8.39,0,0,0-2.38-.38c-.58.14-.55.52-.55.52" transform="translate(-652.39 -354.31)"/><path class="cls-5" d="M710.47,363.42s-5.06-1.36-7-1.24-5,1.82-5,1.82a31.7,31.7,0,0,1-7.27-1.81c-2.51-1.19-6.11-4.33-10.79-3.44-1.34.23-2.75-.13-3.92,0a2.22,2.22,0,0,0-1.34.76s-2-3.53-4.2-4.3-5.26.68-5.26.68l-2.94,1.6s-3.51-4.82-7.93-1.81a5.11,5.11,0,0,0-1.53,5.45,10.69,10.69,0,0,0,2.67,3.54,5.4,5.4,0,0,0-1.23,1.92,2.72,2.72,0,0,0-.1,1.52s-2.08,3.11-1.91,5.65a9.51,9.51,0,0,0,1.63,4.5l2.72,4.25a10.82,10.82,0,0,0-.38,3.35c0,2.44.7,5,.67,5.69a13.25,13.25,0,0,1-.81,2.67l-.85,2.44s-.13,1,.19,1.1,1.44-2.34,1.44-2.34-.29,2.59,0,2.83.72.33.86,0a25.5,25.5,0,0,0,.29-3,23.41,23.41,0,0,0,.15,3c.14.21,1.19.22,1.19,0L660,395s-.14,2.94.1,3.06.86.2.94-.12l.43-1.89a.94.94,0,0,0,.59-.48,5.2,5.2,0,0,0,0-2.48,20,20,0,0,1-.91-3c-.1-.86.43-6.65.48-8-.09-2.87-.58-3.64-.58-3.64L660,376a3,3,0,0,1-.15-1.57c.24-.94,1.58-.58,1.58-.58s1.53,2,5.45,3a13.12,13.12,0,0,0,2.87.1l.91.67-2.11,2.91a6.8,6.8,0,0,0-2.29-.24,8.34,8.34,0,0,0-2.77,1.63c-.81.68-1.93,3.13-1.57,3.35s2.39-.38,2.39-.38a.94.94,0,0,0,.86.43c.68,0,1.77-.81,2.3-1s1.91-.17,2.63-.43a9.33,9.33,0,0,0,2.15-2l3.44-4a4.76,4.76,0,0,0,1.87.29c3.2-.39,5.49-4.4,5.49-4.4l6,.34,1.38-.05a2.23,2.23,0,0,0,1.77,1.68,5.76,5.76,0,0,0,4.78-2l2-4.1s2.83-1.26,4-1.58,4.06-1.21,4.69-1.29a7.68,7.68,0,0,1,2,.29l.42,1.15s.51,2.39.53,2.77-.45,1.92-.38,2.3.53,1,1.63,1a4.43,4.43,0,0,0,2-.53,5.13,5.13,0,0,0,1.29-2.53c0-1.1-.92-3-.85-3.59a29.14,29.14,0,0,0,.19-3.1,1.9,1.9,0,0,0-1-1.34,8.39,8.39,0,0,0-2.38-.38C710.44,363,710.47,363.42,710.47,363.42Z" transform="translate(-652.39 -354.31)"/><path class="cls-2" d="M710.47,363.42s-5.06-1.36-7-1.24-5,1.82-5,1.82a31.7,31.7,0,0,1-7.27-1.81c-2.51-1.19-6.11-4.33-10.79-3.44-1.34.23-2.75-.13-3.92,0a2.22,2.22,0,0,0-1.34.76s-2-3.53-4.2-4.3-5.26.68-5.26.68l-2.94,1.6s-3.51-4.82-7.93-1.81a5.11,5.11,0,0,0-1.53,5.45,10.69,10.69,0,0,0,2.67,3.54,5.4,5.4,0,0,0-1.23,1.92,2.72,2.72,0,0,0-.1,1.52s-2.08,3.11-1.91,5.65a9.51,9.51,0,0,0,1.63,4.5l2.72,4.25a10.82,10.82,0,0,0-.38,3.35c0,2.44.7,5,.67,5.69a13.25,13.25,0,0,1-.81,2.67l-.85,2.44s-.13,1,.19,1.1,1.44-2.34,1.44-2.34-.29,2.59,0,2.83.72.33.86,0a25.5,25.5,0,0,0,.29-3,23.41,23.41,0,0,0,.15,3c.14.21,1.19.22,1.19,0L660,395s-.14,2.94.1,3.06.86.2.94-.12l.43-1.89a.94.94,0,0,0,.59-.48,5.2,5.2,0,0,0,0-2.48,20,20,0,0,1-.91-3c-.1-.86.43-6.65.48-8-.09-2.87-.58-3.64-.58-3.64L660,376a3,3,0,0,1-.15-1.57c.24-.94,1.58-.58,1.58-.58s1.53,2,5.45,3a13.12,13.12,0,0,0,2.87.1l.91.67-2.11,2.91a6.8,6.8,0,0,0-2.29-.24,8.34,8.34,0,0,0-2.77,1.63c-.81.68-1.93,3.13-1.57,3.35s2.39-.38,2.39-.38a.94.94,0,0,0,.86.43c.68,0,1.77-.81,2.3-1s1.91-.17,2.63-.43a9.33,9.33,0,0,0,2.15-2l3.44-4a4.76,4.76,0,0,0,1.87.29c3.2-.39,5.49-4.4,5.49-4.4l6,.34,1.38-.05a2.23,2.23,0,0,0,1.77,1.68,5.76,5.76,0,0,0,4.78-2l2-4.1s2.83-1.26,4-1.58,4.06-1.21,4.69-1.29a7.68,7.68,0,0,1,2,.29l.42,1.15s.51,2.39.53,2.77-.45,1.92-.38,2.3.53,1,1.63,1a4.43,4.43,0,0,0,2-.53,5.13,5.13,0,0,0,1.29-2.53c0-1.1-.92-3-.85-3.59a29.14,29.14,0,0,0,.19-3.1,1.9,1.9,0,0,0-1-1.34,8.39,8.39,0,0,0-2.38-.38c-.58.14-.55.52-.55.52" transform="translate(-652.39 -354.31)"/></g><polygon class="cls-2" points="26.85 43.39 3.5 43.39 3.5 50.6 27.49 50.6 27.49 47.48 26.85 43.39"/><polygon class="cls-6" points="26.85 43.39 3.5 43.39 3.5 50.6 27.49 50.6 27.49 47.48 26.85 43.39"/></svg>