<svg id="Layer_1" data-name="Layer 1" xmlns="http://www.w3.org/2000/svg" xmlns:xlink="http://www.w3.org/1999/xlink" viewBox="0 0 61.93 63.96"><defs><style>.cls-1,.cls-4{fill:none;}.cls-2{clip-path:url(#clip-path);}.cls-3{fill:#404040;}.cls-4{stroke:#fff;stroke-linecap:round;stroke-miterlimit:10;stroke-width:0.78px;}</style><clipPath id="clip-path" transform="translate(-652.93 -353.68)"><rect class="cls-1" x="652.77" y="353.68" width="62.25" height="63.96"/></clipPath></defs><title>upper_body_clearing</title><g class="cls-2"><path class="cls-3" d="M656,401.61a81.32,81.32,0,0,0,11.55.88s.54,8.63.72,15.15H699.5c.19-6.52.74-15.15.74-15.15a81.08,81.08,0,0,0,11.54-.89,2.36,2.36,0,0,0,3.07-2.37s.19-4-.79-6-4.15-3.67-5-5a26.52,26.52,0,0,0-3.55-4.74c-1-.9-2.07-1.48-6.22-1.29s-8.58-3.25-8.58-3.25l-1-1.09.49-5.52a6.84,6.84,0,0,0,.49-2.27c3.41-1.5,3.11-4.51,2.37-5.23s-1.33.34-1.33.34,2-10.38-6.6-11.45h-2.37c-8.61,1.07-6.61,11.45-6.61,11.45s-.74-1-1.33-.34-1,3.73,2.36,5.23a7.11,7.11,0,0,0,.5,2.27l.49,5.52-1,1.09s-4.44,3.45-8.59,3.26-5.22.39-6.21,1.28a29.07,29.07,0,0,0-3.56,4.74c-.91,1.37-4.06,3.06-5,5s-.81,6-.81,6a2.37,2.37,0,0,0,3.08,2.37" transform="translate(-652.93 -353.68)"/><path class="cls-4" d="M700.5,390.25a4.58,4.58,0,0,0,0,3.56m-.12,8.68s-14.31-2.07-16.33-5.55c-.35-1.41,0-17.69,0-18.36s1.28-.82,1.35,0,.45,6.07,1.41,8.37a34.19,34.19,0,0,1,1.56,6.15,2.56,2.56,0,0,0,.82,1.18c1,.37,11.4-.38,12.58-.66,3-1.93,8.22-2,8.22-2m-42.42,10.87s14.31-2.07,16.32-5.55c.36-1.41,0-17.69,0-18.36s-1.28-.82-1.35,0-.44,6.07-1.4,8.37a34.8,34.8,0,0,0-1.55,6.15,2.54,2.54,0,0,1-.81,1.18c-1,.37-11.4-.38-12.58-.66-3-1.93-8.22-2-8.22-2" transform="translate(-652.93 -353.68)"/></g></svg>