<?xml version="1.0" encoding="utf-8"?>
<!-- Generator: Adobe Illustrator 22.0.1, SVG Export Plug-In . SVG Version: 6.00 Build 0)  -->
<svg version="1.1" id="Layer_1" xmlns="http://www.w3.org/2000/svg" xmlns:xlink="http://www.w3.org/1999/xlink" x="0px" y="0px"
	 viewBox="0 0 82.4 82.8" style="enable-background:new 0 0 82.4 82.8;" xml:space="preserve">
<style type="text/css">
	.st0{fill:#FFFFFF;stroke:#EB5858;stroke-miterlimit:10;}
	.st1{fill:#FBDEDE;}
</style>
<title>upper_body_clearing_screen_left</title>
<path class="st0" d="M76.8,11c1,0,2.1,0.2,3.1,0.5c0.6,0.4,1.1,1.1,1.2,1.8c0,1.4,0,2.8-0.2,4.1c-0.1,0.8,1.1,3.3,1.1,4.7
	s-1.7,3.3-1.7,3.3c-0.8,0.4-1.7,0.7-2.6,0.7c-1.4,0-2-0.8-2.1-1.3s0.5-2.5,0.5-3s-0.7-3.6-0.7-3.6l-0.6-1.5
	c-0.9-0.3-1.7-0.4-2.6-0.4c-0.8,0.1-4.6,1.2-6.1,1.7s-5.2,2.1-5.2,2.1l-2.8,5.4c-1.5,1.8-3.8,2.8-6.2,2.6c-1.1-0.2-2-1.1-2.3-2.2
	L47.8,26l-7.9-0.5c0,0-3,5.3-7.2,5.8c-0.8,0-1.6-0.1-2.4-0.4l-4.5,5.2c0,0-1.9,2.2-2.8,2.6s-2.7,0.4-3.4,0.6s-2.1,1.3-3,1.3
	c-0.4,0-0.9-0.2-1.1-0.6c0,0-2.8,0.7-3.2,0.4s1-3.5,2.1-4.4c1-0.9,2.3-1.6,3.6-2.1c1-0.1,2,0,3,0.3l2.8-3.8l-1.2-0.9
	c-1.3,0.1-2.6,0.1-3.8-0.1c-5.1-1.3-7.1-3.9-7.1-3.9s-1.8-0.4-2.1,0.8c-0.1,0.7,0,1.4,0.2,2.1l1.5,3.3c0,0,0.7,1,0.8,4.8
	c0,1.7-0.7,9.3-0.6,10.4c0.3,1.3,0.7,2.6,1.2,3.9c0.2,1,0.2,2.1-0.1,3.2c-0.2,0.3-0.5,0.5-0.8,0.6l-0.6,2.5
	c-0.1,0.5-0.9,0.4-1.2,0.2s-0.1-4-0.1-4l-0.2,4.2c-0.1,0.3-1.4,0.3-1.6,0c-0.2-1.3-0.2-2.6-0.2-3.9c-0.1,1.3-0.2,2.6-0.4,3.9
	c-0.2,0.4-0.8,0.3-1.1,0s0.1-3.7,0.1-3.7S5,57,4.6,56.8s-0.2-1.4-0.2-1.4l1.1-3.2c0.5-1.1,0.9-2.3,1.1-3.5c0-0.9-0.9-4.2-0.9-7.4
	c-0.1-1.5,0.1-3,0.5-4.4l-3.6-5.6c-1.2-1.8-1.9-3.8-2.1-5.9C0.3,22.1,3,18,3,18c-0.2-0.7-0.1-1.4,0.1-2c0.3-0.9,0.9-1.8,1.6-2.5
	C3.2,12.2,2,10.7,1.2,8.9C1,8.3,0,4.4,3.2,1.8C9-2.1,13.6,4.2,13.6,4.2l3.9-2.1c0,0,4.2-1.9,7-0.9S30,6.8,30,6.8
	c0.5-0.5,1.1-0.9,1.8-1c1.5-0.2,3.4,0.3,5.1,0C43,4.6,47.7,8.7,51,10.3s9.5,2.4,9.5,2.4s4-2.2,6.5-2.4s9.1,1.6,9.1,1.6
	S76,11.4,76.8,11z"/>
<path class="st1" d="M76.8,11c1,0,2.1,0.2,3.1,0.5c0.6,0.4,1.1,1.1,1.2,1.8c0,1.4,0,2.8-0.2,4.1c-0.1,0.8,1.1,3.3,1.1,4.7
	s-1.7,3.3-1.7,3.3c-0.8,0.4-1.7,0.7-2.6,0.7c-1.4,0-2-0.8-2.1-1.3s0.5-2.5,0.5-3s-0.7-3.6-0.7-3.6l-0.6-1.5
	c-0.9-0.3-1.7-0.4-2.6-0.4c-0.8,0.1-4.6,1.2-6.1,1.7s-5.2,2.1-5.2,2.1l-2.8,5.4c-1.5,1.8-3.8,2.8-6.2,2.6c-1.1-0.2-2-1.1-2.3-2.2
	L47.8,26l-7.9-0.5c0,0-3,5.3-7.2,5.8c-0.8,0-1.6-0.1-2.4-0.4l-4.5,5.2c0,0-1.9,2.2-2.8,2.6s-2.7,0.4-3.4,0.6s-2.1,1.3-3,1.3
	c-0.4,0-0.9-0.2-1.1-0.6c0,0-2.8,0.7-3.2,0.4s1-3.5,2.1-4.4c1-0.9,2.3-1.6,3.6-2.1c1-0.1,2,0,3,0.3l2.8-3.8l-1.2-0.9
	c-1.3,0.1-2.6,0.1-3.8-0.1c-5.1-1.3-7.1-3.9-7.1-3.9s-1.8-0.4-2.1,0.8c-0.1,0.7,0,1.4,0.2,2.1l1.5,3.3c0,0,0.7,1,0.8,4.8
	c0,1.7-0.7,9.3-0.6,10.4c0.3,1.3,0.7,2.6,1.2,3.9c0.2,1,0.2,2.1-0.1,3.2c-0.2,0.3-0.5,0.5-0.8,0.6l-0.6,2.5
	c-0.1,0.5-0.9,0.4-1.2,0.2s-0.1-4-0.1-4l-0.2,4.2c-0.1,0.3-1.4,0.3-1.6,0c-0.2-1.3-0.2-2.6-0.2-3.9c-0.1,1.3-0.2,2.6-0.4,3.9
	c-0.2,0.4-0.8,0.3-1.1,0s0.1-3.7,0.1-3.7S5,57,4.6,56.8s-0.2-1.4-0.2-1.4l1.1-3.2c0.5-1.1,0.9-2.3,1.1-3.5c0-0.9-0.9-4.2-0.9-7.4
	c-0.1-1.5,0.1-3,0.5-4.4l-3.6-5.6c-1.2-1.8-1.9-3.8-2.1-5.9C0.3,22.1,3,18,3,18c-0.2-0.7-0.1-1.4,0.1-2c0.3-0.9,0.9-1.8,1.6-2.5
	C3.2,12.2,2,10.7,1.2,8.9C1,8.3,0,4.4,3.2,1.8C9-2.1,13.6,4.2,13.6,4.2l3.9-2.1c0,0,4.2-1.9,7-0.9S30,6.8,30,6.8
	c0.5-0.5,1.1-0.9,1.8-1c1.5-0.2,3.4,0.3,5.1,0C43,4.6,47.7,8.7,51,10.3s9.5,2.4,9.5,2.4s4-2.2,6.5-2.4s9.1,1.6,9.1,1.6
	S76,11.4,76.8,11z"/>
</svg>
