<?xml version="1.0" encoding="utf-8"?>
<!-- Generator: Adobe Illustrator 22.0.1, SVG Export Plug-In . SVG Version: 6.00 Build 0)  -->
<svg version="1.1" id="Layer_2_1_" xmlns="http://www.w3.org/2000/svg" xmlns:xlink="http://www.w3.org/1999/xlink" x="0px" y="0px"
	 viewBox="0 0 257 314.8" style="enable-background:new 0 0 257 314.8;" xml:space="preserve">
<style type="text/css">
	.st0{fill:#FBDEDE;stroke:#EB5858;stroke-miterlimit:10;}
	.st1{fill:none;stroke:#EB5858;stroke-miterlimit:10;}
</style>
<title>hurdle_step-front</title>
<path class="st0" d="M128.9,306.9c0.2,0.8-0.8,4.1-0.8,4.1c-0.1,0.6,0,1.3,0.2,1.9c0.4,0.6,0.9,0.8,2.4,1.1c2.6,0.5,5.2,0.7,7.8,0.8
	c1.7,0,3.4-0.5,5-1.2c0.5-0.9,0.7-1.9,0.4-2.9c-0.4-0.8-0.4-1.7-0.1-2.5c0.4-0.8,0.9-0.9,1.7-1.8H257v-23.5l-3-1.5h-55v-86h-4v33
	h-49c-0.8-2.7-1.2-5.5-1.4-8.4c0.1-3.1,0.2-8.2,0.2-8.2c0.5-0.3,0.7-0.8,0.6-1.4c-0.3-2.2-0.3-4.5,0-6.8c0.6-2.8,2.2-5.8,2.6-9.5
	s2.1-23.2,2.1-23.2c0.9-1.2,1.4-2.7,1.7-4.2c0.2-2.2-1.1-8.7-1.1-8.7s-2-13.5-2.8-15.7c-0.3-1.1-1-2.1-2-2.8
	c0.3-0.7,0.5-1.4,0.5-2.2c-0.1-1-0.6-0.8-0.6-1.8c0-0.6,0.1-1.3,0.2-1.9l0.4-13.3c0.1-4.6,1.5-29.6,1.5-29.6l4.6,4.8
	c0,0,6.5,6.1,7.2,6.1c0.4,0,0.8-0.2,1.2-0.4c0,0,10.2,4.9,13.5,4.8c0.7-0.1,3.1-0.6,3.6-2.8c0.2-0.9,0.3-1.9,0.4-2.8
	c0,0,4-12.1,4.8-19c0.5-4.5,0.4-14.5,0.4-14.5L183.5,55c0.4-0.9,0.8-1.8,1-2.7c0.2-1.6,0.2-3.3,0-4.9H221v-4h-37.4
	c-0.2-0.6-0.3-1-0.3-1s-0.5-1-1.3-1.2c-0.7,0-1.3,0-2,0.2c-0.4-0.3-0.9-0.5-1.4-0.5c-0.6,0-1.3,0.1-1.9,0.2c-0.5-0.2-1-0.3-1.5-0.3
	c-0.6,0.1-1.2,0.1-1.8,0.2l-1.1,0.1c0.2-0.4,0.3-0.8,0.1-1.2c-0.2-0.7-0.6-1.3-1.2-1.2s-1.7,2.3-1.7,2.3s-1.8,0.7-2,1.3
	c-0.1,0.2-0.2,0.6-0.4,1.1h-38.3c-0.1-0.3-0.2-0.7-0.3-1c-0.3-1.7-0.3-3.3,0-5l0.7-5.4c0,0.1,0.1,0.4,0.8-0.1
	c0.9-0.6,2.6-6.6,3.3-7.7s0.3-2.6-0.5-2.9s-2.4,0.5-2.4,0.5s0.3-1.2,0.6-2.1s0.7-7.4-1.3-11.5c-3.8-8.3-11.3-8.1-11.3-8.1L114.7,0
	c0,0-7.7-0.1-11.5,8.2c-2,4.1-1.6,10.6-1.4,11.5s0.5,2.1,0.5,2.1c-0.7-0.4-1.6-0.5-2.4-0.5c-0.8,0.3-1.2,1.8-0.5,2.9
	s2.3,7.1,3.2,7.7c0.2,0.1,0.5,0.1,0.8,0l0.8,5.5c0.3,1.7,0.3,3.3,0,5c0,0.3-0.1,0.7-0.3,1H65.5c-0.2-0.5-0.3-0.9-0.4-1.1
	c-0.2-0.7-2-1.3-2-1.3s-1-2.3-1.7-2.3s-1,0.6-1.2,1.2c-0.2,0.4-0.1,0.8,0.1,1.2L59.2,41c-0.6-0.1-1.2-0.2-1.8-0.2
	c-0.5,0-1,0.1-1.5,0.3c-0.6-0.1-1.3-0.2-1.9-0.2c-0.5,0-1,0.2-1.4,0.5c-0.7-0.2-1.3-0.2-2-0.2c-0.8,0.2-1.3,1.2-1.3,1.2
	s-0.1,0.4-0.3,1H21v4h27.1c-0.2,1.6-0.2,3.3,0,4.9c0.2,1,0.6,1.9,1,2.8L49,66.9c0,0-0.1,10,0.4,14.5c0.8,6.9,4.8,19,4.8,19
	c0.1,1,0.2,1.9,0.4,2.8c0.5,2.2,2.9,2.7,3.6,2.8c3.3,0.1,13.5-4.8,13.5-4.8c0.3,0.3,0.7,0.4,1.2,0.4c0.6,0,7.2-6.1,7.2-6.1l4.6-4.8
	c0,0,1.4,25,1.5,29.6s0.4,13.3,0.4,13.3c0.1,0.6,0.2,1.3,0.2,1.9c0,0.9-0.5,0.8-0.6,1.8c0,0.8,0.2,1.5,0.5,2.2c-1,0.7-1.7,1.6-2,2.8
	C83.9,144.4,82,158,82,158s-1.2,6.4-1,8.7c0.2,1.5,0.9,3,1.8,4.2L81,203.4v3c0,0,0,0-0.1,0.1c-0.7,0.6-0.8,1.7-0.2,2.4
	c1.4,2.7,17.1,2.5,17.1,2.5s0.3,3.3,0.6,6c0.1,2.3,0.1,4.7,0,7c-0.3,1.3-0.4,2.7-0.4,4H59v-33h-4v86H3l-3,1.5v23.5h128.6
	C128.7,306.6,128.8,306.8,128.9,306.9z M131.6,279.4c0.1,0.7,0,1.3,0,2h-5.2c0-1.1-0.2-2.1-0.6-3.1c-0.6-1.4-1.4-3.8-1.4-3.8
	l-1.6-3.8c0,0-2.4-4.6-2.8-6.6c-0.2-2.9-0.3-5.8-0.1-8.7c0,0-0.6-8.6-0.4-11s1-4.6,0.5-9c-0.2-2.1-0.7-4.1-1.5-6h8.8l0.5,2.4
	c0,0-1.6,11.2-1.2,17.9c0.4,6.6,3.4,17.3,3.4,17.3C130.9,271,131.4,275.2,131.6,279.4L131.6,279.4z M59,229.4h39.2
	c0,1.2,0.2,2.3,0.4,3.5c0.9,4.9,9.1,25.4,9.1,25.4s4,9.4,4.1,11.1s0.2,4,0.2,4v8H59V229.4z M100.8,47.4l-0.1,0.2
	c-1.3,1.3-8.5,4.6-8.5,4.6s-10.5,3.7-13,5.8s-6.6,9.2-7.5,11s-5.3,7-6,7.8s-0.3,1.6-0.8,3.1s-5-16.9-5.2-23.7
	c0.1-1.6,3.2-4.4,4.3-5.4c0.9-1,1.6-2.2,2-3.5L100.8,47.4z M153.3,58.1c-2.5-2.2-13-5.9-13-5.9s-7.2-3.2-8.5-4.6l-0.1-0.2h34.8
	c0.4,1.3,1.1,2.5,2,3.5c1.1,1,4.2,3.9,4.3,5.5c-0.2,6.8-4.7,25.2-5.2,23.7s-0.2-2.3-0.8-3.2s-5.1-6.1-6-7.8S155.8,60.3,153.3,58.1
	L153.3,58.1z M127.1,228.5h-9c-0.2-0.4-0.3-0.6-0.3-0.6s-1.9-5.5-1.9-7c0.1-1.3,0.3-2.6,0.6-3.9l1.9-8.8l0.2-1.6l1.1-0.1l1.4,0.9
	c0.3,2.6,0.8,5.2,1.4,7.8c1,3.3,2.2,6.4,3.8,9.5L127.1,228.5z M195,281.4h-52.7c0-0.4,0.1-0.8,0.2-1.2c0.5-2.4,4.2-23.4,4.2-23.4
	s1.9-11.2,2-16.8c-0.1-3.7-0.9-7.3-2.4-10.6H195V281.4z"/>
<line class="st1" x1="142.3" y1="281.4" x2="143.8" y2="308.2"/>
<line class="st1" x1="131.6" y1="281.4" x2="128.8" y2="308.2"/>
<line class="st1" x1="126.4" y1="281.4" x2="112" y2="281.4"/>
<rect x="90" y="228.9" class="st1" width="32.2" height="0.5"/>
<line class="st1" x1="131.7" y1="47.4" x2="128.8" y2="43.4"/>
<line class="st1" x1="103.9" y1="43.4" x2="100.8" y2="47.4"/>
<line class="st1" x1="167.1" y1="43.4" x2="166.5" y2="47.4"/>
<line class="st1" x1="183.6" y1="43.4" x2="184.5" y2="47.4"/>
<line class="st1" x1="65.5" y1="43.4" x2="66" y2="47.3"/>
<line class="st1" x1="49" y1="43.4" x2="48.1" y2="47.4"/>
</svg>
