<?xml version="1.0" encoding="utf-8"?>
<!-- Generator: Adobe Illustrator 22.0.1, SVG Export Plug-In . SVG Version: 6.00 Build 0)  -->
<svg version="1.1" id="Layer_2_1_" xmlns="http://www.w3.org/2000/svg" xmlns:xlink="http://www.w3.org/1999/xlink" x="0px" y="0px"
	 viewBox="0 0 257 314.8" style="enable-background:new 0 0 257 314.8;" xml:space="preserve">
<style type="text/css">
	.st0{fill:#FBDEDE;stroke:#EB5858;stroke-miterlimit:10;}
	.st1{fill:none;stroke:#EB5858;stroke-miterlimit:10;}
</style>
<title>hurdle_step-front</title>
<path class="st0" d="M128.4,306.4H257v-23.5l-3-1.5h-52v-86h-4v33h-39c0-1.3-0.1-2.7-0.4-4c-0.1-2.3-0.1-4.7,0-7
	c0.3-2.7,0.6-6,0.6-6s15.7,0.2,17.1-2.5c0.6-0.7,0.5-1.8-0.2-2.4c-0.1-0.1-0.1-0.1-0.1-0.1v-3l-1.8-32.5c0.9-1.2,1.6-2.7,1.8-4.2
	c0.2-2.3-1-8.7-1-8.7s-1.9-13.6-2.7-15.7c-0.3-1.2-1-2.1-2-2.8c0.3-0.7,0.5-1.4,0.5-2.2c-0.1-1-0.6-0.9-0.6-1.8
	c0-0.6,0.1-1.3,0.2-1.9c0,0,0.3-8.7,0.4-13.3c0.1-4.6,1.5-29.6,1.5-29.6l4.6,4.8c0,0,6.6,6.1,7.2,6.1c0.5,0,0.9-0.1,1.2-0.4
	c0,0,10.2,4.9,13.5,4.8c0.7-0.1,3.1-0.6,3.6-2.8c0.2-0.9,0.3-1.8,0.4-2.8c0,0,4-12.1,4.8-19c0.5-4.5,0.4-14.5,0.4-14.5l-0.1-11.8
	c0.4-0.9,0.8-1.8,1-2.8c0.2-1.6,0.2-3.3,0-4.9H236v-4h-28c-0.2-0.6-0.3-1-0.3-1s-0.5-1-1.3-1.2c-0.7,0-1.3,0-2,0.2
	c-0.4-0.3-0.9-0.5-1.4-0.5c-0.6,0-1.3,0.1-1.9,0.2c-0.5-0.2-1-0.3-1.5-0.3c-0.6,0-1.2,0.1-1.8,0.2l-1.1,0.1c0.2-0.4,0.3-0.8,0.1-1.2
	c-0.2-0.6-0.5-1.2-1.2-1.2s-1.7,2.3-1.7,2.3s-1.8,0.6-2,1.3c-0.1,0.2-0.2,0.6-0.4,1.1h-38.4c-0.2-0.3-0.3-0.7-0.3-1
	c-0.3-1.7-0.3-3.3,0-5l0.8-5.5c0.3,0.1,0.6,0.1,0.8,0c0.9-0.6,2.5-6.6,3.2-7.7s0.3-2.6-0.5-2.9c-0.8,0-1.7,0.1-2.4,0.5
	c0,0,0.3-1.2,0.5-2.1s0.6-7.4-1.4-11.5C150-0.1,142.3,0,142.3,0l-3.7,0.1c0,0-7.5-0.2-11.3,8.1c-2,4.1-1.6,10.6-1.3,11.5
	s0.6,2.1,0.6,2.1s-1.6-0.8-2.4-0.5s-1.2,1.8-0.5,2.9s2.4,7.1,3.3,7.7c0.7,0.5,0.8,0.2,0.8,0.1l0.7,5.4c0.3,1.7,0.3,3.3,0,5
	c-0.1,0.3-0.2,0.7-0.3,1H89.9c-0.2-0.5-0.3-0.9-0.4-1.1c-0.2-0.6-2-1.3-2-1.3s-1.1-2.2-1.7-2.3s-1,0.5-1.2,1.2
	c-0.2,0.4-0.1,0.8,0.1,1.2L83.6,41c-0.6-0.1-1.2-0.1-1.8-0.2c-0.5,0-1,0.1-1.5,0.3c-0.6-0.1-1.3-0.2-1.9-0.2c-0.5,0-1,0.2-1.4,0.5
	c-0.7-0.2-1.3-0.2-2-0.2c-0.8,0.2-1.3,1.2-1.3,1.2s-0.1,0.4-0.3,1H36v4h36.5c-0.2,1.6-0.2,3.3,0,4.9c0.2,0.9,0.6,1.8,1,2.7
	l-0.1,11.9c0,0-0.1,10,0.4,14.5c0.8,6.9,4.8,19,4.8,19c0.1,0.9,0.2,1.9,0.4,2.8c0.5,2.2,2.9,2.7,3.6,2.8c3.3,0.1,13.5-4.8,13.5-4.8
	c0.4,0.2,0.8,0.4,1.2,0.4c0.7,0,7.2-6.1,7.2-6.1l4.6-4.8c0,0,1.4,25,1.5,29.6l0.4,13.3c0.1,0.6,0.2,1.3,0.2,1.9c0,1-0.5,0.8-0.6,1.8
	c0,0.8,0.2,1.5,0.5,2.2c-1,0.7-1.7,1.7-2,2.8c-0.8,2.2-2.8,15.7-2.8,15.7s-1.3,6.5-1.1,8.7c0.3,1.5,0.8,3,1.7,4.2
	c0,0,1.7,19.5,2.1,23.2s2,6.7,2.6,9.5c0.3,2.3,0.3,4.6,0,6.8c-0.1,0.6,0.1,1.1,0.6,1.4c0,0,0.1,5.1,0.2,8.2
	c-0.2,2.9-0.6,5.7-1.4,8.4H62v-33h-4v86H3l-3,1.5v23.5h111.5c0.8,0.9,1.3,1,1.7,1.8c0.3,0.8,0.3,1.7-0.1,2.5c-0.3,1-0.1,2,0.4,2.9
	c1.6,0.7,3.3,1.2,5,1.2c2.6-0.1,5.2-0.3,7.8-0.8c1.5-0.3,2-0.5,2.4-1.1c0.2-0.6,0.3-1.3,0.2-1.9c0,0-1-3.3-0.8-4.1
	C128.2,306.8,128.3,306.6,128.4,306.4z M125.4,279.4c0.2-4.2,0.7-8.4,1.6-12.4c0,0,3-10.7,3.4-17.3c0.4-6.7-1.2-17.9-1.2-17.9
	l0.5-2.4h8.8c-0.8,1.9-1.3,3.9-1.5,6c-0.5,4.4,0.3,6.6,0.5,9s-0.4,11-0.4,11c0.2,2.9,0.1,5.8-0.1,8.7c-0.4,2-2.8,6.6-2.8,6.6
	l-1.6,3.8c0,0-0.8,2.4-1.4,3.8c-0.4,1-0.6,2-0.6,3.1h-5.2C125.4,280.7,125.3,280.1,125.4,279.4L125.4,279.4z M198,281.4h-53v-8
	c0,0,0.1-2.3,0.2-4c0.1-1.7,4.1-11.1,4.1-11.1s8.2-20.5,9.1-25.4c0.2-1.2,0.4-2.3,0.4-3.5H198V281.4z M191,47.3
	c0.4,1.3,1.1,2.5,2,3.5c1.1,1,4.2,3.8,4.3,5.4c-0.2,6.8-4.7,25.2-5.2,23.7s-0.1-2.3-0.8-3.1s-5.1-6-6-7.8s-5-8.9-7.5-11
	s-13-5.8-13-5.8s-7.2-3.3-8.5-4.6l-0.1-0.2L191,47.3z M103.7,58.1c-2.5,2.2-6.6,9.3-7.5,11s-5.4,6.9-6,7.8s-0.3,1.7-0.8,3.2
	s-5-16.9-5.2-23.7c0.1-1.6,3.2-4.5,4.3-5.5c0.9-1,1.6-2.2,2-3.5h34.8l-0.1,0.2c-1.3,1.4-8.5,4.6-8.5,4.6S106.2,55.9,103.7,58.1
	L103.7,58.1z M130.7,224.7c1.6-3.1,2.8-6.2,3.8-9.5c0.6-2.6,1.1-5.2,1.4-7.8l1.4-0.9l1.1,0.1l0.2,1.6l1.9,8.8
	c0.3,1.3,0.5,2.6,0.6,3.9c0,1.5-1.9,7-1.9,7s-0.1,0.2-0.3,0.6h-9L130.7,224.7z M62,229.4h48.7c-1.5,3.3-2.3,6.9-2.4,10.6
	c0.1,5.6,2,16.8,2,16.8s3.7,21,4.2,23.4c0.1,0.4,0.2,0.8,0.2,1.2H62V229.4z"/>
<line class="st1" x1="114.7" y1="281.4" x2="113.2" y2="308.2"/>
<line class="st1" x1="125.4" y1="281.4" x2="128.2" y2="308.2"/>
<line class="st1" x1="130.6" y1="281.4" x2="145" y2="281.4"/>
<rect x="134.8" y="228.9" class="st1" width="32.2" height="0.5"/>
<line class="st1" x1="125.3" y1="47.4" x2="128.2" y2="43.4"/>
<line class="st1" x1="153.1" y1="43.4" x2="156.2" y2="47.4"/>
<line class="st1" x1="89.9" y1="43.4" x2="90.5" y2="47.4"/>
<line class="st1" x1="73.4" y1="43.4" x2="72.5" y2="47.4"/>
<line class="st1" x1="191.5" y1="43.4" x2="191" y2="47.3"/>
<line class="st1" x1="208" y1="43.4" x2="208.9" y2="47.4"/>
</svg>
