<?xml version="1.0" encoding="utf-8"?>
<!-- Generator: Adobe Illustrator 22.0.1, SVG Export Plug-In . SVG Version: 6.00 Build 0)  -->
<svg version="1.1" id="Layer_1" xmlns="http://www.w3.org/2000/svg" xmlns:xlink="http://www.w3.org/1999/xlink" x="0px" y="0px"
	 viewBox="0 0 115.2 117" style="enable-background:new 0 0 115.2 117;" xml:space="preserve">
<style type="text/css">
	.st0{fill:#EB5858;}
	.st1{fill:none;stroke:#FFFFFF;stroke-linecap:round;stroke-miterlimit:10;}
	.st2{fill:#EB5858;stroke:#FFFFFF;stroke-linecap:round;stroke-miterlimit:10;}
</style>
<title>horizontal_adduction_clearing_right</title>
<path class="st0" d="M11.7,114c0,0.9,0,1.9-0.1,3H65c0-0.2,0-0.4,0-0.6c0-3.3,0.2-6.5,0.6-9.8c0,0,2.4,0.9,4,0.2
	c6.9-2.4,9.1-11.4,9.1-11.4c1.3-1.8,2.2-3.9,2.6-6.1c0.5-3.4-0.5-9.5-0.5-9.5c0.9-3.8,1.2-7.6,1.1-11.5c0.2-1.5-0.1-12.2-11.8-13.9
	c-3.1-0.8-12.4-1.6-12.4-1.6S76.8,43,83.4,39c1,1.1,5.5,1.4,5.5,1.4s5.8,1.4,9.9-1.6c1.4,0.8,2.6,1.7,3.9,2.8c0,0,2.4,1.1,2.4-0.5
	s-1.9-3-1.9-3l6.1,4.6c0,0,2.9,2.5,4.1,2s0.2-1.6,0.2-1.6s2.1-0.1,1.5-1.8s-6.5-6.8-6.5-6.8s0.2-2.9-0.9-3.2s-2.5,1.2-2.5,1.2
	s-3.4-4-5.8-4.2s-4,1.4-12,1S76.6,30.7,74.2,31s-22,2.8-27.3,5c0.6-2.2,1-4.5,1-6.8c0,0,4.1-7.6,2.2-10.2c-1.1-1.8-2.2,0.5-2.2,0.5
	S48.2,0,34,0S21.7,21,21.7,21s-1.9-1.5-2.7,0s-0.5,7.1,4.2,8.8c0.2,2.4,3,6.8,3,6.8v3.8l-2.5,0.2c-3.7-1.8-7.9-2.6-12-2.2
	c-3.5,0.2-14.1,4-11.2,28.2C2.9,85.6,11.7,100.2,11.7,114z"/>
<path class="st1" d="M47,36l-20.8,4.2l-2.5,0.2l-1.4-0.6c0,0-5.4-1.5-9.1,5.9C4.9,64,17.1,63.1,17.1,63.1L36,57.3l21.8-4.4"/>
<path class="st2" d="M75.2,87.4c-3.1-3.8-15.4-15-17.4-19.6L53.1,59c0,0,3.3-5.3,4-8s2.5-8.7,1.2-9.4c-2.6-0.7-4.7,1.8-5.2,3.5
	c-0.5,1.1-0.8,2.2-1.1,3.4c-0.2,1.1-2.8-1.3-3.9-2.6s-1.6-9.1-2.8-9.9s-2.8,0.5-2.8,0.5s-0.8-1.7-2-1.2s-1.1,2.3-1.1,2.3
	c-0.3-0.5-0.8-0.7-1.3-0.7c-1.5,0.4-1.7,2.7-1.7,2.7s-0.2-0.4-1.3-0.1s-1.7,1.7-2,3.3c-0.4,2.6,0.5,6.1,0.5,7.4s1.3,5.8,2.4,7.1
	s4,4.4,4.7,5.9l2.4,6c0,0,8.2,21.9,13.8,28.1c2.4,3.5,5.3,6.7,8.6,9.5"/>
<path class="st1" d="M66.8,66.5c-2.9,2-4.1,7.8-4.1,7.8"/>
<g>
	<g>
		<path class="st0" d="M109.5,63.4c1.2-1.2,0.8-3.7-1.3-3.7l-5.6,0c0.2-1.2,0.5-3.1,0.5-3.3c-0.1-1.8-1.2-3.9-1.3-4
			c-0.2-0.4-1.2-0.9-2.3-0.7c-1.3,0.3-1.5,1.1-1.5,1.4c0,0,0.1,2.3,0.1,3c-0.6,1.4-2.8,5.1-3.5,5.4c-0.2-0.1-0.3-0.1-0.5-0.1h-7.1
			c-0.6,0-1.1,0.5-1.1,1.1l0,9.8c0,0.5,0.5,0.9,1,0.9h6.3c0.6,0,1-0.5,1-1v-0.3c0,0,0.2,0,0.3,0.1c0.4,0.3,0.9,0.6,1.6,0.6h9.5
			c3.5,0,3.2-3.1,2.8-3.6c0.6-0.7,1-1.8,0.5-2.7C109.4,65.7,110.1,64.6,109.5,63.4z M93.1,72H87v-9.7h6.1V72z M107.9,63.3l-0.1,0.2
			c1.6,0.5,0.8,2.3-0.4,2.5l-0.1,0.2c1.6,0.4,0.8,2.3-0.4,2.5l-0.1,0.2c1.3,0.2,1,2.4-1,2.4l-9.6,0c-0.7,0-1.3-0.8-1.8-0.8H94v-7.5
			c0.5-0.3,1.2-0.8,1.6-1.1c0.7-0.6,3.6-5.2,3.6-5.8s-0.1-3.1-0.1-3.1s0.6-0.7,1.8-0.2c0,0,1.1,2,1.2,3.6c0,0-0.5,3.3-0.7,4.3h6.7
			C109.7,60.7,109.4,63.1,107.9,63.3z"/>
	</g>
</g>
</svg>
