<?xml version="1.0" encoding="utf-8"?>
<!-- Generator: Adobe Illustrator 22.0.1, SVG Export Plug-In . SVG Version: 6.00 Build 0)  -->
<svg version="1.1" id="Layer_1" xmlns="http://www.w3.org/2000/svg" xmlns:xlink="http://www.w3.org/1999/xlink" x="0px" y="0px"
	 viewBox="0 0 115.2 117" style="enable-background:new 0 0 115.2 117;" xml:space="preserve">
<style type="text/css">
	.st0{fill:#EB5858;}
	.st1{fill:none;stroke:#FFFFFF;stroke-linecap:round;stroke-miterlimit:10;}
	.st2{fill:#EB5858;stroke:#FFFFFF;stroke-linecap:round;stroke-miterlimit:10;}
</style>
<title>horizontal_adduction_clearing_right</title>
<path class="st0" d="M114.7,66.6c2.9-24.2-7.7-28-11.2-28.2c-4.1-0.4-8.3,0.4-12,2.2L89,40.4v-3.8c0,0,2.8-4.4,3-6.8
	c4.7-1.7,5-7.3,4.2-8.8s-2.7,0-2.7,0S95.4,0,81.2,0S67.3,19.5,67.3,19.5s-1.1-2.3-2.2-0.5c-1.9,2.6,2.2,10.2,2.2,10.2
	c0,2.3,0.4,4.6,1,6.8C63,33.8,43.4,31.3,41,31s-5.2-2.1-13.2-1.7s-9.6-1.2-12-1S10,32.5,10,32.5S8.6,31,7.5,31.3s-0.9,3.2-0.9,3.2
	s-5.9,5.1-6.5,6.8s1.5,1.8,1.5,1.8s-1,1.1,0.2,1.6s4.1-2,4.1-2l6.1-4.6c0,0-1.9,1.4-1.9,3s2.4,0.5,2.4,0.5c1.3-1.1,2.5-2,3.9-2.8
	c4.1,3,9.9,1.6,9.9,1.6s4.5-0.3,5.5-1.4c6.6,4,25.7,13.8,25.7,13.8s-9.3,0.8-12.4,1.6c-11.7,1.7-12,12.4-11.8,13.9
	c-0.1,3.9,0.2,7.7,1.1,11.5c0,0-1,6.1-0.5,9.5c0.4,2.2,1.3,4.3,2.6,6.1c0,0,2.2,9,9.1,11.4c1.6,0.7,4-0.2,4-0.2
	c0.4,3.3,0.6,6.5,0.6,9.8c0,0.2,0,0.4,0,0.6h53.4c-0.1-1.1-0.1-2.1-0.1-3C103.5,100.2,112.3,85.6,114.7,66.6z"/>
<path class="st1" d="M57.4,52.9l21.8,4.4l18.9,5.8c0,0,12.2,0.9,3.9-17.4c-3.7-7.4-9.1-5.9-9.1-5.9l-1.4,0.6L89,40.2L68.2,36"/>
<path class="st2" d="M49.7,106.8c3.3-2.8,6.2-6,8.6-9.5c5.6-6.2,13.8-28.1,13.8-28.1l2.4-6c0.7-1.5,3.6-4.6,4.7-5.9
	c1.1-1.3,2.4-5.8,2.4-7.1s0.9-4.8,0.5-7.4c-0.3-1.6-0.9-3-2-3.3s-1.3,0.1-1.3,0.1s-0.2-2.3-1.7-2.7c-0.5,0-1,0.2-1.3,0.7
	c0,0,0.1-1.8-1.1-2.3c-1.2-0.5-2,1.2-2,1.2s-1.6-1.3-2.8-0.5c-1.2,0.8-1.7,8.6-2.8,9.9c-1.1,1.3-3.7,3.7-3.9,2.6
	c-0.3-1.2-0.6-2.3-1.1-3.4c-0.5-1.7-2.6-4.2-5.2-3.5c-1.3,0.7,0.5,6.7,1.2,9.4s4,8,4,8l-4.7,8.8c-2,4.6-14.3,15.8-17.4,19.6"/>
<path class="st1" d="M52.5,74.3c0,0-1.2-5.8-4.1-7.8"/>
<g>
	<g>
		<path class="st0" d="M6.2,66.1C5.7,67,6,68.1,6.6,68.8c-0.3,0.4-0.7,3.6,2.8,3.6h9.5c0.7,0,1.2-0.3,1.6-0.6
			c0.1-0.1,0.3-0.1,0.3-0.1v0.3c0,0.6,0.5,1,1,1h6.3c0.5,0,1-0.4,1-0.9l0-9.8c0-0.6-0.5-1.1-1.1-1.1h-7.1c-0.2,0-0.4,0.1-0.5,0.1
			c-0.7-0.3-2.9-4-3.5-5.4c0-0.6,0.1-3,0.1-3c0-0.2-0.1-1.1-1.5-1.4c-1-0.2-2.1,0.3-2.3,0.7c0,0.1-1.2,2.2-1.3,4
			c0,0.2,0.3,2.1,0.5,3.3l-5.6,0c-2.1,0-2.5,2.5-1.3,3.7C5.1,64.6,5.8,65.7,6.2,66.1z M22.1,62.3h6.1V72h-6.1V62.3z M7.1,60.7h6.7
			c-0.3-1-0.7-4.3-0.7-4.3c0.1-1.6,1.2-3.6,1.2-3.6c1.3-0.5,1.8,0.2,1.8,0.2S16,55.6,16,56.2s2.9,5.2,3.6,5.8c0.4,0.3,1,0.8,1.6,1.1
			v7.5h-0.4c-0.5,0-1.1,0.8-1.8,0.8l-9.6,0c-1.9,0-2.2-2.2-1-2.4l-0.1-0.2c-1.2-0.1-2-2.1-0.4-2.5L7.8,66c-1.2-0.1-2-2-0.4-2.5
			l-0.1-0.2C5.8,63.1,5.5,60.7,7.1,60.7z"/>
	</g>
</g>
</svg>
