<svg id="Layer_1" data-name="Layer 1" xmlns="http://www.w3.org/2000/svg" viewBox="0 0 115.23 117"><defs><style>.cls-1,.cls-3{fill:#eb5858;}.cls-2{fill:none;}.cls-2,.cls-3{stroke:#fff;stroke-linecap:round;stroke-miterlimit:10;}</style></defs><title>horizontal_adduction_clearing_right</title><path class="cls-1" d="M11.73,114c0,.94,0,1.95-.09,3H65c0-.23,0-.43,0-.58a69.93,69.93,0,0,1,.62-9.75s2.38.88,4,.25c6.87-2.38,9.12-11.38,9.12-11.38a14.88,14.88,0,0,0,2.62-6.13c.5-3.37-.5-9.5-.5-9.5A46.54,46.54,0,0,0,82,68.41c.16-1.49-.12-12.25-11.75-13.88-3.13-.75-12.44-1.63-12.44-1.63S76.77,43,83.39,39c1,1.12,5.5,1.37,5.5,1.37s5.75,1.37,9.87-1.63a33.58,33.58,0,0,1,3.87,2.75S105,42.63,105,41s-1.88-3-1.88-3l6.12,4.62s2.87,2.5,4.12,2,.25-1.63.25-1.63,2.12-.13,1.5-1.75-6.5-6.75-6.5-6.75.24-2.88-.88-3.25-2.5,1.25-2.5,1.25-3.38-4-5.75-4.25-4,1.37-12,1S76.56,30.69,74.23,31s-22,2.75-27.25,5a27.14,27.14,0,0,0,1-6.75S52.11,21.63,50.23,19c-1.08-1.75-2.25.5-2.25.5S48.23,0,34,0,21.73,21,21.73,21,19.85,19.5,19,21s-.5,7.13,4.25,8.75c.25,2.38,3,6.75,3,6.75v3.75l-2.5.25a22.38,22.38,0,0,0-12-2.25c-3.5.22-14.12,4-11.25,28.22C2.86,85.57,11.73,100.25,11.73,114Z" transform="translate(0.01 0)"/><path class="cls-2" d="M47,36,26.23,40.25l-2.5.25-1.36-.62s-5.44-1.51-9.14,5.87C4.86,64,17.11,63.13,17.11,63.13L36,57.26,57.8,52.89" transform="translate(0.01 0)"/><path class="cls-3" d="M75.23,87.37c-3.11-3.85-15.42-15-17.44-19.62L53.1,59s3.31-5.33,4-8,2.46-8.67,1.25-9.37c-2.62-.71-4.7,1.85-5.25,3.5A23.13,23.13,0,0,0,52,48.51c-.17,1.07-2.83-1.33-3.87-2.62S46.57,36.77,45.36,36s-2.79.5-2.79.5-.83-1.67-2-1.25-1.11,2.29-1.11,2.29a1.49,1.49,0,0,0-1.31-.71c-1.5.42-1.67,2.67-1.67,2.67s-.23-.42-1.33-.08-1.67,1.67-2,3.33c-.42,2.58.5,6.08.5,7.42S34.93,56,36,57.27s4,4.36,4.67,5.88l2.42,6S51.31,91.07,56.9,97.23a45,45,0,0,0,8.58,9.46" transform="translate(0.01 0)"/><path class="cls-2" d="M66.82,66.47c-2.92,2-4.06,7.84-4.06,7.84" transform="translate(0.01 0)"/></svg>