<?xml version="1.0" encoding="utf-8"?>
<!-- Generator: Adobe Illustrator 22.0.1, SVG Export Plug-In . SVG Version: 6.00 Build 0)  -->
<svg version="1.1" id="Layer_2_1_" xmlns="http://www.w3.org/2000/svg" xmlns:xlink="http://www.w3.org/1999/xlink" x="0px" y="0px"
	 viewBox="0 0 489.5 489.5" style="enable-background:new 0 0 489.5 489.5;" xml:space="preserve">
<style type="text/css">
	.st0{fill:#FBDEDE;stroke:#EB5858;stroke-width:2;stroke-miterlimit:10;}
</style>
<title>trunk-stability-pushup-01</title>
<path class="st0" d="M458.7,322.6c-1.9-1.1-3.7-2.2-5.6-3.3c-3.2-0.6-6.5-1.4-9.7-2.1c-3.1-0.7-6.2-1.6-9.2-2.7
	c-1.4-0.6-2.9-1.1-4.4-1.5c-0.3-0.1-1.1-0.1-1.4-0.2H428c-1.2,0-2.3-0.2-3.4-0.6c-1.8,0-3.6-0.9-4.7-2.4c-0.4-0.5-0.8-0.9-1.2-1.4
	c-0.3-0.3-0.6-0.7-0.8-1.1c-0.5-1.7-1.3-3.4-2.4-4.8c-0.1-0.2-0.2-0.4-0.2-0.7c-0.9-2.2-1.8-4.5-2.8-6.7c-0.2-0.4-0.4-0.7-0.6-1
	c-0.3-0.4-0.5-0.8-0.7-1.2c-0.5-1.2-0.9-2.5-1.4-3.8c-0.9-2.4-0.4-2.9,2.2-2.6l0.7,0.1c3,0.4,6.1,0.6,9.1,0.6c1.7,0,3.2-0.2,3.8-2
	c0-0.1,0.2-0.2,0.3-0.4c0.7-1,0.5-1.8-0.6-2.2c-0.9-0.3-1.8-0.6-2.7-0.8c-0.9-0.3-1.8-0.4-2.8-0.4c-0.8,0.1-1.7,0-2.5-0.4
	c-0.5-0.2-1-0.4-1.6-0.5c-2.2-0.4-4.4-1-6.6-1.8c-1.8-0.5-3.3-2-3.8-3.8c-0.8-2.6-1.8-5.2-2.6-7.8c-1.2-3.7-3.1-7.1-5.5-10
	c-2.5-3.1-4.9-6.4-7-9.8c-1.1-1.8-2.2-3.6-2.3-5.9c-0.1-0.4-0.2-0.8-0.4-1.1c-1.1-3.3-1.7-6.7-1.9-10.1c-0.2-4-0.2-4-1.9-7.5
	c0.2-0.6,0.4-1.2,0.5-1.8c-0.1-0.9-0.1-1.8-0.1-2.8c-0.1-0.3-0.2-0.6-0.2-0.9c-0.1-0.5,0-0.9,0.1-1.4c0.5-1.1,1-2.2,1.6-3.4
	c2.3-0.8,2.3-0.8,4.6,0.1c0.2,0.1,0.4,0.2,0.7,0.2c1.7,0.1,3.3,0.9,4.4,2.2c1,1.1,2,1,3.1,0c0.8-0.7,1.4-1.5,2.1-2.2
	c1-0.9,2.1-1.8,3.3-2.7c0.6-0.5,1.4-0.4,1.9,0.1c0.2,0.2,0.3,0.3,0.5,0.5c0.5,0.5,1.3,0.6,1.9,0.2c1.8-1,3.8-1.8,5.8-2.4
	c0.5-0.2,1.1-0.4,1.6-0.6l0.2-0.1c0.4-0.2,0.8-0.2,1.2-0.3c0.8-0.2,1.6-0.3,2.4-0.3l1-0.1c1.1-0.2,2.2-0.5,3.3-0.9
	c0.8-1,1.7-1.9,2.7-2.6c0.3-0.6,0.7-1.3,0.9-1.9c0.5-1.2,0.9-2.5,1.5-3.7c2.2-4.3,2.6-9,2.7-13.7c0-2-0.2-4.1-0.3-6.1
	c0-0.6-0.1-1.2-0.2-1.9c-0.2-1.6-0.8-3-1.7-4.3c-0.5-0.8-0.1-1.9-1-2.6s-1.6-1.3-2.3-1.9c-0.1-0.1-0.1-0.1-0.2-0.2
	c-1-0.5-1.7-1.4-2.9-1.5c-0.5-0.1-0.9-0.3-1.2-0.6c-1.1-1-2.5-1.6-4-1.7c-2.6-0.3-5.1-0.6-7.7-1c-2.6-0.3-5.2,0.1-7.6,1.1
	c-1.3,0.5-2.6,1-4,1.5c-2.9,0.9-5.9,1.7-8.8,2.6c-1.1,0.4-2.2,0.8-3.2,1.4c-1.3-0.1-2.7-0.1-4,0.1c-0.7,0.1-1.3,0.2-2,0.3l-1.2-0.1
	c-0.3-0.1-0.5-0.1-0.8-0.1c-1.6,0.1-3.1-0.2-4.7,0.3c-0.7,0.2-1.4,0.2-2.1,0c-1.9-0.5-3.8-0.9-5.7-1.4c-0.8-0.2-1.5-0.4-2.2-0.7
	c-2.7-1.2-5.5-2.4-8.2-3.6c-1.9-0.9-4-1.5-6.1-1.8c-3.7-0.4-7.3-0.9-11-1.2c-2.1-0.2-4.2-0.1-6.3,0.2c-2.6,0.5-5.2,1.1-7.7,2
	c-1.9,0.6-3.9,1.1-5.9,1.6c-6.7,1.3-13.3,3.1-19.8,5.3c-1,0.3-2,0.6-2.9,0.8c-1.7,0.5-3.5,1-5.2,1.5c-3.5,1.2-7,2.4-10.5,3.6
	c-0.2,0.1-0.5,0.1-0.7,0.2c-2.2,0.9-4.5,1.6-6.8,2.2c-3.6,0.9-7.3,1.5-11,1.8c-1.8,0.3-3.7,0.2-5.6-0.1c-1.8-0.5-3.5-1.1-5.1-2.1
	c-1.5-0.9-3.2-1.7-4.9-2.3c-1.7-0.5-3.4-0.8-5.2-0.9c-3.6-0.1-7.1,0.4-10.5,1.5c-3.5,1.1-6.9,2.5-10.2,4.1c-3,1.3-5.8,3-8.3,5.1
	c-2.8,2.4-5.3,5.1-8.1,7.4c-0.8,1-1.9,1.8-3.1,2.3c-1.6,1.1-3.3,2-5.1,2.7l-1,0.7c-1,0.7-2,1.2-3.1,1.7c-2.3,1.1-4.6,2.3-7,3.4
	c-3.8,1.7-7.6,3.5-11.4,5.2l-0.9,0.5c-2.1,1.2-4.2,2.4-6.3,3.6c-1.3,0.8-1.7,1-2.1,1.8c-5,2.6-10.3,4.6-15.8,6.1
	c-2.8,0.8-5.7,1.4-8.6,2c-1.6,0.8-3.5,0.7-5.2,0.9l-1,0.1l-1,0.1l-2,0.2c-1.4,0.2-2.7,0.5-4,0.8c-5,1-10.1,1.2-15.1,2.1l-0.3,0.1
	c-0.4,0.2-0.9,0.4-1.3,0.6c-0.4,0.2-0.8,0.4-1.3,0.6c-2.5,0.8-4.8,1.8-7.1,3.2c-3.1,1.8-6.1,3.5-9.3,5.1c-1.5,0.7-2.9,1.5-4.4,2.2
	c-3.2,1.9-6.5,3.4-9.7,5.2c-2.1,1.2-4.3,2.3-6.6,3.1c-1.8,0.9-3.6,1.6-5.5,2.1c-2.3,0.6-4.8,1.6-7.2,1.6c-2.1,0-4-0.9-6-1.1
	c-0.3,0-0.6,0-0.9,0.1c-1.7,0.3-3.4,0.7-5.1,1.2c-2.1,0.5-4.3,0.8-6.5,1.1c-0.3,0-0.6,0.1-0.9,0.3c-0.2-0.1-0.4-0.2-0.7-0.2
	c-2.2-0.2-4.4-0.1-6.6,0.3c-0.8,0-1.5,0.6-1.6,1.4c-0.6,2-0.8,4-0.5,6.1c0.1,0.3,0.1,0.6,0.1,0.9c0.7,2.1,1.2,4.2,2,6.2
	c0.2,0.4,0.4,0.9,0.5,1.1c0.7,1.3,1.3,2.7,1.8,4.1c0.5,1.3,1,2.6,1.3,4c1.1,5.2,1.6,10.3,3.5,15.3c0.3,0.7,0.9,2.2,1.2,2.6
	c0.6,1.3,1.3,2.6,2,3.8c1.3,2.4,2.5,4.9,4,7.1c0.2,0.2,0.4,0.4,0.5,0.6s0.4,0.3,0.6,0.4H47l0.4,0.1c0.6,0.1,1.1,0.3,1.7,0.4
	c1,0.1,2.1,0.2,3.1,0.2c3.1-0.7,6.3-1.3,9.5-1.6c0.3,0,0.7-0.1,1-0.1l2.6-0.5l0.2-0.2c0.4-0.6,0.6-1.2,0.9-1.8
	c-0.4-0.4-0.8-0.8-1.1-1.2c-2.6-3.2-4.8-6.8-4.5-11.1c0.4-4.9,2.6-10.7,7.5-12.8c2.3-1.1,4.8-1.9,7.3-2.2c0.9-0.3,1.8-0.6,2.7-0.9
	c2.1-0.7,4.3-1.3,6.6-1.8c5.3-0.9,10.7-1.5,16.1-2.1c5.5-0.6,11-1.5,16.5-2.3c4.4-0.6,8.7-1.5,12.9-2.8c2.2-0.7,4.5-1.4,6.8-2
	c2.9-0.9,6-1.2,9.1-1.1c2.7,0.2,5.5,0,8.2-0.6c0.9-0.2,1.8-0.4,2.8-0.5c2-0.2,4.1-0.6,6-1.2c0.7-0.2,1.3-0.4,2-0.6
	c2.4-0.5,4.8-0.9,7.2-1.4c2.9-0.5,2.9-0.5,4.7,1.8c0.4,0.6,0.9,1.1,1.2,1.7l0.1,0.2c4.2,1.7,8.9,1.9,13.3,2.5
	c6.1,0.9,12.4,0.8,18.5,0.9h0.2c8.5-0.3,16.8-2.4,24.3-6.4c3.5-1.7,7.2-3.4,10.6-5.4c4.6-2.8,8.1-6.8,12-10.5c0.7-1.1,1.3-2.2,2-3.3
	l0.1-0.1c0.1-0.9,0.1-1.8,0.2-2.6c0-0.4,0.1-0.9,0.1-1.3c1.8,0,2.5,0.2,3,1.4c0.4,1.1,1.4,1.9,2.6,2.1c1,0.3,2,0.5,2.9,0.9
	c5.6,2,11.4,3,17.3,3c0.9,0,1.7,0,2.6,0.1c3.1,0.4,6.3,0.5,9.4,0.3c1.3,0,2.7,0.1,4,0.3c2.6,0.4,5.3,0.7,8,0.8
	c6.8,0,13.5-0.4,20.2-1.2c1.9-0.2,3.7-0.5,5.6-1c4.9-1.1,9.6-2.9,14-5.4c0.5-0.2,1-0.5,1.6-0.6c0,0.2,0.1,0.4,0.2,0.6
	c1.2,0,2.4,0.5,3.2,1.3c1.2,1.2,2,2.8,2.1,4.5l0.2,0.5c1,2.1,1.9,4.2,3,6.1c2.8,5.3,6.1,10.3,9.7,15c1.1,1.4,2.2,2.9,3.2,4.3
	c1.3,1.9,2.7,3.7,4.2,5.4c0.6,0.6,1.1,1.3,1.5,2.1c1.3,2.6,2.5,5.2,3.9,7.8c1.1,2.5,2.4,4.9,3.9,7.2c1.5,2.1,2.9,4.3,4.4,6.4
	c0.6,0.9,1,1.8,1.6,2.6c1.4,1.9,2.9,3.7,4.4,5.6c2.4,3,4.5,6.2,7.3,8.9c0.3,0.3,0.5,0.6,0.7,0.9c0.1,0.3,0.1,0.6,0,0.9
	c0.1,0.2,0.1,0.4,0.1,0.6c0.1,0.9,0.5,1.8,1.1,2.5c0.8,0.5,1.6,1,2.5,1.5c1.5,0.9,3,1.7,4.6,2.4l0.6,0.3l0.2,0.1
	c0.5,0.2,1,0.4,1.5,0.5c2.9,0.9,5.8,1.6,8.8,2h0.3h0.5c0.8,0.1,1.6,0.2,2.5,0.2c1.4,0.1,2.7,0.2,4.1,0.2c3.3,0.1,6.6,0.1,9.9,0
	c4-0.1,8-0.2,12-0.5c0.2,0,0.4-0.1,0.6-0.1h0.5c1.2-0.1,2.5-0.2,3.7-0.3c0.2-0.1,0.3-0.2,0.5-0.3c0.2-0.5,0.5-1,0.8-1.6
	C459.5,323.4,459.4,323,458.7,322.6z M456.8,323.6c0,0,0-0.1,0-0.2c0.1,0,0.3,0,0.4,0c0,0,0,0.1,0,0.2
	C457.1,323.6,457,323.6,456.8,323.6L456.8,323.6z"/>
</svg>
