<svg id="Layer_2" data-name="Layer 2" xmlns="http://www.w3.org/2000/svg" viewBox="0 0 489.5 489.5"><defs><style>.cls-1{fill:#eb5858;}</style></defs><title>trunk-stability-pushup-01</title><path class="cls-1" d="M458.7,322.56q-2.8-1.68-5.64-3.3c-3.25-.63-6.48-1.37-9.69-2.13a72.86,72.86,0,0,1-9.18-2.72,39.28,39.28,0,0,0-4.44-1.51c-.34-.08-1.13-.15-1.4-.19H428a8.59,8.59,0,0,1-3.4-.59,6.1,6.1,0,0,1-4.68-2.39c-.39-.49-.83-.94-1.23-1.42a3.88,3.88,0,0,1-.82-1.13,16.28,16.28,0,0,0-2.41-4.81,3.05,3.05,0,0,1-.23-.66c-.91-2.25-1.82-4.49-2.75-6.73a7.2,7.2,0,0,0-.64-1,7.67,7.67,0,0,1-.72-1.2c-.49-1.24-.94-2.49-1.37-3.75-.85-2.44-.42-2.94,2.21-2.6l.7.11a66.21,66.21,0,0,0,9.15.64c1.66,0,3.17-.17,3.84-2,.05-.14.23-.22.31-.35.7-1,.46-1.83-.64-2.19-.89-.3-1.78-.63-2.69-.83a8.92,8.92,0,0,0-2.78-.35,4.4,4.4,0,0,1-2.49-.36,5.36,5.36,0,0,0-1.56-.47,34,34,0,0,1-6.57-1.77,5.54,5.54,0,0,1-3.82-3.81c-.8-2.63-1.79-5.19-2.61-7.81a32,32,0,0,0-5.52-10.05,101.75,101.75,0,0,1-7-9.78c-1.09-1.8-2.24-3.61-2.28-5.85a4.46,4.46,0,0,0-.36-1.11,42.87,42.87,0,0,1-1.94-10.14c-.22-4-.24-4-1.91-7.51a7,7,0,0,0,.51-1.78c-.08-.91-.13-1.84-.14-2.78a8.74,8.74,0,0,0-.25-.85,2.09,2.09,0,0,1,.15-1.35c.47-1.14,1-2.25,1.59-3.44,2.3-.76,2.3-.76,4.57.15a2.41,2.41,0,0,0,.66.25,6.09,6.09,0,0,1,4.43,2.22c.95,1.1,2,1,3.11,0,.76-.67,1.39-1.5,2.15-2.17,1.05-.93,2.14-1.83,3.27-2.67a1.4,1.4,0,0,1,1.93.14c.17.16.33.33.51.49a1.48,1.48,0,0,0,1.93.19,29.71,29.71,0,0,1,5.75-2.45,15.91,15.91,0,0,1,1.65-.58l.21-.08a4.21,4.21,0,0,1,1.22-.27,16.34,16.34,0,0,1,2.43-.29l1-.06a30.2,30.2,0,0,0,3.31-.86,15.86,15.86,0,0,1,2.7-2.63,19.19,19.19,0,0,0,.93-1.93c.51-1.23.85-2.54,1.45-3.72,2.19-4.33,2.57-9,2.68-13.73,0-2-.19-4.07-.31-6.11,0-.63-.15-1.25-.2-1.87a10.53,10.53,0,0,0-1.72-4.34c-.47-.83-.14-1.93-.95-2.6s-1.56-1.26-2.34-1.89a1.43,1.43,0,0,0-.17-.16c-.95-.53-1.73-1.35-2.89-1.52a2.31,2.31,0,0,1-1.23-.63,6.56,6.56,0,0,0-4-1.72c-2.57-.34-5.14-.58-7.7-1a14.48,14.48,0,0,0-7.59,1.09c-1.32.51-2.63,1-4,1.46-2.92.9-5.89,1.68-8.8,2.61a24.34,24.34,0,0,0-3.23,1.37,27.32,27.32,0,0,0-4,.06c-.67.06-1.34.19-2,.31l-1.25-.1a2,2,0,0,0-.8-.13c-1.56.07-3.15-.21-4.67.33a3.36,3.36,0,0,1-2.07,0c-1.89-.51-3.81-.93-5.71-1.41a14.81,14.81,0,0,1-2.24-.72q-4.1-1.78-8.17-3.64a20,20,0,0,0-6.08-1.77c-3.66-.41-7.32-.87-11-1.21a27.49,27.49,0,0,0-6.34.19,49.75,49.75,0,0,0-7.74,2,59.41,59.41,0,0,1-5.91,1.57,139.82,139.82,0,0,0-19.77,5.3c-1,.34-2,.56-2.94.84-1.73.5-3.48,1-5.19,1.52-3.5,1.16-7,2.41-10.46,3.57a6,6,0,0,1-.71.18,56.9,56.9,0,0,1-6.8,2.25,69.32,69.32,0,0,1-11,1.79,18.06,18.06,0,0,1-5.56-.09,21.08,21.08,0,0,1-5.08-2.05,27.36,27.36,0,0,0-4.88-2.32,22.51,22.51,0,0,0-5.17-.93,29.91,29.91,0,0,0-10.54,1.53,85.93,85.93,0,0,0-10.24,4.09,35.22,35.22,0,0,0-8.32,5.07c-2.76,2.4-5.29,5.07-8.15,7.37a8.1,8.1,0,0,1-3.12,2.27,31.55,31.55,0,0,1-5.11,2.71l-1,.68a24.1,24.1,0,0,1-3.09,1.73c-2.34,1.1-4.64,2.32-7,3.37-3.82,1.7-7.58,3.52-11.42,5.18l-.88.47c-2.13,1.17-4.22,2.41-6.34,3.6-1.33.75-1.71,1-2.05,1.79a80.76,80.76,0,0,1-15.79,6.13c-2.81.77-5.67,1.39-8.55,2-1.59.75-3.47.7-5.24.94l-1,.13-1,.1-2,.2c-1.37.16-2.69.48-4,.76-5,1-10.08,1.21-15.08,2.05l-.32.09c-.44.19-.88.38-1.33.56a12.72,12.72,0,0,1-1.29.57,30.35,30.35,0,0,0-7.05,3.17c-3.06,1.75-6.11,3.54-9.26,5.14q-2.18,1.11-4.39,2.17c-3.17,1.87-6.52,3.44-9.73,5.24A34.73,34.73,0,0,1,71,247a25.17,25.17,0,0,1-5.53,2.11c-2.31.61-4.82,1.61-7.22,1.6-2.06,0-4-.89-6-1.1-.31,0-.61,0-.92.09a50.8,50.8,0,0,0-5.06,1.24,63.76,63.76,0,0,1-6.5,1.08,2.6,2.6,0,0,0-.88.3,2.36,2.36,0,0,0-.68-.21,26.39,26.39,0,0,0-6.56.27A1.8,1.8,0,0,0,30,253.79a13.73,13.73,0,0,0-.46,6.06c.06.31.11.61.15.92.67,2.07,1.23,4.19,1.95,6.25.17.4.38.88.5,1.15q1,2,1.76,4.09a23,23,0,0,1,1.27,4c1.1,5.21,1.64,10.3,3.45,15.3.32.73.94,2.18,1.17,2.63.63,1.28,1.27,2.56,2,3.81,1.28,2.37,2.51,4.86,4,7.11.18.19.36.38.55.56s.4.26.61.37l.07,0,.37.12c.57.15,1.14.28,1.71.39,1,.1,2.06.17,3.1.23a74.67,74.67,0,0,1,9.55-1.61c.33-.05.66-.06,1-.12l2.63-.47.19-.16a9.37,9.37,0,0,0,.87-1.82,10.31,10.31,0,0,1-1.11-1.17c-2.57-3.22-4.8-6.77-4.46-11.11.39-4.9,2.64-10.66,7.54-12.82a23.08,23.08,0,0,1,7.31-2.18c.89-.32,1.78-.63,2.67-.91a51.15,51.15,0,0,1,6.57-1.8c5.34-.91,10.72-1.5,16.1-2.08,5.53-.59,11-1.54,16.55-2.28a82.19,82.19,0,0,0,12.87-2.82c2.25-.68,4.49-1.43,6.76-2a27.55,27.55,0,0,1,9.08-1.09,29.4,29.4,0,0,0,8.18-.56,21.83,21.83,0,0,1,2.78-.46,26,26,0,0,0,6-1.22,18.77,18.77,0,0,1,2-.58c2.39-.47,4.78-.91,7.17-1.35,2.94-.54,2.95-.54,4.68,1.83.42.57.85,1.13,1.21,1.74l.1.18c4.18,1.66,8.85,1.89,13.29,2.51,6.12.85,12.36.8,18.53.92l.24,0a56.07,56.07,0,0,0,24.3-6.35c3.53-1.73,7.23-3.4,10.59-5.44,4.6-2.78,8.13-6.82,12-10.49.7-1.09,1.32-2.23,2-3.34l.08-.12c.08-.88.13-1.76.22-2.63,0-.45.09-.9.13-1.34,1.78,0,2.5.16,3,1.4a3.46,3.46,0,0,0,2.61,2.11c1,.27,2,.53,2.93.88a51,51,0,0,0,17.31,3,19.14,19.14,0,0,1,2.59.12,61.78,61.78,0,0,0,9.4.34,27.22,27.22,0,0,1,4,.27,68.85,68.85,0,0,0,8,.75,162.88,162.88,0,0,0,20.2-1.21,42.76,42.76,0,0,0,5.56-1,51.2,51.2,0,0,0,14-5.43,11.31,11.31,0,0,1,1.57-.62c.05.22.11.4.16.56a4.48,4.48,0,0,1,3.23,1.33,7.31,7.31,0,0,1,2.15,4.48l.24.51c1,2.05,1.85,4.16,2.95,6.14a102.82,102.82,0,0,0,9.72,15c1.13,1.4,2.19,2.87,3.23,4.34a42.64,42.64,0,0,0,4.23,5.35,8.83,8.83,0,0,1,1.51,2.08c1.33,2.58,2.55,5.22,3.88,7.8a49.56,49.56,0,0,0,3.91,7.23c1.54,2.07,2.92,4.27,4.36,6.42.56.85,1,1.76,1.64,2.57,1.42,1.88,2.9,3.71,4.35,5.56,2.37,3,4.52,6.23,7.27,8.94a3.47,3.47,0,0,1,.71.92,2.3,2.3,0,0,1,0,.9,2.77,2.77,0,0,1,.13.56,5.17,5.17,0,0,0,1.12,2.49c.81.52,1.63,1,2.48,1.5,1.51.85,3,1.67,4.59,2.41l.58.28.22.08q.75.28,1.52.52a57.51,57.51,0,0,0,8.84,2l.3,0,.46,0c.83.09,1.65.17,2.48.23,1.36.1,2.71.19,4.07.22,3.3.09,6.61.06,9.91,0,4-.06,8-.19,12-.45a3.89,3.89,0,0,1,.58-.06h.52c1.23-.09,2.46-.19,3.69-.3a2.42,2.42,0,0,0,.48-.26c.24-.5.54-1,.78-1.62C459.5,323.4,459.4,323,458.7,322.56Zm-1.86,1s0-.13-.05-.2a2.61,2.61,0,0,1,.38,0s0,.13.05.2A2.36,2.36,0,0,1,456.83,323.55Z"/></svg>