<?xml version="1.0" encoding="utf-8"?>
<!-- Generator: Adobe Illustrator 21.1.0, SVG Export Plug-In . SVG Version: 6.00 Build 0)  -->
<svg version="1.1" id="Layer_2" xmlns="http://www.w3.org/2000/svg" xmlns:xlink="http://www.w3.org/1999/xlink" x="0px" y="0px"
	 viewBox="0 0 489.5 489.5" style="enable-background:new 0 0 489.5 489.5;" xml:space="preserve">
<style type="text/css">
	.st0{fill:#EB5858;}
</style>
<path class="st0" d="M448.2,371.8c-0.5-2.7-1.2-5.4-1.8-8.1c-0.7-3.6-1.4-7.3-2.2-10.9c-0.4-1.9-1-3.8-1.4-5.7
	c-0.3-1.2-0.5-2.4-0.6-3.6c-0.3-1-0.7-1.9-1-2.9c-0.5-1.2-0.9-2.3-1.3-3.5c-0.7-1.3-1.4-2.7-2-4.1c-1.5-3.5-3.5-6.7-5.9-9.7
	c-1.3-1.6-2.9-2.8-5.2-2.7c-0.4,0-0.9-0.1-1.3-0.2c-1.9-0.4-2.5,0.1-2.3,2c0.1,1.4,0.4,2.7,0.5,4.1c0.1,1.1,0.3,2.3,0.4,3.4
	c0.2,0.8,0.4,1.7,0.5,2.6c0.2,1.6,0.1,3.3,0,4.9c-0.4,3.6-1,7.3-1.9,10.8c-1.3,5.1-4.9,12.2-10.7,13.4c-0.8,0.3-1.5,0.6-2.3,0.7
	c-2.5,0.4-5,0.7-7.5,0.6c-3.8-0.2-7.6-0.5-11.3-1.1c-5-0.9-9.9-2.3-14.9-3.1c-7.1-1.1-13.9-3.5-21.1-4.4c-0.4,0-0.7-0.3-1-0.4
	c-2.1-0.9-4.1-1.7-6.2-2.7c-1.6-0.8-3.2-1.4-4.7-2.2c-1.5-0.6-2.9-1.2-4.4-1.8c-3.7-1.4-7.4-2.3-11.1-3.4c-0.7-0.2-1.4-0.4-2.1-0.7
	c-2.6-0.7-5.2-1.3-7.9-2c-3.3-0.9-6.4-1.8-9.5-3c-0.4-0.1-0.9-0.3-1.3-0.5c-1.3-0.2-2.6-0.6-3.8-1.2c-3.3-0.7-6.6-1.3-9.9-2
	c-1.2-0.3-1.5-0.7-1.5-2.1c0.1-4.5,0.3-8.9,0.3-13.4c0.1-15.3,0.4-76.3,0.5-77.9c0.3-17.7,0-35.5,0.4-53.2c0.6-26.3-0.3-52.6,0.5-79
	c0.2-5.5,0-10.9,0-16.4c0-2.4,0-4.9,0-7.3c0-1.7-0.7-2.3-2.4-2.2c-1,0-2,0.2-2.9,0.3c-2.1,0.2-2.3,0.4-2.4,2.4
	c-0.1,6.3-0.3,12.6-0.4,18.9c-0.2,28.7-0.3,57.5-0.5,86.2c-0.1,11.8,0,23.7,0,35.5c0,5,0,10,0,15c0,2,0,22,0,23.5
	c-0.1,9-0.3,18-0.3,27.1c-0.1,12.4-0.1,24.9-0.1,37.3c0,0.5,0,0.9,0,1.4c0,2.6-0.1,2.6-2.8,2.3c-5.5-0.5-11-1-16.5-1.4
	c-1.7-0.1-3.5,0.2-5.2,0.3c-1,0.1-1.5-0.4-1.7-1.4c-1.1-5.4-4.5-35.3-5.6-43c-0.7-4.9-1.2-9.8-1.5-14.7c-0.2-2.5,0.3-5.1,0.6-7.7
	c0.2-1.8,0.5-3.6,0.8-5.4c0.1-0.6,0.2-1.2,0.5-1.7c1.3-2.4,2.7-4.7,3.9-7c0.4,0,8.6-22.3,8.8-23.7c0.6-4.3,1-8.6,1.6-12.8
	c0.3-2.1,0.5-4.2,0.9-6.3c1.1-6.7,2.1-13.3,3.2-20c0.6-3.8,1.2-7.6,1.9-11.4c0.1-0.8,0.5-1.7,1-2.2c1.2-1.2,1.7-2.6,2.2-4.1
	c0.6-1.7,1.3-3.4,1.8-5.1c0.5-1.9,0.9-3.8,1.1-5.8c0.2-1.3,0-2.7,0.1-4.1c0.1-2.1-0.3-3-2.5-3.4c-2-0.4-4-0.7-6.1-0.8
	c-4.1-0.2-8.3-0.3-12.4-0.5v-0.2c-0.3,0-0.6,0-0.8-0.1c-0.2,0-0.3-0.1-0.5-0.1c-0.4-0.1-0.8-0.2-1.2-0.2c-0.9,0-1.7,0-2.6,0
	c-2.9-0.1-5.9-0.3-8.8-0.3c-2.6,0-5.1,0.5-7.7,0.3c-2-0.2-3.9-0.1-5.8,0.4c-1.2,0.3-2.5,0.6-3.8,0.6c-2.8,0-5.4,0.6-8,1.5
	c-1.1,0.4-2.1,0.9-3,1.5c-1.6,1-1.3,2.6-1.1,4.1c0.2,1.2,1.1,1.8,2.6,2.1c3.4,0.6,6.7,1.3,10.1,1.7c2.6,0.3,4.4,2.6,7.1,2.5
	c0.2,0,0.5,0.4,0.7,0.5c0.5,0.2,0.9,0.6,1.4,0.7c2.2,0.4,3.9,2,5.7,3.2c0.3,0.2,0.6,0.4,0.9,0.7c3.4,2.1,6.5,4.6,8.2,8
	c0.1,0.1,0.3,0.3,0.3,0.4c0.8,2,1.7,4.1,1.4,6.4c-1,8.2-2.8,16.1-6,23.7c-0.8,2-1.7,4-2.5,5.9c-0.4,0-11.2,18.2-18,38.2
	c-7,20.9-11.1,42.8-11.3,43.9c0,0.4-0.1,0.8-0.2,1.2c-1.6,6.9-3.2,13.7-4.8,20.6c-0.8,3.2-1.5,6.5-2.1,9.8c-0.3,1.5-0.8,2-2.2,1.9
	c-1.8-0.1-6.3-0.3-6.8-0.4c-63.8,1.2-86.9,15.5-88.4,15.8c-2.6,0.5-5.2,1.3-7.8,1.4c-3.5,0.1-5.3-0.9-5.8-4.3
	c-0.2-1.6-0.6-3.1-0.9-4.7c-0.4-2.1-1.4-3-3.5-3.2c-0.8-0.1-1.8-0.2-2.3-0.6c-1.7-1.5-3.8-1.8-5.9-2c-1.8-0.1-2.9-0.7-3.6-2.5
	c-0.9-2.1-2.1-2.4-4-1.3c-2,1.2-3.9,2.6-5.7,4.1c-1.3,1.1-2.4,1.8-4,0.7c-0.4-0.3-1-0.4-1.5-0.3c-5,1.5-9.8,3.2-13.9,6.5
	c-0.6,0.5-1,1.3-1.5,1.9c-0.7,0.9-1.2,2-2.1,2.6c-3.4,2.5-5.7,5.7-7.5,9.3c0,0.3,0,0.6-0.1,0.9c-1,3.5-1.2,7.2-1.3,10.8
	c0,3-0.2,6.1,0.4,9.1c1.1,5.9,4.9,10.6,10.8,12.1c5.5,1.4,11.2,0.7,16.7-0.4c4.6-1,9.4-2.1,14.1-1.7c0.2,0,0.4,0,0.5,0l0,0
	c0.1,0,0.2,0,0.3,0l0,0c0.1,0,0.3,0,0.4,0c0.2,0,0.4,0,0.7,0.1l0,0c0.1,0,0.3,0,0.4,0.1c0.2,0,0.4,0.1,0.7,0.1l0,0
	c0.2,0,0.4,0.1,0.6,0.1l0,0c0.1,0,0.3,0.1,0.4,0.1l0,0c0.2,0,0.4,0.1,0.5,0.1l0,0c0.3,0.1,0.5,0.2,0.8,0.2c4,0.9,7.7,2.6,11.2,5
	c0.3,0.2,0.7,0.5,1,0.7c5.4,1.1,10.9,2.2,16.4,2.8c5.8,0.6,11.8,0.4,17.6,0.4s11.7,0.1,17.5,0.7c5.6,0.6,11.3,1.1,16.9,1.3
	c5.9,0.2,11.8,0.3,17.6,0.8s11.6,1,17.4,1.1c4,0.1,7.8,0.4,11.6,1.1c3.4,0.2,6.7,0.5,10.1,0.9c6.3,0.6,12.5,1,18.8,1.9
	c2.9,0.4,5.9,0.7,8.8,1.1c10.1-0.5,20.7,1.5,30.4,3c7.4,0.8,14.8,0.2,22.3-0.2c8.7-0.5,17.3-1.2,25.9-2.2c4.8-0.7,9.6-1.5,14.3-2.5
	c3.5-1.4,7.2-2.7,10.9-3.7c0.1-0.6,0.2-1.2,0.3-1.7c0.2-1.2,0.9-1.8,2-2.2c4.7-1.4,9.6-1.9,14.5-2.6c3.1-0.5,6.2-0.6,9.3-0.9
	c4.2-0.4,8.4-0.8,12.7-1.1c2.3-0.1,4.7,0.1,7,0.1c3.6,0.1,7.2,0.2,10.8,0.2c4.7,0.1,9.4,0.1,14.1,0.1c0.2,0,0.4,0,0.5,0
	c0.7,0.4,1.4,0.8,2.1,1.1c0.4,0.2,0.8,0.4,1.2,0.6c0.5,0.1,0.9,0.2,1.3,0.4c0.4,0.1,0.9,0.2,1.2,0.4c1,0.2,2,0.4,3,0.4
	c7.4,0,13.7-6.2,13.7-13.7C449.4,375.4,448.9,373.5,448.2,371.8z"/>
</svg>
