<svg id="Layer_1" data-name="Layer 1" xmlns="http://www.w3.org/2000/svg" viewBox="0 0 489.5 489.5"><defs><style>.cls-1{fill:#eb2227;}</style></defs><title>active-straight-leg-raise</title><path class="cls-1" d="M459.79,359.73a3,3,0,0,0-2.3-2.45c-1.22-.27-27.74-6.2-43.16-6.48a28.6,28.6,0,0,0,4-13.9c0-10.46-7.53-21.29-15-27.4-9.25-7.56-26.11-15.4-53.87-9.76a11.46,11.46,0,0,0-9.25,10.86c-.23,7.15.05,14.19.24,17.76l-11.89,3.5L326.84,263a51.87,51.87,0,0,1,2.37-16.87A185.76,185.76,0,0,0,335,223.47c2-12.15,9-50.15,9.46-52.58l5.07-18.83a35.62,35.62,0,0,0,0-18.52l-.83-3.08a11.1,11.1,0,0,0-8.71-8.18,10.68,10.68,0,0,0-6.32.86l-29-19.65a11.64,11.64,0,0,0-13.94.66,12,12,0,0,0-2.89,3.57c-6,11-16.83,30.32-22.53,37.43-3.63,4.54-9.52,9.79-15.75,15.35-7.79,6.95-15.84,14.13-20.26,20.71-8.75,13-9.51,20.43-10.17,27a42.9,42.9,0,0,1-1.33,8,44.47,44.47,0,0,1-8.17,15.66l-28.38,35.1s-9.79,10.88-12,13.18c-8.74-11.47-41.34-53.2-57.6-59.9-8.62-3.55-16.68-1.5-23.29,5.92a32.57,32.57,0,0,0-7.87,17.8c-6.27,50.46-12.41,85.84-15.63,90.13-1.2,1.6-7.51,6.88-40.17,21.34a7.84,7.84,0,0,0,3.18,15h0L78,370.2a9.16,9.16,0,0,0,9.55-8.5l.86-11.19a49.44,49.44,0,0,1,4.82-17.81c5.89-12.15,14.87-32.08,18.56-47.42a211.18,211.18,0,0,0,26.32,45.32,26,26,0,0,0,1.19,12.63c10.47,27.91,27.86,31.49,41.84,31.49,8.18,0,21.78-1.59,33.78-3,10.07-1.17,19.58-2.29,24.24-2.29,4,0,13.32,1,23.15,2.12,14,1.55,29.57,3.27,39.44,3.27,1.5,0,2.87,0,4.08-.13,12-.86,16.76-5.11,18.54-7.63l24.8-3.81c3.32,2.24,13.79,8.29,30.29,8.29a36.87,36.87,0,0,0,5.08-.36,73,73,0,0,0,27.86,5.16c23.21,0,45-13,45.93-13.58A3,3,0,0,0,459.79,359.73ZM253.59,165c6.43-5.73,12.49-11.15,16.44-16.08,6-7.52,17.12-27.34,23.21-38.49a5.57,5.57,0,0,1,4-2.86,5.85,5.85,0,0,1,4.2,1L329,127.24l-6.9,9.34c-4.53-.1-17.3.19-27.39,5.7-6.85,3.74-17.62,22.86-29.76,47.07-6.74-7.44-17-11.66-23-13.64C245.51,172.18,249.58,168.55,253.59,165Zm38.67,134.76c-6.11-.52-19.63-.1-28.29,12-8.92.23-34.7,2-45.51,2.8,6.59-16.4,28.84-72,32-82,1.74-3.27,4.53-9,8-16.32,10.08-20.87,31-64.3,39.14-68.71,7.64-4.17,17.46-4.89,22.5-5-.94,6.83-2.43,22,1.36,31.07-1.13,4-3.3,11.52-5.79,20.06-6.06,20.81-13.61,46.71-15.07,54C299.52,253.14,295.73,277.27,292.26,299.74ZM87.87,330.09a55.39,55.39,0,0,0-5.41,20l-.86,11.19a3.21,3.21,0,0,1-3.36,3h-.16l-50.21.2h0a1.84,1.84,0,0,1-.75-3.53c37.61-16.65,41.32-21.6,42.54-23.23,3.49-4.65,7.77-28.49,11.44-53.34,4.78,3.38,13,8.07,21.73,8.07l.77,0C99.07,306.28,91.76,322,87.87,330.09Zm25.46-57.48a3,3,0,0,0-5.83,1,51.37,51.37,0,0,1-2.07,12.56c-9.65,1.5-19.92-5.89-23.35-8.64,1.67-11.74,3.17-23.33,4.36-32.87a26.58,26.58,0,0,1,6.39-14.55c4.9-5.5,10.31-6.93,16.53-4.37,15.08,6.21,48.24,49,55.72,58.77-8.82,9.63-20.46,24.23-25.13,38.44A209.46,209.46,0,0,1,113.33,272.61ZM145,341.13c-4.42-11.79,5.13-28.15,13.91-39.8a191.77,191.77,0,0,1,18.05-20.42c1.9-1.87,11.26-13,11.26-13l26.14-32.33a50.43,50.43,0,0,0,9.26-17.76,48.29,48.29,0,0,0,1.54-9c.62-6.13,1.27-12.48,9.18-24.24a43,43,0,0,1,3.08-4c4.7,1.32,18.1,5.73,24.66,14.63-2.94,5.95-5.95,12.14-9,18.43-3.57,7.4-6.4,13.25-8.06,16.34a2.94,2.94,0,0,0-.23.56c-2.74,9.14-26.9,69.4-32.51,83.36-.71,1.77-1.84,5-1.84,5l-5,15.84a3,3,0,1,0,5.72,1.81l5-15.8,5.55-.4c-1.38,8.76-6.7,32.18-25.35,47.39-5.85.57-11.21,1-15.15,1C167.74,368.72,154.05,365.38,145,341.13Zm94.24,22.32c-5,0-14.69,1.13-24.93,2.33l-8,.92c16.29-17.09,20.52-39.23,21.52-46.75,13.4-.93,32.53-2.18,37.75-2.18a3,3,0,0,0,2.53-1.39c6.84-10.72,18.06-11.17,23.24-10.73-1,6.62-2,12.93-2.82,18.37-4,2.29-15,9.63-17.76,21.72-1.58,6.83-.27,13.92,3.88,21.14-4-.42-7.91-.85-11.63-1.26C252.57,364.44,243.56,363.45,239.2,363.45Zm66.25,5.28c-5.12.36-13.8-.22-23.15-1.1-5.24-7.22-7.16-14.12-5.69-20.52,1.57-6.8,6.66-11.92,10.68-15-.83,5.4-1.37,9-1.47,9.65a3,3,0,0,0,5.93.9c.56-3.68,12.39-82,14.74-93.75,1.41-7,9.23-33.89,14.94-53.49,2.73-9.37,5.09-17.46,6.11-21.21a3,3,0,0,0-.2-2.11c-3.83-7.63-2.05-24.49-.91-31.22l7.41-10a6.4,6.4,0,0,1,.55-.67c2.27-2.33,4.29-2,4.71-1.94a4.65,4.65,0,0,1,3.7,3.43l.93,3.46a29.68,29.68,0,0,1,0,15.4l-4.81,17.88s-.33,1.23-.34,1.31c-.07.4-7.41,40.26-9.5,52.8a180,180,0,0,1-5.59,21.84,57.92,57.92,0,0,0-2.64,18.81l1.86,72.7c-.23,7.47-2.78,27.45-11.68,32.13A39.58,39.58,0,0,1,305.45,368.73Zm46.39-11a3,3,0,0,0-2.33-.62l-25.83,4c3.58-8.45,4.61-18.45,4.91-23l15.89-4.67a3,3,0,0,0,2.15-3.09c0-.1-.69-9.88-.38-19.56a5.48,5.48,0,0,1,4.44-5.17c25.45-5.17,40.63,1.78,48.88,8.53,8.84,7.23,12.8,16.63,12.8,22.75,0,12.89-15.17,28.65-32.87,28.65S351.93,357.84,351.84,357.77Zm60.61,12.58a71.91,71.91,0,0,1-17.58-2.1A42.79,42.79,0,0,0,410,356.94l.82-.08c9.17-.58,26.75,2.51,37.12,4.56C439.89,365.17,426.25,370.35,412.45,370.35Z"/></svg>