<svg id="Layer_1" data-name="Layer 1" xmlns="http://www.w3.org/2000/svg" viewBox="0 0 512.04 487.74"><defs><style>.cls-1{fill:#fff;}.cls-2{fill:#e92331;}</style></defs><title>breath_screen</title><path class="cls-1" d="M327.3,237.5c-17.1-25.4-29.4-43.7-29.4-57.1,0-2.9.2-6.8.5-11.3.8-13.2,2.2-35.4-3.7-45.2-7.6-12.4-1.8-24.6,3.7-36.4,4.4-9.4,9.5-20.1,9.5-33.2,0-10-56.8-22-127.4-22a5.7,5.7,0,0,1-1.3-.1c-.3-.1-31.9-4.4-66.7,3-44.9,9.5-73.9,33.4-86.1,71C4.9,172.4,33.8,226.3,52.9,261.9c9.1,17,15.7,29.3,15.7,39.7,0,27.7,0,53.8-19,70.1a46.64,46.64,0,0,0-13,18.5L212.4,476l2.3-40.1-13.4-9.3a9.3,9.3,0,0,1-4-7.7V390.2a9.35,9.35,0,0,1,13-8.6,128,128,0,0,0,44.6,8.4c23.9,0,38.3-5.8,38.3-11.4,0-10.3.7-25.6,1.2-33.5l-49.8-34.2a9.49,9.49,0,0,1-3.8-10,9.16,9.16,0,0,1,8-7l55.6-6.4.8-18.5a9.2,9.2,0,0,1,3.4-6.8,9.48,9.48,0,0,1,7.4-2c10,1.7,22,1.1,24.6-1.1a30,30,0,0,0-3.3-6.4C333.9,247.4,330.5,242.3,327.3,237.5Z" transform="translate(0.04 -12.16)"/><path class="cls-2" d="M356.4,269.3c4.7-7.3,3.6-16.3-3.4-26.9q-5.25-8-10.2-15.3c-12.9-19.2-26.2-39-26.2-46.7,0-2.6.2-6.1.5-10.1,1.1-17.4,2.6-41.3-6.4-56.1-2.1-3.5-.2-8.4,4.7-18.8,5-10.6,11.2-23.9,11.2-41.1,0-36.5-101.2-40.6-145.4-40.7a232.13,232.13,0,0,0-72,3.2C57.6,27.6,22.9,56.5,8.6,100.4c-23.9,73.8,7.2,131.8,27.8,170.3,6.9,12.9,13.5,25.1,13.5,30.9,0,28.1-.8,45.9-12.4,55.9-17.8,15.2-21.1,35.3-21.2,36.2a9.47,9.47,0,0,0,5.1,9.8L216.8,499a9.78,9.78,0,0,0,4.1.9,8.78,8.78,0,0,0,4.7-1.3,9.4,9.4,0,0,0,4.6-7.5l3.4-59.3a9.22,9.22,0,0,0-4-8.2L216,414V403.1a145,145,0,0,0,39,5.5c36.2,0,56.9-10.9,56.9-30,0-13.7,1.4-37.5,1.4-37.7a9.11,9.11,0,0,0-4-8.2l-33.5-23.1,38.8-4.4a9.34,9.34,0,0,0,8.3-8.9l.7-16.5C334.6,280.4,350,279.2,356.4,269.3Zm-40.3-9.1a9.48,9.48,0,0,0-7.4,2,9.2,9.2,0,0,0-3.4,6.8l-.8,18.5-55.6,6.4a9.16,9.16,0,0,0-8,7,9.56,9.56,0,0,0,3.8,10l49.8,34.2c-.4,8-1.2,23.2-1.2,33.5,0,5.6-14.3,11.4-38.3,11.4a130.75,130.75,0,0,1-44.6-8.4,9.47,9.47,0,0,0-8.8.8,9.28,9.28,0,0,0-4.2,7.8v28.7a9.43,9.43,0,0,0,4,7.7l13.4,9.3L212.5,476,36.6,390.1a47.33,47.33,0,0,1,13-18.5c19-16.2,19-42.4,19-70.1,0-10.5-6.6-22.7-15.7-39.7C33.8,226.2,5,172.4,26.4,106.1c12.2-37.6,41.1-61.5,86.1-71,34.7-7.4,66.4-3,66.7-3a5.7,5.7,0,0,0,1.3.1c70.5,0,127.4,12,127.4,22,0,13-5,23.7-9.5,33.2-5.6,11.8-11.3,24-3.7,36.4,6,9.8,4.6,32,3.7,45.2-.3,4.5-.5,8.4-.5,11.3,0,13.4,12.3,31.7,29.4,57.1,3.3,4.9,6.7,9.9,10.2,15.2a30,30,0,0,1,3.3,6.4C338.2,261.3,326.1,261.9,316.1,260.2Z" transform="translate(0.04 -12.16)"/><path class="cls-2" d="M512,282.9a46.75,46.75,0,0,0-46.7-46.7,9.3,9.3,0,1,0,0,18.6,28,28,0,0,1,0,56h-126v18.7H470V329A46.45,46.45,0,0,0,512,282.9Z" transform="translate(0.04 -12.16)"/><rect class="cls-2" x="339.34" y="336.04" width="130.7" height="18.7"/></svg>