<svg id="Layer_1" data-name="Layer 1" xmlns="http://www.w3.org/2000/svg" viewBox="0 0 66.59 78.41"><defs><style>.cls-1{fill:#eb5858;}.cls-2{fill:none;stroke:#fff;stroke-miterlimit:10;stroke-width:0.25px;}</style></defs><title>broad_jump_hands_on_hips</title><path class="cls-1" d="M3,24.47c5.33-4.75,18.17-3.83,18.17-3.83s21.43,1.5,24.5,1.92,3.83.42,4.92.67S52,21.65,52,21.65a7.08,7.08,0,0,1,5.83-7.33c6.58,0,8.75,5.25,8.75,7.17a11.6,11.6,0,0,1-1,4.08l-.83.58s.42,2.67-.08,3.17A3.21,3.21,0,0,1,63,29.9s-1.54,3.42-2.25,3.5-2.58-1-3.58-1.17c-1.54-.42-7.92,1.17-7.92,1.17a3.71,3.71,0,0,1-.33,1.67c-.33.38-1.08,0-1.08,0S44,38.9,41.76,39.74s-8.58,1.33-10,1.5a33.9,33.9,0,0,1-4.25,0s2.56,7.26,2.92,7.92,1.54,2,1.75,3.17A6.28,6.28,0,0,1,31,56.16L21.93,69.49a24.86,24.86,0,0,0-1.67,3.75,1.86,1.86,0,0,0,.58,1.58,15,15,0,0,0,2.67,2.25c.59.15,6,1,6.33,1.58.5.88-.25,1.71-.42,2.08-.67.92-6.33,1.42-6.33,1.42H17.16a8.78,8.78,0,0,0,.58,2.08c.46,1.08,4.33,3,4.33,3s3.21.5,3.58,1.33a1.88,1.88,0,0,1-.42,1.92c-.62,1-4.46,2.25-7,2.25A36.23,36.23,0,0,1,11.48,92,11.93,11.93,0,0,1,7.31,89.9c-.21-.37.58-1.67.58-1.67s0-4.46,1.67-5.42c.35-1.39,2.86-10.58,2.92-11.75a20.26,20.26,0,0,1,1-6.33c.92-2.33,5.25-7.67,5.25-7.67l-1.5-2.17s-7.37-1.92-8.42-2-2.92.83-3.42.63-.3-1.8-.58-2.79l-3.75-13S-2.34,29.22,3,24.47Z" transform="translate(0.01 -14.32)"/><path class="cls-2" d="M37.33,24.64c1.5.67,2.83,7.83-4,9C32,33.47,30.54,31.89,28.54,32s-4.59-1-6.17-1.17l-5.17-.42L18,33.13a1.33,1.33,0,0,1-.83,1.58,5.5,5.5,0,0,1-5.83-1.08c-.83-.83-1.17-2.08-1.17-4s2.58-4,2.58-4-.58-2.17.5-2.17S15,25.21,15,25.21s5.08-1.75,8.42-1.75h3.42C30.33,22.81,33.29,23.56,37.33,24.64Z" transform="translate(0.01 -14.32)"/></svg>