<svg id="Layer_1" data-name="Layer 1" xmlns="http://www.w3.org/2000/svg" viewBox="0 0 696.81 542.12"><defs><style>.cls-1{fill:#eb5858;}.cls-2{fill:#fff;}</style></defs><title>closed_chain_ankle_dorsiflexion</title><path class="cls-1" d="M1292.83,798.62c-1.63-.54-31.58-8.62-72.52-19.63l15.25-12.6V749.72h-50.33L1168.08,765c-66.9-18-142.35-38.18-176.14-47.23h77V702.39l-7.37-9.33H982.59l80.48-27.64,28.94,8.3,32.22-10.67V644.42l91.33-31.36c5.83-7.5-3-11.33-3-11.33L1104,638.64l-38.22-9.59-29.52,14.67v14l6.3,1.81-98.61,33.53H910v7.33H749l-16.18-17.33H691.36v16.67l.61.67H616.23c-6.89,7.5,0,15,0,15h89.42l11.25,12.33h43.33V715.39H913.95l1.61,2.33h31.92l208.88,57.64-12.8,11.36v17.67h46l18-14.89,83.81,23.13S1298.89,807.72,1292.83,798.62Z" transform="translate(-613.16 -270.5)"/><path class="cls-1" d="M1245.23,686.89c-6,3.5-98-4.5-114.5,0-10.69-11.57-16.25-60.25-16.5-65-1-12,17-24,13.5-49s-20.31-36.58-23-49.5-10.75-31.25-10.5-50.5,11.5-25.5,10.5-44.5-10-45.75-14.5-53-12.75-11.25-15-14-7.5-23-7.5-23,4-10.5,2.5-21-.75-39.75-26-44.5c-35.25-4-42.25,23.75-43,28-1.25,12.25,3.5,23.5,3.5,23.5s-4.5,15.25-3.5,18,6,1,6,1,3.75,5.75,4.5,7,2.5.75,2.5.75a3.61,3.61,0,0,0-.25,2.5c.38,1.38,3.38.88,4.75,1.75s1,4,3.25,5.5,16-.5,16-.5,5.25,5.63,6,13-5.29,13.49-6.25,15c-18.87,19.63-23.5,28.63-25.75,40.5s1.43,24.33,1.75,28.25l5.75,70s-86.5-.5-97.5,5c-4.25,1.5-14.75,8-11.25,27.25,0,7.5,57.25,78.25,64.75,99.25,1,3.75-2.75,11.5-6.5,17.25s-23.12,12.71-27,13.75-13.5,2.75-12.75,8,31.52,4.64,35.5,2.75,9.5-4.75,13.75-5.5,21,3,25.25,2.25,8.75-5.5,9-12.5c.5-4.75-3.25-10.25-10.25-23s-19.64-50.61-26.75-63.5l-13.25-24,48.42,18.25s-9,16.5-10.67,22-1,17-1,17,0,17.17,1.33,18.33,3-.67,3-.67a16.29,16.29,0,0,0,4.67,2c1.75.21,3.67-2,3.67-2a20.11,20.11,0,0,0,3.67.67c1.42,0,2.67-1.58,2.67-1.58s1.75,1.25,3.25.75,1.5-6.75,1.5-6.75-1-18-1-22,6.75-11.25,8-14.5-.5-8-.5-8l15,3.25s6,37,17.75,61.25,35.75,55,35.75,55a23,23,0,0,0,17.25,7.5c11.25,0,82.25-8.75,104.5-10.75s33.08-.13,42.75.25l42.5-2s3-.25,3-5.25c0-6.75-9-9.5-9-9.5s-11.75-1.25-16.5-3.5-13-18.75-16.75-20.5-12.37-.65-14,4S1251.23,683.39,1245.23,686.89Z" transform="translate(-613.16 -270.5)"/><path class="cls-2" d="M1115.23,726.64a24.9,24.9,0,0,1-18.81-8.25c-.26-.33-24.28-31.22-36-55.38-10.62-21.91-16.49-53.48-17.7-60.45l-10.52-2.28a12,12,0,0,1-.36,6.08,30.41,30.41,0,0,1-3.32,5.41c-1.92,2.75-4.54,6.5-4.54,8.37,0,3.9,1,21.71,1,21.89v.11c0,7.69-2.16,8.41-2.87,8.65a5.2,5.2,0,0,1-3.51-.21,4.84,4.84,0,0,1-3.1,1.15,16.94,16.94,0,0,1-3-.45A6.13,6.13,0,0,1,1008,653a13.76,13.76,0,0,1-4.26-1.59,3.88,3.88,0,0,1-3.7.31c1.54,3.6,3,6.68,4.2,8.91s2.34,4.22,3.36,6c5,9,7.58,13.53,7.13,18.06-.32,8.14-5.72,13.46-10.65,14.33-2.28.4-6.52-.15-13.26-1.12-4.77-.68-10.18-1.46-12-1.13-3.4.6-7.91,2.77-11.54,4.52l-1.7.82c-4.07,1.93-29,2.53-35.79-1.13a4.35,4.35,0,0,1-2.55-3.15c-.93-6.48,8-8.68,12.82-9.87l1.39-.35c5.25-1.4,22.77-8.21,25.84-12.91,4.24-6.51,6.86-13,6.26-15.57-4-11.18-22.49-36.85-38.78-59.51-18.15-25.25-25.75-36.19-26-40.1-3.95-22,9.42-28.22,12.46-29.32,10.86-5.18,80.7-5.22,96.11-5.16l-5.57-67.83c-.07-.81-.33-2.19-.62-3.8-1.08-5.8-2.89-15.5-1.1-25,2.26-12,6.76-21.21,26.15-41.39.19-.28.45-.6.78-1,1.82-2.31,5.6-7.11,5-12.52a22.72,22.72,0,0,0-4.83-11.07c-5.51.76-13.94,1.59-16.29,0a7.62,7.62,0,0,1-2.87-4.41,7.79,7.79,0,0,0-.41-1.1,7.93,7.93,0,0,0-1.41-.29c-1.42-.21-3.57-.53-4.13-2.59a5.42,5.42,0,0,1-.18-1.2,3.58,3.58,0,0,1-1.85-1.55c-.51-.85-2.52-4-3.66-5.71-3,.63-6,.08-7-2.64-1.06-2.91,1.78-13.49,3.27-18.59-1-2.68-4.5-12.77-3.38-23.8l0-.14c.25-1.39,6.46-34,45.2-29.64l.14,0c23.58,4.44,25.88,28.59,27.11,41.56.17,1.8.32,3.36.5,4.62,1.36,9.54-1.53,18.9-2.39,21.38,2.51,9.59,5.75,20.16,7,21.64a25,25,0,0,0,3.71,3c3.5,2.58,8.29,6.1,11.44,11.18,4.59,7.39,13.78,34.62,14.8,53.95.54,10.28-2.38,17.1-5.21,23.68-2.66,6.19-5.17,12-5.28,20.95-.17,13.07,3.56,25.62,6.85,36.7,1.43,4.81,2.78,9.35,3.61,13.37,1,4.81,4.24,9.61,8,15.17,5.73,8.49,12.87,19,15,34.46,2.2,15.68-3.69,26.42-8.42,35.05-2.9,5.3-5.41,9.87-5.06,14.06.38,7.18,6,51,15.24,62.94,10.44-2.12,39-1,66.69.09,20.28.8,43.25,1.7,46.08.4,3.92-2.29,4.15-3.18,4.76-5.57.21-.81.45-1.73.84-2.85a8.55,8.55,0,0,1,5.07-4.88c3.67-1.55,8.68-1.67,11.66-.28,2.16,1,4.55,4.44,8.28,10,2.73,4,6.47,9.59,8.48,10.54,3.64,1.72,12.68,3,15.86,3.32l.37.08c.43.13,10.42,3.28,10.42,11.41,0,5.41-3.16,7.1-4.83,7.24l-42.66,2h-.09c-2.27-.09-4.6-.26-7.07-.44a194.85,194.85,0,0,0-35.42.18c-8.54.77-24.38,2.54-41.15,4.42C1151,723.42,1122.26,726.64,1115.23,726.64Zm-88.87-131.72,19.88,4.3.22,1.35c.06.37,6.09,37,17.58,60.7s35.29,54.34,35.53,54.64a20.86,20.86,0,0,0,15.67,6.73c6.81,0,36.71-3.35,63.08-6.31,16.79-1.88,32.65-3.66,41.24-4.43a198.31,198.31,0,0,1,36.07-.19c2.41.17,4.68.34,6.85.43l42.28-2c.47-.14,1.22-1,1.22-3.26,0-4.75-6.33-7.16-7.43-7.54-1.7-.19-12.24-1.44-16.93-3.66-2.8-1.33-5.81-5.58-10.09-11.92-2.27-3.37-5.39-8-6.65-8.58-1.75-.81-5.54-.87-8.42.34a4.89,4.89,0,0,0-2.85,2.51c-.34,1-.55,1.8-.74,2.53-.81,3.13-1.51,5-6.64,8-3,1.73-16.28,1.39-48.24.14-27.25-1.07-58.13-2.28-66.74.07l-1.17.32-.82-.89c-11.23-12.15-16.76-61.08-17-66.25-.45-5.33,2.33-10.39,5.55-16.25,4.68-8.53,10-18.2,8-32.57s-8.59-24.21-14.38-32.78c-4-5.91-7.44-11-8.6-16.59-.8-3.86-2.13-8.32-3.53-13-3.37-11.35-7.19-24.21-7-37.89.13-9.7,2.91-16.19,5.61-22.47,2.77-6.45,5.39-12.55,4.89-21.9-1-18.73-9.8-45-14.2-52.05-2.74-4.42-7-7.55-10.41-10.07a25.73,25.73,0,0,1-4.43-3.72c-2.35-2.87-6.63-18.91-7.89-23.76l-.16-.62.23-.6c0-.1,3.79-10.17,2.39-20-.19-1.35-.35-3-.52-4.81-1.21-12.75-3.24-34.08-23.8-38-34.13-3.84-40.1,22.87-40.72,26.3-1.15,11.54,3.32,22.34,3.36,22.45l.28.66-.2.69c-2,6.85-3.92,15.23-3.53,16.78.12.33,2,.28,3.45-.24L1008,341l.86,1.31c.15.23,3.57,5.47,4.46,6.94a1.35,1.35,0,0,0,.34,0l4.45-1.09-2.18,4h0a1.77,1.77,0,0,0-.12.54c.27.06.63.11.9.15a7.62,7.62,0,0,1,3,.9,5.39,5.39,0,0,1,2,3.2,4,4,0,0,0,1.29,2.32c1.29.58,8.61.06,14.6-.81l1-.15.71.77c.23.25,5.72,6.21,6.53,14.16.71,7-3.91,12.89-5.88,15.4-.3.38-.54.68-.67.88l-.25.31c-18.79,19.54-23.11,28.3-25.23,39.49-1.66,8.75.07,18,1.1,23.51.33,1.78.6,3.19.68,4.2l5.93,72.18h-2.18c-23.92-.13-87.92.45-96.59,4.79l-.23.1c-2.27.8-13.44,5.78-9.95,25l0,.36c.26,3.14,13.57,21.66,25.31,38,16.48,22.93,35.16,48.92,39.33,60.58l0,.16c1.49,5.6-4.79,15.85-6.76,18.86-4.41,6.76-25.48,13.88-28.16,14.59l-1.46.37c-3.27.81-10,2.47-9.83,5.29,2.49,2.88,28.56,3.31,32.68,1.35l1.68-.81c3.84-1.85,8.63-4.16,12.58-4.86,2.28-.4,6.53.15,13.26,1.12,4.77.68,10.18,1.46,12,1.13,3.45-.61,7.14-4.74,7.35-10.6v-.14c.35-3.29-2.13-7.72-6.64-15.76-1-1.82-2.15-3.84-3.37-6.07-3.54-6.44-8.3-18.69-13.33-31.66-4.86-12.52-9.89-25.47-13.41-31.84L958.1,570.35l55.65,21-1.11,2c-.09.16-9,16.37-10.5,21.61s-.93,16.21-.92,16.33v.1a141.72,141.72,0,0,0,.77,16.4l.1-.09,1.11-1.2,1.4.85a13.83,13.83,0,0,0,3.86,1.72,4.05,4.05,0,0,0,1.92-1.33l.83-.94,1.21.33a17.75,17.75,0,0,0,3.19.59,2.62,2.62,0,0,0,1-.81l1.18-1.49,1.56,1.09a3.4,3.4,0,0,0,1.07.47,20.3,20.3,0,0,0,.52-4.79c-.07-1.31-1-18.12-1-22.05,0-3.12,2.67-7,5.26-10.66a30.79,30.79,0,0,0,2.87-4.56c.8-2.07-.1-5.46-.51-6.59Zm-59.51-17,10.63,19.25c3.65,6.61,8.73,19.68,13.64,32.32,2.25,5.79,4.54,11.67,6.68,16.92a148.21,148.21,0,0,1-.57-15c-.05-1-.58-12,1.08-17.62,1.34-4.52,7.25-15.74,9.73-20.37Z" transform="translate(-613.16 -270.5)"/><path class="cls-1" d="M1245.23,686.89c-6,3.5-98-4.5-114.5,0-10.69-11.57-16.25-60.25-16.5-65-1-12,17-24,13.5-49s-20.31-36.58-23-49.5-10.75-31.25-10.5-50.5,11.5-25.5,10.5-44.5-10-45.75-14.5-53-12.75-11.25-15-14-7.5-23-7.5-23,4-10.5,2.5-21-.75-39.75-26-44.5c-35.25-4-42.25,23.75-43,28-1.25,12.25,3.5,23.5,3.5,23.5s-4.5,15.25-3.5,18,6,1,6,1,3.75,5.75,4.5,7,2.5.75,2.5.75a3.61,3.61,0,0,0-.25,2.5c.38,1.38,3.38.88,4.75,1.75s1,4,3.25,5.5,16-.5,16-.5,5.25,5.63,6,13-5.29,13.49-6.25,15c-18.87,19.63-23.5,28.63-25.75,40.5s1.43,24.33,1.75,28.25l5.75,70s-86.5-.5-97.5,5c-4.25,1.5-14.75,8-11.25,27.25,0,7.5,57.25,78.25,64.75,99.25,1,3.75-2.75,11.5-6.5,17.25s-23.12,12.71-27,13.75-13.5,2.75-12.75,8,31.52,4.64,35.5,2.75,9.5-4.75,13.75-5.5,21,3,25.25,2.25,8.75-5.5,9-12.5c.5-4.75-3.25-10.25-10.25-23s-19.64-50.61-26.75-63.5l-13.25-24,48.42,18.25s-9,16.5-10.67,22-1,17-1,17,0,17.17,1.33,18.33,3-.67,3-.67a16.29,16.29,0,0,0,4.67,2c1.75.21,3.67-2,3.67-2a20.11,20.11,0,0,0,3.67.67c1.42,0,2.67-1.58,2.67-1.58s1.75,1.25,3.25.75,1.5-6.75,1.5-6.75-1-18-1-22,6.75-11.25,8-14.5-.5-8-.5-8l15,3.25s6,37,17.75,61.25,35.75,55,35.75,55a23,23,0,0,0,17.25,7.5c11.25,0,82.25-8.75,104.5-10.75s33.08-.13,42.75.25l42.5-2s3-.25,3-5.25c0-6.75-9-9.5-9-9.5s-11.75-1.25-16.5-3.5-13-18.75-16.75-20.5-12.37-.65-14,4S1251.23,683.39,1245.23,686.89Z" transform="translate(-613.16 -270.5)"/><path class="cls-2" d="M1029.94,597.83l-.92-.39c1.26-3,4.55-9.33,8.71-17.38,9.32-18,23.4-45.24,28-60.49l.07-.14c4.56-6.46,4.58-16.28,4.58-16.38l0-.2c.16-.36,16.05-36.68,22.63-71.23l1,.19c-6.43,33.78-21.74,69.23-22.66,71.34,0,1.16-.22,10.36-4.71,16.78-4.67,15.35-18.75,42.56-28.07,60.58C1034.47,588.55,1031.19,594.89,1029.94,597.83Z" transform="translate(-613.16 -270.5)"/><path class="cls-2" d="M1011.37,592.55l-.95-.33c.21-.6,20.66-59.76,22-72.22,4-13,7.16-18.46,9.43-22.48l.89-1.59c-.31-22.5,5-71.44,5-71.93l1,.11c-.05.49-5.33,49.56-5,71.94v.13l-.06.12c-.31.56-.63,1.12-1,1.72-2.25,4-5.34,9.42-9.33,22.19C1032.07,532.69,1012.21,590.11,1011.37,592.55Z" transform="translate(-613.16 -270.5)"/><path class="cls-2" d="M1017.69,422.24a1.58,1.58,0,0,1-.57-.1,1.37,1.37,0,0,1-1.05-.58c-1.21-1.66.33-6.71.65-7.7l1,.31c-.68,2.12-1.5,5.84-.79,6.81a.39.39,0,0,0,.35.17l.22,0c2.23,1.07,11.44-10.07,20.33-20.85,12.46-15.11,26.59-32.23,36-35.74,3.11-1.07,5-1.24,5.94-.51a1.19,1.19,0,0,1,.46,1l-1-.13.5.06-.5,0s0-.1-.12-.18-1.25-.58-4.95.69c-9.18,3.41-23.83,21.17-35.59,35.43C1027.54,414.32,1020.84,422.23,1017.69,422.24Z" transform="translate(-613.16 -270.5)"/><path class="cls-2" d="M1046.53,438.34c-.1-.08-10.32-8.18-6.79-23.56,9.29-27.33,34-38.89,42.24-38.89,7.35,0,10.24,2.4,10.35,2.5l-.65.76s-2.77-2.26-9.71-2.26c-8.06,0-32.16,11.35-41.28,38.16a23.62,23.62,0,0,0,1.93,16.81,19.41,19.41,0,0,0,4.5,5.69Z" transform="translate(-613.16 -270.5)"/><path class="cls-2" d="M1088.49,453.81l-.09-1c2.9-.26,10.7-1.56,11.89-4.36l.92.39C1099.54,452.76,1088.94,453.77,1088.49,453.81Z" transform="translate(-613.16 -270.5)"/></svg>