<?xml version="1.0" encoding="utf-8"?>
<!-- Generator: Adobe Illustrator 21.1.0, SVG Export Plug-In . SVG Version: 6.00 Build 0)  -->
<svg version="1.1" id="Layer_2" xmlns="http://www.w3.org/2000/svg" xmlns:xlink="http://www.w3.org/1999/xlink" x="0px" y="0px"
	 viewBox="0 0 489.5 489.5" style="enable-background:new 0 0 489.5 489.5;" xml:space="preserve">
<style type="text/css">
	.st0{fill:#EB5858;}
</style>
<title>deep-squat-01</title>
<path class="st0" d="M227.3,387.5c-2.5,10-6.6,18.4-8.9,28.5l-0.3,0.8c-0.1,1.1,0.4,2.2,1.2,2.9l0,0c6.5-11.2,12.4-22.6,17.7-34.4
	C233.7,385.6,230.4,386.4,227.3,387.5z"/>
<path class="st0" d="M323.8,319c-0.4-2.2-1-4.4-2-6.4c-2.1-1.9-7.2-5.5-16.4-6.7c-11.2-1.3-37.7,3.1-38,3.2
	c-0.8,0.1-1.5-0.4-1.7-1.2s0.4-1.5,1.2-1.7c1.1-0.2,27.1-4.6,38.8-3.2c5,0.5,9.9,2.1,14.3,4.7c-0.9-4.2,2.5-8.9,0.1-13.6
	c-4.3-8.5-14-9.8-22.8-7.5c-1.4,0.1-2.7,0.3-4.1,0.3c-1.4,0.1-2.7,0.2-4.1,0.2c-0.8,0-1.6,0-2.3,0.1c-1.3,0-2.5,0.4-3.5,1.2
	c-0.7,0.6-1.7,1.2-2.6,0.5c-0.9-0.8-0.2-1.6,0-2.5s0.6-1.9,0.8-2.9c2.2-3.9,4.1-8,5.7-12.2c1.1-2.9,1.9-5.9,2.5-9
	c0.3-0.6,0.4-1.2,0.3-1.9c0.6-4.8,0.4-9.6-0.7-14.3c0-0.8-0.2-1.7-0.5-2.5c-0.2-1.5-0.4-3-0.6-4.5c-0.3-2-0.5-4.1-0.8-6.1
	c-1.4-6.8-3.3-13.6-5.8-20.1c-0.5-1.3-1-2.5-1.3-3.9c-1.2-4.5-3.1-8.8-5.7-12.8c-1.4-1.9-0.9-4.6,1-6c0.6-0.4,1.2-0.7,1.9-0.8
	c1.2-0.2,2.5-0.5,3.7-0.7c1.3-0.4,2.6-0.6,4-0.8c1.9-0.1,3.6-1.2,4.4-2.9c1-1.4,1.3-3.1,0.9-4.7c-0.1-0.5-0.2-0.9-0.3-1.4
	c0.7-0.6,1.3-1.2,1.8-2c0.5-1.3,1.4-2.3,2.5-3.1V172c0.1-1.5,0.6-2.9,2.3-3.2c0.8-0.3,1.6-0.7,2.2-1.3c0.8-0.6,1.1-1.7,0.6-2.6
	c-0.4-0.9-1-1.7-1.6-2.4c-1.3-1.6-2.3-3.4-2.9-5.4c-0.5-0.9-0.5-2,0.1-2.9c0.8-1.1,1.1-2.5,0.8-3.9c-0.1-0.7-0.1-1.3,0.1-2
	c0.2-1.4,0.2-2.9,0-4.3c-0.2-1.7-0.2-3.5-0.2-5.2c-0.2-1.1,0.4-2.2,1.4-2.6c0.5-0.3,1-0.6,1.4-0.9c0.9-0.5,1.5-1.3,1.7-2.3
	c0.7-2.3,0-4.8-1.6-6.5c-0.9-0.7-1.3-2-0.9-3.1l1.1-3.6c1-3.3,2-6.5,2.9-9.8c1-4.3,2-8.6,2.9-12.8c0.4-2,0.8-4,1.2-6
	c0.4-1.8,0.7-3.6,0.9-5.3c3.6-3.4,6.4-7.2,6.6-11.8c0-10.4-0.4-21.1,8.6-27.6c0.9-2.6-1.3-4.8-3-5.6c-5.2-0.9-11.6-3-14.6,0
	c-1.1,1-2.1,2.1-3,3.3c-1,1.2-2,2.5-2.9,3.8c-6.6,7.2-7.7,28.1-7.7,28.1c-0.4,2-1.3,3.8-2.6,5.4c-1.2,2.1-9.1,18.2-12.1,22.1
	c-2.3,3.3-4.3,6.7-6.3,10.2c-0.4,0.7-0.8,1.4-1.1,2.1c-1.3-0.8-2.7-1.1-4.2-0.8c-2.3-0.6-4.7-0.7-7-0.2c-1.7,1-3.6,1.8-5.6,2.2
	c-1.5,0.7-2.9,1.7-4,2.9c-0.9,0.9-1.6,1.9-2.3,2.9c-2.6,3.3-5.1,6.6-5.6,11c-0.1,0.6-0.4,1.1-0.6,1.6c-1.5,3.4-1.8,7.2-1,10.9
	c0.4,1.5,0.5,3.1,0.3,4.6c-0.1,1.2-0.1,2.3,0,3.5c0.3,4,0.6,8,0.9,11.9c0.2,1.6-0.3,3.3-1.5,4.5c-2.3,2.5-4.3,5.3-5.7,8.4
	c-1.1,2.3-2.8,4.2-5,5.5c-8.5,5.9-13.9,14.3-17.7,23.6c-0.8,1.9-1.5,3.8-2.1,5.7c-5,20.8-11.1,41.6-15.6,61.9
	c-0.5,1.7-1,3.4-1.7,5.1c-0.5,1.2-1,2.5-1.5,3.7c-0.5,1.2-1.2,2.4-1.8,3.6c-11.8,16.5-16.1,37.3-19.3,57.4c-0.1,1.4-0.1,2.9-0.2,4.3
	c0,1.4,0,2.9-0.1,4.4c0,2,0.3,4.1,0.3,6.1c0,2.2,0.5,4.5,1.5,6.5c2.3,5,5.6,9.4,9.6,13.1c3.9,3.6,8.6,6.2,13.8,7.6
	c1.3,0.3,2.6,0.6,3.9,0.8c7.4,1.6,14.9-0.5,22.3-1.6l4.3-1.4c7.8-2.5,12.5-4,15.2-3.6c1.7-3.8,3.4-7.9,5.2-12.2
	c12.9-31.4,47.5-33.8,47.8-33.8c0.8-0.1,1.5,0.5,1.6,1.3c0.1,0.8-0.5,1.5-1.3,1.6c-0.1,0-0.1,0-0.2,0c-0.3,0-33.1,2.3-45.3,32
	c-7,17.3-15.2,34.1-24.5,50.2l-0.2,0.4l-0.4,0.2c-2.4,1.3-4.1,3.4-4.9,6c-0.2,1.6-0.4,3.3-0.6,5c-0.2,0.9-0.3,1.8-0.6,2.7
	c-0.1,0.8-0.2,1.6-0.5,2.3v5.1c0,3-2.9,6.6-2.8,9.2c-0.2,1.9,1,3.6,2.8,4.3c1.5,0.6,27.4,2,31.2,1.8c2.6-0.2,5.3-0.2,7.9,0
	c4.7,0.3,6,1.2,9.8,1.5c2.8,0.2,5.3,0.3,7.7,0.2c1.2-0.1,2.4-0.2,3.5-0.4c2.2-0.1,4.4-0.2,6.6-0.4c12-1.8,16.2-6.4,16.2-6.4
	c0.4-0.5,0.7-1.1,1-1.7c0.3-0.7,0.6-1.4,0.7-2.2v-0.8c0.2-0.8,0.4-1.6,0.8-2.3c0-0.3,0.1-0.5,0.2-0.8c0-0.9,0-1.9-0.1-2.8
	c-0.2-1.6-0.5-3.1-1-4.6c-1.5-1.5-3.3-2.6-5.4-3.2c-4.8-1.3-10-1.1-14.5-3.3c-2.4-1.1-4.5-3-6.8-4.2c-1.3-0.7-2.6-1.3-3.9-1.8
	l0.2-0.2c1.8-1.5,4-2.5,6.3-2.8c3.7-0.8,7.5-1.3,11.3-1.4h1.1c1.6-0.4,3.1-1,4.5-1.9c0.4-0.3,0.8-0.5,1.2-0.7l0.2-0.2
	c0.2-0.2,0.5-0.4,0.7-0.6l0.5-0.3c0.3-0.2,0.6-0.5,0.8-0.8l0.1-0.1c0.2-0.3,0.4-0.6,0.7-0.9c2.7-3.7,4.5-8.4,3.1-12.9
	c-0.7-2.5-3.3-3.8-5.8-3.1c-0.3,0.1-0.6,0.2-0.9,0.4c-6.5,3.3-14.7-2.4-20.6-4.9c-0.7-0.3-1.5-0.3-2.3-0.1c-0.1-0.4,0-0.8,0.2-1.1
	c0.2-0.6,0.5-1.1,0.8-1.5c1.2-1.5,2.5-3,3.8-4.4c3.2-3.1,6.5-6.2,9.8-9.1c6-5.4,12.3-10.5,18-16.3c2-2,3.9-4.1,5.5-6.4
	c2.2-3.4,4.9-6.5,8-9.2c0.6-0.6,1.2-1.3,1.7-2c1.4-2,2.6-4.1,3.5-6.4c1.9-4.1,2.9-8.6,3-13.1C323.9,323.1,323.8,321,323.8,319z"/>
</svg>
