<svg id="Layer_2" data-name="Layer 2" xmlns="http://www.w3.org/2000/svg" viewBox="0 0 489.5 489.5"><defs><style>.cls-1{fill:#eb5858;}</style></defs><title>deep-squat-01</title><path class="cls-1" d="M227.3,387.45c-2.47,10-6.55,18.35-8.93,28.45l-.27.82a3.37,3.37,0,0,0,1.22,2.87h0A366.28,366.28,0,0,0,237,385.17,49.84,49.84,0,0,0,227.3,387.45Z"/><path class="cls-1" d="M321.84,312.6c-2.06-1.88-7.17-5.53-16.42-6.71-11.25-1.33-37.69,3.15-38,3.2a1.45,1.45,0,0,1-.49-2.87c1.1-.19,27.1-4.62,38.78-3.23A35.84,35.84,0,0,1,320,307.64c-.9-4.17,2.45-8.89.09-13.61-4.3-8.53-14-9.75-22.75-7.51-1.36.13-2.71.26-4.07.34s-2.72.16-4.09.2c-.77,0-1.56,0-2.34.07a5.48,5.48,0,0,0-3.51,1.19c-.72.63-1.72,1.25-2.64.5s-.24-1.63,0-2.45.6-1.92.83-2.87a92.29,92.29,0,0,0,5.73-12.19,47.9,47.9,0,0,0,2.47-9,3.14,3.14,0,0,0,.27-1.88,39.54,39.54,0,0,0-.69-14.34,9.51,9.51,0,0,0-.47-2.48c-.17-1.51-.39-3-.59-4.52-.27-2-.47-4.07-.83-6.08a121,121,0,0,0-5.84-20.07c-.47-1.28-.95-2.55-1.33-3.87a42.53,42.53,0,0,0-5.73-12.75,4.3,4.3,0,0,1,2.87-6.75c1.25-.23,2.48-.46,3.73-.72a30,30,0,0,1,4-.82,5.25,5.25,0,0,0,4.43-2.87,5.73,5.73,0,0,0,.86-4.72,11,11,0,0,1-.26-1.43,8.66,8.66,0,0,0,1.75-2,7.17,7.17,0,0,1,2.47-3.13V172c.11-1.55.56-2.87,2.35-3.24a6.22,6.22,0,0,0,2.24-1.3,2,2,0,0,0,.6-2.61,11.88,11.88,0,0,0-1.62-2.41,18.31,18.31,0,0,1-2.94-5.35,2.75,2.75,0,0,1,.09-2.87,4.63,4.63,0,0,0,.82-3.86,5.73,5.73,0,0,1,.09-2,13.66,13.66,0,0,0,0-4.3c-.19-1.73-.17-3.5-.24-5.25a2.45,2.45,0,0,1,1.43-2.61,9.59,9.59,0,0,0,1.43-.89,3.74,3.74,0,0,0,1.71-2.29,6.77,6.77,0,0,0-1.61-6.51,2.68,2.68,0,0,1-.87-3.08l1.06-3.64c.95-3.27,2-6.52,2.87-9.82,1-4.3,2-8.6,2.87-12.83.42-2,.83-4,1.23-6s.76-4,1-6c.89-9.18,3.94-20.76-2.15-27.46C297.41,50.34,289.5,43,291.29,32.09c-1.19-2.45-4.3-2.45-6.06-1.85-4.3,3-10.35,6.09-10.35,10.35a40.41,40.41,0,0,0,.17,4.47,42.51,42.51,0,0,0,.65,4.69c.4,9.72,10.75,13.38,14.34,20.69,1.82,3.66.6,7.91-1.86,10.94-1.18,2.11-1.63,4.6-3.43,6.38-.24.24-.23.73-.36,1.09-.23.63-.46,1.26-.72,1.89a68.55,68.55,0,0,1-7.58,12.77c-2.27,3.3-4.3,6.72-6.31,10.17-.4.69-.77,1.43-1.13,2.09a6,6,0,0,0-4.2-.8,15.43,15.43,0,0,0-7-.22A22.37,22.37,0,0,1,251.9,117a13.62,13.62,0,0,0-4,2.87,23.81,23.81,0,0,0-2.34,2.87c-2.62,3.28-5.1,6.62-5.63,11a7.08,7.08,0,0,1-.63,1.63,17.66,17.66,0,0,0-1,10.87,12.43,12.43,0,0,1,.27,4.63,17.66,17.66,0,0,0,0,3.5c.27,4,.56,8,.9,11.93A5.45,5.45,0,0,1,238,170.8a32.17,32.17,0,0,0-5.73,8.44,12.22,12.22,0,0,1-5,5.49c-8.46,5.85-13.91,14.34-17.74,23.6q-1.15,2.87-2.12,5.73c-5,20.8-11.07,41.58-15.57,61.92-.5,1.71-1,3.4-1.66,5.08-.46,1.25-1,2.49-1.52,3.71s-1.16,2.42-1.82,3.61c-11.81,16.52-16.07,37.28-19.3,57.35q-.13,2.15-.17,4.3c0,1.43,0,2.87-.09,4.37,0,2,.29,4.09.27,6.12A14.22,14.22,0,0,0,169,367a42.54,42.54,0,0,0,9.58,13.15,33.84,33.84,0,0,0,13.76,7.64,29.62,29.62,0,0,0,3.93.77c7.44,1.58,14.9-.5,22.35-1.56l4.3-1.43c7.83-2.52,12.52-4,15.2-3.58q2.55-5.73,5.23-12.19c12.9-31.4,47.47-33.78,47.81-33.79a1.44,1.44,0,1,1,.17,2.87c-.33,0-33.09,2.32-45.33,32a394.79,394.79,0,0,1-24.53,50.18l-.24.39-.42.19a10,10,0,0,0-4.87,6c-.19,1.63-.37,3.31-.65,5-.16.92-.33,1.81-.56,2.68a7.5,7.5,0,0,1-.53,2.32v5.12c0,3-2.87,6.62-2.75,9.18a4.22,4.22,0,0,0,2.75,4.3c1.53.62,27.37,2,31.21,1.84a47.2,47.2,0,0,1,7.93,0c4.69.3,6,1.22,9.78,1.53,2.78.2,5.35.27,7.73.24,1.19-.09,2.37-.22,3.54-.4q3.3-.09,6.58-.37c12-1.85,16.19-6.37,16.19-6.37a8.89,8.89,0,0,0,1-1.68,9.84,9.84,0,0,0,.73-2.21v-.76h0a12.9,12.9,0,0,1,.76-2.31,3.25,3.25,0,0,1,.19-.8,18,18,0,0,0-.14-2.78,19.67,19.67,0,0,0-1-4.57,11.47,11.47,0,0,0-5.41-3.18c-4.76-1.29-10-1.13-14.51-3.31-2.39-1.15-4.46-3-6.81-4.2a34.41,34.41,0,0,0-3.93-1.78l.22-.2a11.66,11.66,0,0,1,6.31-2.75,66.24,66.24,0,0,1,11.27-1.43h1.13a15.51,15.51,0,0,0,4.5-1.91q.6-.39,1.25-.73l.24-.19a3.63,3.63,0,0,1,.73-.62l.49-.34h0a9.19,9.19,0,0,0,.82-.77l.09-.13a3,3,0,0,1,.72-.86c2.7-3.73,4.5-8.39,3.14-12.9a4.65,4.65,0,0,0-6.71-2.72c-6.54,3.28-14.72-2.41-20.62-4.86a3.43,3.43,0,0,0-2.29-.09,1.55,1.55,0,0,1,.19-1.08,4.47,4.47,0,0,1,.85-1.51,54.36,54.36,0,0,1,3.84-4.4c3.23-3.11,6.49-6.18,9.84-9.15,6-5.38,12.26-10.54,18-16.27a48.75,48.75,0,0,0,5.52-6.39,45.88,45.88,0,0,1,8-9.22,11.31,11.31,0,0,0,1.71-2,27.59,27.59,0,0,0,3.51-6.39,34.18,34.18,0,0,0,3-13.12c.09-2,0-4.07,0-6.11A24.7,24.7,0,0,0,321.84,312.6Z"/></svg>