<svg id="Layer_1" data-name="Layer 1" xmlns="http://www.w3.org/2000/svg" viewBox="0 0 489.5 489.5"><defs><style>.cls-1{fill:#eb2227;}</style></defs><title>deep-squat</title><path class="cls-1" d="M336.51,5c-1.6,0-5.86,0-21,26.73a2.87,2.87,0,0,0-.19.4c0,.09-3.68,9.59-7.42,20.22a33.7,33.7,0,0,1-8.11,12.78C287,77.65,275,90.6,266.17,100.32c-10.39-.58-29.83,3.75-38.35,24.46-4.31,10.48-5.94,18.29-6.54,23.27-4.68,4.35-9.57,8.65-14.41,12.52-19,15.18-20.6,37.35-22.17,58.8-.4,5.42-.81,11-1.49,16.48-2.54,20.28-13.61,33.35-19.1,37.43l-.1.08c-1.05.85-25.68,21-19.06,44.87,4,14.33,18.22,28.36,42.34,41.67,15.87,8.77,33.07,15.61,45.07,20.11-14.11,5.15-22.24,16.33-26.76,25.64-8.06,16.62-13.46,26.52-24.19,41.27l-.06.08-1.93,2.85A8.14,8.14,0,0,0,182.56,462c8.76,4.12,26.16,11,44.26,11,16.65,0,20.47-4.93,21.25-12.88a8.7,8.7,0,0,0-5.93-9.15L217,442.59l55.23-46.84a2.88,2.88,0,0,0,.29-.28c.44-.48,10.71-12,9.76-25.84-.51-7.41-4.11-14-10.7-19.54-12.3-10.36-27.25-19.66-40.44-27.86-11.68-7.27-21.87-13.6-26.05-18.18,1.11-5.31,10.48-15.45,19.56-25.28,7.09-7.67,15.13-16.37,21.48-25,14.17-19.23,3.3-61.09-1.18-75.84.69-.84,1.41-1.68,2.13-2.54a16.09,16.09,0,0,0,9.09,5.78,16.76,16.76,0,0,0,3.79.44,16.49,16.49,0,0,0,10.41-3.71c7.87-6.38,17.9-17.43,21-33.85a53.85,53.85,0,0,0,.59-18.58,3,3,0,0,0-.66-1.42C299.8,110.41,309,91.48,315.63,77.8l2.8-5.75a12.06,12.06,0,0,1,5.62-5.74,11.27,11.27,0,0,0,6-7.45c3.77-14.77,10.09-40.73,10.09-48.72C340.17,5.5,337.61,5,336.51,5ZM233.37,127.06a32.81,32.81,0,0,1,27.29-20.59c-5.23,5.87-8.38,9.57-8.46,9.67S241.93,128,228.72,140.93A101.34,101.34,0,0,1,233.37,127.06Zm34.35,227.63c5.29,4.46,8.18,9.61,8.58,15.32.74,10.55-7.07,20.09-8.11,21.31l-59.12,50.14a3,3,0,0,0,1,5.13l30.19,10.06a2.73,2.73,0,0,1,1.86,2.87c-.39,4-.73,7.46-15.27,7.46-16.93,0-33.4-6.55-41.71-10.45a2.14,2.14,0,0,1-.81-3.2l.06-.09,1.92-2.84c11-15.1,16.49-25.21,24.71-42.14,4.84-10,14.31-22.34,32-24.71a3,3,0,0,0,.64-5.79l-2.1-.77c-12.5-4.59-36.48-13.39-56.79-25.46,13-4.36,33.24-12.86,41.25-25.45l2,1.24C241,335.43,255.75,344.61,267.71,354.69Zm-46.86-31.8c-3.47,5.23-13.73,15.72-42.8,24.48-13.35-8.84-24.13-19.19-27.33-30.74-4.71-17,10.62-32.76,15.55-37.29l34.64,19.12A14.7,14.7,0,0,0,199,305a3,3,0,0,0,.63,1.84C203.09,311.33,210.81,316.56,220.86,322.89ZM285.48,143c-2.77,14.63-11.81,24.56-18.89,30.3a10.52,10.52,0,0,1-9.06,2.09,10.11,10.11,0,0,1-6.39-4.6c4.82-5.45,10.09-11.12,15.26-16.67,6.22-6.68,12.1-13,16.82-18.54,1.06-1.24,2.15-2.66,3.27-4.21A53.68,53.68,0,0,1,285.48,143Zm38.79-85.57a5.3,5.3,0,0,1-2.82,3.52A18.17,18.17,0,0,0,313,69.41l-2.81,5.77c-8.71,17.94-21.88,45.06-31.59,56.46C274,137.08,268.17,143.35,262,150c-8,8.57-16.23,17.43-22.73,25.42h0c-6.93,8.54-10.74,14.68-12,19.29a3.09,3.09,0,0,0,1.56,3.62,3,3,0,0,0,4.21-2c.72-2.9,3.17-7.13,7.29-12.63,6.7,23.74,10.52,53.49.91,66.52-6.15,8.34-14.06,16.91-21.05,24.47-6.51,7-12.26,13.27-16.13,18.67l-33-18.25c5.39-5.31,15.51-17.79,18.1-38.53.7-5.6,1.12-11.29,1.52-16.79,1.55-21.09,3-41,19.93-54.55,22.51-18,45.87-44.92,46.12-45.21S279.19,93.75,304,69.42a39.75,39.75,0,0,0,9.57-15.07c2.49-7.07,4.93-13.64,6.28-17.23a34.26,34.26,0,0,1,2.48-5.21,182.77,182.77,0,0,1,11.44-17.54C332.7,22.26,329.31,37.63,324.27,57.38Z"/></svg>