<?xml version="1.0" encoding="utf-8"?>
<!-- Generator: Adobe Illustrator 21.1.0, SVG Export Plug-In . SVG Version: 6.00 Build 0)  -->
<svg version="1.1" id="Layer_1" xmlns="http://www.w3.org/2000/svg" xmlns:xlink="http://www.w3.org/1999/xlink" x="0px" y="0px"
	 viewBox="0 0 57 95" style="enable-background:new 0 0 57 95;" xml:space="preserve">
<style type="text/css">
	.st0{fill:#EB5858;}
	.st1{fill:#FFFFFF;}
	.st2{font-family:'Montserrat-Regular';}
	.st3{font-size:12px;}
</style>
<title>broad_jump</title>
<path class="st0" d="M43.7,30.5c0,0,1.2,0.2,2-2.9c1.7-5.3,7.8-2.8,8.4-2.6c2.1,0.9,3.4,3.2,2.9,5.5c-0.1,1-1.5,3-1.6,3.5
	c-0.3,0.7,0.5,2.2,0.2,2.6s-1.8,0-1.8,0s-1.5,2.8-2.8,2.9s-2.4-1-3.2-1.1c-2.1,0.1-4.2,0.4-6.3,1.1c-0.5,0.4-3.2,4.7-7.1,5.8
	l-12,3.5l3.9,7.4c0,0,2.2,2.2,2.4,3.8s-1.2,3.6-1.5,4.6l-2.9,10.4c-0.4,1.3-0.6,2.6-0.8,4c0.1,0.8,0.3,1.6,0.8,2.2
	c0.2,0.4,3,1.9,3,1.9s4.7,0.6,5.2,1.1c0.4,0.5,0.4,1.2,0,1.6c-1,1.2-2.5,2-4.1,2.1h-4.4c0.9,0.6,1.8,1.1,2.7,1.6
	c0.7,0.3,4,1,4.2,1.6s-0.5,1.7-1,2.1c-1.6,1.1-3.5,1.7-5.4,1.7c-1.5,0-5.6-0.6-5.6-0.6s-4.1-0.1-4.5-0.6s0.3-5.5,0.5-5.9
	c0.1-0.3,0.4-0.4,0.7-0.5l-0.5-9.7c-0.5-1.6-0.7-3.2-0.8-4.8c0.2-3.1,2.9-7.7,2.8-8.2c-0.2-0.5-0.4-1-0.8-1.5c0,0-5.2-1-6.5-1.1
	s-3.8,0.3-4.2,0S3,52.4,2.2,50.5c-2.3-3.3-2.9-7.6-1.4-11.4c0.6-1.2,1.6-2.3,2.8-3c2.6-1.6,23-6.4,23-6.4s-3.6-5-4.2-6
	s-9.7-12.6-9.7-12.6L9.3,8.9l-1.4-1c0,0-2.3-0.6-2.2-1.2s1.9-0.5,1.9-0.5s-2.3-3-1.8-3.6s3,2.4,3,2.4s-2.7-3.9-2-4.3S10,3.6,10,3.6
	S7.8,0.4,8.3,0.1s1.7,1.3,1.7,1.3c0.3-0.2,0.7-0.3,1-0.2c0.6,0.2,1.4,2.3,1.8,2.8l1.9,2.4l2,3.2c0,0,3.8,3.6,4.6,4.5l6,7.3l-4.6-9.7
	L20.1,11l-2-0.7c0,0-1-0.5-0.8-1s2,0,2.3-0.1s0.3-0.5,0-1.3s-3.2-3.4-2.8-3.9s3.5,2.2,3.5,2.2s-2.1-4-1.5-4.2s2.5,3.7,2.5,3.7
	S20.4,2.1,20.9,2s2,3.5,2,3.5s0.2-2.8,0.7-2.8s1,3.7,1,3.7c0.6,1,0.9,2.1,1,3.2c1,1.2,1.8,2.4,2.6,3.8c1,1.8,3.3,6.3,3.7,6.7
	l4.5,4.5c0.3-0.1,0.7-0.1,1,0c0.9,0.9,1.8,1.8,2.5,2.8L43.7,30.5z"/>
<circle class="st0" cx="42" cy="63.9" r="11.1"/>
<text transform="matrix(1 0 0 1 35.084 67.4928)" class="st1 st2 st3">2x</text>
</svg>
