<svg id="Layer_1" data-name="Layer 1" xmlns="http://www.w3.org/2000/svg" viewBox="0 0 225.91 114.96"><defs><style>.cls-1{fill:#414042;}.cls-2{fill:#ed1c24;}.cls-3{fill:#fff;fill-rule:evenodd;}</style></defs><title>FCS-logo</title><rect class="cls-1" x="0.42" y="0.06" width="96.47" height="96.47"/><path class="cls-1" d="M283,350h6.43v1.22h-4.86v4.54h3.73V357h-3.73v6.22H283Z" transform="translate(-283.05 -248.52)"/><path class="cls-1" d="M291,350h1.57v8.45c0,2.57.19,3.8,2.29,3.8s2.27-1.24,2.27-3.8V350h1.57v8.58c0,1.73-.06,2.94-.81,3.76a4.72,4.72,0,0,1-6.09,0c-.76-.82-.81-2-.81-3.76Z" transform="translate(-283.05 -248.52)"/><path class="cls-1" d="M301.57,351.05v12.17h-1.38V350h2.29l3.16,7.48c.45,1.08.87,2.17,1.25,3.29a24.52,24.52,0,0,1-.13-2.88V350h1.38v13.19h-1.55l-3.86-9.12C302.27,353,301.88,352,301.57,351.05Z" transform="translate(-283.05 -248.52)"/><path class="cls-1" d="M309.78,350h2.84c3.63,0,5.09,2,5.09,6.57s-1.44,6.62-5.09,6.62h-2.84Zm1.59,12c.3,0,.59,0,.85,0,3.05,0,3.92-1.57,3.92-5.46s-.87-5.4-3.9-5.4c-.28,0-.57,0-.87,0Z" transform="translate(-283.05 -248.52)"/><path class="cls-1" d="M321.17,350h2.16l3.35,13.19H325l-.89-3.89h-3.86l-.89,3.89h-1.55Zm2.65,8.07-1.61-6.9-1.59,6.9Z" transform="translate(-283.05 -248.52)"/><path class="cls-1" d="M328.15,350h2.44l1.84,6.86a38,38,0,0,1,.85,4,40.62,40.62,0,0,1,.87-4L336,350h2.46v13.19h-1.4V351l-3.31,12.26h-1L329.53,351v12.26h-1.38Z" transform="translate(-283.05 -248.52)"/><path class="cls-1" d="M340,350h6.89v1.22h-5.32v4.54h3.9V357h-3.9v5h5.51v1.22H340Z" transform="translate(-283.05 -248.52)"/><path class="cls-1" d="M349.6,351.05v12.17h-1.38V350h2.29l3.16,7.48c.45,1.08.87,2.17,1.25,3.29a24.52,24.52,0,0,1-.13-2.88V350h1.38v13.19h-1.55l-3.86-9.12C350.3,353,349.91,352,349.6,351.05Z" transform="translate(-283.05 -248.52)"/><path class="cls-1" d="M360.63,351.16h-3.05V350h7.7v1.13h-3.1v12.06h-1.55Z" transform="translate(-283.05 -248.52)"/><path class="cls-1" d="M367.42,350h2.16l3.35,13.19h-1.65l-.89-3.89h-3.86l-.89,3.89h-1.55Zm2.65,8.07-1.61-6.9-1.59,6.9Z" transform="translate(-283.05 -248.52)"/><path class="cls-1" d="M374.18,350h1.59V362h4.82v1.26h-6.41Z" transform="translate(-283.05 -248.52)"/><path class="cls-1" d="M393.89,359.19c0,2.77-1.48,4.29-4,4.29-2.86,0-4.33-2.23-4.33-6.68,0-4.75,1.36-7,4.39-7,2.31,0,3.8,1.51,3.8,4.14h-1.53c-.11-2-.93-3-2.29-3-2,0-2.74,1.86-2.74,5.73s.78,5.6,3,5.6c1.38,0,2.29-1.09,2.29-3.1v-.27h1.42Z" transform="translate(-283.05 -248.52)"/><path class="cls-1" d="M397.82,350H400l3.35,13.19h-1.65l-.89-3.89h-3.86l-.89,3.89h-1.55Zm2.65,8.07-1.61-6.9-1.59,6.9Z" transform="translate(-283.05 -248.52)"/><path class="cls-1" d="M404.61,350h2.57c3.31,0,4.94,1.17,4.94,3.58s-1.63,3.58-4.94,3.58h-1v6h-1.57Zm2.91,6c2.08,0,3.12-.82,3.12-2.39s-1-2.43-3.12-2.43h-1.34v4.82Z" transform="translate(-283.05 -248.52)"/><path class="cls-1" d="M414.53,350h2.16L420,363.23h-1.65l-.89-3.89h-3.86l-.89,3.89H411.2Zm2.65,8.07-1.61-6.9L414,358.1Z" transform="translate(-283.05 -248.52)"/><path class="cls-1" d="M428.94,359.19c0,2.77-1.48,4.29-4,4.29-2.86,0-4.33-2.23-4.33-6.68,0-4.75,1.36-7,4.39-7,2.31,0,3.8,1.51,3.8,4.14h-1.53c-.11-2-.93-3-2.29-3-2,0-2.74,1.86-2.74,5.73s.78,5.6,3,5.6c1.38,0,2.29-1.09,2.29-3.1v-.27h1.42Z" transform="translate(-283.05 -248.52)"/><path class="cls-1" d="M430.57,350h1.57v13.19h-1.57Z" transform="translate(-283.05 -248.52)"/><path class="cls-1" d="M436.53,351.16h-3.05V350h7.7v1.13h-3.1v12.06h-1.55Z" transform="translate(-283.05 -248.52)"/><path class="cls-1" d="M445.42,357.55,442,350h1.63l2.63,6,2.57-6h1.61L447,357.55v5.68h-1.61Z" transform="translate(-283.05 -248.52)"/><path class="cls-1" d="M456.32,359.72c.11,1.72.87,2.54,2.44,2.54a2.09,2.09,0,0,0,2.25-2.19c0-1.42-1.1-2.26-3-3.45s-3-2.08-3-3.87a3.12,3.12,0,0,1,3.39-3,3.43,3.43,0,0,1,3.75,3.58h-1.46c-.13-1.62-.87-2.45-2.23-2.45a1.83,1.83,0,0,0-2.06,1.84,2.13,2.13,0,0,0,.74,1.55,29.24,29.24,0,0,0,2.86,2c1.63,1.13,2.42,2.19,2.42,3.72,0,2.12-1.53,3.47-3.78,3.47a3.51,3.51,0,0,1-3.88-3.76Z" transform="translate(-283.05 -248.52)"/><path class="cls-1" d="M471.77,359.19c0,2.77-1.48,4.29-4,4.29-2.86,0-4.33-2.23-4.33-6.68,0-4.75,1.36-7,4.39-7,2.31,0,3.8,1.51,3.8,4.14h-1.53c-.11-2-.93-3-2.29-3-2,0-2.74,1.86-2.74,5.73s.78,5.6,3,5.6c1.38,0,2.29-1.09,2.29-3.1v-.27h1.42Z" transform="translate(-283.05 -248.52)"/><path class="cls-1" d="M473,350h2.8c3.31,0,4.94,1.13,4.94,3.47a3.06,3.06,0,0,1-2.42,3.16l2.5,6.57h-1.7l-2.31-6.28c-.53,0-1.08,0-1.63,0h-.62v6.24H473Zm2.91,5.77c2.1,0,3.16-.77,3.16-2.3s-1-2.3-3.16-2.3h-1.34v4.6Z" transform="translate(-283.05 -248.52)"/><path class="cls-1" d="M482.23,350h6.89v1.22H483.8v4.54h3.9V357h-3.9v5h5.51v1.22h-7.08Z" transform="translate(-283.05 -248.52)"/><path class="cls-1" d="M490.76,350h6.89v1.22h-5.32v4.54h3.9V357h-3.9v5h5.51v1.22h-7.08Z" transform="translate(-283.05 -248.52)"/><path class="cls-1" d="M500.68,351.05v12.17h-1.38V350h2.29l3.16,7.48c.45,1.08.87,2.17,1.25,3.29a24.52,24.52,0,0,1-.13-2.88V350h1.38v13.19h-1.55l-3.86-9.12C501.38,353,501,352,500.68,351.05Z" transform="translate(-283.05 -248.52)"/><polygon class="cls-2" points="134.43 15.3 134.43 0.02 99.72 0.02 99.72 96.48 116.78 96.48 116.78 55.11 133.35 55.11 133.35 39.6 116.78 39.6 116.78 15.3 134.43 15.3"/><path class="cls-2" d="M509,276.88v-18c0-6.08-4-10.32-9.84-10.32H479.8A10,10,0,0,0,470,258.62v19.43c0,3,1.39,5.41,2.75,7.5l18.95,27.08v17.09H487V313.44H470V334.8A9.81,9.81,0,0,0,479.8,345h19.31c5.61,0,9.84-4.44,9.84-10.32V311c0-3.54-2-6.61-3.59-9.19l-18.1-25.53V263.82h4.63v13.06Z" transform="translate(-283.05 -248.52)"/><path class="cls-2" d="M464.39,276.89V258.66a9.86,9.86,0,0,0-9.79-10.14h-23a10,10,0,0,0-9.79,10.14v76.19A9.92,9.92,0,0,0,431.92,345h22.69a9.86,9.86,0,0,0,9.79-10.14V313.42H447.45v16.42h-8.73V263.67h8.73v13.22Z" transform="translate(-283.05 -248.52)"/><path class="cls-3" d="M297.71,276.63a20.31,20.31,0,0,0,1.55,1.85,16.52,16.52,0,0,1,1.6,1.75c.31.43.5.89.78,1.3a18.36,18.36,0,0,0,2.92,3.2,10.18,10.18,0,0,0,5.24,2.74,26.73,26.73,0,0,0,1.67,5.56,12.05,12.05,0,0,1,.64,1.71c.07.34,0,.71.1,1.05a22.57,22.57,0,0,0,.51,2.91c.21.68.59,1.26.78,1.95l0,.08c.15.59.83,1.57.71,2.26-.3-.05-1.29-.7-1.67-.85s-.89-.41-1.43-.59a19.27,19.27,0,0,0-2-.52c-1.6-.27-2.11.23-3.21,1s-1.49,2.16-1.37,4.2a42.6,42.6,0,0,0,.52,5.38,16.93,16.93,0,0,0,1.18,3.56c.28.65.57,1.3.87,1.94l.21-.42a16.48,16.48,0,0,1,3.8-5.17,11.24,11.24,0,0,1,6.52-2.89,6.32,6.32,0,0,0,1-.19c.31-.12.31-.12.57-.58a10.67,10.67,0,0,1,.92-1.4c.33-.42.72-1,1.15-1.59a22,22,0,0,1,3.29-4c1.21-1,4.23-3.92,4.26-3.95l.25-.21.08-.13c0-.26.07-.52.11-.76s0-.72.1-1.05a7.13,7.13,0,0,1,.45-1.25,12.19,12.19,0,0,1,.5-1.28,24.37,24.37,0,0,0,1.35-4.74,10.18,10.18,0,0,0,5.24-2.74,18.36,18.36,0,0,0,2.92-3.2c.28-.41.47-.87.78-1.3a16.53,16.53,0,0,1,1.6-1.75,20.29,20.29,0,0,0,1.55-1.85c.48-.65,1.09-1.19,1.6-1.8a32.26,32.26,0,0,0,3.85-6.4c.36-.74.79-1.49,1.15-2.3l.09-.23a3.4,3.4,0,0,1,.45-.78,7.4,7.4,0,0,0,.68-1c0-.1.2-.53.29-.73s.47-1.25.63-1.66a3.54,3.54,0,0,1,.61-.93l.79-.77c.19-.19.82-.7.82-.7s.38-.41.16-.73-.58-.06-.64,0-.29.3-.38.4a2.23,2.23,0,0,1-.57.47,9.16,9.16,0,0,0-.76.54c-.12.09-.13.09-.27,0s0-.28,0-.34.23-.36.31-.49.34-.76.45-1a7.87,7.87,0,0,1,.54-.79l.36-.55a.52.52,0,0,0-.06-.75c-.36-.29-.64.16-.67.22s-.62,1-.77,1.21-.56.7-.82,1.08-.37.62-.42.6a.26.26,0,0,1-.1-.19s.28-.49.35-.66.58-1.39.73-1.66.37-.7.37-.7.49-.67,0-.95-.69.23-.79.42-.29.53-.42.79-.31.52-.62,1a10,10,0,0,0-.69,1.51.44.44,0,0,1-.2-.12s.06-.21.1-.38.07-.44.1-.67.14-.81.18-1a3.21,3.21,0,0,1,.19-.49c.09-.22.41-.84-.08-1.1s-.78.75-.87,1-.28.72-.36.89a8.41,8.41,0,0,0-.28,1c-.06.28-.27,1.28-.31,1.37a7.55,7.55,0,0,1-.51.73c-.1.13-.29.24-.4.19a.44.44,0,0,1-.18-.22,4.66,4.66,0,0,0-.24-1,4.21,4.21,0,0,0-.36-1,1.82,1.82,0,0,0-.87-.68c-.42-.11-.47.24-.46.32a4.54,4.54,0,0,0,.39.63,1.89,1.89,0,0,1,.12.64,2.89,2.89,0,0,1,.1.71,14,14,0,0,0,.14,1.49,2.61,2.61,0,0,0,.52,1.12,8.5,8.5,0,0,1,.54,1.3.84.84,0,0,1-.07.75l-.28.69-1,1.45a15,15,0,0,1-1.88,2.55c-.46.42-1,.75-1.51,1.2s-1,.77-1.5,1.14a12.46,12.46,0,0,0-2.7,2.7,17.21,17.21,0,0,1-2.84,2.55c-.5.42-.9.87-1.37,1.35a7.13,7.13,0,0,1-1.37,1.3,7.67,7.67,0,0,1-1.14.24,9.28,9.28,0,0,0-4.06,2.09c-.54.57-1.18,1.61-2.29,1.5a2.12,2.12,0,0,1-1-.56,4.11,4.11,0,0,1,0-1.05c.13-.41.77-.6,1-1.15a4.5,4.5,0,0,0,.33-2.11c0-.38-.22-.72-.27-1.16-.13-1.28.21-2.77-.08-3.91A4.75,4.75,0,0,0,321,269.8v0h-.61v0a4.75,4.75,0,0,0-4.35,3.22c-.29,1.14.05,2.63-.08,3.91,0,.43-.24.78-.27,1.16a4.5,4.5,0,0,0,.33,2.11c.24.55.88.73,1,1.15a4.12,4.12,0,0,1,0,1.05,2.12,2.12,0,0,1-1,.56c-1.11.12-1.75-.93-2.29-1.5a9.28,9.28,0,0,0-4.06-2.09,7.67,7.67,0,0,1-1.14-.24,7.14,7.14,0,0,1-1.37-1.3c-.47-.48-.87-.93-1.37-1.35a17.21,17.21,0,0,1-2.84-2.55,12.46,12.46,0,0,0-2.7-2.7c-.51-.38-1-.72-1.5-1.14s-1-.78-1.51-1.2a14.94,14.94,0,0,1-1.88-2.55c-.21-.31-.5-.65-.75-1l-.27-.43-.28-.69a.84.84,0,0,1-.07-.75,8.51,8.51,0,0,1,.54-1.3,2.61,2.61,0,0,0,.52-1.12,14,14,0,0,0,.14-1.49,2.88,2.88,0,0,1,.1-.71,1.89,1.89,0,0,1,.12-.64,4.54,4.54,0,0,0,.39-.63c0-.08,0-.42-.46-.32a1.82,1.82,0,0,0-.87.68,4.22,4.22,0,0,0-.36,1,4.66,4.66,0,0,0-.24,1,.44.44,0,0,1-.18.22c-.12,0-.3-.06-.4-.19a7.54,7.54,0,0,1-.51-.73c0-.09-.25-1.09-.31-1.37a8.44,8.44,0,0,0-.28-1c-.07-.16-.26-.62-.36-.89s-.38-1.28-.87-1-.17.88-.08,1.1a3.22,3.22,0,0,1,.19.49c0,.19.15.77.18,1s.06.5.1.67.1.38.1.38a.44.44,0,0,1-.2.12,10,10,0,0,0-.69-1.51c-.31-.48-.49-.73-.62-1s-.32-.61-.42-.79-.33-.69-.79-.42,0,.95,0,.95.22.43.37.7.66,1.49.73,1.66.34.62.35.66a.26.26,0,0,1-.1.19c-.05,0-.17-.22-.42-.6s-.67-.87-.82-1.08-.73-1.15-.77-1.21-.31-.52-.67-.22a.52.52,0,0,0-.06.75l.36.55a7.87,7.87,0,0,1,.54.79c.11.23.37.87.45,1s.29.44.31.49.18.23,0,.34-.14.11-.27,0a9.15,9.15,0,0,0-.76-.54,2.22,2.22,0,0,1-.57-.47c-.09-.1-.33-.36-.38-.4s-.41-.31-.64,0,.16.73.16.73.63.51.82.7l.79.77a3.54,3.54,0,0,1,.61.93c.16.41.53,1.46.63,1.66s.24.63.29.73a7.4,7.4,0,0,0,.68,1,5.55,5.55,0,0,1,.5.72l.1.28c.11.25.22.49.34.73.27.54.55,1.06.8,1.57a32.27,32.27,0,0,0,3.85,6.4C296.62,275.43,297.22,276,297.71,276.63Z" transform="translate(-283.05 -248.52)"/><path class="cls-3" d="M377.08,277.37a.39.39,0,0,0-.46-.09.6.6,0,0,0-.12-.78.5.5,0,0,0-.66-.05,1,1,0,0,0-.3-.65c-.3-.31-.74,0-.74,0l.08-.38a.49.49,0,0,0-.66-.36c-.23.06-.55.51-.55.51l-.6.65a.43.43,0,0,0-.5.09,13.78,13.78,0,0,0-1.43,2,3.91,3.91,0,0,0-.22,1.64,1.09,1.09,0,0,1-.63.94c-.3.2-3.75,1.28-3.75,1.28a4.17,4.17,0,0,0-2.92-.11,9.08,9.08,0,0,0,1-3.17c0-1-.31-1.21-.31-1.21s.3-.6.39-.8a3.42,3.42,0,0,0-.47-3.23l-.77-1,.22-.5.67-1s.54.82,1,.84.92,0,1-.52a3.94,3.94,0,0,1,.61-1.23,1.42,1.42,0,0,0,.51-.41.39.39,0,0,0,.06-.4s.37-.2.39-.27a2.77,2.77,0,0,1,.18-.32,3.48,3.48,0,0,0,.61.12c.08,0,.28.14.29-.5s0-2.15,0-2.15l-.07-.89.3-.22s.31-.12.35-.38,0-1.12.05-1.39.37-1.7.37-1.7.52-.57-1.54-2.37a6.79,6.79,0,0,0-5.48-1.76,3.72,3.72,0,0,0-2.49,1.38,5.35,5.35,0,0,0-1.14,2.2,23.18,23.18,0,0,0-.42,3.25c0,.22-.11,3-.11,3l-.12.65s-.12.23-.54.2h-.06s-1.67.18-2.14.28a12.36,12.36,0,0,0-2.83.84,17.6,17.6,0,0,0-2.25,1.4,17.16,17.16,0,0,0-2.51,2.83l-.06,0c-.58.71-2.28,2.63-3.07,3.62-1.28,1.62-3.26,4.34-4.59,6.45s-4.94,3.81-4.94,3.81a11,11,0,0,0-3,3.3,11.21,11.21,0,0,0-2,5.53,2.29,2.29,0,0,1-.9,1.58s-3.08,3-4.36,4-3.1,4-4.2,5.39-.88,2-2.12,2.45-4.1.07-7,2.79-3.48,5.16-4.05,5.71-5.1,4.46-5.1,4.46a11.91,11.91,0,0,1-2.22,1.44c-.39,0-2.62-.18-2.86-.2s-2.21-.55-2.42.52a12.83,12.83,0,0,0-.05,4.67s-.51,6.16.5,8.16,1.63,3,2.57,3a2.5,2.5,0,0,0,1.47-.31,2.88,2.88,0,0,0-.37-2.35c-.75-1.55.26-2.32,1-3.32a32.29,32.29,0,0,0,2.63-3.89c0-.3-.42-.46-.42-.46a11.65,11.65,0,0,1,1.14-2,33.79,33.79,0,0,1,3.3-2.68s4.65-3.29,7.14-5.28a17.54,17.54,0,0,1,4.13-2.6,19.54,19.54,0,0,1,2.89-1.4,13.6,13.6,0,0,0,3.39-2.11c.57-.53,2.36-1.78,2.36-1.78s3.82-1,4.78-1.36a55,55,0,0,0,8.85-5.17,15.73,15.73,0,0,0,3.91,2.83c1.51.51,3.28.87,3.82,1.07a18,18,0,0,1,2,1.14,5.94,5.94,0,0,1-.8.41,14.7,14.7,0,0,0-3.4,1.37,5.55,5.55,0,0,0-1.56,2.09,4.76,4.76,0,0,1-.88,1.87,41,41,0,0,1-3.41,3c-.44.24-2.52,1.9-2.52,1.9l-1.62,1.17s-1-.22-1.18,0-1.61,1.82-1.7,1.94-.79,1-.79,1-.84,1.17,1.59,3.07,4.94,4.54,6,5.21,2.44,1.56,3.66,1.45,1.23-.26,1.24-.56a2.16,2.16,0,0,0-1.06-1.71,5.18,5.18,0,0,1-1.57-1.7,10.41,10.41,0,0,1-.63-2.63,18.83,18.83,0,0,1-.4-2.53c0-.43-.24-.75.22-1.42s.42-.58,1.52-1.43a17.79,17.79,0,0,1,2.87-1.84c.2,0,3-1.44,4.06-2.08a11.84,11.84,0,0,0,2.39-1.6,14.38,14.38,0,0,1,2.63-1.76,15.42,15.42,0,0,0,1.51-.93s1.47-1.51,2.12-2a2.24,2.24,0,0,0,1.11-2c0-1.08-1.73-6.37-4.87-9.13a34.66,34.66,0,0,0-8.35-5.85l-.5-1-.18-.6a6.46,6.46,0,0,0,.9-1.26,2.88,2.88,0,0,1,.93-1.1,8.33,8.33,0,0,1,1.27-1.23c.86-.69,2-1,2.6-1.48s3.17-2.1,3.86-2.8c.11-.11.27-.29.45-.51a3.35,3.35,0,0,0,.84.77s.37.86.52,1.27,1.42,1.18,1.68,1.28a.69.69,0,0,0,.51,0s.6-.22.92-.35a2.11,2.11,0,0,1,1,0c.28,0,.91-.06,2-.11s3.86-1.6,4.49-2,2.35-1.69,2.83-2,1.95-1.32,1.95-1.32l.73-.3a3.61,3.61,0,0,0,.84-.54c.2-.18.78-.66,1.17-1.08a2.84,2.84,0,0,0,.69-1.19,11.76,11.76,0,0,1,.58-1.26,7.94,7.94,0,0,0,.42-1A1.3,1.3,0,0,0,377.08,277.37Z" transform="translate(-283.05 -248.52)"/></svg>