<svg id="Layer_1" data-name="Layer 1" xmlns="http://www.w3.org/2000/svg" viewBox="0 0 249.43 161.87"><defs><style>.cls-1{fill:#8db936;}.cls-2{fill:#4b8557;}.cls-3{fill:#ce5e55;}.cls-4{fill:#de655b;}.cls-5{fill:#e66b62;}.cls-6{fill:#d4635a;}.cls-7{fill:#fff;}.cls-8{fill:#ebebeb;}</style></defs><title>fcs-carry4</title><polygon class="cls-1" points="0 152.88 249.43 152.88 112.74 73.74 0 73.74 0 152.88"/><rect class="cls-2" y="152.46" width="249.18" height="9.41"/><path class="cls-3" d="M1326.54,558.09H1220V570.3c0,8.69,23.91,15.73,53.3,15.73s53.3-7,53.3-15.73V558.09Z" transform="translate(-1211 -453.56)"/><path class="cls-4" d="M1273.25,542.56c29.39,0,53.3,6.93,53.3,15.52s-23.91,15.52-53.3,15.52-53.3-6.93-53.3-15.52S1243.86,542.56,1273.25,542.56Z" transform="translate(-1211 -453.56)"/><path class="cls-5" d="M1307.19,551.88l-24-90.76a10.19,10.19,0,0,0-9.83-7.55h-.21a10.1,10.1,0,0,0-9.83,7.55l-24,90.76a3.84,3.84,0,0,0-.41,1.45c0,5.69,15.42,10.35,34.36,10.35s34.36-4.66,34.36-10.35A2.59,2.59,0,0,0,1307.19,551.88Z" transform="translate(-1211 -453.56)"/><path class="cls-6" d="M1245.1,553.33a3.37,3.37,0,0,1,.41-1.45l24-90.76a10,10,0,0,1,6.83-7,9.62,9.62,0,0,0-3-.52h-.21a10.1,10.1,0,0,0-9.83,7.55l-24,90.76a3.84,3.84,0,0,0-.41,1.45c0,5.69,15.42,10.35,34.36,10.35h3.1C1258.86,563.16,1245.1,558.71,1245.1,553.33Z" transform="translate(-1211 -453.56)"/><path class="cls-7" d="M1302.23,533.15,1296,509.65a101.47,101.47,0,0,1-45.53,0l-6.21,23.49c6.11,2.9,16.76,4.76,29,4.76S1296.12,535.94,1302.23,533.15ZM1292.39,496l-5.59-21.11a81.3,81.3,0,0,1-27.11,0L1254.1,496a81.63,81.63,0,0,0,38.29,0Z" transform="translate(-1211 -453.56)"/><path class="cls-8" d="M1254.1,496a49.41,49.41,0,0,0,5.9,1.24l5.69-21.53c-2.07-.21-4-.41-6-.72Zm2.28,14.9c-2.07-.31-4-.83-5.9-1.24l-6.21,23.49a39.39,39.39,0,0,0,5.69,2.07Z" transform="translate(-1211 -453.56)"/></svg>