<svg id="Layer_1" data-name="Layer 1" xmlns="http://www.w3.org/2000/svg" viewBox="0 0 200 200"><defs><style>.cls-1{fill:#404041;}.cls-2{fill:#fff;fill-rule:evenodd;}</style></defs><title>FCS-icon</title><rect class="cls-1" width="200" height="200"/><rect class="cls-1" x="52.47" y="52.58" width="96.47" height="96.47"/><path class="cls-2" d="M66.71,80.63a20.31,20.31,0,0,0,1.55,1.85,16.52,16.52,0,0,1,1.6,1.75c.31.43.5.89.78,1.3a18.36,18.36,0,0,0,2.92,3.2,10.18,10.18,0,0,0,5.24,2.74A26.73,26.73,0,0,0,80.48,97a12.05,12.05,0,0,1,.64,1.71c.07.34,0,.71.1,1.05a22.57,22.57,0,0,0,.51,2.91c.21.68.59,1.26.78,1.95l0,.08c.15.59.83,1.57.71,2.26-.3-.05-1.29-.7-1.67-.85s-.89-.41-1.43-.59a19.27,19.27,0,0,0-2-.52c-1.6-.27-2.11.23-3.21,1s-1.49,2.16-1.37,4.2a42.6,42.6,0,0,0,.52,5.38,16.93,16.93,0,0,0,1.18,3.56c.28.65.57,1.3.87,1.94l.21-.42a16.48,16.48,0,0,1,3.8-5.17,11.24,11.24,0,0,1,6.52-2.89,6.32,6.32,0,0,0,1-.19c.31-.12.31-.12.57-.58a10.67,10.67,0,0,1,.92-1.4c.33-.42.72-1,1.15-1.59a22,22,0,0,1,3.29-4c1.21-1,4.23-3.92,4.26-3.95l.25-.21.08-.13c0-.26.07-.52.11-.76s0-.72.1-1.05a7.13,7.13,0,0,1,.45-1.25,12.19,12.19,0,0,1,.5-1.28,24.37,24.37,0,0,0,1.35-4.74,10.18,10.18,0,0,0,5.24-2.74,18.36,18.36,0,0,0,2.92-3.2c.28-.41.47-.87.78-1.3a16.53,16.53,0,0,1,1.6-1.75,20.29,20.29,0,0,0,1.55-1.85c.48-.65,1.09-1.19,1.6-1.8a32.26,32.26,0,0,0,3.85-6.4c.36-.74.79-1.49,1.15-2.3l.09-.23a3.4,3.4,0,0,1,.45-.78,7.4,7.4,0,0,0,.68-1c0-.1.2-.53.29-.73s.47-1.25.63-1.66a3.54,3.54,0,0,1,.61-.93l.79-.77c.19-.19.82-.7.82-.7s.38-.41.16-.73-.58-.06-.64,0-.29.3-.38.4a2.23,2.23,0,0,1-.57.47,9.16,9.16,0,0,0-.76.54c-.12.09-.13.09-.27,0s0-.28,0-.34.23-.36.31-.49.34-.76.45-1a7.87,7.87,0,0,1,.54-.79l.36-.55a.52.52,0,0,0-.06-.75c-.36-.29-.64.16-.67.22s-.62,1-.77,1.21-.56.7-.82,1.08-.37.62-.42.6a.26.26,0,0,1-.1-.19s.28-.49.35-.66.58-1.39.73-1.66.37-.7.37-.7.49-.67,0-.95-.69.23-.79.42-.29.53-.42.79-.31.52-.62,1a10,10,0,0,0-.69,1.51.44.44,0,0,1-.2-.12s.06-.21.1-.38.07-.44.1-.67.14-.81.18-1a3.21,3.21,0,0,1,.19-.49c.09-.22.41-.84-.08-1.1s-.78.75-.87,1-.28.72-.36.89a8.41,8.41,0,0,0-.28,1c-.06.28-.27,1.28-.31,1.37A7.55,7.55,0,0,1,117,64c-.1.13-.29.24-.4.19a.44.44,0,0,1-.18-.22,4.66,4.66,0,0,0-.24-1,4.21,4.21,0,0,0-.36-1,1.82,1.82,0,0,0-.87-.68c-.42-.11-.47.24-.46.32a4.54,4.54,0,0,0,.39.63,1.89,1.89,0,0,1,.12.64,2.89,2.89,0,0,1,.1.71,14,14,0,0,0,.14,1.49,2.61,2.61,0,0,0,.52,1.12,8.5,8.5,0,0,1,.54,1.3.84.84,0,0,1-.07.75l-.28.69-1,1.45a15,15,0,0,1-1.88,2.55c-.46.42-1,.75-1.51,1.2s-1,.77-1.5,1.14a12.46,12.46,0,0,0-2.7,2.7,17.21,17.21,0,0,1-2.84,2.55c-.5.42-.9.87-1.37,1.35a7.13,7.13,0,0,1-1.37,1.3,7.67,7.67,0,0,1-1.14.24,9.28,9.28,0,0,0-4.06,2.09c-.54.57-1.18,1.61-2.29,1.5a2.12,2.12,0,0,1-1-.56,4.11,4.11,0,0,1,0-1.05c.13-.41.77-.6,1-1.15a4.5,4.5,0,0,0,.33-2.11c0-.38-.22-.72-.27-1.16-.13-1.28.21-2.77-.08-3.91A4.75,4.75,0,0,0,90,73.8v0h-.61v0A4.75,4.75,0,0,0,85.09,77c-.29,1.14.05,2.63-.08,3.91,0,.43-.24.78-.27,1.16a4.5,4.5,0,0,0,.33,2.11c.24.55.88.73,1,1.15a4.12,4.12,0,0,1,0,1.05,2.12,2.12,0,0,1-1,.56c-1.11.12-1.75-.93-2.29-1.5a9.28,9.28,0,0,0-4.06-2.09,7.67,7.67,0,0,1-1.14-.24,7.14,7.14,0,0,1-1.37-1.3c-.47-.48-.87-.93-1.37-1.35A17.21,17.21,0,0,1,72,77.94a12.46,12.46,0,0,0-2.7-2.7c-.51-.38-1-.72-1.5-1.14s-1-.78-1.51-1.2a14.94,14.94,0,0,1-1.88-2.55c-.21-.31-.5-.65-.75-1l-.27-.43-.28-.69a.84.84,0,0,1-.07-.75,8.51,8.51,0,0,1,.54-1.3A2.61,2.61,0,0,0,64.13,65a14,14,0,0,0,.14-1.49,2.88,2.88,0,0,1,.1-.71,1.89,1.89,0,0,1,.12-.64,4.54,4.54,0,0,0,.39-.63c0-.08,0-.42-.46-.32a1.82,1.82,0,0,0-.87.68,4.22,4.22,0,0,0-.36,1,4.66,4.66,0,0,0-.24,1,.44.44,0,0,1-.18.22c-.12,0-.3-.06-.4-.19a7.54,7.54,0,0,1-.51-.73c0-.09-.25-1.09-.31-1.37a8.44,8.44,0,0,0-.28-1c-.07-.16-.26-.62-.36-.89s-.38-1.28-.87-1-.17.88-.08,1.1a3.22,3.22,0,0,1,.19.49c0,.19.15.77.18,1s.06.5.1.67.1.38.1.38a.44.44,0,0,1-.2.12,10,10,0,0,0-.69-1.51c-.31-.48-.49-.73-.62-1s-.32-.61-.42-.79-.33-.69-.79-.42,0,.95,0,.95.22.43.37.7.66,1.49.73,1.66.34.62.35.66a.26.26,0,0,1-.1.19c-.05,0-.17-.22-.42-.6s-.67-.87-.82-1.08-.73-1.15-.77-1.21-.31-.52-.67-.22a.52.52,0,0,0-.06.75l.36.55a7.87,7.87,0,0,1,.54.79c.11.23.37.87.45,1s.29.44.31.49.18.23,0,.34-.14.11-.27,0a9.15,9.15,0,0,0-.76-.54,2.22,2.22,0,0,1-.57-.47c-.09-.1-.33-.36-.38-.4s-.41-.31-.64,0,.16.73.16.73.63.51.82.7l.79.77a3.54,3.54,0,0,1,.61.93c.16.41.53,1.46.63,1.66s.24.63.29.73a7.4,7.4,0,0,0,.68,1,5.55,5.55,0,0,1,.5.72l.1.28c.11.25.22.49.34.73.27.54.55,1.06.8,1.57a32.27,32.27,0,0,0,3.85,6.4C65.62,79.43,66.22,80,66.71,80.63Z" transform="translate(0)"/><path class="cls-2" d="M146.08,81.37a.39.39,0,0,0-.46-.09.6.6,0,0,0-.12-.78.5.5,0,0,0-.66-.05,1,1,0,0,0-.3-.65c-.3-.31-.74,0-.74,0l.08-.38a.49.49,0,0,0-.66-.36c-.23.06-.55.51-.55.51l-.6.65a.43.43,0,0,0-.5.09,13.78,13.78,0,0,0-1.43,2,3.91,3.91,0,0,0-.22,1.64,1.09,1.09,0,0,1-.63.94c-.3.2-3.75,1.28-3.75,1.28a4.17,4.17,0,0,0-2.92-.11,9.08,9.08,0,0,0,1-3.17c0-1-.31-1.21-.31-1.21s.3-.6.39-.8a3.42,3.42,0,0,0-.47-3.23l-.77-1,.22-.5.67-1s.54.82,1,.84.92,0,1-.52a3.94,3.94,0,0,1,.61-1.23,1.42,1.42,0,0,0,.51-.41.39.39,0,0,0,.06-.4s.37-.2.39-.27a2.77,2.77,0,0,1,.18-.32,3.48,3.48,0,0,0,.61.12c.08,0,.28.14.29-.5s0-2.15,0-2.15l-.07-.89.3-.22s.31-.12.35-.38,0-1.12.05-1.39.37-1.7.37-1.7.52-.57-1.54-2.37A6.79,6.79,0,0,0,132,61.54a3.72,3.72,0,0,0-2.49,1.38,5.35,5.35,0,0,0-1.14,2.2,23.18,23.18,0,0,0-.42,3.25c0,.22-.11,3-.11,3l-.12.65s-.12.23-.54.2h-.06s-1.67.18-2.14.28a12.36,12.36,0,0,0-2.83.84,17.6,17.6,0,0,0-2.25,1.4,17.16,17.16,0,0,0-2.51,2.83l-.06,0c-.58.71-2.28,2.63-3.07,3.62-1.28,1.62-3.26,4.34-4.59,6.45s-4.94,3.81-4.94,3.81a11,11,0,0,0-3,3.3,11.21,11.21,0,0,0-2,5.53,2.29,2.29,0,0,1-.9,1.58s-3.08,3-4.36,4-3.1,4-4.2,5.39-.88,2-2.12,2.45-4.1.07-7,2.79-3.48,5.16-4.05,5.71-5.1,4.46-5.1,4.46a11.91,11.91,0,0,1-2.22,1.44c-.39,0-2.62-.18-2.86-.2s-2.21-.55-2.42.52a12.83,12.83,0,0,0-.05,4.67s-.51,6.16.5,8.16,1.63,3,2.57,3A2.5,2.5,0,0,0,69,144.1a2.88,2.88,0,0,0-.37-2.35c-.75-1.55.26-2.32,1-3.32a32.29,32.29,0,0,0,2.63-3.89c0-.3-.42-.46-.42-.46a11.65,11.65,0,0,1,1.14-2,33.79,33.79,0,0,1,3.3-2.68s4.65-3.29,7.14-5.28a17.54,17.54,0,0,1,4.13-2.6,19.54,19.54,0,0,1,2.89-1.4A13.6,13.6,0,0,0,93.81,118c.57-.53,2.36-1.78,2.36-1.78s3.82-1,4.78-1.36a55,55,0,0,0,8.85-5.17,15.73,15.73,0,0,0,3.91,2.83c1.51.51,3.28.87,3.82,1.07a18,18,0,0,1,2,1.14,5.94,5.94,0,0,1-.8.41,14.7,14.7,0,0,0-3.4,1.37,5.55,5.55,0,0,0-1.56,2.09,4.76,4.76,0,0,1-.88,1.87,41,41,0,0,1-3.41,3c-.44.24-2.52,1.9-2.52,1.9l-1.62,1.17s-1-.22-1.18,0-1.61,1.82-1.7,1.94-.79,1-.79,1-.84,1.17,1.59,3.07,4.94,4.54,6,5.21,2.44,1.56,3.66,1.45,1.23-.26,1.24-.56a2.16,2.16,0,0,0-1.06-1.71,5.18,5.18,0,0,1-1.57-1.7,10.41,10.41,0,0,1-.63-2.63,18.83,18.83,0,0,1-.4-2.53c0-.43-.24-.75.22-1.42s.42-.58,1.52-1.43a17.79,17.79,0,0,1,2.87-1.84c.2,0,3-1.44,4.06-2.08a11.84,11.84,0,0,0,2.39-1.6,14.38,14.38,0,0,1,2.63-1.76,15.42,15.42,0,0,0,1.51-.93s1.47-1.51,2.12-2a2.24,2.24,0,0,0,1.11-2c0-1.08-1.73-6.37-4.87-9.13a34.66,34.66,0,0,0-8.35-5.85l-.5-1-.18-.6a6.46,6.46,0,0,0,.9-1.26,2.88,2.88,0,0,1,.93-1.1,8.33,8.33,0,0,1,1.27-1.23c.86-.69,2-1,2.6-1.48s3.17-2.1,3.86-2.8c.11-.11.27-.29.45-.51a3.35,3.35,0,0,0,.84.77s.37.86.52,1.27,1.42,1.18,1.68,1.28a.69.69,0,0,0,.51,0s.6-.22.92-.35a2.11,2.11,0,0,1,1,0c.28,0,.91-.06,2-.11s3.86-1.6,4.49-2,2.35-1.69,2.83-2,1.95-1.32,1.95-1.32l.73-.3a3.61,3.61,0,0,0,.84-.54c.2-.18.78-.66,1.17-1.08a2.84,2.84,0,0,0,.69-1.19,11.76,11.76,0,0,1,.58-1.26,7.94,7.94,0,0,0,.42-1A1.3,1.3,0,0,0,146.08,81.37Z" transform="translate(0)"/></svg>