<svg id="Layer_1" data-name="Layer 1" xmlns="http://www.w3.org/2000/svg" viewBox="0 0 250.57 161.87"><defs><style>.cls-1{fill:#4b8557;}.cls-2{fill:#8db936;}.cls-3{fill:#bccd30;}.cls-4{fill:#ce5e55;}.cls-5{fill:#de655b;}.cls-6{fill:#e66b62;}.cls-7{fill:#d4635a;}.cls-8{fill:#fff;}.cls-9{fill:#ebebeb;}</style></defs><title>fcs-carry1</title><rect class="cls-1" x="1.01" y="152.46" width="249.56" height="9.41"/><polygon class="cls-2" points="250.57 73.74 143.88 73.74 0 152.88 250.57 152.88 250.57 73.74"/><polygon class="cls-3" points="250.57 74.1 144.25 74.1 1.01 152.88 250.57 152.88 250.57 74.1"/><path class="cls-4" d="M700.91,558.09H594.31V570.3c0,8.69,23.91,15.73,53.3,15.73s53.3-7,53.3-15.73V558.09Z" transform="translate(-460.43 -453.56)"/><path class="cls-5" d="M647.61,542.56c29.39,0,53.3,6.93,53.3,15.52s-23.91,15.52-53.3,15.52-53.3-6.93-53.3-15.52S618.22,542.56,647.61,542.56Z" transform="translate(-460.43 -453.56)"/><path class="cls-6" d="M681.55,551.88l-24-90.76a10.19,10.19,0,0,0-9.83-7.55h-.21a10.1,10.1,0,0,0-9.83,7.55l-24,90.76a3.84,3.84,0,0,0-.41,1.45c0,5.69,15.42,10.35,34.36,10.35S682,559,682,553.33A2.59,2.59,0,0,0,681.55,551.88Z" transform="translate(-460.43 -453.56)"/><path class="cls-7" d="M619.46,553.33a3.37,3.37,0,0,1,.41-1.45l24-90.76a10,10,0,0,1,6.83-7,9.62,9.62,0,0,0-3-.52h-.21a10.1,10.1,0,0,0-9.83,7.55l-24,90.76a3.84,3.84,0,0,0-.41,1.45c0,5.69,15.42,10.35,34.36,10.35h3.1C633.23,563.16,619.46,558.71,619.46,553.33Z" transform="translate(-460.43 -453.56)"/><path class="cls-8" d="M676.59,533.15l-6.21-23.49a101.47,101.47,0,0,1-45.53,0l-6.21,23.49c6.11,2.9,16.76,4.76,29,4.76S670.48,535.94,676.59,533.15ZM666.76,496l-5.59-21.11a81.3,81.3,0,0,1-27.11,0L628.47,496a81.63,81.63,0,0,0,38.29,0Z" transform="translate(-460.43 -453.56)"/><path class="cls-9" d="M628.47,496a49.41,49.41,0,0,0,5.9,1.24l5.69-21.53c-2.07-.21-4-.41-6-.72Zm2.28,14.9c-2.07-.31-4-.83-5.9-1.24l-6.21,23.49a39.39,39.39,0,0,0,5.69,2.07Z" transform="translate(-460.43 -453.56)"/></svg>