<svg id="Layer_1" data-name="Layer 1" xmlns="http://www.w3.org/2000/svg" viewBox="0 0 617.44 300"><defs><style>.cls-1{fill:#404041;}.cls-2{fill:#ec1c24;}.cls-3{fill:#fff;fill-rule:evenodd;}</style></defs><title>FMS-logo</title><path class="cls-1" d="M91.25,515.14h16.5v3.14H95.28V530h9.59V533H95.28v16h-4Z" transform="translate(-91.25 -249.68)"/><path class="cls-1" d="M112.82,515.14h4v21.7c0,6.61.49,9.75,5.88,9.75s5.83-3.19,5.83-9.75v-21.7h4v22c0,4.45-.16,7.54-2.07,9.65-1.63,1.78-4.41,2.86-7.79,2.86s-6.21-1.08-7.84-2.86c-2-2.11-2.07-5.2-2.07-9.65Z" transform="translate(-91.25 -249.68)"/><path class="cls-1" d="M143.65,517.77V549h-3.54V515.14H146l8.12,19.21c1.14,2.77,2.23,5.58,3.21,8.44a63.33,63.33,0,0,1-.33-7.4V515.14h3.54V549h-4l-9.91-23.43C145.44,522.78,144.46,520.16,143.65,517.77Z" transform="translate(-91.25 -249.68)"/><path class="cls-1" d="M188.2,538.67c0,7.12-3.81,11-10.29,11-7.35,0-11.11-5.72-11.11-17.15,0-12.18,3.49-18.09,11.27-18.09,5.94,0,9.75,3.89,9.75,10.64H183.9c-.27-5-2.4-7.59-5.88-7.59-5.17,0-7,4.78-7,14.71,0,9.75,2,14.39,7.68,14.39,3.54,0,5.88-2.81,5.88-8v-.7h3.65Z" transform="translate(-91.25 -249.68)"/><path class="cls-1" d="M198.65,518h-7.84v-2.9h19.77V518h-8v31h-4Z" transform="translate(-91.25 -249.68)"/><path class="cls-1" d="M215.16,515.14h4V549h-4Z" transform="translate(-91.25 -249.68)"/><path class="cls-1" d="M225.56,532.06c0-11.67,3.76-17.57,10.84-17.57s10.89,5.9,10.89,17.57-3.81,17.62-10.89,17.62S225.56,543.73,225.56,532.06Zm4.25-.8c0,10.26,1.74,15.23,6.59,15.23s6.59-4.73,6.59-14.43-1.91-14.43-6.59-14.43S229.81,522.08,229.81,531.26Z" transform="translate(-91.25 -249.68)"/><path class="cls-1" d="M257.09,517.77V549h-3.54V515.14h5.88l8.12,19.21c1.14,2.77,2.23,5.58,3.21,8.44a63.33,63.33,0,0,1-.33-7.4V515.14H274V549h-4l-9.91-23.43C258.89,522.78,257.91,520.16,257.09,517.77Z" transform="translate(-91.25 -249.68)"/><path class="cls-1" d="M287.27,515.14h5.56L301.43,549h-4.25l-2.29-10H285l-2.29,10h-4Zm6.81,20.71-4.14-17.71-4.09,17.71Z" transform="translate(-91.25 -249.68)"/><path class="cls-1" d="M306.16,515.14h4.09v30.65h12.36V549H306.16Z" transform="translate(-91.25 -249.68)"/><path class="cls-1" d="M339.11,515.14h6.26l4.74,17.62a97.74,97.74,0,0,1,2.18,10.31,104.34,104.34,0,0,1,2.23-10.26l4.79-17.67h6.32V549H362V517.53L353.55,549H351l-8.39-31.49V549h-3.54Z" transform="translate(-91.25 -249.68)"/><path class="cls-1" d="M371.85,532.06c0-11.67,3.76-17.57,10.84-17.57s10.89,5.9,10.89,17.57-3.81,17.62-10.89,17.62S371.85,543.73,371.85,532.06Zm4.25-.8c0,10.26,1.74,15.23,6.59,15.23s6.59-4.73,6.59-14.43-1.91-14.43-6.59-14.43S376.09,522.08,376.09,531.26Z" transform="translate(-91.25 -249.68)"/><path class="cls-1" d="M396.52,515.14h4l5.88,23.1c.33,1.22.6,3,1,5.29.33-1.64.71-3.47,1.2-5.43l5.83-23h3.87l-9,33.88H405.5Z" transform="translate(-91.25 -249.68)"/><path class="cls-1" d="M422.55,515.14h17.7v3.14H426.58V530h10V533h-10v12.84h14.16V549H422.55Z" transform="translate(-91.25 -249.68)"/><path class="cls-1" d="M445.64,515.14h6.26l4.74,17.62a97.76,97.76,0,0,1,2.18,10.31,103.86,103.86,0,0,1,2.23-10.26l4.79-17.67h6.32V549h-3.59V517.53L460.08,549h-2.5l-8.39-31.49V549h-3.54Z" transform="translate(-91.25 -249.68)"/><path class="cls-1" d="M479.68,515.14h17.7v3.14H483.71V530h10V533h-10v12.84h14.16V549H479.68Z" transform="translate(-91.25 -249.68)"/><path class="cls-1" d="M506.42,517.77V549h-3.54V515.14h5.88l8.12,19.21c1.14,2.77,2.23,5.58,3.21,8.44a63.33,63.33,0,0,1-.33-7.4V515.14h3.54V549h-4l-9.91-23.43C508.22,522.78,507.24,520.16,506.42,517.77Z" transform="translate(-91.25 -249.68)"/><path class="cls-1" d="M535.73,518h-7.84v-2.9h19.77V518h-8v31h-4Z" transform="translate(-91.25 -249.68)"/><path class="cls-1" d="M566.33,540c.27,4.41,2.23,6.51,6.26,6.51,3.43,0,5.77-2.2,5.77-5.62,0-3.65-2.83-5.81-7.62-8.86s-7.63-5.34-7.63-9.93c0-4.31,3.65-7.64,8.71-7.64,5.83,0,9.42,3.33,9.64,9.18h-3.76c-.33-4.17-2.23-6.28-5.72-6.28-3.21,0-5.28,1.83-5.28,4.73a5.46,5.46,0,0,0,1.91,4c2.07,1.87,4.79,3.33,7.35,5.11,4.19,2.91,6.21,5.62,6.21,9.56,0,5.43-3.92,8.9-9.69,8.9-6.21,0-9.86-3.47-10-9.65Z" transform="translate(-91.25 -249.68)"/><path class="cls-1" d="M608.33,538.67c0,7.12-3.81,11-10.29,11-7.35,0-11.11-5.72-11.11-17.15,0-12.18,3.49-18.09,11.28-18.09,5.94,0,9.75,3.89,9.75,10.64H604c-.27-5-2.4-7.59-5.88-7.59-5.17,0-7,4.78-7,14.71,0,9.75,2,14.39,7.68,14.39,3.54,0,5.88-2.81,5.88-8v-.7h3.65Z" transform="translate(-91.25 -249.68)"/><path class="cls-1" d="M613.93,515.14h7.19c8.5,0,12.69,2.9,12.69,8.9a7.86,7.86,0,0,1-6.21,8.11L634,549h-4.36l-5.94-16.12c-1.36,0-2.78.09-4.19.09H618v16h-4ZM621.39,530c5.39,0,8.12-2,8.12-5.9s-2.67-5.9-8.12-5.9H618V530Z" transform="translate(-91.25 -249.68)"/><path class="cls-1" d="M639.86,515.14h17.7v3.14H643.89V530h10V533h-10v12.84H658V549H639.86Z" transform="translate(-91.25 -249.68)"/><path class="cls-1" d="M663,515.14h17.7v3.14H667V530h10V533H667v12.84h14.16V549H663Z" transform="translate(-91.25 -249.68)"/><path class="cls-1" d="M689.75,517.77V549h-3.54V515.14h5.88l8.12,19.21c1.14,2.77,2.23,5.58,3.21,8.44a63.33,63.33,0,0,1-.33-7.4V515.14h3.54V549h-4l-9.91-23.43C691.54,522.78,690.56,520.16,689.75,517.77Z" transform="translate(-91.25 -249.68)"/><polygon class="cls-2" points="350.94 39.84 350.94 0 260.42 0 260.42 251.59 304.92 251.59 304.92 143.7 348.15 143.7 348.15 103.23 304.92 103.23 304.92 39.84 350.94 39.84"/><polygon class="cls-2" points="468.79 0 433.6 86.41 398.98 0 363.43 0 363.43 251.59 407 251.59 407 170.07 422.56 229.21 443.29 229.21 459.81 167.88 459.81 251.59 503.39 251.59 503.39 0 468.79 0"/><path class="cls-2" d="M708.69,323.6v-47c0-15.85-10.55-26.92-25.67-26.92H632.65c-14.16,0-25.67,11.79-25.67,26.3v50.68c0,7.83,3.63,14.1,7.17,19.57l49.42,70.64v44.57H651.47V418.95H607v55.72c0,17.29,13.23,26.61,25.67,26.61H683c14.64,0,25.67-11.57,25.67-26.91V412.48c0-9.24-5.09-17.24-9.38-24l-47.2-66.59V289.52h12.08V323.6Z" transform="translate(-91.25 -249.68)"/><path class="cls-2" d="M680.28,332.52h11v2.83h-3.71v11.48H684V335.36h-3.73Z" transform="translate(-91.25 -249.68)"/><path class="cls-2" d="M708.69,332.54v14.29h-3.42l.22-10.18,0-1.44-.12.51c-.18.81-.2.91-.36,1.52l-2.69,9.6h-3.08l-2.59-9.19-.63-2.55c.06,1.13.06,1.38.12,2.73l.18,9H692.9V332.54h5.22l2.19,8,.51,2.29c.2-1,.22-1.09.39-1.76l2.29-8.54Z" transform="translate(-91.25 -249.68)"/><rect class="cls-1" x="1.01" y="0.01" width="251.58" height="251.58"/><path class="cls-3" d="M314.16,281h-6a6.59,6.59,0,0,0-4-2.62c-2-.24-4.78.85-5.67.24s-1.95,0-2.69.07c-1.28.1-1.48,1.41-2,2.31H142.53c-.51-.9-.72-2.21-2-2.31-.74-.06-1.89-.62-2.69-.07s-3.66-.48-5.67-.24a6.59,6.59,0,0,0-4,2.62h-6a3.13,3.13,0,1,0,0,6.26h5.15c.11.41.27,1,.57,1.83.61,1.79,2.77,5.67,3.52,7.35.49,1.11.84,2.26,1.32,3.28,1,2.11,2.26,4.09,3.3,6,3.34,6.07,6.65,11.93,11.11,16.76,1.49,1.6,3.23,3,4.62,4.71a54.78,54.78,0,0,0,4.47,4.84,45.17,45.17,0,0,1,4.62,4.57c.89,1.11,1.45,2.34,2.26,3.4a50.13,50.13,0,0,0,8.42,8.37c4.12,3.3,8.89,6.31,15.13,7.16a65.21,65.21,0,0,0,4.81,14.54,29.76,29.76,0,0,1,1.85,4.46c.21.88.12,1.85.28,2.76a54.11,54.11,0,0,0,1.48,7.62c.61,1.78,1.69,3.31,2.25,5.1l.09.2c.43,1.54,2.39,4.11,2.05,5.9-.86-.14-3.71-1.84-4.82-2.23s-2.56-1.07-4.12-1.56c-1.14-.33-4.09-1.09-5.84-1.36-4.6-.72-6.09.61-9.25,2.7-3,2-4.29,5.64-4,11a101.48,101.48,0,0,0,1.49,14.07,41.51,41.51,0,0,0,3.4,9.33c2.71,5.74,5.73,11.35,8.72,16.46.56,2.09,1.59,3.72,1.74,5.79,0,.54.29,1.67.34,2.3a7.12,7.12,0,0,1,0,1.77c-.09.81.23,2.7-.42,4-1.41,2.72-2.42,4.17-3.59,6.68-.6,1.3-1.44,2.39-1.8,3.41a9.11,9.11,0,0,0-.61,3.93c.33,1.33,2.46,1.84,4,2.13,4.53.85,10.06,1,10.14-4.6.95-3.78,3.65-2.48,3.76-5.69a23.22,23.22,0,0,0-.57-3.7c-.3-1.62-.42-2.9-.64-4.53-.19-1.43-1.49-2.54-1.67-4-.47-3.55-1.75-8.21-.87-12.08,5.29-11.54-3.55-21.31-2.39-20.73s5.44,9,13.71,10.61a77.29,77.29,0,0,0,8.52.62c1.43,0,2.2-.06,3.4-.08s2,0,3.4.08a77.29,77.29,0,0,0,8.52-.62c8.26-1.59,12.66-10.09,13.71-10.61s-7.68,9.19-2.39,20.73c.88,3.87-.41,8.53-.87,12.08-.18,1.42-1.48,2.53-1.67,4-.22,1.63-.34,2.91-.64,4.53a23.21,23.21,0,0,0-.57,3.7c.1,3.21,2.81,1.91,3.76,5.69.08,5.63,5.62,5.45,10.14,4.6,1.57-.29,3.7-.8,4-2.13a9.12,9.12,0,0,0-.61-3.93c-.36-1-1.2-2.11-1.8-3.41-1.17-2.51-2.18-4-3.59-6.68-.65-1.3-.33-3.19-.42-4a7.12,7.12,0,0,1,0-1.77c.05-.63.29-1.76.34-2.3.15-2.07,1.18-3.71,1.74-5.79,3-5.12,6-10.72,8.72-16.46a41.51,41.51,0,0,0,3.4-9.33,101.48,101.48,0,0,0,1.49-14.07c.33-5.36-1-9-4-11-3.16-2.09-4.65-3.41-9.25-2.7-1.74.27-4.7,1-5.84,1.36-1.56.48-3,1.14-4.12,1.56s-4,2.09-4.82,2.23c-.33-1.79,1.62-4.36,2.05-5.9l.09-.2c.56-1.79,1.64-3.31,2.25-5.1a54.14,54.14,0,0,0,1.48-7.62c.17-.91.07-1.88.28-2.76a29.77,29.77,0,0,1,1.85-4.46,65.2,65.2,0,0,0,4.81-14.54c6.24-.85,11-3.86,15.13-7.16a50.14,50.14,0,0,0,8.42-8.37c.81-1.06,1.37-2.29,2.26-3.4a45.17,45.17,0,0,1,4.62-4.57,54.77,54.77,0,0,0,4.47-4.84c1.39-1.71,3.14-3.12,4.62-4.71,4.46-4.83,7.77-10.68,11.11-16.76,1-1.93,2.28-3.91,3.3-6,.48-1,.82-2.17,1.32-3.28.75-1.68,2.91-5.56,3.52-7.35.3-.87.47-1.42.57-1.83h5.15a3.13,3.13,0,1,0,0-6.26Zm-19.37,8.43c.17,1.17-.15,2,.16,3.4.6,2.89-2.31,5.49-3.82,7.49-1.91,2.52-3.35,4.95-5.41,6.68-1.33,1.1-2.93,2-4.35,3.13s-2.88,2-4.34,3a34.48,34.48,0,0,0-7.78,7.05c-2,2.47-5.11,4.34-8.18,6.66-1.44,1.1-2.59,2.27-4,3.53-1.2,1.12-2.84,2.94-4,3.39a24.07,24.07,0,0,1-3.28.64c-4.11,1.06-9,2.81-11.7,5.47-1.56,1.49-3.41,4.22-6.6,3.92a6.3,6.3,0,0,1-2.87-1.46c.06-1.14-.31-1.82,0-2.76s2.22-1.56,2.9-3a10.8,10.8,0,0,0,.94-5.52c-.08-1-.64-1.89-.77-3-.38-3.34.6-7.26-.23-10.24-1.4-5-7-8-12.54-8.43v-.07h-1.75v.07c-5.55.45-11.14,3.43-12.54,8.43-.83,3,.15,6.9-.23,10.24-.13,1.14-.69,2-.77,3a10.8,10.8,0,0,0,.94,5.52c.68,1.44,2.53,1.92,2.9,3s0,1.62,0,2.76a6.3,6.3,0,0,1-2.87,1.46c-3.19.31-5-2.42-6.6-3.92-2.74-2.65-7.59-4.41-11.7-5.47a24.08,24.08,0,0,1-3.28-.64c-1.12-.46-2.76-2.27-4-3.39-1.37-1.26-2.52-2.43-4-3.53-3.07-2.32-6.14-4.19-8.18-6.66a34.48,34.48,0,0,0-7.78-7.05c-1.46-1-3-1.88-4.34-3s-3-2-4.35-3.13c-2.07-1.73-3.5-4.15-5.41-6.68-1.52-2-4.43-4.6-3.82-7.49.3-1.36,0-2.23.16-3.4a6.05,6.05,0,0,1,1.07-2.17H293.72A6.05,6.05,0,0,1,294.79,289.44Z" transform="translate(-91.25 -249.68)"/></svg>