<svg id="Layer_1" data-name="Layer 1" xmlns="http://www.w3.org/2000/svg" viewBox="0 0 359.08 192.82"><defs><style>.cls-1{fill:#fff;}.cls-2{fill:#ed1c24;}</style></defs><title>FMS_System_4Color_WHITE_RED</title><path class="cls-1" d="M558.48,287.63c-3.44,0-6.13,2.41-6.13,5.47s2.81,5.66,6.27,5.66a5.92,5.92,0,0,0,6.13-5.66C564.75,290,562,287.63,558.48,287.63Z" transform="translate(-218.11 -209.32)"/><rect class="cls-2" width="192.81" height="192.82"/><polygon class="cls-1" points="57.29 58.16 57.29 40.43 17 40.43 17 152.39 36.81 152.39 36.81 104.38 56.05 104.38 56.05 86.37 36.81 86.37 36.81 58.16 57.29 58.16"/><polygon class="cls-1" points="109.65 40.43 93.99 78.88 78.58 40.43 62.76 40.43 62.76 152.39 82.15 152.39 82.15 116.11 89.08 142.43 98.3 142.43 105.65 115.14 105.65 152.39 125.05 152.39 125.05 40.43 109.65 40.43"/><path class="cls-1" d="M393.91,282.64V261.72c0-7-4.7-12-11.42-12H360.07a11.58,11.58,0,0,0-11.42,11.71V284c0,3.49,1.61,6.27,3.19,8.71l22,31.44V344h-5.39V325.07h-19.8v24.8a11.38,11.38,0,0,0,11.42,11.84h22.41c6.51,0,11.42-5.15,11.42-12V322.2c0-4.12-2.26-7.67-4.17-10.66l-21-29.63V267.47h5.38v15.16Z" transform="translate(-218.11 -209.32)"/><path class="cls-1" d="M381.29,286.54h4.9v1.26h-1.65v5.1h-1.59v-5.1h-1.66Z" transform="translate(-218.11 -209.32)"/><path class="cls-1" d="M393.92,286.55v6.35H392.4l.1-4.53,0-.64-.05.23c-.08.36-.09.4-.16.67l-1.2,4.27h-1.37l-1.15-4.09-.28-1.14c0,.51,0,.61.06,1.22l.08,4H386.9v-6.35h2.32l1,3.56.23,1c.09-.44.1-.49.17-.78l1-3.8Z" transform="translate(-218.11 -209.32)"/><path class="cls-1" d="M426.17,221.14v25h8.22V222.71c3.09-2.33,5.32-3.29,7.55-3.29a3.28,3.28,0,0,1,2.54.75c.43.48.61,1.32.61,2.92v23h8.5V223.19c3.13-2.47,5.31-3.95,7.9-3.95,2.19,0,3.08.87,3.08,3v23.88h8.57V221.75c0-5.61-4.34-9.68-10.31-9.68a18.53,18.53,0,0,0-10.91,4.25,10.51,10.51,0,0,0-8.64-4.25A17.47,17.47,0,0,0,434,215.4a14.3,14.3,0,0,0-1-2.5l-.51-1-8.42,1.73,1,1.75A12.25,12.25,0,0,1,426.17,221.14Z" transform="translate(-218.11 -209.32)"/><path class="cls-1" d="M493.82,246.92c10.25,0,16.62-6.49,16.62-16.94,0-5.26-1.14-9.14-3.58-12.19-3.08-3.82-7.67-5.84-13.25-5.84-10.16,0-16.47,6.65-16.47,17.36C477.14,240.34,483.37,246.92,493.82,246.92Zm-6.27-25.58c.91-1.52,3.38-2.59,6-2.59,2.17,0,5,.83,6.24,3.16,1,1.75,1.44,4.42,1.44,8.43a14.24,14.24,0,0,1-1,6c-1,2.37-3.22,3.67-6.31,3.67-2.56,0-5-1-6-2.44-1.17-1.64-1.93-5.21-1.93-9.1C486.06,225.32,486.53,223,487.55,221.34Z" transform="translate(-218.11 -209.32)"/><path class="cls-1" d="M531.86,246.43l14.51-33.58h-9.08l-8.44,21.09c-.15.37-.29.73-.43,1.08-.13-.37-.27-.74-.42-1.12l-8.26-21h-9.27l14,33.58Z" transform="translate(-218.11 -209.32)"/><path class="cls-1" d="M577.19,229.59c-.13-6.95-.82-10.6-4.53-13.86a16.89,16.89,0,0,0-22.12,1c-3.27,3.35-4.67,7.08-4.67,12.48,0,10.86,6.56,17.61,17.11,17.61a20.8,20.8,0,0,0,12.8-4.09l1.08-.85-3.79-5.44-1.21,1a11.88,11.88,0,0,1-7.75,2.56c-2.4,0-5.66-.55-7.63-3.15-.84-1.11-1.26-2.68-1.33-5h22Zm-15.34-10.9c2.23,0,4.28.82,5.2,2.09a8.46,8.46,0,0,1,1.29,4.46H555.28C555.85,220.84,558,218.69,561.85,218.69Z" transform="translate(-218.11 -209.32)"/><path class="cls-1" d="M441.32,298.15l7-21.17,7,21.17h7.56l10.94-33.52h-8.92L459,285.7l-6.43-21.07h-8.16L438,285.15l-.05-.19-5.69-20.34h-9L434,298.15Z" transform="translate(-218.11 -209.32)"/><path class="cls-1" d="M492.05,298.58a20.79,20.79,0,0,0,12.8-4.09l1.08-.84-3.79-5.44-1.21,1a11.9,11.9,0,0,1-7.75,2.56c-2.4,0-5.66-.55-7.63-3.15-.84-1.11-1.25-2.68-1.32-5h22v-2.15c-.13-6.95-.82-10.6-4.53-13.86a16.89,16.89,0,0,0-22.12,1c-3.27,3.35-4.66,7.08-4.66,12.47C474.94,291.83,481.5,298.58,492.05,298.58Zm-1.13-28.11c2.23,0,4.28.82,5.2,2.09a8.45,8.45,0,0,1,1.29,4.46H484.35C484.92,272.62,487.07,270.47,490.92,270.47Z" transform="translate(-218.11 -209.32)"/><path class="cls-1" d="M520,255.18l-.41-1.14-8.45,1.4.61,1.65a18.4,18.4,0,0,1,.76,5.71v28.65c0,2.57.72,4.32,2.24,5.46a7.92,7.92,0,0,0,5.09,1.6,9.3,9.3,0,0,0,4.07-.77l1.33-.51-2.07-5.67-1.26.31s-.26.07-.37.08h-.38a4.71,4.71,0,0,1-.15-1.58v-27.5A24.48,24.48,0,0,0,520,255.18Z" transform="translate(-218.11 -209.32)"/><path class="cls-1" d="M541,291.87a3.65,3.65,0,0,1-.37.08h-.38a4.64,4.64,0,0,1-.15-1.58v-27.5a24.44,24.44,0,0,0-1-7.68l-.41-1.14-8.45,1.4.61,1.65a18.29,18.29,0,0,1,.76,5.71v28.65c0,2.57.72,4.32,2.24,5.46a7.92,7.92,0,0,0,5.09,1.6,9.31,9.31,0,0,0,4.07-.77l1.33-.51-2.07-5.67Z" transform="translate(-218.11 -209.32)"/><path class="cls-2" d="M473.15,347.92V323.55c0-5.61-4.34-9.68-10.31-9.68a18.54,18.54,0,0,0-10.91,4.25,10.49,10.49,0,0,0-8.64-4.25A17.46,17.46,0,0,0,434,317.2a14.23,14.23,0,0,0-1-2.5l-.51-.95-8.42,1.73,1,1.75a12.25,12.25,0,0,1,1.07,5.71v25h8.22V324.51c3.09-2.33,5.32-3.29,7.55-3.29a3.28,3.28,0,0,1,2.54.75c.43.48.61,1.32.61,2.93v23h8.5V325c3.13-2.47,5.31-3.95,7.9-3.95,2.19,0,3.08.87,3.08,3v23.88Z" transform="translate(-218.11 -209.32)"/><path class="cls-2" d="M493.61,313.74c-10.16,0-16.47,6.66-16.47,17.36,0,11,6.23,17.61,16.68,17.61,10.25,0,16.62-6.49,16.62-16.94,0-5.26-1.14-9.13-3.58-12.19C503.77,315.76,499.19,313.74,493.61,313.74Zm-6.06,9.39c.91-1.52,3.38-2.58,6-2.58,2.17,0,5,.83,6.24,3.16,1,1.74,1.44,4.42,1.44,8.43a14.24,14.24,0,0,1-1,6c-1,2.37-3.22,3.67-6.31,3.67-2.56,0-5-1-6-2.44-1.17-1.64-1.93-5.21-1.93-9.09C486.06,327.12,486.53,324.84,487.55,323.13Z" transform="translate(-218.11 -209.32)"/><path class="cls-2" d="M531.15,348.22l14.5-33.56h-9.07l-8.44,21.06-.43,1.08c-.13-.37-.27-.74-.42-1.11l-8.25-21h-9.21l13.94,33.56Z" transform="translate(-218.11 -209.32)"/><path class="cls-2" d="M572,317.52a16.9,16.9,0,0,0-22.12,1c-3.27,3.35-4.66,7.08-4.66,12.48,0,10.86,6.56,17.6,17.11,17.6a20.8,20.8,0,0,0,12.8-4.08l1.08-.84-3.79-5.44-1.21.95a11.92,11.92,0,0,1-7.75,2.56c-2.4,0-5.67-.55-7.63-3.15-.84-1.1-1.26-2.68-1.33-5h22v-2.15C576.35,324.43,575.66,320.79,572,317.52Zm-10.81,3c2.23,0,4.28.82,5.2,2.08a8.51,8.51,0,0,1,1.28,4.46H554.58C555.14,322.63,557.3,320.49,561.15,320.49Z" transform="translate(-218.11 -209.32)"/><path class="cls-2" d="M440.24,366.6c-10.16,0-16.47,6.65-16.47,17.37,0,11,6.24,17.6,16.69,17.6,10.25,0,16.61-6.49,16.61-16.93,0-5.27-1.14-9.14-3.58-12.19C450.4,368.62,445.82,366.6,440.24,366.6ZM434.19,376c.91-1.53,3.37-2.59,6-2.59,2.17,0,4.95.83,6.24,3.16,1,1.75,1.44,4.43,1.44,8.43a14.24,14.24,0,0,1-1,6c-1,2.37-3.22,3.67-6.31,3.67-2.56,0-5-1-6-2.44-1.17-1.64-1.93-5.21-1.93-9.09C432.69,380,433.17,377.69,434.19,376Z" transform="translate(-218.11 -209.32)"/><path class="cls-2" d="M470.91,364.27c0-3.51,1.92-3.91,3.37-3.91a11.41,11.41,0,0,1,4.59,1.25l1.19.6,3.54-5.77-1.31-.74a17.41,17.41,0,0,0-8.51-2,12.28,12.28,0,0,0-7,1.82,9.57,9.57,0,0,0-4.55,8.65v3.3h-3.4V374h3.4v26.76h8.71V374h7.22l3.08-6.49H470.91Z" transform="translate(-218.11 -209.32)"/><path class="cls-2" d="M502.86,394.7a6.65,6.65,0,0,1-2.9.49c-2.62,0-3.08-.45-3.08-3.05V374h6.84l3.08-6.49h-9.67c.13-3.49.66-7.07.67-7.12l.3-2-8.86,1.67-.12,1.06c0,.17-.43,3.56-.55,6.41h-3l-3,6.49h6v19.39c0,2.4.45,5.77,4.31,7.39a13.26,13.26,0,0,0,5.15,1,16.37,16.37,0,0,0,6.83-1.35l1.11-.5-1.5-5.87Z" transform="translate(-218.11 -209.32)"/><path class="cls-2" d="M533.24,370.38a16.9,16.9,0,0,0-22.13,1c-3.27,3.35-4.67,7.08-4.67,12.48,0,10.86,6.56,17.61,17.11,17.61a20.79,20.79,0,0,0,12.8-4.09l1.08-.85-3.79-5.43-1.2.95a11.92,11.92,0,0,1-7.75,2.56c-2.39,0-5.66-.55-7.63-3.15-.84-1.11-1.25-2.68-1.32-5h22v-2.15C537.63,377.29,536.94,373.64,533.24,370.38Zm-10.81,3c2.23,0,4.28.82,5.2,2.08a8.5,8.5,0,0,1,1.28,4.46H515.85C516.42,375.49,518.58,373.35,522.43,373.35Z" transform="translate(-218.11 -209.32)"/><path class="cls-2" d="M560.58,366.85a17.34,17.34,0,0,0-10,3.46,12.71,12.71,0,0,0-1.09-2.79l-.54-1-8.4,2,1.06,1.71a11.6,11.6,0,0,1,1.12,5.63v24.86H551v-23.4c2.37-1.93,6-3.48,8.33-3.48a4.32,4.32,0,0,1,2.85.83c.58.61.88.91.88,4.06v22h8.5v-24.5a9.22,9.22,0,0,0-1-4.21C568.83,368.9,564.93,366.85,560.58,366.85Z" transform="translate(-218.11 -209.32)"/></svg>