<svg id="Layer_1" data-name="Layer 1" xmlns="http://www.w3.org/2000/svg" viewBox="0 0 115.23 155.51"><defs><style>.cls-1,.cls-3{fill:#eb5858;}.cls-2{fill:none;}.cls-2,.cls-3{stroke:#fff;stroke-linecap:round;stroke-miterlimit:10;}</style></defs><title>horizontal_adduction_clearing_left</title><path class="cls-1" d="M553.11,452.86s-6.25-27.76-6.25-41.51,8.88-28.43,11.25-47.53c2.88-24.22-7.75-28-11.25-28.22a22.38,22.38,0,0,0-12,2.25l-2.5-.25v-3.75s2.75-4.37,3-6.75c4.75-1.62,5.13-7.25,4.25-8.75s-2.75,0-2.75,0,2-21-12.25-21-14,19.5-14,19.5-1.17-2.25-2.25-.5c-1.87,2.63,2.25,10.25,2.25,10.25a27.14,27.14,0,0,0,1,6.75c-5.25-2.25-24.92-4.69-27.25-5s-5.25-2.12-13.25-1.75-9.62-1.25-12-1-5.75,4.25-5.75,4.25-1.37-1.62-2.5-1.25-.87,3.25-.87,3.25-5.87,5.13-6.5,6.75,1.5,1.75,1.5,1.75-1,1.13.25,1.63,4.13-2,4.13-2l6.13-4.62s-1.87,1.38-1.87,3,2.38.5,2.38.5a33.58,33.58,0,0,1,3.88-2.75c4.13,3,9.88,1.63,9.88,1.63s4.5-.25,5.5-1.37c6.63,4,25.56,13.88,25.56,13.88s-9.31.88-12.44,1.63c-11.62,1.63-11.91,12.39-11.75,13.88a46.54,46.54,0,0,0,1.25,11.5s-1,6.13-.5,9.5a14.88,14.88,0,0,0,2.63,6.13s2.25,9,9.13,11.38c1.63.63,4-.25,4-.25a69.93,69.93,0,0,1,.63,9.75c-.12,4.38-7,39.14-7,39.14Z" transform="translate(-443.37 -297.35)"/><path class="cls-2" d="M511.61,333.35l20.75,4.25,2.5.25,1.36-.62s5.44-1.51,9.14,5.87c8.38,18.25-3.87,17.38-3.87,17.38l-18.87-5.87-21.81-4.37" transform="translate(-443.37 -297.35)"/><path class="cls-3" d="M483.36,384.72c3.11-3.85,15.42-15,17.44-19.62l4.69-8.75s-3.31-5.33-4-8-2.46-8.67-1.25-9.37c2.63-.71,4.7,1.85,5.25,3.5a23.13,23.13,0,0,1,1.13,3.38c.17,1.07,2.83-1.33,3.88-2.62s1.54-9.12,2.75-9.87,2.79.5,2.79.5.83-1.67,2-1.25,1.11,2.29,1.11,2.29a1.49,1.49,0,0,1,1.31-.71c1.5.42,1.67,2.67,1.67,2.67s.23-.42,1.33-.08,1.67,1.67,2,3.33c.42,2.58-.5,6.08-.5,7.42s-1.28,5.76-2.33,7.08-4,4.36-4.67,5.88l-2.42,6s-8.24,21.92-13.83,28.08a45,45,0,0,1-8.58,9.46" transform="translate(-443.37 -297.35)"/><path class="cls-2" d="M491.77,363.82c2.92,2,4.06,7.84,4.06,7.84" transform="translate(-443.37 -297.35)"/></svg>