<svg id="Layer_1" data-name="Layer 1" xmlns="http://www.w3.org/2000/svg" viewBox="0 0 115.23 155.51"><defs><style>.cls-1,.cls-3{fill:#eb5858;}.cls-2{fill:none;}.cls-2,.cls-3{stroke:#fff;stroke-linecap:round;stroke-miterlimit:10;}</style></defs><title>horizontal_adduction_clearing_right</title><path class="cls-1" d="M448.85,452.86s6.25-27.76,6.25-41.51-8.87-28.43-11.25-47.53c-2.87-24.22,7.75-28,11.25-28.22a22.38,22.38,0,0,1,12,2.25l2.5-.25v-3.75s-2.75-4.37-3-6.75c-4.75-1.62-5.12-7.25-4.25-8.75s2.75,0,2.75,0-2-21,12.25-21,14,19.5,14,19.5,1.17-2.25,2.25-.5c1.88,2.63-2.25,10.25-2.25,10.25a27.14,27.14,0,0,1-1,6.75c5.25-2.25,24.92-4.69,27.25-5s5.25-2.12,13.25-1.75,9.63-1.25,12-1,5.75,4.25,5.75,4.25,1.38-1.62,2.5-1.25.88,3.25.88,3.25,5.88,5.13,6.5,6.75-1.5,1.75-1.5,1.75,1,1.13-.25,1.63-4.12-2-4.12-2l-6.12-4.62s1.88,1.38,1.88,3-2.37.5-2.37.5a33.58,33.58,0,0,0-3.87-2.75c-4.12,3-9.87,1.63-9.87,1.63s-4.5-.25-5.5-1.37c-6.62,4-25.56,13.88-25.56,13.88s9.31.88,12.44,1.63c11.63,1.63,11.91,12.39,11.75,13.88a46.54,46.54,0,0,1-1.25,11.5s1,6.13.5,9.5a14.88,14.88,0,0,1-2.62,6.13s-2.25,9-9.12,11.38c-1.62.63-4-.25-4-.25a69.93,69.93,0,0,0-.62,9.75c.13,4.38,7,39.14,7,39.14Z" transform="translate(-443.37 -297.35)"/><path class="cls-2" d="M490.35,333.35,469.6,337.6l-2.5.25-1.36-.62s-5.44-1.51-9.14,5.87c-8.37,18.25,3.88,17.38,3.88,17.38l18.88-5.87,21.81-4.37" transform="translate(-443.37 -297.35)"/><path class="cls-3" d="M518.6,384.72c-3.11-3.85-15.42-15-17.44-19.62l-4.69-8.75s3.31-5.33,4-8,2.46-8.67,1.25-9.37c-2.62-.71-4.7,1.85-5.25,3.5a23.13,23.13,0,0,0-1.12,3.38c-.17,1.07-2.83-1.33-3.87-2.62s-1.54-9.12-2.75-9.87-2.79.5-2.79.5-.83-1.67-2-1.25-1.11,2.29-1.11,2.29a1.49,1.49,0,0,0-1.31-.71c-1.5.42-1.67,2.67-1.67,2.67s-.23-.42-1.33-.08-1.67,1.67-2,3.33c-.42,2.58.5,6.08.5,7.42s1.28,5.76,2.33,7.08,4,4.36,4.67,5.88l2.42,6s8.24,21.92,13.83,28.08a45,45,0,0,0,8.58,9.46" transform="translate(-443.37 -297.35)"/><path class="cls-2" d="M510.19,363.82c-2.92,2-4.06,7.84-4.06,7.84" transform="translate(-443.37 -297.35)"/></svg>