<svg id="Layer_2" data-name="Layer 2" xmlns="http://www.w3.org/2000/svg" viewBox="0 0 141 314.72"><defs><style>.cls-1{fill:#eb5858;}</style></defs><title>hurdle_step-frontLeft</title><path class="cls-1" d="M545.13,444.5a2.07,2.07,0,0,1,.28-.5H558V358.38c0,1.5-1.87,7-1.87,7s-.11.22-.28.63h-9l.8-3.87a63.53,63.53,0,0,0,3.75-9.5,66.72,66.72,0,0,0,1.38-7.75l1.38-.87,1.13.13.25,1.63,1.88,8.75a19.83,19.83,0,0,1,.63,3.88V137.65l-2.4.12s-7.47-.22-11.3,8.11c-2,4.08-1.53,10.56-1.28,11.47s.59,2.11.59,2.11-1.56-.78-2.39-.49-1.15,1.78-.49,2.86,2.34,7.08,3.26,7.66c.69.44.77.22.76.08l.74,5.42a16.71,16.71,0,0,1,0,5,4,4,0,0,1-.28,1H506.89c-.16-.49-.31-.88-.39-1.08-.25-.67-2-1.33-2-1.33s-1-2.29-1.67-2.33-1,.58-1.25,1.25a1.21,1.21,0,0,0,.08,1.17l-1.08-.08a16.1,16.1,0,0,0-1.75-.25,3.65,3.65,0,0,0-1.5.33,9.75,9.75,0,0,0-1.92-.17,2.72,2.72,0,0,0-1.42.5,6.68,6.68,0,0,0-2-.17c-.75.13-1.29,1.17-1.29,1.17s-.12.4-.29,1H453v4h36.47a18.85,18.85,0,0,0,0,4.88,12.07,12.07,0,0,0,1,2.73l-.17,11.86s-.12,10.06.42,14.52c.75,6.92,4.75,19,4.75,19a19.74,19.74,0,0,0,.42,2.84c.5,2.21,2.88,2.71,3.58,2.84,3.29.13,13.5-4.75,13.5-4.75a2.17,2.17,0,0,0,1.17.42c.63,0,7.17-6.08,7.17-6.08l4.58-4.75s1.36,25,1.5,29.58l.42,13.33a13.59,13.59,0,0,1,.17,1.92c0,.92-.48.77-.58,1.75a4.69,4.69,0,0,0,.5,2.17,5,5,0,0,0-2,2.75c-.79,2.13-2.75,15.67-2.75,15.67s-1.31,6.44-1.08,8.67a9.65,9.65,0,0,0,1.67,4.17s1.75,19.58,2.13,23.25,2,6.75,2.63,9.5a22.76,22.76,0,0,1,0,6.75,1.43,1.43,0,0,0,.63,1.38s.19,5.13.25,8.25A39.23,39.23,0,0,1,528,366H479V333h-4v86H420l-3,1.5V444H528.51c.88.85,1.33,1,1.74,1.75a3.17,3.17,0,0,1-.12,2.5,3.43,3.43,0,0,0,.38,2.88,11.79,11.79,0,0,0,5,1.25,46.28,46.28,0,0,0,7.75-.75c1.44-.31,1.94-.56,2.38-1.12a3.2,3.2,0,0,0,.25-1.87S544.88,445.31,545.13,444.5ZM479,419V367h48.64a27.68,27.68,0,0,0-2.39,10.63c.06,5.56,2,16.75,2,16.75s3.75,20.94,4.25,23.38a10.34,10.34,0,0,1,.16,1.25Zm63.17-233.79c-1.33,1.33-8.5,4.56-8.5,4.56s-10.5,3.73-13,5.9-6.58,9.25-7.5,11-5.33,7-6,7.83-.33,1.67-.83,3.17-5-16.92-5.17-23.67c.08-1.58,3.25-4.46,4.33-5.46a8.66,8.66,0,0,0,2-3.54h34.78S542.19,185.18,542.17,185.21ZM542.38,419a9.89,9.89,0,0,1,0-2A78.22,78.22,0,0,1,544,404.5s3-10.62,3.38-17.25-1.25-17.87-1.25-17.87l.49-2.37h8.83a26.08,26.08,0,0,0-1.45,6c-.5,4.38.25,6.56.5,9s-.37,11-.37,11a71.63,71.63,0,0,1-.12,8.75c-.37,2.06-2.75,6.63-2.75,6.63l-1.62,3.75s-.75,2.38-1.37,3.75a8.76,8.76,0,0,0-.62,3.13Z" transform="translate(-417 -137.65)"/></svg>