<svg id="Layer_1" data-name="Layer 1" xmlns="http://www.w3.org/2000/svg" viewBox="0 0 194.44 434.2"><defs><style>.cls-1{fill:#eb2227;}</style></defs><title>hurdle-step</title><path class="cls-1" d="M335.21,140.15c-2.46-20.63-9.66-30.26-26.59-35.51-14.27-4.43-19.47-9.86-19.89-20.75,0-.08,0-.15,0-.23.42-.65.83-1.31,1.23-2a57.48,57.48,0,0,0,6.86-27.53c0-19.21-10.4-32.11-25.88-32.11S245,34.9,245,54.11a55.14,55.14,0,0,0,7.36,27.6c.22.37.45.72.67,1.07,0,.43,0,.82,0,1.11-.42,10.89-5.62,16.32-19.89,20.75-16.93,5.25-24.13,14.88-26.59,35.51-2.25,18.92-1.2,52.42,4.36,58a8.56,8.56,0,0,0,6.21,2.51c3.35,0,7.13-1.65,10.66-4.84a30.08,30.08,0,0,1,4.27-3.28c.84,13.54-.73,27.52-6.28,31.56-4.22,3.07-10.68,4.21-18.85,5.65-11.2,2-25.14,4.43-40.84,13.15-19.25,10.7-23.35,23.42-24.08,30.06-.82,7.41,1.63,14.44,6.55,18.81,2.92,2.59,10.09,5.71,38.54,2.87,19.82-2,38.93-5.75,41-6.17,7.81-1.56,13.66-1.11,16.93,1.31,2,1.5,3.17,3.8,3.5,7a83.65,83.65,0,0,0,3.39,15,6,6,0,0,0,1.63,2.65c-.3,1.47-2.86,14.94-1.34,24.64a34.08,34.08,0,0,1,0,10.18c-2.26,15.49-2.61,48.38-2.67,58.09a8.84,8.84,0,0,1-1.16,4.32,18.9,18.9,0,0,0-2.44,11l2.18,26.9a7.22,7.22,0,0,0,7.18,6.63,7.27,7.27,0,0,0,2.06-.3l7.6-2.25a16.44,16.44,0,0,0,10.47-22.16L272.72,425a15.71,15.71,0,0,1-.8-9.9c1.14-4.68,2.41-9.55,3.76-14.71,5.25-20.09,11.19-42.85,11.33-63.12a51,51,0,0,1,3.48-18c9.21-23.93,19.08-66.1,19.08-90.72,0-15.4-.84-28.32-1.64-37.05.26.16.53.33.79.47a28.15,28.15,0,0,1,5.26,3.87c3.53,3.2,7.31,4.84,10.66,4.84a8.56,8.56,0,0,0,6.21-2.51C336.41,192.57,337.47,159.07,335.21,140.15ZM251,54.11C251,38.25,258.83,28,270.91,28s19.88,10.25,19.88,26.11c0,18.26-9.25,34.89-19.41,34.89C260.92,89,251,72,251,54.11Zm17.59,90.52c.5-.76,2.29-2.84,2.29-2.84s1.82,2.13,2.34,2.91c.31.47.61,1.14,1,1.91,4.23,7.72,16,28.29,27.1,39.44.74,6.73,1.81,18.73,2.12,33.95-24.09,3.49-57.08-8.47-65.6-11.79a108.78,108.78,0,0,0-.08-19.69c11.81-10.25,25.12-33.48,29.74-41.91C268,145.81,268.3,145.11,268.62,144.63Zm-20,140.3c-4.74-3.5-12-4.3-21.68-2.37-26.24,5.25-68,10.37-74.42,4.7-3.47-3.08-5.17-8.19-4.57-13.67s4.14-16.08,21-25.47c13.1-7.27,25.07-10,35.1-11.8,10.62,6.57,26.93,20.14,34.68,26.73-8.83.92-42,4.9-61.94,14.66a3,3,0,0,0,2.64,5.39c17.34-8.51,46.57-12.39,57.59-13.82a55.15,55.15,0,0,0,9-1.9l13.5-4.45a3.45,3.45,0,0,1,4.49,3.78l-6.31,43.37h-.06a78,78,0,0,1-3.16-13.9C254.07,291.25,252.08,287.46,248.66,284.93Zm36.24,32.13A57,57,0,0,0,281,337.2c-.13,19.51-6,41.89-11.14,61.64-1.35,5.18-2.63,10.08-3.78,14.81a21.67,21.67,0,0,0,1.1,13.66l2.76,6.51a10.44,10.44,0,0,1-6.65,14.07l-7.6,2.25a1.21,1.21,0,0,1-1.55-1.07L252,422.18a12.93,12.93,0,0,1,1.67-7.49,14.85,14.85,0,0,0,2-7.27c.06-9.61.41-42.16,2.61-57.26a40.1,40.1,0,0,0,0-12c-1.31-8.33.92-20.57,1.26-22.36a5.88,5.88,0,0,0,4.22-4.88l3.81-26a131.69,131.69,0,0,0,26.25,3.91A278.27,278.27,0,0,1,284.9,317.06Zm10.36-34.18a126.42,126.42,0,0,1-26.89-3.94L270,267.58a9.45,9.45,0,0,0-12.3-10.34l-11.91,3.92c-4.63-4-20.55-17.62-33.14-26.38,6.6-1.25,12.31-2.7,16.65-5.86,4.1-3,6.4-8.49,7.65-14.63,9.14,3.51,34.35,12.33,57,12.33a73.52,73.52,0,0,0,9.57-.6c0,.82,0,1.64,0,2.47C303.58,242.69,300,263.53,295.26,282.88Zm31.35-89c-1.79,1.79-5.77,0-8.6-2.53a34.09,34.09,0,0,0-6.39-4.68c-10.23-5.65-25.62-30.82-33.1-44.8a6.37,6.37,0,0,0-.66-1l-4-4.93v-20.7a175,175,0,0,1,5.23,17.32,11.65,11.65,0,0,0,5.34,7.39c20.09,12.1,38.8,33.78,39,34A3,3,0,0,0,328,170a214,214,0,0,0-15.44-15.86c-1.3-8.8,1.57-22.42,1.6-22.56a3,3,0,0,0-5.87-1.26,102.27,102.27,0,0,0-2.06,18.17,142.44,142.44,0,0,0-18.67-13.72,5.55,5.55,0,0,1-2.58-3.57c-2.76-12.3-10.95-33-11.3-33.86a3,3,0,0,0-5.56,0l0,0c-.35.87-8.54,21.56-11.3,33.86a5.54,5.54,0,0,1-2.58,3.56,142.47,142.47,0,0,0-18.67,13.72,102.22,102.22,0,0,0-2.06-18.17,3,3,0,1,0-5.87,1.26c0,.14,2.9,13.74,1.6,22.56A214.53,214.53,0,0,0,213.8,170a3,3,0,1,0,4.56,3.9c.19-.22,18.87-21.89,39-34a11.65,11.65,0,0,0,5.34-7.39,175.22,175.22,0,0,1,5.23-17.32v20.7l-4,4.92a6.34,6.34,0,0,0-.66,1c-7.48,14-22.87,39.16-33.1,44.8a34.06,34.06,0,0,0-6.38,4.68c-2.83,2.57-6.81,4.33-8.58,2.55-2.22-2.6-5.56-28.65-2.66-53,2.45-20.54,9.76-26.57,22.41-30.49,10.77-3.34,20.89-8.28,23.49-21C262.39,93,266.8,95,271.37,95a18,18,0,0,0,12-5c1.66,7.83,7,15.28,23.43,20.39,12.65,3.93,20,9.95,22.41,30.49C332.16,165.25,328.82,191.3,326.61,193.88Z" transform="translate(-141.88 -22)"/></svg>