<?xml version="1.0" encoding="utf-8"?>
<!-- Generator: Adobe Illustrator 20.1.0, SVG Export Plug-In . SVG Version: 6.00 Build 0)  -->
<svg version="1.1" id="Layer_2" xmlns="http://www.w3.org/2000/svg" xmlns:xlink="http://www.w3.org/1999/xlink" x="0px" y="0px"
	 viewBox="0 0 141 314.7" style="enable-background:new 0 0 141 314.7;" xml:space="preserve">
<style type="text/css">
	.st0{fill:#EB5858;}
</style>
<title>hurdle_step-frontLeft</title>
<path class="st0" d="M12.2,311c-0.1,0.6,0,1.3,0.2,1.9c0.4,0.6,0.9,0.8,2.4,1.1c2.6,0.5,5.2,0.7,7.8,0.8c1.7,0,3.4-0.5,5-1.2
	c0.5-0.9,0.7-1.9,0.4-2.9c-0.4-0.8-0.4-1.7-0.1-2.5c0.4-0.8,0.9-0.9,1.7-1.8H141v-23.5l-3-1.5H83v-86h-4v33H30
	c-0.8-2.7-1.2-5.5-1.4-8.3c0.1-3.1,0.2-8.2,0.2-8.2c0.5-0.3,0.7-0.8,0.6-1.4c-0.3-2.2-0.3-4.5,0-6.8c0.6-2.8,2.2-5.8,2.6-9.5
	s2.1-23.2,2.1-23.2c0.9-1.2,1.4-2.7,1.7-4.2c0.2-2.2-1.1-8.7-1.1-8.7s-2-13.5-2.8-15.7c-0.3-1.1-1-2.1-2-2.8
	c0.3-0.7,0.5-1.4,0.5-2.2c-0.1-1-0.6-0.8-0.6-1.8c0-0.6,0.1-1.3,0.2-1.9l0.4-13.3c0.1-4.6,1.5-29.6,1.5-29.6l4.6,4.8
	c0,0,6.5,6.1,7.2,6.1c0.4,0,0.8-0.2,1.2-0.4c0,0,10.2,4.9,13.5,4.8c0.7-0.1,3.1-0.6,3.6-2.8c0.2-0.9,0.3-1.9,0.4-2.8
	c0,0,4-12.1,4.8-19c0.5-4.5,0.4-14.5,0.4-14.5L67.6,55c0.4-0.9,0.8-1.8,1-2.7c0.2-1.6,0.2-3.3,0-4.9H105v-4H67.6
	c-0.2-0.6-0.3-1-0.3-1s-0.5-1-1.3-1.2c-0.7,0-1.3,0-2,0.2c-0.4-0.3-0.9-0.5-1.4-0.5c-0.6,0-1.3,0.1-1.9,0.2c-0.5-0.2-1-0.3-1.5-0.3
	c-0.6,0.1-1.2,0.1-1.8,0.2L56.4,41c0.2-0.4,0.3-0.8,0.1-1.2c-0.2-0.7-0.6-1.3-1.2-1.2s-1.7,2.3-1.7,2.3s-1.8,0.7-2,1.3
	c-0.1,0.2-0.2,0.6-0.4,1.1H12.8c-0.1-0.3-0.2-0.7-0.3-1c-0.3-1.7-0.3-3.3,0-5l0.7-5.4c0,0.1,0.1,0.4,0.8-0.1
	c0.9-0.6,2.6-6.6,3.3-7.7s0.3-2.6-0.5-2.9s-2.4,0.5-2.4,0.5s0.3-1.2,0.6-2.1s0.7-7.4-1.3-11.5C9.9-0.1,2.4,0.1,2.4,0.1L0,0l0,220.8
	c0.1-1.3,0.3-2.6,0.6-3.9l1.9-8.8l0.2-1.6l1.1-0.1l1.4,0.9c0.3,2.6,0.8,5.2,1.4,7.8c1,3.3,2.2,6.4,3.8,9.5l0.8,3.9h-9
	c-0.2-0.4-0.3-0.6-0.3-0.6s-1.9-5.5-1.9-7l0,85.6h12.6c0.1,0.2,0.2,0.3,0.3,0.5C13.2,307.7,12.2,311,12.2,311z M26.4,281.4
	c0-0.4,0.1-0.8,0.2-1.2c0.5-2.4,4.2-23.4,4.2-23.4s1.9-11.2,2-16.8c-0.1-3.7-0.9-7.3-2.4-10.6H79v52L26.4,281.4z M15.8,47.4h34.8
	c0.4,1.3,1.1,2.5,2,3.5c1.1,1,4.2,3.9,4.3,5.5c-0.2,6.8-4.7,25.2-5.2,23.7s-0.2-2.3-0.8-3.2s-5.1-6.1-6-7.8s-5-8.8-7.5-11
	s-13-5.9-13-5.9s-7.2-3.2-8.5-4.6C15.9,47.5,15.8,47.4,15.8,47.4z M10.4,281.4c0-1.1-0.2-2.1-0.6-3.1c-0.6-1.4-1.4-3.8-1.4-3.8
	l-1.6-3.8c0,0-2.4-4.6-2.8-6.6c-0.2-2.9-0.3-5.8-0.1-8.8c0,0-0.6-8.6-0.4-11s1-4.6,0.5-9c-0.2-2.1-0.7-4.1-1.5-6h8.8l0.5,2.4
	c0,0-1.6,11.2-1.2,17.9s3.4,17.2,3.4,17.2c0.9,4.1,1.4,8.3,1.6,12.5c0.1,0.7,0.1,1.3,0,2L10.4,281.4z"/>
</svg>
