<svg id="Layer_2" data-name="Layer 2" xmlns="http://www.w3.org/2000/svg" viewBox="0 0 93.45 300"><defs><style>.cls-1{fill:#eb5858;}</style></defs><title>hurdle-step</title><path class="cls-1" d="M291.43,278.4a1.93,1.93,0,0,0-3.25-1.23c-2.51,2.57-6,3.17-9.42,3a11.53,11.53,0,0,1-1.45-.55,5.41,5.41,0,0,0-1-.52,12.18,12.18,0,0,1-2.42-1.84,28,28,0,0,1-3.25-4.19l0,0a8.1,8.1,0,0,1-2.26-3.89,1.37,1.37,0,0,1-.23-.34,6.81,6.81,0,0,1-.63-4,8.79,8.79,0,0,1,1-3.28,1,1,0,0,0,.09-.26,26.21,26.21,0,0,1,1.5-4,35.82,35.82,0,0,1,3.74-6.82,15.9,15.9,0,0,0,1.56-2.64,39.71,39.71,0,0,1,2.16-3.59l3-4.84a25.28,25.28,0,0,0,1.72-2.76c.71-1.55,1.24-3.18,1.87-4.77.44-1.09.93-2.17,1.41-3.24a14.33,14.33,0,0,0,1.62-3.85,2,2,0,0,1,.12-.35,12.29,12.29,0,0,0,1-5.18,8.74,8.74,0,0,1,0-1.21,7.94,7.94,0,0,0-1.92-5.5,17.57,17.57,0,0,0-2-2.22,7.92,7.92,0,0,0-2.59-1.79c-1.15-.38-2.27-.86-3.45-1.12-.58-.13-1.16-.24-1.75-.35l-1.1-.32a64.38,64.38,0,0,0-7.87-1.7,66.48,66.48,0,0,0-13.87-.69,1.51,1.51,0,0,0-.61,0l-1.62.12a8.63,8.63,0,0,0-2.36-.25.64.64,0,0,1-.71-.69c0-.87-.11-1.74-.11-2.6a39.67,39.67,0,0,0,.06-4.57,27.12,27.12,0,0,1,.13-6.15c.25-2.13-.15-4.22-.14-6.34,0-1-.11-2-.17-3-.1-1.46-.24-2.91-.3-4.37-.05-1.18,0-2.37,0-3.55a32.32,32.32,0,0,0-.8-6.57,37,37,0,0,0-1.36-4.85,35.38,35.38,0,0,0-1.72-4c-1.88-3.83-3.84-7.62-5.69-11.46-.58-1.2-.85-2.54-1.38-3.76a2.62,2.62,0,0,1,.11-2.42,5,5,0,0,1,1.56-2.06,2.58,2.58,0,0,0,.73-1.06,5.3,5.3,0,0,0,.42-1.24,1.19,1.19,0,0,1,1.21-1.05c.8-.07,1.59-.29,2.38-.42a13,13,0,0,1,1.37-.16,2.54,2.54,0,0,0,1.88-.68,3.28,3.28,0,0,0,.87-3.67.67.67,0,0,1,.3-1,1.85,1.85,0,0,0,.87-1.16,1,1,0,0,1,.5-.58,1.14,1.14,0,0,0,.8-1.31,4.27,4.27,0,0,1,0-.56c.09-1.17.23-1.34,1.35-1.7a2.91,2.91,0,0,0,.44-.16,1.48,1.48,0,0,0,.66-2.26,3.9,3.9,0,0,0-.55-.75,7.49,7.49,0,0,1-1.7-3.08,1.33,1.33,0,0,1,.28-1.61,1.23,1.23,0,0,0,.35-1.19,14.77,14.77,0,0,1,0-1.76c0-1.06,0-2.11,0-3.17,0-.4-.06-.81-.09-1.21a1.2,1.2,0,0,1,.13-.71s0-.09,0-.13a6.88,6.88,0,0,1,.08-1.06,7.12,7.12,0,0,1-.08-.91c-.27-.93-.52-1.86-.79-2.76a7.19,7.19,0,0,1-.8-1.34c-.61-.57-1.22-1.14-1.87-1.67A12.12,12.12,0,0,0,245,97.87a43.22,43.22,0,0,0-4.6-1.78,31.1,31.1,0,0,0-3.51-.91c-.76-.16-1.55-.16-2.31-.28A8.47,8.47,0,0,0,231,95c-1,.26-2,.46-3,.74a1.77,1.77,0,0,0-.71.56,1.7,1.7,0,0,1-1.06.7,1,1,0,0,0-.77.6c-.88,1.61-1.8,3.19-2.66,4.8-.44.82-.81,1.68-1.18,2.53a7.29,7.29,0,0,0-.63,1.74c-.17,1.17-.24,2.35-.31,3.53a3.87,3.87,0,0,0,.14,1.2,9.26,9.26,0,0,1,.16,3.25,6.8,6.8,0,0,0,0,1c.07,1.18.18,2.36.23,3.54a12.77,12.77,0,0,0-.1,1.48c.2,1.19-.06,2.44.45,3.6a1.21,1.21,0,0,1,0,.65q-.31,1.84-.65,3.67a1,1,0,0,1-.7.79,13.34,13.34,0,0,0-1.4.74,1,1,0,0,0-.56,1.26c.07.32.2.67-.24,1l-3.14-2.15c-.53-.36-1-.72-.85-1.5.05-.29-.19-.65-.31-1a10.32,10.32,0,0,0-.55-1.28,15.5,15.5,0,0,0-1.05-1.63,4,4,0,0,0-2.17-1.17c-1-.35-2.07-.72-3,.14-.76-.59-1.49-1.11-2.18-1.69s-1.34-1.21-2-1.82a2.75,2.75,0,0,0-4.41,1,3.14,3.14,0,0,0,1.37,3.8,22.55,22.55,0,0,1,2.1,1.39c.67.51.61.85-.12,1.22-.19.1-.41.16-.6.26a1.43,1.43,0,0,0-.8,1.86,17.54,17.54,0,0,0,1.33,2.35c.82,1.17,1.79,2.24,2.57,3.43a8.13,8.13,0,0,1,1.54,2.86c0,.23.25.43.32.67a3.07,3.07,0,0,1-.15,2.94,20.86,20.86,0,0,0-4.11,12c-.08,1.56,0,3.13,0,4.69,0,.91,0,1.82-.08,2.73a47.8,47.8,0,0,0-.19,6.3,72.59,72.59,0,0,1,.21,7.86,55.17,55.17,0,0,1-.91,7.62c-.3,8.47-.89,16.94-.35,25.4l.09.12a16.9,16.9,0,0,0,.22,1.88c.19,1.1.42,2.19.69,3.27l.42,3.37c.08.62.17,1.22.28,1.79a19.19,19.19,0,0,0,.51,2.59c.47,2,1,4,1.54,6.05a6.56,6.56,0,0,0,.27.89c.72,1.72,1.39,3.47,2.2,5.15a19.49,19.49,0,0,0,1.68,2.57c.38.54.8,1.06,1.13,1.63a7.54,7.54,0,0,1,1.35,1.61,12.79,12.79,0,0,1,.66,1.21,1.15,1.15,0,0,1,.56,1.16c0,.06,0,.12,0,.17,1.46,4,1.21,8.66,1.45,12.86.06,1.06.12,2.14.18,3.22a27.77,27.77,0,0,1,.63,3.44q.21.55.39,1.11a20.23,20.23,0,0,1,.85,9.8,14.45,14.45,0,0,1,.4,3.29,24,24,0,0,1-.86,6.26,23.06,23.06,0,0,1-1.71,4.54c-.75,2.44-1.51,4.87-2.07,7.36-.29,1.27-.58,2.54-.83,3.82a14.34,14.34,0,0,0-.36,2.49c0,1.62,0,3.24.11,4.85s.26,3,.49,4.53.67,3.16.9,4.76c.28,2,.46,4,.65,6,.11,1.11.15,2.23.21,3.35.12,2.2.3,4.41.33,6.61,0,1.35,0,2.7-.08,4-.17.41-.33.82-.48,1.24a15.5,15.5,0,0,0-.73,3.26l-.1.11q0,.3,0,.59l0,0a6.31,6.31,0,0,0,0,.84l0,0a20.64,20.64,0,0,1-.34,4.88,12.13,12.13,0,0,1-3,5.7,6.87,6.87,0,0,0-.48,4,1.13,1.13,0,0,0,.79,1c.86.25,1.74.47,2.62.66.48.1,1,.12,1.48.19a38,38,0,0,0,6,.58,21,21,0,0,1,2.24.07,23,23,0,0,0,5.11,0c.76-.11,1.55,0,2.32-.09a12.59,12.59,0,0,1,3.13.4,15.35,15.35,0,0,1,2.25.57,13.74,13.74,0,0,1,2.49,1c.69.4,1.72.71,1.25,1.92a.15.15,0,0,0,0,.09,2.89,2.89,0,0,1-.49,2.4c-.19.32-.36.64-.53,1l-8.13,26.87.06.2,12.26,2.72L270,327.94l-.15,0a13.57,13.57,0,0,0-1.95-.21,3.35,3.35,0,0,1-1.81-.47,12.46,12.46,0,0,0,0-1.89,1.8,1.8,0,0,1-.08-.62,47.81,47.81,0,0,1,.16-4.94h0c.08-.85.18-1.71.26-2.56a5.38,5.38,0,0,0,0-.75.67.67,0,0,0-.6-.72c-.55-.08-1.11-.14-1.66-.2s-.93-.05-1.39-.14a1,1,0,0,1-.89-1,21.07,21.07,0,0,0-.13-2.57c.12-1.83.16-3.67.19-5.5.08-4.61.13-9.21.2-13.82,0-.06,0-.12,0-.19,0-.69.14-.79.83-.85s1.55-.13,2.32-.22l.25,0h.3a19.74,19.74,0,0,0,3.94-.65l1-.18c-.79.14.82-.07,1.09-.09a11.77,11.77,0,0,0,5.08-1.16l.09-.05.22-.06.18-.06.23-.08.32-.12-.18.08a10.23,10.23,0,0,1,1.73-.44l1-.3a9.53,9.53,0,0,0,3.33-1.41,5.68,5.68,0,0,1,.91-.46,15.68,15.68,0,0,0,1.55-.85c.45-.3.87-.65,1.29-1l.2-.13a8.66,8.66,0,0,0,2.59-2.24l.15-.25.33-.44A2.8,2.8,0,0,0,291.43,278.4Zm-33.73,21c-.26,3.52,0,7-.19,10.55-.23,3.71-.06,7.41-.16,11.11,0,1.24-.12,2.48-.19,3.72v0a6.84,6.84,0,0,0-2.18,3l-.32.83,0,.06-.11.25c-.36.82-.75,1.62-1.15,2.42-.73,1.45-1.52,2.86-2.3,4.28a70.32,70.32,0,0,0-3.61,7.27c0-1.39,0-2.78,0-4.17.05-3.23.12-6.47.19-9.7.05-2.52.12-5,.18-7.56.07-3,.12-6,.2-9.05,0-1,.09-2,.2-3a1.74,1.74,0,0,1,.43-.88c.53-.61.57-.82,0-1.38a1.05,1.05,0,0,1-.4-.89c.06-.93.11-1.86.23-2.79a2.31,2.31,0,0,1,.46-.9c1.11-1.62,2.24-3.22,3.34-4.84.86-1.26,1.68-2.54,2.52-3.81a13.08,13.08,0,0,1,.91-1.3,1.43,1.43,0,0,1,.75-.47c1-.19,1.3.05,1.3,1.09C257.73,295.32,257.85,297.36,257.7,299.37Zm4.83-67.29c-.58,1-1.2,2-1.76,3-.32.57-.54,1.18-.81,1.77-.1.22-.23.44-.33.66s-.27.62-.38.94-.27.82-.41,1.23-.21.64-.32,1-.27.68-.37,1a6.36,6.36,0,0,0-.22,1.08,2.27,2.27,0,0,1-.61,1.7.64.64,0,0,0-.2.49,33,33,0,0,1-.17,6.29,14.46,14.46,0,0,1-.42,2.08c-.09.48-.15,1-.22,1.46,0,.09,0,.21,0,.28a4.53,4.53,0,0,0-.45,1.77c-.12.64-.35,1.25-.5,1.88q-1.1,4.87-2.17,9.74-.48,2.19-.91,4.39a1.7,1.7,0,0,1-1,1.43c-.56.23-.78.77-1,1.28a9.58,9.58,0,0,0-.68,3q-.21,1.57-.36,3.15a6.21,6.21,0,0,0,.06.83,12.78,12.78,0,0,1,0,2,3.35,3.35,0,0,0,.18,2.09c.1.18,0,.48,0,.72-.13,1.17-.27,2.34-.39,3.52a.86.86,0,0,0,.67.91,10.62,10.62,0,0,0,1.8.47c.86.12,1.73.15,2.6.22a4,4,0,0,1,.49.12c-2,3-3.91,5.95-6.13,9,0-.49-.1-.75-.09-1q.09-4.95.2-9.9c0-1.93.12-3.86.17-5.78q.1-3.45.18-6.9c0-.22,0-.44,0-.65a.87.87,0,0,0-.71-1,8.44,8.44,0,0,0-3.88-.24c-.74.15-.81.23-.83,1-.07,3.14-.13,6.29-.19,9.43s-.13,6.16-.19,9.24c-.06,2.74-.11,5.48-.19,8.21,0,.87-.1,1.74-.2,2.6a1.69,1.69,0,0,1-.35.73c-.46.64-.45.77,0,1.39a1.9,1.9,0,0,1,.37,1c0,1.87-.1,3.73-.14,5.6,0,1.21,0,2.43,0,3.64s0,2.56,0,3.83c-.05,2.68-.12,5.35-.19,8-.06,2.18-.13,4.35-.18,6.53-.07,2.92-.12,5.85-.2,8.77a15,15,0,0,1-.25,1.71,6.19,6.19,0,0,1-1.11-.09c-.76-.39-1.5-.82-2.22-1.28l-.12-.08-.74-.51-.55-.43-1.35-1.1-2.43-2a24.2,24.2,0,0,1-3.54-3.46l-.21-.27q-.79-1-1.59-2.05a15.43,15.43,0,0,0-1.86-2l-.36-.29a27.37,27.37,0,0,1-.65-6.14c.05-2.27.12-4.54.19-6.81a4,4,0,0,1,0-.46c.36-2.49.64-5,1.13-7.47.23-1.18.54-2.33.69-3.53.12-.91.67-1.75.59-2.72.94-2,.85-4.19,1.32-6.27a20.28,20.28,0,0,0,.31-3.34c.09-1.65.11-3.29.22-4.94a9,9,0,0,1,.36-1.73c.31-1.17.6-2.36,1-3.49a16.91,16.91,0,0,1,1.05-2,8.15,8.15,0,0,0,.36-.94,6.39,6.39,0,0,1,.35-1,15.6,15.6,0,0,0,1.67-4.53,13.08,13.08,0,0,1,1.26-3.6c.29-.54.39-1.18.64-1.74a2.44,2.44,0,0,1,.68-1c2.18-1.6,4.37-3.2,6.6-4.73,1.49-1,3-2,4.59-2.88a1.88,1.88,0,0,0,.93-2.2c-.46-2.73-.82-5.48-1.25-8.21-.16-1-.42-2.07-.62-3.11s-.41-2.14-.6-3.21c-.07-.39-.06-.79-.1-1.32.93.09,1.76.15,2.58.25,1.66.2,3.32.44,5,.63,1.1.13,1.28-.11,1.53-1,.94-3.46,1.93-6.9,2.91-10.35.29-1,.6-2,.92-3a2.07,2.07,0,0,1,1.51-1.51c.36-.09.69-.3,1-.4a2.58,2.58,0,0,1,.67,0A1.83,1.83,0,0,1,262.53,232.08Z" transform="translate(-198.19 -94.75)"/></svg>