<svg id="Layer_1" data-name="Layer 1" xmlns="http://www.w3.org/2000/svg" viewBox="0 0 391.35 129.76"><defs><style>.cls-1{fill:#ed1c24;}.cls-2{fill:#414042;}.cls-3{fill:#fff;}</style></defs><title>injury_risk_rating</title><path class="cls-1" d="M617.84,344.44H624v27.72h-6.18Z" transform="translate(-478.21 -319.18)"/><path class="cls-1" d="M650.23,344.44h6.19v27.72h-6.19L637,354.79v17.37h-6.19V344.44h5.79l13.6,17.84Z" transform="translate(-478.21 -319.18)"/><path class="cls-1" d="M664.27,349.75v-5.31H678.7v18.08q0,5-2.56,7.42a9.1,9.1,0,0,1-6.56,2.45,11.77,11.77,0,0,1-8.72-3.84l3.21-4.44a7.19,7.19,0,0,0,5.23,2.69,2.92,2.92,0,0,0,2.24-1,4.33,4.33,0,0,0,.93-3v-13Z" transform="translate(-478.21 -319.18)"/><path class="cls-1" d="M692.61,365a5.09,5.09,0,0,0,4.17,1.92,5,5,0,0,0,4.14-1.92,8.2,8.2,0,0,0,1.53-5.25V344.44h6.18v15.5q0,6-3.33,9.26a12.86,12.86,0,0,1-17.07,0q-3.35-3.24-3.35-9.24v-15.5h6.19v15.31A8.15,8.15,0,0,0,692.61,365Z" transform="translate(-478.21 -319.18)"/><path class="cls-1" d="M737.54,353.64q0,6.66-5.28,8.6l7,9.92h-7.61l-6.15-8.85h-4.28v8.85h-6.19V344.44h10.51q6.47,0,9.22,2.18T737.54,353.64Zm-7.46,3.29a4.18,4.18,0,0,0,1.15-3.27,3.48,3.48,0,0,0-1.19-3.07,7.54,7.54,0,0,0-4.16-.84h-4.64V358h4.52C727.88,358,729.32,357.62,730.08,356.93Z" transform="translate(-478.21 -319.18)"/><path class="cls-1" d="M755.1,372.16h-6.18v-11l-9.6-16.77H746l6,10.31,6-10.31h6.7l-9.6,16.77Z" transform="translate(-478.21 -319.18)"/><path class="cls-1" d="M800.62,353.64q0,6.66-5.28,8.6l7,9.92h-7.61l-6.15-8.85h-4.28v8.85h-6.18V344.44h10.5q6.47,0,9.22,2.18T800.62,353.64Zm-7.46,3.29a4.18,4.18,0,0,0,1.15-3.27,3.48,3.48,0,0,0-1.19-3.07,7.54,7.54,0,0,0-4.16-.84h-4.64V358h4.52C791,358,792.4,357.62,793.16,356.93Z" transform="translate(-478.21 -319.18)"/><path class="cls-1" d="M807,344.44h6.19v27.72H807Z" transform="translate(-478.21 -319.18)"/><path class="cls-1" d="M826.45,350a2.39,2.39,0,0,0-.9,1.95,2.21,2.21,0,0,0,1.1,1.92,19.75,19.75,0,0,0,5,1.68,14.2,14.2,0,0,1,6.13,2.92,7.19,7.19,0,0,1,2.18,5.67,7.45,7.45,0,0,1-2.8,6,11.1,11.1,0,0,1-7.35,2.32A17,17,0,0,1,818,367.6l3.69-4.52Q826.16,367,830,367a4.34,4.34,0,0,0,2.67-.73,2.35,2.35,0,0,0,1-2,2.31,2.31,0,0,0-1-2,13.45,13.45,0,0,0-4.08-1.48,17.75,17.75,0,0,1-7.08-3q-2.24-1.85-2.24-5.79A7.17,7.17,0,0,1,822,346a11.37,11.37,0,0,1,7.07-2.14,16.87,16.87,0,0,1,5.55.95,14.8,14.8,0,0,1,4.84,2.69L836.34,352a12.23,12.23,0,0,0-7.45-2.73A3.7,3.7,0,0,0,826.45,350Z" transform="translate(-478.21 -319.18)"/><path class="cls-1" d="M845.26,344.44h6.18v11.38l10.47-11.38h7.65l-11,12.25q1.43,2,5.28,7.4t5.74,8.07h-7.21l-8.13-11-2.78,3.1v7.85h-6.18Z" transform="translate(-478.21 -319.18)"/><path d="M640.32,401.22q0,6.66-5.27,8.6l7,9.91h-7.61l-6.14-8.84H624v8.84h-6.18V392h10.5c4.31,0,7.39.73,9.22,2.18S640.32,398,640.32,401.22Zm-7.46,3.29a4.18,4.18,0,0,0,1.15-3.27,3.5,3.5,0,0,0-1.18-3.07,7.61,7.61,0,0,0-4.17-.84H624v8.21h4.52C630.66,405.54,632.1,405.2,632.86,404.51Z" transform="translate(-478.21 -319.18)"/><path d="M666.41,419.73l-2.58-6H652.21l-2.57,6h-6.59L655,392h6l12,27.71ZM658,400.27l-3.49,8.05h6.94Z" transform="translate(-478.21 -319.18)"/><path d="M685.91,397.37v22.36h-6.18V397.37h-7.85V392h21.88v5.35Z" transform="translate(-478.21 -319.18)"/><path d="M698.28,392h6.19v27.71h-6.19Z" transform="translate(-478.21 -319.18)"/><path d="M730.68,392h6.18v27.71h-6.18l-13.21-17.36v17.36h-6.18V392h5.79l13.6,17.84Z" transform="translate(-478.21 -319.18)"/><path d="M761.68,405.62h6.23v9.83q-4.12,4.6-11.42,4.6a14.12,14.12,0,0,1-10.25-4,14.66,14.66,0,0,1,.08-20.5,14,14,0,0,1,10.19-4.12,15.06,15.06,0,0,1,10.37,3.92L763.66,400a12.21,12.21,0,0,0-3.43-2.24,9.16,9.16,0,0,0-3.39-.62,8.1,8.1,0,0,0-5.94,2.4,9.57,9.57,0,0,0-.1,12.61,7.49,7.49,0,0,0,5.53,2.36,10.61,10.61,0,0,0,5.35-1.23Z" transform="translate(-478.21 -319.18)"/><rect class="cls-2" width="129.76" height="129.76"/><path class="cls-3" d="M579.41,342c-3.75-.1-24.67,7.72-24.67,7.72l-3,.75a7,7,0,0,0-1.16.27,5.68,5.68,0,0,0,.09-1.4c-.07-.54-.7-.48-1.31-.28,0-3.19-.66-8.48-5.06-10.2-6.46-2.53-9.86,2.14-9.86,2.14a9.41,9.41,0,0,0-1.56,5.82c.32,3.19.42,4.12.42,4.12s-1.38-.81-1.5.6,1.68,4.26,1.82,4.5,1-.15,1-.15a14,14,0,0,0,1,2.48,2,2,0,0,0,.57.56s1.43,5,1.43,5.53-5.34,4-6.46,4.26a43,43,0,0,0-5.19.77l-.13,0h0a13.54,13.54,0,0,0-7.65,4.81s-7.49,4.4-10.76,10.2-5.34,7.68-3.19,10.49,19.9,8.33,21,9a18.76,18.76,0,0,1,2.94,2.64l3.18,2.91s-3.6,8.74-3.75,17.17a47.88,47.88,0,0,0,32.88.9c-.07-.39-.13-.73-.19-1-1.13-5.34-1.69-8.42-1.69-8.42a36.69,36.69,0,0,0,.42-7.35c-.32-2.39-.28-8.29.75-11s2.53-10.3,3.09-16.1a42.29,42.29,0,0,1,.63-4.31c.09-.43.18-.84.27-1.24v0c.1-.39.2-.78.3-1.14l0-.05c.1-.36.21-.72.32-1.05l0-.05c.11-.34.23-.66.35-1v0c.06-.15.12-.29.17-.43l0,0,.18-.43,0,0,.17-.38,0,0c.07-.14.13-.27.2-.39v0l.18-.35,0-.05c.13-.24.26-.46.4-.67l0-.05a3.28,3.28,0,0,1,.2-.31c1.59-2.34,10.53-9.64,11.84-14.23s3.6-7.86,4.17-9.5S583.15,342,579.41,342Zm-45.32,59.12h0a16.83,16.83,0,0,0-4.71-.38s-.61.1-2.9-1.73-13.76-8.29-13.76-8.29,2.29-1.07,4.54-2.43,9.64-6.72,9.64-6.72h0c1.08,2.48,3.88,9.08,6,11.75S534.09,401.07,534.09,401.07ZM548,361.27l-.05-.15.9-.36Zm-.46-2.45-.26.13,0-.06Zm19.07-3.65c-.68,1.35-7.35,3.46-8.66,6.45-2.29,5.23-3.8,4.45-7.63,3.05h0l-1.65-1.28,2.51-1.08s3.09-3.44,3.35-4.78a3,3,0,0,1,1.14-2.17c.63-.56.76-.27.76-.27l12.28-2.83A15.89,15.89,0,0,0,566.58,355.17Z" transform="translate(-478.21 -319.18)"/><polygon class="cls-3" points="48.86 44.72 47.15 46.43 53.88 46.96 50.06 45.33 51.6 43.8 46.93 42.11 45.2 43.83 48.86 44.72"/><polygon class="cls-3" points="48.39 38.58 46.68 40.29 53.41 40.82 49.59 39.19 51.13 37.66 46.45 35.97 44.73 37.69 48.39 38.58"/><polygon class="cls-3" points="93.02 93.69 91.3 91.97 86.63 93.65 88.16 95.19 84.34 96.81 91.08 96.28 89.36 94.57 93.02 93.69"/><polygon class="cls-3" points="93.49 87.55 91.77 85.83 87.1 87.51 88.64 89.05 84.81 90.67 91.55 90.14 89.84 88.43 93.49 87.55"/></svg>