<svg id="Layer_1" data-name="Layer 1" xmlns="http://www.w3.org/2000/svg" viewBox="0 0 391.79 129.76"><defs><style>.cls-1{font-size:39.65px;fill:#ed1c24;font-family:Montserrat-Bold, Montserrat;font-weight:700;}.cls-2{letter-spacing:-0.02em;}.cls-3{letter-spacing:-0.05em;}.cls-4{fill:#414042;}.cls-5{fill:#fff;}</style></defs><title>injury_risk_rating</title><text class="cls-1" transform="translate(136.22 52.98)">INJU<tspan class="cls-2" x="97.22" y="0">R</tspan><tspan x="125.33" y="0">Y RISK</tspan><tspan x="0" y="47.58">R</tspan><tspan class="cls-3" x="28.82" y="47.58">A</tspan><tspan x="56.34" y="47.58">TING</tspan></text><rect class="cls-4" width="129.76" height="129.76"/><path class="cls-5" d="M579.41,342c-3.75-.1-24.67,7.72-24.67,7.72l-3,.75a7,7,0,0,0-1.16.27,5.68,5.68,0,0,0,.09-1.4c-.07-.54-.7-.48-1.31-.28,0-3.19-.66-8.48-5.06-10.2-6.46-2.53-9.86,2.14-9.86,2.14a9.41,9.41,0,0,0-1.56,5.82c.32,3.19.42,4.12.42,4.12s-1.38-.81-1.5.6,1.68,4.26,1.82,4.5,1-.15,1-.15a14,14,0,0,0,1,2.48,2,2,0,0,0,.57.56s1.43,5,1.43,5.53-5.34,4-6.46,4.26a43,43,0,0,0-5.19.77l-.13,0h0a13.54,13.54,0,0,0-7.65,4.81s-7.49,4.4-10.76,10.2-5.34,7.68-3.19,10.49,19.9,8.33,21,9a18.76,18.76,0,0,1,2.94,2.64l3.18,2.91s-3.6,8.74-3.75,17.17a47.88,47.88,0,0,0,32.88.9c-.07-.39-.13-.73-.19-1-1.13-5.34-1.69-8.42-1.69-8.42a36.69,36.69,0,0,0,.42-7.35c-.32-2.39-.28-8.29.75-11s2.53-10.3,3.09-16.1a42.29,42.29,0,0,1,.63-4.31c.09-.43.18-.84.27-1.24v0c.1-.39.2-.78.3-1.14l0-.05c.1-.36.21-.72.32-1.05l0-.05c.11-.34.23-.66.35-1v0c.06-.15.12-.29.17-.43l0,0,.18-.43,0,0,.17-.38,0,0c.07-.14.13-.27.2-.39v0l.18-.35,0-.05c.13-.24.26-.46.4-.67l0-.05a3.28,3.28,0,0,1,.2-.31c1.59-2.34,10.53-9.64,11.84-14.23s3.6-7.86,4.17-9.5S583.15,342,579.41,342Zm-45.32,59.12h0a16.83,16.83,0,0,0-4.71-.38s-.61.1-2.9-1.73-13.76-8.29-13.76-8.29,2.29-1.07,4.54-2.43,9.64-6.72,9.64-6.72h0c1.08,2.48,3.88,9.08,6,11.75S534.09,401.07,534.09,401.07ZM548,361.27l-.05-.15.9-.36Zm-.46-2.45-.26.13,0-.06Zm19.07-3.65c-.68,1.35-7.35,3.46-8.66,6.45-2.29,5.23-3.8,4.45-7.63,3.05h0l-1.65-1.28,2.51-1.08s3.09-3.44,3.35-4.78a3,3,0,0,1,1.14-2.17c.63-.56.76-.27.76-.27l12.28-2.83A15.89,15.89,0,0,0,566.58,355.17Z" transform="translate(-478.21 -319.18)"/><polygon class="cls-5" points="48.86 44.72 47.15 46.43 53.88 46.96 50.06 45.33 51.6 43.8 46.93 42.11 45.2 43.83 48.86 44.72"/><polygon class="cls-5" points="48.39 38.58 46.68 40.29 53.41 40.82 49.59 39.19 51.13 37.66 46.45 35.97 44.73 37.69 48.39 38.58"/><polygon class="cls-5" points="93.02 93.69 91.3 91.97 86.63 93.65 88.16 95.19 84.34 96.81 91.08 96.28 89.36 94.57 93.02 93.69"/><polygon class="cls-5" points="93.49 87.55 91.77 85.83 87.1 87.51 88.64 89.05 84.81 90.67 91.55 90.14 89.84 88.43 93.49 87.55"/></svg>