<svg id="Layer_1" data-name="Layer 1" xmlns="http://www.w3.org/2000/svg" viewBox="0 0 489.5 489.5"><defs><style>.cls-1{fill:#eb2227;}</style></defs><title>inline-lunge</title><path class="cls-1" d="M430.87,372.18l-8.23-4.9a18,18,0,0,1-8.22-10.88,11.11,11.11,0,0,0-7.24-7.71l-13.4-4.47a14.55,14.55,0,0,1-8.82-8.18c-3.33-7.93-8.27-19.67-12.92-30.53-5-11.59-14.26-21-21.18-26.86a18.3,18.3,0,0,1-5.66-8.59c5.07-5.42,25.2-28.68,16.34-48-4.07-8.86-12.07-15.94-23.14-20.45a66,66,0,0,0-13.61-3.89C309.22,136,286,116.09,263.28,103.76c-9-4.86-36.59-14.88-64.75-14.88-21.35,0-38.07,5.74-49.7,17.06-15.07,14.68-17.26,29.44-15.71,40.47C127.42,157.94,101.33,211,88.88,239a40.4,40.4,0,0,1-6,9.68c-19.18,22.72-21.51,45.73-23.37,64.21-.55,5.44-1.07,10.57-2,15-1.65,7.92-6,17.61-12.53,28a11.43,11.43,0,0,0-.26,11.77,11.21,11.21,0,0,0,9.86,5.74h.34l61.6-1.5a6.32,6.32,0,0,0,1.74-12.34l-28.31-8.92a11.59,11.59,0,0,1-7.77-13.55c2.94-12.92,9.3-36.53,18.92-49.43a47.6,47.6,0,0,0,7.07-13.37,30.5,30.5,0,0,1,6.89-11.4l54.1-56.35c13.35,19,28.82,41.52,37.61,55.68,2.86,31,33.09,68.21,51,87.73a28,28,0,0,1,7.11,23.23,13.28,13.28,0,0,0-.16,2.07,13.52,13.52,0,0,0,13.52,13.5l64.8.16h0a6,6,0,0,0,5.1-9.17c-.16-.25-.32-.51-.5-.77a25.63,25.63,0,0,0-11.18-9c-40.42-17.26-56.64-41.52-61.74-51.15-6-11.39-10.93-20.68-14.9-28.24-5.17-9.86-9.32-17.83-12.33-23.69a31,31,0,0,1-3.37-15.33,42.58,42.58,0,0,0-.33-7.31v-.1a31.67,31.67,0,0,0-4.92-13.46,16.78,16.78,0,0,1-3-9.19c-.11-16.3-5-38.32-12.59-51.41,8.54,3.23,14.87,8.41,31,28.44,1.22,1.51,2.51,3,4,4.62,8.56,9.36,19,17.35,28.32,23.53-2.57,5.38-8.92,19.73-10.7,33.75a18.5,18.5,0,0,0,13.82,20.41,56.6,56.6,0,0,0,13.45,1.55A73.88,73.88,0,0,0,316.8,281c1.62,3.57,3,6.38,4.21,8.59a12.94,12.94,0,0,1,1.06,2.49c1.87,6.25,10.28,24.53,47.79,59.16a54,54,0,0,1,5.28,5.63l12.23,15.08a37.64,37.64,0,0,0,28.6,14l10.93.2h.15a7.49,7.49,0,0,0,3.81-13.93ZM356.61,224.3c6.4,14-6.55,31.77-13,39.37-.5-1.91-1-3.77-1.57-5.55A60.9,60.9,0,0,1,339.3,239c.19-11.07-4.69-20.79-10.35-32.06l-1.56-3.13C335.35,205.66,350.47,210.92,356.61,224.3Zm-204-114.48c8.08-7.86,19-12.76,32.55-14.64,3.33,5.34,26.41,43.17,28.17,68-16.59,7.64-36.12,13.12-65.25,4.35C144.55,163.27,124.94,136.76,152.6,109.82ZM111.15,259.11A36,36,0,0,0,103,272.55a42.19,42.19,0,0,1-6.28,11.85c-9.71,13-16.16,35.17-19.86,51.47a17,17,0,0,0,11.43,19.92l28.31,8.92a.9.9,0,0,1-.25,1.76L54.77,368a5.87,5.87,0,0,1-5.35-3,6,6,0,0,1,.14-6.2c7-11.12,11.44-21.15,13.25-29.81a155.24,155.24,0,0,0,2.07-15.53c1.79-17.74,4-39.83,22.12-61.27a45.77,45.77,0,0,0,6.82-11c11.69-26.29,34.16-72.25,41.21-86.6a53.2,53.2,0,0,0,9.36,17c.93,1.3,10.15,14.13,21.58,30.37ZM230.4,221.46a22.18,22.18,0,0,0,3.92,12.16,26.29,26.29,0,0,1,4,11.11v.09a36.93,36.93,0,0,1,.3,6.45,36.41,36.41,0,0,0,4,18c3,5.87,7.17,13.86,12.35,23.74,4,7.56,8.87,16.86,14.91,28.25,5.37,10.14,22.39,35.66,64.39,53.6a20.24,20.24,0,0,1,8.83,7.12c.13.19.51.77.39,1.18a.51.51,0,0,1-.51.3h0l-64.82-.16a8.1,8.1,0,0,1-8.11-8.09,7.94,7.94,0,0,1,.09-1.24,33.45,33.45,0,0,0-8.46-27.71c-14.1-15.41-47.16-54.56-49.6-85.17a2.7,2.7,0,0,0-.4-1.21c-14.2-23-46.67-68.73-58.54-85.33a98.4,98.4,0,0,0,23.29,3c15.45,0,27.84-4.2,39-9.32C224.17,178.61,230.28,204,230.4,221.46Zm60.54,54A13.09,13.09,0,0,1,281.21,261c1.6-12.61,7.34-25.94,9.92-31.48,1.94,1.21,3.81,2.34,5.57,3.37,3.15,7.35,17.64,42.49,17.84,42.95A58,58,0,0,1,290.95,275.51ZM429,379.16a2,2,0,0,1-2,1.53h0l-10.93-.2a32.24,32.24,0,0,1-24.5-12l-12.23-15.08a59.34,59.34,0,0,0-5.81-6.2c-37.56-34.67-44.92-52.19-46.28-56.74a18.27,18.27,0,0,0-1.5-3.55c-1.76-3.21-4-8-6.83-14.61-2.44-5.7-5.08-12.16-7.88-19-3.16-7.74-6.43-15.74-9.72-23.39-8.56-19.9-14.6-31-19.58-36a2.71,2.71,0,0,0-3.83,3.83c4.6,4.6,10.27,16,15,26.46-9.84-6.23-21.44-14.73-30.7-24.86-1.38-1.51-2.61-2.94-3.75-4.36-19.93-24.71-25.69-28-39.75-32.21-1.75-24.69-21.94-59.16-27.54-68.31q3.57-.25,7.36-.25c26.86,0,53.94,9.77,62.17,14.23,21.88,11.85,44.21,31.23,59.27,92.24a2.75,2.75,0,0,0,.18.51c1.32,2.79,2.67,5.46,4,8,5.33,10.62,9.94,19.8,9.77,29.53a66.3,66.3,0,0,0,3,20.86c1,3.16,1.88,6.57,2.66,10.16a23.69,23.69,0,0,0,7.81,12.92c5.3,4.49,14.91,13.69,19.7,24.86,4.65,10.84,9.58,22.57,12.91,30.49a20,20,0,0,0,12.1,11.22l13.4,4.47a5.72,5.72,0,0,1,3.73,4,23.34,23.34,0,0,0,10.68,14.14l8.23,4.9A2,2,0,0,1,429,379.16Z"/></svg>