<?xml version="1.0" encoding="utf-8"?>
<!-- Generator: Adobe Illustrator 21.1.0, SVG Export Plug-In . SVG Version: 6.00 Build 0)  -->
<svg version="1.1" id="Layer_2" xmlns="http://www.w3.org/2000/svg" xmlns:xlink="http://www.w3.org/1999/xlink" x="0px" y="0px"
	 viewBox="0 0 489.5 489.5" style="enable-background:new 0 0 489.5 489.5;" xml:space="preserve">
<style type="text/css">
	.st0{fill:#EB5858;}
</style>
<title>inline-lunge-01</title>
<path class="st0" d="M227.3,387.5c-2.5,10-6.6,18.4-8.9,28.5l-0.3,0.8c-0.1,1.1,0.4,2.2,1.2,2.9l0,0c6.5-11.2,12.4-22.6,17.7-34.4
	C233.7,385.6,230.4,386.4,227.3,387.5z"/>
<path class="st0" d="M360.4,418.8c-6.8-2.7-13.7-5.6-20.3-9c-2.6-1.3-5.1-2.9-7.4-4.8c-1.1-2.3-2.6-4.5-4.3-6.4
	c-1.2-1.2-1.8-3-1.5-4.7c0.1-1,0.2-2,0.1-2.9c0-1.2,0.3-2.4,1-3.4c2.7-4,5.7-7.8,9-11.4c2.9-3,5.9-5.8,9-8.4
	c5-5.8,10.6-11,16.8-15.6c3.5-2.7,7.5-5.1,10.3-8.5c1.5-2,3.2-3.8,4.9-5.6l0.8-0.7c0.4-0.8,0.9-1.5,1.2-2.3l0.4-0.4
	c1.1-1,2-2.2,2.8-3.5c1.3-2.2,2.4-4.5,3.5-6.8c2.7-5.4,2.9-11.6,0.6-17.2c-0.5-1.3-1.2-2.5-1.8-3.8c-0.9-1.8-2.3-3.4-4-4.5
	c-4.8-3.3-10.2-5.6-15.9-6.8c-1.7-0.4-3.3-0.9-4.9-1.6c-2.1-0.9-4.2-1.6-6.4-2.2l-0.8-0.2c-12.6-5.7-26.2-8.7-40-8.7
	c-2-0.4-4.1-0.7-6.2-0.8c-2.7,0-4.2-1.7-4.4-4.5c-0.1-1.4-0.3-2.7-0.3-4.1c-0.1-1.1-0.1-2.1,0-3.2c0.3-2.6,0.9-5.1,0.9-7.7
	c0-6.1,0.5-12.2-0.5-18.3c-0.8-4.8-1.3-9.6-2.1-14.3c-1-6.1-2.2-12.3-3.3-18.4c-1.2-6.7-2.4-13.3-5.5-19.4c-0.2-0.5-0.3-1-0.4-1.5
	c1-1.4,2.6-1.2,3.7-2c1.1-0.8,2.3-2,3.5-2.8c0.9-0.5,1.9-1,2.9-1.4c4.7-2.5,9.3-5.3,13.8-8.3c2.4-1.8,5-3.3,7.8-4.5
	c1.3-0.5,2.3-1.6,2.8-2.9c0.4-0.9,0.8-1.7,1.5-2.5c2.7-3.5,4.3-7.7,4.8-12.1c0.6-3.8-1.2-6.4-4.2-8.3c-2.8-1.7-5.8-3.3-8.6-4.9
	c-0.4-0.2-0.8-0.4-1.2-0.5l-7.1-2c-3.4-1-6.8-1.9-10.1-3.2c-3.4-1.3-6.9-2.2-10.6-2.7c-2.8-0.4-5.6-0.6-8.3-0.6
	c-0.4,0-0.9,0-1.3-0.1c-1-0.1-1.8-1-1.7-2c0-0.1,0-0.2,0.1-0.3c0.4-1.1,0.8-2.2,1.4-3.2c0.4-0.6,0.6-1.3,0.7-2.1
	c-0.4-2.3,0.9-4.5,3-5.4c1.4-0.7,2-2.5,1.3-3.9c-0.1-0.2-0.2-0.4-0.4-0.6c-0.6-0.9-1.5-1.6-2.1-2.4c-1-1.3-1.9-2.6-2.7-4
	c-0.8-1.2-0.8-2.7-0.1-4c0.6-1.3,0.7-2.7,0.3-4.1c-0.5-2.9-0.8-5.7-1.2-8.6c-0.2-0.8,0-1.7,0.4-2.4v-1.7c-0.2-2-0.7-4-1.5-5.9
	c-0.2-0.2-0.4-0.5-0.5-0.7c-0.3-0.7-0.7-1.4-1-2.1c-0.2-0.4-0.4-0.8-0.7-1.2l-0.1-0.2c-0.4-0.4-0.8-0.9-1.2-1.4l-0.9-0.6
	c-1.5-1.2-3.1-2.3-4.8-3.2c-4.1-1.9-8.4-3.2-12.9-3.7c-3.5-0.5-7-1.1-10.5-1.4c-7.7-0.1-17.2,3.4-20.5,7.3
	c-13.2,11.9-9.7,53.5-9.7,53.5c0,0.6-0.1,1.1-0.3,1.7c-0.1,1.4-0.7,2.6-1.7,3.6s-1.5,2.4-1.3,3.8c0.2,0.9,0,1.7-0.6,2.4
	c-0.3,0.4-0.7,1-0.7,1.4c0.2,3.1-0.2,6.1,0.1,9.2c0,0.1,0.1,0.2,0.1,0.3c0.5,0.9,0.5,1.9,0.1,2.8c-0.8,1.8,0,3.8,1.8,4.7
	c0.2,0.1,0.4,0.2,0.5,0.4c0,0.7-0.1,1.4-0.1,2c0.6,0.7,0.9,1.6,0.9,2.6v30c0.1,42.7,0.6,85.3,0.6,128c0.5,0.7,0.8,1.5,0.7,2.4
	c-0.3,2.1-0.5,4.1-0.7,6.2v0.4c0,0.4,0,0.7-0.1,1c-0.6,7.7-0.6,15.3,0,23c0.7,8.2,4.4,15.8,6.2,23.8c0.3,0.6,0.6,1.3,1,1.9
	c0.2,0.4,0.4,0.8,0.4,1.3c2.7,5,6.1,10,10.6,13.5v0.4c-0.1,0.9-0.9,1.5-1.9,1.5c-0.6,0-1.3-0.2-1.9-0.4c-1.8-0.6-3.6-1.3-5.4-2.2
	c-2.6-1.3-5.3-2.4-8.1-3.1c-2.2-0.6-4.3-1.4-6.5-1.9c-1.3-0.3-2.7-0.5-4.1-0.5c-2.4-0.1-4.7,0-7.1,0c-1.3,0-2.6-0.3-3.8-0.3
	c-4.8,0.2-9.3-1-14-1.5c-0.1,0-0.2,0-0.3-0.1c-1.1-0.2-2.1-0.5-3.1-0.6c-2-0.3-4.1-0.5-6-0.9c-4.8-1-9.7-2-14.5-3.2
	c-1.2-0.4-2.5-0.5-3.7-0.5c-1.1-1-2.2-1.8-3.4-2.6l-0.2-0.3c-0.3-0.3-0.6-0.4-1-0.5c-3.2-1.7-6.7-2.9-10.2-3.7
	c-3.7-1.1-7.4-1.9-11.2-2.3c-0.8-0.1-1.6,0-2.4,0.2c-1.9-0.6-4,0.2-5.1,2c-1.1,1.6-1.7,3.5-1.8,5.5v0.2c-0.1,0.5-0.2,1-0.2,1.5
	c0,0.3,0,0.7,0,1v0.5c-0.1,4.1-0.2,8.2-0.2,12.3c0,0,7.8,45.4,12.1,45.4c4.3,0,6.8-0.3,11.2-0.7s7.8-13,7.8-13.5
	c0.4-2.4,4.2-15.2,6-16.8c4.8-4.4,3.1,2.3,7.6-2.7c1.6,0.3,9.2,2.7,10.8,3.2c3.8,1.2,7.5,2.5,11.1,4.1c4.6,1.9,9,4.1,13.2,6.6
	c0.8,0.5,1.7,1,2.6,1.4c1.1,0.5-8.6-3.1,3.2,1.6c49.6,23.1,77.9,12.7,77.9,12.7l84.1-1C364.9,431.3,371.4,423,360.4,418.8z
	 M299.7,371.2v-34.6c9.3,1.4,14.1-1.8,18.7-4.1C309.5,344.8,309,362.1,299.7,371.2z"/>
</svg>
