<?xml version="1.0" encoding="utf-8"?>
<!-- Generator: Adobe Illustrator 21.1.0, SVG Export Plug-In . SVG Version: 6.00 Build 0)  -->
<svg version="1.1" id="Layer_2" xmlns="http://www.w3.org/2000/svg" xmlns:xlink="http://www.w3.org/1999/xlink" x="0px" y="0px"
	 viewBox="0 0 489.5 489.5" style="enable-background:new 0 0 489.5 489.5;" xml:space="preserve">
<style type="text/css">
	.st0{fill:#EB5858;}
</style>
<title>inline-lunge-01</title>
<path class="st0" d="M252.6,385.2c5.3,11.8,11.2,23.3,17.7,34.4l0,0c0.9-0.7,1.3-1.8,1.2-2.9l-0.3-0.8c-2.4-10.1-6.5-18.5-8.9-28.5
	C259.2,386.4,255.9,385.6,252.6,385.2z"/>
<path class="st0" d="M44.1,427.1V450h401.4c0,0-0.2-23.8-0.2-23.8c-2.1,0.2-67.1-0.2-69.6-0.2c-2.6,0-4.5-0.4-5-2.9
	c-0.1-0.6,0-1.2,0.2-1.8c0.5-1.3,1.2-2.5,1.6-3.8c0.6-1.8,0.9-3.8,0.8-5.7c0-0.5,0-1-0.1-1.5c0.2-1.7,0.3-3.5,0.2-5.2l-1-14.2
	c0-4.1-0.2-8.2-0.2-12.3V378c0-0.3,0-0.7,0-1c-0.1-0.5-0.1-1-0.2-1.5v-0.2c-0.1-2-0.7-3.8-1.8-5.5c-1-1.8-3.1-2.6-5.1-2
	c-0.8-0.2-1.6-0.2-2.4-0.2c-3.8,0.4-7.6,1.2-11.2,2.3c-3.5,0.8-7,2-10.2,3.7c-0.4,0-0.7,0.2-1,0.5l-0.2,0.3
	c-1.2,0.8-2.4,1.6-3.4,2.6c-1.3,0-2.5,0.2-3.7,0.5c-4.8,1.2-9.6,2.2-14.5,3.2c-1.9,0.4-4,0.6-6,0.9c-1,0.2-2.1,0.4-3.1,0.6
	c-0.1,0.1-0.2,0.1-0.3,0.1c-4.7,0.5-9.2,1.8-14,1.5c-1.3-0.1-2.6,0.3-3.8,0.3c-2.4,0-4.7-0.1-7.1,0c-1.4,0-2.8,0.2-4.1,0.5
	c-2.2,0.5-4.3,1.3-6.5,1.9c-2.8,0.8-5.5,1.8-8.1,3.1c-1.7,0.8-3.5,1.5-5.4,2.2c-0.6,0.2-1.2,0.3-1.9,0.4c-0.9,0.1-1.7-0.5-1.9-1.5
	v-0.4c4.5-3.5,7.9-8.5,10.6-13.5c0.1-0.4,0.2-0.9,0.4-1.3c0.4-0.6,0.7-1.3,1-1.9c1.9-8,5.5-15.6,6.2-23.8c0.6-7.7,0.6-15.3,0-23
	c-0.1-0.3-0.1-0.7-0.1-1v-0.4c-0.2-2.1-0.4-4.1-0.7-6.2c-0.1-0.8,0.2-1.7,0.7-2.4c0.1-42.7,0.5-85.3,0.6-128v-30.2
	c0-0.9,0.3-1.8,0.9-2.6c0-0.6-0.1-1.3-0.1-2c0.2-0.1,0.3-0.3,0.5-0.4c1.7-0.8,2.5-2.9,1.8-4.7c-0.4-0.9-0.3-1.9,0.1-2.8
	c0.1-0.1,0.1-0.2,0.1-0.3c0.4-3.1,0-6.1,0.1-9.2c0-0.4-0.4-0.9-0.7-1.4c-0.5-0.7-0.7-1.6-0.5-2.4c0.2-1.4-0.2-2.9-1.3-3.8
	c-1-1-1.6-2.2-1.7-3.6c-0.2-0.5-0.3-1.1-0.3-1.7V40h-9.4c0,9.2,0,18.3,0,27.5c0,1.1-0.1,2.1-0.2,3.2l0,0l-0.1-0.2
	c-1.3-2.5-3.4-4.4-6-5.6c-4.2-1.9-9.9-3.3-14.5-1.7c-3.5,0.3-7,0.8-10.5,1.4c-4.5,0.5-8.9,1.8-12.9,3.7c-1.7,1-3.3,2.1-4.8,3.2
	l-0.9,0.6c-0.4,0.5-0.8,0.9-1.2,1.4l-0.1,0.2c-0.2,0.4-0.5,0.8-0.7,1.2c-0.3,0.7-0.7,1.4-1,2.1c-0.1,0.3-0.3,0.5-0.5,0.7
	c-0.8,1.9-1.3,3.9-1.5,5.9v1.7c0.5,0.7,0.6,1.6,0.4,2.4c-0.5,2.9-0.8,5.7-1.2,8.6c-0.4,1.4-0.3,2.8,0.3,4.1c0.7,1.3,0.7,2.8-0.1,4
	c-0.8,1.4-1.7,2.7-2.7,4c-0.6,0.8-1.5,1.5-2.1,2.4c-0.2,0.2-0.3,0.4-0.4,0.6c-0.7,1.4-0.2,3.2,1.3,3.9c2.1,0.9,3.4,3.1,3,5.4
	c0.1,0.7,0.3,1.4,0.7,2.1c0.5,1.1,1,2.1,1.4,3.2c0,0.1,0,0.2,0.1,0.3c0.1,1-0.7,1.9-1.7,2c-0.4,0.1-0.8,0.1-1.3,0.1
	c-2.8,0-5.6,0.2-8.3,0.6c-3.6,0.4-7.2,1.3-10.6,2.7c-3.3,1.3-6.7,2.2-10.1,3.2l-7.1,2c-0.4,0.1-0.8,0.3-1.2,0.5
	c-2.9,1.6-5.8,3.2-8.6,4.9c-3.1,1.9-4.9,4.5-4.2,8.3c0.5,4.4,2.1,8.6,4.8,12.1c0.6,0.8,1.1,1.6,1.5,2.5c0.5,1.3,1.5,2.4,2.8,2.9
	c2.7,1.3,5.3,2.8,7.8,4.5c4.5,3,9.1,5.8,13.8,8.3c1,0.4,1.9,0.9,2.9,1.4c1.2,0.8,2.4,2,3.5,2.8s2.7,0.6,3.7,2
	c-0.1,0.5-0.2,1-0.4,1.5c-3,6.1-4.3,12.8-5.5,19.4c-1.1,6.1-2.3,12.2-3.3,18.4c-0.8,4.8-1.3,9.5-2.1,14.3c-1,6.1-0.5,12.2-0.5,18.3
	c0,2.6,0.6,5.1,0.9,7.7c0.1,1.1,0.1,2.1,0,3.2c-0.1,1.4-0.3,2.7-0.3,4.1c-0.1,2.7-1.6,4.5-4.4,4.5c-2.1,0.1-4.2,0.3-6.2,0.8
	c-13.8,0-27.4,3-40,8.7l-0.8,0.2c-2.2,0.6-4.3,1.3-6.4,2.2c-1.6,0.7-3.2,1.3-4.9,1.6c-5.7,1.2-11,3.6-15.9,6.8
	c-1.7,1.1-3.1,2.7-4,4.5c-0.6,1.3-1.2,2.5-1.8,3.8c-2.3,5.5-2.1,11.8,0.6,17.2c1,2.3,2.2,4.6,3.5,6.8c0.8,1.3,1.7,2.4,2.8,3.5
	l0.4,0.4c0.4,0.8,0.8,1.5,1.2,2.3l0.8,0.7c1.7,1.8,3.4,3.6,4.9,5.6c2.9,3.4,6.8,5.8,10.3,8.5c6.2,4.5,11.8,9.8,16.8,15.6
	c3.1,2.7,6.1,5.5,9,8.4c3.3,3.6,6.3,7.4,9,11.4c0.7,1,1,2.2,1,3.4c0,1,0,2,0.1,2.9c0.3,1.7-0.3,3.5-1.5,4.7c-1.8,1.9-3.2,4-4.3,6.4
	c-2.3,1.9-4.7,3.5-7.4,4.8c-6.6,3.4-13.5,6.3-20.3,9c-11,4.2-22.4,7-34.1,8.5H52.7c-1,0-2-0.1-3-0.2H44.1z M284.8,425
	c-0.9-2-0.1-4.4,1.8-5.5c1-0.6,2.1-1.1,3.2-1.6c0.9-0.4,1.7-0.9,2.6-1.4c4.2-2.5,8.7-4.7,13.2-6.6c3.6-1.6,7.3-2.9,11.1-4.1
	c1.6-0.5,3.2-0.9,4.8-1.2c4.5,5,10.8,7.2,15.6,11.7c1.8,1.6,3.6,3.4,4,5.8c0.2,1.5-1,3-2.1,4.2c-0.4,0.1-0.8,0.2-1.2,0.2h-48.6
	c-0.9,0-1.7,0-2.6-0.1C285.8,426.4,285.1,425.8,284.8,425L284.8,425z M189.9,371.2c-9.3-9.1-9.8-26.4-18.7-38.7
	c4.6,2.3,9.4,5.5,18.7,4.1V371.2L189.9,371.2z"/>
</svg>
