<svg id="Layer_2" data-name="Layer 2" xmlns="http://www.w3.org/2000/svg" viewBox="0 0 489.5 489.5"><defs><style>.cls-1{fill:#eb5858;}</style></defs><title>inline-lunge-01</title><path class="cls-1" d="M227.3,387.45c-2.47,10-6.55,18.35-8.93,28.45l-.27.82a3.37,3.37,0,0,0,1.22,2.87h0A366.28,366.28,0,0,0,237,385.17,49.84,49.84,0,0,0,227.3,387.45Z"/><path class="cls-1" d="M439.89,427.07a21.44,21.44,0,0,1-3,.19H394.53a149,149,0,0,1-34.1-8.47c-6.83-2.73-13.67-5.62-20.32-9a36,36,0,0,1-7.39-4.77,25.63,25.63,0,0,0-4.32-6.36,5.47,5.47,0,0,1-1.53-4.73A20.38,20.38,0,0,0,327,391a5.55,5.55,0,0,1,1-3.39,103.73,103.73,0,0,1,9-11.36q4.31-4.43,9-8.43a102.17,102.17,0,0,1,16.82-15.58c3.51-2.73,7.45-5.1,10.32-8.53a64.83,64.83,0,0,1,4.92-5.6l.78-.74c.42-.75.85-1.52,1.24-2.28l.36-.37a18.68,18.68,0,0,0,2.82-3.49,74,74,0,0,0,3.49-6.83,20.82,20.82,0,0,0,.59-17.18c-.53-1.28-1.19-2.51-1.78-3.79a11.18,11.18,0,0,0-4-4.52,45.64,45.64,0,0,0-15.85-6.83,27.13,27.13,0,0,1-4.85-1.65,45.55,45.55,0,0,0-6.37-2.23l-.75-.19a95.93,95.93,0,0,0-40-8.71,32.8,32.8,0,0,0-6.21-.75c-2.73,0-4.22-1.74-4.36-4.48-.07-1.37-.27-2.73-.34-4.1a21.57,21.57,0,0,1,0-3.18c.26-2.56.85-5.11.86-7.67,0-6.11.48-12.23-.48-18.33-.75-4.77-1.28-9.57-2.08-14.32-1-6.14-2.21-12.3-3.28-18.38-1.16-6.67-2.43-13.31-5.47-19.45a7.64,7.64,0,0,1-.41-1.46c1-1.37,2.65-1.19,3.74-2s2.26-2,3.47-2.82a23.23,23.23,0,0,1,2.87-1.45,160.69,160.69,0,0,0,13.78-8.31,47.07,47.07,0,0,1,7.78-4.52,5,5,0,0,0,2.84-2.91,9.85,9.85,0,0,1,1.45-2.49,24.68,24.68,0,0,0,4.81-12.12c.6-3.77-1.16-6.45-4.25-8.32-2.83-1.72-5.75-3.29-8.65-4.92a5.64,5.64,0,0,0-1.19-.48l-7.12-2c-3.39-1-6.83-1.89-10.13-3.16a43,43,0,0,0-10.57-2.67,63.2,63.2,0,0,0-8.34-.57,5.93,5.93,0,0,1-1.27-.14,1.85,1.85,0,0,1-1.64-2.32,26.47,26.47,0,0,1,1.37-3.25,5.21,5.21,0,0,0,.72-2.06,4.91,4.91,0,0,1,3-5.4,2.88,2.88,0,0,0,.86-4.46c-.59-.89-1.45-1.59-2.09-2.43a36.9,36.9,0,0,1-2.73-4,3.94,3.94,0,0,1-.1-4,6,6,0,0,0,.34-4.1c-.46-2.86-.78-5.74-1.23-8.6a3.09,3.09,0,0,1,.44-2.38V83.63a19.82,19.82,0,0,0-1.52-5.9,3.28,3.28,0,0,1-.49-.72c-.34-.68-.66-1.37-1-2.05-.22-.4-.44-.79-.68-1.18l-.15-.21c-.41-.44-.82-.9-1.19-1.37l-.86-.63a44.85,44.85,0,0,0-4.8-3.23,41.08,41.08,0,0,0-12.93-3.74c-3.5-.53-7-1.09-10.5-1.37-4.66-1.57-10.29-.21-14.53,1.71a12.87,12.87,0,0,0-6,5.58l-.08.19h0a21.53,21.53,0,0,1-.22-3.2q0-13.75,0-27.51h-9.4v84a4.17,4.17,0,0,1-.33,1.68,5.9,5.9,0,0,1-1.68,3.59,4.24,4.24,0,0,0-1.28,3.83,3.14,3.14,0,0,1-.55,2.43c-.3.44-.72,1-.68,1.37.18,3.08-.25,6.15.14,9.23a.93.93,0,0,0,.12.3,3.38,3.38,0,0,1,.15,2.8,3.61,3.61,0,0,0,1.75,4.67,3.34,3.34,0,0,1,.51.38c0,.67-.11,1.37-.15,2a3.85,3.85,0,0,1,.87,2.56V189c.15,42.66.56,85.3.62,128a3.14,3.14,0,0,1,.7,2.35q-.41,3.09-.68,6.19v.36a4.4,4.4,0,0,1-.12,1.05,136.67,136.67,0,0,0,0,23c.71,8.2,4.36,15.77,6.22,23.77.3.64.63,1.28,1,1.91a4.48,4.48,0,0,1,.44,1.26c2.73,5,6.07,10,10.58,13.54v.42a1.69,1.69,0,0,1-1.85,1.45,6.83,6.83,0,0,1-1.87-.38,52.84,52.84,0,0,1-5.36-2.17,40.8,40.8,0,0,0-8.08-3.14c-2.17-.57-4.29-1.37-6.48-1.89a20.64,20.64,0,0,0-4.1-.55c-2.36-.1-4.73,0-7.08,0-1.28,0-2.57-.34-3.84-.27-4.76.23-9.33-1.05-14-1.54a.41.41,0,0,1-.31-.1c-1.05-.22-2.09-.48-3.14-.64-2-.33-4.1-.53-6-.94-4.84-1-9.66-2-14.46-3.17a12.48,12.48,0,0,0-3.73-.52,23.08,23.08,0,0,0-3.43-2.6l-.25-.31a1.37,1.37,0,0,0-1-.45,43.42,43.42,0,0,0-10.21-3.7,60,60,0,0,0-11.23-2.27,8.2,8.2,0,0,0-2.39.19,4.4,4.4,0,0,0-5.06,2,10.46,10.46,0,0,0-1.79,5.47v.23a12.54,12.54,0,0,0-.25,1.45,5.21,5.21,0,0,0,0,1v.49c-.1,4.1-.23,8.2-.25,12.3l-1,14.2a26.13,26.13,0,0,0,.18,5.21,11.1,11.1,0,0,0-.1,1.46,17.18,17.18,0,0,0,.81,5.71c.45,1.37,1.13,2.54,1.63,3.84A3.7,3.7,0,0,1,119,423c-.45,2.49-2.42,2.92-5,2.92s-67.5.42-69.64.25c-.08,0-.25,23.81-.25,23.81H445.49V427.07ZM204.81,425a2.24,2.24,0,0,1-1.94,1.48,25.09,25.09,0,0,1-2.57.12H151.7a3.9,3.9,0,0,1-1.2-.16c-1.12-1.16-2.32-2.73-2.09-4.21.38-2.43,2.21-4.21,4-5.82,4.84-4.43,11.15-6.7,15.65-11.67a43.74,43.74,0,0,1,4.82,1.19A109,109,0,0,1,184,410a106.32,106.32,0,0,1,13.22,6.59,28.81,28.81,0,0,0,2.57,1.37c1.05.52,2.16,1,3.17,1.57a4.22,4.22,0,0,1,1.8,5.45Zm94.89-53.8V336.59c9.33,1.37,14.12-1.82,18.68-4.1C309.49,344.79,309.05,362.09,299.7,371.21Z"/></svg>