<svg id="Layer_1" data-name="Layer 1" xmlns="http://www.w3.org/2000/svg" viewBox="0 0 112.06 71.59"><defs><style>.cls-1,.cls-2{fill:#eb5858;}.cls-2{stroke:#fff;stroke-miterlimit:10;}</style></defs><title>ankle_clearing_screen_left</title><polygon class="cls-1" points="101 61.34 103.13 64.59 103.13 67.22 0 67.22 0 63.09 1.63 61.34 101 61.34"/><path class="cls-2" d="M737.19,380.75c-4.19-14.37-15.75-20.44-19.87-21.37-5.75-.94-9.87-3.5-11.25-3.5a21.24,21.24,0,0,1-4,0c-1.81-.25-4.75-3.75-4.75-3.75s-1.75-4.31-7.12-2.75-4.94,8-4.62,9,3.38,3.13,3.38,3.13a7.77,7.77,0,0,0,1.31.69c.38.09.47,1.76.75,2.13s.88.06.88.06a56.09,56.09,0,0,1-5,2.56,11.75,11.75,0,0,0-2.69.56c-1.22.47-10.47,6-11.81,6.44a15.05,15.05,0,0,1-3,.56,28.07,28.07,0,0,0-4.19.19c-1.09.25-2.37,1.41-2.37,2-.25,2.38,1.16,3.53,1.56,3.44s.47-2.41,1.5-2.5,2.53.63,3.44.63,1.91-1.46,2.81-1.56,6.38-.47,8.81-1,8.81-4.06,8.81-4.06l-3.56,2.69s-7.06,4.63-9.87,7a32.3,32.3,0,0,1-5.87,3.69c-1.07.4-4,1.16-4.87,1.81s-.75,2.63-.56,3.25,2.19,2.41,3,2.38a1.37,1.37,0,0,0,1.38-.94c.06-.78-.53-.22,0-1.44s3.31-2.62,3.31-2.62,7.69-1.62,10.38-2.87a18.5,18.5,0,0,0,5.25-4c.78-.75,11.69-7.62,11.69-7.62a11,11,0,0,0,1.56,2.31c.91,1,4.56,2.75,4.56,2.75s-4.09,1-5.25,2.31a5.1,5.1,0,0,0-1.19,3.94c.13,1.91,3,6.81,3,6.81s-4.41,3.47-5.44,5.13c-3.16,2.25-9.48,7.27-11.75,8.63s-8.87,4.19-8.87,4.19a1.49,1.49,0,0,0-1.12-.81c-.77-.06-2.62,1.94-2.62,1.94a41.75,41.75,0,0,1-4.37,2.06c-1.17.35-4.44,1.19-5.19,1.56s-.46,1.42-.06,1.81,5.13,1.38,5.13,1.38a75.15,75.15,0,0,1,7.81,1.31c1.57.54,2.58,1.38,4,1.38s1.88-.29,2.13-.87a11.26,11.26,0,0,0-.06-3l.69-2.5s.08-.54,1.19-1.25,9.13-3.69,9.13-3.69a10.86,10.86,0,0,0,4.69-1.31c2.08-1.25,6.63-6.83,7.81-7.56s4.38-.75,4.38-.75l3,4.56a1.76,1.76,0,0,0-1.31.56,3.83,3.83,0,0,0-.12,2,19.43,19.43,0,0,1-3.44,2.19c-1.06.35-4,.63-4.75,1.56-.4,2.4.81,2.73,2.19,2.94s7.59-.25,8.75-.19,4.79.4,6.06.31a2.48,2.48,0,0,0,2.25-1.87c.06-.71-1-1.62-1-2.12a22.86,22.86,0,0,0-.25-3.06c-.19-.6-1.94-1.25-1.94-1.25l11.75-9.62s7.19-2.62,7.19-7.75S737.25,381.5,737.19,380.75Z" transform="translate(-626.94 -348.53)"/><path class="cls-1" d="M737.19,380.75c-4.19-14.37-15.75-20.44-19.87-21.37-5.75-.94-9.87-3.5-11.25-3.5a21.24,21.24,0,0,1-4,0c-1.81-.25-4.75-3.75-4.75-3.75s-1.75-4.31-7.12-2.75-4.94,8-4.62,9,3.38,3.13,3.38,3.13a7.77,7.77,0,0,0,1.31.69c.38.09.47,1.76.75,2.13s.88.06.88.06a56.09,56.09,0,0,1-5,2.56,11.75,11.75,0,0,0-2.69.56c-1.22.47-10.47,6-11.81,6.44a15.05,15.05,0,0,1-3,.56,28.07,28.07,0,0,0-4.19.19c-1.09.25-2.37,1.41-2.37,2-.25,2.38,1.16,3.53,1.56,3.44s.47-2.41,1.5-2.5,2.53.63,3.44.63,1.91-1.46,2.81-1.56,6.38-.47,8.81-1,8.81-4.06,8.81-4.06l-3.56,2.69s-7.06,4.63-9.87,7a32.3,32.3,0,0,1-5.87,3.69c-1.07.4-4,1.16-4.87,1.81s-.75,2.63-.56,3.25,2.19,2.41,3,2.38a1.37,1.37,0,0,0,1.38-.94c.06-.78-.53-.22,0-1.44s3.31-2.62,3.31-2.62,7.69-1.62,10.38-2.87a18.5,18.5,0,0,0,5.25-4c.78-.75,11.69-7.62,11.69-7.62a11,11,0,0,0,1.56,2.31c.91,1,4.56,2.75,4.56,2.75s-4.09,1-5.25,2.31a5.1,5.1,0,0,0-1.19,3.94c.13,1.91,3,6.81,3,6.81s-4.41,3.47-5.44,5.13c-3.16,2.25-9.48,7.27-11.75,8.63s-8.87,4.19-8.87,4.19a1.49,1.49,0,0,0-1.12-.81c-.77-.06-2.62,1.94-2.62,1.94a41.75,41.75,0,0,1-4.37,2.06c-1.17.35-4.44,1.19-5.19,1.56s-.46,1.42-.06,1.81,5.13,1.38,5.13,1.38a75.15,75.15,0,0,1,7.81,1.31c1.57.54,2.58,1.38,4,1.38s1.88-.29,2.13-.87a11.26,11.26,0,0,0-.06-3l.69-2.5s.08-.54,1.19-1.25,9.13-3.69,9.13-3.69a10.86,10.86,0,0,0,4.69-1.31c2.08-1.25,6.63-6.83,7.81-7.56s4.38-.75,4.38-.75l3,4.56a1.76,1.76,0,0,0-1.31.56,3.83,3.83,0,0,0-.12,2,19.43,19.43,0,0,1-3.44,2.19c-1.06.35-4,.63-4.75,1.56-.4,2.4.81,2.73,2.19,2.94s7.59-.25,8.75-.19,4.79.4,6.06.31a2.48,2.48,0,0,0,2.25-1.87c.06-.71-1-1.62-1-2.12a22.86,22.86,0,0,0-.25-3.06c-.19-.6-1.94-1.25-1.94-1.25l11.75-9.62s7.19-2.62,7.19-7.75S737.25,381.5,737.19,380.75Z" transform="translate(-626.94 -348.53)"/><polygon class="cls-1" points="35.84 57.09 27.25 57.09 24.88 67.22 36.31 67.22 35.84 57.09"/></svg>