<svg id="Layer_1" data-name="Layer 1" xmlns="http://www.w3.org/2000/svg" xmlns:xlink="http://www.w3.org/1999/xlink" viewBox="0 0 715.87 170.57"><defs><style>.cls-1{fill:none;}.cls-2{clip-path:url(#clip-path);}.cls-3{fill:#f4814f;}.cls-4{fill:#f4804e;}.cls-5{fill:#f37f4e;}.cls-6{fill:#f37e4d;}.cls-7{fill:#f37d4d;}.cls-8{fill:#f27c4c;}.cls-9{fill:#f27b4c;}.cls-10{fill:#f27a4b;}.cls-11{fill:#f1794b;}.cls-12{fill:#f1784a;}.cls-13{fill:#f1774a;}.cls-14{fill:#f07649;}.cls-15{fill:#f07549;}.cls-16{fill:#f07448;}.cls-17{fill:#ef7348;}.cls-18{fill:#ef7247;}.cls-19{fill:#ef7147;}.cls-20{fill:#ee7046;}.cls-21{fill:#ee6f46;}.cls-22{fill:#ee6e45;}.cls-23{fill:#ed6d44;}.cls-24{fill:#ed6c44;}.cls-25{fill:#ed6b43;}.cls-26{fill:#ec6a43;}.cls-27{fill:#ec6942;}.cls-28{fill:#ec6842;}.cls-29{fill:#eb6741;}.cls-30{fill:#eb6641;}.cls-31{fill:#eb6540;}.cls-32{fill:#ea6440;}.cls-33{fill:#ea633f;}.cls-34{fill:#ea623f;}.cls-35{fill:#e9613e;}.cls-36{fill:#e9603e;}.cls-37{fill:#e95f3d;}.cls-38{fill:#e85e3d;}.cls-39{fill:#e85d3c;}.cls-40{fill:#e85c3c;}.cls-41{fill:#e75b3b;}.cls-42{fill:#e75a3b;}.cls-43{fill:#e7583a;}.cls-44{fill:#e65739;}.cls-45{fill:#e65639;}.cls-46{fill:#e65538;}.cls-47{fill:#e55438;}.cls-48{fill:#e55337;}.cls-49{fill:#e55237;}.cls-50{fill:#e45136;}.cls-51{fill:#e45036;}.cls-52{fill:#e44f35;}.cls-53{fill:#e34e35;}.cls-54{fill:#e34d34;}.cls-55{fill:#e34c34;}.cls-56{fill:#e24b33;}.cls-57{fill:#e24a33;}.cls-58{fill:#e24932;}.cls-59{fill:#e14832;}.cls-60{fill:#e14731;}.cls-61{fill:#e14631;}.cls-62{fill:#e04530;}.cls-63{fill:#e0442f;}.cls-64{fill:#e0432f;}.cls-65{fill:#df422e;}.cls-66{fill:#df412e;}.cls-67{fill:#df402d;}.cls-68{fill:#de3f2d;}.cls-69{fill:#de3e2c;}.cls-70{fill:#de3d2c;}.cls-71{fill:#dd3c2b;}.cls-72{fill:#dd3b2b;}.cls-73{fill:#dd3a2a;}.cls-74{fill:#dc392a;}.cls-75{fill:#dc3829;}.cls-76{fill:#dc3729;}.cls-77{fill:#db3628;}.cls-78{fill:#db3528;}.cls-79{fill:#db3427;}.cls-80{fill:#da3327;}.cls-81{fill:#da3226;}.cls-82{clip-path:url(#clip-path-2);}.cls-83{fill:#ffe3c9;}.cls-84{fill:#ffe3ca;}.cls-85{fill:#ffe4cb;}.cls-86{fill:#ffe4cc;}.cls-87{fill:#ffe5cd;}.cls-88{fill:#fee5ce;}.cls-89{fill:#fee6cf;}.cls-90{fill:#fee6d0;}.cls-91{fill:#fee7d1;}.cls-92{fill:#fee7d2;}.cls-93{fill:#fee8d3;}.cls-94{fill:#fee8d4;}.cls-95{fill:#fee9d5;}.cls-96{fill:#fde9d6;}.cls-97{fill:#fdead7;}.cls-98{fill:#fdead8;}.cls-99{fill:#fdebd9;}.cls-100{fill:#fdebda;}.cls-101{fill:#fdecdb;}.cls-102{fill:#fdecdc;}.cls-103{fill:#fdeddd;}.cls-104{fill:#fcedde;}.cls-105{fill:#fceedf;}.cls-106{fill:#fceee0;}.cls-107{fill:#fcefe2;}.cls-108{fill:#fcefe3;}.cls-109{fill:#fcefe4;}.cls-110{fill:#fcf0e5;}.cls-111{fill:#fcf0e6;}.cls-112{fill:#fbf1e7;}.cls-113{fill:#fbf1e8;}.cls-114{fill:#fbf2e9;}.cls-115{fill:#fbf2ea;}.cls-116{fill:#fbf3eb;}.cls-117{fill:#fbf3ec;}.cls-118{fill:#fbf4ed;}.cls-119{fill:#fbf4ee;}.cls-120{fill:#faf5ef;}.cls-121{fill:#faf5f0;}.cls-122{fill:#faf6f1;}.cls-123{fill:#faf6f2;}.cls-124{fill:#faf7f3;}.cls-125{fill:#faf7f4;}.cls-126{fill:#faf8f5;}.cls-127{fill:#faf8f6;}.cls-128{fill:#f9f9f7;}.cls-129{fill:#f9f9f8;}.cls-130{fill:#f9faf9;}.cls-131{fill:#f9fafa;}.cls-132{clip-path:url(#clip-path-3);}.cls-133{fill:#fff;}.cls-134{fill:#fdfdfd;}.cls-135{fill:#fcfcfc;}.cls-136{fill:#fafafa;}.cls-137{fill:#f8f8f9;}.cls-138{fill:#f7f7f7;}.cls-139{fill:#f5f5f6;}.cls-140{fill:#f3f4f4;}.cls-141{fill:#f2f2f3;}.cls-142{fill:#f0f1f1;}.cls-143{fill:#efeff0;}.cls-144{fill:#edeeee;}.cls-145{fill:#ececed;}.cls-146{fill:#eaebec;}.cls-147{fill:#e9e9ea;}.cls-148{fill:#e7e8e9;}.cls-149{fill:#e6e7e8;}.cls-150{fill:#e5e5e6;}.cls-151{fill:#e3e4e5;}.cls-152{fill:#e2e3e4;}.cls-153{fill:#e1e2e3;}.cls-154{fill:#dfe0e1;}.cls-155{fill:#dedfe0;}.cls-156{fill:#dddedf;}.cls-157{fill:#dcddde;}.cls-158{fill:#dadcdd;}.cls-159{fill:#d9dbdc;}.cls-160{fill:#d8dadb;}.cls-161{fill:#d7d8da;}.cls-162{fill:#d6d7d9;}.cls-163{fill:#d5d6d8;}.cls-164{fill:#d4d5d7;}.cls-165{fill:#d3d5d6;}.cls-166{fill:#d2d4d5;}.cls-167{fill:#d1d3d4;}.cls-168{fill:#d0d2d3;}.cls-169{fill:#cfd1d3;}.cls-170{fill:#cfd0d2;}.cls-171{fill:#cecfd1;}.cls-172{fill:#cdcfd0;}.cls-173{fill:#ccced0;}.cls-174{fill:#cccdcf;}.cls-175{fill:#cbcdce;}.cls-176{fill:#caccce;}.cls-177{fill:#cacbcd;}.cls-178{fill:#c9cbcd;}.cls-179{fill:#c8cacc;}.cls-180{fill:#c7c9cb;}.cls-181{fill:#c7c9ca;}.cls-182{fill:#c6c8ca;}.cls-183{fill:#c5c7c9;}.cls-184{clip-path:url(#clip-path-4);}.cls-185{clip-path:url(#clip-path-5);}.cls-186{clip-path:url(#clip-path-6);}.cls-187{clip-path:url(#clip-path-7);}.cls-188{clip-path:url(#clip-path-8);}.cls-189{clip-path:url(#clip-path-9);}.cls-190{clip-path:url(#clip-path-10);}.cls-191{clip-path:url(#clip-path-11);}.cls-192{clip-path:url(#clip-path-12);}.cls-193{clip-path:url(#clip-path-13);}.cls-194{fill:#231f20;}</style><clipPath id="clip-path" transform="translate(-282 -426.21)"><path class="cls-1" d="M591.14,513.52c-9.85,0-22.15-.71-28.58-.71-7.28,0-22,.71-25.13.71-1.29,0-2.08-.35-2.25-1.18s.41-2.11,1-3.17a58.65,58.65,0,0,1,17-17.89c6.46-4.59,13.45-8,18.67-11.65,7-4.82,15.85-12.11,13.88-21.41-1.86-8.7-12.14-13.41-23.43-13.41-18.14,0-20.5,13.76-21,19.41a1.75,1.75,0,0,1-1.49,1.06,1.67,1.67,0,0,1-1.54-1.17c-1.65-7.77,7-25.53,30.72-25.53,13.28,0,27.74,4.82,30.59,18.23,2.15,10.12-3.76,16.59-11.47,21.29-5.45,3.3-18.77,8.48-23,10.24-11.66,4.94-16.6,9.29-20.2,15.18,6.38.47,12,.71,19.15.71,34.28,0,31.08-1,34.57-13.42.23-.94.39-1.53,1.4-1.53a1.42,1.42,0,0,1,1.53,1.18c.3,1.41-1.37,8.35-2.67,13.65C597.9,509.05,596.15,513.52,591.14,513.52Z"/></clipPath><clipPath id="clip-path-2" transform="translate(-282 -426.21)"><path class="cls-1" d="M592.25,513.67c-9.85,0-22.15.72-28.58.72-7.28,0-22-.72-25.13-.72-1.29,0-2.08.37-2.26,1.2a5.51,5.51,0,0,0,1,3.18,58.55,58.55,0,0,0,17,18c6.45,4.62,13.43,8.06,18.65,11.73,7,4.85,15.84,12.19,13.85,21.54-1.86,8.77-12.15,13.5-23.44,13.5-18.14,0-20.48-13.85-21-19.54a1.73,1.73,0,0,0-1.49-1.06,1.68,1.68,0,0,0-1.54,1.19c-1.65,7.81,7,25.69,30.69,25.69,13.28,0,27.74-4.86,30.61-18.36,2.17-10.18-3.74-16.69-11.44-21.42-5.44-3.32-18.76-8.53-23-10.31-11.66-5-16.59-9.35-20.19-15.27,6.39-.47,12-.71,19.15-.71,34.29,0,31.09,1,34.56,13.49.23,1,.39,1.55,1.39,1.55a1.41,1.41,0,0,0,1.53-1.19c.31-1.42-1.35-8.4-2.65-13.73C599,518.18,597.25,513.67,592.25,513.67Z"/></clipPath><clipPath id="clip-path-3" transform="translate(-282 -426.21)"><path class="cls-1" d="M299.83,564.63a44.82,44.82,0,0,0,1.42-8.29,27.8,27.8,0,0,0,8.68,6.14,24.42,24.42,0,0,0,10,2.15,15.81,15.81,0,0,0,9.64-2.86,26.62,26.62,0,0,0,5.33-6,33.52,33.52,0,0,0,9.44,6.73,24.57,24.57,0,0,0,10.24,2.15q7.39,0,12.05-3.9a12.62,12.62,0,0,0,4.66-10.19V530.37l.06-4.52a25.35,25.35,0,0,1,.5-5.92,6.3,6.3,0,0,1,1.86-3.12q1.78-1.62,6.43-2.44v-1.32H352.88v1.32a16.26,16.26,0,0,1,5.26,1.33,6.65,6.65,0,0,1,2.61,2.95,12.37,12.37,0,0,1,.95,4.12q.29,2.78.28,7.93v11.35a75.6,75.6,0,0,1-.43,9.62,14.43,14.43,0,0,1-1.66,5.17q-2.88,5-9.93,5-7.6,0-11-5.46-3-4.7-3-14.61V530.35l.06-4.52a25.44,25.44,0,0,1,.49-5.91,6.34,6.34,0,0,1,1.86-3.12c1.16-1.07,3.3-1.88,6.44-2.43v-1.32H317.48v1.32a16.11,16.11,0,0,1,5.25,1.33,6.61,6.61,0,0,1,2.62,2.95,12.76,12.76,0,0,1,.95,4.14c.18,1.83.28,4.48.28,7.93v11a81.67,81.67,0,0,1-.46,10.2,13.18,13.18,0,0,1-1.75,5.26,9.22,9.22,0,0,1-3.79,3.37,12.23,12.23,0,0,1-5.51,1.22,13.88,13.88,0,0,1-6.54-1.61,12.56,12.56,0,0,1-4.83-4.35,15.91,15.91,0,0,1-2.36-5.85,45.16,45.16,0,0,1-.7-8.83V530.25l.06-4.41a24.77,24.77,0,0,1,.5-5.91,6.05,6.05,0,0,1,1.92-3.12q1.72-1.62,6.37-2.44v-1.32H282.2v1.32a16.37,16.37,0,0,1,5.29,1.33,6.29,6.29,0,0,1,2.58,2.94,12.43,12.43,0,0,1,.95,4.12c.18,1.84.28,4.5.28,8v14.65A81.44,81.44,0,0,1,291,554a9.21,9.21,0,0,1-1.36,4,6.58,6.58,0,0,1-2.54,2.4,11.68,11.68,0,0,1-4.28.92v1.31Z"/></clipPath><clipPath id="clip-path-4" transform="translate(-282 -426.21)"><path class="cls-1" d="M381.91,540.3q0,9.65,7.36,17.23a29.53,29.53,0,0,0,42.8,0q7.37-7.63,7.36-17.3a24.15,24.15,0,0,0-7-17q-8.61-9.18-21.74-9.18a28.66,28.66,0,0,0-21.79,9.18,25.74,25.74,0,0,0-5.19,8A23.6,23.6,0,0,0,381.91,540.3Zm11.18.68q0-10.37,4.79-17.57,5.4-8,13.19-8a12.72,12.72,0,0,1,6.44,1.79,16.63,16.63,0,0,1,5.4,5,27.31,27.31,0,0,1,3.86,8.37,34.31,34.31,0,0,1,1.48,9.74,32.51,32.51,0,0,1-1.57,9.85,28.91,28.91,0,0,1-4.2,8.55q-5,6.72-12.33,6.73-6.93,0-12-7.09T393.09,541Z"/></clipPath><clipPath id="clip-path-5" transform="translate(-282 -426.21)"><path class="cls-1" d="M439.07,563.7h23.85v-1.32a11.61,11.61,0,0,1-3.69-1.19,4.13,4.13,0,0,1-2-3.82,13.9,13.9,0,0,1,.62-3.75,65.11,65.11,0,0,1,2.27-6.26l9.93-24.5,10,25.51q2.22,5.67,2.22,8.41a5,5,0,0,1-1.91,4.35,10,10,0,0,1-3.62,1.25v1.32h17v-1.32a11.23,11.23,0,0,1-5.53-3c-1.76-1.79-3.8-5.54-6.09-11.27L467.93,513H464.6l-15.45,37c-2.37,5.69-4.08,9.12-5.1,10.31a5.42,5.42,0,0,1-1.91,1.41,13,13,0,0,1-3.07.74Z"/></clipPath><clipPath id="clip-path-6" transform="translate(-282 -426.21)"><path class="cls-1" d="M503,547.31c-.16-1.94-.24-3.36-.24-4.23A33.52,33.52,0,0,1,504.29,533a24.34,24.34,0,0,1,4.25-8.22,19.27,19.27,0,0,1,6.82-5.24,19.85,19.85,0,0,1,8.53-1.9,18.1,18.1,0,0,1,6.26,1.07,13.67,13.67,0,0,1,4.93,3,16.73,16.73,0,0,1,3.79,6.69l1.35-.42a16.65,16.65,0,0,0-6.85-10.58q-5.26-3.57-14-3.57a32.71,32.71,0,0,0-13,2.33,22.88,22.88,0,0,0-9.16,7.15Q492,530,492,539.82q0,13.41,9.9,21a26.12,26.12,0,0,0,16.41,5.55,24,24,0,0,0,9.1-1.7,18.92,18.92,0,0,0,7.06-4.91,18,18,0,0,0,4.49-12.5Zm26.8,2.27q-.43,6-2.26,9.19a12.66,12.66,0,0,1-4.41,4.63,11,11,0,0,1-5.87,1.7,12,12,0,0,1-9.21-4.41,19.42,19.42,0,0,1-4.68-11.11Z"/></clipPath><clipPath id="clip-path-7" transform="translate(-282 -426.21)"><path class="cls-1" d="M619.59,519.78l.06-10.91-2.56-4.21c0-2.69-.59-4.5-.26-5.75s-2.26-2.79-1.3-3.66c1.15-1.07-2.58-3.92.52-4.44v-4.18l-4,6.3,1.59,2.39c2.46.32-1.86,1.05-.8,1.6s-.66-1.39,0,0c.45.91-.18,3.71,0,5.58s-2.58,3.78-2.58,7.23V551q0,6.74-2.2,9.6c-1.46,1.91-3.93,2.86-7.39,2.86v1.44l18.07,2.5a25.58,25.58,0,0,0,.62-5.3v-1.14a36,36,0,0,0,8.54,4.22,28.63,28.63,0,0,0,8.66,1.27,24.42,24.42,0,0,0,16-5.43,23.06,23.06,0,0,0,6.46-8.64,28.17,28.17,0,0,0,2.27-11.45,30.31,30.31,0,0,0-2.42-12.11,24,24,0,0,0-6.91-9.24,25.23,25.23,0,0,0-16.63-5.78,21.86,21.86,0,0,0-7.95,1.3A32.81,32.81,0,0,0,619.59,519.78Zm0,19.85a78,78,0,0,1,.73-12.44,15.89,15.89,0,0,1,2.64-6.75,12.34,12.34,0,0,1,4.5-3.65,12.71,12.71,0,0,1,5.66-1.37q6.5,0,11.33,6a25.64,25.64,0,0,1,4.52,8.49,32.8,32.8,0,0,1,1.6,10.21,34.81,34.81,0,0,1-1.5,10.08,26.63,26.63,0,0,1-4.19,8.45q-4.61,6.09-11.21,6.1a12.66,12.66,0,0,1-6.12-1.56,12.17,12.17,0,0,1-4.59-4.24,18.68,18.68,0,0,1-2.64-7.14A76.62,76.62,0,0,1,619.59,539.63Z"/></clipPath><clipPath id="clip-path-8" transform="translate(-282 -426.21)"><path class="cls-1" d="M679.38,547.29c-.17-1.94-.25-3.35-.25-4.22a33.43,33.43,0,0,1,1.56-10.13,24.33,24.33,0,0,1,4.25-8.22,19.13,19.13,0,0,1,6.82-5.24,19.72,19.72,0,0,1,8.53-1.91,18,18,0,0,1,6.27,1.08,13.44,13.44,0,0,1,4.92,3,16.63,16.63,0,0,1,3.79,6.68l1.35-.41a16.63,16.63,0,0,0-6.85-10.58q-5.25-3.57-14-3.57a32.93,32.93,0,0,0-13,2.32,22.91,22.91,0,0,0-9.16,7.16q-5.22,6.74-5.22,16.57,0,13.43,9.89,21.05a26.16,26.16,0,0,0,16.41,5.55,24,24,0,0,0,9.1-1.7,18.84,18.84,0,0,0,7.07-4.91,18,18,0,0,0,4.48-12.5Zm26.8,2.27q-.43,6-2.27,9.2a12.55,12.55,0,0,1-4.41,4.62,10.92,10.92,0,0,1-5.87,1.71,12,12,0,0,1-9.21-4.42,19.37,19.37,0,0,1-4.68-11.11Z"/></clipPath><clipPath id="clip-path-9" transform="translate(-282 -426.21)"><path class="cls-1" d="M737.14,555.14a18,18,0,0,0,5,5.65,19.93,19.93,0,0,0,11.62,3.52c2.66,0,4.69-.57,6.08-1.73a4.73,4.73,0,0,0,1.91-3.81,3.59,3.59,0,0,0-1.14-2.74,4.1,4.1,0,0,0-2.92-1.07,4.83,4.83,0,0,0-3.63,1.66l-1.9,2a7.27,7.27,0,0,1-5.35,2.31q-4.19,0-6.51-5.23T738,541.16V530l.06-4.52a25.31,25.31,0,0,1,.5-5.91,6.08,6.08,0,0,1,1.92-3.12c1.15-1.08,3.28-1.89,6.37-2.45v-1.31H719.56V514a16.33,16.33,0,0,1,5.29,1.34,6.16,6.16,0,0,1,2.58,2.93,12.3,12.3,0,0,1,1,4.11q.29,2.75.28,8V545a78.4,78.4,0,0,1-.31,8.55,9.09,9.09,0,0,1-1.36,4,6.56,6.56,0,0,1-2.54,2.39,11.78,11.78,0,0,1-4.27.92v1.31l16,2.15A51,51,0,0,0,737.14,555.14Z"/></clipPath><clipPath id="clip-path-10" transform="translate(-282 -426.21)"><path class="cls-1" d="M781.76,561.21V530.06l.06-4.52a25.51,25.51,0,0,1,.5-5.93,6.12,6.12,0,0,1,1.92-3.12c1.15-1.07,3.28-1.89,6.37-2.45v-1.31H763.32V514a16.54,16.54,0,0,1,5.29,1.35,6.19,6.19,0,0,1,2.58,2.94,12.64,12.64,0,0,1,.95,4.14q.29,2.78.28,8v30.73h-9v2.26h9V578a20.3,20.3,0,0,0,1.39,8.3,14.62,14.62,0,0,0,5,5.61,25.33,25.33,0,0,0,7.86,3.55,36.41,36.41,0,0,0,9.8,1.28,15.65,15.65,0,0,0,7.68-1.62q2.89-1.62,2.89-4.32a4.05,4.05,0,0,0-1.2-3,3.91,3.91,0,0,0-2.91-1.2,4.78,4.78,0,0,0-2.89.87,9.6,9.6,0,0,0-2.46,2.85,15.2,15.2,0,0,1-2.83,3.64,4.75,4.75,0,0,1-3,.87,10.76,10.76,0,0,1-4.43-.93,8.2,8.2,0,0,1-3.25-2.41,10.07,10.07,0,0,1-1.79-4.38,47.2,47.2,0,0,1-.49-7.86V563.47h12.17v-2.26Z"/></clipPath><clipPath id="clip-path-11" transform="translate(-282 -426.21)"><path class="cls-1" d="M796.72,540q0,9.67,7.36,17.23a29.51,29.51,0,0,0,42.8,0q7.36-7.62,7.37-17.28a24.19,24.19,0,0,0-7-17q-8.61-9.18-21.74-9.18a28.67,28.67,0,0,0-21.79,9.18,25.56,25.56,0,0,0-5.19,8A23.63,23.63,0,0,0,796.72,540Zm11.18.69q0-10.36,4.79-17.57,5.4-8,13.19-8a12.81,12.81,0,0,1,6.44,1.78,16.74,16.74,0,0,1,5.4,5,28,28,0,0,1,3.87,8.37,34.64,34.64,0,0,1,1.47,9.74,32.75,32.75,0,0,1-1.56,9.85,28.92,28.92,0,0,1-4.21,8.55q-5,6.72-12.33,6.73-6.93,0-12-7.09T807.9,540.67Z"/></clipPath><clipPath id="clip-path-12" transform="translate(-282 -426.21)"><path class="cls-1" d="M873.72,555.14a17.83,17.83,0,0,0,5,5.65,19.93,19.93,0,0,0,11.61,3.52c2.67,0,4.69-.57,6.09-1.73a4.72,4.72,0,0,0,1.9-3.81,3.62,3.62,0,0,0-1.13-2.74,4.12,4.12,0,0,0-2.92-1.07,4.8,4.8,0,0,0-3.63,1.66l-1.9,2a7.27,7.27,0,0,1-5.35,2.31q-4.18,0-6.52-5.23t-2.33-14.57V530l.06-4.52a25.44,25.44,0,0,1,.49-5.91,6.21,6.21,0,0,1,1.92-3.12c1.16-1.08,3.28-1.89,6.38-2.45v-1.31H856.14V514a16.18,16.18,0,0,1,5.28,1.34,6.13,6.13,0,0,1,2.59,2.93,12.55,12.55,0,0,1,1,4.11c.18,1.83.28,4.48.28,8V545a81.12,81.12,0,0,1-.31,8.55,9,9,0,0,1-1.37,4,6.54,6.54,0,0,1-2.53,2.39,11.89,11.89,0,0,1-4.28.92v1.31l16,2.15A51,51,0,0,0,873.72,555.14Z"/></clipPath><clipPath id="clip-path-13" transform="translate(-282 -426.21)"><path class="cls-1" d="M917.52,564.31A44.31,44.31,0,0,0,919,556a27.63,27.63,0,0,0,8.68,6.14,24.45,24.45,0,0,0,10,2.15,15.76,15.76,0,0,0,9.63-2.86,26.47,26.47,0,0,0,5.34-6,33.16,33.16,0,0,0,9.44,6.74,24.54,24.54,0,0,0,10.24,2.15q7.4,0,12.05-3.9a12.64,12.64,0,0,0,4.66-10.2V530.05l.06-4.52a25.35,25.35,0,0,1,.5-5.92,6.31,6.31,0,0,1,1.85-3.12c1.2-1.08,3.34-1.89,6.44-2.45v-1.31H970.58V514a16.21,16.21,0,0,1,5.26,1.34,6.62,6.62,0,0,1,2.61,2.94,12.5,12.5,0,0,1,.95,4.13c.19,1.84.28,4.49.28,7.93v11.34a77.33,77.33,0,0,1-.43,9.62,14.56,14.56,0,0,1-1.65,5.17q-2.9,5.06-9.94,5-7.6,0-11-5.46-3-4.7-3-14.61V530l.06-4.51a25.38,25.38,0,0,1,.49-5.91,6.34,6.34,0,0,1,1.86-3.12c1.16-1.07,3.3-1.88,6.44-2.44v-1.31H935.18V514a16.32,16.32,0,0,1,5.25,1.34,6.61,6.61,0,0,1,2.62,3,12.76,12.76,0,0,1,1,4.13c.18,1.85.28,4.49.28,7.94v11a79.4,79.4,0,0,1-.47,10.2,13.13,13.13,0,0,1-1.74,5.27,9.18,9.18,0,0,1-3.79,3.35,12.1,12.1,0,0,1-5.51,1.23,13.88,13.88,0,0,1-6.54-1.61,12.7,12.7,0,0,1-4.83-4.34,16.21,16.21,0,0,1-2.36-5.86,45.23,45.23,0,0,1-.7-8.83V529.92l.06-4.4a25.31,25.31,0,0,1,.5-5.91,6.13,6.13,0,0,1,1.91-3.12c1.16-1.08,3.28-1.89,6.38-2.45v-1.31H899.9V514a16.33,16.33,0,0,1,5.29,1.34,6.24,6.24,0,0,1,2.58,2.94,12.43,12.43,0,0,1,1,4.12c.18,1.84.28,4.5.28,8v14.65a81.44,81.44,0,0,1-.31,8.57,9.09,9.09,0,0,1-1.36,4,6.54,6.54,0,0,1-2.54,2.41,11.5,11.5,0,0,1-4.28.91v1.32Z"/></clipPath></defs><title>M2PLogo</title><g class="cls-2"><path class="cls-3" d="M535,513.52h0Z" transform="translate(-282 -426.21)"/><rect class="cls-3" x="253" y="86.37" width="66.97" height="0.95"/><rect class="cls-4" x="253" y="85.42" width="66.97" height="0.95"/><rect class="cls-5" x="253" y="84.47" width="66.97" height="0.95"/><rect class="cls-6" x="253" y="83.52" width="66.97" height="0.95"/><rect class="cls-7" x="253" y="82.57" width="66.97" height="0.95"/><rect class="cls-8" x="253" y="81.62" width="66.97" height="0.95"/><rect class="cls-9" x="253" y="80.68" width="66.97" height="0.95"/><rect class="cls-10" x="253" y="79.73" width="66.97" height="0.95"/><rect class="cls-11" x="253" y="78.78" width="66.97" height="0.95"/><rect class="cls-12" x="253" y="77.83" width="66.97" height="0.95"/><rect class="cls-13" x="253" y="76.88" width="66.97" height="0.95"/><rect class="cls-14" x="253" y="75.93" width="66.97" height="0.95"/><rect class="cls-15" x="253" y="74.98" width="66.97" height="0.95"/><rect class="cls-16" x="253" y="74.04" width="66.97" height="0.95"/><rect class="cls-17" x="253" y="73.09" width="66.97" height="0.95"/><rect class="cls-18" x="253" y="72.14" width="66.97" height="0.95"/><rect class="cls-19" x="253" y="71.19" width="66.97" height="0.95"/><rect class="cls-20" x="253" y="70.24" width="66.97" height="0.95"/><rect class="cls-21" x="253" y="69.29" width="66.97" height="0.95"/><rect class="cls-22" x="253" y="68.34" width="66.97" height="0.95"/><rect class="cls-23" x="253" y="67.39" width="66.97" height="0.95"/><rect class="cls-24" x="253" y="66.45" width="66.97" height="0.95"/><rect class="cls-25" x="253" y="65.5" width="66.97" height="0.95"/><rect class="cls-26" x="253" y="64.55" width="66.97" height="0.95"/><rect class="cls-27" x="253" y="63.6" width="66.97" height="0.95"/><rect class="cls-28" x="253" y="62.65" width="66.97" height="0.95"/><rect class="cls-29" x="253" y="61.7" width="66.97" height="0.95"/><rect class="cls-30" x="253" y="60.75" width="66.97" height="0.95"/><rect class="cls-31" x="253" y="59.8" width="66.97" height="0.95"/><rect class="cls-32" x="253" y="58.86" width="66.97" height="0.95"/><rect class="cls-33" x="253" y="57.91" width="66.97" height="0.95"/><rect class="cls-34" x="253" y="56.96" width="66.97" height="0.95"/><rect class="cls-35" x="253" y="56.01" width="66.97" height="0.95"/><rect class="cls-36" x="253" y="55.06" width="66.97" height="0.95"/><rect class="cls-37" x="253" y="54.11" width="66.97" height="0.95"/><rect class="cls-38" x="253" y="53.16" width="66.97" height="0.95"/><rect class="cls-39" x="253" y="52.22" width="66.97" height="0.95"/><rect class="cls-40" x="253" y="51.27" width="66.97" height="0.95"/><rect class="cls-41" x="253" y="50.32" width="66.97" height="0.95"/><rect class="cls-42" x="253" y="49.37" width="66.97" height="0.95"/><rect class="cls-43" x="253" y="48.42" width="66.97" height="0.95"/><rect class="cls-44" x="253" y="47.47" width="66.97" height="0.95"/><rect class="cls-45" x="253" y="46.52" width="66.97" height="0.95"/><rect class="cls-46" x="253" y="45.57" width="66.97" height="0.95"/><rect class="cls-47" x="253" y="44.63" width="66.97" height="0.95"/><rect class="cls-48" x="253" y="43.68" width="66.97" height="0.95"/><rect class="cls-49" x="253" y="42.73" width="66.97" height="0.95"/><rect class="cls-50" x="253" y="41.78" width="66.97" height="0.95"/><rect class="cls-51" x="253" y="40.83" width="66.97" height="0.95"/><rect class="cls-52" x="253" y="39.88" width="66.97" height="0.95"/><rect class="cls-53" x="253" y="38.93" width="66.97" height="0.95"/><rect class="cls-54" x="253" y="37.99" width="66.97" height="0.95"/><rect class="cls-55" x="253" y="37.04" width="66.97" height="0.95"/><rect class="cls-56" x="253" y="36.09" width="66.97" height="0.95"/><rect class="cls-57" x="253" y="35.14" width="66.97" height="0.95"/><rect class="cls-58" x="253" y="34.19" width="66.97" height="0.95"/><rect class="cls-59" x="253" y="33.24" width="66.97" height="0.95"/><rect class="cls-60" x="253" y="32.29" width="66.97" height="0.95"/><polygon class="cls-61" points="253 31.34 319.82 31.34 319.97 32.05 319.97 32.29 253 32.29 253 31.34"/><polygon class="cls-62" points="253 30.4 319.62 30.4 319.82 31.34 253 31.34 253 30.4"/><polygon class="cls-63" points="253 29.45 319.42 29.45 319.62 30.4 253 30.4 253 29.45"/><polygon class="cls-64" points="253 28.5 319.21 28.5 319.42 29.45 253 29.45 253 28.5"/><polygon class="cls-65" points="253 27.55 319.01 27.55 319.21 28.5 253 28.5 253 27.55"/><polygon class="cls-66" points="253 26.6 318.81 26.6 319.01 27.55 253 27.55 253 26.6"/><polygon class="cls-67" points="253 25.65 318.61 25.65 318.81 26.6 253 26.6 253 25.65"/><polygon class="cls-68" points="253 24.7 318.41 24.7 318.61 25.65 253 25.65 253 24.7"/><polygon class="cls-69" points="253 23.75 318.2 23.75 318.41 24.7 253 24.7 253 23.75"/><polygon class="cls-70" points="253 22.81 318 22.81 318.2 23.75 253 23.75 253 22.81"/><polygon class="cls-71" points="253 21.86 317.8 21.86 318 22.81 253 22.81 253 21.86"/><polygon class="cls-72" points="253 20.91 317.6 20.91 317.8 21.86 253 21.86 253 20.91"/><polygon class="cls-73" points="253 19.96 317.4 19.96 317.6 20.91 253 20.91 253 19.96"/><polygon class="cls-74" points="253 19.01 317.2 19.01 317.4 19.96 253 19.96 253 19.01"/><polygon class="cls-75" points="253 18.06 316.99 18.06 317.2 19.01 253 19.01 253 18.06"/><polygon class="cls-76" points="253 17.11 316.79 17.11 316.99 18.06 253 18.06 253 17.11"/><polygon class="cls-77" points="253 16.17 316.59 16.17 316.79 17.11 253 17.11 253 16.17"/><polygon class="cls-78" points="253 15.22 316.39 15.22 316.59 16.17 253 16.17 253 15.22"/><polygon class="cls-79" points="253 14.27 316.19 14.27 316.39 15.22 253 15.22 253 14.27"/><polygon class="cls-80" points="253 13.32 315.99 13.32 316.19 14.27 253 14.27 253 13.32"/><polygon class="cls-81" points="315.78 12.37 315.99 13.32 253 13.32 253 12.37 315.78 12.37"/></g><g class="cls-82"><path class="cls-83" d="M603.05,513.67h0Z" transform="translate(-282 -426.21)"/><rect class="cls-83" x="254.11" y="87.47" width="66.94" height="1.54"/><rect class="cls-84" x="254.11" y="89.01" width="66.94" height="1.54"/><rect class="cls-85" x="254.11" y="90.55" width="66.94" height="1.54"/><rect class="cls-86" x="254.11" y="92.09" width="66.94" height="1.54"/><rect class="cls-87" x="254.11" y="93.63" width="66.94" height="1.54"/><rect class="cls-88" x="254.11" y="95.17" width="66.94" height="1.54"/><rect class="cls-89" x="254.11" y="96.71" width="66.94" height="1.54"/><rect class="cls-90" x="254.11" y="98.24" width="66.94" height="1.54"/><rect class="cls-91" x="254.11" y="99.78" width="66.94" height="1.54"/><rect class="cls-92" x="254.11" y="101.32" width="66.94" height="1.54"/><rect class="cls-93" x="254.11" y="102.86" width="66.94" height="1.54"/><rect class="cls-94" x="254.11" y="104.4" width="66.94" height="1.54"/><rect class="cls-95" x="254.11" y="105.94" width="66.94" height="1.54"/><rect class="cls-96" x="254.11" y="107.48" width="66.94" height="1.54"/><rect class="cls-97" x="254.11" y="109.02" width="66.94" height="1.54"/><rect class="cls-98" x="254.11" y="110.56" width="66.94" height="1.54"/><rect class="cls-99" x="254.11" y="112.1" width="66.94" height="1.54"/><rect class="cls-100" x="254.11" y="113.64" width="66.94" height="1.54"/><rect class="cls-101" x="254.11" y="115.18" width="66.94" height="1.54"/><rect class="cls-102" x="254.11" y="116.72" width="66.94" height="1.54"/><rect class="cls-103" x="254.11" y="118.25" width="66.94" height="1.54"/><rect class="cls-104" x="254.11" y="119.79" width="66.94" height="1.54"/><rect class="cls-105" x="254.11" y="121.33" width="66.94" height="1.54"/><rect class="cls-106" x="254.11" y="122.87" width="66.94" height="1.54"/><rect class="cls-107" x="254.11" y="124.41" width="66.94" height="1.54"/><rect class="cls-108" x="254.11" y="125.95" width="66.94" height="1.54"/><rect class="cls-109" x="254.11" y="127.49" width="66.94" height="1.54"/><rect class="cls-110" x="254.11" y="129.03" width="66.94" height="1.54"/><rect class="cls-111" x="254.11" y="130.57" width="66.94" height="1.54"/><rect class="cls-112" x="254.11" y="132.11" width="66.94" height="1.54"/><rect class="cls-113" x="254.11" y="133.65" width="66.94" height="1.54"/><rect class="cls-114" x="254.11" y="135.19" width="66.94" height="1.54"/><rect class="cls-115" x="254.11" y="136.72" width="66.94" height="1.54"/><rect class="cls-116" x="254.11" y="138.26" width="66.94" height="1.54"/><rect class="cls-117" x="254.11" y="139.8" width="66.94" height="1.54"/><polygon class="cls-118" points="321.05 142.87 321.05 142.88 254.11 142.88 254.11 141.34 321.05 141.34 321.05 142.87"/><polygon class="cls-119" points="321.05 142.88 320.72 144.42 254.11 144.42 254.11 142.88 321.05 142.88"/><polygon class="cls-120" points="320.72 144.42 320.39 145.96 254.11 145.96 254.11 144.42 320.72 144.42"/><polygon class="cls-121" points="320.39 145.96 320.06 147.5 254.11 147.5 254.11 145.96 320.39 145.96"/><polygon class="cls-122" points="320.06 147.5 319.74 149.04 254.11 149.04 254.11 147.5 320.06 147.5"/><polygon class="cls-123" points="319.74 149.04 319.41 150.58 254.11 150.58 254.11 149.04 319.74 149.04"/><polygon class="cls-124" points="319.41 150.58 319.08 152.12 254.11 152.12 254.11 150.58 319.41 150.58"/><polygon class="cls-125" points="319.08 152.12 318.75 153.66 254.11 153.66 254.11 152.12 319.08 152.12"/><polygon class="cls-126" points="318.75 153.66 318.43 155.2 254.11 155.2 254.11 153.66 318.75 153.66"/><polygon class="cls-127" points="318.43 155.2 318.1 156.74 254.11 156.74 254.11 155.2 318.43 155.2"/><polygon class="cls-128" points="318.1 156.74 317.77 158.27 254.11 158.27 254.11 156.74 318.1 156.74"/><polygon class="cls-129" points="317.77 158.27 317.45 159.81 254.11 159.81 254.11 158.27 317.77 158.27"/><polygon class="cls-130" points="317.45 159.81 317.12 161.35 254.11 161.35 254.11 159.81 317.45 159.81"/><polygon class="cls-131" points="317.12 161.35 316.79 162.89 254.11 162.89 254.11 161.35 317.12 161.35"/><path class="cls-131" d="M598.79,589.1Z" transform="translate(-282 -426.21)"/></g><g class="cls-132"><path class="cls-133" d="M282.2,564.63h0Z" transform="translate(-282 -426.21)"/><rect class="cls-133" x="0.2" y="137.54" width="97.97" height="0.89"/><rect class="cls-134" x="0.2" y="136.65" width="97.97" height="0.89"/><rect class="cls-135" x="0.2" y="135.76" width="97.97" height="0.89"/><rect class="cls-136" x="0.2" y="134.87" width="97.97" height="0.89"/><rect class="cls-137" x="0.2" y="133.98" width="97.97" height="0.89"/><rect class="cls-138" x="0.2" y="133.09" width="97.97" height="0.89"/><rect class="cls-139" x="0.2" y="132.2" width="97.97" height="0.89"/><rect class="cls-140" x="0.2" y="131.31" width="97.97" height="0.89"/><rect class="cls-141" x="0.2" y="130.43" width="97.97" height="0.89"/><rect class="cls-142" x="0.2" y="129.54" width="97.97" height="0.89"/><rect class="cls-143" x="0.2" y="128.65" width="97.97" height="0.89"/><rect class="cls-144" x="0.2" y="127.76" width="97.97" height="0.89"/><rect class="cls-145" x="0.2" y="126.87" width="97.97" height="0.89"/><rect class="cls-146" x="0.2" y="125.98" width="97.97" height="0.89"/><rect class="cls-147" x="0.2" y="125.09" width="97.97" height="0.89"/><rect class="cls-148" x="0.2" y="124.2" width="97.97" height="0.89"/><rect class="cls-149" x="0.2" y="123.31" width="97.97" height="0.89"/><rect class="cls-150" x="0.2" y="122.42" width="97.97" height="0.89"/><rect class="cls-151" x="0.2" y="121.53" width="97.97" height="0.89"/><rect class="cls-152" x="0.2" y="120.64" width="97.97" height="0.89"/><rect class="cls-153" x="0.2" y="119.75" width="97.97" height="0.89"/><rect class="cls-154" x="0.2" y="118.86" width="97.97" height="0.89"/><rect class="cls-155" x="0.2" y="117.97" width="97.97" height="0.89"/><rect class="cls-156" x="0.2" y="117.09" width="97.97" height="0.89"/><rect class="cls-157" x="0.2" y="116.2" width="97.97" height="0.89"/><rect class="cls-158" x="0.2" y="115.31" width="97.97" height="0.89"/><rect class="cls-159" x="0.2" y="114.42" width="97.97" height="0.89"/><rect class="cls-160" x="0.2" y="113.53" width="97.97" height="0.89"/><rect class="cls-161" x="0.2" y="112.64" width="97.97" height="0.89"/><rect class="cls-162" x="0.2" y="111.75" width="97.97" height="0.89"/><rect class="cls-163" x="0.2" y="110.86" width="97.97" height="0.89"/><rect class="cls-164" x="0.2" y="109.97" width="97.97" height="0.89"/><rect class="cls-165" x="0.2" y="109.08" width="97.97" height="0.89"/><rect class="cls-166" x="0.2" y="108.19" width="97.97" height="0.89"/><rect class="cls-167" x="0.2" y="107.3" width="97.97" height="0.89"/><rect class="cls-168" x="0.2" y="106.41" width="97.97" height="0.89"/><rect class="cls-169" x="0.2" y="105.52" width="97.97" height="0.89"/><rect class="cls-170" x="0.2" y="104.63" width="97.97" height="0.89"/><rect class="cls-171" x="0.2" y="103.75" width="97.97" height="0.89"/><rect class="cls-172" x="0.2" y="102.86" width="97.97" height="0.89"/><rect class="cls-173" x="0.2" y="101.97" width="97.97" height="0.89"/><rect class="cls-174" x="0.2" y="101.08" width="97.97" height="0.89"/><rect class="cls-175" x="0.2" y="100.19" width="97.97" height="0.89"/><rect class="cls-176" x="0.2" y="99.3" width="97.97" height="0.89"/><rect class="cls-177" x="0.2" y="98.41" width="97.97" height="0.89"/><rect class="cls-178" x="0.2" y="97.52" width="97.97" height="0.89"/><rect class="cls-179" x="0.2" y="96.63" width="97.97" height="0.89"/><rect class="cls-179" x="0.2" y="95.74" width="97.97" height="0.89"/><rect class="cls-180" x="0.2" y="94.85" width="97.97" height="0.89"/><rect class="cls-180" x="0.2" y="93.96" width="97.97" height="0.89"/><rect class="cls-181" x="0.2" y="93.07" width="97.97" height="0.89"/><rect class="cls-182" x="0.2" y="92.18" width="97.97" height="0.89"/><rect class="cls-182" x="0.2" y="91.29" width="97.97" height="0.89"/><rect class="cls-182" x="0.2" y="90.4" width="97.97" height="0.89"/><rect class="cls-183" x="0.2" y="89.52" width="97.97" height="0.89"/><rect class="cls-183" x="0.2" y="88.63" width="97.97" height="0.89"/><rect class="cls-183" x="0.2" y="87.74" width="97.97" height="0.89"/><rect class="cls-183" x="0.2" y="86.85" width="97.97" height="0.89"/><path class="cls-183" d="M380.17,513.05h0Z" transform="translate(-282 -426.21)"/></g><g class="cls-184"><rect class="cls-134" x="111.09" y="138.69" width="35.16" height="0.5"/><rect class="cls-135" x="111.09" y="137.78" width="35.16" height="0.91"/><rect class="cls-136" x="111.09" y="136.87" width="35.16" height="0.91"/><rect class="cls-137" x="111.09" y="135.97" width="35.16" height="0.91"/><rect class="cls-138" x="111.09" y="135.06" width="35.16" height="0.91"/><rect class="cls-139" x="111.09" y="134.15" width="35.16" height="0.91"/><rect class="cls-140" x="111.09" y="133.24" width="35.16" height="0.91"/><rect class="cls-141" x="111.09" y="132.33" width="35.16" height="0.91"/><rect class="cls-142" x="111.09" y="131.43" width="35.16" height="0.91"/><rect class="cls-143" x="111.09" y="130.52" width="35.16" height="0.91"/><rect class="cls-144" x="111.09" y="129.61" width="35.16" height="0.91"/><rect class="cls-145" x="111.09" y="128.7" width="35.16" height="0.91"/><rect class="cls-146" x="111.09" y="127.8" width="35.16" height="0.91"/><rect class="cls-147" x="111.09" y="126.89" width="35.16" height="0.91"/><rect class="cls-148" x="111.09" y="125.98" width="35.16" height="0.91"/><rect class="cls-149" x="111.09" y="125.07" width="35.16" height="0.91"/><rect class="cls-150" x="111.09" y="124.16" width="35.16" height="0.91"/><rect class="cls-151" x="111.09" y="123.26" width="35.16" height="0.91"/><rect class="cls-152" x="111.09" y="122.35" width="35.16" height="0.91"/><rect class="cls-153" x="111.09" y="121.44" width="35.16" height="0.91"/><rect class="cls-154" x="111.09" y="120.53" width="35.16" height="0.91"/><rect class="cls-155" x="111.09" y="119.63" width="35.16" height="0.91"/><rect class="cls-156" x="111.09" y="118.72" width="35.16" height="0.91"/><rect class="cls-157" x="111.09" y="117.81" width="35.16" height="0.91"/><rect class="cls-158" x="111.09" y="116.9" width="35.16" height="0.91"/><rect class="cls-159" x="111.09" y="115.99" width="35.16" height="0.91"/><rect class="cls-160" x="111.09" y="115.09" width="35.16" height="0.91"/><rect class="cls-161" x="111.09" y="114.18" width="35.16" height="0.91"/><rect class="cls-162" x="111.09" y="113.27" width="35.16" height="0.91"/><rect class="cls-163" x="111.09" y="112.36" width="35.16" height="0.91"/><rect class="cls-164" x="111.09" y="111.46" width="35.16" height="0.91"/><rect class="cls-165" x="111.09" y="110.55" width="35.16" height="0.91"/><rect class="cls-166" x="111.09" y="109.64" width="35.16" height="0.91"/><rect class="cls-167" x="111.09" y="108.73" width="35.16" height="0.91"/><rect class="cls-168" x="111.09" y="107.82" width="35.16" height="0.91"/><rect class="cls-169" x="111.09" y="106.92" width="35.16" height="0.91"/><rect class="cls-170" x="111.09" y="106.01" width="35.16" height="0.91"/><rect class="cls-171" x="111.09" y="105.1" width="35.16" height="0.91"/><rect class="cls-172" x="111.09" y="104.19" width="35.16" height="0.91"/><rect class="cls-173" x="111.09" y="103.29" width="35.16" height="0.91"/><rect class="cls-174" x="111.09" y="102.38" width="35.16" height="0.91"/><rect class="cls-175" x="111.09" y="101.47" width="35.16" height="0.91"/><rect class="cls-176" x="111.09" y="100.56" width="35.16" height="0.91"/><rect class="cls-177" x="111.09" y="99.66" width="35.16" height="0.91"/><rect class="cls-178" x="111.09" y="98.75" width="35.16" height="0.91"/><rect class="cls-179" x="111.09" y="97.84" width="35.16" height="0.91"/><rect class="cls-179" x="111.09" y="96.93" width="35.16" height="0.91"/><rect class="cls-180" x="111.09" y="96.02" width="35.16" height="0.91"/><rect class="cls-180" x="111.09" y="95.12" width="35.16" height="0.91"/><rect class="cls-181" x="111.09" y="94.21" width="35.16" height="0.91"/><rect class="cls-182" x="111.09" y="93.3" width="35.16" height="0.91"/><rect class="cls-182" x="111.09" y="92.39" width="35.16" height="0.91"/><rect class="cls-182" x="111.09" y="91.49" width="35.16" height="0.91"/><rect class="cls-183" x="111.09" y="90.58" width="35.16" height="0.91"/><rect class="cls-183" x="111.09" y="89.67" width="35.16" height="0.91"/><rect class="cls-183" x="111.09" y="89.17" width="35.16" height="0.5"/><path class="cls-133" d="M381.91,566.71h0Z" transform="translate(-282 -426.21)"/><rect class="cls-133" x="99.91" y="139.6" width="57.53" height="0.91"/><rect class="cls-134" x="99.91" y="138.69" width="57.53" height="0.91"/><rect class="cls-135" x="99.91" y="137.78" width="57.53" height="0.91"/><rect class="cls-136" x="99.91" y="136.87" width="57.53" height="0.91"/><rect class="cls-137" x="99.91" y="135.97" width="57.53" height="0.91"/><rect class="cls-138" x="99.91" y="135.06" width="57.53" height="0.91"/><rect class="cls-139" x="99.91" y="134.15" width="57.53" height="0.91"/><rect class="cls-140" x="99.91" y="133.24" width="57.53" height="0.91"/><rect class="cls-141" x="99.91" y="132.33" width="57.53" height="0.91"/><rect class="cls-142" x="99.91" y="131.43" width="57.53" height="0.91"/><rect class="cls-143" x="99.91" y="130.52" width="57.53" height="0.91"/><rect class="cls-144" x="99.91" y="129.61" width="57.53" height="0.91"/><rect class="cls-145" x="99.91" y="128.7" width="57.53" height="0.91"/><rect class="cls-146" x="99.91" y="127.8" width="57.53" height="0.91"/><rect class="cls-147" x="99.91" y="126.89" width="57.53" height="0.91"/><rect class="cls-148" x="99.91" y="125.98" width="57.53" height="0.91"/><rect class="cls-149" x="99.91" y="125.07" width="57.53" height="0.91"/><rect class="cls-150" x="99.91" y="124.16" width="57.53" height="0.91"/><rect class="cls-151" x="99.91" y="123.26" width="57.53" height="0.91"/><rect class="cls-152" x="99.91" y="122.35" width="57.53" height="0.91"/><rect class="cls-153" x="99.91" y="121.44" width="57.53" height="0.91"/><rect class="cls-154" x="99.91" y="120.53" width="57.53" height="0.91"/><rect class="cls-155" x="99.91" y="119.63" width="57.53" height="0.91"/><rect class="cls-156" x="99.91" y="118.72" width="57.53" height="0.91"/><rect class="cls-157" x="99.91" y="117.81" width="57.53" height="0.91"/><rect class="cls-158" x="99.91" y="116.9" width="57.53" height="0.91"/><rect class="cls-159" x="99.91" y="115.99" width="57.53" height="0.91"/><rect class="cls-160" x="99.91" y="115.09" width="57.53" height="0.91"/><rect class="cls-161" x="99.91" y="114.18" width="57.53" height="0.91"/><rect class="cls-162" x="99.91" y="113.27" width="57.53" height="0.91"/><rect class="cls-163" x="99.91" y="112.36" width="57.53" height="0.91"/><rect class="cls-164" x="99.91" y="111.46" width="57.53" height="0.91"/><rect class="cls-165" x="99.91" y="110.55" width="57.53" height="0.91"/><rect class="cls-166" x="99.91" y="109.64" width="57.53" height="0.91"/><rect class="cls-167" x="99.91" y="108.73" width="57.53" height="0.91"/><rect class="cls-168" x="99.91" y="107.82" width="57.53" height="0.91"/><rect class="cls-169" x="99.91" y="106.92" width="57.53" height="0.91"/><rect class="cls-170" x="99.91" y="106.01" width="57.53" height="0.91"/><rect class="cls-171" x="99.91" y="105.1" width="57.53" height="0.91"/><rect class="cls-172" x="99.91" y="104.19" width="57.53" height="0.91"/><rect class="cls-173" x="99.91" y="103.29" width="57.53" height="0.91"/><rect class="cls-174" x="99.91" y="102.38" width="57.53" height="0.91"/><rect class="cls-175" x="99.91" y="101.47" width="57.53" height="0.91"/><rect class="cls-176" x="99.91" y="100.56" width="57.53" height="0.91"/><rect class="cls-177" x="99.91" y="99.66" width="57.53" height="0.91"/><rect class="cls-178" x="99.91" y="98.75" width="57.53" height="0.91"/><rect class="cls-179" x="99.91" y="97.84" width="57.53" height="0.91"/><rect class="cls-179" x="99.91" y="96.93" width="57.53" height="0.91"/><rect class="cls-180" x="99.91" y="96.02" width="57.53" height="0.91"/><rect class="cls-180" x="99.91" y="95.12" width="57.53" height="0.91"/><rect class="cls-181" x="99.91" y="94.21" width="57.53" height="0.91"/><rect class="cls-182" x="99.91" y="93.3" width="57.53" height="0.91"/><rect class="cls-182" x="99.91" y="92.39" width="57.53" height="0.91"/><rect class="cls-182" x="99.91" y="91.49" width="57.53" height="0.91"/><rect class="cls-183" x="99.91" y="90.58" width="57.53" height="0.91"/><rect class="cls-183" x="99.91" y="89.67" width="57.53" height="0.91"/><rect class="cls-183" x="99.91" y="88.76" width="57.53" height="0.91"/><rect class="cls-183" x="99.91" y="87.85" width="57.53" height="0.91"/><path class="cls-183" d="M439.43,514.06h0Z" transform="translate(-282 -426.21)"/></g><g class="cls-185"><path class="cls-133" d="M439.07,563.7h0Z" transform="translate(-282 -426.21)"/><rect class="cls-133" x="157.07" y="136.62" width="54.7" height="0.87"/><rect class="cls-134" x="157.07" y="135.74" width="54.7" height="0.87"/><rect class="cls-135" x="157.07" y="134.87" width="54.7" height="0.87"/><rect class="cls-136" x="157.07" y="133.99" width="54.7" height="0.87"/><rect class="cls-137" x="157.07" y="133.12" width="54.7" height="0.87"/><rect class="cls-138" x="157.07" y="132.24" width="54.7" height="0.87"/><rect class="cls-139" x="157.07" y="131.37" width="54.7" height="0.87"/><rect class="cls-140" x="157.07" y="130.49" width="54.7" height="0.87"/><rect class="cls-141" x="157.07" y="129.62" width="54.7" height="0.87"/><rect class="cls-142" x="157.07" y="128.74" width="54.7" height="0.87"/><rect class="cls-143" x="157.07" y="127.87" width="54.7" height="0.87"/><rect class="cls-144" x="157.07" y="126.99" width="54.7" height="0.87"/><rect class="cls-145" x="157.07" y="126.12" width="54.7" height="0.87"/><rect class="cls-146" x="157.07" y="125.24" width="54.7" height="0.87"/><rect class="cls-147" x="157.07" y="124.37" width="54.7" height="0.87"/><rect class="cls-148" x="157.07" y="123.49" width="54.7" height="0.87"/><rect class="cls-149" x="157.07" y="122.62" width="54.7" height="0.87"/><rect class="cls-150" x="157.07" y="121.74" width="54.7" height="0.87"/><rect class="cls-151" x="157.07" y="120.87" width="54.7" height="0.87"/><rect class="cls-152" x="157.07" y="119.99" width="54.7" height="0.87"/><rect class="cls-153" x="157.07" y="119.12" width="54.7" height="0.87"/><rect class="cls-154" x="157.07" y="118.24" width="54.7" height="0.87"/><rect class="cls-155" x="157.07" y="117.37" width="54.7" height="0.87"/><rect class="cls-156" x="157.07" y="116.49" width="54.7" height="0.87"/><rect class="cls-157" x="157.07" y="115.62" width="54.7" height="0.87"/><rect class="cls-158" x="157.07" y="114.74" width="54.7" height="0.87"/><rect class="cls-159" x="157.07" y="113.87" width="54.7" height="0.87"/><rect class="cls-160" x="157.07" y="112.99" width="54.7" height="0.87"/><rect class="cls-161" x="157.07" y="112.12" width="54.7" height="0.87"/><rect class="cls-162" x="157.07" y="111.25" width="54.7" height="0.87"/><rect class="cls-163" x="157.07" y="110.37" width="54.7" height="0.87"/><rect class="cls-164" x="157.07" y="109.5" width="54.7" height="0.87"/><rect class="cls-165" x="157.07" y="108.62" width="54.7" height="0.87"/><rect class="cls-166" x="157.07" y="107.75" width="54.7" height="0.87"/><rect class="cls-167" x="157.07" y="106.87" width="54.7" height="0.87"/><rect class="cls-168" x="157.07" y="106" width="54.7" height="0.87"/><rect class="cls-169" x="157.07" y="105.12" width="54.7" height="0.87"/><rect class="cls-170" x="157.07" y="104.25" width="54.7" height="0.87"/><rect class="cls-171" x="157.07" y="103.37" width="54.7" height="0.87"/><rect class="cls-172" x="157.07" y="102.5" width="54.7" height="0.87"/><rect class="cls-173" x="157.07" y="101.62" width="54.7" height="0.87"/><rect class="cls-174" x="157.07" y="100.75" width="54.7" height="0.87"/><rect class="cls-175" x="157.07" y="99.87" width="54.7" height="0.87"/><rect class="cls-176" x="157.07" y="99" width="54.7" height="0.87"/><rect class="cls-177" x="157.07" y="98.12" width="54.7" height="0.87"/><rect class="cls-178" x="157.07" y="97.25" width="54.7" height="0.87"/><rect class="cls-179" x="157.07" y="96.37" width="54.7" height="0.87"/><rect class="cls-179" x="157.07" y="95.5" width="54.7" height="0.87"/><rect class="cls-180" x="157.07" y="94.62" width="54.7" height="0.87"/><rect class="cls-180" x="157.07" y="93.75" width="54.7" height="0.87"/><rect class="cls-181" x="157.07" y="92.87" width="54.7" height="0.87"/><rect class="cls-182" x="157.07" y="92" width="54.7" height="0.87"/><rect class="cls-182" x="157.07" y="91.12" width="54.7" height="0.87"/><rect class="cls-182" x="157.07" y="90.25" width="54.7" height="0.87"/><rect class="cls-183" x="157.07" y="89.37" width="54.7" height="0.87"/><rect class="cls-183" x="157.07" y="88.5" width="54.7" height="0.87"/><rect class="cls-183" x="157.07" y="87.62" width="54.7" height="0.87"/><rect class="cls-183" x="157.07" y="86.75" width="54.7" height="0.87"/></g><g class="cls-186"><rect class="cls-134" x="221.34" y="138.4" width="26.43" height="0.5"/><rect class="cls-135" x="221.34" y="137.49" width="26.43" height="0.91"/><rect class="cls-136" x="221.34" y="136.58" width="26.43" height="0.91"/><rect class="cls-137" x="221.34" y="135.67" width="26.43" height="0.91"/><rect class="cls-138" x="221.34" y="134.76" width="26.43" height="0.91"/><rect class="cls-139" x="221.34" y="133.86" width="26.43" height="0.91"/><rect class="cls-140" x="221.34" y="132.95" width="26.43" height="0.91"/><rect class="cls-141" x="221.34" y="132.04" width="26.43" height="0.91"/><rect class="cls-142" x="221.34" y="131.13" width="26.43" height="0.91"/><rect class="cls-143" x="221.34" y="130.23" width="26.43" height="0.91"/><rect class="cls-144" x="221.34" y="129.32" width="26.43" height="0.91"/><rect class="cls-145" x="221.34" y="128.41" width="26.43" height="0.91"/><rect class="cls-146" x="221.34" y="127.5" width="26.43" height="0.91"/><rect class="cls-147" x="221.34" y="126.59" width="26.43" height="0.91"/><rect class="cls-148" x="221.34" y="125.69" width="26.43" height="0.91"/><rect class="cls-149" x="221.34" y="124.78" width="26.43" height="0.91"/><rect class="cls-150" x="221.34" y="123.87" width="26.43" height="0.91"/><rect class="cls-151" x="221.34" y="123.37" width="26.43" height="0.5"/><path class="cls-133" d="M492,566.42h0Z" transform="translate(-282 -426.21)"/><rect class="cls-133" x="210.03" y="139.3" width="48.19" height="0.91"/><rect class="cls-134" x="210.03" y="138.4" width="48.19" height="0.91"/><rect class="cls-135" x="210.03" y="137.49" width="48.19" height="0.91"/><rect class="cls-136" x="210.03" y="136.58" width="48.19" height="0.91"/><rect class="cls-137" x="210.03" y="135.67" width="48.19" height="0.91"/><rect class="cls-138" x="210.03" y="134.76" width="48.19" height="0.91"/><rect class="cls-139" x="210.03" y="133.86" width="48.19" height="0.91"/><rect class="cls-140" x="210.03" y="132.95" width="48.19" height="0.91"/><rect class="cls-141" x="210.03" y="132.04" width="48.19" height="0.91"/><rect class="cls-142" x="210.03" y="131.13" width="48.19" height="0.91"/><rect class="cls-143" x="210.03" y="130.23" width="48.19" height="0.91"/><rect class="cls-144" x="210.03" y="129.32" width="48.19" height="0.91"/><rect class="cls-145" x="210.03" y="128.41" width="48.19" height="0.91"/><rect class="cls-146" x="210.03" y="127.5" width="48.19" height="0.91"/><rect class="cls-147" x="210.03" y="126.59" width="48.19" height="0.91"/><rect class="cls-148" x="210.03" y="125.69" width="48.19" height="0.91"/><rect class="cls-149" x="210.03" y="124.78" width="48.19" height="0.91"/><rect class="cls-150" x="210.03" y="123.87" width="48.19" height="0.91"/><rect class="cls-151" x="210.03" y="122.96" width="48.19" height="0.91"/><rect class="cls-152" x="210.03" y="122.05" width="48.19" height="0.91"/><rect class="cls-153" x="210.03" y="121.15" width="48.19" height="0.91"/><rect class="cls-154" x="210.03" y="120.24" width="48.19" height="0.91"/><rect class="cls-155" x="210.03" y="119.33" width="48.19" height="0.91"/><rect class="cls-156" x="210.03" y="118.42" width="48.19" height="0.91"/><rect class="cls-157" x="210.03" y="117.51" width="48.19" height="0.91"/><rect class="cls-158" x="210.03" y="116.61" width="48.19" height="0.91"/><rect class="cls-159" x="210.03" y="115.7" width="48.19" height="0.91"/><rect class="cls-160" x="210.03" y="114.79" width="48.19" height="0.91"/><rect class="cls-161" x="210.03" y="113.88" width="48.19" height="0.91"/><rect class="cls-162" x="210.03" y="112.98" width="48.19" height="0.91"/><rect class="cls-163" x="210.03" y="112.07" width="48.19" height="0.91"/><rect class="cls-164" x="210.03" y="111.16" width="48.19" height="0.91"/><rect class="cls-165" x="210.03" y="110.25" width="48.19" height="0.91"/><rect class="cls-166" x="210.03" y="109.34" width="48.19" height="0.91"/><rect class="cls-167" x="210.03" y="108.44" width="48.19" height="0.91"/><rect class="cls-168" x="210.03" y="107.53" width="48.19" height="0.91"/><rect class="cls-169" x="210.03" y="106.62" width="48.19" height="0.91"/><rect class="cls-170" x="210.03" y="105.71" width="48.19" height="0.91"/><rect class="cls-171" x="210.03" y="104.8" width="48.19" height="0.91"/><rect class="cls-172" x="210.03" y="103.9" width="48.19" height="0.91"/><rect class="cls-173" x="210.03" y="102.99" width="48.19" height="0.91"/><rect class="cls-174" x="210.03" y="102.08" width="48.19" height="0.91"/><rect class="cls-175" x="210.03" y="101.17" width="48.19" height="0.91"/><rect class="cls-176" x="210.03" y="100.26" width="48.19" height="0.91"/><rect class="cls-177" x="210.03" y="99.36" width="48.19" height="0.91"/><rect class="cls-178" x="210.03" y="98.45" width="48.19" height="0.91"/><rect class="cls-179" x="210.03" y="97.54" width="48.19" height="0.91"/><rect class="cls-179" x="210.03" y="96.63" width="48.19" height="0.91"/><rect class="cls-180" x="210.03" y="95.73" width="48.19" height="0.91"/><rect class="cls-180" x="210.03" y="94.82" width="48.19" height="0.91"/><rect class="cls-181" x="210.03" y="93.91" width="48.19" height="0.91"/><rect class="cls-182" x="210.03" y="93" width="48.19" height="0.91"/><rect class="cls-182" x="210.03" y="92.09" width="48.19" height="0.91"/><rect class="cls-182" x="210.03" y="91.19" width="48.19" height="0.91"/><rect class="cls-183" x="210.03" y="90.28" width="48.19" height="0.91"/><rect class="cls-183" x="210.03" y="89.37" width="48.19" height="0.91"/><rect class="cls-183" x="210.03" y="88.46" width="48.19" height="0.91"/><rect class="cls-183" x="210.03" y="87.55" width="48.19" height="0.91"/><path class="cls-183" d="M540.22,513.76h0Z" transform="translate(-282 -426.21)"/></g><g class="cls-187"><rect class="cls-134" x="337.59" y="138.37" width="30.98" height="0.16"/><rect class="cls-135" x="337.59" y="136.97" width="30.98" height="1.39"/><rect class="cls-136" x="337.59" y="135.58" width="30.98" height="1.39"/><rect class="cls-137" x="337.59" y="134.19" width="30.98" height="1.39"/><rect class="cls-138" x="337.59" y="132.8" width="30.98" height="1.39"/><rect class="cls-139" x="337.59" y="131.41" width="30.98" height="1.39"/><rect class="cls-140" x="337.59" y="130.02" width="30.98" height="1.39"/><rect class="cls-141" x="337.59" y="128.62" width="30.98" height="1.39"/><rect class="cls-142" x="337.59" y="127.23" width="30.98" height="1.39"/><rect class="cls-143" x="337.59" y="125.84" width="30.98" height="1.39"/><rect class="cls-144" x="337.59" y="124.45" width="30.98" height="1.39"/><rect class="cls-145" x="337.59" y="123.06" width="30.98" height="1.39"/><rect class="cls-146" x="337.59" y="121.66" width="30.98" height="1.39"/><rect class="cls-147" x="337.59" y="120.27" width="30.98" height="1.39"/><rect class="cls-148" x="337.59" y="118.88" width="30.98" height="1.39"/><rect class="cls-149" x="337.59" y="117.49" width="30.98" height="1.39"/><rect class="cls-150" x="337.59" y="116.1" width="30.98" height="1.39"/><rect class="cls-151" x="337.59" y="114.71" width="30.98" height="1.39"/><rect class="cls-152" x="337.59" y="113.31" width="30.98" height="1.39"/><rect class="cls-153" x="337.59" y="111.92" width="30.98" height="1.39"/><rect class="cls-154" x="337.59" y="110.53" width="30.98" height="1.39"/><rect class="cls-155" x="337.59" y="109.14" width="30.98" height="1.39"/><rect class="cls-156" x="337.59" y="107.75" width="30.98" height="1.39"/><rect class="cls-157" x="337.59" y="106.36" width="30.98" height="1.39"/><rect class="cls-158" x="337.59" y="104.96" width="30.98" height="1.39"/><rect class="cls-159" x="337.59" y="103.57" width="30.98" height="1.39"/><rect class="cls-160" x="337.59" y="102.18" width="30.98" height="1.39"/><rect class="cls-161" x="337.59" y="100.79" width="30.98" height="1.39"/><rect class="cls-162" x="337.59" y="99.4" width="30.98" height="1.39"/><rect class="cls-163" x="337.59" y="98" width="30.98" height="1.39"/><rect class="cls-164" x="337.59" y="96.61" width="30.98" height="1.39"/><rect class="cls-165" x="337.59" y="95.22" width="30.98" height="1.39"/><rect class="cls-166" x="337.59" y="93.83" width="30.98" height="1.39"/><rect class="cls-167" x="337.59" y="92.44" width="30.98" height="1.39"/><rect class="cls-168" x="337.59" y="91.05" width="30.98" height="1.39"/><rect class="cls-169" x="337.59" y="89.65" width="30.98" height="1.39"/><rect class="cls-170" x="337.59" y="89.21" width="30.98" height="0.44"/><path class="cls-133" d="M600.66,567.35h0Z" transform="translate(-282 -426.21)"/><rect class="cls-133" x="318.66" y="139.76" width="60.6" height="1.39"/><rect class="cls-134" x="318.66" y="138.37" width="60.6" height="1.39"/><rect class="cls-135" x="318.66" y="136.97" width="60.6" height="1.39"/><rect class="cls-136" x="318.66" y="135.58" width="60.6" height="1.39"/><rect class="cls-137" x="318.66" y="134.19" width="60.6" height="1.39"/><rect class="cls-138" x="318.66" y="132.8" width="60.6" height="1.39"/><rect class="cls-139" x="318.66" y="131.41" width="60.6" height="1.39"/><rect class="cls-140" x="318.66" y="130.02" width="60.6" height="1.39"/><rect class="cls-141" x="318.66" y="128.62" width="60.6" height="1.39"/><rect class="cls-142" x="318.66" y="127.23" width="60.6" height="1.39"/><rect class="cls-143" x="318.66" y="125.84" width="60.6" height="1.39"/><rect class="cls-144" x="318.66" y="124.45" width="60.6" height="1.39"/><rect class="cls-145" x="318.66" y="123.06" width="60.6" height="1.39"/><rect class="cls-146" x="318.66" y="121.66" width="60.6" height="1.39"/><rect class="cls-147" x="318.66" y="120.27" width="60.6" height="1.39"/><rect class="cls-148" x="318.66" y="118.88" width="60.6" height="1.39"/><rect class="cls-149" x="318.66" y="117.49" width="60.6" height="1.39"/><rect class="cls-150" x="318.66" y="116.1" width="60.6" height="1.39"/><rect class="cls-151" x="318.66" y="114.71" width="60.6" height="1.39"/><rect class="cls-152" x="318.66" y="113.31" width="60.6" height="1.39"/><rect class="cls-153" x="318.66" y="111.92" width="60.6" height="1.39"/><rect class="cls-154" x="318.66" y="110.53" width="60.6" height="1.39"/><rect class="cls-155" x="318.66" y="109.14" width="60.6" height="1.39"/><rect class="cls-156" x="318.66" y="107.75" width="60.6" height="1.39"/><rect class="cls-157" x="318.66" y="106.36" width="60.6" height="1.39"/><rect class="cls-158" x="318.66" y="104.96" width="60.6" height="1.39"/><rect class="cls-159" x="318.66" y="103.57" width="60.6" height="1.39"/><rect class="cls-160" x="318.66" y="102.18" width="60.6" height="1.39"/><rect class="cls-161" x="318.66" y="100.79" width="60.6" height="1.39"/><rect class="cls-162" x="318.66" y="99.4" width="60.6" height="1.39"/><rect class="cls-163" x="318.66" y="98" width="60.6" height="1.39"/><rect class="cls-164" x="318.66" y="96.61" width="60.6" height="1.39"/><rect class="cls-165" x="318.66" y="95.22" width="60.6" height="1.39"/><rect class="cls-166" x="318.66" y="93.83" width="60.6" height="1.39"/><rect class="cls-167" x="318.66" y="92.44" width="60.6" height="1.39"/><rect class="cls-168" x="318.66" y="91.05" width="60.6" height="1.39"/><rect class="cls-169" x="318.66" y="89.65" width="60.6" height="1.39"/><rect class="cls-170" x="318.66" y="88.26" width="60.6" height="1.39"/><rect class="cls-171" x="318.66" y="86.87" width="60.6" height="1.39"/><rect class="cls-172" x="318.66" y="85.48" width="60.6" height="1.39"/><rect class="cls-173" x="318.66" y="84.09" width="60.6" height="1.39"/><rect class="cls-174" x="318.66" y="82.69" width="60.6" height="1.39"/><rect class="cls-175" x="318.66" y="81.3" width="60.6" height="1.39"/><rect class="cls-176" x="318.66" y="79.91" width="60.6" height="1.39"/><rect class="cls-177" x="318.66" y="78.52" width="60.6" height="1.39"/><rect class="cls-178" x="318.66" y="77.13" width="60.6" height="1.39"/><rect class="cls-179" x="318.66" y="75.74" width="60.6" height="1.39"/><rect class="cls-179" x="318.66" y="74.34" width="60.6" height="1.39"/><rect class="cls-180" x="318.66" y="72.95" width="60.6" height="1.39"/><rect class="cls-180" x="318.66" y="71.56" width="60.6" height="1.39"/><rect class="cls-181" x="318.66" y="70.17" width="60.6" height="1.39"/><rect class="cls-182" x="318.66" y="68.78" width="60.6" height="1.39"/><rect class="cls-182" x="318.66" y="67.39" width="60.6" height="1.39"/><rect class="cls-182" x="318.66" y="65.99" width="60.6" height="1.39"/><rect class="cls-183" x="318.66" y="64.6" width="60.6" height="1.39"/><rect class="cls-183" x="318.66" y="63.21" width="60.6" height="1.39"/><rect class="cls-183" x="318.66" y="61.82" width="60.6" height="1.39"/><rect class="cls-183" x="318.66" y="60.43" width="60.6" height="1.39"/></g><g class="cls-188"><rect class="cls-134" x="397.74" y="138.38" width="26.43" height="0.5"/><rect class="cls-135" x="397.74" y="137.47" width="26.43" height="0.91"/><rect class="cls-136" x="397.74" y="136.57" width="26.43" height="0.91"/><rect class="cls-137" x="397.74" y="135.66" width="26.43" height="0.91"/><rect class="cls-138" x="397.74" y="134.75" width="26.43" height="0.91"/><rect class="cls-139" x="397.74" y="133.84" width="26.43" height="0.91"/><rect class="cls-140" x="397.74" y="132.93" width="26.43" height="0.91"/><rect class="cls-141" x="397.74" y="132.03" width="26.43" height="0.91"/><rect class="cls-142" x="397.74" y="131.12" width="26.43" height="0.91"/><rect class="cls-143" x="397.74" y="130.21" width="26.43" height="0.91"/><rect class="cls-144" x="397.74" y="129.3" width="26.43" height="0.91"/><rect class="cls-145" x="397.74" y="128.4" width="26.43" height="0.91"/><rect class="cls-146" x="397.74" y="127.49" width="26.43" height="0.91"/><rect class="cls-147" x="397.74" y="126.58" width="26.43" height="0.91"/><rect class="cls-148" x="397.74" y="125.67" width="26.43" height="0.91"/><rect class="cls-149" x="397.74" y="124.76" width="26.43" height="0.91"/><rect class="cls-150" x="397.74" y="123.86" width="26.43" height="0.91"/><rect class="cls-151" x="397.74" y="123.36" width="26.43" height="0.5"/><path class="cls-133" d="M668.44,566.4h0Z" transform="translate(-282 -426.21)"/><rect class="cls-133" x="386.44" y="139.29" width="48.19" height="0.91"/><rect class="cls-134" x="386.44" y="138.38" width="48.19" height="0.91"/><rect class="cls-135" x="386.44" y="137.47" width="48.19" height="0.91"/><rect class="cls-136" x="386.44" y="136.57" width="48.19" height="0.91"/><rect class="cls-137" x="386.44" y="135.66" width="48.19" height="0.91"/><rect class="cls-138" x="386.44" y="134.75" width="48.19" height="0.91"/><rect class="cls-139" x="386.44" y="133.84" width="48.19" height="0.91"/><rect class="cls-140" x="386.44" y="132.93" width="48.19" height="0.91"/><rect class="cls-141" x="386.44" y="132.03" width="48.19" height="0.91"/><rect class="cls-142" x="386.44" y="131.12" width="48.19" height="0.91"/><rect class="cls-143" x="386.44" y="130.21" width="48.19" height="0.91"/><rect class="cls-144" x="386.44" y="129.3" width="48.19" height="0.91"/><rect class="cls-145" x="386.44" y="128.4" width="48.19" height="0.91"/><rect class="cls-146" x="386.44" y="127.49" width="48.19" height="0.91"/><rect class="cls-147" x="386.44" y="126.58" width="48.19" height="0.91"/><rect class="cls-148" x="386.44" y="125.67" width="48.19" height="0.91"/><rect class="cls-149" x="386.44" y="124.76" width="48.19" height="0.91"/><rect class="cls-150" x="386.44" y="123.86" width="48.19" height="0.91"/><rect class="cls-151" x="386.44" y="122.95" width="48.19" height="0.91"/><rect class="cls-152" x="386.44" y="122.04" width="48.19" height="0.91"/><rect class="cls-153" x="386.44" y="121.13" width="48.19" height="0.91"/><rect class="cls-154" x="386.44" y="120.23" width="48.19" height="0.91"/><rect class="cls-155" x="386.44" y="119.32" width="48.19" height="0.91"/><rect class="cls-156" x="386.44" y="118.41" width="48.19" height="0.91"/><rect class="cls-157" x="386.44" y="117.5" width="48.19" height="0.91"/><rect class="cls-158" x="386.44" y="116.6" width="48.19" height="0.91"/><rect class="cls-159" x="386.44" y="115.69" width="48.19" height="0.91"/><rect class="cls-160" x="386.44" y="114.78" width="48.19" height="0.91"/><rect class="cls-161" x="386.44" y="113.87" width="48.19" height="0.91"/><rect class="cls-162" x="386.44" y="112.96" width="48.19" height="0.91"/><rect class="cls-163" x="386.44" y="112.06" width="48.19" height="0.91"/><rect class="cls-164" x="386.44" y="111.15" width="48.19" height="0.91"/><rect class="cls-165" x="386.44" y="110.24" width="48.19" height="0.91"/><rect class="cls-166" x="386.44" y="109.33" width="48.19" height="0.91"/><rect class="cls-167" x="386.44" y="108.43" width="48.19" height="0.91"/><rect class="cls-168" x="386.44" y="107.52" width="48.19" height="0.91"/><rect class="cls-169" x="386.44" y="106.61" width="48.19" height="0.91"/><rect class="cls-170" x="386.44" y="105.7" width="48.19" height="0.91"/><rect class="cls-171" x="386.44" y="104.79" width="48.19" height="0.91"/><rect class="cls-172" x="386.44" y="103.89" width="48.19" height="0.91"/><rect class="cls-173" x="386.44" y="102.98" width="48.19" height="0.91"/><rect class="cls-174" x="386.44" y="102.07" width="48.19" height="0.91"/><rect class="cls-175" x="386.44" y="101.16" width="48.19" height="0.91"/><rect class="cls-176" x="386.44" y="100.26" width="48.19" height="0.91"/><rect class="cls-177" x="386.44" y="99.35" width="48.19" height="0.91"/><rect class="cls-178" x="386.44" y="98.44" width="48.19" height="0.91"/><rect class="cls-179" x="386.44" y="97.53" width="48.19" height="0.91"/><rect class="cls-179" x="386.44" y="96.62" width="48.19" height="0.91"/><rect class="cls-180" x="386.44" y="95.72" width="48.19" height="0.91"/><rect class="cls-180" x="386.44" y="94.81" width="48.19" height="0.91"/><rect class="cls-181" x="386.44" y="93.9" width="48.19" height="0.91"/><rect class="cls-182" x="386.44" y="92.99" width="48.19" height="0.91"/><rect class="cls-182" x="386.44" y="92.09" width="48.19" height="0.91"/><rect class="cls-182" x="386.44" y="91.18" width="48.19" height="0.91"/><rect class="cls-183" x="386.44" y="90.27" width="48.19" height="0.91"/><rect class="cls-183" x="386.44" y="89.36" width="48.19" height="0.91"/><rect class="cls-183" x="386.44" y="88.45" width="48.19" height="0.91"/><rect class="cls-183" x="386.44" y="87.55" width="48.19" height="0.91"/><path class="cls-183" d="M716.62,513.75h0Z" transform="translate(-282 -426.21)"/></g><g class="cls-189"><path class="cls-133" d="M719.56,564.31h0Z" transform="translate(-282 -426.21)"/><rect class="cls-133" x="437.56" y="137.22" width="42.22" height="0.89"/><rect class="cls-134" x="437.56" y="136.33" width="42.22" height="0.89"/><rect class="cls-135" x="437.56" y="135.44" width="42.22" height="0.89"/><rect class="cls-136" x="437.56" y="134.55" width="42.22" height="0.89"/><rect class="cls-137" x="437.56" y="133.66" width="42.22" height="0.89"/><rect class="cls-138" x="437.56" y="132.77" width="42.22" height="0.89"/><rect class="cls-139" x="437.56" y="131.88" width="42.22" height="0.89"/><rect class="cls-140" x="437.56" y="130.99" width="42.22" height="0.89"/><rect class="cls-141" x="437.56" y="130.1" width="42.22" height="0.89"/><rect class="cls-142" x="437.56" y="129.21" width="42.22" height="0.89"/><rect class="cls-143" x="437.56" y="128.32" width="42.22" height="0.89"/><rect class="cls-144" x="437.56" y="127.43" width="42.22" height="0.89"/><rect class="cls-145" x="437.56" y="126.55" width="42.22" height="0.89"/><rect class="cls-146" x="437.56" y="125.66" width="42.22" height="0.89"/><rect class="cls-147" x="437.56" y="124.77" width="42.22" height="0.89"/><rect class="cls-148" x="437.56" y="123.88" width="42.22" height="0.89"/><rect class="cls-149" x="437.56" y="122.99" width="42.22" height="0.89"/><rect class="cls-150" x="437.56" y="122.1" width="42.22" height="0.89"/><rect class="cls-151" x="437.56" y="121.21" width="42.22" height="0.89"/><rect class="cls-152" x="437.56" y="120.32" width="42.22" height="0.89"/><rect class="cls-153" x="437.56" y="119.43" width="42.22" height="0.89"/><rect class="cls-154" x="437.56" y="118.54" width="42.22" height="0.89"/><rect class="cls-155" x="437.56" y="117.65" width="42.22" height="0.89"/><rect class="cls-156" x="437.56" y="116.76" width="42.22" height="0.89"/><rect class="cls-157" x="437.56" y="115.87" width="42.22" height="0.89"/><rect class="cls-158" x="437.56" y="114.98" width="42.22" height="0.89"/><rect class="cls-159" x="437.56" y="114.09" width="42.22" height="0.89"/><rect class="cls-160" x="437.56" y="113.21" width="42.22" height="0.89"/><rect class="cls-161" x="437.56" y="112.32" width="42.22" height="0.89"/><rect class="cls-162" x="437.56" y="111.43" width="42.22" height="0.89"/><rect class="cls-163" x="437.56" y="110.54" width="42.22" height="0.89"/><rect class="cls-164" x="437.56" y="109.65" width="42.22" height="0.89"/><rect class="cls-165" x="437.56" y="108.76" width="42.22" height="0.89"/><rect class="cls-166" x="437.56" y="107.87" width="42.22" height="0.89"/><rect class="cls-167" x="437.56" y="106.98" width="42.22" height="0.89"/><rect class="cls-168" x="437.56" y="106.09" width="42.22" height="0.89"/><rect class="cls-169" x="437.56" y="105.2" width="42.22" height="0.89"/><rect class="cls-170" x="437.56" y="104.31" width="42.22" height="0.89"/><rect class="cls-171" x="437.56" y="103.42" width="42.22" height="0.89"/><rect class="cls-172" x="437.56" y="102.53" width="42.22" height="0.89"/><rect class="cls-173" x="437.56" y="101.64" width="42.22" height="0.89"/><rect class="cls-174" x="437.56" y="100.75" width="42.22" height="0.89"/><rect class="cls-175" x="437.56" y="99.87" width="42.22" height="0.89"/><rect class="cls-176" x="437.56" y="98.98" width="42.22" height="0.89"/><rect class="cls-177" x="437.56" y="98.09" width="42.22" height="0.89"/><rect class="cls-178" x="437.56" y="97.2" width="42.22" height="0.89"/><rect class="cls-179" x="437.56" y="96.31" width="42.22" height="0.89"/><rect class="cls-179" x="437.56" y="95.42" width="42.22" height="0.89"/><rect class="cls-180" x="437.56" y="94.53" width="42.22" height="0.89"/><rect class="cls-180" x="437.56" y="93.64" width="42.22" height="0.89"/><rect class="cls-181" x="437.56" y="92.75" width="42.22" height="0.89"/><rect class="cls-182" x="437.56" y="91.86" width="42.22" height="0.89"/><rect class="cls-182" x="437.56" y="90.97" width="42.22" height="0.89"/><rect class="cls-182" x="437.56" y="90.08" width="42.22" height="0.89"/><rect class="cls-183" x="437.56" y="89.19" width="42.22" height="0.89"/><rect class="cls-183" x="437.56" y="88.3" width="42.22" height="0.89"/><rect class="cls-183" x="437.56" y="87.41" width="42.22" height="0.89"/><rect class="cls-183" x="437.56" y="86.53" width="42.22" height="0.89"/></g><g class="cls-190"><path class="cls-133" d="M763.32,596.78h0Z" transform="translate(-282 -426.21)"/><rect class="cls-133" x="481.32" y="169.13" width="43.7" height="1.45"/><rect class="cls-134" x="481.32" y="167.68" width="43.7" height="1.45"/><rect class="cls-135" x="481.32" y="166.23" width="43.7" height="1.45"/><rect class="cls-136" x="481.32" y="164.78" width="43.7" height="1.45"/><rect class="cls-137" x="481.32" y="163.33" width="43.7" height="1.45"/><rect class="cls-138" x="481.32" y="161.88" width="43.7" height="1.45"/><rect class="cls-139" x="481.32" y="160.43" width="43.7" height="1.45"/><rect class="cls-140" x="481.32" y="158.98" width="43.7" height="1.45"/><rect class="cls-141" x="481.32" y="157.53" width="43.7" height="1.45"/><rect class="cls-142" x="481.32" y="156.08" width="43.7" height="1.45"/><rect class="cls-143" x="481.32" y="154.63" width="43.7" height="1.45"/><rect class="cls-144" x="481.32" y="153.18" width="43.7" height="1.45"/><rect class="cls-145" x="481.32" y="151.74" width="43.7" height="1.45"/><rect class="cls-146" x="481.32" y="150.29" width="43.7" height="1.45"/><rect class="cls-147" x="481.32" y="148.84" width="43.7" height="1.45"/><rect class="cls-148" x="481.32" y="147.39" width="43.7" height="1.45"/><rect class="cls-149" x="481.32" y="145.94" width="43.7" height="1.45"/><rect class="cls-150" x="481.32" y="144.49" width="43.7" height="1.45"/><rect class="cls-151" x="481.32" y="143.04" width="43.7" height="1.45"/><rect class="cls-152" x="481.32" y="141.59" width="43.7" height="1.45"/><rect class="cls-153" x="481.32" y="140.14" width="43.7" height="1.45"/><rect class="cls-154" x="481.32" y="138.69" width="43.7" height="1.45"/><rect class="cls-155" x="481.32" y="137.24" width="43.7" height="1.45"/><rect class="cls-156" x="481.32" y="135.8" width="43.7" height="1.45"/><rect class="cls-157" x="481.32" y="134.35" width="43.7" height="1.45"/><rect class="cls-158" x="481.32" y="132.9" width="43.7" height="1.45"/><rect class="cls-159" x="481.32" y="131.45" width="43.7" height="1.45"/><rect class="cls-160" x="481.32" y="130" width="43.7" height="1.45"/><rect class="cls-161" x="481.32" y="128.55" width="43.7" height="1.45"/><rect class="cls-162" x="481.32" y="127.1" width="43.7" height="1.45"/><rect class="cls-163" x="481.32" y="125.65" width="43.7" height="1.45"/><rect class="cls-164" x="481.32" y="124.2" width="43.7" height="1.45"/><rect class="cls-165" x="481.32" y="122.75" width="43.7" height="1.45"/><rect class="cls-166" x="481.32" y="121.3" width="43.7" height="1.45"/><rect class="cls-167" x="481.32" y="119.85" width="43.7" height="1.45"/><rect class="cls-168" x="481.32" y="118.41" width="43.7" height="1.45"/><rect class="cls-169" x="481.32" y="116.96" width="43.7" height="1.45"/><rect class="cls-170" x="481.32" y="115.51" width="43.7" height="1.45"/><rect class="cls-171" x="481.32" y="114.06" width="43.7" height="1.45"/><rect class="cls-172" x="481.32" y="112.61" width="43.7" height="1.45"/><rect class="cls-173" x="481.32" y="111.16" width="43.7" height="1.45"/><rect class="cls-174" x="481.32" y="109.71" width="43.7" height="1.45"/><rect class="cls-175" x="481.32" y="108.26" width="43.7" height="1.45"/><rect class="cls-176" x="481.32" y="106.81" width="43.7" height="1.45"/><rect class="cls-177" x="481.32" y="105.36" width="43.7" height="1.45"/><rect class="cls-178" x="481.32" y="103.91" width="43.7" height="1.45"/><rect class="cls-179" x="481.32" y="102.47" width="43.7" height="1.45"/><rect class="cls-179" x="481.32" y="101.02" width="43.7" height="1.45"/><rect class="cls-180" x="481.32" y="99.57" width="43.7" height="1.45"/><rect class="cls-180" x="481.32" y="98.12" width="43.7" height="1.45"/><rect class="cls-181" x="481.32" y="96.67" width="43.7" height="1.45"/><rect class="cls-182" x="481.32" y="95.22" width="43.7" height="1.45"/><rect class="cls-182" x="481.32" y="93.77" width="43.7" height="1.45"/><rect class="cls-182" x="481.32" y="92.32" width="43.7" height="1.45"/><rect class="cls-183" x="481.32" y="90.87" width="43.7" height="1.45"/><rect class="cls-183" x="481.32" y="89.42" width="43.7" height="1.45"/><rect class="cls-183" x="481.32" y="87.97" width="43.7" height="1.45"/><rect class="cls-183" x="481.32" y="86.53" width="43.7" height="1.45"/></g><g class="cls-191"><rect class="cls-134" x="525.9" y="138.38" width="35.16" height="0.5"/><rect class="cls-135" x="525.9" y="137.47" width="35.16" height="0.91"/><rect class="cls-136" x="525.9" y="136.57" width="35.16" height="0.91"/><rect class="cls-137" x="525.9" y="135.66" width="35.16" height="0.91"/><rect class="cls-138" x="525.9" y="134.75" width="35.16" height="0.91"/><rect class="cls-139" x="525.9" y="133.84" width="35.16" height="0.91"/><rect class="cls-140" x="525.9" y="132.93" width="35.16" height="0.91"/><rect class="cls-141" x="525.9" y="132.03" width="35.16" height="0.91"/><rect class="cls-142" x="525.9" y="131.12" width="35.16" height="0.91"/><rect class="cls-143" x="525.9" y="130.21" width="35.16" height="0.91"/><rect class="cls-144" x="525.9" y="129.3" width="35.16" height="0.91"/><rect class="cls-145" x="525.9" y="128.4" width="35.16" height="0.91"/><rect class="cls-146" x="525.9" y="127.49" width="35.16" height="0.91"/><rect class="cls-147" x="525.9" y="126.58" width="35.16" height="0.91"/><rect class="cls-148" x="525.9" y="125.67" width="35.16" height="0.91"/><rect class="cls-149" x="525.9" y="124.76" width="35.16" height="0.91"/><rect class="cls-150" x="525.9" y="123.86" width="35.16" height="0.91"/><rect class="cls-151" x="525.9" y="122.95" width="35.16" height="0.91"/><rect class="cls-152" x="525.9" y="122.04" width="35.16" height="0.91"/><rect class="cls-153" x="525.9" y="121.13" width="35.16" height="0.91"/><rect class="cls-154" x="525.9" y="120.23" width="35.16" height="0.91"/><rect class="cls-155" x="525.9" y="119.32" width="35.16" height="0.91"/><rect class="cls-156" x="525.9" y="118.41" width="35.16" height="0.91"/><rect class="cls-157" x="525.9" y="117.5" width="35.16" height="0.91"/><rect class="cls-158" x="525.9" y="116.6" width="35.16" height="0.91"/><rect class="cls-159" x="525.9" y="115.69" width="35.16" height="0.91"/><rect class="cls-160" x="525.9" y="114.78" width="35.16" height="0.91"/><rect class="cls-161" x="525.9" y="113.87" width="35.16" height="0.91"/><rect class="cls-162" x="525.9" y="112.96" width="35.16" height="0.91"/><rect class="cls-163" x="525.9" y="112.06" width="35.16" height="0.91"/><rect class="cls-164" x="525.9" y="111.15" width="35.16" height="0.91"/><rect class="cls-165" x="525.9" y="110.24" width="35.16" height="0.91"/><rect class="cls-166" x="525.9" y="109.33" width="35.16" height="0.91"/><rect class="cls-167" x="525.9" y="108.43" width="35.16" height="0.91"/><rect class="cls-168" x="525.9" y="107.52" width="35.16" height="0.91"/><rect class="cls-169" x="525.9" y="106.61" width="35.16" height="0.91"/><rect class="cls-170" x="525.9" y="105.7" width="35.16" height="0.91"/><rect class="cls-171" x="525.9" y="104.79" width="35.16" height="0.91"/><rect class="cls-172" x="525.9" y="103.89" width="35.16" height="0.91"/><rect class="cls-173" x="525.9" y="102.98" width="35.16" height="0.91"/><rect class="cls-174" x="525.9" y="102.07" width="35.16" height="0.91"/><rect class="cls-175" x="525.9" y="101.16" width="35.16" height="0.91"/><rect class="cls-176" x="525.9" y="100.26" width="35.16" height="0.91"/><rect class="cls-177" x="525.9" y="99.35" width="35.16" height="0.91"/><rect class="cls-178" x="525.9" y="98.44" width="35.16" height="0.91"/><rect class="cls-179" x="525.9" y="97.53" width="35.16" height="0.91"/><rect class="cls-179" x="525.9" y="96.62" width="35.16" height="0.91"/><rect class="cls-180" x="525.9" y="95.72" width="35.16" height="0.91"/><rect class="cls-180" x="525.9" y="94.81" width="35.16" height="0.91"/><rect class="cls-181" x="525.9" y="93.9" width="35.16" height="0.91"/><rect class="cls-182" x="525.9" y="92.99" width="35.16" height="0.91"/><rect class="cls-182" x="525.9" y="92.09" width="35.16" height="0.91"/><rect class="cls-182" x="525.9" y="91.18" width="35.16" height="0.91"/><rect class="cls-183" x="525.9" y="90.27" width="35.16" height="0.91"/><rect class="cls-183" x="525.9" y="89.36" width="35.16" height="0.91"/><rect class="cls-183" x="525.9" y="88.86" width="35.16" height="0.5"/><path class="cls-133" d="M796.72,566.4h0Z" transform="translate(-282 -426.21)"/><rect class="cls-133" x="514.72" y="139.29" width="57.53" height="0.91"/><rect class="cls-134" x="514.72" y="138.38" width="57.53" height="0.91"/><rect class="cls-135" x="514.72" y="137.47" width="57.53" height="0.91"/><rect class="cls-136" x="514.72" y="136.57" width="57.53" height="0.91"/><rect class="cls-137" x="514.72" y="135.66" width="57.53" height="0.91"/><rect class="cls-138" x="514.72" y="134.75" width="57.53" height="0.91"/><rect class="cls-139" x="514.72" y="133.84" width="57.53" height="0.91"/><rect class="cls-140" x="514.72" y="132.93" width="57.53" height="0.91"/><rect class="cls-141" x="514.72" y="132.03" width="57.53" height="0.91"/><rect class="cls-142" x="514.72" y="131.12" width="57.53" height="0.91"/><rect class="cls-143" x="514.72" y="130.21" width="57.53" height="0.91"/><rect class="cls-144" x="514.72" y="129.3" width="57.53" height="0.91"/><rect class="cls-145" x="514.72" y="128.4" width="57.53" height="0.91"/><rect class="cls-146" x="514.72" y="127.49" width="57.53" height="0.91"/><rect class="cls-147" x="514.72" y="126.58" width="57.53" height="0.91"/><rect class="cls-148" x="514.72" y="125.67" width="57.53" height="0.91"/><rect class="cls-149" x="514.72" y="124.76" width="57.53" height="0.91"/><rect class="cls-150" x="514.72" y="123.86" width="57.53" height="0.91"/><rect class="cls-151" x="514.72" y="122.95" width="57.53" height="0.91"/><rect class="cls-152" x="514.72" y="122.04" width="57.53" height="0.91"/><rect class="cls-153" x="514.72" y="121.13" width="57.53" height="0.91"/><rect class="cls-154" x="514.72" y="120.23" width="57.53" height="0.91"/><rect class="cls-155" x="514.72" y="119.32" width="57.53" height="0.91"/><rect class="cls-156" x="514.72" y="118.41" width="57.53" height="0.91"/><rect class="cls-157" x="514.72" y="117.5" width="57.53" height="0.91"/><rect class="cls-158" x="514.72" y="116.6" width="57.53" height="0.91"/><rect class="cls-159" x="514.72" y="115.69" width="57.53" height="0.91"/><rect class="cls-160" x="514.72" y="114.78" width="57.53" height="0.91"/><rect class="cls-161" x="514.72" y="113.87" width="57.53" height="0.91"/><rect class="cls-162" x="514.72" y="112.96" width="57.53" height="0.91"/><rect class="cls-163" x="514.72" y="112.06" width="57.53" height="0.91"/><rect class="cls-164" x="514.72" y="111.15" width="57.53" height="0.91"/><rect class="cls-165" x="514.72" y="110.24" width="57.53" height="0.91"/><rect class="cls-166" x="514.72" y="109.33" width="57.53" height="0.91"/><rect class="cls-167" x="514.72" y="108.43" width="57.53" height="0.91"/><rect class="cls-168" x="514.72" y="107.52" width="57.53" height="0.91"/><rect class="cls-169" x="514.72" y="106.61" width="57.53" height="0.91"/><rect class="cls-170" x="514.72" y="105.7" width="57.53" height="0.91"/><rect class="cls-171" x="514.72" y="104.79" width="57.53" height="0.91"/><rect class="cls-172" x="514.72" y="103.89" width="57.53" height="0.91"/><rect class="cls-173" x="514.72" y="102.98" width="57.53" height="0.91"/><rect class="cls-174" x="514.72" y="102.07" width="57.53" height="0.91"/><rect class="cls-175" x="514.72" y="101.16" width="57.53" height="0.91"/><rect class="cls-176" x="514.72" y="100.26" width="57.53" height="0.91"/><rect class="cls-177" x="514.72" y="99.35" width="57.53" height="0.91"/><rect class="cls-178" x="514.72" y="98.44" width="57.53" height="0.91"/><rect class="cls-179" x="514.72" y="97.53" width="57.53" height="0.91"/><rect class="cls-179" x="514.72" y="96.62" width="57.53" height="0.91"/><rect class="cls-180" x="514.72" y="95.72" width="57.53" height="0.91"/><rect class="cls-180" x="514.72" y="94.81" width="57.53" height="0.91"/><rect class="cls-181" x="514.72" y="93.9" width="57.53" height="0.91"/><rect class="cls-182" x="514.72" y="92.99" width="57.53" height="0.91"/><rect class="cls-182" x="514.72" y="92.09" width="57.53" height="0.91"/><rect class="cls-182" x="514.72" y="91.18" width="57.53" height="0.91"/><rect class="cls-183" x="514.72" y="90.27" width="57.53" height="0.91"/><rect class="cls-183" x="514.72" y="89.36" width="57.53" height="0.91"/><rect class="cls-183" x="514.72" y="88.45" width="57.53" height="0.91"/><rect class="cls-183" x="514.72" y="87.55" width="57.53" height="0.91"/><path class="cls-183" d="M854.25,513.75h0Z" transform="translate(-282 -426.21)"/></g><g class="cls-192"><path class="cls-133" d="M856.14,564.31h0Z" transform="translate(-282 -426.21)"/><rect class="cls-133" x="574.14" y="137.22" width="42.22" height="0.89"/><rect class="cls-134" x="574.14" y="136.33" width="42.22" height="0.89"/><rect class="cls-135" x="574.14" y="135.44" width="42.22" height="0.89"/><rect class="cls-136" x="574.14" y="134.55" width="42.22" height="0.89"/><rect class="cls-137" x="574.14" y="133.66" width="42.22" height="0.89"/><rect class="cls-138" x="574.14" y="132.77" width="42.22" height="0.89"/><rect class="cls-139" x="574.14" y="131.88" width="42.22" height="0.89"/><rect class="cls-140" x="574.14" y="130.99" width="42.22" height="0.89"/><rect class="cls-141" x="574.14" y="130.1" width="42.22" height="0.89"/><rect class="cls-142" x="574.14" y="129.21" width="42.22" height="0.89"/><rect class="cls-143" x="574.14" y="128.32" width="42.22" height="0.89"/><rect class="cls-144" x="574.14" y="127.43" width="42.22" height="0.89"/><rect class="cls-145" x="574.14" y="126.55" width="42.22" height="0.89"/><rect class="cls-146" x="574.14" y="125.66" width="42.22" height="0.89"/><rect class="cls-147" x="574.14" y="124.77" width="42.22" height="0.89"/><rect class="cls-148" x="574.14" y="123.88" width="42.22" height="0.89"/><rect class="cls-149" x="574.14" y="122.99" width="42.22" height="0.89"/><rect class="cls-150" x="574.14" y="122.1" width="42.22" height="0.89"/><rect class="cls-151" x="574.14" y="121.21" width="42.22" height="0.89"/><rect class="cls-152" x="574.14" y="120.32" width="42.22" height="0.89"/><rect class="cls-153" x="574.14" y="119.43" width="42.22" height="0.89"/><rect class="cls-154" x="574.14" y="118.54" width="42.22" height="0.89"/><rect class="cls-155" x="574.14" y="117.65" width="42.22" height="0.89"/><rect class="cls-156" x="574.14" y="116.76" width="42.22" height="0.89"/><rect class="cls-157" x="574.14" y="115.87" width="42.22" height="0.89"/><rect class="cls-158" x="574.14" y="114.98" width="42.22" height="0.89"/><rect class="cls-159" x="574.14" y="114.09" width="42.22" height="0.89"/><rect class="cls-160" x="574.14" y="113.21" width="42.22" height="0.89"/><rect class="cls-161" x="574.14" y="112.32" width="42.22" height="0.89"/><rect class="cls-162" x="574.14" y="111.43" width="42.22" height="0.89"/><rect class="cls-163" x="574.14" y="110.54" width="42.22" height="0.89"/><rect class="cls-164" x="574.14" y="109.65" width="42.22" height="0.89"/><rect class="cls-165" x="574.14" y="108.76" width="42.22" height="0.89"/><rect class="cls-166" x="574.14" y="107.87" width="42.22" height="0.89"/><rect class="cls-167" x="574.14" y="106.98" width="42.22" height="0.89"/><rect class="cls-168" x="574.14" y="106.09" width="42.22" height="0.89"/><rect class="cls-169" x="574.14" y="105.2" width="42.22" height="0.89"/><rect class="cls-170" x="574.14" y="104.31" width="42.22" height="0.89"/><rect class="cls-171" x="574.14" y="103.42" width="42.22" height="0.89"/><rect class="cls-172" x="574.14" y="102.53" width="42.22" height="0.89"/><rect class="cls-173" x="574.14" y="101.64" width="42.22" height="0.89"/><rect class="cls-174" x="574.14" y="100.75" width="42.22" height="0.89"/><rect class="cls-175" x="574.14" y="99.87" width="42.22" height="0.89"/><rect class="cls-176" x="574.14" y="98.98" width="42.22" height="0.89"/><rect class="cls-177" x="574.14" y="98.09" width="42.22" height="0.89"/><rect class="cls-178" x="574.14" y="97.2" width="42.22" height="0.89"/><rect class="cls-179" x="574.14" y="96.31" width="42.22" height="0.89"/><rect class="cls-179" x="574.14" y="95.42" width="42.22" height="0.89"/><rect class="cls-180" x="574.14" y="94.53" width="42.22" height="0.89"/><rect class="cls-180" x="574.14" y="93.64" width="42.22" height="0.89"/><rect class="cls-181" x="574.14" y="92.75" width="42.22" height="0.89"/><rect class="cls-182" x="574.14" y="91.86" width="42.22" height="0.89"/><rect class="cls-182" x="574.14" y="90.97" width="42.22" height="0.89"/><rect class="cls-182" x="574.14" y="90.08" width="42.22" height="0.89"/><rect class="cls-183" x="574.14" y="89.19" width="42.22" height="0.89"/><rect class="cls-183" x="574.14" y="88.3" width="42.22" height="0.89"/><rect class="cls-183" x="574.14" y="87.41" width="42.22" height="0.89"/><rect class="cls-183" x="574.14" y="86.53" width="42.22" height="0.89"/></g><g class="cls-193"><path class="cls-133" d="M899.9,564.31h0Z" transform="translate(-282 -426.21)"/><rect class="cls-133" x="617.9" y="137.22" width="97.97" height="0.89"/><rect class="cls-134" x="617.9" y="136.33" width="97.97" height="0.89"/><rect class="cls-135" x="617.9" y="135.44" width="97.97" height="0.89"/><rect class="cls-136" x="617.9" y="134.55" width="97.97" height="0.89"/><rect class="cls-137" x="617.9" y="133.66" width="97.97" height="0.89"/><rect class="cls-138" x="617.9" y="132.77" width="97.97" height="0.89"/><rect class="cls-139" x="617.9" y="131.88" width="97.97" height="0.89"/><rect class="cls-140" x="617.9" y="130.99" width="97.97" height="0.89"/><rect class="cls-141" x="617.9" y="130.1" width="97.97" height="0.89"/><rect class="cls-142" x="617.9" y="129.21" width="97.97" height="0.89"/><rect class="cls-143" x="617.9" y="128.32" width="97.97" height="0.89"/><rect class="cls-144" x="617.9" y="127.43" width="97.97" height="0.89"/><rect class="cls-145" x="617.9" y="126.55" width="97.97" height="0.89"/><rect class="cls-146" x="617.9" y="125.66" width="97.97" height="0.89"/><rect class="cls-147" x="617.9" y="124.77" width="97.97" height="0.89"/><rect class="cls-148" x="617.9" y="123.88" width="97.97" height="0.89"/><rect class="cls-149" x="617.9" y="122.99" width="97.97" height="0.89"/><rect class="cls-150" x="617.9" y="122.1" width="97.97" height="0.89"/><rect class="cls-151" x="617.9" y="121.21" width="97.97" height="0.89"/><rect class="cls-152" x="617.9" y="120.32" width="97.97" height="0.89"/><rect class="cls-153" x="617.9" y="119.43" width="97.97" height="0.89"/><rect class="cls-154" x="617.9" y="118.54" width="97.97" height="0.89"/><rect class="cls-155" x="617.9" y="117.65" width="97.97" height="0.89"/><rect class="cls-156" x="617.9" y="116.76" width="97.97" height="0.89"/><rect class="cls-157" x="617.9" y="115.87" width="97.97" height="0.89"/><rect class="cls-158" x="617.9" y="114.98" width="97.97" height="0.89"/><rect class="cls-159" x="617.9" y="114.09" width="97.97" height="0.89"/><rect class="cls-160" x="617.9" y="113.21" width="97.97" height="0.89"/><rect class="cls-161" x="617.9" y="112.32" width="97.97" height="0.89"/><rect class="cls-162" x="617.9" y="111.43" width="97.97" height="0.89"/><rect class="cls-163" x="617.9" y="110.54" width="97.97" height="0.89"/><rect class="cls-164" x="617.9" y="109.65" width="97.97" height="0.89"/><rect class="cls-165" x="617.9" y="108.76" width="97.97" height="0.89"/><rect class="cls-166" x="617.9" y="107.87" width="97.97" height="0.89"/><rect class="cls-167" x="617.9" y="106.98" width="97.97" height="0.89"/><rect class="cls-168" x="617.9" y="106.09" width="97.97" height="0.89"/><rect class="cls-169" x="617.9" y="105.2" width="97.97" height="0.89"/><rect class="cls-170" x="617.9" y="104.31" width="97.97" height="0.89"/><rect class="cls-171" x="617.9" y="103.42" width="97.97" height="0.89"/><rect class="cls-172" x="617.9" y="102.53" width="97.97" height="0.89"/><rect class="cls-173" x="617.9" y="101.64" width="97.97" height="0.89"/><rect class="cls-174" x="617.9" y="100.75" width="97.97" height="0.89"/><rect class="cls-175" x="617.9" y="99.87" width="97.97" height="0.89"/><rect class="cls-176" x="617.9" y="98.98" width="97.97" height="0.89"/><rect class="cls-177" x="617.9" y="98.09" width="97.97" height="0.89"/><rect class="cls-178" x="617.9" y="97.2" width="97.97" height="0.89"/><rect class="cls-179" x="617.9" y="96.31" width="97.97" height="0.89"/><rect class="cls-179" x="617.9" y="95.42" width="97.97" height="0.89"/><rect class="cls-180" x="617.9" y="94.53" width="97.97" height="0.89"/><rect class="cls-180" x="617.9" y="93.64" width="97.97" height="0.89"/><rect class="cls-181" x="617.9" y="92.75" width="97.97" height="0.89"/><rect class="cls-182" x="617.9" y="91.86" width="97.97" height="0.89"/><rect class="cls-182" x="617.9" y="90.97" width="97.97" height="0.89"/><rect class="cls-182" x="617.9" y="90.08" width="97.97" height="0.89"/><rect class="cls-183" x="617.9" y="89.19" width="97.97" height="0.89"/><rect class="cls-183" x="617.9" y="88.3" width="97.97" height="0.89"/><rect class="cls-183" x="617.9" y="87.41" width="97.97" height="0.89"/><rect class="cls-183" x="617.9" y="86.53" width="97.97" height="0.89"/></g><path class="cls-194" d="M299.63,459.89a47.47,47.47,0,0,1,1.42,8.53,27.91,27.91,0,0,1,8.68-6.32,23.85,23.85,0,0,1,10-2.21,15.41,15.41,0,0,1,9.64,2.95,27,27,0,0,1,5.33,6.2,33.55,33.55,0,0,1,9.44-6.94,24,24,0,0,1,10.24-2.21q7.39,0,12,4a13.18,13.18,0,0,1,4.66,10.5v20.77l.06,4.65a27,27,0,0,0,.5,6.1,6.57,6.57,0,0,0,1.86,3.21q1.79,1.65,6.43,2.51V513H352.68v-1.35a15.31,15.31,0,0,0,5.26-1.38,6.7,6.7,0,0,0,2.61-3,13.15,13.15,0,0,0,.95-4.25q.28-2.85.28-8.17V483.14a80.33,80.33,0,0,0-.43-9.91,15.08,15.08,0,0,0-1.66-5.31q-2.88-5.21-9.93-5.2-7.61,0-11,5.62-3,4.85-3,15.05v11.8l.06,4.65a26.85,26.85,0,0,0,.49,6.08,6.53,6.53,0,0,0,1.86,3.21c1.16,1.1,3.3,1.94,6.44,2.51V513H317.28v-1.35a15.17,15.17,0,0,0,5.25-1.38,6.69,6.69,0,0,0,2.62-3,13.5,13.5,0,0,0,1-4.26c.18-1.89.28-4.61.28-8.17V483.47a86.79,86.79,0,0,0-.46-10.5,13.89,13.89,0,0,0-1.75-5.41,9.28,9.28,0,0,0-3.79-3.46,11.86,11.86,0,0,0-5.51-1.26,13.57,13.57,0,0,0-6.54,1.65A12.85,12.85,0,0,0,303.5,469a16.83,16.83,0,0,0-2.36,6,47.93,47.93,0,0,0-.7,9.1v11.2l.06,4.53a26.92,26.92,0,0,0,.5,6.1,6.31,6.31,0,0,0,1.92,3.21q1.72,1.65,6.37,2.51V513H282v-1.35a15.66,15.66,0,0,0,5.29-1.38,6.32,6.32,0,0,0,2.58-3,13.08,13.08,0,0,0,.95-4.24c.18-1.89.28-4.63.28-8.22V479.7a86.49,86.49,0,0,0-.31-8.83,9.67,9.67,0,0,0-1.36-4.12,6.68,6.68,0,0,0-2.54-2.48,11.39,11.39,0,0,0-4.28-.94V462Z" transform="translate(-282 -426.21)"/><path class="cls-194" d="M381.11,487.09a25.11,25.11,0,0,1,7.37-17.74q9-9.47,21.43-9.46a28.29,28.29,0,0,1,21.36,9.46,25.28,25.28,0,0,1,.37,35.3,29.79,29.79,0,0,1-43.53,0,26.88,26.88,0,0,1-5.19-8.23A24.94,24.94,0,0,1,381.11,487.09Zm11.19-.71q0,10.67,4.78,18.09,5.4,8.28,13.19,8.28a12.65,12.65,0,0,0,6.45-1.84,16.93,16.93,0,0,0,5.39-5.16,28.5,28.5,0,0,0,3.87-8.61,36.61,36.61,0,0,0,1.47-10A34.74,34.74,0,0,0,425.89,477a30,30,0,0,0-4.21-8.8q-5-6.93-12.33-6.93-6.93,0-12,7.3T392.3,486.38Z" transform="translate(-282 -426.21)"/><path class="cls-194" d="M439.07,460.75h23.85v1.35a11.17,11.17,0,0,0-3.69,1.23,4.28,4.28,0,0,0-2,3.93,14.81,14.81,0,0,0,.62,3.87q.6,2.21,2.27,6.44l9.93,25.23,10-26.27q2.22-5.83,2.22-8.66a5.19,5.19,0,0,0-1.91-4.48,9.84,9.84,0,0,0-3.62-1.29v-1.35h17v1.35a11.18,11.18,0,0,0-5.53,3.07c-1.76,1.84-3.8,5.71-6.09,11.6L467.93,513H464.6l-15.45-38.06c-2.37-5.85-4.08-9.39-5.1-10.62a5.51,5.51,0,0,0-1.91-1.44,12.74,12.74,0,0,0-3.07-.77Z" transform="translate(-282 -426.21)"/><path class="cls-194" d="M505.42,479.56q-.24,3-.24,4.35a35.06,35.06,0,0,0,1.56,10.43A25.24,25.24,0,0,0,511,502.8a19.78,19.78,0,0,0,15.34,7.36,17.72,17.72,0,0,0,6.27-1.1,13.32,13.32,0,0,0,4.92-3.08,17.12,17.12,0,0,0,3.8-6.88l1.35.43a17.21,17.21,0,0,1-6.86,10.9q-5.25,3.68-14,3.67a32,32,0,0,1-13-2.39,23.13,23.13,0,0,1-9.15-7.37q-5.23-6.93-5.23-17.07,0-13.8,9.9-21.67a25.63,25.63,0,0,1,16.41-5.71,23.41,23.41,0,0,1,9.09,1.74,18.52,18.52,0,0,1,11.56,17.93Zm26.8-2.34c-.29-4.09-1-7.25-2.26-9.46a13,13,0,0,0-4.41-4.77,10.73,10.73,0,0,0-5.87-1.75,11.89,11.89,0,0,0-9.21,4.55,20.23,20.23,0,0,0-4.68,11.43Z" transform="translate(-282 -426.21)"/><path class="cls-194" d="M619.57,507.64l.06,11.24v4.21a26.67,26.67,0,0,0,.5,6.07,6.64,6.64,0,0,0,1.92,3.27c1.15,1.1,3.28,1.91,6.37,2.44v1.35H601.13v-1.35a16.47,16.47,0,0,0,5.29-1.35,6.22,6.22,0,0,0,2.58-3,13.45,13.45,0,0,0,1-4.31c.19-1.92.28-4.67.28-8.23V475.55q0-6.93-2.2-9.88c-1.46-2-3.93-2.95-7.39-2.95v-1.48l18.07-2.58a27.19,27.19,0,0,1,.62,5.46v1.18a35.37,35.37,0,0,1,8.54-4.35,27.74,27.74,0,0,1,8.67-1.31,24,24,0,0,1,16,5.59,23.75,23.75,0,0,1,6.45,8.9,29.75,29.75,0,0,1,2.27,11.79,32,32,0,0,1-2.42,12.47,25,25,0,0,1-23.54,15.46,21.11,21.11,0,0,1-7.94-1.34A32.22,32.22,0,0,1,619.57,507.64Zm0-20.43a81,81,0,0,0,.74,12.8,16.52,16.52,0,0,0,2.63,6.95,13.05,13.05,0,0,0,10.16,5.17q6.49,0,11.33-6.15a26.71,26.71,0,0,0,4.52-8.74,34.78,34.78,0,0,0,1.6-10.52,36.38,36.38,0,0,0-1.5-10.37,27.67,27.67,0,0,0-4.19-8.71q-4.61-6.27-11.21-6.28a12.67,12.67,0,0,0-10.71,6,19.44,19.44,0,0,0-2.63,7.36A79.54,79.54,0,0,0,619.57,487.21Z" transform="translate(-282 -426.21)"/><path class="cls-194" d="M679.62,479.31c-.16,2-.25,3.46-.25,4.36a35.36,35.36,0,0,0,1.56,10.42,25.4,25.4,0,0,0,4.26,8.47,19.78,19.78,0,0,0,15.34,7.36,17.76,17.76,0,0,0,6.27-1.11,13.43,13.43,0,0,0,4.92-3.07,17.26,17.26,0,0,0,3.79-6.88l1.36.43c-1.07,4.81-3.35,8.45-6.86,10.89s-8.16,3.67-14,3.67a32,32,0,0,1-13-2.39,23.15,23.15,0,0,1-9.16-7.37q-5.22-6.93-5.22-17.07,0-13.8,9.9-21.67A25.69,25.69,0,0,1,695,459.64a23.41,23.41,0,0,1,9.09,1.75,18.48,18.48,0,0,1,11.56,17.92Zm26.8-2.34c-.29-4.09-1-7.25-2.26-9.46a12.9,12.9,0,0,0-4.41-4.76,10.77,10.77,0,0,0-5.87-1.76c-3.52,0-6.58,1.53-9.22,4.55A20.35,20.35,0,0,0,680,477Z" transform="translate(-282 -426.21)"/><path class="cls-194" d="M737.12,469.08a18.63,18.63,0,0,1,5-5.82,19.59,19.59,0,0,1,11.62-3.62q4,0,6.08,1.78a4.94,4.94,0,0,1,1.91,3.92,3.77,3.77,0,0,1-1.14,2.83,4,4,0,0,1-2.92,1.1,4.71,4.71,0,0,1-3.62-1.71l-1.91-2.09a7.17,7.17,0,0,0-5.35-2.39q-4.19,0-6.51,5.4t-2.34,15v11.45l.06,4.66a26.81,26.81,0,0,0,.5,6.09,6.29,6.29,0,0,0,1.92,3.21c1.15,1.11,3.28,1.94,6.37,2.51v1.36H719.54v-1.36a16.24,16.24,0,0,0,5.29-1.36,6.41,6.41,0,0,0,2.58-3,13.08,13.08,0,0,0,1-4.24c.19-1.89.28-4.61.28-8.19V479.53a83,83,0,0,0-.31-8.8,9.41,9.41,0,0,0-1.36-4.11,6.51,6.51,0,0,0-2.54-2.47,11.33,11.33,0,0,0-4.27-.94v-1.36l16-2.21A54.72,54.72,0,0,1,737.12,469.08Z" transform="translate(-282 -426.21)"/><path class="cls-194" d="M781.74,462.84v32.07l.06,4.65a26.86,26.86,0,0,0,.5,6.1,6.36,6.36,0,0,0,1.92,3.22c1.15,1.11,3.28,1.94,6.37,2.51v1.36H763.3v-1.36a15.94,15.94,0,0,0,5.29-1.37,6.37,6.37,0,0,0,2.58-3,13.23,13.23,0,0,0,1-4.26q.28-2.85.28-8.24V462.84h-9V460.5h9v-15a21.46,21.46,0,0,1,1.39-8.55,14.93,14.93,0,0,1,5-5.78,25,25,0,0,1,7.86-3.65,35.63,35.63,0,0,1,9.8-1.32,15.47,15.47,0,0,1,7.69,1.66,5,5,0,0,1,2.88,4.46,4.28,4.28,0,0,1-1.19,3.09,3.91,3.91,0,0,1-2.92,1.24,4.75,4.75,0,0,1-2.89-.9,10,10,0,0,1-2.46-2.94,15.55,15.55,0,0,0-2.83-3.75,4.64,4.64,0,0,0-3-.9,10.66,10.66,0,0,0-4.43.95,8.27,8.27,0,0,0-3.25,2.5,10.49,10.49,0,0,0-1.79,4.51,50,50,0,0,0-.49,8.09V460.5h12.17v2.34Z" transform="translate(-282 -426.21)"/><path class="cls-194" d="M797,486.84a25.08,25.08,0,0,1,7.37-17.74,28.92,28.92,0,0,1,42.79,0,25.28,25.28,0,0,1,.37,35.3,29.79,29.79,0,0,1-43.53,0,26.69,26.69,0,0,1-5.19-8.23A24.86,24.86,0,0,1,797,486.84Zm11.18-.71q0,10.68,4.79,18.1,5.4,8.26,13.19,8.27a12.49,12.49,0,0,0,6.44-1.84,17.06,17.06,0,0,0,5.41-5.15,28.86,28.86,0,0,0,3.86-8.61,36.68,36.68,0,0,0,1.47-10,34.74,34.74,0,0,0-1.56-10.15,30.59,30.59,0,0,0-4.2-8.8q-5-6.92-12.34-6.93-6.93,0-12,7.3T808.14,486.13Z" transform="translate(-282 -426.21)"/><path class="cls-194" d="M873.7,469.08a18.38,18.38,0,0,1,5-5.82,19.59,19.59,0,0,1,11.61-3.62c2.67,0,4.69.59,6.09,1.78a4.93,4.93,0,0,1,1.9,3.92,3.8,3.8,0,0,1-1.13,2.83,4.06,4.06,0,0,1-2.92,1.1,4.72,4.72,0,0,1-3.63-1.71l-1.9-2.09a7.17,7.17,0,0,0-5.35-2.39q-4.18,0-6.52,5.4t-2.33,15v11.45l.06,4.66a26.24,26.24,0,0,0,.5,6.09,6.35,6.35,0,0,0,1.91,3.21c1.16,1.11,3.28,1.94,6.38,2.51v1.36H856.12v-1.36a16.24,16.24,0,0,0,5.29-1.36,6.41,6.41,0,0,0,2.58-3,13.08,13.08,0,0,0,1-4.24c.18-1.89.28-4.61.28-8.19V479.53a85.93,85.93,0,0,0-.31-8.8,9.54,9.54,0,0,0-1.36-4.11,6.57,6.57,0,0,0-2.54-2.47,11.43,11.43,0,0,0-4.28-.94v-1.36l16-2.21A53.87,53.87,0,0,1,873.7,469.08Z" transform="translate(-282 -426.21)"/><path class="cls-194" d="M917.51,459.64a47.58,47.58,0,0,1,1.42,8.54,27.87,27.87,0,0,1,8.69-6.33,23.82,23.82,0,0,1,10-2.21,15.46,15.46,0,0,1,9.63,2.95,27.18,27.18,0,0,1,5.33,6.2,33.55,33.55,0,0,1,9.44-6.94,24,24,0,0,1,10.24-2.21q7.4,0,12.05,4A13.2,13.2,0,0,1,989,474.16v20.76l.06,4.66a26.87,26.87,0,0,0,.5,6.09,6.59,6.59,0,0,0,1.85,3.21c1.2,1.11,3.34,1.94,6.44,2.51v1.36H970.56v-1.36a15.58,15.58,0,0,0,5.26-1.37,6.73,6.73,0,0,0,2.61-3,13.15,13.15,0,0,0,1-4.25c.19-1.9.28-4.61.28-8.16V482.9a82.18,82.18,0,0,0-.43-9.91,15.34,15.34,0,0,0-1.65-5.32q-2.9-5.19-9.94-5.2-7.6,0-11,5.62-3,4.85-3,15.05v11.8l.06,4.65a26.81,26.81,0,0,0,.5,6.09,6.56,6.56,0,0,0,1.85,3.21c1.16,1.1,3.3,1.93,6.44,2.5v1.36H935.16v-1.36a15.44,15.44,0,0,0,5.25-1.37,6.72,6.72,0,0,0,2.62-3,13.15,13.15,0,0,0,1-4.25c.18-1.9.28-4.62.28-8.18V483.23a86.56,86.56,0,0,0-.46-10.5,14,14,0,0,0-1.75-5.42,9.28,9.28,0,0,0-3.79-3.46,11.82,11.82,0,0,0-5.5-1.26,13.7,13.7,0,0,0-6.55,1.65,12.8,12.8,0,0,0-4.83,4.48,16.87,16.87,0,0,0-2.36,6,47.82,47.82,0,0,0-.7,9.09V495l.06,4.54a26.81,26.81,0,0,0,.5,6.09,6.39,6.39,0,0,0,1.91,3.21c1.16,1.11,3.28,1.94,6.38,2.51v1.36H899.88v-1.36a15.94,15.94,0,0,0,5.29-1.37,6.37,6.37,0,0,0,2.58-3,13.15,13.15,0,0,0,1-4.25c.18-1.89.28-4.62.28-8.21V479.46a86.36,86.36,0,0,0-.31-8.83,9.58,9.58,0,0,0-1.36-4.13,6.65,6.65,0,0,0-2.54-2.47,11.35,11.35,0,0,0-4.27-.95v-1.35Z" transform="translate(-282 -426.21)"/></svg>