<svg id="Layer_1" data-name="Layer 1" xmlns="http://www.w3.org/2000/svg" viewBox="0 0 489.5 489.5"><defs><style>.cls-1{fill:#eb2227;}</style></defs><title>manage-clients</title><path class="cls-1" d="M315.5,202.55a9.13,9.13,0,0,0,9.1-9.1v-19.9a23.19,23.19,0,0,0-8.4-17.9,244.53,244.53,0,0,0-38.7-25.4v-19.1a22.16,22.16,0,0,0,5.8-15v-29A35.25,35.25,0,0,0,248.1,32h-6.2a35.25,35.25,0,0,0-35.2,35.2v29a22.35,22.35,0,0,0,5.8,15v19.1a230.89,230.89,0,0,0-38.7,25.4,23.19,23.19,0,0,0-8.4,17.9v19.9a9.1,9.1,0,1,0,18.2,0v-19.9a5.32,5.32,0,0,1,1.8-3.9,211.12,211.12,0,0,1,39.5-25.3,10.46,10.46,0,0,0,5.8-9.3v-28a8.94,8.94,0,0,0-4-7.5,4.13,4.13,0,0,1-1.8-3.3v-29a17,17,0,0,1,17-17h6.2a17,17,0,0,1,17,17v29a4,4,0,0,1-1.8,3.3,9.08,9.08,0,0,0-4,7.5v28a10.46,10.46,0,0,0,5.8,9.3,216.93,216.93,0,0,1,39.5,25.3,5,5,0,0,1,1.8,3.9v19.9A9.13,9.13,0,0,0,315.5,202.55Z"/><path class="cls-1" d="M236,282a9.1,9.1,0,1,0,18.2,0v-27.8H409.3V282a9.1,9.1,0,1,0,18.2,0v-36.9a9.13,9.13,0,0,0-9.1-9.1H254.1v-27.8a9.1,9.1,0,1,0-18.2,0V236H71.1a9.13,9.13,0,0,0-9.1,9.1V282a9.1,9.1,0,1,0,18.2,0v-27.8H236Z"/><path class="cls-1" d="M453,363v-25.5a32,32,0,0,0-32-32h-5.5a32,32,0,0,0-32,32V363a20.81,20.81,0,0,0,5.1,13.6v15.7a213.74,213.74,0,0,0-33.6,22.1,21.26,21.26,0,0,0-7.8,16.6v17.5a9.1,9.1,0,0,0,18.2,0V431a3,3,0,0,1,1.2-2.5,189.71,189.71,0,0,1,34.5-22.1,10.22,10.22,0,0,0,5.7-9.2v-24.6a8.94,8.94,0,0,0-4-7.5,2.52,2.52,0,0,1-1.1-2v-25.5a13.87,13.87,0,0,1,13.9-13.9h5.5a13.87,13.87,0,0,1,13.9,13.9v25.5a2.35,2.35,0,0,1-1.1,2,9.08,9.08,0,0,0-4,7.5v24.6a10.22,10.22,0,0,0,5.7,9.2,192.15,192.15,0,0,1,34.5,22.1,3,3,0,0,1,1.2,2.5v17.5a9.1,9.1,0,0,0,18.2,0V431a21.41,21.41,0,0,0-7.8-16.6,206.7,206.7,0,0,0-33.6-22.1v-15.7A21.17,21.17,0,0,0,453,363Z"/><path class="cls-1" d="M306.5,457.55a9.13,9.13,0,0,0,9.1-9.1v-17.5a21.41,21.41,0,0,0-7.8-16.6,206.7,206.7,0,0,0-33.6-22.1v-15.7a20.31,20.31,0,0,0,5.1-13.6v-25.5a32,32,0,0,0-32-32h-5.6a32,32,0,0,0-32,32v25.5a20.81,20.81,0,0,0,5.1,13.6v15.7a213.74,213.74,0,0,0-33.6,22.1,21.26,21.26,0,0,0-7.8,16.6v17.5a9.1,9.1,0,0,0,18.2,0v-17.5a3,3,0,0,1,1.2-2.5,189.71,189.71,0,0,1,34.5-22.1,10.22,10.22,0,0,0,5.7-9.2v-24.6a8.94,8.94,0,0,0-4-7.5,2.52,2.52,0,0,1-1.1-2v-25.5a13.87,13.87,0,0,1,13.9-13.9h5.5a13.87,13.87,0,0,1,13.9,13.9V363a2.35,2.35,0,0,1-1.1,2,9.08,9.08,0,0,0-4,7.5v24.6a10.22,10.22,0,0,0,5.7,9.2,192.15,192.15,0,0,1,34.5,22.1,3,3,0,0,1,1.2,2.5v17.5A9,9,0,0,0,306.5,457.55Z"/><path class="cls-1" d="M131.7,456a9.13,9.13,0,0,0,9.1-9.1v-17.3a20.86,20.86,0,0,0-7.8-16.4,207.91,207.91,0,0,0-33.2-21.9v-15.4a20.55,20.55,0,0,0,5.1-13.5v-25.2a31.82,31.82,0,0,0-31.8-31.8H67.7a31.82,31.82,0,0,0-31.8,31.8v25.2a20.24,20.24,0,0,0,5.1,13.5v15.4a212.51,212.51,0,0,0-33.2,21.9A21.17,21.17,0,0,0,0,429.55v17.3a9.1,9.1,0,1,0,18.2,0v-17.3a3,3,0,0,1,1.1-2.4,191.39,191.39,0,0,1,34.1-21.9,10.18,10.18,0,0,0,5.7-9.1v-24.3a8.94,8.94,0,0,0-4-7.5,2.27,2.27,0,0,1-1-1.9v-25.2a13.61,13.61,0,0,1,13.6-13.6h5.4a13.61,13.61,0,0,1,13.6,13.6v25.2a2.27,2.27,0,0,1-1,1.9,9.08,9.08,0,0,0-4,7.5v24.3a10.22,10.22,0,0,0,5.7,9.2,191.39,191.39,0,0,1,34.1,21.9,3.19,3.19,0,0,1,1.1,2.4v17.2A9.07,9.07,0,0,0,131.7,456Z"/></svg>