<svg id="Layer_1" data-name="Layer 1" xmlns="http://www.w3.org/2000/svg" viewBox="0 0 232.22 153.53"><defs><style>.cls-1,.cls-3{fill:#eb5858;}.cls-2,.cls-4{fill:none;stroke-width:0.5px;}.cls-2{stroke:#231f20;}.cls-2,.cls-3,.cls-4{stroke-miterlimit:10;}.cls-3,.cls-4{stroke:#fff;}.cls-4{stroke-linecap:round;}</style></defs><title>medial_reach</title><path class="cls-1" d="M718.26,339.12l-35.69,15L672.5,352l-6.83,2.83v3.25l4.73,1.2-6.73,2.84-3.82.16-2.68-7.87-11.08.58,1.08,7.83-1.45.06-5.47-1.3,1.35-.51v-3.65l-8.42-1.91-7.43,2.63-58-13.78s-1.12,1.46,0,2.5c.92.15,29.13,7.83,50.91,13.77l-2.41.85v3.75l8.46,2.25,8-3,11.08,3,4-.25.56,4.09,5.19-.3c1.21,6.39,3.68,19.48,6.34,33.61l-14.28,1,.67,13.83,16.19-1.14c3.78,20.16,7.23,38.71,7.23,39.39,2,3.63,4.58,2.06,5.21,0,0-.85-3.85-19.5-8.07-39.7L681.75,417v-5.33l-2.58-8.42-15.24,1.1c-3-14.09-5.71-27.13-7.06-33.51l4.47-.26v-3.92l-.09-.26,4.42-.28,11.24-5.18,7.59,1.93,6.67-3.46V356l-2.42-.52,29.51-13.61Z" transform="translate(-567.25 -306.39)"/><path class="cls-2" d="M735.33,345.83s-14.71-4-20.21-9c-4.12.75-13.94-.31-13.94-.31" transform="translate(-567.25 -306.39)"/><path class="cls-2" d="M746.88,333.88A29.59,29.59,0,0,0,760.25,338" transform="translate(-567.25 -306.39)"/><path class="cls-3" d="M798.25,356.88c-1.08-1.21-5.26-2.46-7.75-3.62s-12.12-8.33-14.37-9.87a1.66,1.66,0,0,0-.56-1.69c-.87-.94-4.81-1.31-4.81-1.31a31.37,31.37,0,0,0-10.5-2.37c-5.92-4.33-13.37-4.12-13.37-4.12l-23.12-15.12c-1.06-.7-7.25-6.83-15.62-7.75s-10.53.77-18.75,1.38-10.71-2.62-14.06-4a19.79,19.79,0,0,0-11-1.12,26.43,26.43,0,0,0-8.37,3.5s-3.9-5.25-12.94-3.5-8.88,13.29-8.87,13.94c.42,3.81,1.67,4.85,4.19,7a2.67,2.67,0,0,0,1.75.69s1.81,4.71,2.56,4.88,1.63-.81,1.63-.81l3.56,1.13s2.44,1.4,3.87-.28c.69-.76,1.73-3.41,2.31-4s2.5-2.31,2.5-2.31l.16,4.91a22.42,22.42,0,0,1-.47,4.34,54.16,54.16,0,0,0-.47,5.56c0,2.42,1.13,12.76,1.22,13.71a23.15,23.15,0,0,1-.56,3.88c-.06.4-.58.67-1.08.69l-3.1.15a2.64,2.64,0,0,0-1.17.67l-3.17,1s-2.1.15-2.15.58,1.1.85,1.1.85l-.23,1.38a3.69,3.69,0,0,0,.65,2.38c.35.21.63-.23.63-.23v-1.52l1.13-.69,1.06-.23s-.12.79.4.85,3.27-.27,3.27-.27l1.83-.27s3,0,4-.65a4.68,4.68,0,0,0,1.63-3.37c.17-1.37.29-3.36.38-4.37s1.63-7.75,1.63-7.75a39.84,39.84,0,0,0,0,5.71,58.16,58.16,0,0,0,2,7.42,22.12,22.12,0,0,0-.62,5.13c0,2.79,1.81,8.66,2.09,11.59s.47,11,.47,11a10.89,10.89,0,0,0-1.53,4.19c-.06,1.81.78,3.28.66,4.16s-1.37,6-1.37,6l2.41-.19s.34-1.41.66-1.41a3.91,3.91,0,0,0,0,1.41l4.19-.34a7.62,7.62,0,0,0,.84-2.28c0-.72.22-2.28.22-2.28l.41-.47-.06,2.53s-.12,1.41.19,1.72a.81.81,0,0,0,1.38-.47c.25-.91.72-5.41.72-5.41a6,6,0,0,0,.38-2.53,18,18,0,0,0-1.62-4.19l-.69-5.19c-.18-1.34.94-4.5.63-8.94s-.94-7.69-1.12-9.19a45.65,45.65,0,0,1,0-5.12,101.37,101.37,0,0,0,1.62-11.56,92.44,92.44,0,0,0-.44-10.56,13.28,13.28,0,0,0,3.38.5c1.56,0,3.78.22,7.94-3.81,5.91,1.31,14.19,0,14.19,0a1.91,1.91,0,0,1,1.19.19c4.75,4.06,13.06,9.06,34.15,9.27a123.52,123.52,0,0,0,18.46,2.92c3,.47,7.39,1.59,15.71,3.75a4.32,4.32,0,0,1,.53,1.75,7.75,7.75,0,0,1-1.22,1.28l-1.44.78a.59.59,0,0,0-.34.81c-.43.38.19,1,.19,1a1.55,1.55,0,0,0,1,.78c.6.08,2.78-1.28,2.78-1.28a8.59,8.59,0,0,0,2.59-1.66,4,4,0,0,0,.44-2s8.63,2.82,10.31,4.28a7.54,7.54,0,0,1,2.5,3.06c.31.81,1.06,2.27.88,3a25.61,25.61,0,0,1-2.56,5.13c-.5.4-3,1.35-3.62,2.75s2.13,1.34,2.13,1.34a2.48,2.48,0,0,0,2.13.53c.54.69,2,0,2,0a3.16,3.16,0,0,0,2.41-.16c.6.49,1.94,0,1.94,0s.92-.07,1.41-1.53c1.36-.46,2.67-5.09,3.47-6.62a42,42,0,0,0,1.88-5S799.33,358.08,798.25,356.88Z" transform="translate(-567.25 -306.39)"/><path class="cls-1" d="M798.25,356.88c-1.08-1.21-5.26-2.46-7.75-3.62s-12.12-8.33-14.37-9.87a1.66,1.66,0,0,0-.56-1.69c-.87-.94-4.81-1.31-4.81-1.31a31.37,31.37,0,0,0-10.5-2.37c-5.92-4.33-13.37-4.12-13.37-4.12l-23.12-15.12c-1.06-.7-7.25-6.83-15.62-7.75s-10.53.77-18.75,1.38-10.71-2.62-14.06-4a19.79,19.79,0,0,0-11-1.12,26.43,26.43,0,0,0-8.37,3.5s-3.9-5.25-12.94-3.5-8.88,13.29-8.87,13.94c.42,3.81,1.67,4.85,4.19,7a2.67,2.67,0,0,0,1.75.69s1.81,4.71,2.56,4.88,1.63-.81,1.63-.81l3.56,1.13s2.44,1.4,3.87-.28c.69-.76,1.73-3.41,2.31-4s2.5-2.31,2.5-2.31l.16,4.91a22.42,22.42,0,0,1-.47,4.34,54.16,54.16,0,0,0-.47,5.56c0,2.42,1.13,12.76,1.22,13.71a23.15,23.15,0,0,1-.56,3.88c-.06.4-.58.67-1.08.69l-3.1.15a2.64,2.64,0,0,0-1.17.67l-3.17,1s-2.1.15-2.15.58,1.1.85,1.1.85l-.23,1.38a3.69,3.69,0,0,0,.65,2.38c.35.21.63-.23.63-.23v-1.52l1.13-.69,1.06-.23s-.12.79.4.85,3.27-.27,3.27-.27l1.83-.27s3,0,4-.65a4.68,4.68,0,0,0,1.63-3.37c.17-1.37.29-3.36.38-4.37s1.63-7.75,1.63-7.75a39.84,39.84,0,0,0,0,5.71,58.16,58.16,0,0,0,2,7.42,22.12,22.12,0,0,0-.62,5.13c0,2.79,1.81,8.66,2.09,11.59s.47,11,.47,11a10.89,10.89,0,0,0-1.53,4.19c-.06,1.81.78,3.28.66,4.16s-1.37,6-1.37,6l2.41-.19s.34-1.41.66-1.41a3.91,3.91,0,0,0,0,1.41l4.19-.34a7.62,7.62,0,0,0,.84-2.28c0-.72.22-2.28.22-2.28l.41-.47-.06,2.53s-.12,1.41.19,1.72a.81.81,0,0,0,1.38-.47c.25-.91.72-5.41.72-5.41a6,6,0,0,0,.38-2.53,18,18,0,0,0-1.62-4.19l-.69-5.19c-.18-1.34.94-4.5.63-8.94s-.94-7.69-1.12-9.19a45.65,45.65,0,0,1,0-5.12,101.37,101.37,0,0,0,1.62-11.56,92.44,92.44,0,0,0-.44-10.56,13.28,13.28,0,0,0,3.38.5c1.56,0,3.78.22,7.94-3.81,5.91,1.31,14.19,0,14.19,0a1.91,1.91,0,0,1,1.19.19c4.75,4.06,13.06,9.06,34.15,9.27a123.52,123.52,0,0,0,18.46,2.92c3,.47,7.39,1.59,15.71,3.75a4.32,4.32,0,0,1,.53,1.75,7.75,7.75,0,0,1-1.22,1.28l-1.44.78a.59.59,0,0,0-.34.81c-.43.38.19,1,.19,1a1.55,1.55,0,0,0,1,.78c.6.08,2.78-1.28,2.78-1.28a8.59,8.59,0,0,0,2.59-1.66,4,4,0,0,0,.44-2s8.63,2.82,10.31,4.28a7.54,7.54,0,0,1,2.5,3.06c.31.81,1.06,2.27.88,3a25.61,25.61,0,0,1-2.56,5.13c-.5.4-3,1.35-3.62,2.75s2.13,1.34,2.13,1.34a2.48,2.48,0,0,0,2.13.53c.54.69,2,0,2,0a3.16,3.16,0,0,0,2.41-.16c.6.49,1.94,0,1.94,0s.92-.07,1.41-1.53c1.36-.46,2.67-5.09,3.47-6.62a42,42,0,0,0,1.88-5S799.33,358.08,798.25,356.88Z" transform="translate(-567.25 -306.39)"/><path class="cls-4" d="M656.5,327.44l4.88.31.5,2.19c.19.81-2.19,2.38-1.75,5.81s3,13.25,3,13.25" transform="translate(-567.25 -306.39)"/><path class="cls-4" d="M674.5,339.69s.31-2.75,0-3.37a53,53,0,0,0,4.94-3.31" transform="translate(-567.25 -306.39)"/><line class="cls-4" x1="202.25" y1="46.11" x2="206.75" y2="47.58"/><line class="cls-4" x1="203.5" y1="33.98" x2="208.88" y2="36.98"/></svg>