<svg id="Layer_1" data-name="Layer 1" xmlns="http://www.w3.org/2000/svg" viewBox="0 0 391.63 129.76"><defs><style>.cls-1{fill:#414042;}.cls-2{fill:#fff;}.cls-3{fill:#ed1c24;}</style></defs><title>performance_ranking</title><rect class="cls-1" width="129.76" height="129.76"/><path class="cls-2" d="M574.39,344.61h9.49v75.28h-9.49Zm-18.88,2.72-1.32.41a3.63,3.63,0,0,1-4.24-1.58,2.48,2.48,0,0,1,0-2.08,3.1,3.1,0,0,1,2-1.67l14.81-4.62,1.8,13.2a2.44,2.44,0,0,1-.53,1.92,3.45,3.45,0,0,1-2.4,1.25l-.38,0a3.21,3.21,0,0,1-3.31-2.48l-.23-2c-17.11,23.69-56.51,49.09-58.22,50.18a3.74,3.74,0,0,1-2,.57,3.6,3.6,0,0,1-2.56-1,2.58,2.58,0,0,1-.77-2.1,2.78,2.78,0,0,1,1.32-2C499.8,395.09,538.83,369.85,555.51,347.33Zm11.22,14v58.56h-9.49V361.33Zm-16.59,17.4v41.16h-9.48V378.73ZM533,396.8v23.08h-9.48V396.8Zm-18.13,9.05v14h-9.48v-14Zm72,23.07H490.76v-7h96.07v7Z" transform="translate(-478.69 -319.16)"/><path class="cls-3" d="M632.42,354.34c1.55,1.33,2.33,3.35,2.33,6.09s-.8,4.74-2.39,6-4,1.9-7.31,1.9H622.1v6.18h-4.94V352.36H625Q630.09,352.36,632.42,354.34Zm-3.63,8.72a4.24,4.24,0,0,0,.89-2.91,3.1,3.1,0,0,0-1.16-2.73,6.35,6.35,0,0,0-3.6-.81H622.1v7.45h3.33C627.08,364.06,628.2,363.73,628.79,363.06Z" transform="translate(-478.69 -319.16)"/><path class="cls-3" d="M654.59,352.36v4.41h-11v4.56h9.92v4.22h-9.92v4.6h11.38v4.37H638.62V352.36Z" transform="translate(-478.69 -319.16)"/><path class="cls-3" d="M677.32,359.72q0,5.32-4.21,6.88l5.61,7.92h-6.09l-4.91-7.07h-3.43v7.07h-4.94V352.36h8.4c3.44,0,5.9.59,7.37,1.75S677.32,357.14,677.32,359.72Zm-6,2.63a3.33,3.33,0,0,0,.92-2.62,2.77,2.77,0,0,0-.95-2.45,6,6,0,0,0-3.33-.67h-3.71v6.56h3.62A5.3,5.3,0,0,0,671.36,362.35Z" transform="translate(-478.69 -319.16)"/><path class="cls-3" d="M697.61,352.36v4.35H687.34v4.78h9.77v4.35h-9.77v8.68H682.4V352.36Z" transform="translate(-478.69 -319.16)"/><path class="cls-3" d="M720.44,371.46a12.08,12.08,0,0,1-16.55,0,11.59,11.59,0,0,1,0-16.32,12.08,12.08,0,0,1,16.55,0,11.59,11.59,0,0,1,0,16.32Zm-1.68-8.14a7.28,7.28,0,0,0-1.9-5.06,6.28,6.28,0,0,0-9.36,0,7.66,7.66,0,0,0,0,10.1,6.33,6.33,0,0,0,9.36,0A7.25,7.25,0,0,0,718.76,363.32Z" transform="translate(-478.69 -319.16)"/><path class="cls-3" d="M746,359.72q0,5.32-4.22,6.88l5.61,7.92h-6.09l-4.91-7.07h-3.42v7.07H728V352.36h8.4c3.45,0,5.9.59,7.37,1.75S746,357.14,746,359.72Zm-6,2.63a3.36,3.36,0,0,0,.92-2.62,2.78,2.78,0,0,0-1-2.45,6,6,0,0,0-3.32-.67h-3.71v6.56h3.61A5.35,5.35,0,0,0,740,362.35Z" transform="translate(-478.69 -319.16)"/><path class="cls-3" d="M770.87,360.57l-6,12.11h-3l-6-12.11v13.95H751V352.36h6.69l5.7,12.18,5.74-12.18h6.66v22.16h-5Z" transform="translate(-478.69 -319.16)"/><path class="cls-3" d="M797.06,374.52,795,369.74h-9.29l-2.06,4.78h-5.26L788,352.36h4.79l9.57,22.16ZM790.37,359l-2.79,6.43h5.55Z" transform="translate(-478.69 -319.16)"/><path class="cls-3" d="M820.39,352.36h5v22.16h-5l-10.56-13.88v13.88h-4.94V352.36h4.63l10.87,14.27Z" transform="translate(-478.69 -319.16)"/><path class="cls-3" d="M841,370.15a7.28,7.28,0,0,0,6-2.89l3.17,3.27a11.94,11.94,0,0,1-17.32,1,10.9,10.9,0,0,1-3.31-8.16,11,11,0,0,1,3.37-8.23,11.41,11.41,0,0,1,8.26-3.29,11.69,11.69,0,0,1,9.13,4.15l-3.07,3.49a7.21,7.21,0,0,0-5.84-2.92,6.81,6.81,0,0,0-4.77,1.82,6.37,6.37,0,0,0-2,4.92,6.7,6.7,0,0,0,1.87,5A6.21,6.21,0,0,0,841,370.15Z" transform="translate(-478.69 -319.16)"/><path class="cls-3" d="M870,352.36v4.41h-11v4.56h9.92v4.22h-9.92v4.6h11.38v4.37H854V352.36Z" transform="translate(-478.69 -319.16)"/><path d="M635.13,397.76q0,5.33-4.22,6.88l5.61,7.93h-6.08l-4.92-7.07H622.1v7.07h-4.94V390.41h8.4q5.16,0,7.37,1.74T635.13,397.76Zm-6,2.63a3.35,3.35,0,0,0,.92-2.61,2.81,2.81,0,0,0-1-2.46,6.15,6.15,0,0,0-3.33-.67H622.1v6.57h3.61A5.32,5.32,0,0,0,629.17,400.39Z" transform="translate(-478.69 -319.16)"/><path d="M656,412.57l-2.06-4.79h-9.29l-2.06,4.79h-5.26l9.57-22.16h4.79l9.57,22.16ZM649.3,397l-2.79,6.44h5.55Z" transform="translate(-478.69 -319.16)"/><path d="M679.32,390.41h4.95v22.16h-4.95l-10.56-13.89v13.89h-4.94V390.41h4.63l10.87,14.26Z" transform="translate(-478.69 -319.16)"/><path d="M689.72,390.41h4.94v9.09l8.37-9.09h6.12l-8.81,9.79,4.21,5.91c2.05,2.89,3.59,5,4.6,6.46h-5.77l-6.5-8.75-2.22,2.47v6.28h-4.94Z" transform="translate(-478.69 -319.16)"/><path d="M712.23,390.41h4.94v22.16h-4.94Z" transform="translate(-478.69 -319.16)"/><path d="M738.13,390.41h4.94v22.16h-4.94l-10.56-13.89v13.89h-5V390.41h4.63l10.88,14.26Z" transform="translate(-478.69 -319.16)"/><path d="M762.92,401.28h5v7.86q-3.3,3.67-9.13,3.68a11.29,11.29,0,0,1-8.19-3.23,11.72,11.72,0,0,1,.06-16.39,11.24,11.24,0,0,1,8.15-3.3,12.07,12.07,0,0,1,8.29,3.14l-2.57,3.71a9.55,9.55,0,0,0-2.74-1.79,7.33,7.33,0,0,0-2.71-.5,6.5,6.5,0,0,0-4.76,1.92,7.67,7.67,0,0,0-.08,10.08,6,6,0,0,0,4.43,1.89,8.58,8.58,0,0,0,4.28-1Z" transform="translate(-478.69 -319.16)"/></svg>