<svg id="Layer_1" data-name="Layer 1" xmlns="http://www.w3.org/2000/svg" viewBox="0 0 393.31 129.76"><defs><style>.cls-1{fill:#414042;}.cls-2{fill:#fff;}.cls-3{font-size:31.7px;font-family:Montserrat-Bold, Montserrat;font-weight:700;}.cls-4{fill:#ed1c24;}</style></defs><title>performance_ranking</title><rect class="cls-1" width="129.76" height="129.76"/><path class="cls-2" d="M574.39,344.61h9.49v75.28h-9.49Zm-18.88,2.72-1.32.41a3.63,3.63,0,0,1-4.24-1.58,2.48,2.48,0,0,1,0-2.08,3.1,3.1,0,0,1,2-1.67l14.81-4.62,1.8,13.2a2.44,2.44,0,0,1-.53,1.92,3.45,3.45,0,0,1-2.4,1.25l-.38,0a3.21,3.21,0,0,1-3.31-2.48l-.23-2c-17.11,23.69-56.51,49.09-58.22,50.18a3.74,3.74,0,0,1-2,.57,3.6,3.6,0,0,1-2.56-1,2.58,2.58,0,0,1-.77-2.1,2.78,2.78,0,0,1,1.32-2C499.8,395.09,538.83,369.85,555.51,347.33Zm11.22,14v58.56h-9.49V361.33Zm-16.59,17.4v41.16h-9.48V378.73ZM533,396.8v23.08h-9.48V396.8Zm-18.13,9.05v14h-9.48v-14Zm72,23.07H490.76v-7h96.07v7Z" transform="translate(-478.69 -319.16)"/><text class="cls-3" transform="translate(135.73 55.36)"><tspan class="cls-4">PERFORMANCE</tspan><tspan x="0" y="38.04">RANKING</tspan></text></svg>