<svg id="Layer_1" data-name="Layer 1" xmlns="http://www.w3.org/2000/svg" viewBox="0 0 161.86 196.09"><defs><style>.cls-1,.cls-2{fill:#eb5858;}.cls-2,.cls-3{stroke:#fff;stroke-miterlimit:10;}.cls-2{stroke-width:2px;}.cls-3{fill:none;stroke-width:0.5px;}</style></defs><title>posterorlateral_reach</title><path class="cls-1" d="M761.72,477.12l-32.56-30.45,9.64-1.88V440l-7.67-6.33-13.22,2.53L702.76,422l2.2-.36v-3.92l-1.62-1.51,7.15-8,10.3,1.66,3.08-4v-3.5l-7.15-1.11,18.65-20.8-1.5-1.5-21.32,21.66-9.6-1.49L699,403v3.42l6.78,1.09-5.61,5.7h-.11l-10.41-9.72-11.56,1.75v3.5l5.61,5.73-2.36.18-55.55-10,2.33-1.43V400.1l-9.53-1.89-6.81,3.92-11.12-2v3.33l6.6,1.27-2,1.15v3.5l10,1.75,6-3.71,61.93,11.88,4.59-.64,4.86,5,5.79-.95,15,14.31L705,438.62V443l6.5,7.17,13.11-2.56c16.37,15.63,34.11,32.58,35.11,33.56C761,482.37,764,479.37,761.72,477.12Z" transform="translate(-600.7 -285.33)"/><path class="cls-2" d="M660.63,366.83c3.17-2.67,10.38-17.12,10.38-17.12s-7-10.94-.56-19.94,18.75-11.62,18.75-11.62,2.87-9.44,7.69-12.87c3.13-1.56,7.88-3.56,10.25-3.56h4.25s1.25-15.37,12.31-15.37c12.44.31,10.31,14.75,10,16.38a16.09,16.09,0,0,1-3,5.5l-1.31,1.06-.12.81s6.94,3.56,10.38,9.94c1.56,2.5,2.81,3.25,5.31,6.56a90.18,90.18,0,0,1,5.94,10.06,12.75,12.75,0,0,1,1.63,6.13c0,3.5-1.56,17.56-1.56,17.56s-.16,2.5-.25,3.56a3.72,3.72,0,0,1-.69,1.81s-.16,4.59-.31,6-.28,3.5-1.06,4.25a6.85,6.85,0,0,1-2.44,1.19l-3.31,1.56a.88.88,0,0,1-.75,0s-1,1.09-1.44.31c-.62.28-.59.22-.78-.16s.38-1.31.38-1.31,3-4.06,2.63-7c-.47,0-.75.88-.75.88a13.59,13.59,0,0,1-1.16,2.06,3.46,3.46,0,0,1-1.91,1.09c-.5.13-.75,0-.78-.37s1.74-2.75,1.94-3.31a12.25,12.25,0,0,1,1-2.94c.51-.67,2.44-3.12,2.94-3.81,1.19-1.59,1.5-5,1.38-7.28s-.75-13.84-.81-14.72a3,3,0,0,0-.62-2c-.49-.6-10.87-12.22-11.28-13.78l-2.28-2.81s-4.94,2-6,2.22c-1.34,1.28-4,7.69-4.44,8.44-3,4.13-9,3.44-9.44,3.38-.94,1.75-6.19,3.38-6.19,3.38s-9.78,4.16-9.44,6.69c.5,1.72,4.37,11.22,4.87,12.5a9,9,0,0,0,1.69,2.5s4.56,2.06,5.5,2.75a7.4,7.4,0,0,1,1.69,2.06s2.47,3.13,2.56,3.75a2.93,2.93,0,0,1-.54,2,1.45,1.45,0,0,1-1,.27,1.8,1.8,0,0,1-.4,1.27,2.2,2.2,0,0,1-1.31.44,3.87,3.87,0,0,1-.92.67c-.42.18-.73-.4-.73-.4a1.31,1.31,0,0,1-.29.63c-.24.26-.61.19-1,.08a18,18,0,0,1-2.37-2.6l-.42-.15a7.76,7.76,0,0,1,.08,2.81c-.39,2.9-2.41,6.61-2.71,7.54s-1.37,4.46-1.92,6-2,5.09-2.58,7a20.33,20.33,0,0,0-.62,4.58s.21,2.45.5,3.75a25,25,0,0,0,2.33,4.54,21.87,21.87,0,0,1,2.67,2,2.72,2.72,0,0,1,.13,1.46s.59,2.23.33,2.67-1.67.42-1.67.42a2.74,2.74,0,0,1-2,.17,3.17,3.17,0,0,1-2.21-.29s-1.53.09-1.71-.58a2.87,2.87,0,0,1-2.5-.79,13.23,13.23,0,0,1-1.71-2.54,19.89,19.89,0,0,1-.25-2.37c-.12-.5-.73-.75-.71-1.62a9.75,9.75,0,0,1,.67-2.46A2.35,2.35,0,0,1,688,404a6.92,6.92,0,0,1,.75-2.42s-.73-5.27-1.25-7.92c-1.74-7.43-.9-9.77-.33-11.46a40.47,40.47,0,0,1,2.83-5.46c-1.93-5.95-7.29-11.12-7.29-11.12s-11,8.43-13,9.58a27.35,27.35,0,0,1-6.17,2l-15,9.75-6.25,5.17-7.67,6-3.25,2.71s-2.36,2.11-3.29,2.33-1.21-.24-1.21-.67c0-1.11,1.83-3.08,1.83-3.08s3.91-4.71,4.29-6,1.05-7,2.42-8.12a3.3,3.3,0,0,1,3.25-.29,7.4,7.4,0,0,0,2.17-.54c.67-.39,8-9,8-9a10.84,10.84,0,0,1,2.71-4A29,29,0,0,1,660.63,366.83Z" transform="translate(-600.7 -285.33)"/><path class="cls-1" d="M660.63,366.83c3.17-2.67,10.38-17.12,10.38-17.12s-7-10.94-.56-19.94,18.75-11.62,18.75-11.62,2.87-9.44,7.69-12.87c3.13-1.56,7.88-3.56,10.25-3.56h4.25s1.25-15.37,12.31-15.37c12.44.31,10.31,14.75,10,16.38a16.09,16.09,0,0,1-3,5.5l-1.31,1.06-.12.81s6.94,3.56,10.38,9.94c1.56,2.5,2.81,3.25,5.31,6.56a90.18,90.18,0,0,1,5.94,10.06,12.75,12.75,0,0,1,1.63,6.13c0,3.5-1.56,17.56-1.56,17.56s-.16,2.5-.25,3.56a3.72,3.72,0,0,1-.69,1.81s-.16,4.59-.31,6-.28,3.5-1.06,4.25a6.85,6.85,0,0,1-2.44,1.19l-3.31,1.56a.88.88,0,0,1-.75,0s-1,1.09-1.44.31c-.62.28-.59.22-.78-.16s.38-1.31.38-1.31,3-4.06,2.63-7c-.47,0-.75.88-.75.88a13.59,13.59,0,0,1-1.16,2.06,3.46,3.46,0,0,1-1.91,1.09c-.5.13-.75,0-.78-.37s1.74-2.75,1.94-3.31a12.25,12.25,0,0,1,1-2.94c.51-.67,2.44-3.12,2.94-3.81,1.19-1.59,1.5-5,1.38-7.28s-.75-13.84-.81-14.72a3,3,0,0,0-.62-2c-.49-.6-10.87-12.22-11.28-13.78l-2.28-2.81s-4.94,2-6,2.22c-1.34,1.28-4,7.69-4.44,8.44-3,4.13-9,3.44-9.44,3.38-.94,1.75-6.19,3.38-6.19,3.38s-9.78,4.16-9.44,6.69c.5,1.72,4.37,11.22,4.87,12.5a9,9,0,0,0,1.69,2.5s4.56,2.06,5.5,2.75a7.4,7.4,0,0,1,1.69,2.06s2.47,3.13,2.56,3.75a2.93,2.93,0,0,1-.54,2,1.45,1.45,0,0,1-1,.27,1.8,1.8,0,0,1-.4,1.27,2.2,2.2,0,0,1-1.31.44,3.87,3.87,0,0,1-.92.67c-.42.18-.73-.4-.73-.4a1.31,1.31,0,0,1-.29.63c-.24.26-.61.19-1,.08a18,18,0,0,1-2.37-2.6l-.42-.15a7.76,7.76,0,0,1,.08,2.81c-.39,2.9-2.41,6.61-2.71,7.54s-1.37,4.46-1.92,6-2,5.09-2.58,7a20.33,20.33,0,0,0-.62,4.58s.21,2.45.5,3.75a25,25,0,0,0,2.33,4.54,21.87,21.87,0,0,1,2.67,2,2.72,2.72,0,0,1,.13,1.46s.59,2.23.33,2.67-1.67.42-1.67.42a2.74,2.74,0,0,1-2,.17,3.17,3.17,0,0,1-2.21-.29s-1.53.09-1.71-.58a2.87,2.87,0,0,1-2.5-.79,13.23,13.23,0,0,1-1.71-2.54,19.89,19.89,0,0,1-.25-2.37c-.12-.5-.73-.75-.71-1.62a9.75,9.75,0,0,1,.67-2.46A2.35,2.35,0,0,1,688,404a6.92,6.92,0,0,1,.75-2.42s-.73-5.27-1.25-7.92c-1.74-7.43-.9-9.77-.33-11.46a40.47,40.47,0,0,1,2.83-5.46c-1.93-5.95-7.29-11.12-7.29-11.12s-11,8.43-13,9.58a27.35,27.35,0,0,1-6.17,2l-15,9.75-6.25,5.17-7.67,6-3.25,2.71s-2.36,2.11-3.29,2.33-1.21-.24-1.21-.67c0-1.11,1.83-3.08,1.83-3.08s3.91-4.71,4.29-6,1.05-7,2.42-8.12a3.3,3.3,0,0,1,3.25-.29,7.4,7.4,0,0,0,2.17-.54c.67-.39,8-9,8-9a10.84,10.84,0,0,1,2.71-4A29,29,0,0,1,660.63,366.83Z" transform="translate(-600.7 -285.33)"/><path class="cls-3" d="M702.51,318.21s-.75,2.63-2.12,3.13A82.54,82.54,0,0,1,692.13,339l2.94,8.69" transform="translate(-600.7 -285.33)"/><path class="cls-3" d="M689.2,318.14c-2.44,5.06-4.81,16.31-5.69,20.44a4,4,0,0,0,.88,4.25s3.83,11,5.31,13.13,8.07,11.12,8.44,11.88a29.33,29.33,0,0,0,1.63,3.38,10.22,10.22,0,0,0,2.58,2.23" transform="translate(-600.7 -285.33)"/><path class="cls-3" d="M711.38,301.71s0,11.25,6.17,14.25c2.77,1.5,10.46-4,11.71-5.87" transform="translate(-600.7 -285.33)"/><path class="cls-3" d="M671,349.71s7.71,12.33,11.67,15.92" transform="translate(-600.7 -285.33)"/></svg>