<svg id="Layer_1" data-name="Layer 1" xmlns="http://www.w3.org/2000/svg" viewBox="0 0 149.23 189.27"><defs><style>.cls-1,.cls-2{fill:#eb5858;}.cls-2,.cls-3{stroke:#fff;stroke-miterlimit:10;}.cls-2{stroke-width:2px;}.cls-3{fill:none;stroke-width:0.5px;}</style></defs><title>posterormedial_reach</title><path class="cls-1" d="M757,474.89l-37.8-43.57,9.82-1.48v-4.19l-5.75-6.12-12.72,1.82L699.77,409l2.18-.22v-4L729.55,382l7.91,1.22,3.33-2.5v-3.17l-4.93-.75,5.76-4.75c.67-2.17-1.83-2.17-1.83-2.17l-8.09,6.28-8.41-1.28-3.09,2.42v3.25l4.89.76L701,400.09l-2.85.27-7.24-8.27-11.08,1.33v3l4.11,5.28-2.28.22-17.36-3.31,1.84-1.08-.31-3.5-9.06-1.94-6.83,3.79c-19.57-3.72-41-7.79-41.46-7.79a2,2,0,0,0,0,2.67l36.79,7.71-1.7.94V403l9.81,2.06,6.1-3.59,23,4.82,4.7-.36,3.13,4,5.11-.51L706,422l-8.6,1.23v4.44l4.54,6.25L714.49,432c17,20.13,38.54,45.62,39,46.07C754.16,478.84,758.1,476.91,757,474.89Z" transform="translate(-607.93 -288.98)"/><path class="cls-2" d="M650.29,337.59s13.83-23.5,17.75-26.5a51.54,51.54,0,0,1,10.25-5.5s-3.08-12.92,7.25-15.5c10.92-1.58,12,14.58,12,15.5,12.92,5.08,13,12,13,12s.67,3.08,3,10.5,2.38,17.13,2.38,17.13.63,3.38-2.62,4.25c4.75,5.13,6.76,17.26,7,17.63a3.51,3.51,0,0,1,1.5,2.25c1,2,3.21,3.9,3.38,4.25.52,1.1.13,1.73-.25,1.83a1,1,0,0,1-.5,1s1,1.46.21,1.83a1,1,0,0,1,.54,1c.08.5-.92.9-1.08.67-.27.46-1.29.7-1.62.29a14.19,14.19,0,0,1-1.54-1.87,29.06,29.06,0,0,1-2-3.25c-1-1.9-2.65-5.67-2.79-6.17a7,7,0,0,0-.5-1.71,33.6,33.6,0,0,0-3.37-3.37c-1.71-1.42-7-7.71-7-7.71A15.27,15.27,0,0,1,703,355l-3.71,1.29c2.42,9.83-.43,12.91-1,15.71a41.1,41.1,0,0,1-1.92,9.13c-.45,1.32-2,5.29-2.08,6.08a30.11,30.11,0,0,0,.79,5.58c.22.75,1.17,4.29,1.46,4.83s2.21,1.33,2.58,2-.37,1.21-.33,1.67c.88,3.17-1.83,2.33-1.83,2.33s-1.29.58-1.83,0a2.7,2.7,0,0,1-1.79-.25s-1.25.21-1.58-.5a2.67,2.67,0,0,1-2.08-.75,5.28,5.28,0,0,1-1.33-2.92c.06-.61,0-1,.17-1.75s.67-2.5.5-3a11,11,0,0,1-.79-2.46c0-.79.6-2.16.5-2.75-.08-2.83-3.29-12.67-2.79-15.83s2.46-6,2.58-6.42c.25-2.33-2.17-6.75-2.17-6.75s-5,2.28-6.37,2.42c-2.46,2.25-3.25.33-3.25.33s-1.21,0-1.37-.87a1.32,1.32,0,0,1-.92-.83s-.62-.67-.37-1.21c-.75-1.17-.88-2.62-.29-3.08l2.17-1.71s-1.62-2-.79-2.71,1.6,1.85,3,1.58,3.08-.54,3.58-.71c-1-2.5-12.08-13.75-11.46-25.5a12.63,12.63,0,0,1,1-4,2.12,2.12,0,0,0-1.33.25c-1.67,3.46-12,16-12,16.79,1,2.38,2,11,5.67,15.83,1.83,0,4.54-.71,5.46-.33s4.58,3.79,4.58,3.79,1,1.21.08,1.33-2.79-1.08-2.79-1.08,3.83,4.75,1.92,5.63C674,368.47,672,368,672,368s-.17,1.46-1.92.17c-1.37.79-5.25-2-6.25-2.25a8.52,8.52,0,0,1-4.37-3.62s-2-3-2.54-4.21c-2.92-4.5-5.92-12.42-7-15A6.34,6.34,0,0,1,650.29,337.59Z" transform="translate(-607.93 -288.98)"/><path class="cls-1" d="M650.29,337.59s13.83-23.5,17.75-26.5a51.54,51.54,0,0,1,10.25-5.5s-3.08-12.92,7.25-15.5c10.92-1.58,12,14.58,12,15.5,12.92,5.08,13,12,13,12s.67,3.08,3,10.5,2.38,17.13,2.38,17.13.63,3.38-2.62,4.25c4.75,5.13,6.76,17.26,7,17.63a3.51,3.51,0,0,1,1.5,2.25c1,2,3.21,3.9,3.38,4.25.52,1.1.13,1.73-.25,1.83a1,1,0,0,1-.5,1s1,1.46.21,1.83a1,1,0,0,1,.54,1c.08.5-.92.9-1.08.67-.27.46-1.29.7-1.62.29a14.19,14.19,0,0,1-1.54-1.87,29.06,29.06,0,0,1-2-3.25c-1-1.9-2.65-5.67-2.79-6.17a7,7,0,0,0-.5-1.71,33.6,33.6,0,0,0-3.37-3.37c-1.71-1.42-7-7.71-7-7.71A15.27,15.27,0,0,1,703,355l-3.71,1.29c2.42,9.83-.43,12.91-1,15.71a41.1,41.1,0,0,1-1.92,9.13c-.45,1.32-2,5.29-2.08,6.08a30.11,30.11,0,0,0,.79,5.58c.22.75,1.17,4.29,1.46,4.83s2.21,1.33,2.58,2-.37,1.21-.33,1.67c.88,3.17-1.83,2.33-1.83,2.33s-1.29.58-1.83,0a2.7,2.7,0,0,1-1.79-.25s-1.25.21-1.58-.5a2.67,2.67,0,0,1-2.08-.75,5.28,5.28,0,0,1-1.33-2.92c.06-.61,0-1,.17-1.75s.67-2.5.5-3a11,11,0,0,1-.79-2.46c0-.79.6-2.16.5-2.75-.08-2.83-3.29-12.67-2.79-15.83s2.46-6,2.58-6.42c.25-2.33-2.17-6.75-2.17-6.75s-5,2.28-6.37,2.42c-2.46,2.25-3.25.33-3.25.33s-1.21,0-1.37-.87a1.32,1.32,0,0,1-.92-.83s-.62-.67-.37-1.21c-.75-1.17-.88-2.62-.29-3.08l2.17-1.71s-1.62-2-.79-2.71,1.6,1.85,3,1.58,3.08-.54,3.58-.71c-1-2.5-12.08-13.75-11.46-25.5a12.63,12.63,0,0,1,1-4,2.12,2.12,0,0,0-1.33.25c-1.67,3.46-12,16-12,16.79,1,2.38,2,11,5.67,15.83,1.83,0,4.54-.71,5.46-.33s4.58,3.79,4.58,3.79,1,1.21.08,1.33-2.79-1.08-2.79-1.08,3.83,4.75,1.92,5.63C674,368.47,672,368,672,368s-.17,1.46-1.92.17c-1.37.79-5.25-2-6.25-2.25a8.52,8.52,0,0,1-4.37-3.62s-2-3-2.54-4.21c-2.92-4.5-5.92-12.42-7-15A6.34,6.34,0,0,1,650.29,337.59Z" transform="translate(-607.93 -288.98)"/><path class="cls-3" d="M693.54,344.16c-.75-.81,3.69,4.81,3.69,4.81l-1.31.56S694.29,345,693.54,344.16Z" transform="translate(-607.93 -288.98)"/><path class="cls-3" d="M703,324.16c-.06,9.19,3.76,16.38,3.69,17.75-.56,1-6.1,5-9.44,7.06a6.55,6.55,0,0,1-1.31.56c-3.7,1.74-10.52,4.58-14.29,3.85" transform="translate(-607.93 -288.98)"/><path class="cls-3" d="M686.29,360.18c3.31-1.94,13-3.87,13-3.87" transform="translate(-607.93 -288.98)"/><path class="cls-3" d="M678.29,305.59s2.23,13.83,9.64,13.83c9.61,0,9.61-13.83,9.61-13.83" transform="translate(-607.93 -288.98)"/><path class="cls-3" d="M703,355s8.63-3,10.29-5.54" transform="translate(-607.93 -288.98)"/></svg>