<svg id="Capa_1" data-name="Capa 1" xmlns="http://www.w3.org/2000/svg" viewBox="0 0 512 512"><defs><style>.cls-1{fill:#eb2227;}</style></defs><title>recent-screens</title><path class="cls-1" d="M416,32H336a40,40,0,0,0-32-16H283.61a31.82,31.82,0,0,0-55.22,0H208a40,40,0,0,0-32,16H96A40,40,0,0,0,56,72V472a40,40,0,0,0,40,40H416a40,40,0,0,0,40-40V72A40,40,0,0,0,416,32ZM184,56a24,24,0,0,1,24-24h25.47A8,8,0,0,0,241,26.68a15.86,15.86,0,0,1,30,0A8,8,0,0,0,278.53,32H304a24,24,0,0,1,24,24V80H184ZM440,472a24,24,0,0,1-24,24H96a24,24,0,0,1-24-24V72A24,24,0,0,1,96,48h72.8a40,40,0,0,0-.8,8V88a8,8,0,0,0,8,8H336a8,8,0,0,0,8-8V56a40,40,0,0,0-.8-8H416a24,24,0,0,1,24,24Z"/><path class="cls-1" d="M416,64H368a8,8,0,0,0,0,16h40V464H104V80h40a8,8,0,0,0,0-16H96a8,8,0,0,0-8,8V472a8,8,0,0,0,8,8H416a8,8,0,0,0,8-8V72A8,8,0,0,0,416,64Z"/><path class="cls-1" d="M256,32a8,8,0,1,0,5.66,2.34A8.05,8.05,0,0,0,256,32Z"/><path class="cls-1" d="M130.34,186.34a8,8,0,0,0,0,11.31l24,24a8,8,0,0,0,11.31,0l40-40a8,8,0,0,0-11.31-11.31L160,204.69l-18.34-18.34A8,8,0,0,0,130.34,186.34Z"/><path class="cls-1" d="M205.66,258.34a8,8,0,0,0-11.31,0L160,292.69l-18.34-18.34a8,8,0,0,0-11.31,11.31l24,24a8,8,0,0,0,11.31,0l40-40A8,8,0,0,0,205.66,258.34Z"/><path class="cls-1" d="M194.34,346.34,160,380.69l-18.34-18.34a8,8,0,0,0-11.31,11.31l24,24a8,8,0,0,0,11.31,0l40-40a8,8,0,0,0-11.31-11.31Z"/><path class="cls-1" d="M240,200H376a8,8,0,0,0,0-16H240a8,8,0,0,0,0,16Z"/><path class="cls-1" d="M240,288H376a8,8,0,0,0,0-16H240a8,8,0,0,0,0,16Z"/><path class="cls-1" d="M240,376H376a8,8,0,0,0,0-16H240a8,8,0,0,0,0,16Z"/></svg>