<?xml version="1.0" encoding="utf-8"?>
<!-- Generator: Adobe Illustrator 21.1.0, SVG Export Plug-In . SVG Version: 6.00 Build 0)  -->
<svg version="1.1" id="Layer_2" xmlns="http://www.w3.org/2000/svg" xmlns:xlink="http://www.w3.org/1999/xlink" x="0px" y="0px"
	 viewBox="0 0 489.5 489.5" style="enable-background:new 0 0 489.5 489.5;" xml:space="preserve">
<style type="text/css">
	.st0{fill:#EB5858;}
</style>
<title>rotary-stability</title>
<path class="st0" d="M397.8,339.1c-2.2-0.1-4.5-0.4-6.7-0.4c-4.2-0.1-8.4,0-12.6,0c-3.2,0.1-6.3-0.2-9.4-1c-1.9-0.4-3.6-1.3-5-2.7
	c-1.1-1.2-2.7-1.9-4.4-1.8c-1.3,0-2.7-0.1-4,0c-3,0.1-5.9-0.6-8.4-2.2c-1.5-0.7-2.4-2.3-2.4-3.9c0-1.2,0-2.5,0-3.7
	c-0.1-5.1,0.4-10.2-0.5-15.3c-0.1-0.6-0.1-1.2-0.1-1.8c-0.1-2.7,0.1-5.3,0.6-7.9c0.4-2.7,0.8-5.4,1.3-8.2c0.1-0.8,0.7-1.5,1.5-1.7
	c1.1-0.3,2.2-0.4,3.3-0.6c3.1-0.3,6.3-0.5,9.4-0.9c2.2-0.2,4.4-0.7,6.7-0.9c2.3-0.2,4.7-0.2,7,0.1c2.2,0.4,4.5,0.2,6.6-0.5
	c15-2.9,15.6-20.7,11.1-30.3c-2.5-5.7-13.4-1.3-19.8,0.6c-4.5,1.3-4.5,10.2-10.9,10.8c-1.2-0.2-2.4-0.3-3.6-0.4
	c-2.7-0.3-5.5-0.4-8.2-0.8c-3.2-0.5-3.9-1.3-3.9-4.7c0-0.4,0-0.8,0-1.2c0-1.4,0-2.8,0-4.2c-0.9-10.3,1.1-19.9,3.6-30.1
	c1.9-8.9,3.8-17.2,6.4-26.2c4.5,6.4,12.1,14,19.2,5.4c0.7-1,1.9-1.4,3-1.1c2,0.4,4,0.4,5.8,1.6c2.2,1.4,4.1,0.6,5.3-1.7
	c1.8-1,0.5-4.9,3-4.9c22.3-3.2,34.5-21.7,28.1-42.8c-0.4-1.7-1-3.3-1.6-4.9c-0.6-1.6-1.4-3.1-2.2-4.6c-7-12.1-22.3-10.2-34.4-6.8
	c-1.4,0.5-2.7,1.3-3.9,2.2c-2.3,1.7-4.8,3.1-7.5,4.2c-2.3,0.9-4.6,2-6.7,3.4c-4.4,5.3-10.1,7.2-17.1,7.2c-2.5-0.6-5.1-1.9-7-1.9
	c-10.9,0-21.7-0.6-32.4-3.8c-2.2-0.8-4.4-1.5-6.6-2.1c-20-5.2-41.1-0.8-61.1,2.1c-1.9,0.3-3.9,0.6-5.8,0.8
	c-21.1,1.8-39.7,11.3-55.8,25.5c-0.9,0.8-1.7,1.8-2.4,2.8c-2.3,3.1-4.6,6.2-6.8,9.4c-1.6,2.1-3,4.4-4.2,6.8
	c-4.2,9.8-5,19.7-0.9,29.8c0.6,1.5,1.1,3.1,1.3,4.7c0.3,1.6,0.8,3.2,1.4,4.7c1.3,3.2,2.8,6.3,3.5,9.8c0.2,0.8,0.5,1.6,0.8,2.3
	c0.3,1.2,0.7,2.3,1,3.5c0.7,3.3,1.1,6.6,1.4,10c0.3,3,0.3,5.9,0.3,8.9c0.1,0.9-0.3,1.9-0.9,2.5c-3.8,1.1-7.8,1.3-11.7,0.7
	c-2.1-0.4-4.1-0.9-6.1-1.4c-0.9-1.4-1.9-2.6-3-3.8c-1.5-1.6-3.6-2.6-5.9-2.7c-0.7-0.3-1.4-0.7-2-1.2c-0.3-0.3-0.8-0.3-1.1-0.4
	c-0.8-0.4-1.6-0.8-2.4-1.3c-1.5-0.8-3-1.7-4.6-2.4c-1.2-0.6-1.8-0.4-2.6,0.7c-1.6,2.1-2.8,4.5-3.6,7c-0.4,1.2-0.8,2.3-1.2,3.4
	c-1,2.7-2.3,5.3-2.5,8.2c-0.1,2.1-1.1,3.7-2,5.4c-0.3,0.7-1.1,1-1.8,0.9c-0.6-0.1-1.2-0.2-1.8-0.3c-3.9-0.9-7.8-1.8-11.7-2.6
	c-0.5-0.1-0.9-0.3-1.3-0.5c-1.7-0.4-3.3-1.1-4.8-2c-0.7-0.3-1.5-0.6-2.2-0.9l-0.4-0.1c-0.8-0.5-1.7-0.7-2.7-0.6
	c-2.9,0.2-5.4-1.4-8-2.6c-2.6-1.7-5.8-2.5-8.9-2.2c-1.4,0.1-2.8,0.5-4.1,1c-1,0.1-1.9,0.5-2.6,1.2c-0.2,0.2-0.4,0.4-0.6,0.6
	c-3.2,2.6-4.7,6.7-3.8,11.7c0.4,2,0.7,4,1,6c0.2,1.4,0.2,1.6,0.1,0.5c0.2,1.2,0.2,2.4,0.3,3.6c0.1,2,0.1,4,0,6
	c-0.1,1.4-0.2,1.6-0.1,0.5c-0.2,1.2-0.5,2.3-0.8,3.5c-1.5,5.1-2,9.9-0.6,15.2c0.7,2.2,1.5,4.4,2.5,6.5c0.5,1.9,1.2,3.7,2.1,5.5
	c0.3,0.5,0.4,1.1,0.7,1.6c-1,0.9-2,0.7-3,0.7c-6,0-12,0-18.1,0c-0.6,0-1.2,0-1.8-0.1v19.5h387.2v-17.6h-37
	C400.2,339.3,399,339.2,397.8,339.1z M116.8,338c-1.6,0.1-3.3,0-4.9-0.1c-2.6-0.5-5.3-0.5-7.9-0.1c-2,0.4-4-0.3-6-0.5
	c0.6-2.4,1-4.9,1.2-7.4c0.4-3.1,1.1-6.1,2.1-9c0.3-1.1,0.8-2.6,1.3-3.8c0.3-0.4,0.5-0.8,0.8-1.2l0,0l0.1-0.1c0.9-0.6,1.8-1.3,2.6-2
	h0.1c0.8-0.2,1.6-0.5,2.3-0.8c1.5-0.5,3-0.6,4.5-0.3c2.6,0.5,3,1,3,3.7c0.1,0.8,0,1.6-0.1,2.4c-0.4,2.5-0.4,5.1,0,7.6
	c0.3,2.8,0.8,5.6,1.6,8.4c0.2,0.9,0.4,1.8,0.6,2.8C117.8,337.8,117.3,337.9,116.8,338L116.8,338z M314.9,254.9
	c0.9-2.6,1.8-5.2,2.7-7.7h0.7c0.3,0.8,0.5,1.7,0.7,2.6c0.1,2.4,0.1,4.9,0.1,7.3c0.1,0.9-0.4,1.6-1.3,1.9c-1,0.4-2.1,0.2-2.9-0.5
	c-0.3-0.4-0.5-0.9-0.5-1.4C314.5,256.2,314.6,255.5,314.9,254.9L314.9,254.9z M275.3,248.9c2,0.3,3.9,0.7,5.8,1.2
	c0.4,0.1,0.7,0.7,1,1c0.1,0.1,0.1,0.2,0.1,0.3c0.2,3.8,0.5,7.7,0.6,11.5c0,0.1-0.2,0.3-0.5,0.6c-0.3-0.4-0.6-0.8-0.8-1.2
	c-2.2-4.2-4.3-8.5-6.5-12.7C275,249.5,275.2,249.3,275.3,248.9L275.3,248.9z M176.1,337.4c-8.8,0-17.6,0-26.3,0
	c-2,0-4.1,0.3-6.1,0.4c-1.7,0.1-3.5,0.1-5.2,0c-1.4-0.2-2.8-0.2-4.2-0.1c-1.6,0.3-2.5-0.5-2.8-2c-0.1-1.2,0-2.5,0.5-3.6
	c0.5-1.6,1.1-3.1,1.4-4.7c0.4-1.9,1.5-3.6,3.1-4.8c0.9-0.7,1.6-1.6,1.9-2.6c0.8-2.4,3.5-3.7,5.9-2.9c0.3,0.1,0.6,0.2,0.9,0.4
	c4.5,2.8,9,5.6,13.5,8.4c1.5,0.9,3,1.7,4.5,2.6c1.7,1,3.4,1.8,5.1,2.9c2.6,1.6,5.4,2.9,8.3,3.9c1.1,0.2,2.1,0.8,2.9,1.6
	C178.3,337.5,177.2,337.6,176.1,337.4L176.1,337.4z M329.6,337.8c-0.6,0.2-1.2,0.2-1.8,0.2c-1.5,0-3.1,0-4.6,0h-36.1
	c-1.4,0-2.9,0-4.3-0.2c-6.9-0.1-13.7-0.1-20.6-0.4c-3.7-0.2-7.4-0.3-11.2-0.4c-3.2,0.1-6.5-0.1-9.7-0.5c-1.6,0-3.3,0-4.9-0.1
	c-2.2-0.2-4.3-0.7-6.5-0.7c-1.8,0-3.3-1.5-3.3-3.3c-0.1-1.1,0.3-2.1,1-2.9c0.5-2.1,1-4.1,1.5-6.2c0.6-3,1.1-6,1.7-9
	c0.1-0.6,0.2-1.2,0.5-1.7c1.9-2.9,2.4-6.2,3.7-9.4c0.8-2.1,1.1-2.4,3.3-2.5c0.7,0,1.4,0,2.1,0.1c1.6,0.4,3.2,0.4,4.9,0
	c0.3-0.1,0.6-0.1,0.9,0c4.1,0.5,8.3,1,12.4,1.4c4.6,0.4,9.2,0.8,13.6-0.7c6.8-2.2,11.6-6.6,14-13.5c0.8-2.2,1.2-4.5,1.9-6.9
	c0.6,0,1.2,0,1.7,0.1c4,1.1,8,2.4,12,3.5c1.9,0.5,3.8,0.9,5.7,1.2c3.3,0.6,6.6,1.1,9.9,1.8c2.2,0.4,2.4,0.8,2.7,3
	c0.7,6.8,1.3,13.6,2.9,20.3c0.6,2.8,0.9,5.6,1.5,8.4s1.4,5.3,2.3,7.9s2,5.1,2.9,7.7c0.2,0.5,0.3,1,0.4,1.5
	C330.4,337.1,330.1,337.7,329.6,337.8L329.6,337.8z"/>
</svg>
