<svg id="Layer_1" data-name="Layer 1" xmlns="http://www.w3.org/2000/svg" viewBox="0 0 427.35 301.03"><defs><style>.cls-1{fill:#eb2227;}</style></defs><title>rotary-stability</title><path class="cls-1" d="M446.48,103.89A31.42,31.42,0,0,0,427.4,90c-13.35-3.14-38.62,1.36-49.62,26.8-5.75,13.29-7.76,23-8.37,29.36-4.81-4.52-11.59-8.43-20.24-7.4-9.56,1.15-24.09,8-39.46,15.16-12.39,5.81-25.21,11.81-36.29,15.31-26.67,8.42-47,12.45-65.82,13.06-11.59.37-22.25,4.62-30,12-8.92,8.44-13.47,20.42-13.14,34.66.41,17.93,3.85,53.45,6.42,77.91l-61.19,3.62h-.11a3.11,3.11,0,0,1-1.86-.62,14.86,14.86,0,0,0-23.38,8.26l-.85,3.41L82.1,320a14.73,14.73,0,0,0-21-.62L27.68,351.5a8.68,8.68,0,0,0,5.67,14.93c10.06.43,26-1.42,45.2-12.54,7.84,0,22.16,4.41,38.66,9.45,24.53,7.49,55.06,16.81,78.1,15.63,40.5-2.1,44.9-80,45.06-83.33,0,0,0-.08,0-.12l.63-55.76c14.36-.13,75-1.33,98.2-12.06.43,17,1.94,36,5.93,50.15-3.85,23.05-2,43.38,9.36,102a3,3,0,0,0,2.17,2.34c19.85,5.3,60.87,7.91,62.61,8h.19a3,3,0,0,0,2.51-4.64c-.48-.73-11.77-17.47-46.21-24.56.45-7.45,1.24-15.21,2.08-23.38,2.12-20.63,4.3-42,1-61.1-2.6-15.23-.64-28.08,1.84-44.35a392.54,392.54,0,0,0,4.77-43.63c0-.4,0-.8,0-1.2-.08-1.32-.16-2.62-.24-3.9l19.19-2.61.25-.06a18.6,18.6,0,0,0,4.76,1.95,19,19,0,0,0,4.63.58,18.8,18.8,0,0,0,11.61-4c9.26-7.24,21.13-19.86,25.09-38.86C453.86,125.54,452.42,113.26,446.48,103.89Zm-238.7,84.43c5.61-.18,11.34-.66,17.29-1.45,2.41,8.13,9.94,34.74,10,49.9l-.3,26.44L171.3,245.64c-.44-6.46-.75-12.25-.86-16.85C169.83,201.68,188.75,188.93,207.78,188.31Zm-112,125a8.72,8.72,0,0,1,8.29,1.29,9.14,9.14,0,0,0,5.48,1.83l.52,0,61.42-3.63c.78,7.27,1.43,13.13,1.81,16.57l-80.89-1.21a6.6,6.6,0,0,1-4.06-1.49l1.78-7.14A8.72,8.72,0,0,1,95.79,313.33ZM195,373c-22,1.16-51.95-8-76-15.37-17.54-5.36-32.69-10-41.34-9.7a3,3,0,0,0-1.42.41C58,359.06,43,360.83,33.61,360.44a2.66,2.66,0,0,1-2.42-1.74,2.62,2.62,0,0,1,.65-2.87l33.41-32.09a8.72,8.72,0,0,1,12.45.36l5.59,6a12.64,12.64,0,0,0,9,4l81.74,1.22,1,6.7a3,3,0,0,0,3,2.58l.43,0a3,3,0,0,0,2.54-3.39s-1.52-11-1.8-13.55c-1.38-12.34-5.31-48.24-7.4-75.71l62.9,17.41-.29,26C234.24,297.78,229.73,371.18,195,373ZM374.78,231.26c-2.57,16.81-4.59,30.08-1.83,46.26,3.13,18.33,1,39.25-1.09,59.48-.94,9.2-1.84,17.9-2.24,26.29a3,3,0,0,0,2.46,3.1c21.5,4,33.78,12,39.89,17.25-12.51-1-37.37-3.27-51.94-6.8-10.95-56.88-12.68-76.42-8.86-98.65a3,3,0,0,0-.08-1.35c-9-30.79-5.2-89.41-5.16-90a3,3,0,1,0-6-.4c-.08,1.21-1,16-.85,34.57-8.48,5.08-28.16,8.89-57.09,11-17.94,1.33-34.54,1.64-41.05,1.71-.81-15.78-7.32-39.13-9.87-47.77,13.07-2.13,27.39-5.71,44.14-11,11.45-3.62,24.45-9.71,37-15.6,14.93-7,29-13.6,37.64-14.63,10.73-1.28,18.2,8.23,21.2,12.94.95,1.49,3.43,5.63,4.1,7,3.28,6.71,3.78,14,4.3,22.83a8.5,8.5,0,0,1,0,.89A388.36,388.36,0,0,1,374.78,231.26Zm70.1-92.08c-3.59,17.23-14.44,28.74-22.91,35.36a12.82,12.82,0,0,1-11.08,2.36,12.34,12.34,0,0,1-8.36-7A3,3,0,1,0,397,172.3a18.47,18.47,0,0,0,1.85,3.23l-14.19,1.93a46.93,46.93,0,0,0-3.83-14.77c-.83-1.79-4.2-7.52-5.6-9.57-.26-2.56-.69-13.79,8-33.9a38.47,38.47,0,0,1,21.21-21.08c8.47-3.4,16.68-3.4,21.53-2.25C428.74,96.52,452.39,103.17,444.89,139.18Z" transform="translate(-25 -89.16)"/></svg>