<svg id="Layer_2" data-name="Layer 2" xmlns="http://www.w3.org/2000/svg" viewBox="0 0 489.5 489.5"><defs><style>.cls-1{fill:#eb5858;}</style></defs><title>rotary-stability</title><path class="cls-1" d="M397.8,339.14c-2.24-.13-4.47-.39-6.71-.43-4.18-.07-8.37,0-12.56,0a31.45,31.45,0,0,1-9.38-1,10.3,10.3,0,0,1-5-2.66,5.77,5.77,0,0,0-4.4-1.83c-1.33,0-2.66-.1-4,0a14.57,14.57,0,0,1-8.44-2.24,4.37,4.37,0,0,1-2.42-3.93c0-1.22,0-2.45-.05-3.68-.12-5.09.37-10.21-.55-15.28a17.15,17.15,0,0,1-.06-1.83,38.77,38.77,0,0,1,.62-7.92c.36-2.73.84-5.44,1.28-8.16a2,2,0,0,1,1.55-1.7,27.12,27.12,0,0,1,3.3-.57c3.14-.32,6.3-.55,9.44-.88,2.23-.24,4.44-.72,6.67-.85a33.24,33.24,0,0,1,7,.12,14.06,14.06,0,0,0,6.63-.51c15-2.87,15.61-20.74,11.14-30.31-2.55-5.74-13.4-1.28-19.79.64-4.47,1.28-4.47,10.21-10.86,10.75-1.2-.2-2.43-.29-3.64-.41-2.74-.26-5.49-.41-8.21-.8-3.25-.46-3.88-1.32-3.93-4.66,0-.41,0-.82,0-1.23,0-1.4,0-2.8,0-4.2-.85-10.31,1.07-19.89,3.62-30.1,1.91-8.94,3.83-17.23,6.38-26.17,4.47,6.38,12.13,14,19.18,5.44a2.8,2.8,0,0,1,3-1.12c2,.39,4,.4,5.83,1.57,2.17,1.37,4.09.6,5.34-1.66,1.76-1,.48-4.88,3-4.88,22.34-3.19,34.47-21.7,28.11-42.84a39.37,39.37,0,0,0-1.62-4.88,38.26,38.26,0,0,0-2.24-4.62c-7-12.13-22.34-10.21-34.42-6.77a15.71,15.71,0,0,0-3.87,2.18,31.3,31.3,0,0,1-7.45,4.17,35.39,35.39,0,0,0-6.68,3.39c-4.39,5.33-10.13,7.24-17.15,7.24-2.55-.64-5.11-1.91-7-1.91-10.85,0-21.7-.64-32.39-3.82a59.54,59.54,0,0,0-6.61-2.13c-20-5.17-41.09-.75-61.07,2.08q-2.9.44-5.8.84c-21.14,1.76-39.65,11.33-55.85,25.54a16.3,16.3,0,0,0-2.4,2.77c-2.3,3.12-4.61,6.24-6.81,9.43a41.16,41.16,0,0,0-4.16,6.76c-4.2,9.76-5,19.7-.93,29.75a22,22,0,0,1,1.33,4.69,22.76,22.76,0,0,0,1.4,4.67c1.29,3.22,2.83,6.34,3.5,9.78.16.8.52,1.55.75,2.33.34,1.17.71,2.34,1,3.53.68,3.3,1.1,6.63,1.45,10,.31,3,.26,5.91.34,8.86a3.22,3.22,0,0,1-.91,2.52,27,27,0,0,1-11.67.69c-2.07-.36-4.11-.88-6.14-1.36a30.72,30.72,0,0,0-3-3.83A8.53,8.53,0,0,0,145.6,265a6.22,6.22,0,0,1-2-1.24c-.27-.26-.76-.27-1.13-.44-.81-.4-1.61-.84-2.41-1.26-1.52-.82-3-1.7-4.58-2.44-1.24-.59-1.83-.43-2.64.68a25.22,25.22,0,0,0-3.62,7.05c-.38,1.16-.78,2.31-1.22,3.44-1,2.66-2.29,5.29-2.46,8.16-.12,2.07-1.11,3.68-2,5.38a1.72,1.72,0,0,1-1.81.89,16.37,16.37,0,0,1-1.8-.33c-3.88-.86-7.76-1.76-11.65-2.59a4.08,4.08,0,0,1-1.3-.51,17.64,17.64,0,0,1-4.79-2,17.65,17.65,0,0,1-2.16-.91l-.45-.1a4.35,4.35,0,0,0-2.65-.59c-2.88.2-5.39-1.39-8-2.65A13.7,13.7,0,0,0,80,273.36a15.92,15.92,0,0,0-4.13,1,4,4,0,0,0-2.55,1.18c-.2.21-.39.42-.57.64-3.21,2.58-4.74,6.67-3.82,11.68.36,2,.71,4,1,6q.32,2.13.08.55c.15,1.2.24,2.4.32,3.61a45.66,45.66,0,0,1,0,6q-.2,2.13-.05.49a30.93,30.93,0,0,1-.85,3.45c-1.48,5.12-2,9.93-.56,15.16a45.57,45.57,0,0,0,2.46,6.53,25.18,25.18,0,0,0,2.12,5.48c.26.52.43,1.08.65,1.64-1,.91-2,.7-3,.7q-9,0-18.07,0c-.59,0-1.17,0-1.76-.08V356.9H438.47V339.3l-37,0C400.24,339.28,399,339.21,397.8,339.14Zm-281-1.14a29,29,0,0,1-4.88-.15,23.61,23.61,0,0,0-7.91-.08c-2,.36-4-.32-6-.51a47,47,0,0,0,1.22-7.4,44.52,44.52,0,0,1,2.13-9c.35-1.06.84-2.65,1.35-3.81a9.68,9.68,0,0,0,.75-1.23l0,0,.08-.08c.9-.65,1.8-1.31,2.64-2l.11,0c.78-.23,1.55-.52,2.32-.79a8.56,8.56,0,0,1,4.53-.27c2.55.47,3,1,3,3.7a11.45,11.45,0,0,1-.07,2.44,25.93,25.93,0,0,0,0,7.59,55.27,55.27,0,0,0,1.58,8.4c.21.87.39,1.75.61,2.77A5.32,5.32,0,0,1,116.82,338Zm198.07-83.14c.88-2.59,1.8-5.16,2.71-7.74l.66,0a12.15,12.15,0,0,1,.67,2.55c.11,2.44.1,4.88.08,7.32a1.72,1.72,0,0,1-1.26,1.87,2.74,2.74,0,0,1-2.85-.53,2,2,0,0,1-.49-1.37A7.62,7.62,0,0,1,314.89,254.86Zm-39.59-5.95a43.44,43.44,0,0,1,5.83,1.21c.39.08.67.68,1,1a.52.52,0,0,1,.07.29c.22,3.84.45,7.67.65,11.51,0,.14-.21.29-.45.61a12,12,0,0,1-.82-1.21q-3.27-6.35-6.49-12.71C275,249.53,275.18,249.3,275.3,248.91Zm-99.22,88.53c-8.78,0-17.55,0-26.33,0-2,0-4.06.33-6.09.42a35.68,35.68,0,0,1-5.18,0,15.21,15.21,0,0,0-4.24-.06c-1.62.28-2.49-.45-2.82-2a7.25,7.25,0,0,1,.48-3.6c.46-1.56,1.05-3.1,1.41-4.68a7.94,7.94,0,0,1,3.06-4.79,5.14,5.14,0,0,0,1.89-2.63,4.61,4.61,0,0,1,6.74-2.44c4.53,2.76,9,5.63,13.5,8.42,1.47.91,3,1.74,4.5,2.59,1.69,1,3.42,1.83,5.06,2.85a40.72,40.72,0,0,0,8.31,3.85,5,5,0,0,1,2.87,1.6A5,5,0,0,1,176.08,337.45Zm153.54.36a7.4,7.4,0,0,1-1.8.25c-1.53,0-3.06,0-4.59,0H287.1c-1.43,0-2.85,0-4.27-.19-6.87-.09-13.71-.11-20.58-.4-3.72-.16-7.44-.33-11.16-.41a70.41,70.41,0,0,1-9.71-.46c-1.64,0-3.29,0-4.93-.15-2.18-.23-4.29-.69-6.49-.74a3.33,3.33,0,0,1-3.28-3.28,3.8,3.8,0,0,1,1-2.87c.5-2.07,1-4.14,1.46-6.22.64-3,1.15-6,1.74-9a4.8,4.8,0,0,1,.52-1.74c1.93-2.85,2.44-6.25,3.67-9.36.82-2.08,1.14-2.43,3.27-2.5a10.76,10.76,0,0,1,2.14.07,11.62,11.62,0,0,0,4.85.05,2.62,2.62,0,0,1,.91,0c4.15.48,8.29,1,12.44,1.43,4.57.44,9.19.79,13.65-.66,6.81-2.21,11.62-6.62,14-13.46.76-2.2,1.23-4.5,1.88-6.93a7.85,7.85,0,0,1,1.72.1c4,1.13,8,2.36,12.05,3.46,1.86.51,3.77.85,5.67,1.2,3.31.61,6.63,1.13,9.93,1.78,2.22.44,2.42.81,2.66,3,.73,6.79,1.34,13.59,2.86,20.27.63,2.78.88,5.65,1.52,8.43s1.42,5.32,2.3,7.92,2,5.15,2.93,7.73a7.24,7.24,0,0,1,.44,1.46A1,1,0,0,1,329.62,337.81Z"/></svg>