<?xml version="1.0" encoding="utf-8"?>
<!-- Generator: Adobe Illustrator 21.1.0, SVG Export Plug-In . SVG Version: 6.00 Build 0)  -->
<svg version="1.1" id="Layer_2" xmlns="http://www.w3.org/2000/svg" xmlns:xlink="http://www.w3.org/1999/xlink" x="0px" y="0px"
	 viewBox="0 0 489.5 489.5" style="enable-background:new 0 0 489.5 489.5;" xml:space="preserve">
<style type="text/css">
	.st0{fill:#EB5858;}
</style>
<title>rotary-stability</title>
<path class="st0" d="M88.3,339.3h-37v17.6h387.2v-19.5c-0.6,0.1-1.2,0.1-1.8,0.1c-6,0-12.1,0-18.1,0c-1,0-2,0.2-3-0.7
	c0.2-0.6,0.4-1.1,0.6-1.6c0.9-1.7,1.6-3.6,2.1-5.5c1-2.1,1.8-4.3,2.5-6.5c1.4-5.2,0.9-10-0.6-15.2c-0.3-1.1-0.6-2.3-0.8-3.5
	c0.1,1.1,0.1,0.9-0.1-0.5c-0.1-2-0.1-4,0-6c0.1-1.2,0.2-2.4,0.3-3.6c-0.2,1.1-0.1,0.9,0.1-0.5c0.3-2,0.6-4,1-6
	c0.9-5-0.6-9.1-3.8-11.7c-0.2-0.2-0.4-0.4-0.6-0.6c-0.7-0.7-1.6-1.1-2.6-1.2c-1.3-0.5-2.7-0.9-4.1-1c-3.1-0.3-6.3,0.4-8.9,2.2
	c-2.6,1.3-5.1,2.9-8,2.6c-0.9-0.1-1.9,0.1-2.7,0.6l-0.4,0.1c-0.7,0.4-1.4,0.7-2.2,0.9c-1.5,0.9-3.1,1.6-4.8,2
	c-0.4,0.2-0.8,0.4-1.3,0.5c-3.9,0.8-7.8,1.7-11.7,2.6c-0.6,0.1-1.2,0.3-1.8,0.3c-0.7,0.1-1.5-0.2-1.8-0.9c-0.9-1.7-1.9-3.3-2-5.4
	c-0.2-2.9-1.5-5.5-2.5-8.2c-0.4-1.1-0.8-2.3-1.2-3.4c-0.8-2.5-2-4.9-3.6-7c-0.8-1.1-1.4-1.3-2.6-0.7c-1.6,0.7-3.1,1.6-4.6,2.4
	c-0.8,0.4-1.6,0.9-2.4,1.3c-0.4,0.2-0.9,0.2-1.1,0.4c-0.6,0.5-1.3,1-2,1.2c-2.2,0.1-4.4,1.1-5.9,2.7c-1.1,1.2-2.1,2.5-3,3.8
	c-2,0.5-4.1,1-6.1,1.4c-3.9,0.6-7.9,0.4-11.7-0.7c-0.7-0.7-1-1.6-0.9-2.5c0.1-2.9,0-5.9,0.3-8.9c0.3-3.4,0.8-6.7,1.4-10
	c0.3-1.2,0.7-2.4,1-3.5c0.2-0.8,0.6-1.5,0.8-2.3c0.7-3.4,2.2-6.6,3.5-9.8c0.6-1.5,1.1-3.1,1.4-4.7c0.3-1.6,0.7-3.2,1.3-4.7
	c4.1-10.1,3.3-20-0.9-29.8c-1.2-2.4-2.6-4.6-4.2-6.8c-2.2-3.2-4.5-6.3-6.8-9.4c-0.7-1-1.5-1.9-2.4-2.8
	c-16.2-14.2-34.7-23.8-55.9-25.5c-1.9-0.3-3.9-0.5-5.8-0.8c-20-2.8-41.1-7.2-61.1-2.1c-2.2,0.6-4.4,1.3-6.6,2.1
	c-10.7,3.2-21.5,3.8-32.4,3.8c-1.9,0-4.5,1.3-7,1.9c-7,0-12.8-1.9-17.1-7.2c-2.1-1.4-4.3-2.5-6.7-3.4c-2.7-1-5.2-2.4-7.5-4.2
	c-1.2-0.9-2.5-1.6-3.9-2.2c-12.1-3.4-27.4-5.4-34.4,6.8c-0.8,1.5-1.6,3-2.2,4.6c-0.6,1.6-1.2,3.2-1.6,4.9
	c-6.4,21.1,5.8,39.6,28.1,42.8c2.5,0,1.2,3.9,3,4.9c1.2,2.3,3.2,3,5.3,1.7c1.8-1.2,3.8-1.2,5.8-1.6c1.1-0.3,2.3,0.2,3,1.1
	c7,8.6,14.7,0.9,19.2-5.4c2.6,8.9,4.5,17.2,6.4,26.2c2.5,10.2,4.5,19.8,3.6,30.1c0,1.4,0,2.8,0,4.2c0,0.4,0,0.8,0,1.2
	c0,3.3-0.7,4.2-3.9,4.7c-2.7,0.4-5.5,0.5-8.2,0.8c-1.2,0.1-2.4,0.2-3.6,0.4c-6.4-0.5-6.4-9.5-10.9-10.8c-6.4-1.9-17.2-6.4-19.8-0.6
	c-4.5,9.6-3.9,27.4,11.1,30.3c2.1,0.7,4.4,0.9,6.6,0.5c2.3-0.3,4.7-0.3,7-0.1c2.2,0.1,4.4,0.6,6.7,0.9c3.1,0.3,6.3,0.6,9.4,0.9
	c1.1,0.1,2.2,0.3,3.3,0.6c0.8,0.2,1.4,0.9,1.5,1.7c0.4,2.7,0.9,5.4,1.3,8.2c0.5,2.6,0.7,5.3,0.6,7.9c0,0.6,0,1.2-0.1,1.8
	c-0.9,5.1-0.4,10.2-0.5,15.3c0,1.2,0,2.5,0,3.7c0,1.7-0.9,3.2-2.4,3.9c-2.5,1.6-5.5,2.4-8.4,2.2c-1.3-0.1-2.7,0-4,0
	c-1.7-0.1-3.3,0.6-4.4,1.8c-1.4,1.3-3.1,2.3-5,2.7c-3.1,0.8-6.2,1.1-9.4,1c-4.2,0-8.4-0.1-12.6,0c-2.2,0-4.5,0.3-6.7,0.4
	C90.7,339.2,89.5,339.3,88.3,339.3z M372.9,338c-0.5-0.1-1-0.2-1.4-0.4c0.2-1,0.4-1.9,0.6-2.8c0.7-2.8,1.3-5.6,1.6-8.4
	c0.4-2.5,0.4-5.1,0-7.6c-0.1-0.8-0.1-1.6-0.1-2.4c0-2.7,0.5-3.2,3-3.7c1.5-0.3,3.1-0.2,4.5,0.3c0.8,0.3,1.5,0.6,2.3,0.8h0.1
	c0.8,0.7,1.7,1.4,2.6,2l0.1,0.1l0,0c0.2,0.4,0.5,0.8,0.8,1.2c0.5,1.2,1,2.8,1.3,3.8c1,2.9,1.7,5.9,2.1,9c0.2,2.5,0.6,5,1.2,7.4
	c-2,0.2-4,0.9-6,0.5c-2.6-0.4-5.3-0.4-7.9,0.1C376.2,338,374.6,338.1,372.9,338L372.9,338z M174.8,254.9c0.3,0.7,0.4,1.4,0.5,2.1
	c0,0.5-0.2,1-0.5,1.4c-0.8,0.7-1.9,0.9-2.9,0.5c-0.8-0.2-1.4-1-1.3-1.9c0-2.4,0-4.9,0.1-7.3c0.1-0.9,0.4-1.7,0.7-2.6h0.7
	C173.1,249.7,174,252.3,174.8,254.9L174.8,254.9z M214.4,248.9c0.1,0.4,0.3,0.6,0.2,0.7c-2.1,4.2-4.3,8.5-6.5,12.7
	c-0.2,0.4-0.5,0.8-0.8,1.2c-0.2-0.3-0.5-0.5-0.5-0.6c0.2-3.8,0.4-7.7,0.6-11.5c0-0.1,0-0.2,0.1-0.3c0.3-0.3,0.6-0.9,1-1
	C210.5,249.6,212.5,249.2,214.4,248.9L214.4,248.9z M313.7,337.5c-1.1,0.2-2.2,0-3.1-0.5c0.7-0.8,1.8-1.4,2.9-1.6
	c2.9-1,5.7-2.3,8.3-3.9c1.6-1,3.4-1.9,5.1-2.9c1.5-0.9,3-1.7,4.5-2.6c4.5-2.8,9-5.7,13.5-8.4c0.3-0.2,0.6-0.3,0.9-0.4
	c2.4-0.8,5,0.4,5.9,2.9c0.3,1.1,1,2,1.9,2.6c1.6,1.2,2.7,2.9,3.1,4.8c0.4,1.6,1,3.1,1.4,4.7c0.5,1.1,0.6,2.4,0.5,3.6
	c-0.3,1.5-1.2,2.3-2.8,2c-1.4-0.2-2.8-0.2-4.2,0.1c-1.7,0.1-3.5,0.1-5.2,0c-2-0.1-4.1-0.4-6.1-0.4
	C331.2,337.4,322.5,337.4,313.7,337.5L313.7,337.5z M160.1,337.8c-0.5-0.2-0.8-0.7-0.7-1.2c0.1-0.5,0.2-1,0.4-1.5
	c0.9-2.6,2.1-5.1,2.9-7.7s1.7-5.1,2.3-7.9s0.9-5.6,1.5-8.4c1.5-6.7,2.1-13.5,2.9-20.3c0.2-2.2,0.4-2.6,2.7-3
	c3.3-0.6,6.6-1.2,9.9-1.8c1.9-0.4,3.8-0.7,5.7-1.2c4-1.1,8-2.3,12-3.5c0.6-0.1,1.1-0.1,1.7-0.1c0.6,2.4,1.1,4.7,1.9,6.9
	c2.4,6.8,7.2,11.2,14,13.5c4.5,1.5,9.1,1.1,13.6,0.7c4.2-0.4,8.3-0.9,12.4-1.4c0.3-0.1,0.6-0.1,0.9,0c1.6,0.3,3.3,0.3,4.9,0
	c0.7-0.1,1.4-0.1,2.1-0.1c2.1,0.1,2.4,0.4,3.3,2.5c1.2,3.1,1.7,6.5,3.7,9.4c0.3,0.5,0.5,1.1,0.5,1.7c0.6,3,1.1,6,1.7,9
	c0.5,2.1,1,4.1,1.5,6.2c0.7,0.8,1.1,1.8,1,2.9c0,1.8-1.5,3.3-3.3,3.3c-2.2,0-4.3,0.5-6.5,0.7c-1.6,0.1-3.3,0.1-4.9,0.1
	c-3.2,0.4-6.5,0.5-9.7,0.5c-3.7,0.1-7.4,0.2-11.2,0.4c-6.9,0.3-13.7,0.3-20.6,0.4c-1.4,0.2-2.8,0.2-4.3,0.2h-36.1
	c-1.5,0-3.1,0-4.6,0C161.3,338,160.7,338,160.1,337.8L160.1,337.8z"/>
</svg>
