<svg id="Layer_1" data-name="Layer 1" xmlns="http://www.w3.org/2000/svg" viewBox="0 0 658.56 242.51"><defs><style>.cls-1,.cls-2{fill:#eb5858;}.cls-1,.cls-3{stroke:#fff;stroke-miterlimit:10;}.cls-1{stroke-width:4px;}.cls-3{fill:none;}.cls-4{fill:#fff;}</style></defs><title>rotary-stability-01</title><path class="cls-1" d="M471,304c23.5,5.5,72.5-9.5,92-15,27.5-9.5,55-2,55-2s10.5-31.5,35-31c31.5,2.5,32.5,34.5,28.5,43.5-2,5-4,6-4,6s-1,15-2,16-6,0-6,0a14.39,14.39,0,0,1-2,3c-1,1-3,0-3,0s-1,3-3,4c2,7,25,17,30,18s16,1,20,2,46,24,51,25c7,2,16,3,22,1s12-8,17-9,19-5,20-5,1,2,1,2,4-2,5-1c1,3-6,5-6,5s0,3-1,4-3,1-5,2-8,2-10,3-9,7-10,8c-2,3-7,7-11,7s-9-2-13-3-52-6-66-10c-8-1-14-6-17-7-6,0-50-15-50-15a4.83,4.83,0,0,1-4,0c-4,5-31,19-31,19a120.81,120.81,0,0,1,3,14c1,7-2,27-2,30s1,22,1,22l2,15s42,4,42,5-2,1-2,1,4,1,4,2-3,1-3,1,2,0,2,1-3,1-3,1,2,1,1,2-31,0-31,0-19-1-21-2,0-8,0-8-16-56-17-64a109,109,0,0,1-1-12s-17,1-22,1c-8,4-41,17-50,19s-24,6-26,4-2-19-3-21c-2-2-3,15-3,15l4,63a41.5,41.5,0,0,1,0,12c-1,10-7,15-9,16-5,3-27,0-30,0-12-3-41-19-45-21s-17-11-25-15-21-6-21-6-9,5-11,5-13,21-13,21,1,8,0,12a9.61,9.61,0,0,1-9,7c-4,0-10-5-11-7-6-13-4-29-3-34s3-10,3-13c-1-16,5-33,5-33s-46-3-53-2-32,6-32,6,2,5,0,8-6,1-6,1-18,11-22,14-8,15-11,16c-8,2-12-1-12-3-2-7,3-28,6-32s13-13,14-16,5-28,11-31c3-2,7,2,7,2s12,9,15,11a10.76,10.76,0,0,1,4,5s21,1,25,0,34-11,40-11,24,2,28,2,12-2,12-2l2-3,37-25,21-12,15-15C429.5,296.5,464.5,302.5,471,304Z" transform="translate(-171.04 -253.99)"/><path class="cls-2" d="M471,304c23.5,5.5,72.5-9.5,92-15,27.5-9.5,55-2,55-2s10.5-31.5,35-31c31.5,2.5,32.5,34.5,28.5,43.5-2,5-4,6-4,6s-1,15-2,16-6,0-6,0a14.39,14.39,0,0,1-2,3c-1,1-3,0-3,0s-1,3-3,4c2,7,25,17,30,18s16,1,20,2,46,24,51,25c7,2,16,3,22,1s12-8,17-9,19-5,20-5,1,2,1,2,4-2,5-1c1,3-6,5-6,5s0,3-1,4-3,1-5,2-8,2-10,3-9,7-10,8c-2,3-7,7-11,7s-9-2-13-3-52-6-66-10c-8-1-14-6-17-7-6,0-50-15-50-15a4.83,4.83,0,0,1-4,0c-4,5-31,19-31,19a120.81,120.81,0,0,1,3,14c1,7-2,27-2,30s1,22,1,22l2,15s42,4,42,5-2,1-2,1,4,1,4,2-3,1-3,1,2,0,2,1-3,1-3,1,2,1,1,2-31,0-31,0-19-1-21-2,0-8,0-8-16-56-17-64a109,109,0,0,1-1-12s-17,1-22,1c-8,4-41,17-50,19s-24,6-26,4-2-19-3-21c-2-2-3,15-3,15l4,63a41.5,41.5,0,0,1,0,12c-1,10-7,15-9,16-5,3-27,0-30,0-12-3-41-19-45-21s-17-11-25-15-21-6-21-6-9,5-11,5-13,21-13,21,1,8,0,12a9.61,9.61,0,0,1-9,7c-4,0-10-5-11-7-6-13-4-29-3-34s3-10,3-13c-1-16,5-33,5-33s-46-3-53-2-32,6-32,6,2,5,0,8-6,1-6,1-18,11-22,14-8,15-11,16c-8,2-12-1-12-3-2-7,3-28,6-32s13-13,14-16,5-28,11-31c3-2,7,2,7,2s12,9,15,11a10.76,10.76,0,0,1,4,5s21,1,25,0,34-11,40-11,24,2,28,2,12-2,12-2l2-3,37-25,21-12,15-15C429.5,296.5,464.5,302.5,471,304Z" transform="translate(-171.04 -253.99)"/><path class="cls-3" d="M632.5,309.5c13,0,29,19,29,19" transform="translate(-171.04 -253.99)"/><path class="cls-3" d="M612.5,342.5c10,3,22,13,22,13" transform="translate(-171.04 -253.99)"/><path class="cls-3" d="M603.5,374.5a109.91,109.91,0,0,1-25,8" transform="translate(-171.04 -253.99)"/><path class="cls-4" d="M341.5,413.5s13-6,15-7c4,3,16,25,19,25s26-13,26-11-2,14-1,16,17,4,19,4,12,6,12,6-14-5-21-6-17-1-23-2-46-17-46-17,2-3,2-5A3.7,3.7,0,0,0,341.5,413.5Z" transform="translate(-171.04 -253.99)"/><line class="cls-3" x1="164.46" y1="121.51" x2="185.46" y2="152.51"/><path class="cls-3" d="M431.5,446.5c0,5,18,27,46.77,13.45" transform="translate(-171.04 -253.99)"/><path class="cls-3" d="M401.5,420.5c-2-22-2-64,3-78a72.33,72.33,0,0,1,15-24" transform="translate(-171.04 -253.99)"/><path class="cls-3" d="M309.5,407.5c3-9,32,6,32,6" transform="translate(-171.04 -253.99)"/></svg>