<?xml version="1.0" encoding="utf-8"?>
<!-- Generator: Adobe Illustrator 20.1.0, SVG Export Plug-In . SVG Version: 6.00 Build 0)  -->
<svg version="1.1" id="Layer_1" xmlns="http://www.w3.org/2000/svg" xmlns:xlink="http://www.w3.org/1999/xlink" x="0px" y="0px"
	 viewBox="0 0 200 200" style="enable-background:new 0 0 200 200;" xml:space="preserve">
<style type="text/css">
	.st0{fill:#404041;}
	.st1{fill:#FFFFFF;}
</style>
<title>FCS-icon</title>
<rect class="st0" width="200" height="200"/>
<rect x="35.8" y="35.6" class="st1" width="129" height="129"/>
<g>
	<path class="st0" d="M76.2,117.5c-1.5,0.8-8.5,2.5-13.4,3.1c-1.4,0.2-2.6,0.5-3.6,0.8c-0.6,0.2-1.5,0.9-1.9,1.8
		c-0.6,1.4-0.1,2.3-0.1,2.6c1.1,3.8,6.3,12.9,12.1,21.6c11.1-22.1,23.4-46.4,32.4-64.3c-3.6,4.7-11.7,13.7-20.4,18.3
		c-1.4,0.7-5.4,2.2-8.8,0.5c0,0-1.1-0.5-1.5-1.3c-0.4,0.1-0.8,0.1-1.3,0.1c-2.7-0.1-5.4-1.3-6.5-2.2c0,0-0.7-0.5-1.3-1.4
		c-0.9,0-1.8-0.1-2.8-0.3c-2.3-0.6-4.3-1.9-5.2-2.9c0,0-0.6-0.6-0.7-1.6c-0.8,0-1.6-0.2-2.4-0.4c-2.3-0.7-3.9-2-4.6-3.2
		c0,0-0.8-0.8-1.1-1.7c-0.4-0.1-0.9-0.3-1.4-0.5c-2.5-1-3.6-2.5-4-3.9c0,0-0.3-0.9-0.7-1.9c-0.5-0.2-1.1-0.5-1.6-1
		c-1.1-0.9-1.8-1.9-2.1-2.7v88.1H41l0,0c-1.1-2-1.7-3.9-0.6-6.7c1.3-3.5,3.7-4.8,5.4-5.4c4.1-1.3,10.4-1.4,20.2-2.5
		c0.6-0.1,1.2-0.1,1.8-0.2c0.3-0.6,0.6-1.2,0.9-1.8c-0.8,0.1-1.6,0.2-2.4,0.3c-2.5,0.3-4.8,0.5-6.8,0.7c-1.6-2.4-3-4.7-4.1-6.7
		c-5-9.2-8.6-15.7-5.1-22.8c3-6,7.8-5.9,14.7-9.3c3.6-1.8,5.9-3.3,8-2.3c3,1.4,6.2,1.8,6.2,1.8s1.6,0.8,0.4,2.8
		c-1.7,0.6-0.9,1.5-0.9,1.5C80.1,114.8,77.7,116.7,76.2,117.5z"/>
	<path class="st0" d="M134,44.4c0.4,6.7-4.4,12.7-10.7,13.3c-0.7,0.1-1.4,0.1-2,0l-0.2,0.3c-0.3,0.6-1,1.1-1.5,1l-0.4-0.1
		c-1.5,2.9-5.3,10.5-10.4,20.7c3,0.2,7.4,3.1,10.1,3.4c3.5,0.4,6.1-4,5.6-7.1c-0.4-2.1-0.3-8.3,3.8-13.6c2.4-3.1,5.4-5.1,8.3-6.2
		c5.4-2,11-0.7,14.6,2.9c2.7,2.8,7.7,8,14.1,13.7V35.2h-36.2C131.8,37.2,133.8,40.5,134,44.4z"/>
	<path class="st0" d="M55.1,60.2c12.6-2.2,28.9-8.4,35.9-10.9c5.2-1.9,10.1-1.5,12.3,1.5c1.2,1.6,1.8,4,0.9,7.2
		c-1.5,5.5-6.7,10.3-8.7,11.8c-2.9,2.2-4.7,6.4-2,7.4c2.2,0.8,8,0.3,10.4,1.2c-0.1,0.2-0.2,0.4-0.3,0.6c5.7-11.4,9.8-19.5,11-21.8
		l-0.4-0.1c-0.5-0.1-0.7-0.7-0.4-1.3l0.4-0.7c0.1-0.2,0.2-0.4,0.4-0.5c-2.1-2-3.5-4.8-3.7-8c-0.3-4.7,2-9.1,5.6-11.4H35.4v26.2
		C39.4,62,45.5,61.9,55.1,60.2z"/>
	<path class="st0" d="M163.2,119.9c-0.2,0-0.3-0.1-0.5-0.1c-3.1,0.6-5.8,0.3-5.8,0.3c-2.5,0.5-6.2,0.6-9.8-0.4
		c-0.3-0.1-0.7-0.2-1-0.3c-2.8,0-5-0.1-5-0.1c-2.2,0.3-6,0-9.1-1c-1.2-0.4-2.2-0.9-3.1-1.4c-2.7,0.5-3.1,0.2-3.1,0.2
		c-2,0-5.9-0.6-8.6-2.2c-2-0.2-3.9-0.7-3.9-0.7c-4.8-0.7-6.8-4.1-7.2-5.4c-2.7-7.6-1.4-17.7-0.1-23.4c-9.1,18-21.3,42.2-32.3,64.2
		c11.8-1.8,24.7-4.5,29.4-6.5c0.3-0.1,1.7-0.4,2.6-2c0.6-1,0.4-2.2,0.1-2.8c-0.5-0.9-1.2-2-2.3-3.1c-3.7-3.8-7.7-9.5-8.2-11
		c-0.5-1.5-0.6-4.4,0.9-3.9c0,0,1.3-0.3,0.7-1.6c0.9-2.2,2.9-1.9,2.9-1.9s2.9,1.6,6.9,2.3c2.9,0.5,3.4,3.2,4.9,6.9
		c2.9,7.4,7.7,10.8,4.1,17.8c-4.2,8.2-14.3,10.1-27.5,12.8c-5.5,1.1-12.6,1.9-19.2,2.4c-0.3,0.6-0.6,1.2-0.9,1.8
		c3.3-0.2,6.7-0.5,10-0.9c1.5,2,2.9,3.8,4.1,5.4h83v-44.8C164.5,120.1,163.9,120,163.2,119.9z"/>
	<path class="st0" d="M65.8,164.9h5.1c-1-1.2-2-2.6-3.1-4C67.1,162.3,66.4,163.6,65.8,164.9z"/>
	<path class="st0" d="M63.4,159c-7.4,0.5-13.1,0.6-13.7,0.7c-1.2,0.1-2.2,1.6-1.6,2.6c0.3,0.5,1.1,1.4,2.3,2.5h10
		C61.4,163,62.4,161,63.4,159z"/>
</g>
</svg>
