<?xml version="1.0" encoding="utf-8"?>
<!-- Generator: Adobe Illustrator 21.1.0, SVG Export Plug-In . SVG Version: 6.00 Build 0)  -->
<svg version="1.1" id="Layer_1" xmlns="http://www.w3.org/2000/svg" xmlns:xlink="http://www.w3.org/1999/xlink" x="0px" y="0px"
	 viewBox="0 0 489.5 489.5" style="enable-background:new 0 0 489.5 489.5;" xml:space="preserve">
<style type="text/css">
	.st0{fill:#EB5858;}
	.st1{fill:#FFFFFF;}
</style>
<g id="Layer_2">
</g>
<g id="Layer_3">
	<g>
		<path class="st0" d="M120,218.1c8-6.8,74.5-35.3,77.3-35.3s3.6,1.5,3.6,1.5s6.7-2.7,8.9-6.8s3.1-8.3,3-15.4
			c-0.1-7.1-2.7-16.6-2.7-16.6s-1.2,2.8-4.4,2.4c-3.3-0.4-6.2-11-6.2-11s-6.8-15.4-7.7-19s-0.7-6.5,1.5-8s5.6,2.7,5.6,2.7
			s-3.1-12.3-1.2-27.6c8-35.7,44.1-34.7,44.1-34.7s32.7-1.5,44.7,22.8c2.1,3.7,2.4,6.8,2.4,6.8l19-18.7c0,0,16.1-15.6,33.2-19.3
			c17.1-3.7,32.9,5,32.9,5s8.9,5,11.3,8.3c7.7,12.1,3.2,31,1.5,36.7c-1.7,5.8-15.3,52.1-17.8,63.1c-2.4,11-9.3,46.1-13,59
			s-10.2,21.4-11.8,24.9c-1.6,3.5-5.5,11.3-6.5,16.3c-1,5-0.3,8.6-0.3,8.6s1.3,12.6,1.2,27.8c-1,16.8-2.4,26.1-2.4,26.1l-0.6,97.8
			c0,0,0.3,3.7-0.6,8.3c-0.9,4.6-6.8,13.3-6.8,13.3s1.5,0.9,1.8,2.7c0.3,1.8-1.2,3.3-1.2,3.3s2.1,2.1,3,4.1c0.9,2.1-0.6,4.1-0.6,4.1
			H150.5c0,0-0.6-4.1,2.1-5.6c-0.1-2.2,1.2-3.9,1.2-3.9l-2.7-4.4c0,0-4.1-3.3-5.3-12.1s8.3-33.5,8.3-33.5s-25.2,20.3-34.1,21.3
			s-11.8-3.3-15.1-7.7c-11.5-24.7-12.7-52-12.7-71.1s16.6-96.6,16.6-96.6S112,224.9,120,218.1z"/>
		<path class="st1" d="M331.6,452.8H149.4l-0.2-1.1c0-0.2-0.6-4.3,2.1-6.5c0.1-1.4,0.6-2.5,0.9-3.2l-2.1-3.5
			c-0.9-0.8-4.5-4.6-5.6-12.8c-0.9-6.9,4.1-22.1,6.7-29.7c-7.4,5.7-23.9,17.9-31,18.7c-9.5,1.1-12.9-3.5-16.2-8l-0.3-0.4l-0.1-0.1
			c-11.4-24.5-12.9-51.2-12.9-71.7c0-19,15.9-93.7,16.6-96.9l0,0c0.1-0.5,3.5-13.5,11.7-20.5c5-4.2,30.3-15.7,40.9-20.4
			c11.2-5,35-15.2,37.3-15.2c2,0,3.2,0.6,3.9,1.2c1.8-0.8,5.8-3,7.4-5.8c2.2-4.1,2.9-8.1,2.8-14.7c-0.1-4.7-1.3-10.6-2-13.8
			c-1,0.7-2.3,1.1-3.9,0.9c-3.8-0.5-6.5-9.1-7.3-11.8c-0.6-1.4-6.9-15.6-7.7-19.1c-1.1-4.6-0.5-7.8,2-9.4c1.4-0.9,3-0.5,4.3,0.2
			c-0.8-4.9-1.8-13.8-0.4-24.2v-0.1c4.3-19,16.4-27.7,25.9-31.7c9.9-4.1,18.8-4.1,19.6-4c0.8,0,8.7-0.3,18.2,2.3
			c13,3.6,22.6,10.9,27.7,21.2c1,1.8,1.6,3.5,2,4.8l17.2-17c0.7-0.7,16.6-15.9,33.8-19.6c17.4-3.8,33.1,4.8,33.8,5.2
			c0.4,0.2,9.2,5.2,11.7,8.7v0.1c8.1,12.7,3.3,32.2,1.6,37.8l-0.4,1.2c-9.7,33.2-15.9,55.1-17.4,61.8c-0.7,3-1.7,7.9-2.8,13.5
			c-3.2,15.3-7.5,36.1-10.2,45.6c-2.8,9.8-7.3,17.2-9.9,21.6c-0.9,1.5-1.6,2.7-2,3.5c-0.2,0.4-0.4,0.8-0.6,1.3
			c-1.7,3.6-4.9,10.4-5.8,14.7c-1,4.7-0.3,8-0.3,8.1v0.1c0,0.1,1.3,12.8,1.2,28v0.1c-0.9,15.8-2.2,25.1-2.4,26.1l-0.6,97.6
			c0,0.5,0.2,4.1-0.6,8.6c-0.8,3.9-4.8,10.4-6.4,12.8c0.5,0.6,1.1,1.5,1.3,2.7c0.2,1.4-0.3,2.6-0.8,3.4c0.7,0.9,1.8,2.3,2.5,3.7
			c1.2,2.7-0.7,5.3-0.7,5.4L331.6,452.8z M151.8,450.1h178.3c0.2-0.5,0.5-1.4,0.1-2.2c-0.6-1.5-2.2-3.2-2.7-3.7l-0.9-0.9l0.9-0.9
			c0,0,1-1.1,0.8-2.1c-0.2-1.1-1.2-1.7-1.2-1.8l-1.2-0.7l0.8-1.2c0.1-0.1,5.8-8.6,6.6-12.8c0.8-4.3,0.6-7.9,0.6-7.9v-0.1v-0.1
			l0.6-97.9v-0.1c0-0.1,1.4-9.4,2.4-25.9c0.1-14.5-1.1-26.7-1.2-27.6c-0.1-0.6-0.7-4.2,0.3-9.1c1-4.7,4.1-11.3,6-15.3
			c0.2-0.5,0.4-0.9,0.6-1.2c0.4-0.9,1.2-2.2,2.1-3.7c2.6-4.3,6.9-11.5,9.7-21c2.7-9.3,7-30.1,10.2-45.4c1.2-5.6,2.2-10.5,2.8-13.5
			c1.5-6.8,7.5-28.3,17.4-62l0.4-1.2c1.6-5.4,6.1-23.8-1.3-35.6c-1.8-2.5-8.4-6.5-10.8-7.9c-0.1-0.1-15.6-8.4-31.9-4.9
			c-16.5,3.6-32.4,18.8-32.5,18.9L287.8,83l-0.3-2.8c0,0-0.3-2.9-2.2-6.3v-0.1c-4.8-9.7-13.5-16.4-26-19.8
			c-9.4-2.6-17.4-2.3-17.5-2.3l0,0l0,0c-0.1,0-8.9-0.2-18.6,3.9c-5.6,2.4-10.4,5.7-14.3,9.9c-4.8,5.2-8.1,11.9-9.9,19.8
			c-1.9,14.8,1.1,26.9,1.2,27l1.5,5.8l-3.8-4.6c-1.1-1.3-3.1-2.9-3.9-2.4c-2.2,1.5-1.2,5.3-0.9,6.6c0.9,3.4,7.6,18.6,7.6,18.7
			l0.1,0.2c1.5,5.2,3.8,9.8,5.1,10c2.1,0.3,3-1.4,3-1.6l1.5-3.6l1,3.8c0.1,0.4,2.6,9.7,2.7,16.9c0.1,7.1-0.7,11.6-3.1,16.1
			c-2.4,4.5-9.3,7.3-9.6,7.4l-1.3,0.5l-0.4-1.1c-0.1-0.1-0.7-0.8-2.3-0.8c-1.8,0.3-18.2,7-36.8,15.2c-21.6,9.6-36.5,17-39.7,19.7
			c-7.4,6.3-10.7,18.6-10.8,19.1c-0.4,1.8-16.6,77.6-16.6,96.3c0,20.2,1.4,46.4,12.6,70.4l0.1,0.1c3.1,4.2,5.7,7.8,13.7,6.9
			c7-0.8,26.5-15.5,33.4-21l3.9-3.1l-1.8,4.6c-0.1,0.2-9.3,24.4-8.2,32.8c1.1,8.2,4.8,11.3,4.8,11.3l0.2,0.1l0.1,0.2l3.1,5.2
			l-0.6,0.7c0,0-1,1.3-0.9,2.9l0.1,0.8l-0.7,0.4C152.2,447.7,151.9,449.1,151.8,450.1z"/>
	</g>
	<g>
		<path class="st1" d="M248.4,228.9c-2.5,0-4.1-1.5-4.9-2.7c-1.3,1.1-3.7,2.3-8.1,1.6h-0.1l-0.1-0.1c-2-1-3.9-4.8-4.7-6.6
			c-1.9,0.5-5.8,1.2-7.7-1.4c-1.5-2.1-2-5.7-2.2-7.5c-1.5,0.1-4.2-0.2-5.4-2.8c-1.6-3.1,0.5-13,0.8-14.4c0.1-0.8,0.7-7.5,1.8-10.6
			c1.1-3,4.4-6,5.1-6.8c0.8-1.7,6.3-13.4,13-17.4c1.7-1.1,3.7-4.3,5.5-8.7c0.1-0.3,0.2-0.6,0.3-0.9c1.4-3.4,2.9-7.3,11.1-15.5
			c8.7-10.1,34.9-55.3,35.1-55.8l1.8,1c-1.1,1.9-26.5,46-35.4,56.2v0.1c-7.9,7.9-9.3,11.4-10.7,14.8c-0.1,0.3-0.2,0.6-0.4,0.9
			c-1.2,2.8-3.5,7.8-6.3,9.7l0,0c-6.6,3.9-12.3,16.6-12.3,16.7l-0.1,0.2l-0.2,0.1c0,0-3.7,3.3-4.8,6.1c-1.1,2.9-1.7,10-1.7,10.1v0.1
			c-0.9,4-1.9,11.2-1,13.1c1.1,2.2,4.2,1.6,4.3,1.5l1.2-0.3v1.2c0,0.1,0.2,5,1.9,7.4c1.2,1.7,5,0.8,6.2,0.4l0.9-0.3l0.4,0.9
			c0.9,2.2,2.7,5.6,4,6.3c5.3,0.8,6.8-1.8,6.9-1.9l1.1-2l0.8,2.1c0,0.1,1.1,2.7,3.8,2.7c3.1,0,5-1.6,6.2-2.8c1.1-1.1,3.6-6.2,4-8.2
			l2.3-11.6l0.4-0.2c0,0,2.7-1.4,4.4-2.8c1.1-1.5,3.3-14.9,4.4-21.4c0.6-3.4,1-6,1.2-7.2c2.1-10,8.1-20.6,11.7-24.5
			c0.7-0.8,2.5-2.8,4.7-5.3c10.4-11.8,21.8-24.6,24.9-26.5c10-6.5,28.4-26.7,32.9-32.5c4-5.1,5.9-12.1,5.9-12.2l2,0.5
			c-0.1,0.3-2,7.5-6.3,13c-4.6,5.9-23.2,26.4-33.4,33l0,0c-3.1,1.7-17.5,18.2-24.4,26c-2.3,2.6-4,4.5-4.7,5.3
			c-3.3,3.6-9.2,14-11.1,23.5c-0.2,1.1-0.7,3.9-1.2,7.1c-2.7,16.6-3.8,21.6-5.1,22.7c-1.4,1.2-3.5,2.4-4.3,2.8l-2.1,10.6
			c-0.5,2.3-3,7.7-4.6,9.3C253.8,227.8,251.3,228.9,248.4,228.9z M265.8,201.2L265.8,201.2L265.8,201.2z"/>
	</g>
	<g>
		<path class="st1" d="M154.6,392l-1-1.8c12.5-7.1,27.8-19.6,44.4-36c13.3-13.2,23.6-25.2,26.4-28.7c3.4-4.2,7.4-7.4,11.7-10.8
			c3.2-2.6,6.5-5.2,9.7-8.4c7.1-7.1,12.4-14.6,13.3-19l0.4-1.6c1.1-4.8,2.9-12.9,3.8-18.2c0.8-4.9,0.3-9.3,0.1-10.6
			c-0.9-0.8-2.7-2.2-3.9-2.5c-1.4-0.4-2.8,0-2.8,0l-1.8,0.5l0.5-1.8c0-0.1,0.6-2.6-2-4.4c-2.7-1.9-4.7-1.3-4.8-1.3l-0.9,0.3
			l-0.4-0.9c0,0-1.8-4.2-4.9-4.5c-3.3-0.3-5.1,0.9-5.2,1l-1.2,0.8l-0.4-1.3c-0.1-0.2-0.7-1.3-3.4-1.3c-4.9,0-5.5,1.7-5.7,2.3
			c-1.9,5.3-4.5,17.7-4.5,17.9l0,0.3l-0.4,0.2c0,0-2.6,1.7-3.6,3.9c-0.7,1.7-1.5,13.6-1.9,20.8v0.1c-0.2,1.5-1.3,9.2-3.3,10.9
			c-0.4,0.3-1.3,1.2-2.6,2.3c-4.4,4-12.7,11.3-15,13.3h-0.1c-19.2,14.5-37.7,22.4-43,24.5c-16.6,10.4-29.4,42.2-29.5,42.5l-1.9-0.8
			c0-0.1,3.3-8.3,8.7-17.7c7.2-12.7,14.5-21.4,21.8-25.9l0.1-0.1h0.1c3.7-1.4,23-9.4,42.6-24.2c2.3-2,10.6-9.4,15-13.3
			c1.2-1.1,2.2-1.9,2.6-2.3c0.9-0.8,2.1-5.6,2.6-9.6c0.1-2.1,0.9-18.9,2.1-21.5c1-2.2,3.1-3.9,4-4.5c0.5-2.2,2.7-12.8,4.5-17.7
			c0.8-2.4,3.3-3.6,7.6-3.6c2.6,0,4,0.9,4.7,1.7c1.1-0.5,3-1.1,5.7-0.9c3.4,0.4,5.4,3.5,6.2,5c1.2-0.1,3.3,0,5.7,1.7
			c2.4,1.6,2.9,3.7,2.9,5.1c0.7,0,1.6,0,2.5,0.2c2,0.5,4.7,2.9,5,3.2l0.3,0.2l0.1,0.3c0,0.2,1,5.5,0,11.6
			c-0.9,5.4-2.7,13.5-3.8,18.4l-0.4,1.6c-1.1,4.8-6.5,12.7-13.9,20.1c-3.3,3.3-6.6,6-9.9,8.6c-4.2,3.3-8.1,6.5-11.4,10.5
			c-2.9,3.5-13.2,15.6-26.6,28.9C182.5,372.4,167.4,384.7,154.6,392z"/>
	</g>
</g>
</svg>
