<svg id="Layer_1" data-name="Layer 1" xmlns="http://www.w3.org/2000/svg" viewBox="0 0 489.5 489.5"><defs><style>.cls-1{fill:#eb2227;}</style></defs><title>shoulder-mobility</title><path class="cls-1" d="M335.83,333.17c17.27-23.62,27.21-66.37,26-111.9C360.35,167,324,115.15,312.9,100.54c-22.21-29.23-74.33-38-79.38-38.8L168.27,37.27c-.91-.72-3.4-2.66-6.84-5.19-19.38-14.27-32.42-21-38.79-20a6.24,6.24,0,0,0-4.25,2.51c-3.59,5,1.68,12.45,6.86,18.25-2.19,4.24-.21,10.43,2.4,14l1.95,2.7c2.93,4.06,15.86,9.86,22,9.86.19,0,.35,0,.53,0,5.84,11.3,21.81,41.35,40.47,69.34,17.81,26.72,45,43.86,69,59,7.37,4.65,14.38,9.07,20.56,13.44-12.76,31.34-14.55,75.58-5.32,131.58-13,25.76-6,92.07-4.87,101.75l-1.49,2.31a17.55,17.55,0,0,0,10.21,26.5l11.53,3.07a21.32,21.32,0,0,0,10.44.13l5.78-1.39A17.55,17.55,0,0,0,320.73,442c-.89-2.4-1.76-5.09-2.58-8l.54-2.28C323.5,411.35,333.46,369.13,335.83,333.17ZM123.25,18.12c.92-.63,5.51,0,16.57,6.6A17.86,17.86,0,0,0,131.59,28l-1.78,1C122.22,20.47,123.25,18.12,123.25,18.12Zm11.21,28-1.95-2.7c-2.06-2.86-2.88-7-1.63-8.14,0,0,7-4.73,10.57-4.64A5.65,5.65,0,0,1,146,32.76L147.75,36a2.94,2.94,0,0,0,.22.35A4.78,4.78,0,0,1,146.89,43a3,3,0,0,0-.94,3.75l3.12,6.38C143.66,51.94,135.64,47.72,134.45,46.08ZM264.72,182.67c-23.47-14.8-50.07-31.58-67.17-57.24C179.66,98.61,164.26,69.85,158,57.85c-.51-1-5.72-11.74-5.72-11.74a10.77,10.77,0,0,0,1.07-12.45q2.15,1.53,4.49,3.25h0l0,0c1.85,1.33,6.69,9.76,9.79,16.41,8.49,18.26,28.07,38.19,32.14,42.22,1.78,10.15,9.15,21.38,19.32,29.2a32.24,32.24,0,0,0,18.18,6.48h.18a3,3,0,0,0,.17-6A26.37,26.37,0,0,1,222.8,120c-9.65-7.43-16.45-18.11-17.31-27.23-.42-4.42.61-8.05,3-10.79,7.45-8.38,30.54-.9,44.69,10.89a15.72,15.72,0,0,1,5.55,9.78,18.46,18.46,0,0,1-1.8,11.77,3,3,0,0,0,5.33,2.76,24.42,24.42,0,0,0,2.38-15.57,21.78,21.78,0,0,0-7.62-13.35c-11-9.17-29.22-17.48-42.3-15.62L178,59.7a80,80,0,0,1-4.92-8.88c-.12-.27-1.46-3.12-3.29-6.55l61.86,23.2a3,3,0,0,0,.61.16c.54.08,54.41,8.39,75.81,36.55,40.79,53.67,46.81,99.4,47.61,115.1-22.66,7.54-61.61-.18-72.57-2.61a118.88,118.88,0,0,1,5.37-15.33,3,3,0,0,0-1-3.62C280.74,192.78,273,187.87,264.72,182.67ZM204,78a18.19,18.19,0,0,0-4.28,8.88,220.38,220.38,0,0,1-15.9-18.77L206.22,76A15.24,15.24,0,0,0,204,78Zm77.63,144.49c7.63,1.73,28.68,6,49.1,6,8.89,0,17.64-.83,25.11-3a252.92,252.92,0,0,1-5,53.91c-11.55.17-22.73-.25-32.8-.94.53-5.36.93-9.74,1.15-12.23,4.31-.35,8.55-2.83,12.63-7.39a3,3,0,1,0-4.47-4c-3.46,3.87-6.79,5.68-9.89,5.41-4.76-.43-8-5.64-8.08-5.74a3,3,0,0,0-5.14,3.1c.16.27,3.41,5.56,9,7.74-.33,3.72-.73,8.05-1.19,12.67-16.93-1.38-30-3.39-35.07-4.24Q276.48,244.83,281.68,222.49Zm.48,235a11.56,11.56,0,0,1-6.73-17.44l2.08-3.22a3,3,0,0,0,.46-2c-.09-.75-9-75.39,4.54-100.17a3,3,0,0,0,.33-1.93,419.33,419.33,0,0,1-5.67-52.91c5.87,1,18.38,2.8,34.3,4.11-1.84,17.9-4.26,37.94-6.15,43.63-3.59,10.78-9.15,54.51-10.36,71.42-1.16,16.22-.57,61.74-.57,61.74l-.7-.16Zm30.69-27.2-.72,3a3,3,0,0,0,0,1.49c.93,3.35,1.92,6.45,2.94,9.21A11.55,11.55,0,0,1,307,459.32l-5.78,1.39-.8.17s-.6-45.24.56-61.4,6.67-59.76,10.06-70c2.18-6.55,4.73-28.39,6.44-45.08,8.75.6,18.31,1,28.25,1,1.26,0,2.54,0,3.81,0-4.41,18.38-10.91,34.11-19,44.9a3,3,0,0,0-.59,1.61C327.67,367.55,317.66,410,312.85,430.34Z"/></svg>