<svg id="Layer_1" data-name="Layer 1" xmlns="http://www.w3.org/2000/svg" viewBox="0 0 169.38 106.49"><defs><style>.cls-1,.cls-2{fill:#eb5858;}.cls-2,.cls-3{stroke:#fff;stroke-miterlimit:10;}.cls-3{fill:none;stroke-linecap:round;stroke-width:0.5px;}</style></defs><title>superolateral_reach</title><path class="cls-1" d="M711.43,356.13l-1.5-.56-12,5.27-7.5-1.59-4.62,2V364l3.41.67-15.54,6.83-3.57.09L667.93,366h-8v2.83l.77,3-1.23,0-16.27-4.23.4-.15v-3.25L638.43,363l-6,1.87-33.65-8.74c-1.09-.28-1.12,2,0,2,.55,0,15.17,3.92,29.9,7.91l-2.27.71v2.71l6.36,2,6.77-2.51,19.75,5.39h2l.87,3.38h4l7.5,22.42-8.74.45v3.69l1.13,4.81,10.44-.52c4.62,13.77,9,26.89,9.31,27.64.63,1.63,3.32.77,2.88-.5l-9.46-27.28,9.46-.47v-3.5l-2.12-5L676.3,400l-7.72-22.28h2.86V375l-.24-.62h2.49l18.77-9.07,7.37,1.45,3.61-2V362l-2.89-.61Z" transform="translate(-597.97 -330.66)"/><path class="cls-2" d="M668.47,331.17c5.88-.37,11.71,6.83,16.67,7.17s10.71-3.79,17.33-2.5,13.67,8.67,13.67,8.67,6,2.92,8.25,4.33c5.63,1.5,7,0,11.42,1.42s8.63,5.46,13.58,7.08c2.42,1,5.25.67,6,1.25,1.29,1,0,4.83,0,4.83a50.45,50.45,0,0,0,6.67,3.83c2.33.92,4.25,1.17,4.67,2.33s-.26,2.72-.5,4-1.32,7-1.42,7.67a3.55,3.55,0,0,1-.87,1.5s-.46.91-.92,1.13a2.58,2.58,0,0,1-1.33,0,1.89,1.89,0,0,1-1.79-.62c-2,.25-1.67-.75-1.67-.75s.82-1.61,1.13-2.17.05-4.41-.54-6-3.83-4.21-3.83-4.21-1.61.72-2,1c-2.32,1-3.28.54-3.46.13s.46-1,.46-1a.67.67,0,0,1,.17-.46c.2-.27,1-.29,1-.29s.57-.31,1-.58c-4.36-1.93-16.84-6.11-18.4-6.27a36.17,36.17,0,0,1-3.75-.37c-1.81-.31-15.44-1.77-25.12-7.75a11.64,11.64,0,0,1-4.87-2.19c-6.52,3.33-17.15,2.58-20.81,2-1.21-.08-5.71,1.88-7.06,1.31a64.11,64.11,0,0,1,.44,9.44,32.2,32.2,0,0,1-.62,6.94,3.53,3.53,0,0,1-1.87,1.63,6.93,6.93,0,0,1-2.12-.25,14.46,14.46,0,0,1-3.08.77.68.68,0,0,1-.67-.75l1-.42a14.71,14.71,0,0,0-2.12.25l-1,.38s0,.75-.33.92a.78.78,0,0,1-.92-.21.87.87,0,0,1,0-.58.41.41,0,0,1-.42-.37,2.1,2.1,0,0,1,.92-1.37l.71-.37s-.48-.1-.33-.42,2.21-.25,2.58-.25,1.17-.58,1.71-.62,2,.27,2.33.25,1.19-.46,1.25-.75a69.17,69.17,0,0,0-1.25-7.17c-.46-1.83-2.15-5.69-2.42-6.75s.46-2.63.42-3l-.21-2a4.55,4.55,0,0,0-3.62.67c-1.44,1.21-4.29,5-5.21,5.79a23.4,23.4,0,0,1-2.67,1.92,30.38,30.38,0,0,1-4.21,3.71c-1.62,1-8.42,3.88-8.42,3.88a4.46,4.46,0,0,1-.79,1.63,7,7,0,0,1-2.54.38c-.75,0-3.56,1.23-4.21,1.29a2.31,2.31,0,0,1-1.37-.54.59.59,0,0,1-.17-.71c.15-.21,1.17-.06,1.42-.08s4.54-3.25,4.54-3.25a28.67,28.67,0,0,0,2.33-1.83c.48-.5,3-3.25,4.17-4.37s4.75-3.92,4.75-3.92,3.82-4,3.92-4.37a4,4,0,0,1,.5-1.79s-9.33-1.46-7-10.25c1.5-5.58,7.88-5.25,9-5,1.71.17,2.71,2.13,4,2.38a3.11,3.11,0,0,0,2-.17S664,331.55,668.47,331.17Z" transform="translate(-597.97 -330.66)"/><path class="cls-1" d="M668.47,331.17c5.88-.37,11.71,6.83,16.67,7.17s10.71-3.79,17.33-2.5,13.67,8.67,13.67,8.67,6,2.92,8.25,4.33c5.63,1.5,7,0,11.42,1.42s8.63,5.46,13.58,7.08c2.42,1,5.25.67,6,1.25,1.29,1,0,4.83,0,4.83a50.45,50.45,0,0,0,6.67,3.83c2.33.92,4.25,1.17,4.67,2.33s-.26,2.72-.5,4-1.32,7-1.42,7.67a3.55,3.55,0,0,1-.87,1.5s-.46.91-.92,1.13a2.58,2.58,0,0,1-1.33,0,1.89,1.89,0,0,1-1.79-.62c-2,.25-1.67-.75-1.67-.75s.82-1.61,1.13-2.17.05-4.41-.54-6-3.83-4.21-3.83-4.21-1.61.72-2,1c-2.32,1-3.28.54-3.46.13s.46-1,.46-1a.67.67,0,0,1,.17-.46c.2-.27,1-.29,1-.29s.57-.31,1-.58c-4.36-1.93-16.84-6.11-18.4-6.27a36.17,36.17,0,0,1-3.75-.37c-1.81-.31-15.44-1.77-25.12-7.75a11.64,11.64,0,0,1-4.87-2.19c-6.52,3.33-17.15,2.58-20.81,2-1.21-.08-5.71,1.88-7.06,1.31a64.11,64.11,0,0,1,.44,9.44,32.2,32.2,0,0,1-.62,6.94,3.53,3.53,0,0,1-1.87,1.63,6.93,6.93,0,0,1-2.12-.25,14.46,14.46,0,0,1-3.08.77.68.68,0,0,1-.67-.75l1-.42a14.71,14.71,0,0,0-2.12.25l-1,.38s0,.75-.33.92a.78.78,0,0,1-.92-.21.87.87,0,0,1,0-.58.41.41,0,0,1-.42-.37,2.1,2.1,0,0,1,.92-1.37l.71-.37s-.48-.1-.33-.42,2.21-.25,2.58-.25,1.17-.58,1.71-.62,2,.27,2.33.25,1.19-.46,1.25-.75a69.17,69.17,0,0,0-1.25-7.17c-.46-1.83-2.15-5.69-2.42-6.75s.46-2.63.42-3l-.21-2a4.55,4.55,0,0,0-3.62.67c-1.44,1.21-4.29,5-5.21,5.79a23.4,23.4,0,0,1-2.67,1.92,30.38,30.38,0,0,1-4.21,3.71c-1.62,1-8.42,3.88-8.42,3.88a4.46,4.46,0,0,1-.79,1.63,7,7,0,0,1-2.54.38c-.75,0-3.56,1.23-4.21,1.29a2.31,2.31,0,0,1-1.37-.54.59.59,0,0,1-.17-.71c.15-.21,1.17-.06,1.42-.08s4.54-3.25,4.54-3.25a28.67,28.67,0,0,0,2.33-1.83c.48-.5,3-3.25,4.17-4.37s4.75-3.92,4.75-3.92,3.82-4,3.92-4.37a4,4,0,0,1,.5-1.79s-9.33-1.46-7-10.25c1.5-5.58,7.88-5.25,9-5,1.71.17,2.71,2.13,4,2.38a3.11,3.11,0,0,0,2-.17S664,331.55,668.47,331.17Z" transform="translate(-597.97 -330.66)"/><path class="cls-3" d="M659.88,340.84a9.29,9.29,0,0,0-.79,2.54,11,11,0,0,0-1.67,2.08c-1.71.92-3,3.67-3,3.67" transform="translate(-597.97 -330.66)"/><path class="cls-3" d="M666.05,350.76s3,4.54,6.06,4.81" transform="translate(-597.97 -330.66)"/><path class="cls-3" d="M724.38,348.84s5.5,4.21,10.63,5.75c10.25.08,16.75,6.71,20.38,8.83" transform="translate(-597.97 -330.66)"/><line class="cls-3" x1="154.16" y1="38.18" x2="157" y2="39.43"/></svg>