<svg id="Layer_1" data-name="Layer 1" xmlns="http://www.w3.org/2000/svg" viewBox="0 0 489.5 489.5"><defs><style>.cls-1{fill:#eb2227;}</style></defs><title>trunk-stability-pushup</title><path class="cls-1" d="M454,386.59l-34.81-13.31c2.48-11.2,12-55.3,11.18-70.73a28.67,28.67,0,0,1,.3-6c1.21-7.51,2.89-19.61,4.49-31.61a55.15,55.15,0,0,0,13.75-7.49c9.75-7.63,9.7-15.53,7.94-20.81-5.33-16-28.36-49.68-32.56-55.75l2.17-25.21a6.73,6.73,0,0,1,5.77-6.14c5.92-.83,10.62-3,14-6.3,2.2-2.2,3-5.73,2.41-10.48-1.9-14.93-16.68-38.4-35.64-49.55a32.87,32.87,0,0,0-22.51-3.81A44.76,44.76,0,0,0,370,88.92c-9.19,7.57-14.08,17.32-13.84,26.8a32,32,0,0,0-8.56-3.29A16,16,0,0,0,330.51,120c-12.5,20.78,17.63,61.39,18.92,63.1a3,3,0,0,0,2.4,1.2h0a3,3,0,0,0,2.9-3.69c-.42-3.66-4.08-35.51-4.08-47.93,0-8.08,4.2-9.29,6.71-9.29h.09c0,.07,0,.15.07.22,8.1,22.94,19.36,29.77,29.62,33.72v1.93c-6.17,4.26-27.72,23.13-30.88,80.55a33.78,33.78,0,0,1-6.73,18.51c-6.15,8.18-13.1,11.67-23.24,11.67-18,0-41.72,8-53,23.21-17.87,6.64-47.15,15.7-59.05,19.33a26.33,26.33,0,0,1-9,1.13c-13.54-.65-60.71-1.15-99.07,19.83a17.66,17.66,0,0,1-2.66,1.21c-5.72,2-10.65,1.66-14.67-1a15.73,15.73,0,0,0-16.43-.34L24,361.51a8.08,8.08,0,0,0,3.6,15.07c6.4.35,14.17.63,22.64.63a300.34,300.34,0,0,0,35.24-1.91c31.42-3.77,106.39-6.46,121.1-7a36.52,36.52,0,0,1,5.93.28c13.12,1.7,81.28,8.57,135.18-23.52Q358,339,367.54,332.2l1.75,9.93a9.36,9.36,0,0,0,9.07,7.73l16.13.25c-1.14,12.1-1.13,24,1.19,33.56a13.53,13.53,0,0,0,7.64,9.18c11,4.83,23.54,6.29,34.66,6.29a140.59,140.59,0,0,0,14.51-.78A6.1,6.1,0,0,0,454,386.59ZM344.69,132.69c0,8.52,1.6,25.28,2.81,36.81-8.6-14-18.55-35.26-11.85-46.4a10,10,0,0,1,10.69-4.8,22.07,22.07,0,0,1,3.92,1.24C346.26,122.46,344.69,127.86,344.69,132.69ZM436.09,258c1.34-10.23,2.54-19.74,3.24-25.38a44.21,44.21,0,0,0,0-11.28c-.32-2.4-.75-5.33-1.32-8.43,5.74,9.49,11.08,19.18,13.21,25.57C454.39,248.14,443.15,254.85,436.09,258Zm-81.72,3.92a39.75,39.75,0,0,0,7.92-21.79c3.4-61.87,29-76.44,29.28-76.57a3,3,0,0,0,1.61-2.66v-5.68a3,3,0,0,0-2-2.82c-7.8-2.8-19.58-7-28-30.81-3.91-11.07,2.9-21.76,10.57-28.08,9.34-7.69,24.14-12.29,36.16-5.22,18.78,11,31.27,33.7,32.73,45.14.4,3.13-.1,4.88-.7,5.48-3,3-7.4,4.16-10.56,4.6a12.71,12.71,0,0,0-10.91,11.57l-1.79,20.78c-5.4-4-11.92-8-15.81-8.37-5.64-.56-11,2.73-16.53,10-7.49,10-10,25.7-6.41,40.05,2.81,11.21,8.83,19.71,17,24.1l9.55,48.33a275.28,275.28,0,0,1-59.88,48.67c-15.73-16.85-17.23-52.58-17.33-62.84C339.86,275.22,347.68,270.85,354.37,261.95Zm42.31,71.6-6.83-1.94-3.4-14q8.94-7.55,17.13-15.76C401.45,309.86,398.72,321.26,396.68,333.54Zm-311,5.2c3.89,2.57,10.51,4.93,19.95,1.64a23.58,23.58,0,0,0,3.57-1.61c24.94-13.64,53.87-17.85,74.1-19l-2.48,8.76c-22,.37-52.77,3.34-77.71,15a22.64,22.64,0,0,1-21.67-1.3A37.5,37.5,0,0,1,78.08,340a13.71,13.71,0,0,0-2.37-1.49A9.68,9.68,0,0,1,85.65,338.74Zm-.84,30.6c-20.65,2.48-42.31,2-56.83,1.25A2,2,0,0,1,26.07,369a2,2,0,0,1,1-2.29L66.25,344a7.37,7.37,0,0,1,8.13.73,43.38,43.38,0,0,0,3.85,2.7,28.62,28.62,0,0,0,27.4,1.64c20.49-9.62,45.22-13.11,65.32-14.15l-4.76,29C138.33,365.19,103.77,367.07,84.81,369.34Zm128.51-6.67a42.26,42.26,0,0,0-6.9-.33c-5.26.18-18.2.64-34.11,1.32l4.76-29c12.37-.37,22.4.13,27.65.5a32.19,32.19,0,0,0,11.42-1.23c16.44-4.85,56-16.61,68.68-21.21a3,3,0,0,0,1.89-2.09A23.58,23.58,0,0,1,304.19,293a3,3,0,0,0-1.09-5.9,29.5,29.5,0,0,0-21.8,20.51c-14.33,5-54.54,16.94-66.87,20.57a26.23,26.23,0,0,1-9.3,1c-3.84-.27-10.18-.61-18.1-.64l2.55-9c6.79-.19,12.18,0,15.49.12a32.28,32.28,0,0,0,11-1.38c12.14-3.7,42.32-13,60.26-19.77a3,3,0,0,0,1.4-1.09c9.14-13.07,29.63-20.49,45.59-21.34a175.87,175.87,0,0,0,2,24.69c2.84,18.35,8.24,32.13,16.06,41.05C289.72,370.74,225.83,364.29,213.32,362.67Zm165.12-18.81a3.35,3.35,0,0,1-3.25-2.77l-2.26-12.82q4.25-3.17,8.36-6.47l3.12,12.91a3,3,0,0,0,2.1,2.18l9.23,2.62q-.33,2.29-.61,4.6Zm73.41,48.53c-12.75,1.33-31.11,1.54-46.14-5a7.5,7.5,0,0,1-4.21-5.1c-7.4-30.49,10.95-89.78,11.14-90.38a3,3,0,0,0,.08-1.48L398.8,219.94a3,3,0,0,0-2.94-2.42,3.05,3.05,0,0,0-.78.1,3.1,3.1,0,0,0-2.14,3.63l2.37,12c-4.42-4-7.73-9.84-9.54-17.09-3.12-12.47-1-26.54,5.39-35,4.07-5.43,7.81-8,11.14-7.68,1.64.16,4.68,1.78,8,3.88a46,46,0,0,1,13.34,13.1c0,.05.69,1,1,1.49a46.22,46.22,0,0,1,5.6,13.17,156.19,156.19,0,0,1,3,16.05,44.66,44.66,0,0,1,.08,11.8c-1.71,13.52-6.06,47.31-8.52,62.56a34.7,34.7,0,0,0-.37,7.31c.86,16.53-11.48,71.08-11.61,71.63a3,3,0,0,0,1.85,3.47l37.29,14.26A.15.15,0,0,1,451.86,392.39Z"/></svg>