<svg id="Layer_1" data-name="Layer 1" xmlns="http://www.w3.org/2000/svg" viewBox="0 0 82.45 82.75"><defs><style>.cls-1,.cls-2{fill:#eb5858;}.cls-2{stroke:#fff;stroke-miterlimit:10;}</style></defs><title>upper_body_clearing_screen_left</title><polygon class="cls-1" points="47.27 56.75 77.81 56.75 77.81 66.17 46.44 66.17 46.44 62.09 47.27 56.75"/><polygon class="cls-1" points="68.77 31.34 68.77 82.75 53.85 82.75 53.85 79.92 59.69 31.34 68.77 31.34"/><path class="cls-2" d="M647.75,355.75s6.63-1.78,9.13-1.62,6.5,2.38,6.5,2.38,6.22-.81,9.5-2.37,8-5.66,14.13-4.5c1.74.3,3.59-.16,5.13,0a2.9,2.9,0,0,1,1.75,1s2.66-4.62,5.5-5.62,6.88.88,6.88.88l3.88,2.13s4.59-6.31,10.38-2.37c3.22,2.59,2.19,6.47,2,7.13a14,14,0,0,1-3.5,4.63,7,7,0,0,1,1.63,2.5,3.56,3.56,0,0,1,.13,2s2.72,4.06,2.5,7.38a12.29,12.29,0,0,1-2.12,5.88l-3.56,5.56a14,14,0,0,1,.5,4.38c0,3.19-.91,6.5-.87,7.44a17.81,17.81,0,0,0,1.06,3.5l1.13,3.19s.16,1.25-.25,1.44-1.87-3.06-1.87-3.06.38,3.38.06,3.69-.94.44-1.12,0a35.68,35.68,0,0,1-.37-3.94,29.74,29.74,0,0,1-.19,3.94c-.19.28-1.55.29-1.56,0l-.25-4.19s.19,3.84-.12,4-1.12.26-1.22-.16l-.56-2.47a1.2,1.2,0,0,1-.78-.62,6.8,6.8,0,0,1-.06-3.25,27.51,27.51,0,0,0,1.19-3.94c.13-1.12-.56-8.69-.62-10.41.13-3.75.75-4.75.75-4.75l1.5-3.31a4,4,0,0,0,.19-2.06c-.31-1.22-2.06-.75-2.06-.75s-2,2.63-7.12,3.94a16.3,16.3,0,0,1-3.75.13l-1.19.88,2.75,3.81a9,9,0,0,1,3-.31,10.56,10.56,0,0,1,3.63,2.13c1.06.88,2.53,4.09,2.06,4.38s-3.12-.5-3.12-.5a1.23,1.23,0,0,1-1.12.56c-.87,0-2.31-1.06-3-1.31s-2.5-.22-3.44-.56-2.81-2.62-2.81-2.62l-4.5-5.19a6.05,6.05,0,0,1-2.44.38c-4.19-.5-7.19-5.75-7.19-5.75l-7.81.44-1.81-.06a2.88,2.88,0,0,1-2.31,2.19,7.47,7.47,0,0,1-6.25-2.56L662.88,364s-3.7-1.65-5.19-2.06-5.31-1.59-6.12-1.69a10.11,10.11,0,0,0-2.56.38l-.56,1.5s-.66,3.13-.69,3.63.59,2.5.5,3-.69,1.31-2.12,1.31a5.84,5.84,0,0,1-2.62-.69s-1.69-1.87-1.69-3.31,1.2-3.91,1.13-4.69a35,35,0,0,1-.25-4.06,2.49,2.49,0,0,1,1.25-1.75,11,11,0,0,1,3.13-.5C647.78,355.25,647.75,355.75,647.75,355.75Z" transform="translate(-641.31 -343.83)"/><path class="cls-1" d="M647.75,355.75s6.63-1.78,9.13-1.62,6.5,2.38,6.5,2.38,6.22-.81,9.5-2.37,8-5.66,14.13-4.5c1.74.3,3.59-.16,5.13,0a2.9,2.9,0,0,1,1.75,1s2.66-4.62,5.5-5.62,6.88.88,6.88.88l3.88,2.13s4.59-6.31,10.38-2.37c3.22,2.59,2.19,6.47,2,7.13a14,14,0,0,1-3.5,4.63,7,7,0,0,1,1.63,2.5,3.56,3.56,0,0,1,.13,2s2.72,4.06,2.5,7.38a12.29,12.29,0,0,1-2.12,5.88l-3.56,5.56a14,14,0,0,1,.5,4.38c0,3.19-.91,6.5-.87,7.44a17.81,17.81,0,0,0,1.06,3.5l1.13,3.19s.16,1.25-.25,1.44-1.87-3.06-1.87-3.06.38,3.38.06,3.69-.94.44-1.12,0a35.68,35.68,0,0,1-.37-3.94,29.74,29.74,0,0,1-.19,3.94c-.19.28-1.55.29-1.56,0l-.25-4.19s.19,3.84-.12,4-1.12.26-1.22-.16l-.56-2.47a1.2,1.2,0,0,1-.78-.62,6.8,6.8,0,0,1-.06-3.25,27.51,27.51,0,0,0,1.19-3.94c.13-1.12-.56-8.69-.62-10.41.13-3.75.75-4.75.75-4.75l1.5-3.31a4,4,0,0,0,.19-2.06c-.31-1.22-2.06-.75-2.06-.75s-2,2.63-7.12,3.94a16.3,16.3,0,0,1-3.75.13l-1.19.88,2.75,3.81a9,9,0,0,1,3-.31,10.56,10.56,0,0,1,3.63,2.13c1.06.88,2.53,4.09,2.06,4.38s-3.12-.5-3.12-.5a1.23,1.23,0,0,1-1.12.56c-.87,0-2.31-1.06-3-1.31s-2.5-.22-3.44-.56-2.81-2.62-2.81-2.62l-4.5-5.19a6.05,6.05,0,0,1-2.44.38c-4.19-.5-7.19-5.75-7.19-5.75l-7.81.44-1.81-.06a2.88,2.88,0,0,1-2.31,2.19,7.47,7.47,0,0,1-6.25-2.56L662.88,364s-3.7-1.65-5.19-2.06-5.31-1.59-6.12-1.69a10.11,10.11,0,0,0-2.56.38l-.56,1.5s-.66,3.13-.69,3.63.59,2.5.5,3-.69,1.31-2.12,1.31a5.84,5.84,0,0,1-2.62-.69s-1.69-1.87-1.69-3.31,1.2-3.91,1.13-4.69a35,35,0,0,1-.25-4.06,2.49,2.49,0,0,1,1.25-1.75,11,11,0,0,1,3.13-.5C647.78,355.25,647.75,355.75,647.75,355.75Z" transform="translate(-641.31 -343.83)"/></svg>