<svg id="Capa_1" data-name="Capa 1" xmlns="http://www.w3.org/2000/svg" viewBox="0 0 53 53"><defs><style>.cls-1{fill:#e7eced;}.cls-2{fill:#556080;}</style></defs><title>user-placeholder</title><path class="cls-1" d="M18.61,41.55l-7.91,4.31a7.11,7.11,0,0,0-1.27.9,26.48,26.48,0,0,0,34,.09,7,7,0,0,0-1.39-.93L33.6,41.69a3.23,3.23,0,0,1-1.78-2.89V35.48a12.79,12.79,0,0,0,.8-1,19.48,19.48,0,0,0,2.63-5.3,2.66,2.66,0,0,0,1.89-2.53V23.07a2.65,2.65,0,0,0-.89-2V16S37.3,8,26.5,8s-9.75,8-9.75,8V21.1a2.64,2.64,0,0,0-.89,2v3.55a2.66,2.66,0,0,0,1.23,2.23,17.6,17.6,0,0,0,3.21,6.63v3.24A3.23,3.23,0,0,1,18.61,41.55Z" transform="translate(0 0)"/><path class="cls-2" d="M27,0A26.48,26.48,0,0,0,9.45,46.76a7,7,0,0,1,1.26-.89l7.91-4.31a3.23,3.23,0,0,0,1.68-2.83V35.48a17.58,17.58,0,0,1-3.21-6.63,2.66,2.66,0,0,1-1.23-2.23V23.07a2.65,2.65,0,0,1,.89-2V16S15.7,8,26.5,8s9.75,8,9.75,8V21.1a2.64,2.64,0,0,1,.89,2v3.55a2.66,2.66,0,0,1-1.89,2.53,19.48,19.48,0,0,1-2.63,5.3,12.79,12.79,0,0,1-.8,1V38.8a3.23,3.23,0,0,0,1.79,2.89l8.47,4.23a7.05,7.05,0,0,1,1.39.93A26.49,26.49,0,0,0,27,0Z" transform="translate(0 0)"/></svg>