<svg id="Capa_1" data-name="Capa 1" xmlns="http://www.w3.org/2000/svg" viewBox="0 0 53 53"><defs><style>.cls-1{fill:#e7eced;}.cls-2{fill:#556080;}</style></defs><title>userfm-placeholder</title><path class="cls-1" d="M11.49,44.64l9.11-3.91a3.75,3.75,0,0,0,1.18-1.61.78.78,0,0,0-.7-1.12H14.63a16.32,16.32,0,0,1-4.13-1c-1.05-.45-1.41-1-.76-2,1.93-2.74,5.9-9.19,6-15.85,0,0,.22-10.26,10.34-10.34a10.37,10.37,0,0,1,10,6.41,14.82,14.82,0,0,1,1.15,5.13c.42,6.35,3.65,12.16,5.16,14.64a1.8,1.8,0,0,1-.58,2.47,5,5,0,0,1-3.08.53H32.27a.73.73,0,0,0-.42,1.28,9.55,9.55,0,0,0,1,.72l7.58,4.59A6.56,6.56,0,0,1,43,47.12a26.48,26.48,0,0,1-33.86-.48A6.54,6.54,0,0,1,11.49,44.64Z"/><path class="cls-2" d="M26.5,0A26.49,26.49,0,0,0,9.2,46.57a6.52,6.52,0,0,1,2.29-1.92l9.11-3.91a3.75,3.75,0,0,0,1.18-1.61.78.78,0,0,0-.7-1.12H14.64a16.32,16.32,0,0,1-4.13-1c-1.05-.45-1.41-1-.76-2,1.93-2.74,5.9-9.19,6-15.85,0,0,.22-10.26,10.34-10.34a10.37,10.37,0,0,1,10,6.41,14.82,14.82,0,0,1,1.15,5.13c.42,6.35,3.65,12.16,5.16,14.64a1.8,1.8,0,0,1-.58,2.47,5,5,0,0,1-3.08.53H32.27a.73.73,0,0,0-.42,1.28,9.55,9.55,0,0,0,1,.72l7.58,4.59A6.54,6.54,0,0,1,43,47.09l.08.08A26.49,26.49,0,0,0,26.5,0Z"/></svg>