<svg id="Layer_1" data-name="Layer 1" xmlns="http://www.w3.org/2000/svg" viewBox="0 0 104.53 159.7"><defs><style>.cls-1{fill:#eb5858;}.cls-2{fill:none;stroke:#fff;stroke-linecap:round;stroke-miterlimit:10;}</style></defs><title>wrist_extension_clearing</title><path class="cls-1" d="M500.14,453.29h32.5s0-9.12-1.83-16c-1-4.23-4.33-18.33-5-25.17S527,376,527,376a137.8,137.8,0,0,0,19.5-1.5c5.19,1,5.17-4,5.17-4s.33-6.83-1.33-10.17-7-6.19-8.5-8.5-3.83-6-6-8c-1.68-1.51-3.5-2.5-10.5-2.17s-14.5-5.5-14.5-5.5l-1.67-1.83L510,325a11.72,11.72,0,0,0,.83-3.83c5.75-2.54,5.25-7.62,4-8.83-1-1.08-2.25.58-2.25.58s3.38-17.54-11.17-19.33h-4c-14.54,1.79-11.17,19.33-11.17,19.33s-1.25-1.67-2.25-.58c-1.25,1.21-1.75,6.29,4,8.83a11.72,11.72,0,0,0,.83,3.83l.83,9.33L488,336.17s-7.5,5.83-14.5,5.5-8.82.66-10.5,2.17c-2.17,2-4.46,5.69-6,8s-6.83,5.17-8.5,8.5-1.33,10.17-1.33,10.17,0,5,5.17,4a137.8,137.8,0,0,0,19.5,1.5s1.83,29.33,1.17,36.17-4,20.94-5,25.17c-1.83,6.83-1.83,16-1.83,16h34Z" transform="translate(-447.14 -293.58)"/><path class="cls-2" d="M471.83,376s24.17-3.5,27.57-9.37c.6-2.38,0-29.87,0-31s-2.16-1.39-2.28,0-.75,10.25-2.37,14.13c-1.37,2.88-2.62,10.38-2.62,10.38a4.38,4.38,0,0,1-1.37,2c-1.62.63-19.25-.64-21.25-1.12-5-3.25-13.87-3.37-13.87-3.37" transform="translate(-447.14 -293.58)"/><path class="cls-2" d="M471.63,355.34a7.72,7.72,0,0,1,0,6" transform="translate(-447.14 -293.58)"/><path class="cls-2" d="M527.24,376s-24.17-3.5-27.57-9.37c-.6-2.38,0-29.87,0-31s2.16-1.39,2.28,0,.75,10.25,2.38,14.13c1.38,2.88,2.63,10.38,2.63,10.38a4.38,4.38,0,0,0,1.38,2c1.63.63,19.25-.64,21.25-1.12,5-3.25,13.88-3.37,13.88-3.37" transform="translate(-447.14 -293.58)"/><path class="cls-2" d="M527.45,355.34a7.72,7.72,0,0,0,0,6" transform="translate(-447.14 -293.58)"/></svg>