<svg id="Layer_1" data-name="Layer 1" xmlns="http://www.w3.org/2000/svg" viewBox="0 0 104.56 107.99"><defs><style>.cls-1{fill:#eb5858;}.cls-2{fill:none;stroke:#fff;stroke-linecap:round;stroke-miterlimit:10;}</style></defs><title>wrist_extension_clearing</title><path class="cls-1" d="M5.2,80.93a137.8,137.8,0,0,0,19.5,1.5S25.61,97,25.91,108H78.62c.31-11,1.24-25.58,1.24-25.58a137.81,137.81,0,0,0,19.5-1.5c5.19,1,5.17-4,5.17-4s.33-6.83-1.33-10.17-7-6.19-8.5-8.5-3.83-6-6-8c-1.68-1.51-3.5-2.5-10.5-2.17s-14.5-5.5-14.5-5.5L62,40.75l.83-9.33a11.72,11.72,0,0,0,.83-3.83c5.75-2.54,5.25-7.62,4-8.83-1-1.08-2.25.58-2.25.58S68.82,1.8,54.27,0h-4C35.73,1.8,39.1,19.34,39.1,19.34s-1.25-1.67-2.25-.58c-1.25,1.21-1.75,6.29,4,8.83a11.72,11.72,0,0,0,.83,3.83l.83,9.33-1.65,1.84s-7.5,5.83-14.5,5.5-8.82.66-10.5,2.17c-2.17,2-4.46,5.69-6,8S3,63.43,1.36,66.76,0,76.93,0,76.93,0,81.93,5.2,80.93Z" transform="translate(0 -0.01)"/><path class="cls-2" d="M24.69,82.42s24.17-3.5,27.57-9.37c.6-2.38,0-29.87,0-31s-2.16-1.39-2.28,0-.75,10.25-2.37,14.13C46.24,59.06,45,66.56,45,66.56a4.38,4.38,0,0,1-1.37,2c-1.62.63-19.25-.64-21.25-1.12-5-3.25-13.87-3.37-13.87-3.37" transform="translate(0 -0.01)"/><path class="cls-2" d="M24.49,61.76a7.72,7.72,0,0,1,0,6" transform="translate(0 -0.01)"/><path class="cls-2" d="M80.1,82.42s-24.17-3.5-27.57-9.37c-.6-2.38,0-29.87,0-31s2.16-1.39,2.28,0,.75,10.25,2.38,14.13c1.38,2.88,2.63,10.38,2.63,10.38a4.38,4.38,0,0,0,1.38,2c1.63.63,19.25-.64,21.25-1.12,5-3.25,13.88-3.37,13.88-3.37" transform="translate(0 -0.01)"/><path class="cls-2" d="M80.31,61.76a7.72,7.72,0,0,0,0,6" transform="translate(0 -0.01)"/></svg>