<svg id="Layer_1" data-name="Layer 1" xmlns="http://www.w3.org/2000/svg" viewBox="0 0 312.7 158.77"><defs><style>.cls-1,.cls-3{fill:#414042;}.cls-2{fill:#ed1c24;}.cls-3{fill-rule:evenodd;}</style></defs><title>YBalance-logo</title><path class="cls-1" d="M238.83,366.67l-8-13.56h3.6l3.44,6.24c.85,1.62,1.66,3.17,2.55,4.82h.16c.93-1.65,1.86-3.2,2.67-4.82l3.4-6.24h3.52l-8,13.56v8.57h-3.4Z" transform="translate(-230.86 -216.87)"/><path class="cls-1" d="M264.66,353.12h7.89c5.38,0,9.11,1.52,9.11,5.39a4.94,4.94,0,0,1-3.89,4.82v.13c3.2.51,5.42,2.26,5.42,5.29,0,4.35-4.13,6.47-10.08,6.47h-8.46Zm7.28,9.41c4.53,0,6.39-1.38,6.39-3.64,0-2.56-2.1-3.54-6.23-3.54H268v7.18Zm.69,10.49c4.57,0,7.24-1.38,7.24-4.35,0-2.73-2.59-4-7.24-4H268V373Z" transform="translate(-230.86 -216.87)"/><path class="cls-1" d="M302,368.49H292.3l-2.55,6.74h-3.44l9-22.12h3.8l9,22.12h-3.6Zm-.85-2.26-1.25-3.37c-1-2.46-1.82-4.89-2.67-7.45H297c-.81,2.56-1.66,5-2.63,7.45l-1.25,3.37Z" transform="translate(-230.86 -216.87)"/><path class="cls-1" d="M313.23,353.12h3.36v19.73H328.2v2.39h-15Z" transform="translate(-230.86 -216.87)"/><path class="cls-1" d="M346.54,368.49h-9.67l-2.55,6.74h-3.44l9-22.12h3.8l9,22.12H349Zm-.85-2.26-1.25-3.37c-1-2.46-1.82-4.89-2.67-7.45h-.16c-.81,2.56-1.66,5-2.63,7.45l-1.25,3.37Z" transform="translate(-230.86 -216.87)"/><path class="cls-1" d="M357.79,353.12h3.48L370.86,367l2.87,4.59h.16c-.16-2.23-.41-4.72-.41-7V353.12h3.2v22.12h-3.48l-9.63-13.93-2.87-4.55h-.16c.2,2.23.45,4.59.45,6.91v11.57h-3.2Z" transform="translate(-230.86 -216.87)"/><path class="cls-1" d="M383.82,364.18c0-7.12,5-11.47,11.78-11.47a10.59,10.59,0,0,1,7.28,2.73l-1.82,1.82a7.92,7.92,0,0,0-5.42-2.09c-5,0-8.34,3.44-8.34,8.94s3.2,9.07,8.22,9.07a8.69,8.69,0,0,0,6.15-2.49l1.86,1.75a11.17,11.17,0,0,1-8.13,3.2C388.75,375.64,383.82,371.39,383.82,364.18Z" transform="translate(-230.86 -216.87)"/><path class="cls-1" d="M409.84,353.12h15.3v2.36H413.2v6.95h10.08v2.39H413.2v8h12.34v2.39h-15.7Z" transform="translate(-230.86 -216.87)"/><path class="cls-1" d="M447.52,355.48h-8v-2.36h19.43v2.36h-8v19.76h-3.4Z" transform="translate(-230.86 -216.87)"/><path class="cls-1" d="M465.09,353.12h15.3v2.36H468.45v6.95h10.08v2.39H468.45v8h12.34v2.39h-15.7Z" transform="translate(-230.86 -216.87)"/><path class="cls-1" d="M485.85,372.37l2-2a11.41,11.41,0,0,0,7.33,2.77c3.48,0,5.54-1.45,5.54-3.61s-1.9-3-4.41-3.91l-3.8-1.38c-2.51-.88-5.38-2.46-5.38-5.7s3.52-5.87,8.34-5.87a12.19,12.19,0,0,1,7.85,2.73l-1.82,1.82a9.38,9.38,0,0,0-6-2.09c-3,0-4.94,1.25-4.94,3.24s2.31,2.93,4.41,3.68l3.76,1.35c3.08,1.11,5.46,2.63,5.46,5.9,0,3.51-3.44,6.31-9,6.31A14.23,14.23,0,0,1,485.85,372.37Z" transform="translate(-230.86 -216.87)"/><path class="cls-1" d="M515.48,355.48h-8v-2.36h19.43v2.36h-8v19.76h-3.4Z" transform="translate(-230.86 -216.87)"/><path class="cls-2" d="M532.81,244.37H531V243.1h5.17v1.27h-1.83v5.39h-1.51Z" transform="translate(-230.86 -216.87)"/><path class="cls-2" d="M537.19,243.1h1.64l1.07,3c.13.39.26.82.39,1.23h0c.13-.41.25-.84.38-1.23l1.05-3h1.63v6.66H542v-2.44c0-.65.12-1.62.19-2.27h0l-.54,1.58-.95,2.54h-.83l-.95-2.54-.53-1.58h0c.07.64.19,1.61.19,2.27v2.44h-1.35Z" transform="translate(-230.86 -216.87)"/><polygon class="cls-2" points="164.05 39.75 153.86 0 131.23 0 152.52 78.4 152.52 126.69 174.56 126.69 174.56 78.4 195.69 0 173.49 0 164.05 39.75"/><path class="cls-2" d="M478.81,279,476,277.14l4.52-3.18c3.9-2.79,3.9-7.93,3.9-10.4V230.09c0-7.78-5.56-13.22-13.53-13.22H430V343.57h41c8.6,0,14.16-5.31,14.16-13.53v-39.6A12.71,12.71,0,0,0,478.81,279Zm-26.79-13V236.4h10.33v27L459,266.06Zm0,22.35h6.64l4.48,3.13V324H452Z" transform="translate(-230.86 -216.87)"/><polygon class="cls-2" points="257.35 0 257.35 19.68 274 19.68 274 126.69 296.04 126.69 296.04 19.68 312.7 19.68 312.7 0 257.35 0"/><path class="cls-1" d="M230.9,216.94V343.8H357.76V216.94Zm36.94,61.77c1.2-.06,4.46,2.12,3.32,3.57-2.12,2.07-3.8-.22-4.48-2.18Zm-6.81.61c1.77-2,4.51,1.41,5.41,3C264.69,286.68,258.5,282,261,279.32ZM258.62,286c-1.8,0-3.82-2.51-4.64-3.88C256.17,277.82,262.65,283,258.62,286ZM249,284.25c2.71-2.34,7,1.08,6,4.19-1.66,2.63-5.56-.9-6.26-2.88C249.24,285.08,249.3,284.65,249,284.25Zm-6.9,4.48c2.82-4,9.69.85,10.36,5.51C249.55,301.72,239,293.19,242.13,288.72Zm46.37,34.06c-5.81-5.88-2.29-15.22-8.63-19.83-9.66-7-18.6,10.7-26.92-3.61,1.33-11.29,13.59-18.54,22-13.11,5.52,3.56,7.09,12,11.34,16.58,5.05,5.45,21.79,12.94,16.44,20.85C299.46,328.51,293,327.34,288.5,322.78ZM354.71,340H302l.15-.06h0l.09,0,.09,0h0l.31-.13h0l.09,0,.09,0h0l.31-.13h0l.09,0,.09,0h0l.3-.13h0l.09,0,.09,0h0l.3-.13h0l.09,0,.09,0h0l.3-.13h0l.08,0,.09,0h0l.29-.13h0l.08,0,.09,0h0l.29-.13h0l.08,0,.09,0h0l.29-.13h0l.08,0,.08,0h0l.28-.13h0l.08,0,.08,0h0l.28-.13h0l.08,0,.08,0h0l.28-.13h0l.08,0,.08,0h0l.27-.13h0l.08,0,.08,0h0l.27-.13h0l.08,0,.08,0h0l.27-.13h0l.07,0,.08,0h0l.26-.13h0l.08,0,.08,0h0l.26-.13h0l.08,0,.07,0h0l.26-.13h0l.07,0,.08,0h0l.25-.13h0l.07,0,.07,0h0l.25-.13h0l.07,0,.07,0h0l.25-.13h0l.07,0,.07,0h0l.24-.13h0l.07,0,.07,0h0l.24-.13h0l.07,0,.07,0h0l.24-.13h0l.07,0,.07,0h0l.23-.13h0l.07,0,.07,0h0l.23-.13h0l.06,0,.07,0h0l.23-.13h0l.07,0,.06,0h0l.23-.13h0l.06,0,.07,0h0l.22-.13h0l.06,0,.07,0h0l.22-.13h0l.06,0,.06,0h0l.22-.13h0l.07,0,.06,0h0l.21-.13h0l.06,0,.06,0h0l.21-.13h0l.06,0,.06,0h0l.21-.13h0l.06,0,.06,0h0l.2-.13h0l.06,0,.06,0h0l.2-.13h0l.06,0,.06,0h0l.2-.13h0l.06,0,.06,0h0l.2-.13h0l.06,0,.06,0h0l.19-.13h0l.06,0,.06,0h0l.19-.13h0l.05,0,.06,0h0l.19-.13h0l.06,0,.05,0h0l.18-.13h0l.05,0,.05,0h0l.18-.13h0l.05,0,.05,0h0l.18-.13h0l0,0,.05,0h0l.17-.13h0l.05,0,.05,0h0l.17-.13h0l0,0,.05,0h0l.17-.13h0l0,0,0,0h0l.17-.13h0l0,0,0,0h0l.16-.13h0l0,0,0,0h0l.16-.13h0l0,0,0,0h0l.16-.13h0l0,0,0,0h0l.15-.13h0l0,0,0,0h0l.15-.13h0l0,0,0,0h0l.15-.13h0l0,0,0,0h0l.15-.13h0l0,0,0,0h0l.14-.13h0l0,0,0,0h0l.14-.13h0l0,0,0,0h0l.14-.13h0l0,0,0,0h0l.14-.13h0l0,0,0,0h0l.13-.13h0l0,0,0,0h0l.13-.13h0l0,0,0,0h0l.13-.13h0l0,0,0,0h0l.12-.13h0l0,0,0,0h0l.12-.13h0l0,0,0,0h0l.12-.13h0l0,0,0,0h0l.12-.13h0l0,0,0,0h0l.11-.13h0l0,0,0,0h0l.11-.13h0l0,0,0,0h0l.11-.13h0l0,0,0,0h0l.11-.13h0l0,0,0,0h0l.1-.13h0l0,0,0,0h0l.1-.13h0l0,0,0,0h0l.1-.13h0l0,0,0,0h0l.1-.13h0l0,0,0,0h0l.09-.13h0l0,0,0,0h0l.09-.13h0l0,0,0,0h0l.09-.13h0l0,0,0,0h0l.09-.13h0l0,0,0,0h0l.08-.13h0l0,0,0,0h0l.08-.13h0l0,0,0,0h0l.08-.13h0l0,0,0,0h0l.08-.13h0l0,0,0,0h0l.07-.13h0l0,0,0,0h0l.07-.13h0l0,0,0,0h0l.07-.13h0l0,0,0,0h0l.07-.13h0l0,0,0,0h0l.06-.13h0l0,0,0,0h0l.06-.13h0l0,0,0,0h0l.06-.13h0l0,0,0,0h0l.06-.13h0l0,0,0,0h0l.05-.13h0l0,0,0,0h0l.05-.13h0l0,0v0h0l0-.13h0v-.08h0l0-.13h0v-.08h0l0-.13h0v-.08h0l0-.13h0v-.08h0l0-.13h0v-.08h0l0-.13h0v-.08h0l0-.13h0V319h0l0-.13h0v-.08h0l0-.13h0v-.08h0l0-.13h0v-.08h0l0-.13h0v-.08h0l0-.13h0V318h0l0-.13h0v-.08h0l0-.13h0v-.08h0l0-.13h0v-.08h0l0-.13h0v-.08h0V317h0v-.08h0v-.13h0v-.08h0v-.13h0v-.08h0v-.13h0v-.08h0v-.13h0v-.08h0v-.13h0v-.08h0s0-.09,0-.13h0s0,0,0,0v0h0s0-.09,0-.13h0v0s0,0,0,0h0v-.13h0v-.08h0v-.13h0V315h0v-.13h0v-.08h0v-.13h0v-.08h0v-.13h0v-.08h0v-.13h0v-.08h0V314h0v-.08h0l0-.13h0v-.08h0l0-.13h0v-.08h0l0-.13h0v-.08h0l0-.13h0v-.08h0l0-.13h0v-.08h0l0-.13h0v-.08h0l0-.13h0v-.08h0l0-.13h0v-.08h0l0-.13h0V312h0l0-.13h0v-.08h0l0-.13h0v-.08h0l0-.13h0v-.08h0l0-.13h0v-.08h0l0-.13h0V311h0l0-.13h0v-.08h0l0-.13h0v-.08h0l0-.13h0v-.08h0l0-.13h0v-.08h0l0-.13h0v-.08h0l0-.13h0l0,0v0h0l-.05-.13h0l0,0,0,0h0l-.05-.13h0l0,0,0,0h0l-.06-.13h0l0,0,0,0h0l-.06-.13h0l0,0,0,0h0l-.06-.13h0l0,0,0,0h0l-.06-.13h0l0,0,0,0h0l-.06-.13h0l0,0,0,0h0l-.06-.13h0l0,0,0,0h0l-.06-.13h0l0,0,0,0h0l-.07-.13h0l0,0,0,0h0l-.07-.13h0l0,0,0,0h0l-.07-.13h0l0,0,0,0h0l-.07-.13h0l0,0,0,0h0l-.07-.13h0l0,0,0,0h0l-.07-.13h0l0,0,0,0h0l-.08-.13h0l0,0,0,0h0l-.08-.13h0l0,0,0,0h0l-.08-.13h0l0,0,0,0h0l-.08-.13h0l0,0,0,0h0l-.08-.13h0l0,0,0,0h0l-.08-.13h0l0,0,0,0h0l-.08-.13h0l0,0,0,0h0l-.09-.13h0l0,0,0,0h0l-.09-.13h0l0,0,0,0h0l-.09-.13h0l0,0,0,0h0l-.09-.13h0l0,0,0,0h0l-.09-.13h0l0,0,0,0h0l-.09-.13h0l0,0,0,0h0l-.09-.13h0l0,0,0,0h0l-.1-.13h0l0,0,0,0h0l-.1-.13h0l0,0,0,0h0l-.1-.13h0l0,0,0,0h0l-.1-.13h0l0,0,0,0h0l-.1-.13h0l0,0,0,0h0l-.1-.13h0l0,0,0,0h0l-.1-.13h0l0,0,0,0h0l-.1-.13h0l0,0,0,0h0l-.11-.13h0l0,0,0,0h0l-.11-.13h0l0,0,0,0h0l-.11-.13h0l0,0,0,0h0l-.11-.13h0l0,0,0,0h0l-.11-.13h0l0,0,0,0h0l-.11-.13h0l0,0,0,0h0l-.11-.13h0l0,0,0,0h0l-.11-.13h0l0,0,0,0h0l-.12-.13h0l0,0,0,0h0l-.12-.13h0l0,0,0,0h0l-.12-.13h0l0,0,0,0h0l-.12-.13h0l0,0,0,0h0l-.12-.13h0l0,0,0,0h0l-.12-.13h0l0,0,0,0h0l-.12-.13h0l0,0,0,0h0l-.12-.13h0l0,0,0,0h0l-.12-.13h0l0,0,0,0h0l-.12-.13h0l0,0,0,0h0l-.13-.13h0l0,0,0,0h0l-.13-.13h0l0,0,0,0h0l-.13-.13h0l0,0,0,0h0l-.13-.13h0l0,0,0,0h0L318,297h0l0,0,0,0h0l-.13-.13h0l0,0,0,0h0l-.13-.13h0l0,0,0,0h0l-.13-.13h0l0,0,0,0h0l-.13-.13h0l0,0,0,0h0l-.13-.13h0l0,0,0,0h0l-.14-.13h0l0,0,0,0h0l-.14-.13h0l0,0,0,0h0l-.14-.13h0l0,0,0,0h0l-.14-.13h0l0,0,0,0h0l-.14-.13h0l0,0,0,0h0l-.14-.13h0l0,0,0,0h0l-.14-.13h0l0,0,0,0h0l-.14-.13h0l0,0,0,0h0L315,294h0l0,0,0,0h0l-.14-.13h0l0,0,0,0h0l-.14-.13h0l0,0,0,0h0l-.14-.13h0l0,0,0,0h0l-.15-.13h0l0,0,0,0h0l-.15-.13h0l0,0,0,0h0l-.15-.13h0l0,0,0,0h0l-.15-.13h0l0,0,0,0h0l-.15-.13h0l0,0,0,0h0l-.15-.13h0l0,0,0,0h0l-.15-.13h0l0,0,0,0h0l-.15-.13h0l0,0,0,0h0l-.15-.13h0l0,0,0,0h0l-.15-.13h0l0,0,0,0h0l-.15-.13h0l0,0-.05,0h0l-.15-.13h0l0,0,0,0h0l-.15-.13h0l0,0,0,0h0l-.15-.13h0l0,0-.05,0h0l-.15-.13h0l0,0,0,0h0l-.16-.13h0l0,0,0,0h0l-.16-.13h0l-.06,0,0,0h0l-.16-.13h0l-.06,0,0,0h0l-.16-.13h0l-.05,0,0,0h0l-.16-.13h0l0,0,0,0h0l-.16-.13h0l0,0,0,0h0l-.16-.13h0l0,0-.05,0h0l-.16-.13h0l0,0,0,0h0l-.16-.13h0l0,0-.06,0h0l-.16-.13h0l-.05,0,0,0h0l-.16-.13h0l0,0-.05,0h0l-.16-.13h0l0,0-.05,0h0l-.16-.13h0l0,0-.06,0h0l-.16-.13h0l0,0-.05,0h0L307,287h0l0,0,0,0h0l-.16-.13h0l0,0-.06,0h0l-.16-.13h0l-.05,0,0,0h0l-.16-.13h0l-.06,0,0,0h0l-.16-.13h0l-.06,0,0,0h0l-.16-.13h0l-.05,0,0,0-.16-.13h0l0,0,0,0h0l-.16-.13h0l-.06,0,0,0h0l-.16-.13,0,0-.05,0h0l-.16-.13h0l-.05,0,0,0h0l-.17-.13h0l0,0-.05,0h0l-.17-.13,0,0-.06,0h0l-.17-.13h0l-.05,0,0,0h0l-.17-.13,0,0-.06-.05h0l-.17-.13h0l0,0-.08-.06h0l-.17-.13h0l-.05,0,0,0h0l-.17-.13h0l0,0-.05,0-.17-.13,0,0-.06,0h0l-.17-.13h0l-.08-.06h0L302,283h0l-.06,0,0,0-.17-.13h0l-.07-.06,0,0h0l-.17-.13-.07-.06,0,0-.17-.13h0l-.07-.06,0,0h0l-.17-.13-.07-.06,0,0h0l-.17-.13h0l-.09-.07h0l-.17-.13h0l-.06,0,0,0-.27-.21h0l-.17-.13,0,0-.06,0h0l-.17-.13,0,0-.07-.05-.27-.21-.17-.13-.36-.29-.27-.21h0l-.17-.13-.27-.21-.27-.21-.32-.26-.29-.23-.24-.19-.22-.18-.27-.22-.34-.27-.2-.16-.27-.22-.29-.23-.29-.23-.19-.15-.29-.24-.27-.22-.25-.2-.27-.22-.24-.2-.3-.24-.23-.19-.28-.22-.27-.22-.26-.21-.24-.2-.26-.21-.27-.22-.26-.21-.24-.2-.26-.21-.27-.23-.25-.21-.24-.2-.26-.22-.28-.23-.24-.2-.26-.22-.26-.22-.25-.21-.25-.21-.25-.21-.26-.22-.24-.21-.25-.21-.24-.2-.25-.22-.24-.21-.25-.22-.25-.22-.24-.21-.24-.21-.24-.21-.25-.22-.23-.21-.24-.21-.24-.21-.24-.22-.23-.21-.24-.22-.23-.21-.23-.21-.23-.21-.23-.21-.22-.21-.23-.22-.22-.2-.23-.22-.22-.21-.22-.21-.22-.21-.22-.21-.21-.21-.22-.22-.22-.21-.21-.21-.21-.21-.21-.22-.2-.21-.21-.22-.2-.21-.2-.21-.2-.21-.2-.21-.2-.21-.19-.21-.2-.22-.2-.21-.19-.21-.19-.21-.19-.21-.19-.21-.19-.21-.19-.21-.18-.21L276,260l-.18-.21-.18-.21-.18-.22-.17-.21-.17-.22-.17-.21-.16-.21-.17-.21-.17-.22-.16-.21-.16-.21-.16-.21-.16-.21-.15-.21-.15-.21-.15-.21-.15-.21-.15-.22-.14-.21-.14-.21-.14-.21-.14-.21-.14-.22-.13-.21-.13-.21-.13-.22-.12-.21-.12-.21-.12-.21-.12-.21-.12-.22-.11-.21-.11-.21-.11-.21-.11-.21-.1-.21-.1-.21-.1-.21-.09-.21-.09-.21-.09-.21-.09-.21-.09-.21-.08-.21-.08-.21-.08-.21-.07-.21-.07-.21-.07-.21-.07-.21-.06-.21-.06-.21-.06-.21-.05-.21-.05-.21,0-.21,0-.22,0-.21,0-.21,0-.22,0-.21,0-.21,0-.22,0-.21,0-.21,0-.21,0-.21v-.21c0-.07,0-.14,0-.21s0-.14,0-.21,0-.14,0-.21,0-.14,0-.21,0-.14,0-.21,0-.14,0-.21,0-.14,0-.21v-.21l0-.21,0-.22,0-.21,0-.21,0-.21,0-.21,0-.21,0-.21,0-.21,0-.21.05-.21.05-.21.06-.21.06-.21.06-.21.07-.22.07-.21.08-.21.08-.21.08-.22.09-.21.09-.21.09-.21.1-.21.1-.21.11-.21.11-.21.11-.21.12-.21.12-.21.12-.21.13-.21.13-.21.13-.21.14-.21.14-.21L272,236l.15-.21.15-.21.16-.21.16-.21.17-.21.17-.21.18-.21.18-.21.18-.21.19-.21.2-.21.2-.21.2-.21.21-.21.21-.21.22-.21.22-.21.22-.21.23-.21.23-.21.24-.21.24-.21.24-.21.25-.21.26-.22.25-.21.26-.21.27-.21.27-.21.28-.21.28-.21.28-.21.29-.21.3-.21.3-.21.31-.21.31-.21.31-.21.32-.21.32-.21.33-.21.33-.21.34-.21.34-.21.35-.21.35-.21.36-.22.36-.21.37-.21.37-.21.38-.21.38-.21.39-.21.39-.21.4-.21.4-.21.41-.21.41-.21.42-.21.42-.21.43-.21.43-.21.44-.21.44-.21.46-.22.45-.21.46-.21.46-.21.47-.21.47-.21.48-.21.36-.16h60.5Z" transform="translate(-230.86 -216.87)"/><path class="cls-3" d="M313.91,244.81c1,.84,1.91,1.72,2.82,2.61.65.64,4,4.76,4.88,3.08.25-.55-2.62-3.63-3-4.09-2.23-2.88-5.07-4.78-7.62-7.29-1.56-1.54-2.71-3.45-4.13-5.11-.22-.25-.47-.37-.58-.68a2.43,2.43,0,0,1-.12-.82,2,2,0,0,1,1.48-1.51c.1,0,.24,0,.37,0,2.38-.05,5.86,5,7.38,6.61,2.94,3,6.23,5.91,9,9.1.15.17.22.39.38.56.79.84.82,1.59,2.13,1.11,2.71-1-9.6-13.68-7.58-16a2,2,0,0,1,1.22-.79c4.28-.19,8.23,9.6,9.87,12.66,1.07,2,2.1,2.43,3.87,3.53a23.57,23.57,0,0,1,5.54,5.41c2.34,3.07,7.92,8.67,6.24,13-.82,2.13-2.66,2.67-4.57,3.57s-2.72,2.29-4.18,3.8a14.2,14.2,0,0,1-8.81,4.29,13.4,13.4,0,0,1-4.06-.51,34.72,34.72,0,0,1-7.79-3.44,2.73,2.73,0,0,0-1.4-.45c-1.62,0-3.72-1-5.27-1.43-1.83-.53-5.84-.55-7-2.24-1.72-2.58,2.77-3.73,4.52-3.68a26.47,26.47,0,0,1,8.17,1.77c4.63,1.63,4.2-2.19,1.76-4.83s-5.87-4.73-9.05-6.69c-2.84-1.76-5.32-3.82-8.05-5.73-2-1.36-5.26-3.35-4.5-6.23.89-3.34,4.56-.24,5.86.9,3.37,3,15.89,13.12,16.78,10.52.53-1.55-3.43-3.33-4.36-4.16-1.42-1.27-2.9-2.21-4.23-3.3s-2.77-2.57-4.19-3.81a40.68,40.68,0,0,1-4.45-4.28c-.9-1.06-2.19-3-1.4-4.34.9-1.55,3-1.21,4.22-.21,2.06,1.77,3,4,5.36,5.57A41.45,41.45,0,0,1,313.91,244.81Z" transform="translate(-230.86 -216.87)"/></svg>