<?xml version="1.0" encoding="utf-8"?>
<!-- Generator: Adobe Illustrator 20.1.0, SVG Export Plug-In . SVG Version: 6.00 Build 0)  -->
<svg version="1.1" id="Layer_1" xmlns="http://www.w3.org/2000/svg" xmlns:xlink="http://www.w3.org/1999/xlink" x="0px" y="0px"
	 viewBox="0 0 200 200" style="enable-background:new 0 0 200 200;" xml:space="preserve">
<style type="text/css">
	.st0{fill:#404041;}
	.st1{fill:#FFFFFF;}
	.st2{fill-rule:evenodd;clip-rule:evenodd;fill:#404041;}
</style>
<title>FCS-icon</title>
<rect class="st0" width="200" height="200"/>
<rect x="38.3" y="38.5" class="st1" width="124" height="123.5"/>
<path class="st0" d="M36.9,36.9v126.9h126.9V36.9H36.9z M73.8,98.7c1.2-0.1,4.5,2.1,3.3,3.6c-2.1,2.1-3.8-0.2-4.5-2.2
	C73.1,99.6,73.5,99.2,73.8,98.7z M67,99.3c1.8-2,4.5,1.4,5.4,3C70.7,106.7,64.5,102,67,99.3z M64.6,106c-1.8,0-3.8-2.5-4.6-3.9
	C62.2,97.8,68.6,103,64.6,106z M55,104.2c2.7-2.3,7,1.1,6,4.2c-1.7,2.6-5.6-0.9-6.3-2.9C55.2,105.1,55.3,104.7,55,104.2z
	 M48.1,108.7c2.8-4,9.7,0.9,10.4,5.5C55.5,121.7,45,113.2,48.1,108.7z M94.5,142.8c-5.8-5.9-2.3-15.2-8.6-19.8
	c-9.7-7-18.6,10.7-26.9-3.6c1.3-11.3,13.6-18.5,22-13.1c5.5,3.6,7.1,12,11.3,16.6c5.1,5.5,21.8,12.9,16.4,20.8
	C105.5,148.5,99,147.3,94.5,142.8z M160.7,160H108c0,0,0.1,0,0.1-0.1h0c0,0,0.1,0,0.1,0c0,0,0.1,0,0.1,0h0c0.1,0,0.2-0.1,0.3-0.1h0
	c0,0,0.1,0,0.1,0c0,0,0.1,0,0.1,0c0,0,0,0,0,0c0.1,0,0.2-0.1,0.3-0.1c0,0,0,0,0,0c0,0,0.1,0,0.1,0c0,0,0.1,0,0.1,0h0
	c0.1,0,0.2-0.1,0.3-0.1c0,0,0,0,0,0c0,0,0.1,0,0.1,0c0,0,0.1,0,0.1,0h0c0.1,0,0.2-0.1,0.3-0.1c0,0,0,0,0,0c0,0,0.1,0,0.1,0
	c0,0,0.1,0,0.1,0h0c0.1,0,0.2-0.1,0.3-0.1h0c0,0,0.1,0,0.1,0c0,0,0.1,0,0.1,0h0c0.1,0,0.2-0.1,0.3-0.1h0c0,0,0.1,0,0.1,0
	c0,0,0.1,0,0.1,0h0c0.1,0,0.2-0.1,0.3-0.1h0c0,0,0.1,0,0.1,0c0,0,0.1,0,0.1,0h0c0.1,0,0.2-0.1,0.3-0.1h0c0,0,0.1,0,0.1,0
	s0.1,0,0.1,0h0c0.1,0,0.2-0.1,0.3-0.1h0c0,0,0.1,0,0.1,0c0,0,0.1,0,0.1,0h0c0.1,0,0.2-0.1,0.3-0.1h0c0,0,0.1,0,0.1,0
	c0,0,0.1,0,0.1,0h0c0.1,0,0.2-0.1,0.3-0.1c0,0,0,0,0,0c0,0,0.1,0,0.1,0c0,0,0.1,0,0.1,0c0,0,0,0,0,0c0.1,0,0.2-0.1,0.3-0.1h0
	c0,0,0.1,0,0.1,0c0,0,0.1,0,0.1,0h0c0.1,0,0.2-0.1,0.3-0.1c0,0,0,0,0,0c0,0,0.1,0,0.1,0c0,0,0.1,0,0.1,0h0c0.1,0,0.2-0.1,0.3-0.1h0
	c0,0,0,0,0.1,0c0,0,0.1,0,0.1,0h0c0.1,0,0.2-0.1,0.3-0.1h0c0,0,0.1,0,0.1,0c0,0,0.1,0,0.1,0c0,0,0,0,0,0c0.1,0,0.2-0.1,0.3-0.1h0
	c0,0,0.1,0,0.1,0c0,0,0,0,0.1,0c0,0,0,0,0,0c0.1,0,0.2-0.1,0.3-0.1h0c0,0,0,0,0.1,0c0,0,0.1,0,0.1,0c0,0,0,0,0,0
	c0.1,0,0.2-0.1,0.3-0.1h0c0,0,0,0,0.1,0c0,0,0,0,0.1,0h0c0.1,0,0.2-0.1,0.3-0.1h0c0,0,0,0,0.1,0c0,0,0,0,0.1,0h0
	c0.1,0,0.2-0.1,0.2-0.1c0,0,0,0,0,0c0,0,0,0,0.1,0c0,0,0,0,0.1,0h0c0.1,0,0.2-0.1,0.2-0.1h0c0,0,0,0,0.1,0c0,0,0,0,0.1,0
	c0,0,0,0,0,0c0.1,0,0.2-0.1,0.2-0.1c0,0,0,0,0,0c0,0,0,0,0.1,0c0,0,0,0,0.1,0h0c0.1,0,0.2-0.1,0.2-0.1h0c0,0,0,0,0.1,0
	c0,0,0,0,0.1,0h0c0.1,0,0.2-0.1,0.2-0.1h0c0,0,0,0,0.1,0c0,0,0,0,0.1,0h0c0.1,0,0.2-0.1,0.2-0.1h0c0,0,0,0,0.1,0c0,0,0,0,0.1,0h0
	c0.1,0,0.2-0.1,0.2-0.1h0c0,0,0,0,0.1,0c0,0,0,0,0.1,0h0c0.1,0,0.2-0.1,0.2-0.1c0,0,0,0,0,0c0,0,0,0,0.1,0c0,0,0,0,0.1,0h0
	c0.1,0,0.1-0.1,0.2-0.1h0c0,0,0,0,0.1,0c0,0,0,0,0.1,0h0c0.1,0,0.1-0.1,0.2-0.1h0c0,0,0,0,0.1,0c0,0,0,0,0.1,0h0
	c0.1,0,0.1-0.1,0.2-0.1h0c0,0,0,0,0.1,0c0,0,0,0,0.1,0h0c0.1,0,0.1-0.1,0.2-0.1h0c0,0,0,0,0.1,0c0,0,0,0,0.1,0h0
	c0.1,0,0.1-0.1,0.2-0.1h0c0,0,0,0,0.1,0c0,0,0,0,0.1,0h0c0.1,0,0.1-0.1,0.2-0.1h0c0,0,0,0,0.1,0c0,0,0,0,0.1,0h0
	c0.1,0,0.1-0.1,0.2-0.1c0,0,0,0,0,0c0,0,0,0,0.1,0c0,0,0,0,0.1,0c0,0,0,0,0,0c0.1,0,0.1-0.1,0.2-0.1h0c0,0,0,0,0.1,0c0,0,0,0,0.1,0
	h0c0.1,0,0.1-0.1,0.2-0.1h0c0,0,0,0,0.1,0c0,0,0,0,0.1,0c0,0,0,0,0,0c0.1,0,0.1-0.1,0.2-0.1h0c0,0,0,0,0.1,0c0,0,0,0,0.1,0h0
	c0.1,0,0.1-0.1,0.2-0.1h0c0,0,0,0,0.1,0c0,0,0,0,0.1,0h0c0.1,0,0.1-0.1,0.2-0.1h0c0,0,0,0,0.1,0c0,0,0,0,0.1,0h0
	c0.1,0,0.1-0.1,0.2-0.1c0,0,0,0,0,0c0,0,0,0,0.1,0c0,0,0,0,0.1,0h0c0.1,0,0.1-0.1,0.2-0.1h0c0,0,0,0,0.1,0c0,0,0,0,0.1,0h0
	c0.1,0,0.1-0.1,0.2-0.1h0c0,0,0,0,0.1,0c0,0,0,0,0.1,0h0c0.1,0,0.1-0.1,0.2-0.1h0c0,0,0,0,0,0c0,0,0,0,0.1,0h0
	c0.1,0,0.1-0.1,0.2-0.1h0c0,0,0,0,0.1,0c0,0,0,0,0.1,0h0c0.1,0,0.1-0.1,0.2-0.1h0c0,0,0,0,0,0c0,0,0,0,0.1,0h0
	c0.1,0,0.1-0.1,0.2-0.1h0c0,0,0,0,0,0c0,0,0,0,0,0h0c0.1,0,0.1-0.1,0.2-0.1h0c0,0,0,0,0,0c0,0,0,0,0,0h0c0.1,0,0.1-0.1,0.2-0.1h0
	c0,0,0,0,0,0s0,0,0,0c0,0,0,0,0,0c0.1,0,0.1-0.1,0.2-0.1h0c0,0,0,0,0,0c0,0,0,0,0,0h0c0.1,0,0.1-0.1,0.2-0.1h0c0,0,0,0,0,0
	c0,0,0,0,0,0h0c0.1,0,0.1-0.1,0.2-0.1h0c0,0,0,0,0,0c0,0,0,0,0,0h0c0.1,0,0.1-0.1,0.2-0.1h0c0,0,0,0,0,0c0,0,0,0,0,0h0
	c0,0,0.1-0.1,0.1-0.1h0c0,0,0,0,0,0c0,0,0,0,0,0h0c0,0,0.1-0.1,0.1-0.1h0c0,0,0,0,0,0c0,0,0,0,0,0h0c0,0,0.1-0.1,0.1-0.1h0
	c0,0,0,0,0,0c0,0,0,0,0,0h0c0,0,0.1-0.1,0.1-0.1h0c0,0,0,0,0,0c0,0,0,0,0,0h0c0,0,0.1-0.1,0.1-0.1h0c0,0,0,0,0,0c0,0,0,0,0,0
	c0,0,0,0,0,0c0,0,0.1-0.1,0.1-0.1h0c0,0,0,0,0,0c0,0,0,0,0,0c0,0,0,0,0,0c0,0,0.1-0.1,0.1-0.1h0c0,0,0,0,0,0c0,0,0,0,0,0h0
	c0,0,0.1-0.1,0.1-0.1h0c0,0,0,0,0,0c0,0,0,0,0,0h0c0,0,0.1-0.1,0.1-0.1h0c0,0,0,0,0,0c0,0,0,0,0,0h0c0,0,0.1-0.1,0.1-0.1h0
	c0,0,0,0,0,0c0,0,0,0,0,0h0c0,0,0.1-0.1,0.1-0.1h0c0,0,0,0,0,0c0,0,0,0,0,0h0c0,0,0.1-0.1,0.1-0.1h0c0,0,0,0,0,0c0,0,0,0,0,0h0
	c0,0,0.1-0.1,0.1-0.1h0c0,0,0,0,0,0c0,0,0,0,0,0h0c0,0,0.1-0.1,0.1-0.1h0c0,0,0,0,0,0c0,0,0,0,0,0h0c0,0,0.1-0.1,0.1-0.1h0
	c0,0,0,0,0,0c0,0,0,0,0,0h0c0,0,0.1-0.1,0.1-0.1h0c0,0,0,0,0,0c0,0,0,0,0,0h0c0,0,0.1-0.1,0.1-0.1h0c0,0,0,0,0,0c0,0,0,0,0,0h0
	c0,0,0.1-0.1,0.1-0.1h0c0,0,0,0,0,0c0,0,0,0,0,0h0c0,0,0.1-0.1,0.1-0.1h0c0,0,0,0,0,0c0,0,0,0,0,0h0c0,0,0.1-0.1,0.1-0.1h0
	c0,0,0,0,0,0c0,0,0,0,0,0h0c0,0,0.1-0.1,0.1-0.1h0c0,0,0,0,0,0c0,0,0,0,0,0h0c0,0,0.1-0.1,0.1-0.1h0c0,0,0,0,0,0c0,0,0,0,0,0
	c0,0,0,0,0,0c0,0,0.1-0.1,0.1-0.1h0c0,0,0,0,0,0c0,0,0,0,0,0h0c0,0,0.1-0.1,0.1-0.1h0c0,0,0,0,0,0c0,0,0,0,0,0h0
	c0,0,0.1-0.1,0.1-0.1h0c0,0,0,0,0,0c0,0,0,0,0,0h0c0,0,0.1-0.1,0.1-0.1h0c0,0,0,0,0,0c0,0,0,0,0,0h0c0,0,0.1-0.1,0.1-0.1
	c0,0,0,0,0,0c0,0,0,0,0,0c0,0,0,0,0,0h0c0,0,0.1-0.1,0.1-0.1h0c0,0,0,0,0,0c0,0,0,0,0,0h0c0,0,0.1-0.1,0.1-0.1h0c0,0,0,0,0,0
	c0,0,0,0,0,0h0c0,0,0-0.1,0.1-0.1c0,0,0,0,0,0c0,0,0,0,0,0c0,0,0,0,0,0h0c0,0,0-0.1,0.1-0.1c0,0,0,0,0,0c0,0,0,0,0,0c0,0,0,0,0,0h0
	c0,0,0-0.1,0.1-0.1h0c0,0,0,0,0,0c0,0,0,0,0,0h0c0,0,0-0.1,0.1-0.1h0c0,0,0,0,0,0c0,0,0,0,0,0h0c0,0,0-0.1,0.1-0.1h0c0,0,0,0,0,0
	c0,0,0,0,0,0h0c0,0,0-0.1,0.1-0.1h0c0,0,0,0,0,0c0,0,0,0,0,0h0c0,0,0-0.1,0.1-0.1h0c0,0,0,0,0,0c0,0,0,0,0,0h0c0,0,0-0.1,0.1-0.1h0
	c0,0,0,0,0,0c0,0,0,0,0,0h0c0,0,0-0.1,0.1-0.1h0c0,0,0,0,0,0c0,0,0,0,0,0c0,0,0,0,0,0c0,0,0-0.1,0.1-0.1h0c0,0,0,0,0,0c0,0,0,0,0,0
	h0c0,0,0-0.1,0-0.1h0c0,0,0,0,0,0c0,0,0,0,0,0h0c0,0,0-0.1,0-0.1h0c0,0,0,0,0,0c0,0,0,0,0,0h0c0,0,0-0.1,0-0.1h0c0,0,0,0,0,0
	c0,0,0,0,0,0h0c0,0,0-0.1,0-0.1h0c0,0,0,0,0,0c0,0,0,0,0,0h0c0,0,0-0.1,0-0.1h0c0,0,0,0,0,0c0,0,0,0,0,0h0c0,0,0-0.1,0-0.1
	c0,0,0,0,0,0c0,0,0,0,0,0c0,0,0,0,0,0h0c0,0,0-0.1,0-0.1h0c0,0,0,0,0,0c0,0,0,0,0,0h0c0,0,0-0.1,0-0.1h0c0,0,0,0,0,0c0,0,0,0,0,0h0
	c0,0,0-0.1,0-0.1h0c0,0,0,0,0,0c0,0,0,0,0,0h0c0,0,0-0.1,0-0.1h0c0,0,0,0,0,0c0,0,0,0,0,0h0c0,0,0-0.1,0-0.1c0,0,0,0,0,0
	c0,0,0,0,0,0c0,0,0,0,0,0h0c0,0,0-0.1,0-0.1h0c0,0,0,0,0,0c0,0,0,0,0,0h0c0,0,0-0.1,0-0.1h0c0,0,0,0,0,0c0,0,0,0,0,0h0
	c0,0,0-0.1,0-0.1h0c0,0,0,0,0,0c0,0,0,0,0,0h0c0,0,0-0.1,0-0.1h0c0,0,0,0,0,0c0,0,0,0,0,0h0c0,0,0-0.1,0-0.1h0c0,0,0,0,0,0
	c0,0,0,0,0,0h0c0,0,0-0.1,0-0.1h0c0,0,0,0,0,0c0,0,0,0,0,0h0c0,0,0-0.1,0-0.1h0c0,0,0,0,0,0c0,0,0,0,0,0h0c0,0,0-0.1,0-0.1h0
	c0,0,0,0,0,0c0,0,0,0,0,0h0c0,0,0-0.1,0-0.1c0,0,0,0,0,0c0,0,0,0,0,0c0,0,0,0,0,0h0c0,0,0-0.1,0-0.1h0c0,0,0,0,0,0c0,0,0,0,0,0h0
	c0,0,0-0.1,0-0.1h0c0,0,0,0,0,0c0,0,0,0,0,0h0c0,0,0-0.1,0-0.1h0c0,0,0,0,0,0c0,0,0,0,0,0h0c0,0,0-0.1,0-0.1h0c0,0,0,0,0,0
	c0,0,0,0,0,0h0c0,0,0-0.1,0-0.1h0c0,0,0,0,0,0c0,0,0,0,0,0h0c0,0,0-0.1,0-0.1h0c0,0,0,0,0,0c0,0,0,0,0,0h0c0,0,0-0.1,0-0.1h0
	c0,0,0,0,0,0c0,0,0,0,0,0h0c0,0,0-0.1,0-0.1h0c0,0,0,0,0,0c0,0,0,0,0,0h0c0,0,0-0.1,0-0.1h0c0,0,0,0,0,0c0,0,0,0,0,0h0
	c0,0,0-0.1,0-0.1h0c0,0,0,0,0,0c0,0,0,0,0,0h0c0,0,0-0.1,0-0.1h0c0,0,0,0,0,0c0,0,0,0,0,0h0c0,0,0-0.1,0-0.1h0c0,0,0,0,0,0
	c0,0,0,0,0,0h0c0,0,0-0.1,0-0.1h0c0,0,0,0,0,0c0,0,0,0,0,0h0c0,0,0-0.1,0-0.1h0c0,0,0,0,0,0c0,0,0,0,0,0h0c0,0,0-0.1,0-0.1h0
	c0,0,0,0,0,0c0,0,0,0,0,0h0c0,0,0-0.1,0-0.1h0c0,0,0,0,0,0c0,0,0,0,0,0h0c0,0,0-0.1,0-0.1h0c0,0,0,0,0,0c0,0,0,0,0,0h0
	c0,0,0-0.1,0-0.1h0c0,0,0,0,0,0c0,0,0,0,0,0h0c0,0,0-0.1,0-0.1h0c0,0,0,0,0,0c0,0,0,0,0,0h0c0,0,0-0.1,0-0.1h0c0,0,0,0,0,0
	c0,0,0,0,0,0h0c0,0,0-0.1,0-0.1h0c0,0,0,0,0,0c0,0,0,0,0,0h0c0,0,0-0.1,0-0.1h0c0,0,0,0,0,0c0,0,0,0,0,0h0c0,0,0-0.1,0-0.1h0
	c0,0,0,0,0,0c0,0,0,0,0,0h0c0,0,0-0.1,0-0.1h0c0,0,0,0,0,0c0,0,0,0,0,0h0c0,0,0-0.1,0-0.1h0c0,0,0,0,0,0c0,0,0,0,0,0h0
	c0,0,0-0.1,0-0.1h0c0,0,0,0,0,0c0,0,0,0,0,0h0c0,0,0-0.1,0-0.1h0c0,0,0,0,0,0c0,0,0,0,0,0h0c0,0,0-0.1,0-0.1h0c0,0,0,0,0,0
	c0,0,0,0,0,0h0c0,0,0-0.1,0-0.1h0c0,0,0,0,0,0c0,0,0,0,0,0h0c0,0,0-0.1,0-0.1h0c0,0,0,0,0,0c0,0,0,0,0,0h0c0,0,0-0.1,0-0.1h0
	c0,0,0,0,0,0c0,0,0,0,0,0h0c0,0,0-0.1-0.1-0.1h0c0,0,0,0,0,0c0,0,0,0,0,0h0c0,0,0-0.1-0.1-0.1h0c0,0,0,0,0,0c0,0,0,0,0,0h0
	c0,0,0-0.1-0.1-0.1h0c0,0,0,0,0,0c0,0,0,0,0,0h0c0,0,0-0.1-0.1-0.1h0c0,0,0,0,0,0c0,0,0,0,0,0h0c0,0,0-0.1-0.1-0.1h0c0,0,0,0,0,0
	c0,0,0,0,0,0h0c0,0,0-0.1-0.1-0.1h0c0,0,0,0,0,0c0,0,0,0,0,0h0c0,0,0-0.1-0.1-0.1h0c0,0,0,0,0,0c0,0,0,0,0,0h0c0,0,0-0.1-0.1-0.1h0
	c0,0,0,0,0,0c0,0,0,0,0,0h0c0,0,0-0.1-0.1-0.1h0c0,0,0,0,0,0c0,0,0,0,0,0h0c0,0,0-0.1-0.1-0.1h0c0,0,0,0,0,0c0,0,0,0,0,0h0
	c0,0,0-0.1-0.1-0.1h0c0,0,0,0,0,0c0,0,0,0,0,0h0c0,0,0-0.1-0.1-0.1h0c0,0,0,0,0,0c0,0,0,0,0,0h0c0,0,0-0.1-0.1-0.1h0c0,0,0,0,0,0
	c0,0,0,0,0,0h0c0,0,0-0.1-0.1-0.1h0c0,0,0,0,0,0c0,0,0,0,0,0h0c0,0,0-0.1-0.1-0.1h0c0,0,0,0,0,0c0,0,0,0,0,0h0c0,0-0.1-0.1-0.1-0.1
	h0c0,0,0,0,0,0c0,0,0,0,0,0h0c0,0-0.1-0.1-0.1-0.1h0c0,0,0,0,0,0s0,0,0,0h0c0,0-0.1-0.1-0.1-0.1h0c0,0,0,0,0,0c0,0,0,0,0,0h0
	c0,0-0.1-0.1-0.1-0.1h0c0,0,0,0,0,0c0,0,0,0,0,0h0c0,0-0.1-0.1-0.1-0.1h0c0,0,0,0,0,0c0,0,0,0,0,0h0c0,0-0.1-0.1-0.1-0.1h0
	c0,0,0,0,0,0c0,0,0,0,0,0h0c0,0-0.1-0.1-0.1-0.1h0c0,0,0,0,0,0c0,0,0,0,0,0h0c0,0-0.1-0.1-0.1-0.1h0c0,0,0,0,0,0c0,0,0,0,0,0h0
	c0,0-0.1-0.1-0.1-0.1h0c0,0,0,0,0,0c0,0,0,0,0,0h0c0,0-0.1-0.1-0.1-0.1h0c0,0,0,0,0,0c0,0,0,0,0,0c0,0,0,0,0,0c0,0-0.1-0.1-0.1-0.1
	h0c0,0,0,0,0,0c0,0,0,0,0,0h0c0,0-0.1-0.1-0.1-0.1h0c0,0,0,0,0,0c0,0,0,0,0,0h0c0,0-0.1-0.1-0.1-0.1h0c0,0,0,0,0,0c0,0,0,0,0,0h0
	c0,0-0.1-0.1-0.1-0.1h0c0,0,0,0,0,0c0,0,0,0,0,0h0c0,0-0.1-0.1-0.1-0.1h0c0,0,0,0,0,0c0,0,0,0,0,0h0c0,0-0.1-0.1-0.1-0.1h0
	c0,0,0,0,0,0c0,0,0,0,0,0h0c0,0-0.1-0.1-0.1-0.1h0c0,0,0,0,0,0c0,0,0,0,0,0h0c0,0-0.1-0.1-0.1-0.1h0c0,0,0,0,0,0c0,0,0,0,0,0h0
	c0,0-0.1-0.1-0.1-0.1h0c0,0,0,0,0,0c0,0,0,0,0,0h0c0,0-0.1-0.1-0.1-0.1h0c0,0,0,0,0,0c0,0,0,0,0,0h0c0,0-0.1-0.1-0.1-0.1h0
	c0,0,0,0,0,0c0,0,0,0,0,0h0c0,0-0.1-0.1-0.1-0.1h0c0,0,0,0,0,0c0,0,0,0,0,0h0c0,0-0.1-0.1-0.1-0.1h0c0,0,0,0,0,0c0,0,0,0,0,0h0
	c0,0-0.1-0.1-0.1-0.1h0c0,0,0,0,0,0c0,0,0,0,0,0h0c0,0-0.1-0.1-0.1-0.1h0c0,0,0,0,0,0c0,0,0,0,0,0h0c0,0-0.1-0.1-0.1-0.1h0
	c0,0,0,0,0,0c0,0,0,0,0,0h0c0,0-0.1-0.1-0.1-0.1h0c0,0,0,0,0,0c0,0,0,0,0,0c0,0,0,0,0,0c0,0-0.1-0.1-0.1-0.1h0c0,0,0,0,0,0
	c0,0,0,0,0,0h0c0,0-0.1-0.1-0.1-0.1h0c0,0,0,0,0,0c0,0,0,0,0,0h0c0,0-0.1-0.1-0.1-0.1h0c0,0,0,0,0,0c0,0,0,0,0,0h0
	c0,0-0.1-0.1-0.1-0.1h0c0,0,0,0,0,0c0,0,0,0,0,0h0c0,0-0.1-0.1-0.1-0.1h0c0,0,0,0,0,0c0,0,0,0,0,0h0c0,0-0.1-0.1-0.1-0.1h0
	c0,0,0,0,0,0c0,0,0,0,0,0h0c0,0-0.1-0.1-0.1-0.1h0c0,0,0,0,0,0c0,0,0,0,0,0h0c0,0-0.1-0.1-0.1-0.1h0c0,0,0,0,0,0c0,0,0,0,0,0h0
	c0,0-0.1-0.1-0.1-0.1h0c0,0,0,0,0,0c0,0,0,0,0,0h0c0,0-0.1-0.1-0.1-0.1h0c0,0,0,0,0,0c0,0,0,0,0,0h0c0,0-0.1-0.1-0.1-0.1h0
	c0,0,0,0,0,0c0,0,0,0,0,0h0c0,0-0.1-0.1-0.1-0.1h0c0,0,0,0,0,0c0,0,0,0,0,0h0c0,0-0.1-0.1-0.1-0.1h0c0,0,0,0,0,0c0,0,0,0,0,0h0
	c0,0-0.1-0.1-0.1-0.1h0c0,0,0,0,0,0c0,0,0,0,0,0h0c0,0-0.1-0.1-0.1-0.1h0c0,0,0,0,0,0c0,0,0,0,0,0h0c0,0-0.1-0.1-0.1-0.1h0
	c0,0,0,0,0,0c0,0,0,0,0,0h0c0,0-0.1-0.1-0.1-0.1h0c0,0,0,0,0,0c0,0,0,0,0,0h0c0,0-0.1-0.1-0.1-0.1h0c0,0,0,0,0,0c0,0,0,0,0,0h0
	c0,0-0.1-0.1-0.1-0.1h0c0,0,0,0,0,0c0,0,0,0,0,0h0c0,0-0.1-0.1-0.1-0.1h0c0,0,0,0,0,0c0,0,0,0,0,0h0c0,0-0.1-0.1-0.1-0.1h0
	c0,0,0,0,0,0c0,0,0,0,0,0h0c0,0-0.1-0.1-0.1-0.1h0c0,0,0,0,0,0c0,0,0,0,0,0h0c0,0-0.1-0.1-0.1-0.1h0c0,0,0,0,0,0c0,0,0,0,0,0h0
	c0,0-0.1-0.1-0.1-0.1h0c0,0,0,0,0,0c0,0,0,0,0,0h0c0,0-0.1-0.1-0.1-0.1h0c0,0,0,0,0,0c0,0,0,0,0,0h0c0,0-0.1-0.1-0.1-0.1h0
	c0,0,0,0,0,0c0,0,0,0,0,0h0c0,0-0.1-0.1-0.1-0.1h0c0,0,0,0,0,0c0,0,0,0,0,0h0c0,0-0.1-0.1-0.1-0.1h0c0,0,0,0,0,0c0,0,0,0,0,0h0
	c0,0-0.1-0.1-0.1-0.1h0c0,0,0,0,0,0c0,0,0,0,0,0h0c0,0-0.1-0.1-0.1-0.1h0c0,0,0,0,0,0c0,0,0,0,0,0h0c0,0-0.1-0.1-0.1-0.1h0
	c0,0,0,0,0,0c0,0,0,0,0,0h0c0,0-0.1-0.1-0.1-0.1h0c0,0,0,0,0,0c0,0,0,0,0,0h0c0,0-0.1-0.1-0.1-0.1h0c0,0,0,0,0,0c0,0,0,0,0,0h0
	c0,0-0.1-0.1-0.1-0.1h0c0,0,0,0,0,0c0,0,0,0,0,0h0c0,0-0.1-0.1-0.1-0.1h0c0,0,0,0,0,0c0,0,0,0,0,0h0c0,0-0.1-0.1-0.1-0.1h0
	c0,0,0,0,0,0c0,0,0,0,0,0h0c0,0-0.1-0.1-0.1-0.1h0c0,0,0,0,0,0c0,0,0,0,0,0h0c0,0-0.1-0.1-0.1-0.1h0c0,0,0,0,0,0c0,0,0,0,0,0h0
	c0,0-0.1-0.1-0.1-0.1h0c0,0,0,0,0,0c0,0,0,0,0,0h0c0,0-0.1-0.1-0.1-0.1h0c0,0,0,0,0,0c0,0,0,0,0,0h0c0,0-0.1-0.1-0.1-0.1h0
	c0,0,0,0,0,0c0,0,0,0,0,0h0c0,0-0.1-0.1-0.1-0.1h0c0,0,0,0,0,0c0,0,0,0,0,0h0c0,0-0.1-0.1-0.2-0.1h0c0,0,0,0,0,0c0,0,0,0,0,0h0
	c-0.1,0-0.1-0.1-0.2-0.1h0c0,0,0,0,0,0c0,0,0,0,0,0h0c-0.1,0-0.1-0.1-0.2-0.1h0c0,0,0,0,0,0c0,0,0,0,0,0h0c-0.1,0-0.1-0.1-0.2-0.1h0
	c0,0,0,0,0,0c0,0,0,0-0.1,0h0c-0.1,0-0.1-0.1-0.2-0.1h0c0,0,0,0,0,0c0,0,0,0,0,0h0c-0.1,0-0.1-0.1-0.2-0.1h0c0,0,0,0,0,0
	c0,0,0,0,0,0h0c-0.1,0-0.1-0.1-0.2-0.1h0c0,0,0,0,0,0c0,0,0,0-0.1,0h0c-0.1,0-0.1-0.1-0.2-0.1h0c0,0,0,0,0,0c0,0,0,0,0,0h0
	c-0.1,0-0.1-0.1-0.2-0.1h0c0,0,0,0,0,0c0,0,0,0,0,0h0c-0.1,0-0.1-0.1-0.2-0.1h0c0,0,0,0-0.1,0c0,0,0,0,0,0h0c-0.1,0-0.1-0.1-0.2-0.1
	h0c0,0,0,0-0.1,0c0,0,0,0,0,0h0c-0.1,0-0.1-0.1-0.2-0.1h0c0,0,0,0-0.1,0c0,0,0,0,0,0h0c-0.1,0-0.1-0.1-0.2-0.1h0c0,0,0,0,0,0
	c0,0,0,0,0,0h0c-0.1,0-0.1-0.1-0.2-0.1h0c0,0,0,0,0,0c0,0,0,0,0,0h0c-0.1,0-0.1-0.1-0.2-0.1h0c0,0,0,0,0,0c0,0,0,0-0.1,0h0
	c-0.1,0-0.1-0.1-0.2-0.1h0c0,0,0,0,0,0c0,0,0,0,0,0h0c-0.1,0-0.1-0.1-0.2-0.1h0c0,0,0,0,0,0c0,0,0,0-0.1,0h0c-0.1,0-0.1-0.1-0.2-0.1
	h0c0,0,0,0-0.1,0c0,0,0,0,0,0h0c-0.1,0-0.1-0.1-0.2-0.1h0c0,0,0,0,0,0c0,0,0,0-0.1,0h0c-0.1,0-0.1-0.1-0.2-0.1h0c0,0,0,0,0,0
	c0,0,0,0-0.1,0h0c-0.1,0-0.1-0.1-0.2-0.1h0c0,0,0,0,0,0c0,0,0,0-0.1,0h0c-0.1,0-0.1-0.1-0.2-0.1h0c0,0,0,0,0,0c0,0,0,0-0.1,0h0
	c-0.1,0-0.1-0.1-0.2-0.1h0c0,0,0,0,0,0c0,0,0,0,0,0h0c-0.1,0-0.1-0.1-0.2-0.1h0c0,0,0,0,0,0c0,0,0,0-0.1,0h0c-0.1,0-0.1-0.1-0.2-0.1
	h0c0,0,0,0-0.1,0c0,0,0,0,0,0h0c-0.1,0-0.1-0.1-0.2-0.1h0c0,0,0,0-0.1,0c0,0,0,0,0,0h0c-0.1,0-0.1-0.1-0.2-0.1h0c0,0,0,0-0.1,0
	c0,0,0,0,0,0h0c-0.1,0-0.1-0.1-0.2-0.1h0c0,0,0,0-0.1,0c0,0,0,0,0,0c-0.1,0-0.1-0.1-0.2-0.1h0c0,0,0,0,0,0c0,0,0,0,0,0h0
	c-0.1,0-0.1-0.1-0.2-0.1h0c0,0,0,0-0.1,0c0,0,0,0,0,0h0c-0.1,0-0.1-0.1-0.2-0.1c0,0,0,0,0,0c0,0,0,0-0.1,0h0c-0.1,0-0.1-0.1-0.2-0.1
	h0c0,0,0,0-0.1,0c0,0,0,0,0,0h0c-0.1,0-0.1-0.1-0.2-0.1h0c0,0,0,0,0,0c0,0,0,0-0.1,0h0c-0.1,0-0.1-0.1-0.2-0.1c0,0,0,0,0,0
	c0,0,0,0-0.1,0h0c-0.1,0-0.1-0.1-0.2-0.1h0c0,0,0,0-0.1,0c0,0,0,0,0,0h0c-0.1,0-0.1-0.1-0.2-0.1c0,0,0,0,0,0c0,0,0,0-0.1-0.1h0
	c-0.1,0-0.1-0.1-0.2-0.1h0c0,0,0,0,0,0c0,0-0.1,0-0.1-0.1h0c-0.1,0-0.1-0.1-0.2-0.1h0c0,0,0,0-0.1,0c0,0,0,0,0,0h0
	c-0.1,0-0.1-0.1-0.2-0.1h0c0,0,0,0,0,0c0,0,0,0-0.1,0c-0.1,0-0.1-0.1-0.2-0.1c0,0,0,0,0,0c0,0,0,0-0.1,0h0c-0.1,0-0.1-0.1-0.2-0.1h0
	c0,0-0.1,0-0.1-0.1c0,0,0,0,0,0c-0.1,0-0.1-0.1-0.2-0.1h0c0,0,0,0-0.1,0c0,0,0,0,0,0c-0.1,0-0.1-0.1-0.2-0.1h0c0,0,0,0-0.1-0.1
	c0,0,0,0,0,0h0c-0.1,0-0.1-0.1-0.2-0.1c0,0,0,0-0.1-0.1c0,0,0,0,0,0c-0.1,0-0.1-0.1-0.2-0.1h0c0,0,0,0-0.1-0.1c0,0,0,0,0,0h0
	c-0.1,0-0.1-0.1-0.2-0.1c0,0,0,0-0.1-0.1c0,0,0,0,0,0h0c-0.1,0-0.1-0.1-0.2-0.1c0,0,0,0,0,0c0,0-0.1,0-0.1-0.1h0
	c-0.1,0-0.1-0.1-0.2-0.1h0c0,0,0,0-0.1,0c0,0,0,0,0,0c-0.1-0.1-0.2-0.1-0.3-0.2h0c-0.1,0-0.1-0.1-0.2-0.1c0,0,0,0,0,0c0,0,0,0-0.1,0
	h0c-0.1,0-0.1-0.1-0.2-0.1c0,0,0,0,0,0c0,0,0,0-0.1-0.1c-0.1-0.1-0.2-0.1-0.3-0.2c-0.1,0-0.1-0.1-0.2-0.1c-0.1-0.1-0.2-0.2-0.4-0.3
	c-0.1-0.1-0.2-0.1-0.3-0.2h0c-0.1,0-0.1-0.1-0.2-0.1c-0.1-0.1-0.2-0.1-0.3-0.2c-0.1-0.1-0.2-0.1-0.3-0.2c-0.1-0.1-0.2-0.2-0.3-0.3
	c-0.1-0.1-0.2-0.2-0.3-0.2c-0.1-0.1-0.2-0.1-0.2-0.2c-0.1-0.1-0.1-0.1-0.2-0.2c-0.1-0.1-0.2-0.1-0.3-0.2c-0.1-0.1-0.2-0.2-0.3-0.3
	c-0.1-0.1-0.1-0.1-0.2-0.2c-0.1-0.1-0.2-0.1-0.3-0.2c-0.1-0.1-0.2-0.2-0.3-0.2c-0.1-0.1-0.2-0.2-0.3-0.2c-0.1-0.1-0.1-0.1-0.2-0.2
	c-0.1-0.1-0.2-0.2-0.3-0.2c-0.1-0.1-0.2-0.1-0.3-0.2c-0.1-0.1-0.2-0.1-0.2-0.2c-0.1-0.1-0.2-0.1-0.3-0.2c-0.1-0.1-0.2-0.1-0.2-0.2
	c-0.1-0.1-0.2-0.2-0.3-0.2c-0.1-0.1-0.2-0.1-0.2-0.2c-0.1-0.1-0.2-0.1-0.3-0.2c-0.1-0.1-0.2-0.1-0.3-0.2c-0.1-0.1-0.2-0.1-0.3-0.2
	c-0.1-0.1-0.2-0.1-0.2-0.2c-0.1-0.1-0.2-0.1-0.3-0.2c-0.1-0.1-0.2-0.1-0.3-0.2c-0.1-0.1-0.2-0.1-0.3-0.2C97,94.2,97,94.1,96.9,94
	c-0.1-0.1-0.2-0.1-0.3-0.2c-0.1-0.1-0.2-0.2-0.3-0.2c-0.1-0.1-0.2-0.1-0.3-0.2c-0.1-0.1-0.2-0.1-0.2-0.2c-0.1-0.1-0.2-0.1-0.3-0.2
	c-0.1-0.1-0.2-0.2-0.3-0.2c-0.1-0.1-0.2-0.1-0.2-0.2c-0.1-0.1-0.2-0.1-0.3-0.2c-0.1-0.1-0.2-0.1-0.3-0.2c-0.1-0.1-0.2-0.1-0.2-0.2
	c-0.1-0.1-0.2-0.1-0.2-0.2c-0.1-0.1-0.2-0.1-0.2-0.2c-0.1-0.1-0.2-0.1-0.3-0.2c-0.1-0.1-0.2-0.1-0.2-0.2c-0.1-0.1-0.2-0.1-0.2-0.2
	c-0.1-0.1-0.2-0.1-0.2-0.2c-0.1-0.1-0.2-0.1-0.3-0.2c-0.1-0.1-0.2-0.1-0.2-0.2c-0.1-0.1-0.2-0.1-0.2-0.2c-0.1-0.1-0.2-0.1-0.2-0.2
	c-0.1-0.1-0.2-0.1-0.2-0.2c-0.1-0.1-0.2-0.1-0.2-0.2c-0.1-0.1-0.2-0.1-0.2-0.2c-0.1-0.1-0.2-0.1-0.2-0.2c-0.1-0.1-0.2-0.1-0.2-0.2
	c-0.1-0.1-0.2-0.1-0.2-0.2c-0.1-0.1-0.2-0.1-0.2-0.2c-0.1-0.1-0.2-0.1-0.2-0.2c-0.1-0.1-0.2-0.1-0.2-0.2c-0.1-0.1-0.2-0.1-0.2-0.2
	c-0.1-0.1-0.2-0.1-0.2-0.2c-0.1-0.1-0.2-0.1-0.2-0.2c-0.1-0.1-0.2-0.1-0.2-0.2c-0.1-0.1-0.2-0.1-0.2-0.2c-0.1-0.1-0.1-0.1-0.2-0.2
	c-0.1-0.1-0.2-0.1-0.2-0.2c-0.1-0.1-0.1-0.1-0.2-0.2c-0.1-0.1-0.2-0.1-0.2-0.2c-0.1-0.1-0.2-0.1-0.2-0.2c-0.1-0.1-0.1-0.1-0.2-0.2
	c-0.1-0.1-0.1-0.1-0.2-0.2c-0.1-0.1-0.1-0.1-0.2-0.2c-0.1-0.1-0.1-0.1-0.2-0.2c-0.1-0.1-0.1-0.1-0.2-0.2c-0.1-0.1-0.1-0.1-0.2-0.2
	c-0.1-0.1-0.1-0.1-0.2-0.2c-0.1-0.1-0.1-0.1-0.2-0.2c-0.1-0.1-0.1-0.1-0.2-0.2c-0.1-0.1-0.1-0.1-0.2-0.2c-0.1-0.1-0.1-0.1-0.2-0.2
	c-0.1-0.1-0.1-0.1-0.2-0.2c-0.1-0.1-0.1-0.1-0.2-0.2c-0.1-0.1-0.1-0.1-0.2-0.2c-0.1-0.1-0.1-0.1-0.2-0.2c-0.1-0.1-0.1-0.1-0.2-0.2
	c-0.1-0.1-0.1-0.1-0.2-0.2c-0.1-0.1-0.1-0.1-0.2-0.2c-0.1-0.1-0.1-0.1-0.2-0.2c-0.1-0.1-0.1-0.1-0.2-0.2c-0.1-0.1-0.1-0.1-0.2-0.2
	c-0.1-0.1-0.1-0.1-0.2-0.2c-0.1-0.1-0.1-0.1-0.2-0.2c-0.1-0.1-0.1-0.1-0.2-0.2c-0.1-0.1-0.1-0.1-0.2-0.2c-0.1-0.1-0.1-0.1-0.2-0.2
	C82.1,80.1,82,80.1,82,80c-0.1-0.1-0.1-0.1-0.2-0.2c-0.1-0.1-0.1-0.1-0.2-0.2c-0.1-0.1-0.1-0.1-0.2-0.2c-0.1-0.1-0.1-0.1-0.2-0.2
	c-0.1-0.1-0.1-0.1-0.2-0.2c-0.1-0.1-0.1-0.1-0.2-0.2c-0.1-0.1-0.1-0.1-0.2-0.2c-0.1-0.1-0.1-0.1-0.2-0.2c-0.1-0.1-0.1-0.1-0.2-0.2
	c-0.1-0.1-0.1-0.1-0.2-0.2c-0.1-0.1-0.1-0.1-0.2-0.2c-0.1-0.1-0.1-0.1-0.2-0.2c-0.1-0.1-0.1-0.1-0.2-0.2c-0.1-0.1-0.1-0.1-0.2-0.2
	c-0.1-0.1-0.1-0.1-0.2-0.2c-0.1-0.1-0.1-0.1-0.1-0.2c0-0.1-0.1-0.1-0.1-0.2c0-0.1-0.1-0.1-0.1-0.2c0-0.1-0.1-0.1-0.1-0.2
	c0-0.1-0.1-0.1-0.1-0.2c0-0.1-0.1-0.1-0.1-0.2c0-0.1-0.1-0.1-0.1-0.2c0-0.1-0.1-0.1-0.1-0.2c0-0.1-0.1-0.1-0.1-0.2
	c0-0.1-0.1-0.1-0.1-0.2c0-0.1-0.1-0.1-0.1-0.2c0-0.1-0.1-0.1-0.1-0.2c0-0.1-0.1-0.1-0.1-0.2c0-0.1-0.1-0.1-0.1-0.2
	c0-0.1-0.1-0.1-0.1-0.2c0-0.1-0.1-0.1-0.1-0.2c0-0.1-0.1-0.1-0.1-0.2c0-0.1-0.1-0.1-0.1-0.2c0-0.1-0.1-0.1-0.1-0.2
	c0-0.1-0.1-0.1-0.1-0.2c0-0.1-0.1-0.1-0.1-0.2c0-0.1-0.1-0.1-0.1-0.2c0-0.1-0.1-0.1-0.1-0.2c0-0.1-0.1-0.1-0.1-0.2
	c0-0.1-0.1-0.1-0.1-0.2c0-0.1-0.1-0.1-0.1-0.2c0-0.1-0.1-0.1-0.1-0.2c0-0.1-0.1-0.1-0.1-0.2c0-0.1-0.1-0.1-0.1-0.2
	c0-0.1-0.1-0.1-0.1-0.2c0-0.1-0.1-0.1-0.1-0.2c0-0.1,0-0.1-0.1-0.2c0-0.1,0-0.1-0.1-0.2c0-0.1,0-0.1-0.1-0.2c0-0.1,0-0.1-0.1-0.2
	c0-0.1,0-0.1-0.1-0.2c0-0.1,0-0.1-0.1-0.2c0-0.1,0-0.1-0.1-0.2c0-0.1,0-0.1-0.1-0.2c0-0.1,0-0.1-0.1-0.2c0-0.1,0-0.1,0-0.2
	c0-0.1,0-0.1,0-0.2c0-0.1,0-0.1,0-0.2c0-0.1,0-0.1,0-0.2c0-0.1,0-0.1,0-0.2c0-0.1,0-0.1,0-0.2c0-0.1,0-0.1,0-0.2c0-0.1,0-0.1,0-0.2
	c0-0.1,0-0.1,0-0.2c0-0.1,0-0.1,0-0.2c0-0.1,0-0.1,0-0.2c0-0.1,0-0.1,0-0.2c0-0.1,0-0.1,0-0.2c0-0.1,0-0.1,0-0.2c0-0.1,0-0.1,0-0.2
	c0-0.1,0-0.1,0-0.2c0-0.1,0-0.1,0-0.2c0-0.1,0-0.1,0-0.2c0-0.1,0-0.1,0-0.2c0-0.1,0-0.1,0-0.2c0-0.1,0-0.1,0-0.2c0-0.1,0-0.1,0-0.2
	c0-0.1,0-0.1,0-0.2c0-0.1,0-0.1,0-0.2c0-0.1,0-0.1,0-0.2c0-0.1,0-0.1,0-0.2c0-0.1,0-0.1,0-0.2c0-0.1,0-0.1,0-0.2c0-0.1,0-0.1,0-0.2
	c0-0.1,0-0.1,0-0.2c0-0.1,0-0.1,0-0.2c0-0.1,0-0.1,0.1-0.2c0-0.1,0-0.1,0.1-0.2c0-0.1,0-0.1,0.1-0.2c0-0.1,0-0.1,0.1-0.2
	c0-0.1,0-0.1,0.1-0.2c0-0.1,0-0.1,0.1-0.2c0-0.1,0-0.1,0.1-0.2c0-0.1,0.1-0.1,0.1-0.2c0-0.1,0.1-0.1,0.1-0.2c0-0.1,0.1-0.1,0.1-0.2
	c0-0.1,0.1-0.1,0.1-0.2c0-0.1,0.1-0.1,0.1-0.2c0-0.1,0.1-0.1,0.1-0.2c0-0.1,0.1-0.1,0.1-0.2c0-0.1,0.1-0.1,0.1-0.2
	c0-0.1,0.1-0.1,0.1-0.2c0-0.1,0.1-0.1,0.1-0.2c0-0.1,0.1-0.1,0.1-0.2c0-0.1,0.1-0.1,0.1-0.2c0-0.1,0.1-0.1,0.1-0.2
	c0-0.1,0.1-0.1,0.1-0.2c0-0.1,0.1-0.1,0.1-0.2c0-0.1,0.1-0.1,0.1-0.2c0-0.1,0.1-0.1,0.1-0.2c0-0.1,0.1-0.1,0.1-0.2
	c0-0.1,0.1-0.1,0.1-0.2c0-0.1,0.1-0.1,0.1-0.2c0.1-0.1,0.1-0.1,0.2-0.2c0.1-0.1,0.1-0.1,0.2-0.2c0.1-0.1,0.1-0.1,0.2-0.2
	c0.1-0.1,0.1-0.1,0.2-0.2c0.1-0.1,0.1-0.1,0.2-0.2c0.1-0.1,0.1-0.1,0.2-0.2c0.1-0.1,0.1-0.1,0.2-0.2c0.1-0.1,0.1-0.1,0.2-0.2
	c0.1-0.1,0.1-0.1,0.2-0.2c0.1-0.1,0.1-0.1,0.2-0.2c0.1-0.1,0.1-0.1,0.2-0.2c0.1-0.1,0.1-0.1,0.2-0.2c0.1-0.1,0.1-0.1,0.2-0.2
	c0.1-0.1,0.1-0.1,0.2-0.2c0.1-0.1,0.1-0.1,0.2-0.2c0.1-0.1,0.1-0.1,0.2-0.2c0.1-0.1,0.1-0.1,0.2-0.2c0.1-0.1,0.1-0.1,0.2-0.2
	c0.1-0.1,0.2-0.1,0.2-0.2c0.1-0.1,0.2-0.1,0.2-0.2c0.1-0.1,0.2-0.1,0.2-0.2c0.1-0.1,0.2-0.1,0.2-0.2c0.1-0.1,0.2-0.1,0.2-0.2
	c0.1-0.1,0.2-0.1,0.2-0.2c0.1-0.1,0.2-0.1,0.3-0.2c0.1-0.1,0.2-0.1,0.3-0.2c0.1-0.1,0.2-0.1,0.3-0.2c0.1-0.1,0.2-0.1,0.3-0.2
	c0.1-0.1,0.2-0.1,0.3-0.2c0.1-0.1,0.2-0.1,0.3-0.2c0.1-0.1,0.2-0.1,0.3-0.2c0.1-0.1,0.2-0.1,0.3-0.2c0.1-0.1,0.2-0.1,0.3-0.2
	c0.1-0.1,0.2-0.1,0.3-0.2c0.1-0.1,0.2-0.1,0.3-0.2c0.1-0.1,0.2-0.1,0.3-0.2c0.1-0.1,0.2-0.1,0.3-0.2c0.1-0.1,0.2-0.1,0.3-0.2
	c0.1-0.1,0.2-0.1,0.3-0.2c0.1-0.1,0.2-0.1,0.3-0.2c0.1-0.1,0.2-0.1,0.3-0.2c0.1-0.1,0.2-0.1,0.3-0.2c0.1-0.1,0.2-0.1,0.3-0.2
	c0.1-0.1,0.2-0.1,0.3-0.2c0.1-0.1,0.2-0.1,0.3-0.2c0.1-0.1,0.2-0.1,0.4-0.2c0.1-0.1,0.2-0.1,0.4-0.2c0.1-0.1,0.2-0.1,0.4-0.2
	c0.1-0.1,0.2-0.1,0.4-0.2c0.1-0.1,0.2-0.1,0.4-0.2c0.1-0.1,0.2-0.1,0.4-0.2c0.1-0.1,0.3-0.1,0.4-0.2c0.1-0.1,0.3-0.1,0.4-0.2
	c0.1-0.1,0.3-0.1,0.4-0.2c0.1-0.1,0.3-0.1,0.4-0.2c0.1-0.1,0.3-0.1,0.4-0.2c0.1-0.1,0.3-0.1,0.4-0.2c0.1-0.1,0.3-0.1,0.4-0.2
	c0.1-0.1,0.3-0.1,0.4-0.2c0.1-0.1,0.3-0.1,0.4-0.2c0.1-0.1,0.3-0.1,0.4-0.2c0.1-0.1,0.3-0.1,0.4-0.2c0.1-0.1,0.3-0.1,0.4-0.2
	c0.1-0.1,0.3-0.1,0.4-0.2c0.2-0.1,0.3-0.1,0.5-0.2c0.1-0.1,0.3-0.1,0.5-0.2c0.2-0.1,0.3-0.1,0.5-0.2c0.2-0.1,0.3-0.1,0.5-0.2
	c0.2-0.1,0.3-0.1,0.5-0.2c0.2-0.1,0.3-0.1,0.5-0.2c0.2-0.1,0.3-0.1,0.5-0.2c0.1-0.1,0.2-0.1,0.4-0.2h60.5V160z"/>
<path class="st2" d="M119.9,64.8c1,0.8,1.9,1.7,2.8,2.6c0.6,0.6,4,4.8,4.9,3.1c0.2-0.5-2.6-3.6-3-4.1c-2.2-2.9-5.1-4.8-7.6-7.3
	c-1.6-1.5-2.7-3.4-4.1-5.1c-0.2-0.3-0.5-0.4-0.6-0.7c-0.1-0.2-0.1-0.6-0.1-0.8c0-0.6,0.8-1.5,1.5-1.5c0.1,0,0.2,0,0.4,0
	c2.4-0.1,5.9,5,7.4,6.6c2.9,3,6.2,5.9,9,9.1c0.2,0.2,0.2,0.4,0.4,0.6c0.8,0.8,0.8,1.6,2.1,1.1c2.7-1-9.6-13.7-7.6-16
	c0.4-0.4,0.8-0.8,1.2-0.8c4.3-0.2,8.2,9.6,9.9,12.7c1.1,2,2.1,2.4,3.9,3.5c2,1.3,4.1,3.5,5.5,5.4c2.3,3.1,7.9,8.7,6.2,13
	c-0.8,2.1-2.7,2.7-4.6,3.6c-2,0.9-2.7,2.3-4.2,3.8c-2.2,2.2-5.6,4.1-8.8,4.3c-1.2,0.1-2.9-0.2-4.1-0.5c-2.5-0.8-5.6-2-7.8-3.4
	c-0.5-0.3-1-0.5-1.4-0.5c-1.6,0-3.7-1-5.3-1.4c-1.8-0.5-5.8-0.5-7-2.2c-1.7-2.6,2.8-3.7,4.5-3.7c2.9,0.1,5.4,0.8,8.2,1.8
	c4.6,1.6,4.2-2.2,1.8-4.8c-2.6-2.8-5.9-4.7-9.1-6.7c-2.8-1.8-5.3-3.8-8.1-5.7c-2-1.4-5.3-3.3-4.5-6.2c0.9-3.3,4.6-0.2,5.9,0.9
	c3.4,3,15.9,13.1,16.8,10.5c0.5-1.6-3.4-3.3-4.4-4.2c-1.4-1.3-2.9-2.2-4.2-3.3c-1.5-1.2-2.8-2.6-4.2-3.8c-1.6-1.4-3.1-2.7-4.5-4.3
	c-0.9-1.1-2.2-3-1.4-4.3c0.9-1.5,3-1.2,4.2-0.2c2.1,1.8,3,4,5.4,5.6C117,62.4,118.5,63.6,119.9,64.8z"/>
</svg>
