<svg id="Layer_1" data-name="Layer 1" xmlns="http://www.w3.org/2000/svg" viewBox="0 0 86.93 112.9"><defs><style>.cls-1,.cls-2{fill:#eb5858;}.cls-1,.cls-3{stroke:#fff;stroke-miterlimit:10;}.cls-3{fill:none;stroke-width:0.25px;}</style></defs><title>2_1_2_bound-nopain</title><path class="cls-1" d="M670.87,372a15.21,15.21,0,0,0,1.73-4.61,10,10,0,0,1,.86-3.26s.53-4.5,1.25-7.58,2.3-8.81,4.3-10.39a10.07,10.07,0,0,1,5.47-2.3c2-.57,4.6-2,5.09-2.11s.92.43.92.43a10.25,10.25,0,0,0,2.84-4.54c.45-10.64,9.49-9.39,10.78-8.71,7.13,3.28,2.38,11.34,2.38,11.34l-.83,1.12s.11,2.41-.25,2.81-1.8,0-1.8,0a7.71,7.71,0,0,1-.54,1.48c-.25.4-1.08.54-1.08.54a1.55,1.55,0,0,1-.36,1.22c-1.08.65-3.41-1.51-3.78-1l-1.4,2a10,10,0,0,1,2.66,4c.58,2.16-.58,5.65-.58,5.65l-3,9.78s2.2,5,2.92,6.87a42.93,42.93,0,0,0,3.78,6l2.78,1.71a10.52,10.52,0,0,1,2.52,2.55c.25.47.18.43-.22.61s-1.3-.25-1.3-.25a5,5,0,0,1,1,1.48,2.55,2.55,0,0,1-.61,1.69c-.25.36-1.08.47-1.08.47a3,3,0,0,1-.47.4,1.42,1.42,0,0,1-.58,0h-1s-.44.8-.83.79a.84.84,0,0,1-.79-.58,6.93,6.93,0,0,1,0-1.44,30,30,0,0,1-2.09-3.06,10.22,10.22,0,0,1-.5-1.8s-6.09-6.31-6.41-6.66l-.9-1.19s-1.13,3.24-1.58,4.07a6.91,6.91,0,0,1-2,1.73,18.48,18.48,0,0,0,.8,2.38c.25.4,2.27,1.36,2.56,1.8s-.11,1.4-.11,1.4a20.22,20.22,0,0,1,2.84,3.35l4.1,8.28,1.69,2a4.29,4.29,0,0,1,.76,1.58,14.12,14.12,0,0,1-.25,4.1L700.31,419s0,6.29.07,7a8.11,8.11,0,0,0,.54,1.8s1.24-.78,1.87-.25.4,2.12.4,2.12A33.1,33.1,0,0,0,707,431.9l4.89,2.16a1,1,0,0,1,.43,1.15c-.28,1.49-2.48,1.9-4.14,1.91s-4.2-.68-5.72-.79a31.34,31.34,0,0,0-4.54.36,10.72,10.72,0,0,1-3.53-.07,1.67,1.67,0,0,1-1.33-1.3c-.07-.47.76-1.58.76-1.58a24,24,0,0,1,0-3.6.79.79,0,0,1,.76-.47s-.56-6.41-.86-8.53-2.14-4.14-2.53-6.51.37-7.67.37-7.67a9.63,9.63,0,0,0,.21-1.51,9.49,9.49,0,0,0-1.77-1.58s-6.91,2.27-7.41,2.38-1.34,1-1.76.94-1.8-3.85-1.8-3.85l-.43.32s-.88,5.48-1,6.15c-.13,1.1-3.83,1.66-4.75,1.69a63.13,63.13,0,0,1-8-1s-3.64,2.38-4.25,2.7-3.6,5.18-4.89,6.37-3.24,2.81-4,3.74a20.62,20.62,0,0,0-1.85,4.19s-.24,1,0,1.33,1.08,1.08,1.19,1.55-.47,1.3-.47,1.3a43,43,0,0,0,2.63,3.67,17.52,17.52,0,0,0,3.24,1.76s.72.4.61,1c-.14,1.8-3.71,2.09-3.71,2.09s-4.64.58-6.15-.25-2.45-2.95-3.2-3.64-4.54-2.7-4.54-4.07a2.65,2.65,0,0,1,.36-1.37l1.33-1.73s.85-2.52,2.66-2.48l3.67-8.31s.5-4.68,2.66-7a51.47,51.47,0,0,1,6.86-5.54,2,2,0,0,1,.18-.76l5.25-12.49a4.71,4.71,0,0,1-.07-2.3l.64-1.15a5.46,5.46,0,0,1-.47-1.3,36,36,0,0,1,.54-4.39s-.58-.29-.54-.76,2.59-5.76,3.31-6.15S670,373.5,670.87,372Z" transform="translate(-638.97 -328)"/><path class="cls-2" d="M670.87,372a15.21,15.21,0,0,0,1.73-4.61,10,10,0,0,1,.86-3.26s.53-4.5,1.25-7.58,2.3-8.81,4.3-10.39a10.07,10.07,0,0,1,5.47-2.3c2-.57,4.6-2,5.09-2.11s.92.43.92.43a10.25,10.25,0,0,0,2.84-4.54c.45-10.64,9.49-9.39,10.78-8.71,7.13,3.28,2.38,11.34,2.38,11.34l-.83,1.12s.11,2.41-.25,2.81-1.8,0-1.8,0a7.71,7.71,0,0,1-.54,1.48c-.25.4-1.08.54-1.08.54a1.55,1.55,0,0,1-.36,1.22c-1.08.65-3.41-1.51-3.78-1l-1.4,2a10,10,0,0,1,2.66,4c.58,2.16-.58,5.65-.58,5.65l-3,9.78s2.2,5,2.92,6.87a42.93,42.93,0,0,0,3.78,6l2.78,1.71a10.52,10.52,0,0,1,2.52,2.55c.25.47.18.43-.22.61s-1.3-.25-1.3-.25a5,5,0,0,1,1,1.48,2.55,2.55,0,0,1-.61,1.69c-.25.36-1.08.47-1.08.47a3,3,0,0,1-.47.4,1.42,1.42,0,0,1-.58,0h-1s-.44.8-.83.79a.84.84,0,0,1-.79-.58,6.93,6.93,0,0,1,0-1.44,30,30,0,0,1-2.09-3.06,10.22,10.22,0,0,1-.5-1.8s-6.09-6.31-6.41-6.66l-.9-1.19s-1.13,3.24-1.58,4.07a6.91,6.91,0,0,1-2,1.73,18.48,18.48,0,0,0,.8,2.38c.25.4,2.27,1.36,2.56,1.8s-.11,1.4-.11,1.4a20.22,20.22,0,0,1,2.84,3.35l4.1,8.28,1.69,2a4.29,4.29,0,0,1,.76,1.58,14.12,14.12,0,0,1-.25,4.1L700.31,419s0,6.29.07,7a8.11,8.11,0,0,0,.54,1.8s1.24-.78,1.87-.25.4,2.12.4,2.12A33.1,33.1,0,0,0,707,431.9l4.89,2.16a1,1,0,0,1,.43,1.15c-.28,1.49-2.48,1.9-4.14,1.91s-4.2-.68-5.72-.79a31.34,31.34,0,0,0-4.54.36,10.72,10.72,0,0,1-3.53-.07,1.67,1.67,0,0,1-1.33-1.3c-.07-.47.76-1.58.76-1.58a24,24,0,0,1,0-3.6.79.79,0,0,1,.76-.47s-.56-6.41-.86-8.53-2.14-4.14-2.53-6.51.37-7.67.37-7.67a9.63,9.63,0,0,0,.21-1.51,9.49,9.49,0,0,0-1.77-1.58s-6.91,2.27-7.41,2.38-1.34,1-1.76.94-1.8-3.85-1.8-3.85l-.43.32s-.88,5.48-1,6.15c-.13,1.1-3.83,1.66-4.75,1.69a63.13,63.13,0,0,1-8-1s-3.64,2.38-4.25,2.7-3.6,5.18-4.89,6.37-3.24,2.81-4,3.74a20.62,20.62,0,0,0-1.85,4.19s-.24,1,0,1.33,1.08,1.08,1.19,1.55-.47,1.3-.47,1.3a43,43,0,0,0,2.63,3.67,17.52,17.52,0,0,0,3.24,1.76s.72.4.61,1c-.14,1.8-3.71,2.09-3.71,2.09s-4.64.58-6.15-.25-2.45-2.95-3.2-3.64-4.54-2.7-4.54-4.07a2.65,2.65,0,0,1,.36-1.37l1.33-1.73s.85-2.52,2.66-2.48l3.67-8.31s.5-4.68,2.66-7a51.47,51.47,0,0,1,6.86-5.54,2,2,0,0,1,.18-.76l5.25-12.49a4.71,4.71,0,0,1-.07-2.3l.64-1.15a5.46,5.46,0,0,1-.47-1.3,36,36,0,0,1,.54-4.39s-.58-.29-.54-.76,2.59-5.76,3.31-6.15S670,373.5,670.87,372Z" transform="translate(-638.97 -328)"/><path class="cls-3" d="M672.57,367.38s.64,5,1.1,6.62,4.68,11.09,4.68,11.09a19.87,19.87,0,0,0-.58,2,22.45,22.45,0,0,0,0,4.18s-.32,1.37,0,1.66,1.3-.14,1.3-.14h1.22s.32,1.12.72,1.15a3.76,3.76,0,0,0,2-1.15c.07.76-1.58,2.09-1.8,2.52s0,.65.5.65a3.41,3.41,0,0,0,2.09-1.22c.29-.54,1.44-2.41,1.22-4.1a19.31,19.31,0,0,0-1.66-4.54,63.92,63.92,0,0,1-1.8-8.21c-.07-3.74-1.8-10.8-1.8-10.8a12,12,0,0,0,3.6-5.76c-3.24-1.15-8.71-4.8-8.71-4.8" transform="translate(-638.97 -328)"/><line class="cls-3" x1="56.65" y1="39.92" x2="52.87" y2="47.44"/><path class="cls-2" d="M725.45,409.06a1.3,1.3,0,0,0-.79-2.31h-3.53c.13-.73.31-1.94.31-2.07a8.26,8.26,0,0,0-.79-2.49,1.49,1.49,0,0,0-1.4-.42c-.85.18-.91.73-.91.85s.06,1.46.06,1.88c-.43.91-1.76,3.22-2.19,3.41a.86.86,0,0,0-.3-.13h-4.44a.68.68,0,0,0-.67.67v6.14a.66.66,0,0,0,.67.61h3.95a.68.68,0,0,0,.67-.67v-.18a.6.6,0,0,1,.24.06,1.58,1.58,0,0,0,1,.36h6c2.25,0,2-1.94,1.76-2.24a1.61,1.61,0,0,0,.31-1.71C725.39,410.46,725.81,409.79,725.45,409.06Zm-10.27,5.41h-3.83v-6.08h3.83Zm9.24-5.47-.06.12c1,.31.48,1.46-.25,1.52l-.06.12c1,.25.49,1.46-.24,1.52l-.06.12c.79.13.61,1.52-.61,1.52h-6c-.42,0-.79-.48-1.15-.48h-.31v-4.68a5,5,0,0,0,1-.67,17.12,17.12,0,0,0,2.24-3.65c0-.36-.06-1.94-.06-1.94a.91.91,0,0,1,1.16-.13,7.07,7.07,0,0,1,.73,2.25s-.31,2.07-.49,2.68h4.2C725.57,407.36,725.39,408.82,724.42,409Z" transform="translate(-638.97 -328)"/></svg>