<?xml version="1.0" encoding="utf-8"?>
<!-- Generator: Adobe Illustrator 22.0.1, SVG Export Plug-In . SVG Version: 6.00 Build 0)  -->
<svg version="1.1" id="Layer_1" xmlns="http://www.w3.org/2000/svg" xmlns:xlink="http://www.w3.org/1999/xlink" x="0px" y="0px"
	 viewBox="0 0 73.9 112.9" style="enable-background:new 0 0 73.9 112.9;" xml:space="preserve">
<style type="text/css">
	.st0{fill:#FFFFFF;stroke:#EB5858;stroke-miterlimit:10;}
	.st1{fill:#FBDEDE;}
	.st2{fill:none;stroke:#EB5858;stroke-width:0.5;stroke-miterlimit:10;}
</style>
<title>2_1_2_bound</title>
<path class="st0" d="M31.9,44c0.8-1.4,1.4-3,1.7-4.6c0.1-1.1,0.4-2.2,0.9-3.3c0,0,0.5-4.5,1.2-7.6S38,19.7,40,18.2
	c1.5-1.3,3.5-2.1,5.5-2.3c2-0.6,4.6-2,5.1-2.1s0.9,0.4,0.9,0.4c1.3-1.2,2.3-2.8,2.8-4.5C54.8-1,63.8,0.2,65.1,0.9
	c7.1,3.3,2.4,11.3,2.4,11.3l-0.8,1.1c0,0,0.1,2.4-0.2,2.8c-0.4,0.4-1.8,0-1.8,0c-0.1,0.5-0.3,1-0.5,1.5c-0.3,0.4-1.1,0.5-1.1,0.5
	c0.1,0.4-0.1,0.9-0.4,1.2c-1.1,0.6-3.4-1.5-3.8-1l-1.4,2c1.2,1.1,2.1,2.5,2.7,4c0.6,2.2-0.6,5.6-0.6,5.6l-3,9.8c0,0,2.2,5,2.9,6.9
	c1.1,2.1,2.4,4.1,3.8,6l2.8,1.7c1,0.7,1.8,1.6,2.5,2.5c0.2,0.5,0.2,0.4-0.2,0.6s-1.4,0-1.4,0c0.4,0.4,0.8,0.9,1,1.5
	c0,0.6-0.2,1.2-0.6,1.7c-0.2,0.4-1.1,0.5-1.1,0.5c-0.1,0.1-0.3,0.3-0.5,0.4c-0.2,0-0.4,0-0.6,0h-1c0,0-0.4,0.8-0.8,0.8
	c-0.4,0-0.7-0.2-0.8-0.6c-0.1-0.5-0.1-1,0-1.4c-0.8-1-1.5-2-2.1-3.1c-0.2-0.6-0.4-1.2-0.5-1.8c0,0-6.1-6.3-6.4-6.7l-0.9-1.2
	c0,0-1.1,3.2-1.6,4.1c-0.5,0.7-1.2,1.3-2,1.7c0.2,0.8,0.5,1.6,0.8,2.4c0.2,0.4,2.3,1.4,2.6,1.8s-0.1,1.4-0.1,1.4
	c1.1,1,2,2.1,2.8,3.3l4.1,8.3l1.7,2c0.4,0.5,0.6,1,0.8,1.6c0.1,1.4,0,2.8-0.2,4.1L61.3,91c0,0,0,6.3,0.1,7c0.1,0.6,0.3,1.2,0.5,1.8
	c0,0,1.2-0.8,1.9-0.2c0.6,0.5,0.4,2.1,0.4,2.1c1.2,0.8,2.5,1.6,3.8,2.2l4.9,2.2c0.4,0.2,0.6,0.7,0.4,1.2c-0.3,1.5-2.5,1.9-4.1,1.9
	s-4.2-0.7-5.7-0.8c-1.5,0-3,0.1-4.5,0.4c-1.2,0.2-2.4,0.1-3.5-0.1c-0.7-0.1-1.2-0.6-1.3-1.3c-0.1-0.5,0.8-1.6,0.8-1.6
	c-0.1-1.2-0.1-2.4,0-3.6c0.1-0.3,0.4-0.5,0.8-0.5c0,0-0.6-6.4-0.9-8.5s-2.1-4.1-2.5-6.5s0.4-7.7,0.4-7.7c0.1-0.5,0.2-1,0.2-1.5
	c-0.5-0.6-1.1-1.1-1.8-1.6c0,0-6.9,2.3-7.4,2.4s-1.3,1-1.8,0.9s-2-3.9-2-3.9l-0.4,0.3c0,0-0.9,5.5-1,6.2c-0.1,1.1-3.8,1.7-4.8,1.7
	c-2.7-0.2-5.4-0.5-8-1c0,0-3.6,2.4-4.2,2.7s-3.6,5.2-4.9,6.4s-3.2,2.8-4,3.7c-0.8,1.3-1.4,2.7-1.9,4.2c0,0-0.2,1,0,1.3
	s1.1,1.1,1.2,1.6s-0.5,1.3-0.5,1.3c0.8,1.3,1.7,2.5,2.6,3.7c1,0.7,2.1,1.3,3.2,1.8c0,0,0.7,0.4,0.6,1c-0.1,1.8-3.7,2.1-3.7,2.1
	s-4.6,0.6-6.2-0.2s-2.4-3-3.2-3.6s-4.5-2.7-4.5-4.1c0-0.5,0.1-1,0.4-1.4l1.3-1.7c0,0,0.8-2.5,2.7-2.5l3.7-8.3c0,0,0.5-4.7,2.7-7
	c2.1-2,4.4-3.9,6.9-5.5c0-0.3,0.1-0.5,0.2-0.8l5.2-12.5c-0.2-0.7-0.2-1.5-0.1-2.3l0.6-1.1c-0.2-0.4-0.4-0.8-0.5-1.3
	c0.1-1.5,0.3-2.9,0.5-4.4c0,0-0.6-0.3-0.5-0.8s2.6-5.8,3.3-6.2S31,45.5,31.9,44z"/>
<path class="st1" d="M31.9,44c0.8-1.4,1.4-3,1.7-4.6c0.1-1.1,0.4-2.2,0.9-3.3c0,0,0.5-4.5,1.2-7.6S38,19.7,40,18.2
	c1.5-1.3,3.5-2.1,5.5-2.3c2-0.6,4.6-2,5.1-2.1s0.9,0.4,0.9,0.4c1.3-1.2,2.3-2.8,2.8-4.5C54.8-1,63.8,0.2,65.1,0.9
	c7.1,3.3,2.4,11.3,2.4,11.3l-0.8,1.1c0,0,0.1,2.4-0.2,2.8c-0.4,0.4-1.8,0-1.8,0c-0.1,0.5-0.3,1-0.5,1.5c-0.3,0.4-1.1,0.5-1.1,0.5
	c0.1,0.4-0.1,0.9-0.4,1.2c-1.1,0.6-3.4-1.5-3.8-1l-1.4,2c1.2,1.1,2.1,2.5,2.7,4c0.6,2.2-0.6,5.6-0.6,5.6l-3,9.8c0,0,2.2,5,2.9,6.9
	c1.1,2.1,2.4,4.1,3.8,6l2.8,1.7c1,0.7,1.8,1.6,2.5,2.5c0.2,0.5,0.2,0.4-0.2,0.6s-1.4,0-1.4,0c0.4,0.4,0.8,0.9,1,1.5
	c0,0.6-0.2,1.2-0.6,1.7c-0.2,0.4-1.1,0.5-1.1,0.5c-0.1,0.1-0.3,0.3-0.5,0.4c-0.2,0-0.4,0-0.6,0h-1c0,0-0.4,0.8-0.8,0.8
	c-0.4,0-0.7-0.2-0.8-0.6c-0.1-0.5-0.1-1,0-1.4c-0.8-1-1.5-2-2.1-3.1c-0.2-0.6-0.4-1.2-0.5-1.8c0,0-6.1-6.3-6.4-6.7l-0.9-1.2
	c0,0-1.1,3.2-1.6,4.1c-0.5,0.7-1.2,1.3-2,1.7c0.2,0.8,0.5,1.6,0.8,2.4c0.2,0.4,2.3,1.4,2.6,1.8s-0.1,1.4-0.1,1.4
	c1.1,1,2,2.1,2.8,3.3l4.1,8.3l1.7,2c0.4,0.5,0.6,1,0.8,1.6c0.1,1.4,0,2.8-0.2,4.1L61.3,91c0,0,0,6.3,0.1,7c0.1,0.6,0.3,1.2,0.5,1.8
	c0,0,1.2-0.8,1.9-0.2c0.6,0.5,0.4,2.1,0.4,2.1c1.2,0.8,2.5,1.6,3.8,2.2l4.9,2.2c0.4,0.2,0.6,0.7,0.4,1.2c-0.3,1.5-2.5,1.9-4.1,1.9
	s-4.2-0.7-5.7-0.8c-1.5,0-3,0.1-4.5,0.4c-1.2,0.2-2.4,0.1-3.5-0.1c-0.7-0.1-1.2-0.6-1.3-1.3c-0.1-0.5,0.8-1.6,0.8-1.6
	c-0.1-1.2-0.1-2.4,0-3.6c0.1-0.3,0.4-0.5,0.8-0.5c0,0-0.6-6.4-0.9-8.5s-2.1-4.1-2.5-6.5s0.4-7.7,0.4-7.7c0.1-0.5,0.2-1,0.2-1.5
	c-0.5-0.6-1.1-1.1-1.8-1.6c0,0-6.9,2.3-7.4,2.4s-1.3,1-1.8,0.9s-2-3.9-2-3.9l-0.4,0.3c0,0-0.9,5.5-1,6.2c-0.1,1.1-3.8,1.7-4.8,1.7
	c-2.7-0.2-5.4-0.5-8-1c0,0-3.6,2.4-4.2,2.7s-3.6,5.2-4.9,6.4s-3.2,2.8-4,3.7c-0.8,1.3-1.4,2.7-1.9,4.2c0,0-0.2,1,0,1.3
	s1.1,1.1,1.2,1.6s-0.5,1.3-0.5,1.3c0.8,1.3,1.7,2.5,2.6,3.7c1,0.7,2.1,1.3,3.2,1.8c0,0,0.7,0.4,0.6,1c-0.1,1.8-3.7,2.1-3.7,2.1
	s-4.6,0.6-6.2-0.2s-2.4-3-3.2-3.6s-4.5-2.7-4.5-4.1c0-0.5,0.1-1,0.4-1.4l1.3-1.7c0,0,0.8-2.5,2.7-2.5l3.7-8.3c0,0,0.5-4.7,2.7-7
	c2.1-2,4.4-3.9,6.9-5.5c0-0.3,0.1-0.5,0.2-0.8l5.2-12.5c-0.2-0.7-0.2-1.5-0.1-2.3l0.6-1.1c-0.2-0.4-0.4-0.8-0.5-1.3
	c0.1-1.5,0.3-2.9,0.5-4.4c0,0-0.6-0.3-0.5-0.8s2.6-5.8,3.3-6.2S31,45.5,31.9,44z"/>
<path class="st2" d="M33.6,39.4c0,0,0.6,5,1.1,6.6s4.7,11.1,4.7,11.1c-0.2,0.7-0.4,1.3-0.6,2c-0.1,1.4-0.1,2.8,0,4.2
	c0,0-0.3,1.4,0,1.7s1.3-0.1,1.3-0.1h1.2c0,0,0.3,1.1,0.7,1.2c0.8-0.2,1.5-0.6,2-1.2c0.1,0.8-1.6,2.1-1.8,2.5s0,0.7,0.5,0.7
	c0.8-0.1,1.6-0.6,2.1-1.2c0.3-0.5,1.4-2.4,1.2-4.1c-0.4-1.6-0.9-3.1-1.7-4.5c-0.8-2.7-1.4-5.4-1.8-8.2c-0.1-3.7-1.8-10.8-1.8-10.8
	c1.7-1.5,3-3.5,3.6-5.8c-3.2-1.2-8.7-4.8-8.7-4.8"/>
<line class="st2" x1="56.6" y1="39.9" x2="52.8" y2="47.4"/>
</svg>
