<svg id="Layer_1" data-name="Layer 1" xmlns="http://www.w3.org/2000/svg" viewBox="0 0 73.91 112.9"><defs><style>.cls-1,.cls-2{fill:#eb5858;}.cls-1,.cls-3{stroke:#fff;stroke-miterlimit:10;}.cls-3{fill:none;stroke-width:0.25px;}</style></defs><title>2_1_2_bound</title><path class="cls-1" d="M31.86,44a15.29,15.29,0,0,0,1.73-4.61,10,10,0,0,1,.86-3.26s.53-4.5,1.25-7.58S38,19.74,40,18.16a10,10,0,0,1,5.47-2.3c2-.57,4.6-2,5.09-2.11s.92.43.92.43a10.21,10.21,0,0,0,2.84-4.54C54.77-1,63.81.25,65.1.93c7.13,3.28,2.38,11.34,2.38,11.34l-.83,1.12s.11,2.41-.25,2.81-1.8,0-1.8,0a7.81,7.81,0,0,1-.54,1.48c-.25.4-1.08.54-1.08.54a1.54,1.54,0,0,1-.36,1.22c-1.08.65-3.41-1.51-3.78-1l-1.4,2a9.94,9.94,0,0,1,2.66,4c.58,2.16-.58,5.65-.58,5.65l-3,9.78s2.2,5,2.92,6.87a42.87,42.87,0,0,0,3.78,6L66,54.45A10.47,10.47,0,0,1,68.52,57c.25.47.18.43-.22.61S67,57.36,67,57.36A5.17,5.17,0,0,1,68,58.84a2.52,2.52,0,0,1-.61,1.69c-.25.36-1.08.47-1.08.47a3.54,3.54,0,0,1-.47.4,1.44,1.44,0,0,1-.58,0H64.3s-.44.8-.83.79a.83.83,0,0,1-.79-.58,6.76,6.76,0,0,1,0-1.44,30.52,30.52,0,0,1-2.09-3.06,9.65,9.65,0,0,1-.5-1.8S54,49,53.68,48.65l-.9-1.19s-1.13,3.24-1.58,4.07a6.71,6.71,0,0,1-2,1.73A19.26,19.26,0,0,0,50,55.64c.25.4,2.27,1.36,2.56,1.8s-.11,1.4-.11,1.4a20.34,20.34,0,0,1,2.84,3.35l4.1,8.28,1.69,2a4.38,4.38,0,0,1,.76,1.58,14,14,0,0,1-.25,4.1L61.3,91s0,6.29.07,7a7.68,7.68,0,0,0,.54,1.8s1.24-.78,1.87-.25.4,2.12.4,2.12A33.14,33.14,0,0,0,68,103.9l4.89,2.16a1,1,0,0,1,.43,1.15c-.28,1.49-2.48,1.9-4.14,1.91s-4.2-.68-5.72-.79a30.55,30.55,0,0,0-4.54.36,10.77,10.77,0,0,1-3.53-.07,1.67,1.67,0,0,1-1.33-1.3c-.07-.47.76-1.58.76-1.58a22.88,22.88,0,0,1,0-3.6.8.8,0,0,1,.76-.47s-.56-6.41-.86-8.53S52.58,89,52.19,86.63s.37-7.67.37-7.67a10.59,10.59,0,0,0,.21-1.51A9.31,9.31,0,0,0,51,75.87s-6.91,2.27-7.41,2.38-1.34,1-1.76.94-1.8-3.85-1.8-3.85l-.43.32s-.88,5.48-1,6.15c-.13,1.1-3.83,1.66-4.75,1.69a63.65,63.65,0,0,1-8-1s-3.64,2.38-4.25,2.7S18,90.38,16.71,91.57s-3.24,2.81-4,3.74a20.48,20.48,0,0,0-1.85,4.19s-.24,1,0,1.33,1.08,1.08,1.19,1.55-.47,1.3-.47,1.3a42.48,42.48,0,0,0,2.63,3.67,18,18,0,0,0,3.24,1.76s.72.4.61,1c-.14,1.8-3.71,2.09-3.71,2.09s-4.64.58-6.15-.25S5.75,109,5,108.31s-4.54-2.7-4.54-4.07a2.65,2.65,0,0,1,.36-1.37l1.33-1.73S3,98.62,4.81,98.66l3.67-8.31s.5-4.68,2.66-7A51.39,51.39,0,0,1,18,77.81a2.16,2.16,0,0,1,.18-.76l5.25-12.49a4.7,4.7,0,0,1-.07-2.3L24,61.11a5.32,5.32,0,0,1-.47-1.3,35.55,35.55,0,0,1,.54-4.39s-.58-.29-.54-.76,2.59-5.76,3.31-6.15S31,45.5,31.86,44Z" transform="translate(0.01 0)"/><path class="cls-2" d="M31.86,44a15.29,15.29,0,0,0,1.73-4.61,10,10,0,0,1,.86-3.26s.53-4.5,1.25-7.58S38,19.74,40,18.16a10,10,0,0,1,5.47-2.3c2-.57,4.6-2,5.09-2.11s.92.43.92.43a10.21,10.21,0,0,0,2.84-4.54C54.77-1,63.81.25,65.1.93c7.13,3.28,2.38,11.34,2.38,11.34l-.83,1.12s.11,2.41-.25,2.81-1.8,0-1.8,0a7.81,7.81,0,0,1-.54,1.48c-.25.4-1.08.54-1.08.54a1.54,1.54,0,0,1-.36,1.22c-1.08.65-3.41-1.51-3.78-1l-1.4,2a9.94,9.94,0,0,1,2.66,4c.58,2.16-.58,5.65-.58,5.65l-3,9.78s2.2,5,2.92,6.87a42.87,42.87,0,0,0,3.78,6L66,54.45A10.47,10.47,0,0,1,68.52,57c.25.47.18.43-.22.61S67,57.36,67,57.36A5.17,5.17,0,0,1,68,58.84a2.52,2.52,0,0,1-.61,1.69c-.25.36-1.08.47-1.08.47a3.54,3.54,0,0,1-.47.4,1.44,1.44,0,0,1-.58,0H64.3s-.44.8-.83.79a.83.83,0,0,1-.79-.58,6.76,6.76,0,0,1,0-1.44,30.52,30.52,0,0,1-2.09-3.06,9.65,9.65,0,0,1-.5-1.8S54,49,53.68,48.65l-.9-1.19s-1.13,3.24-1.58,4.07a6.71,6.71,0,0,1-2,1.73A19.26,19.26,0,0,0,50,55.64c.25.4,2.27,1.36,2.56,1.8s-.11,1.4-.11,1.4a20.34,20.34,0,0,1,2.84,3.35l4.1,8.28,1.69,2a4.38,4.38,0,0,1,.76,1.58,14,14,0,0,1-.25,4.1L61.3,91s0,6.29.07,7a7.68,7.68,0,0,0,.54,1.8s1.24-.78,1.87-.25.4,2.12.4,2.12A33.14,33.14,0,0,0,68,103.9l4.89,2.16a1,1,0,0,1,.43,1.15c-.28,1.49-2.48,1.9-4.14,1.91s-4.2-.68-5.72-.79a30.55,30.55,0,0,0-4.54.36,10.77,10.77,0,0,1-3.53-.07,1.67,1.67,0,0,1-1.33-1.3c-.07-.47.76-1.58.76-1.58a22.88,22.88,0,0,1,0-3.6.8.8,0,0,1,.76-.47s-.56-6.41-.86-8.53S52.58,89,52.19,86.63s.37-7.67.37-7.67a10.59,10.59,0,0,0,.21-1.51A9.31,9.31,0,0,0,51,75.87s-6.91,2.27-7.41,2.38-1.34,1-1.76.94-1.8-3.85-1.8-3.85l-.43.32s-.88,5.48-1,6.15c-.13,1.1-3.83,1.66-4.75,1.69a63.65,63.65,0,0,1-8-1s-3.64,2.38-4.25,2.7S18,90.38,16.71,91.57s-3.24,2.81-4,3.74a20.48,20.48,0,0,0-1.85,4.19s-.24,1,0,1.33,1.08,1.08,1.19,1.55-.47,1.3-.47,1.3a42.48,42.48,0,0,0,2.63,3.67,18,18,0,0,0,3.24,1.76s.72.4.61,1c-.14,1.8-3.71,2.09-3.71,2.09s-4.64.58-6.15-.25S5.75,109,5,108.31s-4.54-2.7-4.54-4.07a2.65,2.65,0,0,1,.36-1.37l1.33-1.73S3,98.62,4.81,98.66l3.67-8.31s.5-4.68,2.66-7A51.39,51.39,0,0,1,18,77.81a2.16,2.16,0,0,1,.18-.76l5.25-12.49a4.7,4.7,0,0,1-.07-2.3L24,61.11a5.32,5.32,0,0,1-.47-1.3,35.55,35.55,0,0,1,.54-4.39s-.58-.29-.54-.76,2.59-5.76,3.31-6.15S31,45.5,31.86,44Z" transform="translate(0.01 0)"/><path class="cls-3" d="M33.56,39.38s.64,5,1.1,6.62,4.68,11.09,4.68,11.09a19,19,0,0,0-.58,2,22.19,22.19,0,0,0,0,4.18s-.32,1.37,0,1.66,1.3-.14,1.3-.14h1.22s.32,1.12.72,1.15a3.75,3.75,0,0,0,2-1.15c.07.76-1.58,2.09-1.8,2.52s0,.65.5.65a3.41,3.41,0,0,0,2.09-1.22c.29-.54,1.44-2.41,1.22-4.1a19.3,19.3,0,0,0-1.66-4.54,63.46,63.46,0,0,1-1.8-8.21c-.07-3.74-1.8-10.8-1.8-10.8a12,12,0,0,0,3.6-5.76c-3.24-1.15-8.71-4.8-8.71-4.8" transform="translate(0.01 0)"/><line class="cls-3" x1="56.62" y1="39.92" x2="52.84" y2="47.44"/></svg>